<?xml version="1.0" encoding="UTF-8"?>
<svg id="Calque_2" data-name="Calque 2" xmlns="http://www.w3.org/2000/svg" viewBox="0 0 138.75 139.26">
  <defs>
    <style>
      .cls-1 {
        fill: #939daf;
      }

      .cls-2 {
        fill: #3a72a1;
      }
    </style>
  </defs>
  <g id="Calque_1-2" data-name="Calque 1">
    <g>
      <path class="cls-2" d="M60,1.54c.11,3.56-3.17,6.3-6,8-10.76,6.48-17.49,5.68-27.05,17.95-44.33,56.93,18.01,131.38,76.05,86.05,28.08-21.93,30.51-66.76-6.97-79.03-37.32-12.22-68.83,30.29-43.84,53.84,23.19,21.84,56.79-10.39,34.95-24.94-11.49-7.66-21.75,23.01-26.85,4.69-5.32-19.09,33.59-28.4,44.48-4.35,13.55,29.93-18.89,51.22-46.72,42.73-32.64-9.96-37.62-48.69-16.03-71.92,42.91-46.19,122.08,6.58,88.75,66.75-17.23,31.1-58.24,47.68-91.42,31.87C-22.35,103.78-8.5.87,60,1.54Z"/>
      <path class="cls-1" d="M60,1.54c.18,0,1.03-1.66,2.63-1.53,1.5.11,13.07,4.6,9.37,7.53l-18,2.01c2.83-1.7,6.11-4.44,6-8Z"/>
    </g>
  </g>
</svg>