<?xml version="1.0" encoding="UTF-8"?>
<svg id="Calque_2" data-name="Calque 2" xmlns="http://www.w3.org/2000/svg" viewBox="0 0 294.44 174.53">
  <defs>
    <style>
      .cls-1 {
        fill: #978497;
      }

      .cls-2 {
        fill: #4f4647;
      }

      .cls-3 {
        fill: #939daf;
      }

      .cls-4 {
        fill: #596b79;
      }

      .cls-5 {
        fill: #fcf3ea;
      }
    </style>
  </defs>
  <g id="Calque_1-2" data-name="Calque 1">
    <g>
      <path class="cls-1" d="M42.15,163.95c-3.47,4.23-12.31-1.06-13.62-5.38-2.64-8.74.78-27.13-.37-37.63-2.04-18.59-10.35-26.27-7.99-49.97,2.6-26.05,16.11-25.77,31.99-42.01,8.14-4.29,3.31,4.15,9.98,2.97l-1.99-7.97c12.16.57,27.22-4.23,38.9-4.08,14.67.18,57.53,7.01,70.07,12.1,3.07,1.24,5.08,2.92,9.03,1.95-1.29-5.06-9.16-6.17-11.14-10.01-.89-1.73.83-7.71,1.15-7.96,4.87-3.69,9.48,12.63,13.95,9.92.27-.16-.53-2.71,1.03-3.4,18.15-7.97,26.06-3.76,42.58,1.15,2.46.73,4.18-1.7,4.42-1.69,2.48.14,2.96,2.95,4,4-4.65,2.09-.89,5.76.92,8.09,11.38,14.69,28.95,5.88,41.77,13.82,1.87,1.16,1.13,3.94,1.31,4.09-4.79-.48-10.49-.26-9.99,5.98l9.98,2.01v-7.99c.74.6,3.77.48,6.07,2.86,5.53,5.72,5.43,21.42,2,28.28-12.17-2.01-5.56-.21-9.06,4.78-2.46,3.51-46.82,17.98-52.91,9l-16.08-16.9c.79,13.47,11.99,18.44,19.21,26.77,1.3,1.5,1.06,5.15,2.66,6.29,3.36,2.38,9.89-1.28,10.11,2.91l-15.62-1.35-32.36-16.62c-1.3,4.76,6.69,6.95,5.9,10.77-1.15,5.54-26.9,16-29.36,19.76-7.95,12.14,9.55,28.46-9.95,32.81-2.01.45-5.19-1.99-6.28-1.09-.93.76-.02,3.41-.33,3.73-.73.76-5.41-.21-5.03,6.03-2.65.24-12.97-4.86-12.97-7.03v-30c0-1.58-2.65-6.73-6-4.98l2,7.96c-1.77,2.52-31.76,2.6-37.02,2.03-7.3-.79-28.38-10.33-29.93-10.02-5.51,1.09-1.51,24.95-5.33,27.76-1.37,1.01-5.43-.67-7.26.75-1.02.78-.3,3.41-.46,3.5-3.83,2.14-2.12-3.16-8,4ZM228.14,27.96c-4.44-3.19-9.2,8.57-2.96,9.98s4.75-8.69,2.96-9.98ZM206.14,33.96c-6.12-.55-6.52,5.04-5.98,9.98l5.98.02v-10ZM254.14,69.94c1.19-7.56-3.44-8.72-9.98-7.98l-.02,7.98h10Z"/>
      <path class="cls-4" d="M60.15,163.95c-.38.44.8,3.27-2.39,4.66-7.78,3.38-26.53,2.06-31.7-5.57-7.95-11.75-.33-26.88-2.1-39.92s-12.74-28.34-9.84-43.17c-5.03,2.42-7.17,9.44-13.97,7.99-.31-3.47-.28-6.58,1.08-9.91.94-2.31,24.13-34.34,26.84-37.16,19.41-20.14,46-25.82,73.16-25,9.46.29,58.73,10.25,60.87,8.04.89-.92-1.9-10.71,7.14-12,9.36-1.34,8.02,5.81,10.19,6.2,1.32.23,20.57-4.95,26.11-5.4,2.07-.17,6.09,1.73,6.59,1.26.79-.75.39-13.24,8.96-13.92,13.13-1.05,5.82,15.56,9.05,21.9-.24-.01-1.96,2.42-4.42,1.69-16.52-4.91-24.43-9.12-42.58-1.15-1.57.69-.76,3.23-1.03,3.4-4.47,2.71-9.09-13.61-13.95-9.92-.32.24-2.04,6.22-1.15,7.96,1.97,3.84,9.84,4.95,11.14,10.01-3.94.97-5.96-.71-9.03-1.95-12.54-5.09-55.4-11.91-70.07-12.1-11.68-.15-26.74,4.66-38.9,4.08l1.99,7.97c-6.68,1.18-1.85-7.26-9.98-2.97-15.89,16.24-29.4,15.95-31.99,42.01-2.36,23.69,5.96,31.38,7.99,49.97,1.15,10.5-2.27,28.88.37,37.63,1.3,4.32,10.14,9.61,13.62,5.38-2.13,2.13,1.76,6.22,3.99,3.99s-1.86-6.11-3.99-3.99c5.88-7.16,4.17-1.86,8-4v5.99s3.99,0,3.99,0v-5.98s-3.99-.01-3.99-.01c.15-.09-.56-2.72.46-3.5,1.83-1.41,5.89.26,7.26-.75,3.83-2.81-.18-26.66,5.33-27.76,1.55-.31,22.63,9.23,29.93,10.02,5.25.57,35.25.49,37.02-2.03l-2-7.96c3.35-1.75,6,3.4,6,4.98v30c0,2.17,10.32,7.27,12.97,7.03-.38-6.25,4.3-5.28,5.03-6.03v5.99s3.99,0,3.99,0v-5.98s-3.99-.01-3.99-.01c.31-.32-.6-2.96.33-3.73,1.1-.91,4.28,1.54,6.28,1.09,19.5-4.35,2-20.67,9.95-32.81,2.46-3.76,28.21-14.22,29.36-19.76.79-3.83-7.2-6.02-5.9-10.77l32.36,16.62,15.62,1.35c-.22-4.19-6.75-.53-10.11-2.91-1.6-1.13-1.36-4.79-2.66-6.29-7.23-8.32-18.42-13.3-19.21-26.77l16.08,16.9c6.08,8.98,50.45-5.48,52.91-9,3.49-4.99-3.12-6.79,9.06-4.78,3.43-6.86,3.53-22.56-2-28.28-2.3-2.38-5.33-2.25-6.06-2.86v7.99s-9.99-2.01-9.99-2.01c-.5-6.24,5.2-6.46,9.99-5.98-.18-.15.55-2.93-1.31-4.09-12.81-7.94-30.38.87-41.77-13.82-1.81-2.33-5.57-6-.92-8.09,18.09,18.15,17.64,8.85,38.52,14.48,15.23,4.11,24.49,23.21,21.06,38.1-.7,3.02-12.08,25.04-14.51,27.48-11.08,11.16-37.05,15.58-52.08,13.93-11.06-1.21-16.67-8.11-26.72-9.73-10.7,6.8,5.65,42.8,3.39,45.45-.72.85-3.42,0-3.66.28v-5.99c-1.33-.12-2.67.06-4,0,.31-2.81,2.23-5.7,1.93-8.87-.51-5.4-6.43-11.82-3.94-19.14-11.25-.56-17.49,7.81-24.05,15.33,3.01,3.62-.17,13.28.36,14.29,1.26,2.39,9.84,8.49,13.46,6.13s-4.05-8.61,12.24-7.74c-.22,1.95.12,4.03.01,5.99h3.99c-.25.3.49,3.06-1.33,4.08-12.8,7.19-25.63-1.02-26.65-.08-1.64,1.52,2.06,11.09-11.48,13.53-26.18,4.72-35.69-6.44-30.53-31.53-13.38,1.18-24.63,1.93-38.01,0-7.43-1.07-18.16-5.74-23.5-5.62-6.21.14-3.43,13.79-1.52,17.64,2.9,5.82,18.6,7.83,13,1.99-.68-.71-4.79,1.6-3.97-1.98l15.99-6.02c-.23,18.22-15.41,19.67-27.98,10,1.75,7.2-3.73,5.66-4.02,6l-.99-5.99c-2.12,1.82-3.65,3.03-3,5.98h3.99ZM224.14,3.96c-6.52-1.33-4.96,8.48-7.99,11.97,8.33,2.06,7.77-6.05,7.99-11.97ZM282.14,91.96c-.74-.68-7.48-1.26-5.97,2.96,2.21,6.17,8.06-1.02,5.97-2.96ZM242.15,109.95c.07,1.33-.11,2.67-.01,3.99,5.82,2.28,35.42-6.41,33.98-12.93-2.49-11.34-21.16,2.48-27.98.95-3.89,3.78,9.91,7.52-5.99,7.99-.11-1.99.12-4.02.01-6h-10.02s0,6,0,6c3.32-.02,6.68.11,10.01,0ZM88.14,153.96c-2.18-2.18-6.16,1.8-3.98,3.98s6.16-1.8,3.98-3.98ZM192.14,153.96c-2.18-2.18-6.16,1.8-3.98,3.98s6.16-1.8,3.98-3.98ZM166.14,161.96h-3.98v5.98h3.98v-5.98Z"/>
      <path class="cls-1" d="M92.15,141.95c-.02,2,.02,4,0,6l-15.99,6.02c-.82,3.58,3.29,1.27,3.97,1.98,5.6,5.84-10.1,3.83-13-1.99-1.92-3.84-4.7-17.5,1.52-17.64,5.34-.12,16.07,4.55,23.5,5.62Z"/>
      <path class="cls-4" d="M254.14,69.94h-10s.02-7.98.02-7.98c6.54-.75,11.17.42,9.98,7.98Z"/>
      <path class="cls-2" d="M228.14,27.96c1.8,1.29,2.98,11.31-2.96,9.98-6.25-1.41-1.48-13.16,2.96-9.98Z"/>
      <path class="cls-2" d="M206.14,33.96v10s-5.98-.02-5.98-.02c-.54-4.94-.14-10.53,5.98-9.98Z"/>
      <path class="cls-1" d="M196.15,149.95c-16.29-.87-8.69,5.43-12.24,7.74s-12.19-3.75-13.46-6.13c-.53-1,2.65-10.66-.36-14.29,6.56-7.52,12.8-15.9,24.05-15.33-2.49,7.33,3.43,13.74,3.94,19.14.3,3.17-1.62,6.06-1.93,8.87Z"/>
      <path class="cls-1" d="M242.15,109.95c15.9-.47,2.1-4.21,5.99-7.99,6.83,1.53,25.49-12.28,27.98-.95,1.44,6.52-28.16,15.21-33.98,12.93-.1-1.32.08-2.67.01-3.99Z"/>
      <path class="cls-1" d="M224.14,3.96c-.22,5.92.34,14.03-7.99,11.97,3.03-3.49,1.47-13.3,7.99-11.97Z"/>
      <path class="cls-5" d="M242.15,109.95c-3.33.1-6.69-.02-10.01,0v-5.98s10.02-.01,10.02-.01c.11,1.99-.12,4.01-.01,6Z"/>
      <path class="cls-3" d="M282.14,91.96c2.09,1.94-3.76,9.13-5.97,2.96-1.51-4.22,5.23-3.64,5.97-2.96Z"/>
      <polygon class="cls-3" points="152.15 163.95 156.14 163.96 156.14 169.94 152.16 169.94 152.15 163.95"/>
      <path class="cls-3" d="M196.15,149.95c1.33.07,2.67-.11,3.99,0v5.99s-3.98-.01-3.98-.01c.11-1.96-.23-4.04-.01-5.99Z"/>
      <polygon class="cls-3" points="50.15 159.95 54.14 159.96 54.14 165.94 50.16 165.94 50.15 159.95"/>
      <rect class="cls-3" x="162.16" y="161.96" width="3.98" height="5.98"/>
      <path class="cls-3" d="M60.15,163.95h-3.99c-.65-2.96.88-4.17,3-5.99l.99,5.99Z"/>
      <path class="cls-3" d="M88.14,153.96c2.18,2.18-1.8,6.16-3.98,3.98s1.8-6.16,3.98-3.98Z"/>
      <path class="cls-3" d="M192.14,153.96c2.18,2.18-1.8,6.16-3.98,3.98s1.8-6.16,3.98-3.98Z"/>
      <path class="cls-3" d="M42.15,163.95c2.13-2.13,6.22,1.76,3.99,3.99s-6.11-1.86-3.99-3.99Z"/>
    </g>
  </g>
</svg>