<?xml version="1.0" encoding="UTF-8"?>
<svg id="Calque_2" data-name="Calque 2" xmlns="http://www.w3.org/2000/svg" viewBox="0 0 206.27 201.01">
  <defs>
    <style>
      .cls-1 {
        fill: #59b3dd;
      }

      .cls-2 {
        fill: #fcf3ea;
      }
    </style>
  </defs>
  <g id="Calque_1-2" data-name="Calque 1">
    <g>
      <path class="cls-1" d="M18.67,47.11C38.61,19.19,88.54-2.81,122.82.29c75.19,6.81,112.87,123.59,55.95,171.91C80.9,255.3-48.78,141.54,18.67,47.11ZM160.52,51.58c-25.38-26.94-73.65-32.93-100.75-4.37-32.07,33.8-28.25,92.91,13.99,116.13,66.59,36.61,134.55-47.23,93.78-105.8-2.45-3.53-5.05-3.85-7.03-5.96ZM19.82,68.28c-5.08-.89-3.61.77-4.89,3.99-6.31,15.81-6.16,33.46-3.08,50,8.03-3.4,1.71-11.74,1.97-17,.6-12.06,4.92-24.96,6-36.99Z"/>
      <path class="cls-2" d="M19.82,68.28c-1.08,12.03-5.4,24.92-6,36.99-.26,5.26,6.06,13.6-1.97,17-3.09-16.54-3.24-34.19,3.08-50,1.29-3.22-.19-4.88,4.89-3.99Z"/>
    </g>
  </g>
</svg>