<?xml version="1.0" encoding="UTF-8"?>
<svg id="Calque_2" data-name="Calque 2" xmlns="http://www.w3.org/2000/svg" viewBox="0 0 275.26 169.97">
  <defs>
    <style>
      .cls-1 {
        fill: #978497;
      }

      .cls-2 {
        fill: #4f4647;
      }

      .cls-3 {
        fill: #939daf;
      }

      .cls-4 {
        fill: #596b79;
      }

      .cls-5 {
        fill: #fcf3ea;
      }
    </style>
  </defs>
  <g id="Calque_1-2" data-name="Calque 1">
    <g>
      <path class="cls-4" d="M200.08,7.44c.42-.92-.86-3.81.39-5.5,4.15-5.64,13.16,2.59,13.71,4.94.97,4.15-2.65,8.9-1.16,12.52.41.99,13.03,15.6,13.93,16.17,15.71,9.9,37.84-2.61,46.51,25.48,5.1,16.53-1.46,22.81-9.38,36.39v-6s-7.99.01-7.99.01c-.79,4.43,4.29,6.02,5.99,9.99-.3.43.85,2.32-1.31,4.11-3.55,2.92-9.98,2.65-12.69,3.89.9-.49,1.29-4.74,2.31-5.56.3-.24,6.94.64,7.68-.46,1.91-2.85-4.57-10.07-5.17-10.07-1.33,0-21.19,7-25.21,8.26-1.69.53-2.95,3.63-3.61,3.83,1.46-6.59-5.25-3.45-10-3.98l2,3.98c-6.12-.74-3.61-3.13-6.12-4.79-6.94-4.61-18.11-9.13-17.86-19.21,9.69,8.92,21.01,16.58,34.92,16.09,5.86-.21,38.89-11.97,40.43-16.61,1.4-4.23-.48-26.64-3.25-28.61-8.65-6.16-5.31,6.2-6.13,7.12l-7.98-2.02c-4.19-5.95,10.52-8.55,4.03-11.01-7.04-2.68-19.26-1.26-27.24-4.76-3.14-1.38-7.74-7.17-10.79-10.21-.67-.67-1.34-1.32-2-2-.34-.35-.06-3.08-2.03-4.88-7.94-7.28-15.79-8.33-26.18-6.21-5.9,1.2-5.32,4.17-8.53,5.41-16.07,6.22-9.64-5.09-14.44-6.18-1.6-.36-7.44,1.2-6.88,4.87,1.08,7.08,10.25,5.94,10.06,12.99-13.01-2.91-25.99-7.8-39.23-9.75-18.64-2.75-57.4-5.88-74.31,1.16-2.04.85-2.33,3.34-3.22,3.82-23.43,12.6-35.82,29.35-32.44,57.45,1.26,10.44,7.85,18.67,9.08,26.46,1.63,10.34-3.11,32.57.51,39.47,2.77,5.28,8.87,4.11,13.61,5.41,2.89.79,4.62,5.91,3.98-4l-3.98,2v-4s10,0,10,0c.15,3.31-1.2,7.58,2.97,5.98,4.87-1.87,5.05-10.69-2.97-7.98,1.28-10.94,5.48-3.78,6.14-7.1l-.14-20.91c13.88-1.09,25.2,9.71,39,10.19,8.26.29,16.48-2.88,24.99-.18,1.49-1.47-3.41-12.16,4-10.02l2.27,37.74,15.72,4.28c-.12-1.92.34-4.19.02-6.01l9.96-1.95.05,5.96c2.29.56,5.22-1.09,5.97-3.02,2.54-6.57-4.46-3.63-3.97-6.96l4.16-1.22c-1.69-5.81-2.4-10.71-2.17-16.8.73-19.81,19.66-14.95,29.99-29.01.28-.63-14-5.19-9.98-8.98,1.56-1.47,29.89,14.39,39.91,15.08,4.01.28,29.86-1.89,32.08-3.09-.33.15-1.5,3.35-4.49,4.43-10.27,3.73-23.25,4.94-34.03,3.09-5.56-.95-17.29-8.66-21.45-6.64-11.42,5.57,4.57,33.18,2.1,41.86-.35,1.22-20.88,10.42-24.13,5.25.56-.12,3.58-1.41,6-2,1.15-.28,3.54.44,3.99,0,.5-.5-.41-3.12,0-3.99.53-1.12,2.29-2.17,2.05-3.98,3.87-.67,1.08,5,1.96,5.99.99,1.11,5.76-1.5,6.01-3.07.29-1.84-2.69-4-2.93-5.99-1.02-8.31-2.35-16.6-3.09-24.96-7.63,0-12.72,7.21-20.11,9.25l2.12,26.76c-.97.17-1.92,1.08-2,2-.73,8.13-.57,10.45-11.12,11.87-26,3.51-34.25-7.03-28.9-31.87-5.47,5.89-28.79-1-29.89.04-.23.22-1.9,5.18-2.09,5.96-2.69-3.1-26.89-13.21-27.99-11.99.9,7.25,2.1,12.73,0,19.98,4.55,1.28,6.38-5.34,9.26-5.78.56-.09,8.27,3,10.73,3.79,2.2.71,4.52,5.56,4-2,1.26-.2,2.7.13,4,0-.3,1.29.34,3.15-.27,4.7-2.73,6.97-22.2,1.39-28.6,3.17-2.51.69,2.23,6.49-8.27,7.93-8.96,1.23-23.51,1.9-28.61-7.02-4.3-7.51,1.14-24.55-.41-35.6-1.74-12.37-12.47-26.7-9.84-41.16-1.62-1.93-12.46,9.49-12.06.96.45-9.39,6.73-10.94,10.9-17.14,10.76-16.02,15.69-28.18,34.52-37.48,29.23-14.45,75.81-5.83,106.64,1.65-2.23-27.02,14.91-8.03,20.65-8.37,1.58-.09,9.67-3.8,13.24-4.75,9.16-2.44,9.63,2.9,14.12-6.88-2.55,5.89,3.92,6.66,7,9.96,9.76-6.45-2.48-20.42-7-9.96Z"/>
      <path class="cls-1" d="M162.08,155.44l-2.12-26.76c7.39-2.04,12.48-9.25,20.11-9.25.74,8.36,2.08,16.65,3.09,24.96.24,1.99,3.22,4.15,2.93,5.99-.25,1.57-5.02,4.19-6.01,3.07-.88-.99,1.91-6.67-1.96-5.99.24,1.81-1.52,2.85-2.05,3.98-3.65-.6-4.73.29-4,4-2.42.59-5.44,1.88-6,2-1.18.25-2.72-.17-4,0v-2Z"/>
      <path class="cls-1" d="M88.08,143.44c-.29,1.16.27,2.81,0,4-1.3.13-2.74-.2-4,0-1.66.26-3.41-.04-4,2-2.46-.79-10.17-3.88-10.73-3.79-2.88.44-4.71,7.07-9.26,5.78,2.1-7.25.91-12.73,0-19.98,1.1-1.21,25.29,8.89,27.99,11.99Z"/>
      <path class="cls-5" d="M262.08,101.44c-1.7-3.97-6.78-5.56-5.99-9.99h7.99s0,5.99,0,5.99c-.67,1.16-.91,2.45-2,4Z"/>
      <path class="cls-3" d="M162.08,157.44h-2c.08-.92,1.03-1.83,2-2v2Z"/>
      <path class="cls-1" d="M40.08,159.44c-4.74-1.3-10.84-.13-13.61-5.41-3.62-6.9,1.12-29.13-.51-39.47-1.23-7.79-7.83-16.02-9.08-26.46-3.38-28.1,9.01-44.85,32.44-57.45.89-.48,1.18-2.97,3.22-3.82,16.91-7.04,55.66-3.91,74.31-1.16,13.24,1.95,26.22,6.85,39.23,9.75.18-7.04-8.99-5.91-10.06-12.99-.56-3.67,5.29-5.24,6.88-4.87,4.8,1.09-1.63,12.4,14.44,6.18,3.22-1.24,2.64-4.21,8.53-5.41,10.39-2.12,18.24-1.06,26.18,6.21,1.97,1.81,1.69,4.53,2.03,4.88-8.37.2-8.25,9.96-.02,9.99l2.02-7.99c3.06,3.04,7.65,8.83,10.79,10.21,7.99,3.5,20.2,2.08,27.24,4.76,6.5,2.47-8.22,5.06-4.03,11.01l7.98,2.02c.82-.91-2.51-13.28,6.13-7.12,2.77,1.97,4.65,24.38,3.25,28.61-1.54,4.64-34.56,16.4-40.43,16.61-13.91.49-25.24-7.17-34.92-16.09-.24,10.07,10.93,14.6,17.86,19.21,2.5,1.66,0,4.05,6.12,4.79,1.74.21,6.7.38,8,0,.66-.19,1.91-3.3,3.61-3.83,4.02-1.26,23.89-8.26,25.21-8.26.6,0,7.09,7.22,5.17,10.07-.74,1.1-7.38.22-7.68.46-1.02.82-1.41,5.07-2.31,5.56-2.22,1.2-28.07,3.36-32.08,3.09-10.01-.69-38.35-16.55-39.91-15.08-4.02,3.79,10.26,8.35,9.98,8.98-10.33,14.06-29.26,9.2-29.99,29.01-7.89-.02-14.74,7.15-17.09,14.13-1.3,3.86,2.37,5.8,3.09,9.87.32,1.83-.14,4.09-.02,6.01l-15.72-4.28-2.27-37.74c-7.41-2.14-2.51,8.54-4,10.02-8.52-2.7-16.73.47-24.99.18-13.8-.49-25.12-11.29-39-10.19l.14,20.91c-.66,3.32-4.86-3.84-6.14,7.1-.07.63-.03,1.36,0,2h-10.01s.01,4,.01,4v2ZM64.07,35.45c-2.76-.62-5.32,1.08-5.99,3.97h5.99s0-3.97,0-3.97ZM192.06,35.45c-4.44-3.19-9.2,8.57-2.96,9.98s4.75-8.69,2.96-9.98ZM55.08,39.44v2c1.3-.67,1.3-1.33,0-2ZM51.08,41.44v2c1.3-.67,1.3-1.33,0-2ZM236.06,69.43c2.27-11.9-10.42-14.65-9.99-2.01l9.99,2.01Z"/>
      <path class="cls-3" d="M156.08,135.44c-.23,6.09.48,10.99,2.17,16.8l-4.16,1.22c-.49,3.33,6.51.39,3.97,6.96-.75,1.94-3.68,3.59-5.97,3.02l-.05-5.96-9.96,1.95c-.72-4.07-4.39-6-3.09-9.87,2.35-6.99,9.21-14.15,17.09-14.13Z"/>
      <path class="cls-1" d="M200.08,7.44c4.52-10.46,16.77,3.51,7,9.96-3.08-3.3-9.55-4.08-7-9.96Z"/>
      <path class="cls-2" d="M214.08,29.44c.66.68,1.33,1.33,2,2l-2.02,7.99c-8.23-.03-8.35-9.79.02-9.99Z"/>
      <path class="cls-5" d="M50.08,151.44c8.02-2.71,7.84,6.11,2.97,7.98-4.17,1.6-2.82-2.67-2.97-5.98-.03-.64-.07-1.37,0-2Z"/>
      <path class="cls-5" d="M216.08,105.44l-2-3.98c4.75.53,11.46-2.61,10,3.98-1.3.38-6.26.21-8,0Z"/>
      <path class="cls-3" d="M40.08,157.44l3.98-2c.64,9.91-1.09,4.79-3.98,4v-2Z"/>
      <path class="cls-3" d="M84.08,147.44c.52,7.56-1.8,2.71-4,2,.59-2.04,2.34-1.74,4-2Z"/>
      <path class="cls-3" d="M176.08,151.44c-.41.87.49,3.5,0,3.99-.45.45-2.84-.28-3.99,0-.73-3.71.35-4.6,4-4Z"/>
      <path class="cls-4" d="M236.06,69.43l-9.99-2.01c-.43-12.64,12.26-9.88,9.99,2.01Z"/>
      <path class="cls-2" d="M192.06,35.45c1.8,1.29,2.98,11.31-2.96,9.98-6.25-1.41-1.48-13.16,2.96-9.98Z"/>
      <path class="cls-3" d="M64.07,35.45v3.98s-5.99,0-5.99,0c.67-2.89,3.23-4.59,5.99-3.97Z"/>
      <path class="cls-3" d="M55.08,39.44c1.3.67,1.3,1.33,0,2v-2Z"/>
      <path class="cls-3" d="M51.08,41.44c1.3.67,1.3,1.33,0,2v-2Z"/>
    </g>
  </g>
</svg>