<?xml version="1.0" encoding="UTF-8"?>
<svg id="Calque_2" data-name="Calque 2" xmlns="http://www.w3.org/2000/svg" viewBox="0 0 345.59 213.69">
  <defs>
    <style>
      .cls-1 {
        fill: #4f4647;
      }

      .cls-2 {
        fill: #939daf;
      }

      .cls-3 {
        fill: #8b9a99;
      }

      .cls-4 {
        fill: #596b79;
      }

      .cls-5 {
        fill: #fcf3ea;
      }
    </style>
  </defs>
  <g id="Calque_1-2" data-name="Calque 1">
    <g>
      <path class="cls-2" d="M161.59,5.52c.66-.05,1.33.02,2,0,15.71,6.99,25.54,21.16,24.03,38.99-.5,5.85-19.41,54.48-21.99,56.04-12.33,7.46-29.53-15.93-32.03-13.02-5.29,6.14,15.06,18.35,19.48,19.49,9.25,2.4,15.65-.72,20.05-8.97,4.87-9.12,15.08-30.96,17.48-40.52s4.53-18.37.99-28c21.08,6.24,43.96-3.03,64.52.46,10.92,1.86,23.45,11.29,31.48,17.52.74.58,1.29,1.4,2,2,4.36,2.56,2.12,8.19,2.73,9.51.33.72,6.76,7.12,7.07,8.09,8.15,25.59-2.17,59.07-1.97,85.39.09,11.28,8.86,41.16.14,47.97-11.99,9.35-12.83-2.93-17.34-4.65-2.58-.98-7.86.19-8.63-.31.5,3.56,0,7-3.98,8v-7.99s3.98-.01,3.98-.01c-.57-.37,2.18-6.94-5.98-2l-2.01-44.01c-11.17-2.07-20.78,4.59-31.22,5.79-11.51,1.33-37.49.51-43.78-9.77-10.59,17.83-2.14,40.41-3.01,59.99-10.94,5.24-10.83-1-18-4-3.72-1.56-3.44-1.78-8-2-.51-4.27-7.47-2.98-8.13-5.23-1.73-5.97,2.35-18.24,2.27-25.8-.05-4.83-2.89-25.83-5.24-28.88s-6.67-3.09-8.89-5.16c-6.7-6.28-13.12-9.56-17.47-13.46-3.33-2.99.25-10.97-11.11-7.06-3.29,1.13-4.37,4.63-7.41,5.58l3.97-21.99-4.01,6c-2.92-1.44-5.07-3.62-8.31-4.69-11.87-3.94-5.92,1.22-7.68,4.68-3.18,6.25-20.74,13.4-28,14-1.48-5.06-.79-47.84.17-54.83,1.42-10.27,9.38-21.02,11.83-31.17,5.6-4.12,19.22-7.26,18-16,.65-.04,1.35-.03,2,0,14.94.76,24.02,3.4,38-2,8.27-3.19,10.72-4.53,16-8,.98-.65,12.7.23,16,0ZM173.58,25.51c4.57-4.43-17.39-15.39-28.72-9.7-2.92,1.47-13.31,7.6-13.26,11.7,7.23-2.63,14.73-9.69,22.98-9.72,5.52-.02,17.88,8.81,19,7.72ZM95.58,65.53c-3.21-3.24-11.22,4.74-7.98,7.98,4.16,4.15,12.15-3.77,7.98-7.98Z"/>
      <path class="cls-4" d="M289.59,49.52c3.54,2.98,9.09,5.7,11.73,9.27,13.11,17.76,12.92,52.15,42.4,51.69l1.87,11.02-10.72-2.27-27.27-21.71-4.17,55.02c.05,11.66,8.48,41.14.69,49.06-7.98,8.12-28.95,11.21-38.45,4.82-3.42-2.3-4.29-7.57-7.4-8.6-7.63-2.52-10.11,2.04-20.69-4.31l6-.02c-.92-1.97-1.46-3.86-2-5.98-1.31.13-2.68-.15-3.99,0v5.99c-1.27-.76-5.11.02-5.81-3.13-.33-1.49,5.26-21.5,5.8-26.87,6.02,4.9,1.36,13.58,4,24,1.31-.13,2.68.11,4,0v5.99s3.99,0,3.99,0v-5.98s-3.99-.01-3.99-.01c.36-.03,1.47-2.28,4.44-1.76,3.37.58,5.64,4.53,9.56,3.76v-36c-7.77.37-14.49,4.48-22,6-17.44,3.52-31.14.69-47.99-3.99-1.84,14.71,3.36,36.99-2.01,49.99h-2c.87-19.58-7.58-42.16,3.01-59.99,6.28,10.29,32.26,11.1,43.78,9.77,10.43-1.2,20.05-7.86,31.22-5.79l2.01,44.01c8.16-4.94,5.42,1.63,5.98,2h-3.99s0,8,0,8c3.97-1,4.48-4.44,3.98-8,.76.5,6.04-.68,8.63.31,4.51,1.72,5.35,14,17.34,4.65,8.72-6.8-.06-36.68-.14-47.97-.2-26.33,10.13-59.8,1.97-85.39-.31-.97-6.73-7.37-7.07-8.09-.61-1.32,1.63-6.95-2.73-9.51ZM307.57,93.51v-3.98h-1.96v3.98h1.96ZM279.58,199.53h-3.98v5.98h3.98v-5.98Z"/>
      <path class="cls-2" d="M21.59,123.52c.49,1.17,1.73,1.98,2,4-11.54.93-3.63,16.78-.82,21.82.64,1.15,6.37,9.82,6.86,10.18.55.4,7.58-6.99,11.58-3.47.64.56,0,6.09,4.24,3.29.23-.15-.06-2.44.92-3.07,2.5-1.59,9.24-4.55,10.62-7.32,1.86-3.77,1.94-18.72,2.62-19.42,1.24-1.29,17.55,2.12,21.02-1.98l2.96,7.97c-1.28,3.42-3.09,5.65-4,8-8.82,6.83-14.12,19.45-24.17,24.84-8.75,4.68-15.93,1.18-23.83,5.16-2.75-.92-4.87-.1-6-4-.03-.12,1.74-.78,1.83-1.66-16.54-7.46-17.86-23.17-19.97-39.11l14.14-5.23Z"/>
      <path class="cls-4" d="M163.59,5.52c.43-.02,2.48-2.53,6.7-2.04,12.55,1.45,16.7,20.5,20.55,21.79,1.05.35,17.56,2.23,19.75,2.25,23.63.19,44.2-7.95,66.84,7.15l10.16,12.85c-8.03-6.24-20.55-15.67-31.48-17.52-20.56-3.49-43.44,5.78-64.52-.46,3.54,9.63,1.42,18.38-.99,28s-12.61,31.4-17.48,40.52c-4.4,8.25-10.8,11.37-20.05,8.97-4.42-1.15-24.77-13.35-19.48-19.49,2.5-2.9,19.7,20.49,32.03,13.02,2.58-1.56,21.49-50.19,21.99-56.04,1.51-17.83-8.32-32.01-24.03-38.99Z"/>
      <path class="cls-4" d="M87.59,103.52c1.76-3.46-4.19-8.61,7.68-4.68,3.24,1.07,5.39,3.25,8.31,4.69l4.01-6-3.97,21.99c3.05-.95,4.13-4.45,7.41-5.58,11.36-3.91,7.78,4.07,11.11,7.06,4.35,3.91,10.76,7.18,17.47,13.46,2.21,2.08,6.58,2.18,8.89,5.16s5.19,24.05,5.24,28.88c.08,7.56-4,19.82-2.27,25.8.65,2.25,7.61.95,8.13,5.23-.63-.03-1.39-.09-2,0-1.18.18-3.54-.44-3.96.04-.61.71.2,4.42-.04,5.96-.14-.02-.73,2.05-2,2-10.23-6.05-6.35-2.81-16.04-4.76-3.57-.72-14.51-5.33-15.63-8.56-4.17-11.97,17.9-73.65-3.24-74.59-4.07-.18-9.97,4.99-13.89,3.81-3.07-.93-2.68-6.46-4.19-5.89-.67.25-11.47,7.5-11.95,8.06-3.27,3.73-1.96,7.01-3.06,9.94l-2.96-7.97c-3.47,4.1-19.78.69-21.02,1.98-.68.71-.76,15.65-2.62,19.42-1.37,2.78-8.12,5.73-10.62,7.32-.99.63-.7,2.92-.92,3.07-4.24,2.79-3.6-2.73-4.24-3.29-4-3.52-11.03,3.87-11.58,3.47-.5-.36-6.22-9.03-6.86-10.18-2.8-5.04-10.72-20.89.82-21.82,1.41,10.59-2.52,21.43,12.96,22.19s15.53-7.56,19.04-20.17c-3.78.43-6.63-.65-10-2.02.53-1.92,2.31-1.9,4-2,19.55-1.11,35.8,3.08,49.85-15.28.47-2.78-7.33-11.49-9.85-6.72h-2ZM132.25,136.72c-1.1-.81.4-4.01-2.65-3.19,4.4,11.58-5.97,40.53-3.7,48.55,2.84,10.08,18.09-1.09,13.69,15.46h5.98c-1.55-11.15,5.92-45.48-.59-53.45-2.04-2.49-9.39-4.9-12.73-7.37ZM127.57,195.51v-5.98h-1.96v5.98h1.96Z"/>
      <path class="cls-3" d="M237.59,159.52c7.51-1.52,14.23-5.63,22-6v36c-3.92.77-6.19-3.18-9.56-3.76-2.97-.52-4.09,1.73-4.44,1.76-1.32.11-2.69-.13-4,0-2.64-10.42,2.02-19.1-4-24,.13-1.31-.09-2.68,0-4Z"/>
      <path class="cls-4" d="M59.59,117.52c.39,1.32,1.51,2.65,2,4-3.54.57-8.16-.24-12,0-3.61.23-5.71,1.65-8,2-.65.1-1.34-.07-2,0v-4c5.66.27,10.05.57,14-4,3.24-3.75,0-2.79,0-4,0-1.33-.01-2.67,0-4s0-2.67,0-4c.14-30.52-4.36-47.54,16-72h2c-2.45,10.15-10.41,20.9-11.83,31.17-.96,6.98-1.66,49.76-.17,54.83Z"/>
      <path class="cls-4" d="M25.59,169.52c-6.1.72-10.74-4.8-13.67-9.33C9.3,156.14.43,132.26.06,128.18c-1.16-12.6,14.76-5.66,21.49-8.62.45,1.22-.31,3.14.03,3.96l-14.14,5.23c2.12,15.95,3.43,31.65,19.97,39.11-.09.88-1.86,1.54-1.83,1.66Z"/>
      <path class="cls-4" d="M31.59,173.52c7.89-3.98,15.08-.48,23.83-5.16,10.05-5.38,15.35-18.01,24.17-24.84-.99,2.54.08,5.21-2.67,10.32-8.85,16.43-27.01,25.8-45.33,19.68Z"/>
      <path class="cls-3" d="M167.59,201.52h-3.99s0,5.99,0,5.99h3.98s.01-5.99.01-5.99c7.17,3,7.06,9.24,18,4h2c-3.08,7.46-8.55,7.84-16.98,8.12-11.43.39-11.1-1.44-19.02-6.12,1.27.05,1.86-2.02,2-2,1.29.19,3.46,2.73,3.98,2l.02-8c.61-.09,1.37-.03,2,0,4.56.22,4.28.44,8,2Z"/>
      <path class="cls-3" d="M53.59,103.52c0,1.33.01,2.67,0,4l-14.02,1,14.02,3c0,1.21,3.24.25,0,4-5-.38-13.3-1.21-17.56-3.38-3.66-1.86-2.12-4.33-2.44-4.62.51.28,4.24.65,3.99-.99-1.82-2.12-3.04-3.66-5.99-2.99-.19.15,1.8,3.87,2,3.98-2.69-2.46-7.94.03-5.99-7.99l25.99,3.99Z"/>
      <path class="cls-4" d="M127.59,13.52h2c-13.98,5.4-23.06,2.76-38,2,10.8-4.54,24.47-.85,36-2Z"/>
      <path class="cls-3" d="M89.59,15.52c1.22,8.74-12.4,11.88-18,16h-2c1.28-1.54.98-4.52,4.96-8.03,2.21-1.95,12.37-7.82,15.04-7.97Z"/>
      <path class="cls-3" d="M143.59,3.52l2,2c-5.28,3.47-7.73,4.81-16,8h-2c-.68-5.9,10.83-8.46,16-10Z"/>
      <path class="cls-4" d="M161.59,5.52c-3.3.23-15.02-.65-16,0l-2-2c6.61-1.97,17.99-7.8,18,2Z"/>
      <path class="cls-3" d="M49.59,121.52v4c-1.69.1-3.47.08-4,2-1.91-.78-3.25-2.06-4-4,2.29-.35,4.39-1.77,8-2Z"/>
      <polygon class="cls-3" points="39.59 123.52 37.6 120.54 39.59 119.52 39.59 123.52"/>
      <path class="cls-4" d="M173.58,25.51c-1.12,1.08-13.47-7.75-19-7.72-8.25.03-15.75,7.1-22.98,9.72-.04-4.1,10.34-10.24,13.26-11.7,11.33-5.68,33.29,5.27,28.72,9.7Z"/>
      <path class="cls-3" d="M89.59,103.52c.95,9.33-21.05,16.88-28,18-.49-1.35-1.61-2.68-2-4,7.26-.6,24.82-7.75,28-14h2Z"/>
      <path class="cls-1" d="M95.58,65.53c4.17,4.21-3.82,12.13-7.98,7.98-3.24-3.24,4.77-11.22,7.98-7.98Z"/>
      <path class="cls-2" d="M241.59,187.52c.54,2.12,1.08,4.01,2,5.98l-6,.02v-5.99c1.32-.16,2.69.13,4,0Z"/>
      <rect class="cls-2" x="275.6" y="199.53" width="3.98" height="5.98"/>
      <polygon class="cls-5" points="245.59 187.52 249.58 187.53 249.58 193.51 245.6 193.51 245.59 187.52"/>
      <path class="cls-3" d="M132.25,136.72c3.35,2.46,10.7,4.87,12.73,7.37,6.51,7.97-.95,42.3.59,53.45h-5.98c4.4-16.54-10.85-5.38-13.69-15.45-2.26-8.02,8.11-36.97,3.7-48.55,3.05-.82,1.54,2.38,2.65,3.19Z"/>
      <path class="cls-5" d="M157.59,199.52l-.02,8c-.52.73-2.69-1.81-3.98-2,.25-1.54-.57-5.25.04-5.96.41-.48,2.78.14,3.96-.04Z"/>
      <rect class="cls-2" x="125.61" y="189.53" width="1.96" height="5.98"/>
      <path class="cls-5" d="M49.59,125.52v-4c3.84-.24,8.46.57,12,0,6.95-1.12,28.95-8.67,28-18,2.52-4.77,10.32,3.94,9.85,6.72-14.05,18.36-30.3,14.17-49.85,15.28Z"/>
      <path class="cls-5" d="M53.59,107.52c-.01,1.33,0,2.67,0,4l-14.02-3,14.02-1Z"/>
      <polygon class="cls-5" points="167.59 201.52 167.58 207.51 163.6 207.51 163.6 201.53 167.59 201.52"/>
    </g>
  </g>
</svg>