<?xml version="1.0" encoding="UTF-8"?>
<svg id="Calque_2" data-name="Calque 2" xmlns="http://www.w3.org/2000/svg" viewBox="0 0 233.78 228.82">
  <defs>
    <style>
      .cls-1 {
        fill: #4f4647;
      }

      .cls-2 {
        fill: #926651;
      }

      .cls-3 {
        fill: #b07734;
      }

      .cls-4 {
        fill: #f3c954;
      }

      .cls-5 {
        fill: #f28c34;
      }

      .cls-6 {
        fill: #eba749;
      }

      .cls-7 {
        fill: #fcf3ea;
      }
    </style>
  </defs>
  <g id="Calque_1-2" data-name="Calque 1">
    <g>
      <path class="cls-3" d="M16.58,128.44c-.62-.58-3.79.46-5.6-3.32-.62-1.3-6.27-18.74-6.33-19.77-.21-3.81,2.77-8.31,2.09-11.55-.43-2.05-5.18-1.19-6.2-6.28-2.71-13.56,5.64-19.67,6.12-26.24.52-7.28-8.44-6.71,1.88-19.88,3.71-4.74,7.44-10.74,10.07-13.92,1.95-2.35,8.28-3.75,9.44-5.56,1.92-3.01-.14-8.71,4.63-12.37,7.66-5.88,20.98-1.15,28.5-3.05,2.26-.57,2.68-10.06,13.38-5.02,5.52,2.61,4.96,10.73,11.03-1.02h3.99s3.05,5.99,3.05,5.99c6-3.84,12.59-5.74,19.51-2.68,2.79,1.23,2.92,4.71,4.47,5.57,3.98,2.21,9.41.58,13.99,4.1,3.82,2.94,3.04,6.88,4.56,8.44,3.16,3.24,12.24,4.26,18.28,12.71,11,15.37-1.49,17.76-.66,22.58.58,3.33,9.47,6.98,9.92,12.39.35,4.25-3.66,6.61-4.14,10.04-.65,4.61,3.15,9.73,1.87,13.59-.88,2.64-5.33,2.49-5.88,4.65-5.02,19.5,10.58,23.37,21.06,34.58,16.06,17.19,30.22,39.47,26.99,64.01,18.44-4.1,20.9-24.69,14.97-39.97-2.05-5.28-7.31-9.69-8.54-15.46-4.39-20.69-2.65-43.74,21.54-48.56.06,6.95,4.67,14.66,2.76,21.58-2.46,8.93-14.7,13.59-14.97,17.42-.65,9.22,10.93,22.04,12.23,34,1.64,15.18-2.91,37.48-19.93,42.09-4.61,1.25-10.85.01-14.05,1.95-4.91,2.96-8.9,13.28-19.13,14.87-8.47,1.32-36.04,3.28-43.77,1.99-5.18-.87-10.74-3.91-11.12-9.88,4.62-3.23,10.8-6.76,8-12,3.96.74,7.97,1.72,12,1.98-16.2-16.48-1.48-57.93,22-38-18.12-3.14-26.88,7.06-23.89,24.92,1.89,11.32,16.46,16.76-10.1,19.12-.81,3.1,2.3,1.21,3.3,2.68,2.73,4.02-.88,6.51,9.33,6.52,6.48,0,27.45-2.38,33.91-3.68s13.45-8.04,16.24-13.76c16.34-33.51-22.11-71.83-46.76-89.78.21,4.68.39,14.54-4.08,17-2.34,1.29-6.17.34-7.52,1.42-.85.68-.87,4.62-2.33,6.58-6.68,8.93-12.56,1.94-14.01,3.01-.34.25-1.23,5.5-3.11,7.95-9.56,12.43-19.14.79-20.93,2.06-.33.24-.64,5.36-4.02,7.11-4.4,2.28-7.87-1.19-10.78-.65-.53.1-8.71,5.33-9.02,5.76-.25.35,1.78,4.49,1.8,6.7.08,7.13.53,15.18.06,22.15-.65,9.69-5.88,16.38-2.06,26.92,2.63-3.58,10.95-3.33,12.09-5.31,2.73-4.74,3.82-35,5.91-36.69,4.67-3.77,6.91,5.18,9.96,5.99l4.02-9.99v31c0,3.14-10.21,9.44-7.98,15l5.97-2.02,1.99,6.01c-1.54-11.09,4.2-2.82,8.76-4.12,6.26-1.79,9.87-42.21,9.27-49.86,5.31-6.99,4.04,16.96,4,18.99-.06,2.83-2.02,5.77-1.99,7.81,0,.54,6.92,5.2,7.99,7.19-3.31-.62-6.47-2.35-9.99-2.01-.58.56-1.23,13.47-2.01,16.01-3.32,10.87-21.14,11.57-28,4,.31-.38-.44-6.02.4-8.53,2.34-6.98,10.18-5.28,7.49-20.37-.62-3.47-5.47-14.24-7.95-6.19-2.85,9.23-.58,24.09-6.76,31.27-5.72,6.64-16.59,6.43-23.18,1.82-.31-.22-.65-3.3-2-4,2.78-9.41,8.47-11.93,9.81-21.18.71-4.93-1.6-35.36-3.86-36.84-.61-.4-4.9,1.79-7.98,1.14-8.23-1.74-9.88-8.91-12.52-10.58-4.12-2.61-9.04.67-13.02-8.07-.99-2.18.02-5.24-.44-6.48-.59-1.6-6.08-1.32-2-8,1.07.08,3.3-2.78,3.97-2.01.21.24-.07,3.42,2.03,6.01-2.88,9.21,9.1,21.77,8,8,.47.42,3.48-.35,4.96,1.96,2.43,3.78-.4,7.89,5.97,11.11,9.57,4.84,11.26-15.6,15.09,2.93,5.8,3.01,8.3-6.3,8.96-5.99,3.08,1.44,3.06,9.5,9.69,7.79s3.6-11.69,9.3-13.8c9.01,26.81,19.14-5.61,21.07-6.02l10.85,3.93,4.13-13.92,7.96,2.02c4.3-9.77.09-18.11.04-28l9.97,3.99c.8-4.46-2.04-8.59-1.92-12.88.05-1.71,1.89-2.75,1.93-3.11l5.99,1.99c.56-3.35-1.52-5.88-3.99-7.99.13-1.05.22-3.13,0-4-.75-2.94-3.22-3.04-4-4-.92-1.14-2.7-1.26-1.99-3.99,1.29-.17,2.76.2,3.99-.01,1.83-.32,4.06.23,5.99-.01,2.19-2.39-9.01-14.11-13.99-11.99-4-6.88,5.02-5.98,7.41-8.53,1.3-1.39.33-2.78.59-3.47,2.72-7.13-1.74-10.06-8.19-14.9-1.86-1.4-5.32-.74-5.81-1.1-.19-.14.83-3.47-1.32-4.03-2.39-.63-11.72-.38-14.68.03l8.01-7.99c-9.18-2.36-16.82-.17-26.02-.03-.7-.43,2.09-3.46,2.01-3.98l5.98-6c-10.22,4.13-2.05-6-13.98,2-2.73,1.83-6.27,6.15-8.98,6.02l-2.01-6.01-3.03,7.99-9.01-7.98c-3.72-1.38-2.58,3.75-4.24,4.09-3.08.65-9.29-2.02-13.65-2.19-9.08-.35-28.55-.47-13.1,9.07-1.56,3.91-12.73,3.67-16.25,7.92-2.11,2.54-.11,5.69-.89,7.17-1.73,3.32-5.63,2.62-8.85,9.91l-7.99,5.01c1,2.66,4.38.17,5.99-1.01-.65,2.52-1.41,10.15-2,14-4.88,2.82-6.64,12.23-7.56,17.46-1.15,6.5.44,4.42,5.56,4.54.15,1.24,1.72,9.58,2,10l-1.98,12,3.98-2c.04.31,1.85,5.72,2,6-2.38,5.69-2.12,10.3,0,16h1.98s.03-6.02.03-6.02h3.98c-.46,4.67.91,8.59,4.01,12.02-2.09-.33-7.17-1.21-8.54-2.02-2.25-1.34-1.24-3.77-1.46-3.98ZM224.56,162.43v-5.98h-1.96v5.98h1.96ZM226.56,182.43c-1.1-3.95,2.57-14.21-1.96-15.98,1.1,3.95-2.57,14.21,1.96,15.98ZM223.58,184.44v2c1.3-.67,1.3-1.33,0-2ZM198.59,204.43c9.98-.08,18.74-6.86,23.95-15.01-3.2-.98-3.57,3.82-6.44,5.75-4.46,3-8.18,3.45-12.83,5.06-3.05,1.06-5.74-1.79-4.68,4.2ZM66.56,216.43v-3.98h-1.96v3.98h1.96Z"/>
      <path class="cls-7" d="M60.58,220.44c6.59,4.61,17.47,4.82,23.18-1.82,6.18-7.18,3.91-22.04,6.76-31.27,2.48-8.05,7.34,2.72,7.95,6.19,2.68,15.09-5.16,13.39-7.49,20.37-.84,2.51-.09,8.15-.4,8.53-.19.23-3.56-.21-5.75,1.15-6.17,3.85-5.99,6.01-15.31,4.97-9.35-1.04-6.23-4.73-8.94-8.12-.24-.3-2.97.62-3.82-.24-1.68-1.71,1.76-3.54,1.82-3.76,1.35.7,1.69,3.78,2,4Z"/>
      <path class="cls-7" d="M130.58,204.44c2.8,5.24-3.38,8.77-8,12-1.19.84-2.74,1.26-4,2,.78-2.54,1.43-15.45,2.01-16.01,3.52-.34,6.67,1.39,9.99,2.01Z"/>
      <path class="cls-6" d="M16.58,112.44c.08.16,2.66-.58,3.48.48.67.87,2.94,13.12,8.52,13.52-4.08,6.68,1.41,6.4,2,8-1.3-.13-2.74.2-4,0-3.11-3.42-4.47-7.35-4.01-12.01h-3.98s-.03,6-.03,6h-1.98c-2.12-5.69-2.38-10.3,0-15.99Z"/>
      <path class="cls-5" d="M16.58,46.44c3.22-7.29,7.12-6.6,8.85-9.91.77-1.49-1.22-4.63.89-7.17,3.52-4.25,14.7-4.02,16.25-7.92-15.45-9.54,4.01-9.42,13.1-9.07,4.36.17,10.56,2.83,13.65,2.19,1.66-.35.51-5.47,4.24-4.09l9.01,7.98,3.03-7.99,2.01,6.01c2.71.12,6.25-4.19,8.98-6.02,3.02-1.38,7.58,1.35,8,4,.08.52-2.71,3.55-2.01,3.98,9.19-.13,16.83-2.33,26.02.03l-8.01,7.99c-8.46,1.18-15.57,4.13-14,14-.7.25-1.69,3.82-3.42,4.03-4.35.54-14.25-4.25-21.58-4.2s-12.9,4.21-16.05,4.15c-3.63-.08-20.68-17.64-27.49-3.49-5.72,11.87,8.37,15.69,6.54,23.51-.63,2.68-6.05,10.17-7.09,15.91-3.17,17.46.65,34.33,17.29,42.89,30.52,15.7,69.86,2.09,69.91-35.8.01-6.99-4.53-20.51-3.79-23.59.86-3.55,7.14-5.99,7.68-13.4,11.76,2.03,8.92-2.07,14-10,1.14,1.05,7.4,1.31,8,6-.26.69.71,2.09-.59,3.47-2.39,2.55-11.41,1.64-7.41,8.53,2.57,4.42,7.55,6.55,8,12-1.23.21-2.7-.15-3.99.01-.71,2.73,1.07,2.85,1.99,3.99-.63,3.54.43,4.71,4,4,.22.87.13,2.95,0,4-.08.64-1.62,3.08-2,6-.05.36-1.89,1.4-1.93,3.11-.12,4.29,2.73,8.42,1.92,12.88l-9.97-3.99c.05,9.89,4.26,18.23-.04,28l-7.96-2.02-4.13,13.92-10.85-3.93c-1.94.41-12.07,32.83-21.07,6.02-5.7,2.11-2.83,12.13-9.3,13.8s-6.6-6.35-9.69-7.79c-.66-.31-3.16,9-8.96,5.99-3.84-18.52-5.52,1.91-15.09-2.93-6.37-3.22-3.55-7.33-5.97-11.11-1.48-2.3-4.49-1.54-4.96-1.96-2.5-2.23-5.97-5.49-8-8s-1.82-5.77-2.03-6.01c-.67-.77-2.89,2.08-3.97,2.01-5.58-.4-7.84-12.65-8.52-13.52-.82-1.06-3.4-.33-3.48-.48-.15-.28-1.96-5.69-2-6-.49-4.11,2.33-9.6,2-9.98-.38-.43-3.72.39-4-.02s-1.85-8.76-2-10c-.98-8.22.84-14.35,2-22,.59-3.85,1.35-11.48,2-14,.13-.51,1.46-2.77,2-4Z"/>
      <path class="cls-4" d="M130.58,204.44c-1.07-1.99-7.98-6.66-7.99-7.19-.03-2.03,1.94-4.98,1.99-7.81.04-2.03,1.31-25.98-4-18.99.59,7.65-3.01,48.06-9.27,49.86-4.56,1.31-10.3-6.96-8.76,4.12l-1.99-6.01-5.97,2.02c-2.23-5.56,7.98-11.86,7.98-15v-31l-4.02,9.99c-3.05-.81-5.29-9.76-9.96-5.99-2.09,1.69-3.19,31.95-5.91,36.69-1.14,1.98-9.45,1.73-12.09,5.31-3.82-10.53,1.41-17.23,2.06-26.92.47-6.97.02-15.02-.06-22.15-.03-2.22-2.05-6.35-1.8-6.7.31-.44,8.49-5.67,9.02-5.76,2.91-.54,6.38,2.93,10.78.65,3.38-1.75,3.69-6.87,4.02-7.11,1.79-1.27,11.37,10.37,20.93-2.06,1.88-2.44,2.77-7.69,3.11-7.95,1.45-1.07,7.33,5.92,14.01-3.01,1.46-1.96,1.48-5.9,2.33-6.58,1.36-1.08,5.19-.13,7.52-1.42,4.47-2.46,4.29-12.32,4.08-17,24.65,17.95,63.1,56.28,46.76,89.78-2.79,5.72-9.84,12.48-16.24,13.76s-27.43,3.68-33.91,3.68c-10.21,0-6.6-2.5-9.33-6.52-1-1.47-4.11.42-3.3-2.68,26.56-2.36,11.99-7.79,10.1-19.12-2.99-17.86,5.77-28.06,23.89-24.92-23.48-19.93-38.2,21.52-22,38-4.03-.26-8.04-1.24-12-1.98Z"/>
      <path class="cls-6" d="M120.58,26.44c2.96-.41,12.29-.65,14.68-.03,2.15.56,1.13,3.89,1.32,4.03l-.03,2.63c4.14,1.1,5.44,6.83,6.03,7.37-5.08,7.93-2.24,12.03-14,10,1.01-13.94-11.87-13.56-22-10-1.57-9.87,5.54-12.82,14-14Z"/>
      <path class="cls-4" d="M150.58,46.44c-.6-4.69-6.86-4.95-8-6-.59-.54-1.89-6.27-6.03-7.37l.03-2.63c.49.36,3.95-.29,5.81,1.1,6.45,4.84,10.91,7.76,8.19,14.9Z"/>
      <path class="cls-4" d="M10.58,86.44c-5.12-.12-6.72,1.96-5.56-4.54.93-5.23,2.68-14.64,7.56-17.46-1.16,7.65-2.98,13.78-2,22Z"/>
      <path class="cls-6" d="M142.58,58.44c4.98-2.12,16.18,9.6,13.99,11.99-1.93.24-4.16-.31-5.99.01-.45-5.45-5.43-7.58-8-12Z"/>
      <path class="cls-4" d="M42.58,138.44c1.1,13.77-10.88,1.21-8-8,2.03,2.51,5.5,5.77,8,8Z"/>
      <path class="cls-6" d="M96.58,10.44c11.93-7.99,3.77,2.14,13.98-2l-5.98,6c-.42-2.65-4.98-5.38-8-4Z"/>
      <path class="cls-6" d="M198.59,204.43c-1.05-5.99,1.64-3.15,4.68-4.2,4.65-1.61,8.37-2.06,12.83-5.06,2.87-1.93,3.24-6.72,6.44-5.75-5.2,8.15-13.96,14.93-23.95,15.01Z"/>
      <path class="cls-4" d="M12.58,96.44c.27.41,3.62-.41,4,.02.34.38-2.48,5.87-2,9.98l-3.98,2,1.98-12Z"/>
      <path class="cls-6" d="M152.58,82.44c2.47,2.11,4.55,4.64,3.99,7.99l-5.99-1.99c.38-2.92,1.92-5.36,2-6Z"/>
      <path class="cls-6" d="M226.56,182.43c-4.53-1.77-.85-12.03-1.96-15.98,4.53,1.77.85,12.03,1.96,15.98Z"/>
      <path class="cls-4" d="M16.58,46.44c-.54,1.23-1.87,3.49-2,4-1.61,1.18-4.99,3.67-5.99,1.01l7.99-5.01Z"/>
      <path class="cls-6" d="M152.58,78.44c-3.57.71-4.63-.46-4-4,.78.96,3.25,1.06,4,4Z"/>
      <rect class="cls-6" x="222.6" y="156.45" width="1.96" height="5.98"/>
      <rect class="cls-4" x="64.6" y="212.45" width="1.96" height="3.98"/>
      <path class="cls-6" d="M223.58,184.44c1.3.67,1.3,1.33,0,2v-2Z"/>
      <path class="cls-3" d="M44.58,64.44c1.83-7.83-12.26-11.64-6.54-23.51,6.82-14.14,23.86,3.42,27.49,3.49,3.15.07,8.68-4.09,16.05-4.15s17.24,4.74,21.58,4.2c1.72-.21,2.71-3.78,3.42-4.03,10.13-3.56,23.01-3.94,22,10-.54,7.41-6.82,9.85-7.68,13.4-.75,3.08,3.8,16.6,3.79,23.59-.06,37.9-39.4,51.5-69.91,35.8-16.64-8.56-20.47-25.43-17.29-42.89,1.04-5.74,6.47-13.22,7.09-15.91-5.43,22.84-7.48,55.63,23.18,59.82,37.61,5.15,53.73-11.92,50.79-48.79-.32-3.99-4.65-16.43-3.99-17.01.49-.43,4.97.82,7.88-3.15,6.57-8.96-.35-15.69-10.48-12.51-4.71,1.48-4.75,7.62-6.54,7.75-3.22.24-16.4-6.13-23.85-6.28-5.99-.12-19.38,4.46-21.83,3.84-3.15-.79-3.44-10.88-15.82-7.76-2.18.55-3.57,6.54-3.05,8.67.83,3.4,6.82,5.72,7.45,8.72.73,3.51-3.5,5.7-3.74,6.69Z"/>
      <path class="cls-4" d="M44.58,64.44c.24-1,4.47-3.18,3.74-6.69-.63-3-6.62-5.32-7.45-8.72-.52-2.13.87-8.12,3.05-8.67,12.38-3.11,12.67,6.97,15.82,7.76,2.45.61,15.83-3.96,21.83-3.84,7.45.15,20.63,6.52,23.85,6.28,1.79-.14,1.83-6.28,6.54-7.75,10.13-3.17,17.05,3.55,10.48,12.51-2.91,3.97-7.39,2.72-7.88,3.15-.66.57,3.67,13.01,3.99,17.01,2.94,36.87-13.18,53.94-50.79,48.79-30.66-4.2-28.61-36.98-23.18-59.82ZM84.58,90.44c-7.85-2.07-6.56-1.22-14,0,.8-2.05,5.28-19.92-.98-18.01-.87.27-2.95,15.51-3.02,18.01-.17,6.08,3.32,7.71,8,12,2.72,11.96-10.46,2.5-11.99,4.01,2.21,13.93,11.29,4.51,14.95,4.72,5.06.29,15.97,11.14,15.02-6.73-10.43,9.04-6.71,6.11-13.98,0,1.26-8.27,8.4-.72,10-14,.75-6.25-.53-13.58-.02-20-6.99,3.43-3.1,13.81-3.98,20ZM60.57,72.45h-2.96c-3.14,2.11-3.49,4.29-3.02,7.98h5.98s0-7.98,0-7.98ZM102.57,74.45c-3.86-3.86-12.35,6.35-4.96,7.98,4.21.93,6.41-6.52,4.96-7.98Z"/>
      <path class="cls-1" d="M84.58,90.44c1.1.29,2.73-.19,4,0-1.6,13.28-8.74,5.73-10,14-1.02-.86-3.1-1.17-4-2-4.68-4.29-8.17-5.92-8-12,1.3-.14,2.75.2,4,0,7.44-1.22,6.15-2.07,14,0Z"/>
      <path class="cls-3" d="M78.58,104.44c7.27,6.11,3.55,9.04,13.98,0,.95,17.87-9.96,7.01-15.02,6.73-3.65-.21-12.74,9.21-14.95-4.72,1.52-1.51,14.7,7.96,11.99-4.01.9.83,2.98,1.14,4,2Z"/>
      <path class="cls-3" d="M66.58,90.44c.07-2.51,2.15-17.74,3.02-18.01,6.26-1.91,1.78,15.96.98,18.01-1.25.2-2.7-.14-4,0Z"/>
      <path class="cls-6" d="M88.58,90.44c-1.27-.19-2.9.29-4,0,.88-6.19-3.01-16.57,3.98-20-.51,6.42.77,13.75.02,20Z"/>
      <path class="cls-2" d="M102.57,74.45c1.45,1.45-.75,8.91-4.96,7.98-7.39-1.63,1.1-11.84,4.96-7.98Z"/>
      <path class="cls-1" d="M60.57,72.45v7.98s-5.98,0-5.98,0c-.47-3.69-.12-5.87,3.02-7.97h2.96Z"/>
    </g>
  </g>
</svg>