<?xml version="1.0" encoding="UTF-8"?>
<svg id="Calque_2" data-name="Calque 2" xmlns="http://www.w3.org/2000/svg" viewBox="0 0 304.45 198.63">
  <defs>
    <style>
      .cls-1 {
        fill: #978497;
      }

      .cls-2 {
        fill: #4f4647;
      }

      .cls-3 {
        fill: #939daf;
      }

      .cls-4 {
        fill: #8b9a99;
      }

      .cls-5 {
        fill: #596b79;
      }

      .cls-6 {
        fill: #fcf3ea;
      }
    </style>
  </defs>
  <g id="Calque_1-2" data-name="Calque 1">
    <g>
      <path class="cls-4" d="M270.31,50.21l7.06,23.94c7.51,18.68-1.37,34.14-3.08,51.05-.95,9.37,2.92,52.23,1.56,54.6-1.08,1.88-12.04,5.97-13.54,4.43-.5-.51,1.21-8.94-3.26-9.9-2.19-.47-4.32,1.49-5.86,1.6-.64.05-2.23-7.8-10.87-1.72,1.21-17.36.82-32.83-2.03-50.01-8.1-1.56-1.81,11.14-4.41,15.6-5.3,9.11-54.61,18.96-65.58,12.4,5.95-33.36-8.02-7.86-7.99,8.01-6.9,1.67-5.08-1.82-6.99-3.98-3.54-3.99-11.47-14.41-16.04-16-3.09-1.07-4.79,6.62-4.97,7.98-4.34-12.36-13.49-9.2-20.57-13.91-4.4-2.92-9.31-15.8-17.41-16.13l.03-2.91,7.95-11.05c-9.68-2.59-12.2,11.45-14.57,13.52-1.58,1.38-4.32,3.55-5.42,4.47-2.05,1.71-3.49,1.63-4,2l-25.1,4.05c-2.94.85-19.32-3.64-16.9-6.03,6.8.11,12.71-4.95,11.98-12.02-3.97,4.75-25.19,16.26-29.64,13.64-3.92-2.3-11.41-26.68-8.33-29.63,1.09-1.04,26.45-.44,17.99-16.01-3.26-6.01-9.56-10.27-14-18,1.2.39,2.13-1.17,2-2,8.09,9.16,6.45,9.53,18,12,3.85.82,5.48,2.64,10.79,1.96,13.72-1.76,9.3-7.36,13.47-14.69,4.67-8.21,11.95-9.89,13.41-11.57,2.27-2.63-3.81-8.44,8.56-14.46,6.22-3.03,24.05-7.94,21.92,2.51,9.02-1.38,14.62,8.52,21.95.79,1.27-1.34,7.5-14.8,7.9-16.53,15.74-2.26,28.53,8.9,42.05,12.95,30.05,9.01,49.27-13.49,83.36,6.64,7.84,4.63,6.84,7.59,10.59,12.41ZM86.3,68.23h-3.98v7.98h3.98v-7.98ZM89.75,82.5c-11.22,3.14-15.05,25.84,3.96,14.1,11.94-7.38,4.66-16.51-3.96-14.1ZM30.3,102.22c-1.17-1.18-7.01.35-7.97,3.01-3.86,10.62,13.26,2.32,7.97-3.01Z"/>
      <path class="cls-5" d="M270.31,50.21c13.24,17.07,21.4,37.24,34.03,54.98,1.38,7.31-11.33-1.93-12.75-3.26-4.07-3.78-3.65-7.68-7.26-9.71,2.11,14.74-4.8,28.76-5.99,43.02-.62,7.41,3.88,45.02.78,47.19-5.69,4-24.37,6.94-31.39,5.33-8.24-1.89-7.72-7.9-9.71-9.38-2.6-1.93-41.22,11.91-25.7-22.17-5.94-2.44-8.38,1.74-14.88,2.14-9.05.56-20.71.68-29.11-2.15-2.19,10.44,5.98,26.05.12,35.14-4.83,7.49-22.94,8.33-30.65,6.37-6.6-1.68-11.89-11.31-12.89-11.56-5.57-1.37-19.73,2.63-23.62-3.92-4.25-7.18,6.63-37.07,2.61-50.62-1.74-5.84-13.06-14.73-19.59-9.41,1.1-.91,3.83-3.08,5.42-4.47,2.37-2.07,4.89-16.11,14.57-13.52l-7.95,11.05-.03,2.91c8.1.32,13.02,13.21,17.41,16.13,7.09,4.71,16.24,1.55,20.57,13.91-1.33,10.02,1.5,21.47-1.91,31.93,4.56-1.98,6.35,3.93,7.16,3.98,1.79.1,4.14-2.3,6.76-1.07,5.61,2.63.04,14.49,15.19,7.35,9.96-4.7.82-21.35.81-30.19-.02-15.87,13.95-41.37,7.99-8.01,10.97,6.57,60.28-3.29,65.58-12.4,2.6-4.46-3.68-17.16,4.41-15.6,2.85,17.18,3.24,32.65,2.03,50.01,8.65-6.08,10.23,1.76,10.87,1.72,1.54-.11,3.67-2.07,5.86-1.6,4.47.96,2.76,9.39,3.26,9.9,1.49,1.54,12.46-2.55,13.54-4.43,1.36-2.37-2.51-45.23-1.56-54.6,1.71-16.91,10.59-32.37,3.08-51.05l-7.06-23.94ZM126.3,182.21c.92-10.3,6.9-35.12-4.47-40.51-6.44-3.05-8.98-2.71-11.41,3.63-5.91,15.4,2.58,9.21,5.02,12.73.79,1.14,4.96,30.53,10.86,24.15ZM236.31,146.21c-6.2,3.46-33.69,10.17-16.21,12.11,1.04,2.24-.53,9.2.19,9.91,1.2,1.17,13.98-3.36,12.03,7.99,2.91.62,5.37-1.32,5.98-4.01,1.5-6.6-1.06-17.7-.02-24.99l-1.98-1.01ZM112.3,168.23h-5.98v3.98h5.98v-3.98ZM250.3,178.23h-5.98v3.98h5.98v-3.98ZM258.3,184.2l-.98-5.98c-2.12,1.82-3.65,3.03-3,5.98h3.98ZM136.3,190.2c2.05-2.07-3.97-8.02-5.98-5.98s3.97,8.02,5.98,5.98ZM146.3,188.23c-2.18-2.18-6.16,1.8-3.98,3.98s6.16-1.8,3.98-3.98Z"/>
      <path class="cls-5" d="M36.31,70.21c-2.94-8.56-2.82-17.43.02-25.99,8.97.28,8.12,14.73,18.58,11.72,5.34-1.54,12.94-22.51,20.52-25.79-2.36-10.48-5.44-19.08-1.1-29.94,13.43-2.7,12.19,19.99,17.23,21.73,19.52,6.73,22.2-13.77,35.81-13.92,3.35-.04,7.81,6.47,6.94,10.19-.41,1.73-6.64,15.19-7.9,16.53-7.32,7.73-12.92-2.17-21.95-.79,2.13-10.44-15.7-5.53-21.92-2.51-12.37,6.02-6.29,11.84-8.56,14.46-1.46,1.69-8.74,3.37-13.41,11.57-4.17,7.33.25,12.94-13.47,14.69-5.32.68-6.94-1.14-10.79-1.96ZM86.3,26.2c.84-.73-2.78-20.42-9.98-17.98-2.03,4.75,3.71,23.47,9.98,17.98ZM116.32,32.2c8.38-1.64,13.67-9.88,11.97-17.99-4.3.5-2.68,5.8-4.57,7.54s-8.26.24-7.4,10.45ZM111.31,28.21v2c1.3-.67,1.3-1.33,0-2ZM40.34,66.21l7.97-4.97-9.97-11.02,2,15.98Z"/>
      <path class="cls-5" d="M80.31,124.21c-10.45,7.59-21.94,10-34.88,7.88-4.89-.8-8.87-4.97-12.36-5.31-5.15-.49-9.85,4.32-15.75-.6-10.31-8.6-9.38-25.5-11.52-36.47C2.85,74.5-1.01,65.97.24,49.14c.42-5.65,2.55-23.51,9.92-18.8,1.22.78,7.63,24.46,8.15,27.87.13.83-.8,2.39-2,2-3.93-6.84-7.35-13.96-8.02-21.99-2.92-.2-3.55,7.25-3.73,9.22-.67,7.52,2.16,35.81,6.74,40.86,3.72,4.11,19.52-3.11,19.01-10.1,8.46,15.57-16.91,14.97-17.99,16.01-3.08,2.95,4.42,27.33,8.33,29.63,4.45,2.62,25.67-8.89,29.64-13.64.73,7.07-5.17,12.13-11.98,12.02-2.42,2.39,13.96,6.88,16.9,6.03l25.1-4.05Z"/>
      <path class="cls-3" d="M134.31,148.21c.18-1.36,1.88-9.05,4.97-7.98,4.57,1.59,12.5,12.01,16.04,16,1.92,2.16.09,5.65,6.99,3.98.01,8.84,9.16,25.49-.81,30.19-15.15,7.14-9.58-4.71-15.19-7.35-2.62-1.23-4.96,1.18-6.76,1.07-.81-.05-2.6-5.96-7.16-3.98,3.41-10.46.58-21.91,1.91-31.93Z"/>
      <path class="cls-6" d="M16.31,60.21c4.44,7.73,10.74,11.99,14,18,.51,6.98-15.29,14.2-19.01,10.1-4.58-5.05-7.4-33.34-6.74-40.86.17-1.97.8-9.42,3.73-9.22.68,8.03,4.1,15.15,8.02,21.99Z"/>
      <path class="cls-1" d="M89.75,82.5c8.61-2.41,15.89,6.72,3.96,14.1-19.01,11.74-15.18-10.95-3.96-14.1Z"/>
      <path class="cls-5" d="M30.3,102.22c5.29,5.33-11.83,13.63-7.97,3.01.96-2.65,6.81-4.18,7.97-3.01Z"/>
      <rect class="cls-2" x="82.32" y="68.23" width="3.98" height="7.98"/>
      <path class="cls-4" d="M126.3,182.21c-5.9,6.38-10.07-23.01-10.86-24.15-2.44-3.51-10.92,2.68-5.02-12.73,2.43-6.34,4.97-6.68,11.41-3.63,11.37,5.39,5.38,30.21,4.47,40.51Z"/>
      <path class="cls-4" d="M236.31,146.21c1.03,8.23-2.43,19.23,2,26-.61,2.69-3.07,4.62-5.98,4.01,1.95-11.36-10.83-6.83-12.03-7.99-.73-.71.84-7.67-.19-9.91-17.48-1.93,10.01-8.65,16.21-12.11Z"/>
      <path class="cls-3" d="M238.31,172.21c-4.43-6.77-.97-17.77-2-26l1.98,1.01c-1.04,7.29,1.52,18.4.02,24.99Z"/>
      <path class="cls-3" d="M136.3,190.2c-2.01,2.04-8.03-3.9-5.98-5.98s8.03,3.9,5.98,5.98Z"/>
      <rect class="cls-4" x="106.32" y="168.23" width="5.98" height="3.98"/>
      <rect class="cls-4" x="244.32" y="178.23" width="5.98" height="3.98"/>
      <path class="cls-4" d="M258.3,184.2h-3.98c-.65-2.95.88-4.16,3-5.98l.98,5.98Z"/>
      <path class="cls-3" d="M146.3,188.23c2.18,2.18-1.8,6.16-3.98,3.98s1.8-6.16,3.98-3.98Z"/>
      <path class="cls-4" d="M86.3,26.2c-6.28,5.49-12.02-13.23-9.98-17.98,7.2-2.45,10.82,17.24,9.98,17.98Z"/>
      <path class="cls-4" d="M116.32,32.2c-.86-10.21,5.42-8.62,7.4-10.45s.27-7.04,4.57-7.54c1.7,8.11-3.59,16.35-11.97,17.99Z"/>
      <polygon class="cls-3" points="40.34 66.21 38.33 50.22 48.31 61.24 40.34 66.21"/>
      <path class="cls-4" d="M111.31,28.21c1.3.67,1.3,1.33,0,2v-2Z"/>
    </g>
  </g>
</svg>