<?xml version="1.0" encoding="UTF-8"?>
<svg id="Calque_2" data-name="Calque 2" xmlns="http://www.w3.org/2000/svg" viewBox="0 0 109.71 112.34">
  <defs>
    <style>
      .cls-1 {
        fill: #978497;
      }

      .cls-2 {
        fill: #926651;
      }
    </style>
  </defs>
  <g id="Calque_1-2" data-name="Calque 1">
    <g>
      <path class="cls-1" d="M84.56,2.38c21.08-6.32,38.44,24.65,11.07,37.12-18.05,8.23-30.37-13.64-23.54-27.53.5-1.02,11.2-9.21,12.47-9.59Z"/>
      <path class="cls-1" d="M20.58.29c22.11-4.37,21.15,41.42-7.94,37.31C-12.19,34.09,4.51,3.47,20.58.29Z"/>
      <path class="cls-1" d="M16.56,76.38c26.42-3.47,16.58,47.04-6.57,33.71-14.46-8.33-8.72-31.7,6.57-33.71Z"/>
      <path class="cls-1" d="M69.38,107.69c-.5-.44-4.18-10.93-4.38-12.62-3.85-31.94,33.94-23.39,27.24-2.96-2.01,6.13-16.14,21.48-22.86,15.58Z"/>
      <path class="cls-2" d="M46.58,44.31c30.08-5.35,13.05,45.7-7.38,26.57-8.29-7.76-3.75-24.59,7.38-26.57Z"/>
    </g>
  </g>
</svg>