<?xml version="1.0" encoding="UTF-8"?>
<svg id="Calque_2" data-name="Calque 2" xmlns="http://www.w3.org/2000/svg" viewBox="0 0 204.57 194.18">
  <defs>
    <style>
      .cls-1 {
        fill: #596b79;
      }
    </style>
  </defs>
  <g id="Calque_1-2" data-name="Calque 1">
    <path class="cls-1" d="M147.34,18.03c-3.24,5.02-39.67,5.96-44.91,12.09-10.16,11.87,8.76,31.51-3.16,50.84-9.83,15.93-25.08,7.23-32.86,13.14-1.56,1.19-6.39,12.81-9.18,16.82-6.41,9.24-16.56,16.87-21.65,24.35-1.14,1.68-2.79,1.96-1.98,5.01,8.02.5,32.52,14.7,38.08,11.09.96-.62,1.79-17.75,3.33-22.67,9.67-30.92,42.45-16.85,49.67-28.38,2.73-4.35-11.82-39.84,5.83-38.11,5.98.59,15.13,26.25,16.16,32.07,1.73,9.76-6.98,22.48-15.22,26.88-9.77,5.21-26.54.8-34.95,9.05-5.12,5.02-9.07,23.58-5.9,30.12,1.68,3.46,13.36,9.49,17.03,7.11,6.92-4.49,15.85-36.03,33.45-40.63,28.54-7.45,22.66,22.92,41.49,21.53,2.17-10.11-.28-21.44,13.99-20.03,15.54,1.54,4.63,36.04-1.02,40.94-8.56,7.43-29.56-2.5-36.99-8.9-4.84-4.17-11.38-18.33-19.65-15.86-8.68,2.59-19.9,49.09-30.18,49.68-9.22.52-14.53-6.68-20.61-9.39-14.11-6.28-29.94-11.53-43.9-18.1-7.24-3.41-35.96-16.48-39.74-20.24-2.24-2.23-5.75-6.91-4.04-10.12.87-1.63,25.19-22.17,28.15-23.99s6.77-1.77,7.03-2.03c.41-.43-2.76-4.45-1.89-5.7.52-.75,4.65-.92,6.43-4.7,3.12-6.63.07-15.08,8.38-21.62,10.21-8.04,41.28,8.2,34.11-20.03-3.25-12.79-22.36-24.25-10.43-37.33,8.41-9.22,62.19-27,72.57-18.8,3.11,2.46,4.22,13.33,2.54,15.93Z"/>
  </g>
</svg>