<?xml version="1.0" encoding="UTF-8"?>
<svg id="Calque_2" data-name="Calque 2" xmlns="http://www.w3.org/2000/svg" viewBox="0 0 349.99 266.91">
  <defs>
    <style>
      .cls-1 {
        fill: #da623f;
      }

      .cls-2 {
        fill: #eba749;
      }

      .cls-3 {
        fill: #fcf3ea;
      }
    </style>
  </defs>
  <g id="Calque_1-2" data-name="Calque 1">
    <g>
      <path class="cls-1" d="M304.39,262.8c-3.19-4.71-16.62-9.14-23.08-17.92-2.81-3.83-7.29-16.07-8.86-17.14-2.79-1.89-18.12-.9-24.16-1.84-16.16-2.52-33.52-13.96-42.77-27.23-3.13-4.49-6.63-17.01-7.35-17.64-1.2-1.06-25.05-1.3-31.87-3.14-20.95-5.65-42.13-22.74-46.13-44.86-35.94,2.85-70.86-16.66-75.96-54.04-9.17.48-36.64-3.61-41.96-11.04-1.5-2.1-2.97-8-1.85-9.14,2.66-2.68,33.31,13.23,42.12,7.11,4.02-7.62.73-17.01,2.34-25.64C50.03,12.64,85.06-12.48,111.4,6.78c13.27,9.7,11.16,29.8,1.03,41.06-3.8,4.23-16.63,12.44-22.05,14.95-3.37,1.56-8.33,1.02-10,6-.63.16-1.37-.15-2,0-7.99,1.95-16.01,4.06-24,6.02-.89,1.98,1.97,3.64,2,3.98.12,1.31-.25,2.88,0,4l-1.96,1,1.96,1c.18.63-.19,1.41,0,2l2,2c.73,1.79,1.46,5.14,2,6l2,2c6.31,8.45,15.56,16.12,25.97,19.03,4.54,1.27,22.99,3.97,26.75,2.7s4.84-20.69,6.88-27.12c8.08-25.51,42.47-59.23,69.1-38.31,33.31,26.17-29.74,74.35-56.64,75.8,4.06,21.29,24.39,33.81,45.17,35.65,24.28,2.16,14.52-7.68,19.73-25.78,6.71-23.33,37.69-57.03,63.73-41.66,16.38,9.67,12.45,28.05,4.93,42.32-10.61,20.12-31.84,32.12-53.71,36.48,1.25,25.84,33.18,38.03,56.1,34.91-2.81-32.31,25.61-75.07,61.09-70.09,4.51.63,11.37,4.33,13.81,8.17,19.88,31.28-27.99,70.1-56.91,73.93,3.31,13.05,12.92,23.51,26.01,25.98-.96,5.32,1.3,4.13,6,4,.19.25,4.8,1.6,6,2l-2,12c-4.64-.17-9.38.31-14,0,1.03-4.99-1.67-4.36-6-4ZM98.39,46.8c1.76-1.59,9.79-11.36,10.37-12.78,10.22-25.12-21.47-27.73-38.5-14.31-8.29,6.54-20.44,35.61-15.01,43.21,4.61,6.46,35.47-9.75,41.14-14.12.74-.57,1.31-1.38,2-2ZM132.4,114.79c3.24,3.56,39.77-20.26,44.08-24.9,6.86-7.4,16.11-27.52.98-29.25-26.39-3.02-43.77,31.88-45.06,54.15ZM245.29,143.68c10.09-9.41,27.66-36.81,2.13-35-21.84,1.55-34.11,33.22-35.01,52.11,3.91,3.94,28.67-13.18,32.89-17.11ZM332.19,154.98c-2.39-1.67-18.11,3.72-21.21,5.41-14.61,7.98-25.83,32.16-24.58,48.4,18.13-5.86,49.16-25.09,47.88-46.77-.08-1.3-1.6-6.69-2.09-7.03Z"/>
      <path class="cls-2" d="M78.39,68.8c.49,7.44-16,5.15-22,10-.03-.34-2.88-2-2-3.98,7.99-1.96,16.01-4.06,24-6.02Z"/>
      <path class="cls-2" d="M90.39,62.8c1.24,6.22-5.89,4.99-10,6,1.67-4.98,6.63-4.44,10-6Z"/>
      <path class="cls-3" d="M314.39,248.8c1.63.31,5.4-.51,6,0,.5.42-.46,3.4,0,4-4.7.13-6.96,1.32-6-4Z"/>
      <path class="cls-3" d="M304.39,262.8c4.33-.36,7.03-.99,6,4-9.82-.65-3.85-.82-6-4Z"/>
      <path class="cls-2" d="M62.39,96.8l-2-2c.42.67,1.44,1.25,2,2Z"/>
      <path class="cls-2" d="M58.39,88.8l-2-2c.14.43,1.63,1.09,2,2Z"/>
      <path class="cls-2" d="M56.39,84.8l-1.96-1,1.96-1c.14.64-.17,1.39,0,2Z"/>
      <path class="cls-3" d="M96.39,48.8c-5.67,4.38-36.53,20.58-41.14,14.12-5.42-7.6,6.72-36.67,15.01-43.21,17.03-13.43,48.72-10.81,38.5,14.31-.58,1.42-8.61,11.19-10.37,12.78l-2,2Z"/>
      <path class="cls-3" d="M132.4,114.79c1.29-22.27,18.66-57.17,45.06-54.15,15.13,1.73,5.88,21.85-.98,29.25-4.31,4.65-40.83,28.46-44.08,24.9Z"/>
      <path class="cls-3" d="M245.29,143.68c-4.22,3.93-28.97,21.05-32.89,17.11.9-18.89,13.17-50.56,35.01-52.11,25.53-1.81,7.97,25.59-2.13,35Z"/>
      <path class="cls-3" d="M332.19,154.98c.5.35,2.02,5.73,2.09,7.03,1.28,21.68-29.75,40.91-47.88,46.77-1.25-16.24,9.96-40.42,24.58-48.4,3.1-1.69,18.82-7.08,21.21-5.41Z"/>
      <path class="cls-2" d="M96.39,48.8l2-2c-.69.62-1.26,1.43-2,2Z"/>
    </g>
  </g>
</svg>