<?xml version="1.0" encoding="UTF-8"?>
<svg id="Calque_2" data-name="Calque 2" xmlns="http://www.w3.org/2000/svg" viewBox="0 0 237.7 410.95">
  <defs>
    <style>
      .cls-1 {
        fill: #4f4647;
      }

      .cls-2 {
        fill: #926651;
      }

      .cls-3 {
        fill: #b07734;
      }

      .cls-4 {
        fill: #f3c954;
      }

      .cls-5 {
        fill: #95994f;
      }

      .cls-6 {
        fill: #eba749;
      }

      .cls-7 {
        fill: #fcf3ea;
      }
    </style>
  </defs>
  <g id="Calque_1-2" data-name="Calque 1">
    <g>
      <path class="cls-3" d="M136.14,292.43c5.84.42,26.58,1.08,30.72-.28,5.35-1.76,1.86-8.24,4.27-11.71,4.51,2.12,4.35,17.34,5.02,18,1.94,1.9,10.36-7.33,13.54,5.44,2.4,9.66,1.45,10.85-7.54,11.53,2.69,5.77,8.28,9.26,11.66,14.34,11.77,17.66,7.49,42.37,8.33,62.67h-6c.74-17.13,3.35-31.13-.14-48.85-.34-1.73-4.49-15.34-7.85-11.14-1.59,18.33-4.18,44.63-10.01,61.99-1.19,3.55-1.27,5.7-4.92,6.15-11.27,1.37-10.04,1.16-11.08-6.15,2.78-15.51,10.54-45.74,7.54-60.55-.94-4.64-4.36-6.75-5.54-9.45-3.67-8.4-8.64-15.9-12-24-.41-.99,1.21-3.63-1.25-4.09-5.16-.31-10.61.71-15.73.06-19.98-2.56-24.65-11.8-25.02,12.03-3.21,1.69-1.92,6.79-2,10-.05,2,.02,4,0,6s0,4,0,6c-.04,9.98,0,20.02,0,30,0,11.31-.08,22.69,0,34h-2c-.1-1.84-1.99-3.63-2-4-.49-12.16,1.62-27.82.16-39.13-.49-3.76-3.73-2.64-4.14-4.16-2-7.41,3.61-6.57,3.98-7.98,1.95-7.41-3.61-6.55-3.97-8.09-2.6-11.21,7.98-15.94,5.96-26.63-3.44-.06-.58,6.55-6.96,3.97-2.97-1.2-3.88-6-2.87-8.8,1.63-4.55,14.24-.68,11.88-13.19,4.47,1.79,9.22,3.23,13.98,4.01,4.36.71,9.73,1.69,14,2ZM176.1,386.42c1.81-1.46,1.66-18.65,2.51-22.53,2.22-10.17,8.91-23.07,7.57-34.32-.97-8.16-17.51-23.74-14.05-35.14l-15.97,2.01c-1.46,7.95,11.69,3.36,13.72,9.24,3.7,10.71-3.87,11.02-3.74,11.71.8,4.52,9.85,9.52,10.1,20.12.17,7.32-8.41,46.7-6.08,48.93,1.64-.27,5.37.44,5.94-.02Z"/>
      <path class="cls-3" d="M70.14,208.43c.26,2.73-.66,11.15.1,11.91.37.37,5.88-.37,10.08,2.92,9.21,7.2,9.85,28.62-3.29,29.06-3.87.13-9.7-4.69-8.88,1.07,2.23,15.67,17.4,29.23,21.4,50.63,5.27,28.13,5.93,59.84,6.59,88.41-1.03-.32-2.75.22-4,0,.14-22.35-3.93-44.61-4.01-66.99l-3.97-15.01-12.5,84.5c-3,6.78-6.87,7.48-13.52,5.49-2.78-6.96-1.62-9.14-2-16,5.59-16.23,4.53-34.97,6-52,.11-1.32-.12-2.68,0-4,.86-9.61,3.31-21.6,4-32,.31-4.62-.21-9.36,0-14,.3-6.63.97-5.88,0-14-.46-3.83-1.85-9.53-2-12-.47-7.86.67-16.21,0-24,8.7-4.18.27-17.87,6-24ZM60.14,386.37c.88,1.15,9.56,3.33,9.68-1.27,3.48-22.41,6.24-44.91,9.05-67.35.35-2.83,2.91-5.38,3.17-8.44,1.22-14.26.21-21.27-7.92-32.87-3.59-.49-1.83,4.37-1.48,6.48.71,4.29,2.79,8.35,3.3,12.71,2.64,22.65-4.83,11.96-7.81,14.78-1.88,1.79,1.67,15.56,1.61,19.01-.15,10.33-11.36,54.65-9.6,56.95Z"/>
      <path class="cls-3" d="M56.14,8.43c.24,4.5-3.04,13.19,3,17.96l5-17.96c.83-.57.22-9.65,9.99-5.01s-5.6,14.7-1.98,23c9.41-.18,20.12-11.16,27.86-.78,1.61,12.44-20.96,17.61-21.88,18.83-1.97,2.63,13.8,53.76,15.11,63.92.34,2.64-1.35,7.73-1.1,8.05h-2c-4.29-17.88-8.62-7.54-17.12-15.87-5.46-5.36-2.28-17.35,1.35-22.96,1.54-2.38,5.63-2.83,5.89-4.48.78-4.8-8.38-30.01-6.08-32.62.85-.97,21.09-3.25,19.93-14.06-7.99-1.91-17.93,7.27-23.14,8.02-9.6,1.38-14.39-9.09-30.77,1.05-2.08,1.29-21.5,18.88-21.87,20.33-1.47,5.8,13.87,15.19,9.79,24.59-.38.13-.37,3.09-3.99,2.01l-1.98-6c-5.13,13.7-14.85,3.96-18.03-6.01,6.96-17.21,15.42-22.31,29.13-34l-7.13-10c0-3.37-5-9.69,1.29-11.76,9.15-3.01,10.57,6.59,18.7,5.75,1.93-7.11-8.38-14.96.02-19,7.61-3.66,9.62.17,9.99,7.01ZM52.13,4.44c-2.18-2.18-6.16,1.8-3.98,3.98s6.16-1.8,3.98-3.98ZM74.13,6.44h-5.98v3.98h5.98v-3.98ZM42.01,24.67c-.44-.62-11.53-6.36-13.86-6.23-1.5,1.44,6.96,13.11,9.02,13.97,3.68,1.54,5.44-6.88,4.84-7.74Z"/>
      <path class="cls-3" d="M212.14,256.43l-5.96-1.02c5.79,4.64,1.96,8.84,1.96,13.02-.03,19.67-2.66,39.9,6,58-.65.1-1.37-.13-2,0-12.46,2.61-15.26.03-11.13-14.22,1.15-3.98,5.16-3.7,5.17-4.93.06-4.5-4.09-12.77-2.06-18.85-30.36,18.83-25.22-44.98,0-16,.86-9.55-.08-17.32-4.01-25.98-4-.2-2.01,7.29-5.3,8.07-9.52,2.24-21.96-.61-24.3-11.54-1.15-5.38,2.05-13.87,1.61-14.45-.5-.66-9.33-1.47-9.98-6.09.58.22,1.42-.22,2,0,16.12,6.19,32.33,9.92,44.01,25,2.76,3.56,2.95,7.51,3.99,9Z"/>
      <path class="cls-3" d="M36.14,78.43c6.55-2.13,13.09-5,19.95-5.97,2.09,1.47,5.36,31.11,7.87,34.69,1.62,2.31,9.77,1.99,11.76,8.71,4.74,16-9.03,19.54-9.62,21.98-.82,3.39.1,23.11,2.16,24.51.24.16,3.01-1.88,5.72-.89,14.06,5.14,14.83,30-3.83,28.98-.33-5.35-3.58-11.76-2.02-17.99h-1.95s-2.03,3.99-2.03,3.99v-2c.33-3.27-.23-6.71,0-10l-6-40c.07-3.33,0-6.67,0-10-.01-6.07-2.63-32.24-4.98-36.02-1.66-2.67-12.32.94-15.02,2.02l-2-2Z"/>
      <path class="cls-7" d="M92.14,392.43c-.03,4.43-5.29,10.01,2,16-.2-.01-.96,2.49-3.82,1.13-4.11-1.94-8.22-10.98-9.5-11.26-6.58-1.42-8.43,4.85-13.75,6.09-8.96,2.08-7.35.01-8.93-3.96,6.65,1.99,10.52,1.28,13.52-5.49l12.5-84.5,3.97,15.01c.08,22.37,4.15,44.63,4.01,66.99Z"/>
      <path class="cls-7" d="M178.14,394.43c5.83-17.36,8.42-43.66,10.01-61.99,3.36-4.21,7.51,9.4,7.85,11.14,3.49,17.73.88,31.73.14,48.85-.17,3.98.12,8.01,0,12-.36-.28-2.74.77-3.59-.36-3.11-4.14,1.03-16.19-14.41-9.64Z"/>
      <path class="cls-3" d="M108.14,190.43c2.68.61,5.31,1.42,8,2,1.79,3.26,2.66,7.09,6,10l2,2c.58.2,1.38-.19,2,0,.87,2.88,3.06,4,6,4,.34.38,2.82-.28,4,0,4.44,3.44,17.05,12.13,22,14,4.49,18.9-25.64,18.04-29.59,4.59-3.58-12.17,6.18-20.44-14.39-24.59,4.85,41.07-40.89,12.1-22.06-9.04,6.05-6.79,9.34-4.48,16.05-2.96Z"/>
      <path class="cls-7" d="M220.14,284.43c1.1,2.73,3.71,7.1,3.99,9.16.54,3.97-3.03,18.37.01,20.84.43.35,3.74-.91,5.41.56,1.04.91.42,3.33.59,3.44-7,2.17-5.62-3.75-6-4-7.71-5.14-7.71,7.74-8,12h-2c-8.66-18.1-6.03-38.33-6-58,5.26-.21,10.05,11.16,12,16Z"/>
      <path class="cls-3" d="M94.14,120.43c-.14,1.95-.06,4.04,0,6,.14,4.79.29,15.72,6,14,.07,1.27.13,2.75,0,4-.07.62-3.29,3.07-1.99,5.99h3.99c.23,1.25-.25,2.8,0,4.01h-3.99c.21,1.9-.39,4.31,0,6-18.16,1.68-22.07-19.71-12.16-30.76,2.1-2.34,5.79-.87,6.16-1.25,1.46-1.49-1.74-6.46-2-7.99h4Z"/>
      <path class="cls-2" d="M226.14,282.43c.28,1.13-.23,2.75,0,4,.12.64-.1,1.35,0,2,1.61,10,2.77,4.47,8.04,10.94,6.72,8.26,2.92,23.62-4.04,19.06-.17-.11.45-2.53-.59-3.44-1.67-1.47-4.98-.21-5.41-.56-3.05-2.47.52-16.87-.01-20.84-.28-2.06-2.89-6.43-3.99-9.16l6-2Z"/>
      <path class="cls-7" d="M162.14,394.43c-2.49-17.55-.93-27.97,3.95-45.02l-1.95-24.98c1.18,2.7,4.6,4.81,5.54,9.45,3,14.81-4.76,45.04-7.54,60.55Z"/>
      <path class="cls-7" d="M58.14,114.43c-6.49,1.16-3.23-3.3-4-6.91-.73-3.41-5.26-22.2-6.26-22.84-1.44-.92-10.79-.39-13.74-.26,1.23-.97,2.81-3.53,4-4,2.7-1.08,13.36-4.69,15.02-2.02,2.35,3.78,4.97,29.95,4.98,36.02Z"/>
      <path class="cls-5" d="M212.14,256.43c6.78,9.74,10.59,12.39,14,26l-6,2c-1.95-4.84-6.74-16.21-12-16,0-4.18,3.83-8.38-1.96-13.02l5.96,1.02Z"/>
      <path class="cls-7" d="M110.14,308.43c.38-23.84,5.04-14.59,25.02-12.03,5.11.65,10.57-.37,15.73-.06,2.46.46.84,3.09,1.25,4.09-9.76,2.65-26.52-4.6-34.75-1.74-4.9,1.71-2.19,11.2-7.25,13.74-.04-1.33-.02-2.67,0-4Z"/>
      <path class="cls-2" d="M106.14,394.43c.28,4.91-.51,9.38-2,14-.53.17-1.3-.09-2,0h-2c-1.96.07-4.04.12-6,0-7.29-5.99-2.03-11.57-2-16,1.25.22,2.97-.32,4,0,2.18.68,4.28,3.39,7.99,1.99v-3.99c.02.37,1.9,2.16,2.01,4Z"/>
      <path class="cls-2" d="M202.14,392.43c1.92,0,4.2-.26,6,0,.65.09,2.49,2.16,4,2-.14,1.98.1,4.01,0,6-3.01,3.43-3.61,3.74-6,6h-6c-.53-.39-2.2-.6-4-2,.12-3.99-.17-8.02,0-12h6Z"/>
      <path class="cls-7" d="M4.14,70.43c-.33.82-1.27,1.48-2,2,0-.31-1.9-1.57-1.96-3.17-.12-3.14,10.38-19.46,13.15-22.64,7.48-8.6,12.8-4.32,12.8-20.19l7.13,10c-13.71,11.69-22.17,16.8-29.13,34Z"/>
      <path class="cls-5" d="M102.14,154.43c2.71,13.35,7.47,26.11,14,38-2.69-.58-5.32-1.39-8-2-1.31-9.62-8.03-21.24-10-30-.38-1.69.22-4.1,0-6h3.99Z"/>
      <path class="cls-2" d="M4.14,70.43c3.18,9.97,12.9,19.72,18.03,6.01l1.98,6c3.62,1.08,3.62-1.89,3.99-2.01,2.58-.87,5.41-1.16,8-2l2,2c-1.19.47-2.77,3.03-4,4-.67.03-1.34-.03-2,0-8.68.44-16.78,4.46-26,0-.67-.8-.65-1.31-2-2l-2-4c.25-1.82-.01-4.06,0-6,.73-.52,1.67-1.18,2-2Z"/>
      <path class="cls-7" d="M56.14,384.43c-.03-.5-2.2-2.78-2.13-6.77.2-12.29,4.84-33.25,8.13-45.23-1.47,17.03-.41,35.77-6,52Z"/>
      <path class="cls-3" d="M214.14,360.43c-.14,7.26-.3,14.75,0,22,.08,1.99-.13,4.02,0,6-2.66.98-1.84,3.83-2,6-1.51.16-3.35-1.91-4-2l4-38h2c-.06,2,.04,4,0,6Z"/>
      <path class="cls-2" d="M70.14,190.43c.38,6.15-.71,10.41,0,18-5.73,6.13,2.7,19.82-6,24-.11-1.32.1-2.68,0-4,2.61-.97,1.91-3.81,2-6,.42-9.89.12-20.09,0-30-.04-3.26.32-6.85,0-10-.09-.91-1.06-1.79-2-2-.17-1.3.11-2.69,0-4l2.03-3.98h1.95c-1.56,6.23,1.69,12.63,2.02,17.98Z"/>
      <path class="cls-7" d="M64.14,164.43l-7.89-19.11c-2.46-6.55,1.8-16.57,1.89-20.89l6,40Z"/>
      <path class="cls-7" d="M66.14,192.43c.12,9.91.42,20.11,0,30h-2c-.58-7.58-4.59-15.91-4.06-25.04.37-6.27-.67-5.18,6.06-4.96Z"/>
      <path class="cls-7" d="M64.14,8.43l-5,17.96c-6.04-4.77-2.76-13.46-3-17.96,1.91-.43,7.11.61,8,0Z"/>
      <path class="cls-7" d="M66.14,296.43c-.69,10.4-3.14,22.39-4,32-3.55-5.73-2.26-14.32-1.75-20.76.21-2.6.49-12.96,5.75-11.24Z"/>
      <path class="cls-5" d="M136.14,208.43c6.52,1.57,11.13,2.97,17.31,5.68,2.82,1.24,11.71,4.19,10.69,8.32-.58-.22-1.42.22-2,0-1.01-.38-2.99.38-4,0-4.95-1.87-17.56-10.56-22-14Z"/>
      <path class="cls-5" d="M216.14,326.43c-.22,3.31.17,6.69,0,10-.07,1.33.08,2.67,0,4-.29,4.86-1.93,11.75-2,14h-2v-28c.63-.13,1.35.1,2,0h2Z"/>
      <path class="cls-7" d="M32.14,84.43c-4.97,5.01-20.79,8.3-25.66,3.57-.98-.95-.05-3.23-.34-3.57,9.22,4.46,17.32.44,26,0Z"/>
      <path class="cls-7" d="M66.14,282.43c-2.83-3.38-3.69-10.98,0-14,.97,8.12.3,7.37,0,14Z"/>
      <path class="cls-5" d="M100.14,140.43c-5.71,1.72-5.86-9.21-6-14,3.37,2.92,5.76,9.82,6,14Z"/>
      <path class="cls-5" d="M92.14,116.43c.13.17,4.09-.7,4.17,1.23.07,1.7-2.15,2.53-2.17,2.77h-4c-.21-1.26.27-2.86,0-4h2Z"/>
      <path class="cls-7" d="M206.14,406.43c-.26.25.63,3.55-1.03,4.09-6.34,2.05-4.64-3.84-4.97-4.09h6Z"/>
      <path class="cls-6" d="M110.14,312.43c.06,1.99-.16,4.03,0,6h-2c.08-3.21-1.21-8.31,2-10-.02,1.33-.04,2.67,0,4Z"/>
      <path class="cls-5" d="M102.14,150.43h-3.99c-1.31-2.93,1.92-5.38,1.99-6,1.17,1.85,1.61,3.88,2,6Z"/>
      <path class="cls-5" d="M126.14,204.43c1.53.46,5.32-.58,6,0,.49.42-.46,3.5,0,4-2.94,0-5.13-1.12-6-4Z"/>
      <path class="cls-7" d="M64.14,176.43c.11,1.31-.17,2.7,0,4,.08.65-.06,1.34,0,2-5.1-2.02-.1-7,0-8v2Z"/>
      <path class="cls-7" d="M4.14,82.43c-.74-.38-2.78.3-4-.01-.8-2.17,1.96-3.72,2-3.99l2,4Z"/>
      <path class="cls-3" d="M64.14,228.43c-.05-.66.05-1.34,0-2-.1-1.32.1-2.68,0-4h2c-.09,2.19.61,5.03-2,6Z"/>
      <path class="cls-5" d="M124.14,204.43l-2-2c.67.58,1.57,1.85,2,2Z"/>
      <path class="cls-3" d="M66.14,182.43h-2c-.06-.66.08-1.35,0-2,.94.21,1.91,1.09,2,2Z"/>
      <path class="cls-7" d="M100.14,408.43h2c-1.54.19-1.61-.01-2,0Z"/>
      <path class="cls-4" d="M28.14,80.43c4.08-9.4-11.26-18.79-9.79-24.59.37-1.45,19.79-19.04,21.87-20.33,16.38-10.14,21.17.33,30.77-1.05,5.21-.75,15.15-9.93,23.14-8.02,1.15,10.81-19.08,13.09-19.93,14.06-2.3,2.61,6.85,27.82,6.08,32.62-.27,1.65-4.35,2.1-5.89,4.48-3.64,5.62-6.82,17.6-1.35,22.96,8.49,8.34,12.82-2.01,17.12,15.87.27,1.14-.21,2.74,0,4,.26,1.53,3.46,6.5,2,7.99-.37.38-4.06-1.09-6.16,1.25-9.91,11.05-5.99,32.44,12.16,30.76,1.97,8.76,8.69,20.38,10,30-6.7-1.52-10-3.84-16.05,2.96-18.82,21.15,26.91,50.12,22.06,9.04,20.57,4.15,10.81,12.42,14.39,24.59,3.95,13.45,34.08,14.31,29.59-4.59,1.01.38,2.99-.38,4,0,.66,4.62,9.48,5.44,9.98,6.09.44.58-2.77,9.08-1.61,14.45,2.35,10.92,14.78,13.78,24.3,11.54,3.29-.77,1.3-8.27,5.3-8.07,3.92,8.67,4.87,16.43,4.01,25.98-25.22-28.98-30.36,34.83,0,16-2.03,6.08,2.11,14.34,2.06,18.85-.02,1.23-4.02.95-5.17,4.93-4.12,14.25-1.32,16.83,11.13,14.22v28l-4,38c-1.8-.26-4.08,0-6,0-.84-20.3,3.44-45.01-8.33-62.67-3.38-5.07-8.97-8.57-11.66-14.34,8.99-.69,9.94-1.87,7.54-11.53-3.18-12.77-11.6-3.55-13.54-5.44-.67-.66-.51-15.88-5.02-18-2.41,3.47,1.08,9.95-4.27,11.71-4.14,1.36-24.88.7-30.72.28l5.01-4c-3.92-1.12-21.93-9.58-19.01,2-4.76-.78-9.51-2.22-13.98-4.01,2.37,12.51-10.25,8.64-11.88,13.19-1,2.8-.09,7.6,2.87,8.8,6.38,2.58,3.52-4.03,6.96-3.97,2.02,10.69-8.56,15.41-5.96,26.63.36,1.53,5.92.68,3.97,8.09-.37,1.41-5.97.57-3.98,7.98.41,1.52,3.66.4,4.14,4.16,1.46,11.32-.64,26.97-.16,39.13v3.99c-3.72,1.4-5.82-1.31-8-1.99-.65-28.57-1.32-60.28-6.59-88.41-4-21.4-19.18-34.96-21.4-50.63-.82-5.76,5.01-.94,8.88-1.07,13.14-.45,12.51-21.86,3.29-29.06-4.2-3.28-9.71-2.54-10.08-2.92-.76-.76.16-9.18-.1-11.91-.71-7.59.38-11.85,0-18,18.67,1.03,17.89-23.83,3.83-28.98-2.71-.99-5.48,1.05-5.72.89-2.05-1.4-2.98-21.12-2.16-24.51.59-2.44,14.36-5.98,9.62-21.98-1.99-6.72-10.14-6.4-11.76-8.71-2.51-3.58-5.78-33.22-7.87-34.69-6.86.97-13.41,3.84-19.95,5.97-2.59.84-5.42,1.13-8,2ZM54.13,46.44c-2.44-2.62-8.54,5.23-5.98,7.98s8.54-5.23,5.98-7.98ZM74.13,56.44l-11.11,3.97c.65,13.67,13.29,7.05,11.11-3.97ZM127.54,241.02c-6.59-8.94-27.02-10-27.51,6.32-.63,20.86,29.14,23.47,30.29,8.1.25-3.35-.89-11.87-2.78-14.42ZM146.63,248.91c-7.57,7.5,2.52,34.6,19.48,22.48,13.49-9.64-7.17-34.68-19.48-22.48ZM90.16,278.42c4.08,4.1,18.1-10,4.08-15.08-7.91-2.87-10.1-.66-8.01,7.64.35,1.38,2.71,1.45,3.2,2.24,1.24,2.03.55,5.01.74,5.2Z"/>
      <path class="cls-6" d="M176.1,386.42c-.57.46-4.3-.25-5.94.02-2.33-2.23,6.26-41.61,6.08-48.93-.25-10.6-9.31-15.6-10.1-20.12-.12-.69,7.44-1,3.74-11.71-2.03-5.88-15.18-1.28-13.72-9.24l15.97-2.01c-3.45,11.4,13.08,26.98,14.05,35.14,1.34,11.25-5.35,24.15-7.57,34.32-.85,3.88-.7,21.07-2.51,22.53Z"/>
      <path class="cls-6" d="M122.14,290.43c-2.92-11.59,15.1-3.12,19.01-2l-5.01,4c-4.27-.31-9.64-1.29-14-2Z"/>
      <path class="cls-6" d="M60.14,386.37c-1.76-2.29,9.44-46.62,9.6-56.95.05-3.46-3.5-17.22-1.61-19.01,2.97-2.82,10.45,7.86,7.81-14.78-.51-4.36-2.58-8.42-3.3-12.71-.35-2.11-2.1-6.96,1.48-6.48,8.13,11.6,9.14,18.62,7.92,32.87-.26,3.06-2.82,5.61-3.17,8.44-2.8,22.44-5.57,44.94-9.05,67.35-.11,4.6-8.79,2.43-9.68,1.27Z"/>
      <path class="cls-4" d="M42.01,24.67c.6.86-1.16,9.28-4.84,7.74-2.05-.86-10.52-12.54-9.02-13.97,2.32-.13,13.42,5.61,13.86,6.23Z"/>
      <rect class="cls-4" x="68.15" y="6.44" width="5.98" height="3.98"/>
      <path class="cls-6" d="M52.13,4.44c2.18,2.18-1.8,6.16-3.98,3.98s1.8-6.16,3.98-3.98Z"/>
      <path class="cls-3" d="M127.54,241.02c1.88,2.56,3.03,11.08,2.78,14.42-1.15,15.37-30.92,12.76-30.29-8.1.49-16.32,20.92-15.26,27.51-6.32ZM118.13,248.44h-3.98v7.98h3.98v-7.98Z"/>
      <path class="cls-3" d="M146.63,248.91c12.31-12.2,32.97,12.83,19.48,22.48-16.96,12.12-27.05-14.98-19.48-22.48Z"/>
      <path class="cls-3" d="M90.16,278.42c-.19-.19.5-3.17-.74-5.2-.49-.79-2.85-.86-3.2-2.24-2.09-8.31.1-10.51,8.01-7.64,14.02,5.08,0,19.19-4.08,15.08Z"/>
      <path class="cls-6" d="M74.13,56.44c2.18,11.02-10.46,17.64-11.11,3.97l11.11-3.97Z"/>
      <path class="cls-1" d="M54.13,46.44c2.56,2.75-3.54,10.6-5.98,7.98-2.56-2.75,3.54-10.6,5.98-7.98Z"/>
      <rect class="cls-6" x="114.15" y="248.44" width="3.98" height="7.98"/>
    </g>
  </g>
</svg>