<?xml version="1.0" encoding="UTF-8"?>
<svg id="Calque_2" data-name="Calque 2" xmlns="http://www.w3.org/2000/svg" viewBox="0 0 251.96 242.52">
  <defs>
    <style>
      .cls-1 {
        fill: #978497;
      }

      .cls-2 {
        fill: #4f4647;
      }

      .cls-3 {
        fill: #939daf;
      }

      .cls-4 {
        fill: #8b9a99;
      }

      .cls-5 {
        fill: #596b79;
      }

      .cls-6 {
        fill: #fcf3ea;
      }
    </style>
  </defs>
  <g id="Calque_1-2" data-name="Calque 1">
    <g>
      <path class="cls-2" d="M207.65,4.22c1.7-2.74,1.93-4.97,5.96-3.98,7.52,10.11,1.24,13.59.34,21.5-.84,7.34,5.8,7.57,9,11.18,6.97,7.86,27.13,27.73,28.57,36.41,2.83,17-8.3,29.87-25.5,25.53-6.55-1.65-24.18-15.08-29.37-8.66-2.03,2.51-6.81,30.38-8.69,37.27-1.07,3.91-7.84,17.28-8.26,21.85-.34,3.7,1.66,17.02,1.95,22.91-4.87,1.56-3.7-3.81-4-4-.33-4.96.45-12.85-6-12,4.98-15.16.7-9.66-5.9-15.07-3.29-2.69-6.05-5.99-9.12-8.9l-27.94-40.02c-4.79,3.43-1.73,3.4-.65,6.59,6.79,20.1,13.68,39.92,19.58,60.42-8.05.74-5.98-8.44-11.94-11.02,1.71,6.26-2.22,13.61-1.94,18.91.19,3.69,3.13,6.23,3.92,9.09.5,1.8,1.98,3.78,2,4,.18,1.79-2.54,5.61-2,5.98,3.99.04,8.01.02,12,.02v4c-2.67.34-9.82,2.06-11.17,3.92-2.5,3.47,1.11,6.48,1.17,8.08.02.67-.02,1.33,0,2,.12,3.99-.18,8.02,0,12,.06,1.33-.02,2.67,0,4,.04,2.15-.37,9.66-.01,10.01.53.53,9.39-.31,12.01-.01.6.07,2.5,2.17,4,2-.08,2.76.7,10.68-.23,11.78-3.13,3.7-17.26,1.87-19.39-5.16-3.57-11.82,2.34-54.84-4.39-62.62l-2-2c-8.64.16-17.36-.22-26,0l8.01-4.01c-4.61-18.57-5.59-40.52-17.99-55.99l3.98,60c-11.63.34-12.91-.77-18,12h-2c1.3-8.43-1.48-4.62-4.72-6.22-6.17-3.06-11.97-3.89-13.04,5.59-.39,3.4,3.7,4.34,3.77,4.63.16.66-.19,1.44,0,2,2.27,6.68-1.95,10.28,10.97,12.03l1.03-12.03h2c-.07,7.73,10.93,38.78,9.8,42.68-1.75,6.05-13.73,5.87-17.83,2.33-2.43-2.09-2.59-13.95-3.97-19.02-2.57-9.46-6.57-18.48-8.99-27.99-8.29,10.75-4.88,25.76-5.01,37.99-.04,4.07.98,13.45-.87,16.13-2.21,3.19-11.29,2.56-14.34.07-3.91-3.2-6.03-29.35-6.79-36.2,1.11-.24,3.65.36,4,0,3.24.97.66,7.67,3.12,8.12,15.57,2.84,8.83-12.05,11.78-22.21,2.77-9.54,20.03-22.75,19.18-36.83-9.41-15.61-17.44-32.55-31.08-45.04-15.21,15.15,9.3,24.95,18.39,36.6.99,1.27.37,3.03.61,3.36h-8c-5.15-5.46-11.24-10.06-15.98-16-1.36,23.52,14.15,26.72,27.98,39.98-9.27,2.43-13.64-5.67-21.99-5.97-1.97,12.85,1.78,8.01,7.02,11.9,12.33,9.16-5.23,3.96-8.1,3.95-4.44-.01-3.32,3.69-4.93,6.14-.37-.37-2.88.24-4,0,.69-7.16,5.92-15.05,6.06-20.92.18-7.69-4.99-22.78-6.06-33.08-.49-4.72-6.23-7.83-7.99-6s.06,11.24-.01,12c-.77,7.99-.86,27.41-2.41,32.59-1.02,3.42-12.55,14.31-15.58,11.42-1.55-10.57-3.88-16.65,3.05-25.98,10.47-14.1,6.9-13.55,12.52-29.44,3.67-10.37,14.63-28.12,23.75-34.25,25.93-17.43,67.27.19,79.31-10.2,1.42-1.22,7.99-22.27,10.81-27.59.57-1.07,6.36-9.2,8.55-8.54,4.06-.16,5.23,4.16,6,4.76,2.73,2.14,5.3,1.98,4.02-1.74-.62-1.79-7.99-3.07-10.01-5.02,0-2.53,8.93-15.24,11.15-17.93,1.52-1.84,4.57-1.75,4.85-2.07-.45.45.31,2.05,1,2,2.18-.15-.06-2.94-1-2,.44-.5.32-3.38,1.9-5.1,1.77-1.93,5.67-2.35,6.15-4.29,2.18-8.85-5.33-12.41,5.95-12.61.61,1.35,1.43,2.63,2,4-3.22-.45-4.36-.82-3.92,2.88.47,3.95,5.91,16.89,7.92,21.12h-2c-5.56-1.34-6.19,6.37-5.89,10.71.8,11.51,9.25,20.48,11.88,31.28-4.39,4.57-18.75-21.54-18.01-25.98-12.19,10.31,10.07,27.8,15.06,35.96,3.34,5.46-1.93,4.1-5.04,4.03v-3.99s-4.02,1-4.02,1c-.9,3.33,3.05,3.72,4.02,4.98,2.48,3.21,9.44,13.94,12,15.02,7.16,3.01,1.9-13.12,2.39-15.55.85-4.17,9.13-11.7,9.58-16.54.42-4.56-3.64-11.4-1.96-16.92,5.27-.89,3.54.85,4.56,4.32s2.76,18.95,3.45,19.67c6.65,6.97.33-21.54,9.97-17.99.6,6.06-3.79,16.46.53,21.55.92,1.09,2.84.16,3.48.44,1.6.69,2.65,3.2,5.99,1.99l-1.99-7.99c4.03-7.65,4.44-17.61,15.99-20.04l-.02-2.92c-5.2-3.05-9.63-14-14.01-16.16s-7.44,4-11.94,3.1l5.98-6.98-7.01-4.97-6.97,5.95c-.34-2.75.68-6.2.07-8.72s-3.29-.88-4.08-1.27c-.56-.28-.65-3.1-2.96-2.03l-1.03,1.04,1.99.98v7.99c-7.44,2.04-.84-7.56-4.19-9.81-.85-.57-7.21-.42-7.64,0-1.15,1.1,1.71,6.5-2.15,5.82-.12-4.11-.5-8.91-2.42-12.59-2.54-4.87-4.88-2.89-7.6-9.39,2.01.28,7.15,2.65,7.99,1.99v-3.99c2.58.33,5.42-.27,8.01,0,.67.07,1.79,1.58,3.03,1.44l.97-1.44c4.66,4.68,8.02,2.3,14,2h2c-.44,1.77-3.88,19.95,1.97,13.99,1.05-1.07,3.33-14.04,4.06-16.97-.67-2.88-3.35.81-4.03.97-1.04.24-2.33-.72-2-2ZM200.65,12.22v2c1.3-.67,1.3-1.33,0-2ZM160.65,28.22v2c1.3-.67,1.3-1.33,0-2ZM157.64,44.21c1.38-3.71-6.27-9.82-7.98-7.98-3.27,3.53,3.44,9.01,7.98,7.98ZM176.54,113.38c-10.19-15.98-18.02-33.12-23.89-51.15-10.65,15.63,5.96,27.88,10.98,41.98-6.98,7.27-28.41-51.9-23.89-11.61l36.9,41.58c3.69.21,3.49-14.17,3.13-17.06-.46-3.64-2.66-2.85-3.23-3.74ZM245.64,78.21v-7.98s-1.96,0-1.96,0l-2.02,7.97h3.98ZM223.66,88.19c3.9,3.69,19.83-1.88,19.95-4.97.1-2.67-5.6-3.38-8.52-2.58-1.65.45-10.2,5.41-11.43,7.56ZM81.57,90.31c-.43-.42-11.97-.76-11.95.94,6.24,17.68,12.39,35.85,12.02,54.96-5.54.96-3.37-1.15-4.51-4.38-5.69-16.21-10.62-33.14-15.5-49.62-1.28-1.13-11.1,2.88-13.2,3.84-1.26.58-4.19-.6-2.76,3.13,3.41,8.88,17.66,23.24,21.76,34.25,3.2,8.6,4.21,15.83,5.12,24.87l17.08,5.9c-2.42-12.77-.71-26.23-2.01-38.97-.44-4.35-4.8-33.69-6.06-34.94ZM111.65,92.22l-16,.02,9.35,19.63,6.65,24.35v-44ZM129.64,166.21c-2.35-13.8,1.63-28.51-.16-42.82-.55-4.4-3.37-12.5-4.91-17.09-1.29-3.84-3.62-11.9-6.9-14.07,3.12,24.76,1.24,49.21-.03,74l12-.02ZM93.63,108.21c.31-3.74.56-8.79-3.96-9.99-1.02,2.78,2.8,12.46,3.96,9.99ZM23.67,126.22c3.97-1.07,4.5-4.27,3.96-8-3.97,1.07-4.5,4.27-3.96,8ZM176.65,148.22v2c1.3-.67,1.3-1.33,0-2ZM81.64,166.25c-2.4-2.49-15.72-3.85-13.98,3.96,1.66.14,19.17,1.42,13.98-3.96ZM77.66,204.23h-10c1.84,8.23.61,21.11,11.98,17.98,1.88-8.56-3.71-4.56-7.98-9,5.89,1.15,8.29-6.6,6-8.98ZM45.33,216.52c-2.03-1.26-6.94.12-9.68-.29l2.11,11.87c9.33,4.03,12.56-8.49,7.57-11.58Z"/>
      <path class="cls-5" d="M177.65,164.22c.3.19-.87,5.56,4,4,.13,2.59,1.81,5.75,1.97,8.96.93,18.17.26,36.59,1.74,54.74-21.08,7.89-17.86-11.4-19.72-25.7h2c.05.24,2.39,1.97,3.09,3.89,2.16,5.9-1.9,9.61,6.9,8.1-4.12-9.85,2.06-10.41,2.1-11.1.42-6.38-2.74-13.93-10.09-10.91,4.29-6.21,10.3-1.1,8.02-11.97h-8.03c-2.11-12.04,11.16.63,8-14.01-4.6,3.48-11.86,1.08-12-4.98-.04-1.57,11.41-1.41,12.02-1.02Z"/>
      <path class="cls-6" d="M97.65,170.22l-3.98-60c12.4,15.47,13.38,37.42,17.99,55.99l-8.01,4.01c-2,.05-4-.06-6,0Z"/>
      <path class="cls-6" d="M65.65,214.22c-7.54-.19-6.93,10.03-14,10,.13-12.23-3.28-27.24,5.01-37.99,2.42,9.51,6.42,18.54,8.99,27.99Z"/>
      <path class="cls-5" d="M159.65,170.22c-2.08,12.72-1.19,21.76-2,34-.51,7.71-1.76,15.27-2,24-1.5.17-3.4-1.93-4-2v-11.99s-12,1.99-12,1.99c-.02-1.33.06-2.67,0-4,5.49.14,16.5-.9,10.55-7.93l-10.55-4.07c-.02-.67.02-1.33,0-2l13.99,1.99c.42-4.53-.53-9.57.01-13.99.06-.49,1.77-2.11,2-4,.46-3.79-.32-8.11,0-12,.46-.16,1.33,0,2,0h2Z"/>
      <path class="cls-6" d="M165.65,192.22c.49,4.45-.57,9.62,0,14l-8-2c.81-12.24-.08-21.28,2-34h2c-2.16,7.39,3.37,16.29,4,22Z"/>
      <path class="cls-5" d="M31.65,188.22c.21.21-.72,2.72,1.42,3.97,2.87,1.68,10.42.94,12.56,5.06,3.17,6.12-11.15,2.82-11.66,3.26-.88.77-.01,3.39-.33,3.71-.35.36-2.89-.24-4,0-.6-5.38-2.68-8.95-2-16,1.12.24,3.63-.37,4,0Z"/>
      <path class="cls-5" d="M19.65,140.22c.07-.76-1.8-10.12.01-12s7.5,1.28,7.99,6c-4.75-1.24-4.19,4.37-8,6Z"/>
      <path class="cls-5" d="M79.65,182.22c-.4,1.01-2,5.68-2,6h-14c-.19-.56.16-1.34,0-2l14-4h2Z"/>
      <path class="cls-6" d="M179.65,6.22v3.99c-.85.66-5.99-1.71-8-1.99,2.72,6.5,5.06,4.53,7.6,9.39,1.92,3.68,2.3,8.48,2.42,12.59,3.86.69,1-4.71,2.15-5.82.43-.41,6.79-.56,7.64,0,3.35,2.25-3.25,11.85,4.18,9.81v-7.99h2.01c.79.39,3.49-1.19,4.08,1.27s-.41,5.97-.07,8.72l6.97-5.95,7.01,4.97-5.98,6.98c4.5.9,7.41-5.33,11.94-3.1s8.81,13.11,14.01,16.16l.02,2.92c-11.55,2.43-11.95,12.39-15.99,20.04-.48.91-4.92,2.25-4,6-.64-.28-2.56.65-3.48-.44-4.31-5.09.07-15.49-.53-21.55-9.63-3.55-3.32,24.96-9.97,17.99-.69-.72-2.39-16.11-3.45-19.67s.7-5.21-4.56-4.32c-1.68,5.52,2.38,12.36,1.96,16.92-.45,4.84-8.73,12.37-9.58,16.54-.49,2.43,4.77,18.56-2.39,15.55-2.57-1.08-9.52-11.81-12-15.02v-2c3.11.07,8.37,1.43,5.04-4.03-4.99-8.17-27.25-25.65-15.06-35.96-.73,4.45,13.62,30.55,18.01,25.98-2.63-10.79-11.08-19.76-11.88-31.28-.3-4.35.33-12.05,5.89-10.71.73,13.38,2.51,27.22,11,38.02-.43-9.2-1.35-27.35-4.63-35.32-1.6-3.9-4.26-2.46-4.37-2.7-2.01-4.23-7.45-17.16-7.92-21.12-.44-3.7.7-3.33,3.92-2.88-.57-1.37-1.39-2.65-2-4,5.55-.1,7.24,1.64,10,2ZM203.64,44.23c-3.17-3.17-9.15,2.81-5.98,5.98s9.15-2.81,5.98-5.98ZM179.66,78.19c.3.3,6.59,3.14,7.94,3.05-.77-4.19-11-6.17-7.94-3.05ZM180.65,88.22v2c1.3-.67,1.3-1.33,0-2Z"/>
      <path class="cls-6" d="M187.65,6.22c2.27-11.61,3.61-.39,4,0l-.97,1.44c-1.24.14-2.36-1.37-3.03-1.44Z"/>
      <path class="cls-5" d="M209.65,6.22c0,1.19-1.96,1.83-2,2h-2c-.18-1.91,1.26-2.8,2-4-.33,1.28.96,2.24,2,2Z"/>
      <path class="cls-5" d="M131.65,172.22l-2-2,2,2Z"/>
      <path class="cls-3" d="M139.65,46.22c2.02,1.95,9.39,3.23,10.01,5.02,1.28,3.71-1.28,3.87-4.02,1.74-.77-.6-1.94-4.92-6-4.76v-2Z"/>
      <path class="cls-6" d="M81.57,90.31c1.26,1.24,5.62,30.58,6.06,34.94,1.3,12.74-.41,26.2,2.01,38.97l-17.08-5.9c-.91-9.04-1.92-16.27-5.12-24.87-4.1-11.01-18.35-25.37-21.76-34.25-1.43-3.73,1.5-2.55,2.76-3.13,2.09-.96,11.91-4.97,13.2-3.84,4.88,16.48,9.81,33.41,15.5,49.62,1.14,3.23-1.04,5.34,4.51,4.38.37-19.11-5.78-37.28-12.02-54.96-.03-1.7,11.52-1.36,11.95-.94Z"/>
      <path class="cls-6" d="M137.65,172.22c-.79-2.85-3.73-5.39-3.92-9.09-.27-5.3,3.65-12.65,1.94-18.91,5.96,2.58,3.88,11.76,11.94,11.02-5.9-20.5-12.78-40.33-19.58-60.42-1.08-3.19-4.14-3.16.65-6.59l27.94,40.02c3.08,2.91,5.84,6.21,9.12,8.9,6.6,5.41,10.88-.09,5.9,15.07,6.45-.85,5.67,7.04,6,12-.61-.39-12.06-.55-12.02,1.02.14,6.06,7.4,8.46,12,4.98,3.16,14.63-10.11,1.96-8,13.99h8.03c2.29,10.89-3.73,5.77-8.02,11.99,7.35-3.02,10.52,4.53,10.09,10.91-.05.68-6.22,1.24-2.1,11.1-8.8,1.52-4.74-2.2-6.9-8.1-.7-1.92-3.05-3.65-3.09-3.89-.77-4.11.72-9.82,0-14-1.34-7.78-1.36-17.79-6-24h-2c.47-2.74.09-5.54,2-8,6.76-1.01,8.03-2.01,10-8-3.85.51-4.96,2.47-7.98,4,1.45-4.82-3.27-6.65-4.02-8-.8-1.43-.76-4.23-2.25-6.65-2.01-3.26-11.47-18.62-15.75-15.33,2.92,7.75,7.53,14.59,10.96,22.12,1.34,2.93-.41,7.08,5.04,5.86.2,2.14,2.01,5.07,2,6,0,.32-1.78,2.86-2,6-1.52-.15-3.33,1.9-4,2-5.82.9-10.14.34-16,4Z"/>
      <path class="cls-6" d="M176.54,113.38c.57.9,2.77.1,3.23,3.74.36,2.89.56,17.27-3.13,17.06l-36.9-41.58c-4.53-40.3,16.9,18.88,23.89,11.61-5.02-14.1-21.63-26.35-10.98-41.98,5.87,18.02,13.7,35.17,23.89,51.15ZM164.65,106.22v2c1.3-.67,1.3-1.33,0-2Z"/>
      <path class="cls-6" d="M55.65,148.22c-.24-.33.38-2.09-.61-3.36-9.09-11.65-33.6-21.45-18.39-36.6,13.65,12.48,21.67,29.42,31.08,45.04.86,14.08-16.4,27.29-19.18,36.83-2.95,10.16,3.78,25.05-11.78,22.21-2.46-.45.11-7.15-3.12-8.12.31-.32-.55-2.95.33-3.71.5-.44,14.83,2.86,11.66-3.26-2.13-4.12-9.68-3.38-12.56-5.06-2.14-1.25-1.21-3.76-1.42-3.97,1.6-2.45.49-6.15,4.93-6.14,2.87,0,20.43,5.2,8.1-3.95-5.24-3.89-8.99.96-7.02-11.9,8.35.3,12.72,8.4,21.99,5.97-13.83-13.26-29.34-16.45-27.98-39.98,4.74,5.94,10.83,10.54,15.98,16,3.98,4.22,7.92,9.08,11.02,14.01,4.75,1.21,3.41-6.48,2.92-8.58-.2-.87-4.38-3.3-5.94-5.43Z"/>
      <path class="cls-6" d="M129.64,166.21l-12,.02c1.27-24.79,3.15-49.24.03-74,3.28,2.17,5.62,10.23,6.9,14.07,1.54,4.59,4.36,12.69,4.91,17.09,1.79,14.31-2.19,29.02.16,42.82Z"/>
      <polygon class="cls-6" points="111.65 92.22 111.65 136.22 105 111.87 95.65 92.24 111.65 92.22"/>
      <path class="cls-5" d="M175.65,32.22c.11.23,2.76-1.2,4.37,2.7,3.28,7.97,4.2,26.13,4.63,35.32-8.49-10.8-10.27-24.64-11-38.02h2Z"/>
      <path class="cls-6" d="M149.65,186.22c1.3-.16,2.69.11,4,0-.54,4.42.4,9.47-.01,13.99l-13.99-1.99c-.06-1.6-3.67-4.61-1.17-8.08,1.34-1.86,8.5-3.59,11.17-3.92Z"/>
      <path class="cls-6" d="M63.65,186.22c-.07-.29-4.15-1.23-3.77-4.63,1.08-9.48,6.87-8.65,13.04-5.59,3.24,1.61,6.02-2.21,4.72,6.22l-14,4Z"/>
      <path class="cls-6" d="M77.66,204.23c2.29,2.38-.1,10.13-6,8.98,4.27,4.44,9.86.44,7.98,9-11.38,3.13-10.14-9.75-11.98-17.98h10Z"/>
      <path class="cls-6" d="M139.65,216.22l11.99-1.99v11.99c-2.61-.3-11.47.54-12,.01-.36-.35.05-7.86.01-10.01Z"/>
      <path class="cls-6" d="M155.65,182.22h-6c-3.99,0-8.01.02-12-.02-.54-.37,2.18-4.19,2-5.98,7.34,2.69,11.47-4.84,14-6,.52-.24,1.37.21,2,0-.32,3.89.46,8.21,0,12Z"/>
      <path class="cls-6" d="M75.65,188.22l-1.03,12.03c-12.92-1.75-8.7-5.35-10.97-12.03h12Z"/>
      <path class="cls-6" d="M45.33,216.52c5,3.09,1.77,15.61-7.57,11.58l-2.11-11.87c2.74.4,7.65-.97,9.68.29Z"/>
      <path class="cls-5" d="M223.66,88.19c1.23-2.14,9.78-7.1,11.43-7.56,2.92-.8,8.62-.09,8.52,2.58-.12,3.1-16.04,8.66-19.95,4.97Z"/>
      <path class="cls-6" d="M139.65,200.22l10.55,4.07c5.95,7.04-5.06,8.07-10.55,7.93-.18-3.98.12-8.01,0-12Z"/>
      <path class="cls-5" d="M55.65,148.22c1.56,2.13,5.74,4.57,5.94,5.43.49,2.1,1.83,9.8-2.92,8.58-3.1-4.93-7.04-9.79-11.02-14.01h8Z"/>
      <path class="cls-5" d="M153.65,168.22v2c-2.53,1.16-6.66,8.69-14,6-.02-.22-1.5-2.2-2-4,5.86-3.66,10.18-3.1,16-4Z"/>
      <path class="cls-3" d="M209.65,6.22c.68-.16,3.36-3.85,4.03-.97-.73,2.92-3.01,15.9-4.06,16.97-5.85,5.95-2.41-12.22-1.97-13.99.04-.17,1.99-.81,2-2Z"/>
      <path class="cls-6" d="M81.64,166.25c5.19,5.38-12.32,4.1-13.98,3.96-1.74-7.81,11.58-6.45,13.98-3.96Z"/>
      <path class="cls-3" d="M157.64,44.21c-4.54,1.03-11.25-4.45-7.98-7.98,1.71-1.84,9.35,4.27,7.98,7.98Z"/>
      <path class="cls-5" d="M219.65,78.22l1.99,7.99c-3.34,1.21-4.39-1.3-5.99-1.99-.92-3.75,3.52-5.09,4-6Z"/>
      <path class="cls-3" d="M93.63,108.21c-1.16,2.47-4.98-7.21-3.96-9.99,4.52,1.2,4.27,6.25,3.96,9.99Z"/>
      <path class="cls-1" d="M155.65,182.22c-.23,1.89-1.94,3.51-2,4-1.31.11-2.7-.16-4,0v-4h6Z"/>
      <path class="cls-3" d="M23.67,126.22c-.54-3.73-.02-6.93,3.96-8,.54,3.73.02,6.93-3.96,8Z"/>
      <polygon class="cls-5" points="245.64 78.21 241.66 78.21 243.67 70.23 245.63 70.23 245.64 78.21"/>
      <path class="cls-3" d="M171.65,90.22c-.97-1.26-4.92-1.65-4.02-4.98l4.01-1v3.99s.01,2,.01,2Z"/>
      <path class="cls-5" d="M197.65,26.22h-2l-1.99-.98,1.03-1.04c2.32-1.07,2.4,1.75,2.96,2.03Z"/>
      <path class="cls-5" d="M176.65,148.22c1.3.67,1.3,1.33,0,2v-2Z"/>
      <path class="cls-3" d="M160.65,28.22c1.3.67,1.3,1.33,0,2v-2Z"/>
      <path class="cls-3" d="M155.65,26.22c.94-.94,3.18,1.85,1,2-.69.05-1.45-1.55-1-2Z"/>
      <path class="cls-5" d="M200.65,12.22c1.3.67,1.3,1.33,0,2v-2Z"/>
      <path class="cls-2" d="M167.65,206.22h-2c-.57-4.38.49-9.55,0-14h2c.72,4.18-.77,9.89,0,14Z"/>
      <path class="cls-2" d="M161.65,160.22c-1.91,2.46-1.53,5.26-2,8-.11.65.11,1.35,0,2h-2c.06-1.33-.09-2.68,0-4,.22-3.14,2-5.68,2-6h2Z"/>
      <path class="cls-4" d="M157.65,166.22c-.09,1.32.06,2.67,0,4-.67,0-1.54-.16-2,0-.63.21-1.48-.24-2,0v-2c.67-.1,2.48-2.15,4-2Z"/>
      <path class="cls-5" d="M167.65,192.22h-2c-.63-5.71-6.16-14.61-4-22v-2c4.64,6.21,4.66,16.22,6,24Z"/>
      <path class="cls-3" d="M161.65,170.22h-2c.11-.65-.11-1.35,0-2h2v2Z"/>
      <path class="cls-2" d="M203.64,44.23c3.17,3.17-2.81,9.15-5.98,5.98s2.81-9.15,5.98-5.98Z"/>
      <path class="cls-2" d="M179.66,78.19c-3.06-3.13,7.18-1.15,7.94,3.05-1.35.1-7.65-2.74-7.94-3.05Z"/>
      <path class="cls-2" d="M180.65,88.22c1.3.67,1.3,1.33,0,2v-2Z"/>
      <path class="cls-4" d="M157.65,154.22c-5.45,1.21-3.7-2.93-5.04-5.86-3.44-7.53-8.04-14.37-10.96-22.12,4.28-3.3,13.74,12.07,15.75,15.33,1.49,2.42,1.45,5.22,2.25,6.65-2.44.75-2.19,3.94-2,6Z"/>
      <path class="cls-5" d="M159.65,148.22c.75,1.35,5.47,3.17,4.02,8,3.02-1.53,4.13-3.49,7.98-4-1.97,5.99-3.24,6.99-10,8h-2c0-.93-1.8-3.86-2-6-.19-2.06-.44-5.25,2-6Z"/>
      <path class="cls-2" d="M164.65,106.22c1.3.67,1.3,1.33,0,2v-2Z"/>
    </g>
  </g>
</svg>