<?xml version="1.0" encoding="UTF-8"?>
<svg id="Calque_2" data-name="Calque 2" xmlns="http://www.w3.org/2000/svg" viewBox="0 0 194.56 176.6">
  <defs>
    <style>
      .cls-1 {
        fill: #978497;
      }

      .cls-2 {
        fill: #fcf3ea;
      }
    </style>
  </defs>
  <g id="Calque_1-2" data-name="Calque 1">
    <g>
      <path class="cls-1" d="M91.2,93.1c-2.77,2.65-4.8,6.17-8.72,8.22,11.3,13.07,25.86,16.71,42.74,15.13,4.48-17.39,14.46-44.9,33.19-51.15,23.13-7.72,37.74,7.92,25.68,29.66-9.9,17.84-26.67,23.78-43.69,32.49,2.33,13.59,4.06,21.82,15.11,30.89,13.33,10.95,21.01,4.29,35.73.07,9.97,8.88-4.84,17.08-13.76,17.97-26.32,2.64-50.91-19.5-49.01-46.08-21.33,1.73-40.82-5.63-54.98-21.51-16.86,10.38-38.17,30.09-58.15,33.4-9.1,1.51-20.34,2.06-12.91-8.9,24.42-5.97,42.64-21.9,63.15-34.99-2.35-12.62-5.85-21.69-5.2-35.08C61.72,35.15,82.54-4.72,115.32.46c6.69,1.06,15.15,6.35,16.69,13.29,7.17,32.2-20,59.41-40.82,79.35ZM91.74,75.62c7.59-7.88,25.35-31.28,27.77-41.23,6.64-27.38-9.72-27.95-27.5-13.97-19.56,15.38-22.62,44.77-17.55,67.9,1.33,1.46,15.9-11.25,17.29-12.69ZM140.46,112.31c11.98-2.59,34.75-18.12,34.19-30.97-.45-10.39-7.12-7.01-13.6-3.41-13.23,7.35-16.57,20.97-20.59,34.38Z"/>
      <path class="cls-2" d="M140.46,112.31c4.02-13.41,7.36-27.03,20.59-34.38,6.48-3.6,13.15-6.98,13.6,3.41.56,12.85-22.21,28.39-34.19,30.97Z"/>
    </g>
  </g>
</svg>