<?xml version="1.0" encoding="UTF-8"?>
<svg id="Calque_2" data-name="Calque 2" xmlns="http://www.w3.org/2000/svg" viewBox="0 0 101.06 128.88">
  <defs>
    <style>
      .cls-1 {
        fill: #978497;
      }

      .cls-2 {
        fill: #596b79;
      }
    </style>
  </defs>
  <g id="Calque_1-2" data-name="Calque 1">
    <g>
      <path class="cls-2" d="M40.92.34l-5.99,7.98c7.19-3.1,10.83,2.76,17.98,2l-7.98-1.99c-1.07-4.12,1.93-3.74,1.99-3.99,4.46-.48,6.45-.48,10,2l-2,3.98,4,.02c1.87.93,6.48-.23,11.91,3.09,18.05,11.04,32.56,53.23,29.91,73.74-1.19,9.22-12.46,32.77-20.39,37.78-13.36,8.45-20.57,2.67-15.9-11.92,4.75-14.85,13.97-18.72,13.66-37.89-.47-28.98-15.66-45.96-43.19-52.8.67-5.78-.56-3.36-4-4-.93-4.92,2.55-6.97-6-6.01l2-9.99C31.01-.71,35.79-.04,40.92.34ZM35.92,10.34v2c1.3-.67,1.3-1.33,0-2Z"/>
      <path class="cls-2" d="M3.56,58.97c2.16-2.68,19.3-14.22,22.53-14.67s15.79,5.11,18.72,7.15c9.56,6.65,10.76,27.81,5,36.78-6.05,9.42-29.44,13.37-38.87,9.09C.77,92.69-3.67,67.95,3.56,58.97Z"/>
      <path class="cls-1" d="M26.92,2.34l-2,9.99c8.55-.96,5.07,1.09,6,6.01,3.44.64,4.67-1.78,4,4-1.15-.29-3.55.44-3.99,0-.4-.4.22-2.8,0-3.99-2.07-.38-4.66,1.42-6.07-1.3-2.45-4.69-2.5-11.29,2.07-14.7Z"/>
      <path class="cls-1" d="M40.92.34c1.77.13,3.98-.8,5.51.52.56,1.03.75,2.35.49,3.48-.06.25-3.06-.13-1.99,3.99l7.98,1.99c-7.15.76-10.79-5.1-17.98-2L40.92.34Z"/>
      <path class="cls-1" d="M58.92,10.34l-4-.02,2-3.98c2.32,1.62,1.8,3.9,2,4Z"/>
      <path class="cls-1" d="M35.92,10.34c1.3.67,1.3,1.33,0,2v-2Z"/>
    </g>
  </g>
</svg>