<?xml version="1.0" encoding="UTF-8"?>
<svg id="Calque_2" data-name="Calque 2" xmlns="http://www.w3.org/2000/svg" viewBox="0 0 132.25 162.63">
  <defs>
    <style>
      .cls-1 {
        fill: #4f4647;
      }

      .cls-2 {
        fill: #939daf;
      }

      .cls-3 {
        fill: #926651;
      }

      .cls-4 {
        fill: #b07734;
      }

      .cls-5 {
        fill: #f3c954;
      }

      .cls-6 {
        fill: #95994f;
      }

      .cls-7 {
        fill: #eba749;
      }

      .cls-8 {
        fill: #fcf3ea;
      }
    </style>
  </defs>
  <g id="Calque_1-2" data-name="Calque 1">
    <g>
      <path class="cls-3" d="M78.1,34.21c1.37,1.61,4.61,7.66,8,10,.32,11.51-8.12,25.64-9.61,35.47-.46,3.04,1.7,5.6,1.64,7.39-.04,1.28-3.85,1.38-4.09,2.13-2.09,6.71,4.29,3.51,4.04,6.98l-5.98,3.05,5.99,6.96-8.02.03c-1.82,7.18,3.44,5.3,6.02,9.97l-6.14,1.1c5.47,24.63-21.23,28.33-37.82,35.92,2.92,4.48,4.16,2.05,7.6,1.67,12.73-1.41,25.56-5.99,36.34-12.67.64,3.42,1.44,13.41,3.9,15.11,1.77,1.23,11.63,1.37,12.11.88.36-.38-.29-6.03.48-8.47,2.58-8.2,12.06-24.99-.51-30.49-3.73-1.63-9.72.6-9.95-3.02,3.62.5,8.73-.78,11.99-.02,9.42,2.19,8.62,20.41,6,28-.12.34-3.03.75-1.99,3.99,1.22.29,3.23-.37,3.99,0,4.5,2.23,8.3,6.59,13.99,6.01-1.73-9.39,5.86-14.58,7.53-23.51.82-4.37.23-8.31.48-12.49,10.73,7.82-1.58,22.39-.14,28.66.31,1.36,9.97,4.73,6.14,13.34-5.8,1.11-11.66-2.38-17.07-2.22-3.75.11-1.87,3.89-5.79,4.38-4.73.6-31.18.3-32.86-2.43-1.27-2.06.16-6.98-.29-9.72-7.94.25-13.69,5.74-21.47,7.52-8.02,1.84-50.67,3.19-52.52-4.55s18.2-4.55,22.75-5.21c7.02-1.03,16.1-2.96,22.8-5.2,27.89-9.33,17.77-15.46,21-39,2.47-18.02,8.84-37.12,13.43-54.78.04-1.09-7.29-18.03-7.98-18.77h2c1.51,1.15,2.77,2.57,4,4ZM30.09,150.22c-2.76-.62-5.32,1.08-5.99,3.97h5.99s0-3.97,0-3.97ZM126.09,152.22h-7.98s0,1.97,0,1.97l7.97,2.02v-3.99Z"/>
      <path class="cls-4" d="M122.1,38.21c-13.98,13.99,5.48,32.83,6.05,51.11.31,9.87-4.68,13.9-5.45,20.2-.33,2.72,1.56,5.93,1.4,8.69-.25,4.19.33,8.12-.48,12.49-1.67,8.94-9.26,14.12-7.53,23.51-5.7.58-9.5-3.78-13.99-6.01v-2c9.78-5.71,16.84-21.67,14.04-32.61-.59-2.31-5.73-1.61-6.19-6.38-.53-5.51,5.29-11.28,6.15-15.01,2.82-1.68,3.23-6.92,0-8,.62-4.4,2.23-10.98,1.95-14.78-.89-12.06-11.71-23.36,4.05-33.22v2Z"/>
      <path class="cls-3" d="M122.1,12.21c-.99.21-1.64,1.09-2,2-1.66-2.55-6.75-3.07-8-4-.23-.17,1.06-2.8-1.19-4.19-7.48-4.63-22.71-2.27-28.81,4.19-4,4.23-3.43,8.84-8,8,.11-1.31-.22-2.82,0-4,3.25-17.14,41.52-19.93,48-2Z"/>
      <path class="cls-1" d="M120.1,16.21c-.35,3.94.24,8.04,0,12-4.81,1.23-9.92-1.81-14-2,.12,1.59-.36,5.55,0,6-2.7,3.12-6.92-.13-8,0-2.62-.96-1.9-3.81-2-6,3.3-.09,6.71-.15,10,0-.25-3.3.17-6.69,0-10,4.48-.76,7.33-4.51,14,0Z"/>
      <path class="cls-1" d="M130.1,26.21c-.72.61-1.43,1.24-2,2-3.19,4.27-1.13,7.99-2.36,9.72-.71,1-3.38.01-3.64.28v-2c.12-2.65-.18-5.36,0-8,.19-2.82,5.22-7.11-2-12,.06-.71-.18-1.54,0-2,.36-.91,1.01-1.79,2-2,10.75-2.26,12.12,5.66,8,14Z"/>
      <path class="cls-1" d="M74.1,14.21c-.22,1.18.11,2.69,0,4-.32,3.95.22,8.03,0,12h-2c-.35-.37-4.21-.23-6.15-2.79-5.09-6.72.25-14,8.15-13.21Z"/>
      <path class="cls-2" d="M128.1,28.21c.57-.76,1.28-1.39,2-2-.38.77-1.35,1.39-2,2Z"/>
      <path class="cls-7" d="M96.1,74.21c0,.37-1.86,1.67-1.98,3.26-.78,10.22,12.14,15.8,9.97,26.73-10.33-2.27-14.43-14.13-19.52-21.38-1.24-1.77-1.16-5.84-4.5-1.58,2.56,10.86,10.67,13.38,16.03,22.97-3.55,2.22-1.67,8.23-2,12-3.26-.76-8.37.52-11.99.02.24,3.62,6.22,1.38,9.95,3.02,12.56,5.5,3.08,22.29.51,30.49-.77,2.44-.12,8.09-.48,8.47-.47.5-10.34.35-12.11-.88-2.46-1.7-3.26-11.69-3.9-15.11-10.78,6.68-23.61,11.26-36.34,12.67-3.44.38-4.68,2.8-7.6-1.67,16.59-7.59,43.29-11.28,37.82-35.92l6.14-1.1c-2.58-4.67-7.83-2.8-6.02-9.97l8.02-.03-5.99-6.96,5.98-3.05c.26-3.47-6.13-.27-4.04-6.98.23-.74,4.05-.85,4.09-2.13.06-1.79-2.1-4.35-1.64-7.39,1.48-9.83,9.92-23.96,9.61-35.47.58.4,3.93-.5,5.96.96,5.24,3.78,4.2,22.51,4.04,29.04Z"/>
      <path class="cls-8" d="M100.1,12.21c-1.02,4.73,1.41,4.78,6,4,.17,3.31-.25,6.7,0,10-3.29-.15-6.7-.09-10,0,.1,2.19-.62,5.04,2,6-1.15.14-5.63,3.27-3.99,5.99,1.23.94,14.85-.8,15.98-2.02,4.02-4.33-3.77-3.69-3.99-3.97-.36-.45.12-4.41,0-6,4.08.19,9.19,3.23,14,2h2c-.18,2.64.12,5.35,0,8-15.77,9.86-4.95,21.16-4.05,33.22.28,3.8-1.33,10.38-1.95,14.78-.35,2.48.51,5.79,0,8-.87,3.74-6.68,9.5-6.15,15.01.46,4.77,5.6,4.07,6.19,6.38,2.8,10.94-4.26,26.9-14.04,32.61l-2-2c2.62-7.59,3.42-25.81-6-28,.33-3.77-1.55-9.78,2-12,3.41,6.09,1.73,7.02,12,6.01,3.69-15.4-9.35-22.64-12-36.01.16-6.53,1.2-25.26-4.04-29.04-2.03-1.46-5.37-.56-5.96-.96-3.39-2.34-6.63-8.39-8-10,4.09-1.06,9.22-.78,8-6,3.61-.18,7.27-1.93,10-2-.15-3.31,0-6.68,0-10v-4c1.32.08,2.67-.04,4,0Z"/>
      <path class="cls-5" d="M96.1,12.21v4c-10.47-5.34-17.29,1.02-16,11.99,1.99,0,4.01.11,6,0,1.22,5.22-3.91,4.94-8,6-1.23-1.43-2.49-2.85-4-4,.22-3.97-.32-8.05,0-12,4.57.84,4-3.77,8-8,4.83-2.06,11.65,1.85,14,2Z"/>
      <polygon class="cls-4" points="126.09 152.22 126.08 156.21 118.11 154.19 118.11 152.23 126.09 152.22"/>
      <path class="cls-7" d="M30.09,150.22v3.98s-5.99,0-5.99,0c.67-2.89,3.23-4.59,5.99-3.97Z"/>
      <path class="cls-7" d="M102.1,146.21v2c-.76-.38-2.77.28-3.99,0-1.03-3.24,1.88-3.65,1.99-3.99l2,2Z"/>
      <path class="cls-3" d="M116.1,92.21c.51-2.21-.35-5.52,0-8,3.23,1.08,2.82,6.32,0,8Z"/>
      <path class="cls-4" d="M82.1,10.21c6.11-6.46,21.34-8.82,28.81-4.19,2.24,1.39.96,4.02,1.19,4.19-4.07-.06-7.96,2.11-12,2-1.33-.04-2.68.08-4,0-2.35-.15-9.17-4.06-14-2Z"/>
      <path class="cls-5" d="M112.1,10.21c1.25.93,6.34,1.45,8,4-.18.46.06,1.29,0,2-6.67-4.51-9.52-.76-14,0s-7.02.73-6-4c4.04.11,7.93-2.06,12-2Z"/>
      <path class="cls-5" d="M122.1,28.21h-2c.24-3.96-.35-8.06,0-12,7.22,4.89,2.19,9.18,2,12Z"/>
      <path class="cls-4" d="M96.1,74.21c2.65,13.37,15.69,20.61,12,36.01-10.27,1.01-8.59.08-12-6.01-5.36-9.59-13.48-12.11-16.03-22.97,3.34-4.26,3.26-.19,4.5,1.58,5.09,7.25,9.19,19.11,19.52,21.38,2.17-10.93-10.75-16.51-9.97-26.73.12-1.59,1.97-2.89,1.98-3.26Z"/>
      <path class="cls-3" d="M96.1,16.21c0,3.32-.15,6.69,0,10-2.73.07-6.39,1.82-10,2-1.99.1-4.01-.02-6,0-1.29-10.97,5.53-17.33,16-11.99Z"/>
      <path class="cls-6" d="M106.1,32.21c.22.28,8.01-.36,3.99,3.97-1.13,1.22-14.76,2.96-15.98,2.02-1.64-2.72,2.84-5.85,3.99-5.99,1.08-.13,5.3,3.12,8,0Z"/>
    </g>
  </g>
</svg>