<?xml version="1.0" encoding="UTF-8"?>
<svg id="Calque_2" data-name="Calque 2" xmlns="http://www.w3.org/2000/svg" viewBox="0 0 270.93 214.48">
  <defs>
    <style>
      .cls-1 {
        fill: #4f4647;
      }

      .cls-2 {
        fill: #939daf;
      }

      .cls-3 {
        fill: #926651;
      }

      .cls-4 {
        fill: #b07734;
      }

      .cls-5 {
        fill: #f3c954;
      }

      .cls-6 {
        fill: #95994f;
      }

      .cls-7 {
        fill: #eba749;
      }

      .cls-8 {
        fill: #fcf3ea;
      }
    </style>
  </defs>
  <g id="Calque_1-2" data-name="Calque 1">
    <g>
      <path class="cls-4" d="M180.22,8.15c2.14-1.24,3.2-4.03,7.12-4.08s5.41,2.52,8.31,3.39c1.63.49,4.36-1.48,4.53-1.31,1.58,1.5-1.32,13.48,8.93,10.13,2.07-.67-.06-10.53,9.92-8.17,1.31.31,1.15,4.12,2.32,4.14,2.07.04,5.16-2.57,7.59-2.27.73.09,2.87,6.06,11.29,8.18,1.69.42,4.32-.43,6,0,.79,2.45,1.61,13.42,2.13,13.89,2.25,2.03,7.83-4.77,9.65,7.27,1.05,6.95,2.19,11.63-5.77,11.83l13.98,6.02c-5.18,1.94-7,7.78-7.99,12.99-.9,4.73,1.52,3.49,2,6,.07.35-1.77-.18,0,6v2.73s-4.01,2.23-4.01,2.23l4.01,9.04c-.87,1.01-2.6,6.32-6,8-4.6,2.27-7.37-4.87-4,8-3.03,3.45-.66,8.29-11.99,6.01,4.91,12.9-.87,10.09-7.34,14.69-1.56,1.11-1.85,4.06-4.66,5.29-.82.36-2.8-.28-4,0-7.71,1.79-18.35-1.79-18,6,.2,4.57,3.03,17.85,4,24,.69,4.38.47,10.64,2.41,14.66s3.92,2.41,5.59,3.34c.7.39,1.26,1.61,2,2v10c-.62.52-1.16,1.32-2,2-7.56,3.93-13.18.74-20,0-6.32-13.25-13.11-24.27-14-40,9.52,9.08,6.73,27.05,17.87,35.13,6.28,4.55,15.05,4.87,13.52-4.25-.35-2.07-5.13-2.81-6.96-6.31-3.45-6.6-3.39-33.53-6.34-35.66-4.42-3.2-14.48,6.2-18.09,9.1-2.52,2.02-5.67.53-7.13,5.82-1.66,6.03-1.95,23.57,1.06,28.75.28.47,7.54,7.32,8.08,7.43.23,1.23-.34,3.04,0,4l-2,4c-1.35.69-1.33,1.21-2,2-3.23,1.24-6.65,1.38-10,2-1.21.22-2.71-.15-4,0l-4-2c-.96-.97-4.39-1.35-5.9-3.02-6.41-7.05-7.56-31.02-10.11-40.99-15.63,4.74-30.21-.78-45.83-1.85-.83.58-4.34,17.42-4.16,19.86.51,6.63,19.49,18.74-.95,20.15-13.02.9-17.26-2.43-18.89-15.33-.59-4.67,2.07-23.7-4.12-21.8-7.96,2.44-9.98,20.67-8.06,27.56.34,1.21,7.67,5.43,8.01,9.43,0,1.33,0,2.67,0,4-2.92.03-5.13,1.13-6,4-1.31.11-2.68,0-4,0-2.67,0-5.33,0-8,0-2.63-2.12-6.26-2.09-8.91-6.1-9.91-14.98-2.57-33.85-2.92-48.89-.21-9.35-6.73-18.62-4.18-29.01C18.23,132.39.58,125.92.05,103.15c-.15-6.33-.37-12.3,6.17-13,2.55-.27,5.65.44,8,0-9.77,16-2.12,30.18,17.04,28.05,14.56-1.62,16.15-17.26,28.93-23.07,17.35-7.89,41.55-4.47,58.03-12.97.88-.45,3.37.46,4,0,2.92-.8,3.83-3.13,4-6,1.81-1.73,1.84-3.85,2-4,.66-.64,6.08-.3,6-3.98l-6-2.02c.61-1.65.47-3.35,1.87-5.04,3.34-4.01,8.93-3.55,8.12-8.95-4.22-.88-8.26,1.64-11.99,1.99,4.61-10.33,5.11-6.6,8.87-12.13,2.03-2.99,2.13-10.66,5.73-13.27,3.2-2.32,12.11-1.23,13.4-4.6.5-1.31-.35-4.26,0-6,.66-.02,1.35.07,2,0,5.01-.52,8.25-1.4,12-2,5.45-.87,6.5.2,10,0s1.73-5.37,2-8ZM218.19,28.14c.3-.28,2.28-7.36,2.01-7.98-3.05-.48-2.64,5.05-5.97,7-.26,1.72,3.78,1.15,3.96.98ZM231.95,32.43c-9.85-7.25-17,7.96-21.56,8.88-4.83.97-13.67-1.94-21-.98-8.2,1.07-19.27,10.45-25.97,5.64-2.44-1.75-6.29-11.61-12.34-1.83-3.77,6.09,8.47,14.23,9.2,19.1,1.07,7.15-2.01,15.44.54,25.31,3.19,12.33,11.88,16.12,15.28,26.69,9.29-2.1,17.39,3.06,26.15,2.09,30.15-3.33,40.6-27.03,29.94-54.17-.2-2.73,4.96,4.05,3.93-1.92-1.87-10.81-10.95-5.43-11.91-15.08,9.3.75,8.92-6.16,7.73-13.73ZM253.22,84.15v2c1.3-.67,1.3-1.33,0-2ZM124.21,88.15c-37.41,8.75-86.31-.09-79.82,54.83.65,5.46,4.06,9.83,4.02,16.18-.08,13.73-6.64,17.81-1.27,37.06s20.8,13.01,18.89,5.1c-.51-2.12-4.33-2.48-5.17-3.78-2.77-4.28-1.33-20.66.24-25.52,2.2-6.83,7.69-5.58,10.53-8.49,5.62-5.75,10.42-13.38,11.62-21.41,8.23.87,2.27,7.53,3.13,10.76,2.01,7.45,51.49,10.8,59.86,9.27l.98-10c6.7,9.79,4.98,50.23,16.4,53.6,3.32.98,7.18.31,10.62.39,3.92-8.28-6.01-12.37-6.08-13.17-.13-1.47,2.03-5,2.08-7.83.11-6.15-1.62-25.07,1.97-28.03,3.4-2.8,13.33-1.2,11.24-9.04s-7.17-4.65-11.78-6.02c-5.4-1.61,2.8-1.96-10.53-1.77-9.9.14-8.8-9.07-11.41-11.62-1.7-1.66-6.6-.79-9.03-3.01-4.75-4.34-6.14-18.39-6.79-19.2-2.49-3.08-14.33-1.45-9.69-18.3ZM144.22,88.17c-2.67-1.81-17.87,4.42-13.99,7.97l13.99-7.97ZM94.17,162.25c-1.05-1.49-14.79-4.31-15.79,1.15,4.09,10.11-1.43,26.76,4.94,34.65,3.61,4.47,11.07,7.28,8.93-1.91l5.96,5.99c2.97-10.11-3.13-9.22-4.92-11.96-4.22-6.5,1.7-26.76.88-27.92Z"/>
      <path class="cls-3" d="M246.22,18.15c15.98,4.06,12.8,16.68,16.37,26.7.94,2.64,11.1,8.4,7.6,17.27l-5.99.06c5.31,6.98,5.6,26.41,3.97,34.94-.31,1.62-15.06,27.68-16.48,28.52-1.9,1.13-5.39.11-7.44,1.48-3.54,2.35-3.31,13.69-13.45,16.59-6.35,1.81-4.56-1.17-4.58-5.56,2.82-1.24,3.11-4.18,4.66-5.29,6.47-4.61,12.25-1.8,7.34-14.69,11.33,2.27,8.96-2.56,11.99-6.01.49-.55,6.44,1.25,4-8,3.4-1.68,5.13-6.99,6-8,.2-.24,3.77.91,4.14-1.26.69-4.06-3.19-9.43-4.14-12.74-1.77-6.18.07-5.65,0-6,4.17-1.86,1.25-4.72-2-6,.99-5.21,2.81-11.05,7.99-12.99l-13.98-6.02c7.96-.2,6.82-4.89,5.77-11.83-1.82-12.03-7.39-5.23-9.65-7.27-.52-.47-1.34-11.44-2.13-13.89Z"/>
      <path class="cls-3" d="M174.22,6.15c8.8-9.18,13.37-5.94,24.83-3.79s5.8.24,16.18-.42c8.65-.54,6.96,4.21,8.13,4.26,10.86.42,14.05-8.64,16.86,11.95-8.42-2.11-10.56-8.09-11.29-8.18-2.43-.3-5.52,2.31-7.59,2.27-1.17-.02-1.01-3.83-2.32-4.14-9.97-2.36-7.85,7.5-9.92,8.17-10.25,3.34-7.35-8.63-8.93-10.13-.17-.16-2.9,1.8-4.53,1.31-2.89-.87-4.39-3.45-8.31-3.39s-4.98,2.84-7.12,4.08c-2.95,1.71-6.1-2.88-2,8-3.5.2-4.55-.87-10,0l-12.01-1.99v3.99c-.64.07-1.33-.02-1.99,0-7.21.26-5.58,7.21,0,6-1.3,3.38-10.2,2.29-13.4,4.6-3.6,2.61-3.7,10.28-5.73,13.27-3.75,5.53-4.26,1.8-8.87,12.13,3.73-.35,7.77-2.87,11.99-1.99.81,5.39-4.78,4.93-8.12,8.95-1.4,1.69-1.27,3.39-1.87,5.04-.7,1.91-2.93,2.57,0,6-.16.15-.19,2.27-2,4-2.07,1.98-3.71,5.79-4,6-.63.46-3.12-.45-4,0-.16-10.18,3.99-19.01,8-28-11.69,1.1,1.05-10.98,2.85-14.15,1.69-2.97,1.09-6.34,3.97-10.03,2.08-2.65,6.75-4.17,9.25-6.75,3.11-3.2,6.58-10.55,9.94-12.05,4.55-2.04,12.77-.25,13.98-1.02-.45.45.31,2.05,1,2,2.18-.15-.06-2.94-1-2,.38-.24-1.01-6.17,6-4l1.01,1.96c1.07-.37.71-1.67.99-1.96Z"/>
      <path class="cls-3" d="M6.22,90.15c-5.09-14.87-2.13-24.15,11.27-31.74,3.61-2.05,7.92-5.03,8.74.69,1.52,10.65,1.24,28.6-12,31.05-2.35.44-5.45-.27-8,0Z"/>
      <path class="cls-8" d="M72.22,204.15c-.34-4-7.67-8.22-8.01-9.43-1.92-6.89.09-25.11,8.06-27.56,6.19-1.9,3.54,17.14,4.12,21.8,1.62,12.9,5.86,16.22,18.89,15.33,20.44-1.41,1.46-13.52.95-20.15,7.09,1.15,13.35,13.09,11.6,18.58-3.83,12.01-26.79,1.54-35.6,1.42Z"/>
      <path class="cls-8" d="M182.22,160.15c.89,15.73,7.68,26.75,14,40,6.82.74,12.44,3.93,20,0-.24.2.6,2.66-.43,3.51-3.1,2.57-16.57,3.43-19.26.1-.9-1.11,0-2.99-.31-3.61-3.89-.42-11.41.12-12,0-.54-.11-7.8-6.96-8.08-7.43-3-5.17-2.72-22.72-1.06-28.75,1.46-5.29,4.61-3.8,7.13-5.82v2Z"/>
      <path class="cls-3" d="M222.22,138.15c-.2,9.29-11.52,5.34-18,6-.35-7.79,10.29-4.21,18-6Z"/>
      <path class="cls-8" d="M166.22,212.15c-.22.02-2.47,3.42-3.95,1.97-.62-.6.35-3.57-.05-3.97l4,2Z"/>
      <path class="cls-2" d="M172.22,6.15h2c-.28.29.09,1.6-.99,1.96l-1.01-1.96Z"/>
      <path class="cls-7" d="M124.21,88.15c-4.64,16.85,7.2,15.23,9.69,18.3.65.81,2.04,14.86,6.79,19.2,2.43,2.22,7.33,1.35,9.03,3.01,2.61,2.55,1.51,11.76,11.41,11.62,13.33-.18,5.12.17,10.53,1.77,4.61,1.37,9.7-1.76,11.78,6.02s-7.84,6.24-11.24,9.04c-3.59,2.96-1.86,21.88-1.97,28.03-.05,2.83-2.21,6.36-2.08,7.83.07.8,10.01,4.89,6.08,13.17-3.44-.08-7.3.59-10.62-.39-11.42-3.37-9.7-43.8-16.4-53.6l-.98,10c-8.37,1.53-57.85-1.82-59.86-9.27-.87-3.23,5.1-9.9-3.13-10.76-1.2,8.02-5.99,15.66-11.62,21.41-2.84,2.9-8.34,1.65-10.53,8.49-1.56,4.87-3.01,21.24-.24,25.52.84,1.3,4.66,1.66,5.17,3.78,1.91,7.91-13.58,13.9-18.89-5.1s1.18-23.33,1.27-37.06c.04-6.35-3.38-10.72-4.02-16.18-6.49-54.93,42.41-46.09,79.82-54.83Z"/>
      <path class="cls-7" d="M231.95,32.43c1.19,7.57,1.57,14.49-7.73,13.73.96,9.65,10.04,4.27,11.91,15.08,1.03,5.97-4.13-.81-3.93,1.92,10.65,27.14.21,50.84-29.94,54.17-8.76.97-16.86-4.19-26.15-2.09-3.4-10.57-12.09-14.36-15.28-26.69-2.55-9.87.52-18.16-.54-25.31-.73-4.87-12.96-13.01-9.2-19.1,6.05-9.78,9.9.08,12.34,1.83,6.7,4.81,17.77-4.57,25.97-5.64,7.33-.96,16.17,1.95,21,.98,4.56-.92,11.71-16.13,21.56-8.88ZM215.25,62.16c-4.73,1.04-2.95,9.06,1.94,7.98s2.95-9.06-1.94-7.98ZM175.25,68.16c-4.73,1.04-2.95,9.06,1.94,7.98s2.95-9.06-1.94-7.98ZM188.22,80.15c-1.94,4.38-9.45,12.36-9.72,15.34-.38,4.21,4.08,4.83,5.72,6.66.27.3-.75,2.67,1.27,4.12,7.81,5.62,24.42,2.74,30.73-4.12,7.56-8.22,4.23-20.36-6-22-5.47-.88-12.81-.34-17.98,2l-3-8.01c-2.3.53-.42,4.67-1.02,6.01ZM211.22,74.15v2c1.3-.67,1.3-1.33,0-2Z"/>
      <path class="cls-7" d="M182.22,158.15c3.62-2.9,13.67-12.3,18.09-9.1,2.94,2.13,2.89,29.06,6.34,35.66,1.83,3.51,6.62,4.24,6.96,6.31,1.53,9.13-7.24,8.81-13.52,4.25-11.14-8.07-8.35-26.04-17.87-35.13v-2Z"/>
      <path class="cls-7" d="M94.17,162.25c.81,1.16-5.11,21.42-.88,27.92,1.78,2.75,7.88,1.86,4.92,11.96l-5.96-5.99c2.14,9.19-5.32,6.38-8.93,1.91-6.37-7.89-.85-24.54-4.94-34.65,1-5.46,14.74-2.65,15.79-1.15Z"/>
      <path class="cls-7" d="M260.22,82.15c.95,3.31,4.83,8.68,4.14,12.74-.37,2.18-3.93,1.03-4.14,1.26l-4.01-9.04,4.02-2.23v-2.73Z"/>
      <path class="cls-7" d="M168.22,16.15c-3.75.6-6.99,1.48-12,2v-3.99s12,1.99,12,1.99Z"/>
      <path class="cls-7" d="M254.22,104.15c2.44,9.25-3.51,7.45-4,8-3.37-12.87-.6-5.73,4-8Z"/>
      <path class="cls-7" d="M144.22,88.17l-13.99,7.97c-3.88-3.55,11.32-9.78,13.99-7.97Z"/>
      <path class="cls-7" d="M128.22,66.15l6,2.02c.08,3.68-5.34,3.34-6,3.98-2.93-3.43-.7-4.09,0-6Z"/>
      <path class="cls-7" d="M180.22,8.15c-.27,2.63,1.36,7.8-2,8-4.1-10.88-.95-6.29,2-8Z"/>
      <path class="cls-6" d="M154.22,18.15c-.35,1.74.5,4.69,0,6-5.58,1.21-7.21-5.74,0-6Z"/>
      <path class="cls-7" d="M260.22,76.15c-.48-2.51-2.9-1.27-2-6,3.25,1.28,6.17,4.14,2,6Z"/>
      <path class="cls-7" d="M218.19,28.14c-.18.17-4.21.74-3.96-.98,3.33-1.95,2.92-7.48,5.97-7,.27.62-1.71,7.7-2.01,7.98Z"/>
      <path class="cls-7" d="M122.22,82.15c.29-.21,1.93-4.02,4-6-.17,2.87-1.08,5.2-4,6Z"/>
      <path class="cls-7" d="M253.22,84.15c1.3.67,1.3,1.33,0,2v-2Z"/>
      <path class="cls-2" d="M166.22,10.15c.94-.94,3.18,1.85,1,2-.69.05-1.45-1.55-1-2Z"/>
      <path class="cls-5" d="M188.22,80.15c.5,16.48,22.98,18.3,22,0,10.23,1.64,13.56,13.78,6,22,.57-.55,3.89-14.99-1.96-9.99-1.18,1.01-6.33,16.17-10.21,4.24l-3.79-.24c-.23,7.03-5.19,5.11-10.03,6.97,8.34,8.6,11.35-2.59,12.02-2.98,1.19-.67,3.08,3.11,5.24,3.49.66.12,8.41-1.2,8.72-1.51-6.31,6.87-22.93,9.75-30.73,4.12-2.02-1.45-.99-3.82-1.27-4.12l3.99-.99-3.97-3.01-.02,4c-1.64-1.83-6.1-2.44-5.72-6.66.27-2.99,7.78-10.96,9.72-15.34Z"/>
      <path class="cls-1" d="M188.22,80.15c.6-1.35-1.28-5.48,1.02-6.01l3,8.01c5.17-2.34,12.51-2.88,17.98-2,.98,18.3-21.5,16.48-22,0Z"/>
      <path class="cls-3" d="M175.25,68.16c4.89-1.08,6.67,6.94,1.94,7.98s-6.67-6.94-1.94-7.98Z"/>
      <path class="cls-3" d="M215.25,62.16c4.89-1.08,6.67,6.94,1.94,7.98s-6.67-6.94-1.94-7.98Z"/>
      <path class="cls-5" d="M211.22,74.15c1.3.67,1.3,1.33,0,2v-2Z"/>
      <path class="cls-4" d="M216.22,102.15c-.32.31-8.07,1.63-8.72,1.51-2.16-.39-4.05-4.16-5.24-3.49-.68.38-3.69,11.57-12.02,2.98,4.84-1.86,9.8.05,10.03-6.97l3.79.24c3.88,11.93,9.03-3.23,10.21-4.24,5.85-5.01,2.53,9.43,1.96,9.99Z"/>
      <polygon class="cls-4" points="184.22 102.15 184.24 98.15 188.21 101.16 184.22 102.15"/>
    </g>
  </g>
</svg>