<?xml version="1.0" encoding="UTF-8"?>
<svg id="Calque_2" data-name="Calque 2" xmlns="http://www.w3.org/2000/svg" viewBox="0 0 230.7 314.46">
  <defs>
    <style>
      .cls-1 {
        fill: #8b9a99;
      }

      .cls-2 {
        fill: #95994f;
      }
    </style>
  </defs>
  <g id="Calque_1-2" data-name="Calque 1">
    <g>
      <path class="cls-2" d="M96.02,111.76l.98,1.97,1.02-1.97c1.08.27,2.7-.12,4,0,2.44,7.37,7.13,2,8,2,1.97.01,4.05-.19,6,0l2,2c2.61.29,5.38-.24,8,0v3.99s4-1.99,4-1.99c6.7.29,11.67-1.14,18-2,4.48,9.25,11.62,1.23,15.53.52,4.89-.89,11.07.98,14.47-2.52,1.28.18,2.95-.3,4,0l6,2c5.96,3.87,4.93,8.94,6,10l2,4c-.1,1.31.24,2.86,0,4h-4s0,6,0,6c-.44.4.4,2.95,0,4l-4,6c-.95,1.48-1.29,4.88-2.35,5.64-1.32.95-3.13.07-3.65.36-6.75,3.68-9.19,5.4-12,14-2.13,1.03-5.51.96-7.8,2.18-1.79,6.59,1.55,11.63,8.67,9.94,2.19-.52.76-3.7,1.13-4.12,3.65-4.16,10.38-.56,14,2l2,2c2.27,4.12.64,4.99,0,10l-1.96,1,1.96,1c-.4,1.91-1.62,2.92-2,4-2.87.87-3.97,3.08-4,6-1.33,1.68-1.91,3.77-4,6l-2,2c-1.2,1.11-1.91,3.14-4.08,4.83-4.13,3.24-18.81,9.65-19.72,12.51-1.88,5.93,4.31,12.87,5.33,18.12,1.81,9.26,4.67,43.36,1.43,50.5-1.85,4.08-14.04,14.03-18.83,15.18-23.9,5.7-47.41-4.15-45.65-31.66,1.65-25.86,22.84-56.09,29.39-80.61,4.79-17.93,5.34-30.74-5.88-45.87-22.95-30.95-42.15-20-74-15-.18-1.12.34-3.75.02-3.99-.99-.74-19.93,1.72-24.02,1.99-1.98.13-4.01-.07-6,0-2.14-4.65-7.22-6.06-12-6C-.46,126.93.22,126.73.02,121.76l1.96-1-1.96-1c.85-22.97,15.51-49.48,34.17-62.83,33.09-23.68,21.34,17.07,30.91,32.75,1.71,2.81,13.86,13,17.01,14.99,1.5.95,13.06,6.85,13.91,7.09ZM157.02,179.76v2c1.3-.67,1.3-1.33,0-2Z"/>
      <path class="cls-2" d="M117.55.15c6.32-.94,16.46,2.45,18.18,9.06,2.72,10.44-11.11,28.75-4.19,46.03,12.29,30.7,42.74-3.51,58.57,1.39,16.42,5.07,6.12,21.5-3.13,29.08-10.79,8.85-36.15,18.58-49.97,18.18-39.34-1.16-58-34.17-48.07-70.22C92.01,22.5,105.48,1.95,117.55.15Z"/>
      <path class="cls-2" d="M65.49,170.24c41.83-6.88,35.84,51.11-3.47,60.58-15.56,3.75-27.39-11.33-25.87-25.86,1.74-16.62,12.06-31.87,29.34-34.71Z"/>
      <path class="cls-2" d="M227.49,216.27c9.08,9.65-3.26,38.39-10.55,47.42-2.65,3.28-6.36,4.27-8.92,7.08-5.83,6.4-14.04,22.98-24.72,15.15-11.49-8.42,10.71-60.16,20.93-68.94,6.55-5.63,16.77-7.61,23.26-.71Z"/>
      <path class="cls-1" d="M178.02,113.76c-3.41,3.5-9.59,1.63-14.47,2.52-3.91.71-11.04,8.73-15.53-.52,13.22-1.79,16.25-3.91,30-2Z"/>
      <path class="cls-1" d="M20.02,137.76c4.09-.28,23.02-2.74,24.02-1.99.33.25-.19,2.88-.02,3.99-7.89,1.24-15.58,3.27-24.02,2l.02-4Z"/>
      <path class="cls-1" d="M182.02,155.76c-1.12,8.65-5.17,10.68-12,14-.55,1.7-2.46,7.4-1.99,7.99h3.99c-.37.43,1.05,3.61-1.13,4.13-7.11,1.69-10.46-3.36-8.67-9.94,2.29-1.22,5.67-1.14,7.8-2.18,2.81-8.6,5.25-10.32,12-14Z"/>
      <path class="cls-1" d="M14.02,137.76c-.29.01-1.37,1.96-3.04,1.96-3.49,0-7.39-4.88-8.96-7.96,4.78-.06,9.86,1.35,12,6Z"/>
      <path class="cls-1" d="M110.02,113.76c-.87,0-5.56,5.37-8-2,2.59.23,6.58-1.13,8,2Z"/>
      <path class="cls-1" d="M196.02,133.76c-2.17,10.36-.65,2.93-4,6v-6.01s4,0,4,0Z"/>
      <path class="cls-1" d="M186.02,197.76c-3.27,9.26-2.11,3.61-4,6,.03-2.92,1.13-5.13,4-6Z"/>
      <path class="cls-1" d="M130.02,117.76l-3.99,1.99v-3.99c3.54.32,3.76,1.99,3.99,2Z"/>
      <path class="cls-1" d="M188.02,149.76l4-6c-1.88,4.92-2.68,3.95-4,6Z"/>
      <path class="cls-1" d="M176.02,211.76l2-2c-.64.68-1.31,1.36-2,2Z"/>
      <path class="cls-1" d="M188.02,193.76l-1.96-1,1.96-1c-.08.65.13,1.37,0,2Z"/>
      <path class="cls-1" d="M.02,121.76c-.03-.66-.02-1.34,0-2l1.96,1-1.96,1Z"/>
      <path class="cls-1" d="M96.02,111.76c.61.17,1.37-.15,2,0l-1.02,1.97-.98-1.97Z"/>
      <path class="cls-1" d="M157.02,179.76c1.3.67,1.3,1.33,0,2v-2Z"/>
    </g>
  </g>
</svg>