<?xml version="1.0" encoding="UTF-8"?>
<svg id="Calque_2" data-name="Calque 2" xmlns="http://www.w3.org/2000/svg" viewBox="0 0 163.87 242.71">
  <defs>
    <style>
      .cls-1 {
        fill: #978497;
      }

      .cls-2 {
        fill: #4f4647;
      }

      .cls-3 {
        fill: #939daf;
      }

      .cls-4 {
        fill: #926651;
      }

      .cls-5 {
        fill: #8b9a99;
      }

      .cls-6 {
        fill: #f3c954;
      }

      .cls-7 {
        fill: #eba749;
      }

      .cls-8 {
        fill: #fcf3ea;
      }
    </style>
  </defs>
  <g id="Calque_1-2" data-name="Calque 1">
    <g>
      <path class="cls-2" d="M45.56,88.56c15.88-11.01,40.19-13.93,57.47-4.55,6.32,3.43,8.4,13.02,20.53,6.55-3.52,9.94.86,4.35,2,6,1.23,1.78-3.06,10.05,6,4,.33.26,2.58-.74,3.58.48,2.91,3.53-4.01,7.41,6.42,3.52-.35,24.53-20.17,45.91-44,50-4.18.72-11.32.09-16,0-1.32-.02-2.68.1-4,0-4.66-.36-9.48-.88-14-2-16.69-4.12-33.04-17.44-34-36-.06-1.23-.2-2.88,0-4,.9-5.09,8.32-16.1,12-20,.22-.23,2.31.51,3.5-.5.97-.82.27-3.34.5-3.5ZM55.56,118.56l5.02-11.96c-1.88,2.63-9.72,2.8-10.74,4.23s-2.08,9.6,3.72,7.73c-3.1.5-5.1,4.83-3.99,7.99l11.98-1.98c.87.88-7.49,12.31-.65,14.08,11.5,2.97,19.45-3.82,26.66-10.09.3-.26,8.27.29,3.99-3.99s-3.68,3.74-3.99,3.99c-.79.62-19.25,2.67-19.99,1.99l1.99-7.97c-8.62,3.31-11.55-3.07-14-4.02ZM115.55,112.57c-1.58-1.67-9.12,6.35-9.98,7.97,3.95,2.1,12.43-5.39,9.98-7.97Z"/>
      <path class="cls-3" d="M141.56,10.56c-6.59,1.15-6.55,9.45-4,14-.26.1-3.85,3.76-4,4-8.3,13.02,16.28,50.61,6,68-.43-.3-1.45.28-2,0-.54-.71-1.19-1.64-2-2-3.98-1.76-6.71-2.86-10-6,4.89-24.56-18.19-66.91-6.03-83.03,6.36-8.44,22.79-7.55,22.03,5.03ZM133.55,8.57h-3.98v5.98h3.98v-5.98Z"/>
      <path class="cls-3" d="M77.56,154.56l-12.06,30.94c3.5,8.36.88,38.51,8.08,42.04,3.35,1.64,10.19.08,11.96,4.04,3.07,6.84-4.44,4.05-5.65,5.32-1.95,2.04,2.89,6.88-5.27,5.62-1.35-.21-12.44-6.2-13.09-6.92-4.09-4.56-1.25-14.03-2-20-1.2-9.51-6.21-25.58-5.83-33.89.38-8.15,9.33-20.02,9.86-29.14,4.52,1.12,9.34,1.64,14,2Z"/>
      <path class="cls-3" d="M97.56,154.56c1.39,9.08-7.83,17.67-7.19,26.04.26,3.38,10.73,36.59,12.12,38.02,4.47,4.56,14.84-.33,17.28,3.1,1.09,1.53,2.61,9.64,1.57,10.7-.46.47-3.12-.3-4.05.36-2.11,1.51-1.82,4.07-4.68,4-3.14-.08-14.13-6.03-15.95-8.34-2.45-3.1-18.27-47.06-18.49-51.17-.35-6.41,5.4-15.17,3.38-22.72,4.68.09,11.82.72,16,0Z"/>
      <path class="cls-1" d="M29.56,116.56c-13.99,5.34-34.68.12-18-13.98-14.85-2.29-15.95-15.67,0-16.04,2.12-2.3-6.76-9.11-6-12.94,1.15-5.81,14.57-2.29,17.99.96,2.27-25.33,18.22,4.4,22.02,14-.23.16.47,2.68-.5,3.5-1.19,1.01-3.28.27-3.5.5-2.77-8.33-4.93-17.23-11.03-23.98-7.58-3.71,4.28,19.45,2.05,19.94-22.29-22.53-30.53-14.96-5.02,6.02l-21.99-3.97c-1.91,10.92,10.94,6.17,15.98,13,.36.77-14.35,4.96-11.98,10.98l19.99-1.99c-.2,1.12-.06,2.77,0,4Z"/>
      <path class="cls-7" d="M141.56,10.56c2.92-.51,20.7,4.62,21.98,7.03,2.89,5.42-14.21,4.85-15.98,4.97s-3.49.05-4,2c-1.27-.17-5.2-.3-6,0-2.55-4.55-2.59-12.85,4-14Z"/>
      <path class="cls-1" d="M145.56,100.56c-3.87.71-4.63-3.03-6-4,10.28-17.39-14.3-54.98-6-68,3.07,24.65,14.5,46.36,12,72Z"/>
      <path class="cls-8" d="M135.56,94.56c.63.63,1.25,1.61,2,2,.55.28,1.57-.3,2,0,1.37.97,2.13,4.71,6,4-.63,6.49-.63,2.74-4,4-10.43,3.89-3.51.01-6.42-3.52-1.01-1.22-3.26-.22-3.58-.48-1.57-1.26-2.14-4.57-6-4-1.14-1.65-5.52,3.94-2-6,.41-1.16,1.97-1.85,2-2,3.29,3.14,6.02,4.24,10,6Z"/>
      <path class="cls-6" d="M147.56,22.56c.74,7.87-2.79,2.17-4,2,.51-1.95,2.31-1.88,4-2Z"/>
      <path class="cls-8" d="M41.56,92.56c-3.68,3.9-11.1,14.91-12,20l-19.99,1.99c-2.37-6.02,12.34-10.21,11.98-10.98-5.04-6.82-17.89-2.08-15.98-13l21.99,3.97c-25.51-20.98-17.27-28.55,5.02-6.02,2.24-.5-9.63-23.66-2.05-19.94,6.1,6.76,8.25,15.65,11.03,23.98Z"/>
      <path class="cls-8" d="M55.56,118.56c2.45.95,5.38,7.33,14,4.02l-1.99,7.97c.74.68,19.2-1.37,19.99-1.99-7.21,6.27-15.16,13.05-26.66,10.09-6.84-1.77,1.51-13.2.65-14.08l-11.98,1.98c-1.11-3.16.89-7.49,3.99-7.99.47-.08,1.6-.16,2,0Z"/>
      <path class="cls-3" d="M55.56,118.56c-.4-.16-1.53-.08-2,0-5.8,1.87-4.75-6.28-3.72-7.73s8.86-1.6,10.74-4.23l-5.02,11.96Z"/>
      <path class="cls-1" d="M115.55,112.57c2.45,2.58-6.03,10.07-9.98,7.97.86-1.62,8.4-9.64,9.98-7.97Z"/>
      <path class="cls-3" d="M131.56,100.56c-9.06,6.05-4.77-2.22-6-4,3.86-.57,4.43,2.74,6,4Z"/>
      <path class="cls-5" d="M87.56,128.56c.31-.25-.21-8.19,3.99-3.99s-3.69,3.73-3.99,3.99Z"/>
      <rect class="cls-4" x="129.57" y="8.57" width="3.98" height="5.98"/>
      <path class="cls-1" d="M137.56,96.56c-.75-.39-1.37-1.37-2-2,.81.36,1.46,1.29,2,2Z"/>
    </g>
  </g>
</svg>