<?xml version="1.0" encoding="UTF-8"?>
<svg id="Calque_2" data-name="Calque 2" xmlns="http://www.w3.org/2000/svg" viewBox="0 0 271.57 76.79">
  <defs>
    <style>
      .cls-1 {
        fill: #f28c34;
      }

      .cls-2 {
        fill: #eba749;
      }
    </style>
  </defs>
  <g id="Calque_1-2" data-name="Calque 1">
    <g>
      <path class="cls-2" d="M239.32,66.28c-15.01,8.81-37.72-37.6-40.63-37.6-11.15,0-19.41,55.41-46.09,40.13-8.14-4.66-29.88-39.53-35.85-38.12-6.79,7.13-25.56,43.66-32.48,45.67-18.24,5.29-33.73-40.9-45.7-43.59-6.59-1.48-19.45,33.73-24.86,36.91C7.63,73.26-.23,71.78,0,63.73.27,54.49,26.26,9.62,35.02,9.08c11.91-.74,28.94,26.83,36.64,34.68,1.75,1.79,7.68,8.78,10.02,6.94,4.59-10.59,24.02-44.6,35.36-45.53,3.54-.29,9.98,4.07,12.74,6.47,8.69,7.54,19.59,27.82,26.78,33.2,4.31,3.22,6.56,3.06,9.82-.57,7.24-8.07,17.43-35.98,25.85-40.13,16.72-8.23,36.32,41.84,43.44,36.56,2.12-8.34,23.17-55.54,35.11-36.01,5.86,9.59-22.9,53.24-31.47,61.59ZM226.42,41.99c-10.1-9.06-15.2-32.17-32.7-31.27-2.01,10.31,10.14,12.42,11.56,14.44,1.04,1.48.47,5.71,2.27,8.68,4.82,7.98,22.64,32.88,32.21,23.9,5.93-5.56,30.89-40.38,21.94-47.02-6.94-5.14-22.67,31.16-24.22,35.76-2.85,1.63-8.79-2.46-11.05-4.48Z"/>
      <path class="cls-1" d="M226.42,41.99c2.26,2.03,8.2,6.12,11.05,4.48,1.55-4.59,17.28-40.9,24.22-35.76,8.94,6.63-16.01,41.45-21.94,47.02-9.57,8.97-27.39-15.93-32.21-23.9-1.79-2.96-1.23-7.2-2.27-8.68-1.42-2.01-13.57-4.13-11.56-14.44,17.5-.89,22.6,22.21,32.7,31.27Z"/>
    </g>
  </g>
</svg>