<?xml version="1.0" encoding="UTF-8"?>
<svg id="Calque_2" data-name="Calque 2" xmlns="http://www.w3.org/2000/svg" viewBox="0 0 183.81 226.45">
  <defs>
    <style>
      .cls-1 {
        fill: #8b9a99;
      }

      .cls-2 {
        fill: #596b79;
      }

      .cls-3 {
        fill: #fcf3ea;
      }
    </style>
  </defs>
  <g id="Calque_1-2" data-name="Calque 1">
    <g>
      <path class="cls-2" d="M182.41,173.67c-.16.5-2.55.55-2.65.91-.72,2.58,2.06,4.44-1.65,9.51-20.56,28.09-63.59.64-43.4-33.35,16.37-27.56,57.11-6.14,47.7,22.93Z"/>
      <g>
        <path class="cls-2" d="M41.13,166.16c1.72.4,9.57,2.32,9.98,2.01.76-.56,3.76-11.47,8.36-16.68,23.81-26.98,54.85-8.19,36.57,20.57-9.24,14.54-18.05,12.58-31.89,16.13-2.74.7-3.26-1.62-3.08,2.99.35,9.1,8.96,17.93,16.91,21.12,5.01,2.01,21.92,1.77,19.14,10.83-1.94,6.31-22.59,2.1-27.78-.19-20.45-9.01-15.42-28.61-23.21-36.79-2.21-2.33-17.21-6.97-22.86-11.14C-16.44,145.77-.67,90.02,35.69,65.7c4.96-3.32,25.74-12.22,26.49-13.5,1.97-3.38.28-8.68,1.43-12.57C69.84,18.45,91.97,1.04,114.09.03c7.57-.35,21.44,2.49,23.02,11.16,1.82,9.99-10.83,1.21-18.94.84-19.6-.89-42.24,20.11-41.05,40.13,15.8-3.28,46.88,13.28,49.96,29.04,7.49,38.34-39.95,36.12-55.95,6.96-.61-1.12-1.42-2.8-2-4-.66-1.36-1.36-2.68-2-4-1.14-2.36,1.51-7.55-5.01-8.11-6.89-.59-7.84,3.97-10.99,6.11-10.25,6.98-16.43,14.31-24,24-.55.71-2.42,1.41-3.75,3.17-2.64,3.49-1.16,10.89-8.24,10.86v1.95s4.09,1.06,4.09,1.06c-4.11,7.59-4.9,14.33-4.08,22.95l2.98-4.01,5,6.02c.62,3.21.69,4.71,2,8,2.18,5.44,2.43,8.52,10,8,.72.62,1.3,1.4,2,2-.76,5.94.87,3.27,4,4ZM95.63,93.59c5.74,2.41,16.36,1.84,15.54-6.31-1.21-12-21.33-19.8-32.02-19.11-.14,4.13,1.12,8.27,3.17,11.82.8,1.39,12.44,13.24,13.32,13.61ZM87.12,150.17c-10.75,3.9-21.13,10.31-23.99,21.97,13.27,0,25.74-7.6,23.99-21.97Z"/>
        <path class="cls-1" d="M23.13,144.16l-5-6.02-2.98,4.01c-.83-8.62-.03-15.36,4.08-22.95l-4.08-1.06v-1.95c7.08.03,5.6-7.38,8.24-10.86,1.33-1.75,3.2-2.46,3.75-3.17-5.37,16.03-7.26,25.08-4,42Z"/>
        <path class="cls-3" d="M67.13,80.16c-5.15-2.24-9.52-1.86-14.83-.48l-1.17-1.52c3.14-2.14,4.1-6.7,10.99-6.11,6.52.56,3.87,5.75,5.01,8.11Z"/>
        <path class="cls-1" d="M35.13,160.16c-7.57.52-7.82-2.56-10-8,5.74-.31,7.2,5.56,10,8Z"/>
        <path class="cls-1" d="M37.13,162.16c.65.56,5.45-1.62,4,4-3.13-.73-4.76,1.94-4-4Z"/>
        <path class="cls-3" d="M71.13,88.16h-4s2-4,2-4c.58,1.2,1.39,2.88,2,4Z"/>
        <path class="cls-3" d="M95.63,93.59c-.88-.37-12.52-12.22-13.32-13.61-2.05-3.54-3.31-7.69-3.17-11.82,10.7-.69,30.81,7.11,32.02,19.11.82,8.15-9.79,8.72-15.54,6.31Z"/>
        <path class="cls-3" d="M87.12,150.17c1.75,14.37-10.72,21.96-23.99,21.97,2.86-11.66,13.23-18.07,23.99-21.97Z"/>
      </g>
    </g>
  </g>
</svg>