<?xml version="1.0" encoding="UTF-8"?>
<svg id="Calque_2" data-name="Calque 2" xmlns="http://www.w3.org/2000/svg" viewBox="0 0 162.54 240.04">
  <defs>
    <style>
      .cls-1 {
        fill: #978497;
      }

      .cls-2 {
        fill: #4f4647;
      }

      .cls-3 {
        fill: #939daf;
      }

      .cls-4 {
        fill: #eba749;
      }

      .cls-5 {
        fill: #fcf3ea;
      }
    </style>
  </defs>
  <g id="Calque_1-2" data-name="Calque 1">
    <g>
      <path class="cls-2" d="M118.1,87.96h2c1.44,8.44,10.22,12.63,12,22,.31,1.61.04,4.15,0,6-.08,3.71-1.12,13.53-3.04,16.03-1.52,1.98-5.19,1.49-6.29,2.62-8.28,8.47-7.69,13.97-22.67,15.35-3.29.3-6.52-2.06-8.79-2-1.17.03-.49,3.31-5.21,4-2.38.35-5.42-.05-8,0-4.18.09-10.2.6-14,0-25.29-3.99-39.13-26.68-44-50h2c5.35,4.71,4.78-2.89,6.26-3.88,1.25-.84,4.67,2.21,5.5,1.51.75-.63-.07-3.43.23-3.64,2.35-1.61,7.5-5.72,8-6,1.68-.92,18.89-7.84,22.04-8.96,20.57-7.28,36.83-.62,53.96,6.96ZM104.1,107.96c2.16,2,2.14,7.11,1.99,9.99l-11.99-1.97c7.14,5.62,10.95,11.31-2,10l1.99,5.97-17.95-3c6.34,7.48,18.84,6.8,27.95,7.01l-1.98-9.98,9.98-.02c3.02-4.84-7.95-3.72-3.99-7.98.67-.72,8.79,2.37,6.04-5.01-.58-1.55-7.74-3.18-10.03-5-.53-.42,2.01-5.92-6-3.98-.08,3.61,5.21,3.25,6,3.98Z"/>
      <path class="cls-3" d="M42.1,89.96c-.5.28-5.65,4.39-8,6-4.17-4.38-14.48-1.27-12,6h-2c-6.93-33.17,10.62-48.9,7.48-72.57-.25-1.85-3.46-4.38-3.48-5.43-.06-3.42,6.22-10.03-4-14,.61-.61.43-4.26,3.99-6.95,5.82-4.39,11.72-3.88,17.06.92,18.45,16.58-16.74,65.9.95,86.04ZM34.09,9.97c-2.18-2.18-6.16,1.8-3.98,3.98s6.16-1.8,3.98-3.98Z"/>
      <path class="cls-3" d="M100.1,149.96c.02,10.54,7.82,20.95,8.06,31.09.17,7.19-4.47,37.55-6.13,45.84-1.03,5.15-10.45,11.99-15.03,12.99-5.31,1.16-1.64-4.53-2.99-5.74-1.58-1.4-7.96,1.26-7.93-1.21-.23-7.94,14.14-7.64,15.66-9.34.49-.54,2.14-10.59,2.33-12.67.55-6.01,2.44-25.26,2.01-29.78-.81-8.7-12.79-18.58-9.98-29.19,4.72-.69,4.04-3.97,5.21-4,2.27-.06,5.5,2.3,8.79,2Z"/>
      <path class="cls-3" d="M78.1,151.96c4.11,11.39,7.74,17,4.63,29.64-1.54,6.26-12.1,36.68-14.89,41.1-2.9,4.6-11.45,9.46-16.83,9.46-3.18,0-2.62-2.74-3.73-3.45-1.84-1.17-10.02-2.17-4.96-8.54,1.25-1.57,13.96-.67,17.93-5.07,2.03-2.25,11.37-32.26,11.77-36.38,1.04-10.49-5.48-17.3-7.92-26.77,3.8.6,9.82.09,14,0Z"/>
      <path class="cls-5" d="M120.1,87.96c2.83-.68,9.61-22.42,14-17.98l-5.99,15.97c9.36-2.39,12.4-14.36,23.99-11.97l-4.91,8.07-13.08,11.9c8.06-2.18,15.31-5.33,23.99-3.99,1.23,5.22-4.94,5.29-7.18,8.05-1.15,1.41,1.19,1.83,1.18,1.95-.02.67,0,1.33,0,2l-12-1.98c1.45,4.71,7.88,4.66,12,5.98-.09,1.98.06,4.01.01,5.99l-20.01-1.99c-1.78-9.37-10.56-13.56-12-22Z"/>
      <path class="cls-1" d="M118.1,87.96c1.28-6.86,6.69-22.51,15.12-22.01,4.91.29,4.01,5.85,6.17,6.19,7.75,1.21,22.14-9.57,10.72,13.81,9.57-2.28,7.3,3.31,8,4.02.29.29,6.3-1.34,3.85,4.84-1.27,3.19-6.66,4.67-9.85,5.16,0-.11-2.33-.54-1.18-1.95,2.24-2.76,8.41-2.83,7.18-8.05-8.68-1.34-15.92,1.82-23.99,3.99l13.08-11.9,4.91-8.07c-11.59-2.39-14.63,9.58-23.99,11.97l5.99-15.97c-4.39-4.44-11.17,17.3-14,17.98h-2Z"/>
      <path class="cls-4" d="M24.1,23.96c-48.31-2.71-10.1-7.92-4-14,10.22,3.97,3.94,10.58,4,14Z"/>
      <path class="cls-1" d="M152.1,101.96c0,1.33.06,2.67,0,4,5.51,1.76,6.03,2.3,2.11,9.12l-22.11.88c.04-1.85.31-4.39,0-6l20.01,1.99c.05-1.98-.1-4.01-.01-5.99-4.12-1.31-10.55-1.27-12-5.98l12,1.98Z"/>
      <path class="cls-5" d="M104.1,107.96c2.3,1.82,9.46,3.45,10.03,5,2.75,7.38-5.37,4.29-6.04,5.01-3.96,4.26,7.01,3.14,3.99,7.98l-9.98.02,1.98,9.98c-9.11-.2-21.61.47-27.95-7.01l17.95,3-1.99-5.97c12.95,1.31,9.13-4.38,2-10l11.99,1.97c.15-2.88.17-7.99-1.99-9.99Z"/>
      <path class="cls-5" d="M34.1,95.96c-.31.21.52,3.01-.23,3.64-.83.7-4.25-2.35-5.5-1.51-1.48.99-.91,8.59-6.26,3.88-2.48-7.27,7.83-10.38,12-6Z"/>
      <path class="cls-1" d="M104.1,107.96c-.78-.73-6.08-.37-6-3.98,8.01-1.94,5.47,3.56,6,3.98Z"/>
      <path class="cls-2" d="M34.09,9.97c2.18,2.18-1.8,6.16-3.98,3.98s1.8-6.16,3.98-3.98Z"/>
    </g>
  </g>
</svg>