<?xml version="1.0" encoding="UTF-8"?>
<svg id="Calque_2" data-name="Calque 2" xmlns="http://www.w3.org/2000/svg" viewBox="0 0 296.41 112.42">
  <defs>
    <style>
      .cls-1 {
        fill: #f3c954;
      }

      .cls-2 {
        fill: #fcf3ea;
      }
    </style>
  </defs>
  <g id="Calque_1-2" data-name="Calque 1">
    <g>
      <path class="cls-1" d="M242.65,75.97c7.53,2.77,13.47,2.86,21.05.16,6.78-2.41,25.72-20.3,27.66-19.98,6.76,1.1,5.64,11.59,2.97,16.64-8.62,16.34-33.59,21.89-50.61,19.12-4.72-.77-10.95-6.12-13.84-5.56-2.63.5-6.3,6.62-9.41,8.56-14.52,9.04-35.93,13.61-52.32,8.56-4.71-1.45-12.72-7.36-16.25-7.02-4.49.43-17.02,12.06-25.68,14.21-10.57,2.63-23.56,2.44-33.62-1.64-5.08-2.06-10.55-8.37-15.17-9.01-8.27-1.14-21.48,9.92-39.33,7.49C19.02,104.92-6.78,76.16,1.64,58.08c7.04-15.12,9.71,9.8,10.85,13.08,6.23,17.95,34.32,31.03,50.1,17.9,6.22-5.17-1.99-15.27-3.12-20.88-4.11-20.33-3.76-50,15.05-63.21,9.07-6.37,17.65-6.4,27.47-1.32,23.22,12,15.46,49.86,2.6,67.39-4.94,6.73-20.04,13.88-13.03,21.04,11.07,11.3,42.65,4.86,48.12-8.09,1.48-3.5-6.27-20.74-6.56-27.48-.79-17.95,10.71-55.23,34.03-50.08,18.37,4.05,14.82,36.35,10.92,50.09-1.91,6.72-13.86,22.61-13.18,26.26,3.14,16.76,53.54.87,53.67-9.68.04-3.43-4.98-10.64-5.78-16.23-.72-5-.85-14.58.24-19.4,3.31-14.65,30.12-26.55,37.99-10.84,9.97,19.9-10.98,45.52-8.36,49.35ZM78.63,78.04c16.15-7.18,38.02-62.24,12.51-65.74-10.33-1.42-18.72,19.4-20.07,27.21-2.41,13.99,2.24,25.99,7.55,38.53ZM166.5,20.14c-6.08-5.08-13.97,8.23-15.8,13.01-5.11,13.3-3.49,25.34-.08,38.88,5.48,3.93,16.3-23.72,17.07-27.89.81-4.39,1.38-21.87-1.18-24.01ZM232.57,66.04c1.24-1.2,8.66-28.14,7.87-30.71-1.12-3.59-8.05-4.95-10.05-2.11-.75,1.07-5.61,16.29-5.68,17.99-.11,2.63,3.68,18.87,7.87,14.83Z"/>
      <path class="cls-2" d="M78.63,78.04c-5.31-12.55-9.96-24.55-7.55-38.53,1.35-7.82,9.73-28.63,20.07-27.21,25.5,3.51,3.64,58.56-12.51,65.74Z"/>
      <path class="cls-2" d="M166.5,20.14c2.56,2.14,1.99,19.62,1.18,24.01-.77,4.17-11.59,31.82-17.07,27.89-3.41-13.55-5.03-25.58.08-38.88,1.84-4.78,9.73-18.09,15.8-13.01Z"/>
      <path class="cls-2" d="M232.57,66.04c-4.19,4.04-7.98-12.19-7.87-14.83.07-1.7,4.93-16.92,5.68-17.99,2-2.84,8.94-1.49,10.05,2.11.8,2.57-6.62,29.51-7.87,30.71Z"/>
    </g>
  </g>
</svg>