<?xml version="1.0" encoding="UTF-8"?>
<svg id="Calque_2" data-name="Calque 2" xmlns="http://www.w3.org/2000/svg" viewBox="0 0 241.61 231">
  <defs>
    <style>
      .cls-1 {
        fill: #978497;
      }

      .cls-2 {
        fill: #4f4647;
      }

      .cls-3 {
        fill: #939daf;
      }

      .cls-4 {
        fill: #596b79;
      }

      .cls-5 {
        fill: #fcf3ea;
      }
    </style>
  </defs>
  <g id="Calque_1-2" data-name="Calque 1">
    <g>
      <path class="cls-4" d="M129.27,148.66c-.44,5.25.3,10.72.01,15.99l15.99-3.97c-2.67,5.74-10.16,8.98-15.98,5.97-2.43,8.53,7.12,6.99,13.99,8.02,1.83,7.62-8.05,1.42-11.14,5.86-1.52,2.18-.76,5.56-.88,8.12,6.13-.43,13.11,2.54,16.01-3.99h2c-.26,9.74,1.97,35.86-.28,42.72-1.84,5.59-9.84,3.61-13.72,1.28l8.01-2.01c.79-3.74-.29-6.88-4.01-7.99,6.96-4.45,4.17-18.55,5.98-26-5.13,3.21-8.66,1.19-13.97,0-1.44,9.09,7.34,7.44,7.98,8,4.93,4.35-5.49,3.79-5.78,4.1-1.18,1.27.33,9.15-.21,11.89l-1.97.99,1.97,1.01c.62.17,1.37-.16,2,0l-4,4c-.41-1.19-1.78-1.88-2.1-4.81-.8-7.35-2.12-53.05-3.9-55.2-1.99-.09-4,.06-6,.01,2.12-3.98,3.56-7.42,5.12-11.79.52-1.45,2.82-2.01,2.88-2.21h2Z"/>
      <path class="cls-5" d="M113.27,162.66l-1.99-73.99c5.68-1.04,3.28,1.36,4.5,4.38,3.69,9.15,13.65,48.32,11.49,55.6-.06.2-2.36.76-2.88,2.21-1.56,4.37-3,7.8-5.12,11.79-1.96-.05-4.06-.16-6,0Z"/>
      <path class="cls-4" d="M155.27,158.66c-1.85,9.26,13.26,17.47,14,8h2c.37,2.83,3.6,7.51,3.97,13.04.92,13.55.02,27.52,1.17,41.1-21.41,9.12-17-14.46-17.14-28.13,7.36,7.43-1.48,19.07,11.99,15.99,2.18-9.38-4.56-4.69-5.99-6-3.75-3.42,3.75-4.01,4.04-5.29,3.58-16.28-5.19-7.98-6.03-8.7-.51-.44.42-3.15,0-4.01,1.26-.2,2.93.3,4,0,1.64-.47,1.51-.49,2-2,1.72-5.33-5.27-8.82-10-10-.64-.16-2.93,1.61-4,2-.11-4,.12-8.02,0-12.02l-4,.02c2.45-6.33,3.54-3.33,4-4Z"/>
      <path class="cls-4" d="M227.27,48.66h-2c-7.31-1.98-11.55-9.24-18-14,6.43,7.22-13.09,8.35-4.01.99,1.29-1.04,3.57-1.49,4.01-.99-4.18-3.09-1.2-2.47-8-4-.43-3.96,2.58-5.61,4-8,10.38,7.06,16.49,16.73,24,26Z"/>
      <path class="cls-5" d="M61.27,200.66h-12c-.07-7.48-1.83-17.83,5.98-22,2.42,7.18,3.85,14.77,6.02,22Z"/>
      <path class="cls-2" d="M155.27,144.66c.54.68,1.55,1.15,2,2l1.02,1.96.98-1.96c1.35-.54,2.64-1.56,4-2-1.61,4.09-5.48,10.34-8,14-.46.67-1.55-2.33-4,4-3.16,8.17-1.77,13.51-2,22h-2c-3.71-10.67,6.28-32.59,2-40h6Z"/>
      <path class="cls-2" d="M61.27,154.66l-2-2,2,2Z"/>
      <path class="cls-2" d="M195.27,8.66c.94.35,2.77-.26,4,0-1.23,1.87-1.55,9.55-2,10-.32.32-9.54,2.12-.95,2.03,2.51-.03,4.85-.65,6.95-2.03-.47.53.47,3.21,0,4-1.42,2.39-4.43,4.04-4,8-.11-.02-.76,1.78-1.98,1.1-3.96-2.19-2.19-8.51-8.01-7.11l-1,7.99-6.03-8.01-6.96,6.01c.69-8.98-5.67-17.24-13.04-21.95-1.93,13.26,4.67,16.33,9.02,23.96.06,2.17-3.87,5.38-4,6l-5.99-5.99c-2.62,16.35,7,29.35,13.95,43.01-10.8-2.38-14.64-15.99-19.33-24.73-.63-1.17-.88-7.84-4.61-4.29-6.9,6.57,14.43,31.29,19.94,37.01l-11.92-4.04c5.99,7.73,8.82,18.07,17.94,23.02,1.8-1.81,2.29-23.33,4.02-28,.12-.33,1.44-1.47,2-2,.41-.39,3.59,1.2,4.14-1.22.33-1.45-5.14-26.22,1.84-18.78,2.71,2.89.17,18.41,1.95,22.7,1.19,2.87,4.46.7,6.07,1.3,1.08.4,2.21,1.43,4,2,9.95,3.17,4.02.81,9.22-7.79,5.32-8.8,15.98-11.88,14.78-22.21h2c7.94,9.8,19.8,15.85,11.53,32.55-12.21,24.67-46.68-5.28-51.52-.55.56,17.43-11.19,35.59-13.48,51.53-.84,5.83-3.13,29.79-2.52,34.48h-2l-8.01-4.01c-1.99-7.08,6.64-2.68,8.03-3.98.65-.61-.48-13.12-.04-16.01-1.9,1.07-3.97,1.34-5.98,2,5.24-13.37-2.08-9.45-9.79-17.22-9.82-9.9-18.96-24.68-24.63-37.39-2.88-6.47.88-10.07-7.64-4.21,4.2,11.48,8.74,23.07,12.06,34.82.32,1.12-.31,2.85,0,4,2.29,8.57,3.85,16.99,8.03,24.97-4.19,3.99-5.8-4.36-8.03-6.97-.82-.96-1.09-3.83-2,0-2.68.69-1.83,3.94-2,6h-2c2.16-7.28-7.8-46.46-11.49-55.6-1.22-3.02,1.17-5.42-4.5-4.38l1.99,73.99c-1.49.12-3.96,2.12-6.98,2.1-5.74-.03-22.17-4.79-25.23-.86-1.78,2.29-5.78,14.48-5.8,17.73-.06,8.32,10.34,36.76,7.76,40.77-1.88,2.92-12.85,2.61-15.81-.7-2.15-2.41-4.58-16.51-5.95-21.04-2.18-7.23-3.61-14.81-6.02-22-7.8,4.17-6.04,14.52-5.98,22,.06,6.57,3.51,24.72,1.12,28.13s-14.99,2.33-17.13-1.61c-1.11-2.04-7.39-42.04-7.3-45.91.2-8.15,7.29-14.33,7.36-21.54.1-9.29-7.58-22.65-6.08-33.06-17.52,13.03-1.09,39.54-20.95,49.99-4.34-10.47-9.72-10.66-3.43-21.4,10.01-17.08,10.71-27.62,18.75-43.24,9.73-18.9,27.05-30.46,48.61-31.44,12.07-.55,35.12,7.99,43.89,1.94,4.04-2.79,7.49-19.09,10.59-25.33,2.61-5.25,10.86-15.08,14.57-20.52l11.99,5.99-9.99-7.99c3.08-4.49,2.55-5.15,7.42-10.71,1.02-1.16.16-4.44.78-5.01,1.47-1.35,7.02.44,7.82-.27.67-.59-.51-13.11,0-16,4.67-.11,8.3,3.64,12.95,3.69,15.69.15,6.07-4.74,25.04,2.3ZM171.26,128.65c5.96-17.07-2.5-17.76-8.42-28.56-2.97-5.42-16.4-39.24-18.57-39.39-5.37-.37.03,13.38.66,15.3,3.5,10.71,8.81,19.32,16.3,27.68-15.2-3.03-17.66-17.89-24.97-29.01-2.3,2.48-3.44,7.18-2.65,10.46,2.41,9.91,23.67,32.73,32.11,40.09,1.64,1.43,1.45,4.58,5.54,3.43ZM122.27,72.66v2c1.3-.67,1.3-1.33,0-2ZM77.25,84.65l-10.01,3.05c6.57,16.68,13.03,34.86,10.02,52.96l-18.14-51.85c-1.69-1.21-10.7,2.61-13.05,3.69-1.19.55-4.29-.45-2.77,3.14,2.67,6.27,15.3,18.53,19.74,28.27,4.14,9.06,6.69,16.75,7.15,26.85l17.09,5.89c-3.99-10.11-4.51-67.98-10.01-72ZM105.27,124.66l1,1.96c1.21-.16.85-1.2,1-1.96,2.28-11.25,3.09-44.26-15.99-35.01,10.13,9.28,8.35,23.67,13.99,35.01ZM59.27,152.66l-27.98-26c1.07,5.44,1.38,14.24,4.19,18.79,4.17,6.75,18.18,6.97,19.82,16.19s-15.71-7.7-18.02-4.97l.41,9.58,15.54,8.4c4.23-6.01,5.59-14.48,8.04-19.99.84-1.9,7.26-3.61,5.05-9.89-.97-2.74-25.77-38.54-27.98-40.17-1.74-1.28-2.14-2.67-5.04-1.93-9.9,22.83,28.79,25.91,25.98,49.99ZM105.28,158.67c3.59-3.57-8.33-49.56-15.99-54.01l3.97,54.01h12.02ZM77.28,158.68c-.35-.37-8.11-1.34-9.99-2.01-1.35,8.72,14.6,6.99,9.99,2.01ZM73.15,168.81c-.31-.38-8.43-4-8.91-3.99-8.67.18-7.27,28.69,7.03,23.85v-10c-1.12-1.33-11.94,6.43-10-1.99,4.8.89,16.52-2.21,11.89-7.87ZM49.26,176.67c-3.93.6-16.68-4.96-17.98,1.02s11.02,8.05,11.98,9c5.46,5.43-9.59,3.55-10,3.98v7.98c15.85,1.82,10.24-4.87,12.45-14.55.61-2.66,4.62-3.86,3.55-7.43ZM73.28,194.67h-10c.37,7.31,2.76,9.24,9.98,7.98l.02-7.98ZM43.26,202.66l-8.04,7.09c-1.06,6.64,4.3,7.58,10.04,6.9l-2.01-13.99ZM75.26,204.67c-4.35.49-9.46,1.27-7.98,5.98h7.98s0-5.98,0-5.98Z"/>
      <path class="cls-5" d="M163.27,184.66c.43.86-.5,3.57,0,4.01.83.72,9.6-7.58,6.03,8.7-.28,1.28-7.78,1.87-4.04,5.29,1.43,1.31,8.17-3.38,5.99,6-13.47,3.08-4.63-8.56-11.99-15.99,0-.67,0-1.33,0-2,0-2.67,0-5.33,0-8,2.27-.3,2.99-.03,4,2Z"/>
      <path class="cls-2" d="M139.27,218.66c3.73,1.1,4.8,4.25,4.01,7.99l-8.01,2.01c-3.75-2.25-2.82-2.56-4-6l4-4c1.17.29,2.91-.32,4,0Z"/>
      <path class="cls-1" d="M159.27,182.66c0,2.67,0,5.33,0,8-6.56,1.97-3.83-9.93-4-16,1.07-.39,3.36-2.16,4-2v10Z"/>
      <path class="cls-3" d="M141.27,34.66l9.99,7.99-11.99-5.99c.53-.77,1.53-1.31,2-2Z"/>
      <path class="cls-5" d="M77.25,84.65c5.5,4.02,6.02,61.89,10.01,72l-17.09-5.89c-.46-10.11-3.01-17.79-7.15-26.85-4.45-9.73-17.07-22-19.74-28.27-1.53-3.58,1.58-2.59,2.77-3.14,2.35-1.08,11.37-4.9,13.05-3.69l18.14,51.85c3.01-18.1-3.44-36.28-10.02-52.96l10.01-3.05Z"/>
      <path class="cls-5" d="M171.26,128.65c-4.09,1.15-3.9-2-5.54-3.43-8.44-7.36-29.7-30.18-32.11-40.09-.8-3.28.35-7.98,2.65-10.46,7.31,11.12,9.77,25.98,24.97,29.01-7.49-8.35-12.8-16.97-16.3-27.68-.63-1.92-6.03-15.67-.66-15.3,2.17.15,15.6,33.97,18.57,39.39,5.92,10.8,14.37,11.49,8.42,28.56Z"/>
      <path class="cls-5" d="M149.27,144.66c4.28,7.41-5.71,29.33-2,40-2.9,6.53-9.88,3.56-16.01,3.99.12-2.56-.64-5.94.88-8.12,3.09-4.44,12.97,1.76,11.14-5.86-6.88-1.03-16.42.51-13.99-8.02,5.82,3.01,13.31-.23,15.98-5.97l-15.99,3.97c.29-5.27-.45-10.74-.01-15.99.17-2.06-.68-5.31,2-6h2c2.23,2.61,3.84,10.96,8.03,6.97-4.18-7.97-5.74-16.4-8.03-24.97,7.59,3.12,7.93,10.14,11.16,15.9,1.45,2.58,4.59,3.66,4.84,4.1Z"/>
      <path class="cls-5" d="M163.27,144.66c2.01-.66,4.08-.93,5.98-2-.44,2.89.69,15.4.04,16.01-1.39,1.3-10.02-3.1-8.03,3.98l8.01,4.01c-.74,9.47-15.85,1.26-14-8,2.52-3.66,6.39-9.91,8-14Z"/>
      <path class="cls-5" d="M133.27,120.66c-3.31-11.75-7.86-23.34-12.06-34.82,8.52-5.86,4.76-2.26,7.64,4.21,5.67,12.72,14.81,27.49,24.63,37.39,7.71,7.77,15.03,3.85,9.79,17.22-1.36.44-2.65,1.46-4,2h-2c-.45-.85-1.46-1.32-2-2-5.96-7.43-9.24-23.94-22-24Z"/>
      <path class="cls-5" d="M59.27,152.66l2,2c-2.45,5.51-3.81,13.98-8.04,19.99l-15.54-8.4-.41-9.58c2.31-2.73,19.71,14.44,18.02,4.97s-15.66-9.44-19.82-16.19c-2.81-4.55-3.12-13.35-4.19-18.79l27.98,26Z"/>
      <path class="cls-5" d="M61.27,154.66l-2-2c2.81-24.09-35.88-27.16-25.98-49.99,2.9-.74,3.3.65,5.04,1.93,2.21,1.63,27.02,37.43,27.98,40.17,2.21,6.28-4.2,8-5.05,9.89Z"/>
      <path class="cls-5" d="M105.28,158.67h-12.02s-3.97-54.01-3.97-54.01c7.66,4.45,19.57,50.44,15.99,54.01Z"/>
      <path class="cls-5" d="M107.27,124.66h-2c-5.64-11.34-3.86-25.73-13.99-35.01,19.08-9.25,18.27,23.76,15.99,35.01Z"/>
      <path class="cls-5" d="M49.26,176.67c1.07,3.58-2.94,4.78-3.55,7.43-2.22,9.67,3.39,16.36-12.44,14.55v-7.98c.4-.43,15.45,1.45,9.99-3.98-.96-.95-13.29-3.02-11.98-9s14.05-.42,17.98-1.02Z"/>
      <path class="cls-1" d="M155.27,144.66h-6c-.25-.44-3.39-1.52-4.84-4.1-3.23-5.76-3.57-12.78-11.16-15.9-.31-1.15.32-2.88,0-4,12.76.06,16.04,16.57,22,24Z"/>
      <path class="cls-4" d="M171.27,32.66c5.17,9.06,3.74,23.92,7.99,33.99-3.71,1.6-8.33-8.49-8.87-10.11-.91-2.72-3.52-15.89-3.12-17.87.13-.62,4.06-3.83,4-6Z"/>
      <path class="cls-5" d="M73.15,168.81c4.63,5.66-7.09,8.76-11.89,7.87-1.94,8.43,8.88.66,10,1.99v10c-14.29,4.84-15.7-23.67-7.02-23.85.49,0,8.61,3.61,8.91,3.99Z"/>
      <path class="cls-5" d="M43.26,202.66l2.01,13.99c-5.74.68-11.1-.26-10.04-6.9l8.04-7.09Z"/>
      <path class="cls-4" d="M197.27,76.66v-16.01s5.99.02,5.99.02l-1.99,17.99c-1.79-.57-2.92-1.6-4-2Z"/>
      <path class="cls-5" d="M73.28,194.67l-.02,7.98c-7.22,1.26-9.61-.67-9.98-7.98h10Z"/>
      <path class="cls-5" d="M77.28,158.68c4.61,4.97-11.34,6.71-9.99-2.01,1.88.67,9.64,1.64,9.99,2.01Z"/>
      <path class="cls-5" d="M75.26,204.67v5.98s-7.98,0-7.98,0c-1.48-4.71,3.63-5.49,7.98-5.98Z"/>
      <path class="cls-5" d="M199.27,8.66c1.49.32,4.19-.92,4.03,1.02-1.89,4.18-.45,10.43-6.03,8.98.45-.45.77-8.13,2-10Z"/>
      <path class="cls-4" d="M133.27,142.66h-2c.91-3.83,1.18-.96,2,0Z"/>
      <path class="cls-3" d="M105.27,124.66h2c-.15.76.21,1.8-1,1.96l-1-1.96Z"/>
      <path class="cls-4" d="M181.27,74.66l2-2c-.56.53-1.88,1.67-2,2Z"/>
      <path class="cls-5" d="M171.27,32.66c-4.35-7.63-10.95-10.7-9.02-23.96,7.37,4.71,13.73,12.96,13.04,21.95l6.96-6.01,6.03,8.01,1-7.99c5.83-1.4,4.05,4.92,8.01,7.11,1.22.67,1.87-1.13,1.98-1.1,6.8,1.53,3.82.91,8,4-.44-.5-2.72-.05-4.01.99-9.08,7.36,10.44,6.23,4.01-.99,6.45,4.76,10.69,12.02,18,14,1.2,10.33-9.46,13.42-14.78,22.21-5.2,8.6.73,10.95-9.22,7.79l1.99-17.99-5.98-.02v16.01c-1.62-.6-4.9,1.57-6.08-1.3-1.77-4.3.76-19.82-1.95-22.7-6.98-7.44-1.51,17.33-1.84,18.78-.55,2.43-3.73.83-4.14,1.22l-2,2c-1.73,4.67-2.23,26.18-4.02,28-9.11-4.95-11.95-15.29-17.94-23.02l11.92,4.04c-5.5-5.72-26.83-30.45-19.94-37.01,3.73-3.55,3.98,3.12,4.61,4.29,4.69,8.74,8.52,22.35,19.33,24.73-6.94-13.67-16.57-26.66-13.95-43.01l5.99,5.99c-.4,1.98,2.22,15.15,3.12,17.87.54,1.62,5.16,11.71,8.87,10.11-4.26-10.06-2.83-24.93-7.99-33.99ZM195.26,42.67h-3.98v5.98h3.98v-5.98ZM176.27,84.66v2c1.3-.67,1.3-1.33,0-2Z"/>
      <path class="cls-5" d="M133.27,216.66c.54-2.74-.96-10.62.21-11.89.29-.31,10.72.25,5.78-4.1-.64-.56-9.43,1.09-7.98-8,5.31,1.18,8.84,3.2,13.97,0-1.81,7.45.98,21.55-5.98,26-1.09-.32-2.83.29-4,0-.63-.16-1.38.17-2,0v-2Z"/>
      <polygon class="cls-2" points="133.27 218.66 131.31 217.65 133.27 216.66 133.27 218.66"/>
      <path class="cls-5" d="M167.27,184.66l2-2c-.49,1.51-.36,1.53-2,2Z"/>
      <polygon class="cls-1" points="157.27 146.66 159.27 146.66 158.29 148.63 157.27 146.66"/>
      <rect class="cls-2" x="191.28" y="42.67" width="3.98" height="5.98"/>
      <path class="cls-4" d="M176.27,84.66c1.3.67,1.3,1.33,0,2v-2Z"/>
      <path class="cls-4" d="M195.27,8.66c-1.12-5.79,9.47-10.43,11.99-8.01.6.58.51,14.99.06,16.7-.57,2.16-3.84,1.08-4.05,1.3-2.1,1.37-4.44,2-6.95,2.03-8.59.09.63-1.71.95-2.03,5.58,1.46,4.14-4.8,6.03-8.98.16-1.94-2.54-.71-4.03-1.02-1.23-.26-3.06.35-4,0Z"/>
    </g>
  </g>
</svg>