<?xml version="1.0" encoding="UTF-8"?>
<svg id="Calque_2" data-name="Calque 2" xmlns="http://www.w3.org/2000/svg" viewBox="0 0 271.97 229.4">
  <defs>
    <style>
      .cls-1 {
        fill: #4f4647;
      }

      .cls-2 {
        fill: #926651;
      }

      .cls-3 {
        fill: #b07734;
      }

      .cls-4 {
        fill: #f3c954;
      }

      .cls-5 {
        fill: #95994f;
      }

      .cls-6 {
        fill: #eba749;
      }

      .cls-7 {
        fill: #fcf3ea;
      }
    </style>
  </defs>
  <g id="Calque_1-2" data-name="Calque 1">
    <g>
      <path class="cls-3" d="M258.47,38.91c.86,10.35,5.2,13.65,7.46,23.43.32,1.41-1.48,2.42-1.46,2.57l-7.99-1.99c-1.24,5,5.04,4.85,7.37,10.01l2.62-.02c.14,5.08-2.51,2.82-3.91,5.57-.72,1.42.71,5.04-.37,6.24-.87.97-4.91-1.04-5.81,1.42-1.93,5.3-3.21,14.09,2.09,16.78l-6.5,25.49c-3.32,3.96-10.86.02-11.5.51-.39.3.32,2.86,0,4-1.46,5.09-2.28,9.85-6,14-2.99.92-5.1,1.31-8,2-3.15.75-8.04,0-10.09,3.33-1.04,4.33,2.26,40.65,4.09,42.67-.69-1.49-3.59-2.54-5.11-7.87-2.75-9.65-2.09-20.35-3.88-30.12-14.22,11.18-14.55,16.56-9.71,33.69,1.9,6.73,5.83,18.66,15.44,16.37,1.63-.39.12-5.89,7.22-3.05-4.08-2.14-2.94-6.8-3.96-9.02.31.35,2.89-.23,4,0,2.84,6.67,7.81,3.45,4,14-7.44,2.7-14.56,2.7-22,0-3.18-4.09-5.49-7.42-8-12-.79-7.43-2.06-34.43-12-20-3.26,4.73-2.01,8.43-2,14,.01,6-1,8.54,2,14,1.48,2.69,2.29,2.51,4,4,1.32,3.18,1.25,6.76,2,10,.14.61-.09,1.33,0,2l-8,6c-1.31.1-2.68.01-4,0-8.92.31-13.74-4.9-20-10-1.09-6.03-1.65-9.75-2-16-.15-2.62,1.07-6.59-2-8,.15-1.97-.03-4.01,0-6,.04-2.67.02-5.35,0-8.01-16.86-.02-33.35,6.86-50,2.02,1.54,6.78-4.73,22.98,5.99,23.99.91,3.36,2.59,6.81,4,10l-2,4c-7.69,2.63-13.31,3.49-20.82-.26-1.75-.87-2.53-3.36-3.18-3.74l20.01,1.99c3.02-8.46-6.28-9.07-7.18-13.82-.65-3.43,1.4-21.8-.84-24.15l-15.99-.03c-1.09,12.76.7,23.87,4.01,36.01-1.25-.74-2.67-1.4-4-2-3.75-8.4-2.87-18.36-4.01-27.02-.26-2,.6-4.34-2.95-2.96-14.52,5.68-8.27,20.56-7.03,31.98,3.43.56,4.11.24,6,4-1.61,5-.04,8.37-9.1,9.87-30.46,5.04-22.06-21.61-25.14-40.63-1.75-10.83-6.57-22.14-7.62-32.56-.56-5.57,4.01-12.76-1.43-14.38-10.38-3.08-17.4,1.64-27.8-10.2-14.81-16.85-3.7-30.43,2.15-46.05,1.52-4.06.7-8.72,2.5-13.5,1.67-4.42,12.61-17.94,17.43-18.58,4.55-.61,3.8,10.52,6.95,13.18,3.81,22.14-21.28,20.45-23.8,35.97-1.99,12.27.84,25.45,14.84,26.93,17.54,1.85,18.7-10.38,33.04-17.03,10.56-4.9,24.39-7.66,35.99-7.01-22.24,9.98-48.41,7.93-53.52,37.48-2.94,17.01,2.92,23.75,5.01,38.04s-1.68,48.43,18.51,44.47l-1.99-5.97,7.98,3.98c-.15-2.62.3-5.39.02-8-1.6-.26-5.65.42-6,.01-.88-1.01-.4-24.57.33-26.69.87-2.54,14.25-10.71,15.63-16.37l8.02-16.95c.43,6.2.46,12.19-3.93,17,.4,7.64,63.28,4.92,71.93.98,6.18,16.84-3.36,51.85,24.03,47.99-2.53-2.53,1.38-7.81,3.99-8.97-1.3-2.04-5.49-2.16-6.04-4.41-2.4-9.79,1.3-28.11,2.07-38.58l2.96,3.97c11.36-4.3,15.88-14.21,24.98-20.98-5.69-8.05-8.61,3.63-13.2,4.53-7.46,1.46-13.93-6.96-16.04-7.34-2.42-.43-5.15,4.3-9.62,3.94-5.57-.45-9.44-9.72-13.15-11.2-5.39-2.14-7.44,4.99-15.95-5.94-1.84-2.36-2.11-5.93-4.01-8.08-8.08-9.12-20.79-12.41-18.01-28.92-3.85,2.67-11.37-.07-11.99,0,7.07.26,5.47,1.2,6-4.89,1.27-14.82-3.05-25.52,2.47-41.64,1.52-4.44,10.44-16.66,15.53-17.47s9.6,1.96,14-2c2.54-2.29,2.15-2.6,0-6,.53-.34.77-2.61,3.37-3.6,5.95-2.27,8.14,3.18,8.63-4.4l9.99,1.99v-5.99c3.16,1.88,4,5.99,5.31,6.18,2.17.31,7.72-3.06,8.69-2.19,1.21,1.09.08,13.38,3.99,14-1.12-12.35-1.67-16.56,2.02-27.99,2.04-.86,5.05,2.22,4-4,5.46-1.48,17.24-.93,22.9.1,12.71,2.32,16.29,7.13,25.22,12.78,4.64,2.94,13.22,5.59,16.11,10.06.78,1.21,1.52,12.1,1.77,15.06ZM154.2,71.18c1.21,1.91-.16,10.55.49,14.52,4.1,25.23,18.93,37.36,44.77,35.18,31.3-2.65,46.7-25.36,35.38-55.34-1.88-4.99-10.07-14.98-10.23-15.91-.21-1.15,13.05-16.98,2.58-20.43-15.02-4.95-14.51,13.27-17.99,13.89-2.88.51-6.68-1.92-9.73-1.78-7.14.33-19.61,2.34-25.71,5.89-3.74,2.18-5.74,7.11-10.4,7.78-6.95,1-18.93-10.28-22.47,1.34-4.97,16.36,10.68,10.72,13.31,14.86ZM210.46,30.92c-2.18-2.18-6.16,1.8-3.98,3.98s6.16-1.8,3.98-3.98ZM232.49,44.91c.76.97,5.29-3.49,3.96-6-.76-.97-5.29,3.49-3.96,6ZM252.45,102.9v-3.98h-1.96v3.98h1.96ZM8.45,120.89l-3.96-17.98c.29,5.1-1.69,15.3,3.96,17.98ZM158.46,112.9c2.05-2.07-3.97-8.02-5.98-5.98s3.97,8.02,5.98,5.98ZM9.45,122.95l-.94.94,8.98,8.98.94-.94-8.98-8.98ZM164.47,134.89l-5-9.94c-2.87,1.78-2.44,5.6-4.14,7.84s-5.38,1.09-4.85,4.1l13.99-2ZM198.46,128.92h-3.98s0,5.99,0,5.99c2.89-.67,4.59-3.23,3.97-5.99ZM40.46,132.92l-19.98.98c1.49,5.24,26.37,3.88,19.98-.98ZM236.47,132.93l-3.99-.03-1.03,9.97,5.02-9.94ZM212.49,146.91c3.84-.98,4.5-4.42,3.96-7.99-.97-2.07-4.77,5.39-3.96,7.99ZM190.46,148.9v-7.98s-1.96,0-1.96,0l-2.02,7.97h3.98Z"/>
      <path class="cls-6" d="M108.47,98.91c.62-.08,8.14,2.66,11.99,0-2.78,16.51,9.93,19.8,18.01,28.92,1.9,2.14,2.16,5.71,4.01,8.08,8.51,10.93,10.56,3.8,15.95,5.94,3.71,1.47,7.58,10.75,13.15,11.2,4.47.36,7.19-4.37,9.62-3.94,2.11.38,8.57,8.81,16.04,7.34,4.59-.9,7.5-12.57,13.2-4.53-9.1,6.77-13.62,16.69-24.98,20.98l-2.96-3.97c-.76,10.48-4.47,28.79-2.07,38.58.55,2.26,4.74,2.37,6.04,4.41-2.61,1.16-6.52,6.45-3.99,8.97-27.4,3.86-17.85-31.16-24.03-47.99-8.64,3.94-71.53,6.67-71.93-.98,4.39-4.81,4.36-10.8,3.93-17l-8.02,16.95c-1.38,5.66-14.76,13.83-15.63,16.37-.73,2.12-1.2,25.68-.33,26.69.36.41,4.4-.27,6-.01.28,2.61-.17,5.38-.02,8l-7.98-3.98,1.99,5.97c-20.19,3.96-16.39-29.93-18.51-44.47s-7.95-21.03-5.01-38.04c5.11-29.55,31.29-27.5,53.52-37.48,2.64-1.19,4.7-5.08,12-6Z"/>
      <path class="cls-2" d="M192.47.91c1.05,6.22-1.96,3.14-4,4-3.69,11.43-3.14,15.64-2.02,27.99-3.91-.62-2.78-12.91-3.99-14-.97-.87-6.52,2.5-8.69,2.19-1.31-.19-2.15-4.3-5.3-6.18-3.58-2.14-5.41-2.69-10-2-.14,1.99.13,4.01,0,6-.5,7.57-2.69,2.12-8.63,4.4-2.6.99-2.84,3.27-3.37,3.6-4.07,2.59-11.06,2.74,0,6-4.4,3.96-9.02,1.21-14,2-.62-4.74-.27-6.45,3.21-9.79,6.55-6.28,26.92-20.06,35.83-19.91s5.48,4.56,16.96-.3c.29-.91-.62-3.03.18-3.83s2.84.09,3.82-.17Z"/>
      <path class="cls-5" d="M266.47,104.91c-2.38-.89-5.9-.94-8-2-5.31-2.68-4.02-11.48-2.09-16.78.9-2.46,4.94-.45,5.81-1.42,1.08-1.19-.35-4.82.37-6.24,1.4-2.74,4.06-.49,3.91-5.57-.06-2.22-1.62-5.38-2-8-.02-.15,1.78-1.16,1.46-2.57-2.26-9.78-6.6-13.08-7.46-23.43,8.64.02,4.95,8.98,6.91,14.09,9.44,24.75,7.78,26.39,1.09,51.91Z"/>
      <path class="cls-7" d="M72.47,214.91c-1.23-11.42-7.49-26.3,7.03-31.98,3.55-1.39,2.69.96,2.95,2.96,1.15,8.66.26,18.62,4.01,27.02-1.98-.88-3.13-2.73-5.99-2.01,1.06,3.48-1.24,5.63-2.01,8.01-1.89-3.76-2.57-3.44-6-4Z"/>
      <path class="cls-7" d="M112.47,204.91c-10.72-1.01-4.45-17.21-5.99-23.99,16.65,4.84,33.13-2.03,50-2.02,0,2.66.03,5.34,0,8.01l-5.26-4.11c-10.41,4.1-27.87,1.37-37.46,4.38-6.17,1.94-2.48,13.28-1.28,17.72Z"/>
      <path class="cls-2" d="M266.47,104.91c-4.18,15.97-10.18,19.43-20,30l-6-2c.33-1.14-.38-3.7,0-4,.64-.49,8.17,3.45,11.5-.51l6.5-25.49c2.1,1.06,5.62,1.11,8,2Z"/>
      <path class="cls-7" d="M226.47,148.91c1.79,6.4-5.5,2.53-6.14,5.1-1.45,5.83,1.6,34.95,4.14,40.9-1.11-.23-3.69.35-4,0-1.83-2.02-5.12-38.34-4.09-42.67,2.05-3.34,6.94-2.58,10.09-3.33Z"/>
      <path class="cls-7" d="M186.47,176.91c9.94-14.43,11.21,12.57,12,20-.23-.42-2.85-.77-3.6-3.32-1.86-6.37,2.26-18.85-8.4-16.68Z"/>
      <path class="cls-7" d="M180.47,226.91c-.26,0-2.02,2.15-4.84,2.12-5.06-.05-14.04-3.57-16.29-8.29-1.26-2.63,1.17-3.63,1.14-3.83,6.26,5.1,11.08,10.31,20,10Z"/>
      <path class="cls-7" d="M228.47,208.91c-.27.75.67,2.53-.37,3.56-2.83,2.8-18.46,2.79-21.28.01-1.02-1.01-.07-3.21-.35-3.57,7.44,2.7,14.56,2.7,22,0Z"/>
      <path class="cls-7" d="M246.47,134.91c-5.69,6.13.09,8.28-12,12,3.72-4.15,4.54-8.91,6-14l6,2Z"/>
      <path class="cls-7" d="M192.47,220.91c.1.71,3.33,3.22,2,5.98-4.14,3.27-9.46-.03-10,.02l8-6Z"/>
      <path class="cls-7" d="M158.47,200.91c-8.43,1.06-2.19-5.52-2-8,3.07,1.41,1.85,5.38,2,8Z"/>
      <path class="cls-6" d="M154.2,71.18c-2.63-4.14-18.28,1.5-13.31-14.86,3.53-11.62,15.52-.34,22.47-1.34,4.66-.67,6.66-5.6,10.4-7.78,6.1-3.55,18.57-5.56,25.71-5.89,3.05-.14,6.85,2.29,9.73,1.78,3.48-.62,2.96-18.83,17.99-13.89,10.47,3.45-2.79,19.28-2.58,20.43.17.93,8.35,10.92,10.23,15.91,11.32,29.98-4.08,52.7-35.38,55.34-25.84,2.18-40.67-9.95-44.77-35.18-.65-3.97.73-12.61-.49-14.52ZM218.46,64.92c-3.29-3.29-12.68,5.11-4.97,7.97,6.9,2.56,5.83-7.11,4.97-7.97ZM178.46,74.92h-5.98s0,7.98,0,7.98h2.96c3.14-2.11,3.49-4.29,3.02-7.98ZM190.47,88.91c-1.57.68-3.94-.43-7.07,1.85-4.47,3.26-10.16,18.56-6.81,22.04,1.34,1.39,21.17,2.5,24.77,1.99,1.5-.22,14.24-3.73,14.85-4.2.99-.76-.02-2.81.26-3.68.42-1.35,1.48-2.65,2-4h5.99s-1.82-11.17-1.82-11.17l3.83-1.82c-.9-2.48-10.88-6.76-13.99-7.01-7.81-.63-15.16,3.05-22,6Z"/>
      <path class="cls-6" d="M90.47,214.91c-3.31-12.14-5.1-23.26-4.01-36.01l15.99.03c2.25,2.35.19,20.72.84,24.15.9,4.75,10.2,5.36,7.18,13.82l-20.01-1.99Z"/>
      <path class="cls-6" d="M164.47,134.89l-13.99,2c-.54-3.01,3.19-1.93,4.85-4.1s1.28-6.06,4.14-7.84l5,9.94Z"/>
      <path class="cls-6" d="M168.47,14.91v5.99s-10-1.99-10-1.99c.13-1.99-.14-4.02,0-6,4.59-.69,6.42-.14,10,2Z"/>
      <path class="cls-6" d="M264.47,64.91c.38,2.62,1.94,5.78,2,8l-2.62.02c-2.33-5.16-8.61-5.01-7.37-10.01l7.99,1.99Z"/>
      <path class="cls-4" d="M146.47,26.91c2.15,3.4,2.54,3.71,0,6-11.06-3.26-4.07-3.41,0-6Z"/>
      <path class="cls-6" d="M158.46,112.9c-2.01,2.04-8.03-3.9-5.98-5.98s8.03,3.9,5.98,5.98Z"/>
      <polygon class="cls-6" points="190.46 148.9 186.48 148.9 188.5 140.92 190.45 140.92 190.46 148.9"/>
      <path class="cls-6" d="M198.46,128.92c.62,2.76-1.08,5.32-3.97,5.99v-5.99s3.97,0,3.97,0Z"/>
      <polygon class="cls-6" points="236.47 132.93 231.45 142.87 232.48 132.89 236.47 132.93"/>
      <path class="cls-6" d="M212.49,146.91c-.81-2.6,2.99-10.06,3.96-7.99.54,3.57-.12,7.01-3.96,7.99Z"/>
      <path class="cls-6" d="M210.46,30.92c2.18,2.18-1.8,6.16-3.98,3.98s1.8-6.16,3.98-3.98Z"/>
      <path class="cls-6" d="M232.49,44.91c-1.33-2.51,3.2-6.97,3.96-6,1.33,2.51-3.2,6.97-3.96,6Z"/>
      <rect class="cls-6" x="250.49" y="98.92" width="1.96" height="3.98"/>
      <path class="cls-6" d="M220.47,194.91c1.02,2.22-.12,6.88,3.96,9.02-7.09-2.84-5.59,2.66-7.22,3.05-9.62,2.29-13.54-9.64-15.44-16.37-4.84-17.13-4.51-22.51,9.71-33.69,1.79,9.77,1.13,20.47,3.88,30.12,1.52,5.33,4.42,6.38,5.11,7.87Z"/>
      <path class="cls-6" d="M40.46,132.92c6.39,4.86-18.49,6.22-19.98.98l19.98-.98Z"/>
      <path class="cls-6" d="M8.45,120.89c-5.65-2.67-3.68-12.88-3.96-17.98l3.96,17.98Z"/>
      <rect class="cls-6" x="12.81" y="121.56" width="1.33" height="12.7" transform="translate(-86.5 46.99) rotate(-45)"/>
      <path class="cls-4" d="M212.47,82.91c3.12.25,13.09,4.53,13.99,7.01l-3.83,1.82,1.82,11.17h-5.99c-1.68-4.13-2.27,5.15-9.99,2.02v1.96s7.99.02,7.99.02c-.27.86.73,2.91-.26,3.68-.61.47-13.35,3.99-14.85,4.2-3.6.52-23.43-.6-24.77-1.99-3.35-3.48,2.33-18.77,6.81-22.04,3.13-2.28,5.5-1.18,7.07-1.85-2.4,6.18,4.64,7.54,10,8,1.4,3.98.4,9.45,5.99,7.99l-1.99-7.99c2.8-1.34,10.85-9.8,8-14ZM202.47,106.93c-8.45,3.34-10.49,1.01-18-2,2.24,9.39,13.84,11.28,18,2Z"/>
      <path class="cls-1" d="M212.47,82.91c2.85,4.2-5.2,12.66-8,14-.5.24-2.97.09-4,0-5.36-.46-12.4-1.82-10-8,6.84-2.95,14.19-6.63,22-6Z"/>
      <path class="cls-1" d="M218.46,64.92c.86.86,1.93,10.53-4.97,7.97-7.71-2.86,1.68-11.26,4.97-7.97Z"/>
      <path class="cls-2" d="M178.46,74.92c.47,3.69.12,5.87-3.02,7.97h-2.96s0-7.97,0-7.97h5.98Z"/>
      <path class="cls-3" d="M218.47,102.91c-.52,1.35-1.58,2.65-2,4l-7.99-.02v-1.96c7.72,3.13,8.31-6.15,9.99-2.02Z"/>
      <path class="cls-3" d="M202.47,106.93c-4.16,9.28-15.76,7.39-18-2,7.51,3.01,9.54,5.33,18,2Z"/>
      <path class="cls-3" d="M204.47,96.91l1.99,7.99c-5.59,1.46-4.59-4-5.99-7.99,1.03.09,3.5.24,4,0Z"/>
    </g>
  </g>
</svg>