<?xml version="1.0" encoding="UTF-8"?>
<svg id="Calque_2" data-name="Calque 2" xmlns="http://www.w3.org/2000/svg" viewBox="0 0 166.19 142.41">
  <defs>
    <style>
      .cls-1 {
        fill: #596b79;
      }

      .cls-2 {
        fill: #fcf3ea;
      }
    </style>
  </defs>
  <g id="Calque_1-2" data-name="Calque 1">
    <g>
      <path class="cls-1" d="M86.71,43.75c9.56-.47,16.95-8.09,27.49-9.55,22.49-3.12,28.98,25.97,21.5,43.55-6.07,14.27-34.75,26.29-24.7,47.71,22.57,5.3,25.18-11.95,35.7-24.7,9.96-12.07,23.17-7.82,18.51,6.4-8.11,24.76-70.03,59.48-72.54,10.6-9.4,1.29-13.67,9.54-24.96,9.61-33.29.21-36.47-23.76-23.42-49.02,5.81-11.24,21.39-18.32,24.42-25.58,4.3-10.31,6.43-42.54-11.9-35.91-20.71,7.49-33.32,42.29-40.21,61.79-1.95,5.52-.55,14.74-6.9,15.19-11.78.84-9.96-9.7-8.98-19.08C2.9,53.97,32.3.93,55.59.03c25.76-1,35.3,20.98,31.12,43.72ZM120.71,53.74c-1.59-1.57-20.96,2.68-22.01,4.07-.97,1.29,6.77,26.75,4.02,31.93,9.87-10.32,20.77-20.01,17.99-36.01ZM74.1,107.13c.55-.39,7.95-9.82,8.36-10.63,3.1-5.99,5.42-27.61-2.81-28.85-10.9-1.64-9.67,4.44-13.2,8.85-1.75,2.18-4.49,2.73-5.69,4.82-2.31,4-6.14,26.38-4.06,28.44,4.86-.04,13.43.2,17.4-2.63Z"/>
      <path class="cls-2" d="M74.1,107.13c-3.97,2.83-12.54,2.59-17.4,2.63-2.08-2.07,1.76-24.45,4.06-28.44,1.2-2.08,3.94-2.63,5.69-4.82,3.54-4.41,2.3-10.49,13.2-8.85,8.23,1.24,5.91,22.86,2.81,28.85-.42.81-7.81,10.24-8.36,10.63Z"/>
      <path class="cls-2" d="M120.71,53.74c2.78,16-8.12,25.69-17.99,36.01,2.75-5.18-4.99-30.64-4.02-31.93,1.05-1.39,20.42-5.65,22.01-4.07Z"/>
    </g>
  </g>
</svg>