<?xml version="1.0" encoding="UTF-8"?>
<svg id="Calque_2" data-name="Calque 2" xmlns="http://www.w3.org/2000/svg" viewBox="0 0 296.64 181.35">
  <defs>
    <style>
      .cls-1 {
        fill: #978497;
      }

      .cls-2 {
        fill: #4f4647;
      }

      .cls-3 {
        fill: #939daf;
      }

      .cls-4 {
        fill: #596b79;
      }

      .cls-5 {
        fill: #fcf3ea;
      }
    </style>
  </defs>
  <g id="Calque_1-2" data-name="Calque 1">
    <g>
      <path class="cls-1" d="M62.33,107.58c13.47-1.75,24.97-7.91,27.98-22-25.54,30.02-48.9,15.14-79.45,4.47-7.53-3.02-7.61-16.93-5.82-23.19.51-1.79,8.5-15.76,9.27-16.3,4.9-3.42,27.53-3.15,35.51-6.49s7.55-10.03,11.13-13.88c10.6-11.38,28.4-16.34,42.86-9.16,2.83,1.41,3.35,6.16,7.51,5.84,5.46-.42,10.28-10,16.99-9.27,1.77,10.41-4.86,11.49-9.99,17.97,5.35,1.7,9.22-3.34,13.1-3.88,18.81-2.66,75.99-9.93,91.55-6.07,1.54.38,1.14,3.8,2.58,3.9s3.72-1.81,5.39-1.28c5.58,1.75,24.93,9.73,28.52,13.26,1.97,1.94,6.89,11.43,8.89,14.59,10.71,16.91,13.6,32.76,6.61,55.14-1.56,5-5.2,7.85-6.5,13.49-1.93,8.38,1.32,43.17-.13,44.88-.42.49-11.51,2.31-12.75,1.89-4.93-1.7.63-11.96-13.25-5.89h-2c-.18-10.1-1.47-20.92-4.11-28.81-.68-2.02-.46-3.78-2.89-5.15-16.32,13.92-43.32,11.53-63.85,12.08l-4.14-12.11c-7.08,13.47.08,31.26-5.01,45.99-.64.04-1.37.06-2,0-1.11-.11-11.65-2.53-12.16-2.88-3.08-2.16,1.31-10.17-11.84-7.12-.06-.23-1.44-1.12-2-2-6.71-10.51-1.32-8.82-1.85-21.04-.86-19.81-28.06-18.65-30.2-26.35-2.42-8.69,5.94-5.59,6.04-12.61-16.53,3.46-31.78,16.43-48.98,16.14-14.8-.25-32.57-7.8-43.01-18.15,14.15-7.88,23.01,5.44,38,4.02l-1.99,5.97c1.31.14,2.69-.14,3.99.02,1.68.2,4.32.2,6,0l-1.02,3.96c7.47-3.9,4.63-1.4,3.02-5.96-.34-.97.23-2.77,0-4ZM64.34,39.57c1.45,1.45,8.91-.75,7.98-4.96-1.63-7.39-11.84,1.1-7.98,4.96ZM96.32,37.59c-4.7-4.69-11.54,8.48-4.96,9.98,4.9,1.12,6.25-8.69,4.96-9.98ZM24.32,65.57c-.07-2.81.5-5.95-.32-8.66-3.22-10.6-20.05,5.37.32,8.66ZM50.34,63.59l-10.02-.02.02,10c5.72,1.05,14.54-5.26,10-9.98Z"/>
      <path class="cls-1" d="M14.33,95.58c-.17,1.96.26,4.08,0,6-.09.66.13,1.38,0,2-.05.22-3.11,1.49-2,4-7.45-8.05-3.54-7.33-6-14,2.49.89,5.65,1,8,2Z"/>
      <path class="cls-4" d="M14.33,103.58c10.44,10.35,28.21,17.91,43.01,18.15,17.2.29,32.45-12.69,48.98-16.14-.1,7.02-8.45,3.92-6.04,12.61,2.14,7.7,29.34,6.54,30.2,26.35.53,12.21-4.86,10.53,1.85,21.04-11.43,7.26,6.15,17.06,2,2,13.15-3.06,8.75,4.95,11.84,7.12.51.36,11.05,2.77,12.16,2.88-2.64,7.82-32.74,1.28-33.74-.3-1.19-1.87.39-7.01-.25-7.71-1.28-1.41-32.13,3.94-32.18-12.95-.03-7.9,15.57-34.53.04-38-5.4-1.21-13.6,5.76-21.04,6.79-20.11,2.78-44.78-2.66-58.82-17.83-1.11-2.51,1.95-3.78,2-4ZM100.33,153.58c-.33,2.55-5.62,7.16,1.98,10-.08-1.97.21-4.04.02-6,2.82-.54,3.99.73,6,2l-3.98,3.02v2.97c6.67.76,6.49.21,5.98-5.99,2.99,2.83.73,9.75,9.99,5,3.75-1.92,5.03-21.64,4.05-25.59-.42-1.7-16.93-11.9-19.98-9.35-.93.78-3.62,20.48-4.07,23.94ZM142.32,171.59c-2.18-2.18-6.16,1.8-3.98,3.98s6.16-1.8,3.98-3.98Z"/>
      <path class="cls-4" d="M72.33,1.58c3.72.94-1.67,3.71-1.89,6.94-.45,6.61,4.07,8.28,9.88,7.07l2.01-12.01c1.37,2.27.89,9.52,3.22,10.13,3.11.82,8.75-.69,13.32.34,4.18.94,10.52,5.03,12.82,5.16,3.8.21,11.69-9.82,18.78-4.77l1.86,13.15c38.04-2.54,81.03-17.82,116.64,2.35,20.53,11.63,22.81,25.13,35.37,41.64-5.55-6.45-5.96,5.07,3.02,7.96.05-1.33-2.74-7.64-3.02-7.96.24.32,4.14.63,6.93,4.03,1.72,2.1,6.68,12.34,5.06,13.96l-13.97-5.99c4.45,18.31-7.85,33.13-9.8,49.22-1.03,8.45,2.54,31.6-.79,36.29-.72,1.02-3.22.25-3.43.48-.45.5.07,3.66-1.95,4.97-6.17,3.99-20.67,2.3-27.25-.85-3.91-1.87-6.45-7.31-7.63-7.49-5.31-.8-25.58,5.85-28.83-3.95-1.07-3.23.4-14.68-.33-14.68h-36c2.66,7.79,4.69,29.27-6,30,5.09-14.73-2.07-32.52,5.01-45.99l4.14,12.11c20.53-.56,47.53,1.83,63.85-12.08,2.43,1.37,2.22,3.13,2.89,5.15,2.64,7.9,3.93,18.72,4.11,28.81,0,.34-4.39,5.38-.98,6.01,4.44.83,2.85-2.05,2.98-6.01,13.88-6.07,8.31,4.19,13.25,5.89,1.24.43,12.34-1.39,12.75-1.89,1.46-1.71-1.8-36.5.13-44.88,1.3-5.64,4.94-8.49,6.5-13.49,6.99-22.38,4.1-38.23-6.61-55.14-2-3.16-6.92-12.65-8.89-14.59-3.59-3.53-22.94-11.51-28.52-13.26-1.67-.52-4.01,1.38-5.39,1.28s-1.04-3.52-2.58-3.9c-15.56-3.85-72.75,3.41-91.55,6.07-3.87.55-7.74,5.59-13.1,3.88,5.13-6.48,11.76-7.56,9.99-17.97-6.71-.72-11.53,8.85-16.99,9.27-4.16.32-4.68-4.43-7.51-5.84-14.46-7.18-32.26-2.22-42.86,9.16-3.59,3.85-3.54,10.7-11.13,13.88-7.98,3.34-30.61,3.07-35.51,6.49-.77.54-8.76,14.51-9.27,16.3-1.79,6.25-1.72,20.16,5.82,23.19,30.55,10.67,53.92,25.55,79.45-4.47-3.01,14.09-14.51,20.25-27.98,22-2.57.33-5.4-.27-8.01,0v6c-1.29-.16-2.68.12-3.98-.02l1.99-5.97c-14.98,1.43-23.85-11.9-38-4.02.13-.62-.09-1.34,0-2,10.28.2,7.38-2.86,0-6-2.35-1-5.51-1.11-8-2-4.23-11.46-8.47-12.97-5.14-28.14,1.08-4.9,11.64-18.74,15.62-20.52,9.32-4.17,26.52-1.66,34.61-7.24,4.28-2.96,4.71-8.47,7.76-12.24,2.1-2.59,7-3.92,8.25-5.89,3.65-5.76-8.03-13.05,4.9-17.97ZM289.33,81.58v2c1.3-.67,1.3-1.33,0-2ZM232.32,143.58c-5.92,1.14-20.09,1.19-24,5-8.07,7.88,6.11,10.48,11.98,5.01,1.56,9.78,1.41,11.36,12.03,10l-.02-20.01ZM250.32,167.59h-3.98s0,5.99,0,5.99c2.89-.67,4.59-3.23,3.97-5.99Z"/>
      <path class="cls-1" d="M82.33,3.58l-2.01,12.01c-5.81,1.21-10.33-.46-9.88-7.07.22-3.23,5.61-6.01,1.89-6.94,3.87-1.47,6.74-3.41,10,2Z"/>
      <path class="cls-4" d="M24.32,65.57c-20.37-3.29-3.55-19.26-.32-8.66.82,2.71.25,5.85.32,8.66Z"/>
      <path class="cls-4" d="M50.34,63.59c4.54,4.72-4.28,11.03-10,9.98l-.02-10,10.02.02Z"/>
      <path class="cls-2" d="M96.32,37.59c1.29,1.29-.06,11.1-4.96,9.98-6.58-1.5.26-14.67,4.96-9.98Z"/>
      <path class="cls-2" d="M64.34,39.57c-3.86-3.86,6.35-12.35,7.98-4.96.93,4.21-6.52,6.41-7.98,4.96Z"/>
      <path class="cls-5" d="M62.33,107.58c.23,1.23-.34,3.03,0,4-.23.93-1.08,1.89-2,2-1.68.2-4.32.2-6,0v-6c2.6-.27,5.43.34,8,0Z"/>
      <path class="cls-3" d="M134.33,167.58c4.15,15.06-13.43,5.26-2-2,.56.88,1.94,1.77,2,2Z"/>
      <path class="cls-5" d="M242.33,165.58c-.13,3.96,1.46,6.84-2.98,6.01-3.41-.63.99-5.67.98-6.01h2Z"/>
      <path class="cls-4" d="M62.33,111.58c1.61,4.56,4.45,2.06-3.02,5.96l1.02-3.96c.92-.11,1.77-1.07,2-2Z"/>
      <path class="cls-1" d="M100.33,153.58c.45-3.47,3.14-23.16,4.07-23.94,3.04-2.55,19.56,7.64,19.98,9.35.98,3.95-.31,23.67-4.05,25.59-9.26,4.75-7-2.17-9.99-5-.35-.33-1.51.31-2,0-2.01-1.27-3.18-2.54-6-2-.16-1.69-.03-3.45-2-4Z"/>
      <path class="cls-3" d="M102.33,157.58c.19,1.96-.1,4.03-.02,6-7.6-2.84-2.31-7.45-1.98-10,1.97.55,1.84,2.31,2,4Z"/>
      <path class="cls-3" d="M110.33,159.58c.51,6.2.69,6.75-5.99,5.99v-2.97s3.99-3.02,3.99-3.02c.49.31,1.65-.33,2,0Z"/>
      <path class="cls-5" d="M142.32,171.59c2.18,2.18-1.8,6.16-3.98,3.98s1.8-6.16,3.98-3.98Z"/>
      <path class="cls-1" d="M232.32,143.58l.02,20.01c-10.62,1.36-10.47-.23-12.03-10-5.87,5.47-20.06,2.87-11.98-5.01,3.91-3.81,18.07-3.86,24-5Z"/>
      <path class="cls-1" d="M284.33,71.58c.28.32,3.07,6.63,3.02,7.96-8.98-2.89-8.57-14.41-3.02-7.96Z"/>
      <path class="cls-1" d="M289.33,81.58c1.3.67,1.3,1.33,0,2v-2Z"/>
      <path class="cls-5" d="M14.33,95.58c7.38,3.14,10.28,6.2,0,6,.26-1.92-.17-4.04,0-6Z"/>
      <path class="cls-3" d="M250.32,167.59c.62,2.76-1.08,5.32-3.97,5.99v-5.99s3.97,0,3.97,0Z"/>
    </g>
  </g>
</svg>