<?xml version="1.0" encoding="UTF-8"?>
<svg id="Calque_2" data-name="Calque 2" xmlns="http://www.w3.org/2000/svg" viewBox="0 0 189.62 194.38">
  <defs>
    <style>
      .cls-1 {
        fill: #59b3dd;
      }

      .cls-2 {
        fill: #fcf3ea;
      }
    </style>
  </defs>
  <g id="Calque_1-2" data-name="Calque 1">
    <g>
      <path class="cls-1" d="M83.19.74c19.72-2.37,41.74.69,57.39,13.5,6.91,5.66,9.8,13.98,14.15,17.85,6.31,5.63,14.36,5.63,21.78,16.22,43.79,62.5-30.39,152.92-99.67,145.66C-38.23,181.91-14.03,12.43,83.19.74ZM133.63,22.16c-6.21-6.82-23.72-15.82-31.99-8.97l31.99,8.97ZM81.63,34.2c-17.4.89-38.2,16.8-41.98,33.97,6.55-4.81,10.87-12.79,17.03-17.94,7.92-6.63,18.52-8.05,24.95-16.03ZM125.65,112.18c10.9-7.81,15-28.55,4.98-37.96l-1.22,20.75-3.76,17.21ZM84.8,81.41c.8-1.2,3.18-4.09,1.86-5.18-12.59,3.47-19.17,12.91-19.01,25.95,7.87.04,7.78-10.77,10.78-15.27,1.18-1.77,5.11-3.59,6.38-5.49ZM51.62,80.19c-11.69,2.62-12.91,18.07-11.98,27.98,4.42,1.38,6.3-6.81,7.32-9.65,2.09-5.79,3.11-12.36,4.66-18.33ZM109.62,102.19l-11.98,13.19-8.01,4.78c11.51,1.35,22.16-5.48,19.99-17.97ZM141.63,144.16c8.03,6.36,21.18-25.52,19.98-31.98-8.84,8.19-11.67,22.29-19.98,31.98ZM138.63,146.18v2c1.3-.67,1.3-1.33,0-2Z"/>
      <path class="cls-2" d="M81.63,34.2c-6.43,7.98-17.03,9.4-24.95,16.03-6.16,5.15-10.48,13.13-17.03,17.94,3.78-17.16,24.58-33.08,41.98-33.97Z"/>
      <path class="cls-2" d="M125.65,112.18l3.76-17.21,1.22-20.75c10.02,9.41,5.92,30.15-4.98,37.96Z"/>
      <path class="cls-2" d="M51.62,80.19c-1.55,5.97-2.57,12.54-4.66,18.33-1.03,2.84-2.9,11.03-7.32,9.65-.93-9.9.29-25.36,11.98-27.98Z"/>
      <path class="cls-2" d="M141.63,144.16c8.31-9.69,11.14-23.79,19.98-31.98,1.2,6.46-11.95,38.34-19.98,31.98Z"/>
      <path class="cls-2" d="M84.8,81.41c-1.27,1.9-5.19,3.72-6.38,5.49-3,4.5-2.91,15.31-10.78,15.27-.15-13.03,6.43-22.48,19.01-25.95,1.32,1.09-1.06,3.99-1.86,5.18Z"/>
      <path class="cls-2" d="M133.63,22.16l-31.99-8.97c8.26-6.84,25.78,2.15,31.99,8.97Z"/>
      <path class="cls-2" d="M109.62,102.19c2.17,12.49-8.48,19.32-19.99,17.97l8.01-4.78,11.98-13.19Z"/>
      <path class="cls-2" d="M138.63,146.18c1.3.67,1.3,1.33,0,2v-2Z"/>
    </g>
  </g>
</svg>