<?xml version="1.0" encoding="UTF-8"?>
<svg id="Calque_2" data-name="Calque 2" xmlns="http://www.w3.org/2000/svg" viewBox="0 0 125.75 122.41">
  <defs>
    <style>
      .cls-1 {
        fill: #3a72a1;
      }
    </style>
  </defs>
  <g id="Calque_1-2" data-name="Calque 1">
    <g>
      <path class="cls-1" d="M95.37,6.65c17.28-2.56,45.53,34.08,20.44,42.57-33.77,11.43-41.47-39.46-20.44-42.57Z"/>
      <path class="cls-1" d="M111.28,84.98c8.68,7.95,4.49,23.13-3.28,30.46-11.59,10.94-33.43,9.85-31.21-9.21.32-2.73,4.36-15.51,5.73-17.27,5.17-6.65,21.52-10.6,28.76-3.98Z"/>
      <path class="cls-1" d="M43.33,27.74C19.85,46.53,3.24,3.57,32.86.21c21.11-2.39,24.88,16,10.47,27.53Z"/>
      <path class="cls-1" d="M55.39,42.66c19.06-3.39,26.65,22.42,9.27,31.41-24.82,12.84-27.89-28.1-9.27-31.41Z"/>
      <path class="cls-1" d="M19.4,79.8c-10.47,9.42-22.68-6.55-18.59-19.56,6.63-21.06,34.65,5.11,18.59,19.56Z"/>
      <path class="cls-1" d="M35.33,94.71c17.94-5.33,23.22,16.18,8.67,20.74-17.93,5.62-17.63-18.08-8.67-20.74Z"/>
    </g>
  </g>
</svg>