<?xml version="1.0" encoding="UTF-8"?>
<svg id="Calque_2" data-name="Calque 2" xmlns="http://www.w3.org/2000/svg" viewBox="0 0 281.98 227.92">
  <defs>
    <style>
      .cls-1 {
        fill: #4f4647;
      }

      .cls-2 {
        fill: #926651;
      }

      .cls-3 {
        fill: #b07734;
      }

      .cls-4 {
        fill: #f3c954;
      }

      .cls-5 {
        fill: #95994f;
      }

      .cls-6 {
        fill: #eba749;
      }

      .cls-7 {
        fill: #fcf3ea;
      }
    </style>
  </defs>
  <g id="Calque_1-2" data-name="Calque 1">
    <g>
      <path class="cls-3" d="M102.19,8.56c2.39-.15,5.73-.3,8,0l2,2c18.41,4.3,9.18,4.49,17.93,13.05,6.89,6.75,17.46,10.07,18.08,21.91.13,2.47-1.81,5.36-1.44,7.78,1.24,8,6.96,18.57,7.55,27.11,25.83,5.17,57.19-1.34,78.57,16.44,8.15,6.78,5.22,13.24,20.32,11.77,21.67-2.11,21.13-24.28,8.99-38.07.22,0,2.43-1.5,4-2-.79,3.94,3.17,4.79,4,6,.56.82,1.79,1.54,2,2,1.83,4.06,2.86,19.52,2,24-.09.45-1.66,1.2-2,2-.27.65-1.86,3.82-2,4-.54.7-1.37,1.31-2,2-.15.17-2,.1-4,2-6.09,2.32-13.78,4.19-19.99,2.01-1.04,3.2,1.57,5.79,1.99,7.99,3.08,16.41-1.46,26.77,0,41.02,1.73,16.96,9.1,31.87.09,50.06-8.09,16.35-33.34,14.24-30.12-4.01.85-4.82,6.08-5.73,6.17-11.99.05-3.33-6.41-19.58-8.18-21.08-.25-.21-4.21-.74-3.97.99-2,16.38,6.77,39.19-17,39.17-10.21,0-15.88-1.17-13.02-12.77.63-2.57,7.38-2.18,8.04-8.44.45-4.22-4.42-20.92-8.99-21.18l-39.15,3.08c-4.19,18.96.61,32.26-13.87,47.13l-10,4c-1.3.05-2.71.12-4,0l-8-2c-.56-.31-1.17-1.45-2-2-3.53-11.68,6.93-14.26,8.1-22.9.99-7.26,1.16-31.4-7.15-33.06-4.47-.89-2.51,1.82-3.23,4.61-5.84,22.63,1.4,54.3-35.73,43.35-.8-2.01-1.27-4.03-2-6l2-4c.66-.53,3.53-4.93,4-6,1.15-.26,3.44.39,4,0-3.14,4.77-5.23,7.88-4,14,10.68,3.24,9.74-4.13,13.01-6,1.59-.91-.25,5.62,3.96,3.98,10.63-4.15,7.46-37.07,10.71-46.81-3.59-1.63-12.18-10.54-14.72-11.14-4.06-.95-4.67,9.94-4.94,12.99-.65,7.37,2.42,24.48,1.68,27.62-.8,3.39-4.93,4.18-5.7,5.35,1.9-1.33,2.15-7.46,2-10s-1.86-5.75-1.97-8.96c-.22-6.53,1.29-18.74.07-23.8-.59-2.45-3.62-.86-4.1-1.24-9.26-7.53-9.57-2.85-16-6l-4.03-15.99c-4.2-.07-.75,10.28.03,11.99-7.59.67-6.83-8.64-10.08-10.96-1.98-1.42-5.98-.65-7.92-3.04-.38-.46.25-2.81-.02-4l-1.98,2h-5.99c-.43-1.65.51-5.06,0-6,4.88-6.37-.37-5.24-1.27-6.76-1.24-2.08-.54-4.98-.74-5.24-1.2-1.5-3.78,1.93-3.99,2-.97.34-2.77-.23-4,0-.25-.56.26-1.46,0-2-2.47-5.15-4.95-.49-6-10,5.83,1.69,3.94-6.32,6.02-10.98l-1.01-1.01-5.01,3.99c-.07-3.73,1.83-8.12,1.4-10.65-.99-5.78-5.26-2.96-1.4-13.35,4.46.54,7.46-1.57,9.98-5.03,1.42-4.1-3.8-2.71-3.98-2.97-.36-.52.64-3.12-.16-4.37-1.87-2.92-4.78-1-3.84-7.63,6.18,1.56,2.53-4.63,5.29-6.08s9.24-1.45,12.7-1.94c.76-3.56-2.94-1.28-3.99-1.98-2.06-1.37-4.88-2.05-3.99-4.98l9-7.01,4.97,7.99-3.97-15.99,13.95,3.01-3.95-9.01c.62-.6,10.5,1.63,12.45,2.19,1.46.42,1.65,3,2,3.13,1.69.62,6.16-2.36,8.56,2.66l-1-9.98,9,9.98,4-7.98,4.99,3.99c-.33,1.44-1.37,12.22,1.98,11.99,1.25-12.65,9.83-19.25,22.02-19.99ZM114.18,14.58h-3.98v1.96h3.98v-1.96ZM105.19,18.56v2c1.3-.67,1.3-1.33,0-2ZM96.18,26.55l-.98-5.98c-2.12,1.82-3.65,3.03-3,5.98h3.98ZM100.17,30.54c.3-.3,3.14-6.59,3.05-7.94-4.19.77-6.17,11-3.05,7.94ZM43.19,24.56v2c1.3-.67,1.3-1.33,0-2ZM72.17,28.55v-3.98h-1.96v3.98h1.96ZM92.18,34.55l-.98-5.98c-2.12,1.82-3.65,3.03-3,5.98h3.98ZM49.64,37.18c-6.74-5.35-17.64-2.96-17.39,6.45.13,4.85,7.25,6.51,8,12.03.75,5.53-3.21,12.38-3.83,18.11-5.89,53.6,57.32,63.05,74.18,20.19,4.48-11.39,1.44-22.88,3.92-30.08,1.36-3.96,14.61-7.51,8.71-19.32-5.58-11.17-16.51,1.74-19.92,1.92-4.1.21-12.68-4.99-18.28-5.75-8.76-1.18-18.8.39-27.73-.03l-2.1-6.16-1.99,8.01c-1.9-1.08-2.28-4.36-3.57-5.38ZM144.18,44.57l-7.98,2.98,4.96,3,3.01-3.02v-2.96ZM13.19,76.56v2c1.3-.67,1.3-1.33,0-2ZM11.19,80.56v2c1.3-.67,1.3-1.33,0-2ZM134.19,191.56c.98-9.17-.71-19.66,0-29,7.13-1.93,2.71,6.73,3.99,8.02,2.58,2.58,57.72-7.09,66.01-10.04.63-.72-8.17-20.99-.03-13.98.39.34,1.64,7.15,3.23,9.79,9.26,15.38,30.01,35.45,13.75,52.31l1.07,7.88,2.98-7.98c.95,5.05,6.64,13.55,7.01,4,3.41-.31.9,7.6,6.03,3.04,6.89-6.12,9.01-29,7.78-37.88-.85-6.09-5.29-12.48-5.49-18.1-.29-8.2,4.24-18.28,3.5-27.8-1.83-23.57-17.11-36.52-39.31-40.8-5.15-.99-10.29.11-15.28-.72-6.31-1.04-33.98-7.51-36.36-3.86-2.2,3.39-.24,14.95-6.77,20.8-2.19,1.96-5.42.96-5.85,1.47-.98,1.15.31,6.08-.87,9.35-.45,1.26-16.2,16.38-18.46,18.52-3.65,3.45-2.6,7.41-10.12,7.91-3.58.24-7.43-1.91-9.61-1.5-2.68.51-6.92,8.15-13.22,5.57-3.4,2.99,15.08,15.26,17.03,15.97,5.49,1.99.71-6.69,4.94-5.96,7.34,21.23,2.53,42.29,2.05,63.98l4-7.99,1.99,6.01c10.82.53,15.1-20.67,15.99-29.02ZM136.17,114.55v-5.98h-1.96v5.98h1.96ZM100.21,130.56c3.97-1.07,4.5-4.27,3.96-8-3.97,1.07-4.5,4.27-3.96,8ZM102.15,132.6c-.61-.38-2.72.09-3.95-.03-1.46,5.01,3.55,5.12,7.98,5.97-1.47-1.17-3.72-5.75-4.03-5.94ZM204.09,164.62l-17.91,3.96c-1.29,1.4,9.65,22.42,5,29.98-2.03,3.29-14.31,5.38-5.99,11.99l1.99-6.01c.81,8.3,5.76,9.58,5.02.03l1.99,6.01c3.23.25,4.59.44,6.99-2.02,4.54-4.66,7.31-40.9,2.9-43.93ZM110.19,212.58h-3.99s0,7.97,0,7.97h1.96s2.02-7.97,2.02-7.97Z"/>
      <path class="cls-3" d="M256.19,118.56c.95-3.95,6.15-3.14,7.57-4.49,1.08-1.02.19-3.28.43-3.51,1.91-.73,2.21-.76,4-2,.84-.58,1.31-1.33,2-2,1.5-1.44,1.38-3.11,2-4,.5-.72,1.6-1.28,2-2,4.32-7.87,5.68-10.87,1.48-20.58-1.13-2.61-3.23-2.99-3.48-3.42-.48-.8-1.6-1.35-2-2-.77-1.24-.65-4.45-2-6,.53-.18,1.23-1.58,2-2,.14.36,4.22,2.32,5.68,5.27,6.88,13.86,10.38,28.62-3,40.42-6.58,5.8-9.62,4.73-16.68,6.32Z"/>
      <path class="cls-7" d="M64.19,214.56c37.12,10.95,29.89-20.72,35.73-43.35.72-2.78-1.24-5.5,3.23-4.61,8.31,1.66,8.13,25.8,7.15,33.06-1.17,8.63-11.63,11.21-8.1,22.9-1.85-1.22-5.78,2.6-4.01-7.99-6.55,1.94-11.57,5.86-18.99,5.97-1.66.03-14.21-1.79-14.82-2.24-.91-.67.13-2.96-.19-3.75Z"/>
      <path class="cls-2" d="M16.19,112.56c-.94,5.26,4.96,8.11,6,10,.52.94-.43,4.35,0,6h5.99s2,2,2,2c1.95,2.39,5.94,1.63,7.92,3.04,3.24,2.31,2.49,11.63,10.08,10.96.99,2.19,1.87,2.96,4,4,6.43,3.15,6.74-1.53,16,6-8.48,2.68-19.69-1.42-26.07-6.93-3.11-2.69-6.28-9.06-7.98-10.02-3.17-1.8-7.42-.34-11.11-2.89-6-4.15-8.24-16.28-10.85-22.15,1.23-.23,3.03.34,4,0Z"/>
      <path class="cls-2" d="M268.19,54.56c.31.82,1.27,1.49,2,2,.41,2.83-.73,8.09,0,10-.77.42-1.47,1.82-2,2-.6.2-1.39-.19-2,0-1.57.5-3.78,2-4,2-2.32,0-4.03-1.23-6-2,2.93-4.53-7.46-8.1-3.99-11.99,2.74-3.08,9.69,9.71,13.98,7.98-.14-11.64-4.68-22.97-17.98-21.98.29,4.3-.52,8.83-.13,13.11.36,3.93,4.85,7.38,2.12,8.89-10.61-9.32-8.12-14.49-7.99-27.99,13.04,2.53,21.01,5.06,25.99,17.99Z"/>
      <path class="cls-6" d="M96.19,4.56c1.62,1.01,5.31.27,6,4-12.19.74-20.77,7.33-22.02,19.99-3.35.23-2.31-10.55-1.98-11.99,1.75-7.63,10.91-10.97,18-12Z"/>
      <path class="cls-2" d="M12.19,110.56c-18.88,2.71-6.43-22.75-7.93-30.67-.31-1.67-4.66.64-4.23-8.28.29-6.04,3.63-9.79,3.82-12.39.41-5.59-7.68-4.83,1.47-18.53,2.59-3.87,14.11-13.59,14.61-14.5.86-1.56-2.23-4.74-.88-7.62.52-1.13,16.68-11.84,18.25-12.07,6.12-.91,11.54,4.58,13.81,4.06,3.4-.79,1.53-15.77,18.68-8.62,2.43,1.01,2.26,4.6,3.64,4.75,7.06.79,12.28-8.95,20.69-5.14,1.27.57,1.6,2.73,2.07,3.02-7.09,1.03-16.25,4.37-18,12l-4.99-3.99-4,7.98-9-9.98,1,9.98c-2.4-5.03-6.87-2.05-8.56-2.66-.34-.13-.53-2.7-2-3.13-1.95-.57-11.82-2.79-12.45-2.19l3.95,9.01-13.95-3.01,3.97,15.99-4.97-7.99-9,7.01c-.89,2.93,1.93,3.61,3.99,4.98-6.91-1.08-13,2.91-14,10-.94,6.63,1.97,4.71,3.84,7.63.8,1.25-.2,3.86.16,4.37-3.46,1.97-4.67,4.42-6,8-3.87,10.39.41,7.57,1.4,13.35.43,2.53-1.47,6.92-1.4,10.65.05,2.61-.28,5.47,0,8,1.05,9.51,3.53,4.85,6,10Z"/>
      <path class="cls-6" d="M274.19,100.56c.86-4.48-.17-19.94-2-24,.25.42,2.35.8,3.48,3.42,4.2,9.71,2.83,12.71-1.48,20.58Z"/>
      <path class="cls-6" d="M264.19,110.56c-.24.23.65,2.48-.43,3.51-1.42,1.35-6.63.54-7.57,4.49-2.98.67-6.09,3.1-10,2-.41-2.21-3.02-4.8-1.99-7.99,6.21,2.19,13.89.31,19.99-2.01Z"/>
      <path class="cls-6" d="M268.19,108.56c-1.79,1.24-2.09,1.27-4,2,2-1.9,3.85-1.83,4-2Z"/>
      <path class="cls-6" d="M272.19,76.56c-.21-.46-1.44-1.18-2-2,.4.65,1.52,1.2,2,2Z"/>
      <path class="cls-6" d="M268.19,108.56c.63-.69,1.46-1.3,2-2-.69.67-1.16,1.42-2,2Z"/>
      <path class="cls-6" d="M270.19,106.56c.14-.18,1.73-3.35,2-4-.62.89-.5,2.56-2,4Z"/>
      <path class="cls-6" d="M270.19,74.56c-.83-1.21-4.79-2.06-4-6,.61-.19,1.4.2,2,0,1.35,1.55,1.23,4.76,2,6Z"/>
      <path class="cls-6" d="M272.19,102.56c.34-.8,1.91-1.55,2-2-.4.72-1.5,1.28-2,2Z"/>
      <path class="cls-7" d="M74.19,188.56c.15,2.54-.1,8.67-2,10-.56.39-2.85-.26-4,0,1.88-4.28.07-11.54,6-10Z"/>
      <path class="cls-7" d="M126.19,222.56c-.73.75,1.86,5.03-7.39,5.36-1.55.05-2.45-1.36-2.61-1.36l10-4Z"/>
      <path class="cls-3" d="M250.19,64.56c2.73-1.5-1.76-4.95-2.12-8.89-.39-4.28.42-8.81.13-13.11,13.3-.99,17.84,10.34,17.98,21.98-4.29,1.73-11.24-11.06-13.98-7.98-3.47,3.89,6.92,7.46,3.99,11.99-4.58-1.8-3.07-1.43-6-4Z"/>
      <path class="cls-7" d="M112.19,226.56c-3.86-.36-.58,2.06-8-2l8,2Z"/>
      <path class="cls-6" d="M134.19,191.56c-.89,8.35-5.17,29.55-15.99,29.02l-1.99-6.01-4,7.99c.48-21.69,5.3-42.75-2.05-63.98-4.23-.73.55,7.95-4.94,5.96-1.96-.71-20.43-12.98-17.03-15.97,6.29,2.58,10.53-5.06,13.22-5.57,2.18-.41,6.03,1.74,9.61,1.5,7.52-.5,6.47-4.46,10.12-7.91,2.26-2.14,18.01-17.26,18.46-18.52,1.18-3.27-.11-8.2.87-9.35.43-.51,3.66.49,5.85-1.47,6.53-5.84,4.57-17.41,6.77-20.8,2.37-3.65,30.05,2.82,36.36,3.86,4.99.82,10.13-.27,15.28.72,22.21,4.27,37.49,17.22,39.31,40.8.74,9.53-3.79,19.6-3.5,27.8.2,5.63,4.64,12.01,5.49,18.1,1.23,8.88-.89,31.76-7.78,37.88-5.13,4.56-2.62-3.35-6.03-3.04-.37,9.56-6.06,1.05-7.01-4l-2.98,7.98-1.07-7.88c16.26-16.86-4.49-36.93-13.75-52.31-1.59-2.64-2.84-9.46-3.23-9.79-8.14-7.01.66,13.25.03,13.98-8.29,2.94-63.43,12.61-66.01,10.04-1.29-1.28,3.14-9.95-3.99-8.02-.71,9.34.98,19.83,0,29Z"/>
      <path class="cls-6" d="M49.64,37.18c1.28,1.02,1.67,4.3,3.57,5.38l1.99-8.01,2.1,6.16c8.93.42,18.98-1.15,27.73.03,5.6.76,14.17,5.96,18.28,5.75,3.41-.18,14.35-13.09,19.92-1.92,5.89,11.81-7.35,15.36-8.71,19.32-2.48,7.2.57,18.69-3.92,30.08-16.86,42.86-80.07,33.41-74.18-20.19.63-5.73,4.58-12.59,3.83-18.11-.75-5.53-7.87-7.18-8-12.03-.25-9.41,10.65-11.8,17.39-6.45ZM46.18,46.55c.64-3.78-2.34-6.63-5.98-5.98v5.98s5.98,0,5.98,0ZM120,54.35c.45-.72,1.02-5.64-.79-5.78l-9.01,7.97c1.95.31,9.29-1.38,9.8-2.19ZM62.19,82.56c-.51.07-1.31,1.77-2,2-4.07,1.34-7.72-.72-9.47,7.52-3.88,18.19,17.89,21.94,31.47,16.48.62.07,1.38.06,2,0,12.02-1.19,11.05-15.28-2-22-7.25-3.73-6.54-4.27-16-4l5-32.02c-5.76,9.58-8.16,20.92-9,32.02ZM58.18,64.57h-2.96c-3.14,2.11-3.49,4.29-3.02,7.98h5.98s0-7.98,0-7.98ZM98.18,70.57c-3.17-3.17-9.15,2.81-5.98,5.98s9.15-2.81,5.98-5.98Z"/>
      <path class="cls-6" d="M72.19,198.56c.77-1.17,4.9-1.97,5.7-5.35.74-3.14-2.33-20.25-1.68-27.62.27-3.05.88-13.94,4.94-12.99,2.54.6,11.12,9.5,14.72,11.14-3.24,9.74-.07,42.66-10.71,46.81-4.21,1.64-2.37-4.89-3.96-3.98-3.27,1.87-2.33,9.24-13.01,6-1.22-6.13.86-9.23,4-14Z"/>
      <path class="cls-6" d="M204.09,164.62c4.4,3.04,1.63,39.27-2.9,43.93-2.4,2.46-3.76,2.28-6.99,2.02l-1.99-6.01c.74,9.55-4.21,8.27-5.02-.03l-1.99,6.01c-8.33-6.61,3.96-8.7,5.99-11.99,4.65-7.56-6.29-28.58-5-29.98l17.91-3.96Z"/>
      <path class="cls-6" d="M16.19,112.56c.21-.07,2.78-3.5,3.99-2,.21.26-.49,3.16.74,5.24.91,1.52,6.15.39,1.27,6.76-1.04-1.89-6.94-4.74-6-10Z"/>
      <path class="cls-6" d="M12.19,60.56c.18.26,5.4-1.13,3.98,2.97-2.53,3.46-5.52,5.57-9.98,5.03,1.33-3.58,2.54-6.03,6-8Z"/>
      <path class="cls-6" d="M52.19,148.56c-2.13-1.04-3.01-1.81-4-4-.77-1.71-4.23-12.06-.03-11.99l4.03,15.99Z"/>
      <path class="cls-6" d="M6.19,92.56l5.01-3.99,1.01,1.01c-2.08,4.65-.2,12.67-6.02,10.98-.28-2.53.05-5.39,0-8Z"/>
      <path class="cls-6" d="M22.19,38.56c1.05.7,4.75-1.58,3.99,1.98-3.47.49-9.87.45-12.7,1.94s.9,7.65-5.29,6.08c1-7.09,7.09-11.08,14-10Z"/>
      <polygon class="cls-5" points="144.18 44.57 144.17 47.53 141.16 50.55 136.2 47.55 144.18 44.57"/>
      <path class="cls-6" d="M100.21,130.56c-.54-3.73-.02-6.93,3.96-8,.54,3.73.02,6.93-3.96,8Z"/>
      <path class="cls-6" d="M92.18,34.55h-3.98c-.65-2.95.88-4.16,3-5.98l.98,5.98Z"/>
      <polygon class="cls-6" points="110.19 212.58 108.17 220.55 106.21 220.55 106.2 212.57 110.19 212.58"/>
      <path class="cls-6" d="M96.18,26.55h-3.98c-.65-2.95.88-4.16,3-5.98l.98,5.98Z"/>
      <path class="cls-6" d="M102.15,132.6c.31.19,2.56,4.77,4.03,5.94-4.43-.85-9.44-.97-7.98-5.97,1.22.12,3.34-.34,3.95.03Z"/>
      <rect class="cls-6" x="134.21" y="108.57" width="1.96" height="5.98"/>
      <path class="cls-5" d="M30.19,130.56l-2-2,1.98-2c.27,1.18-.35,3.53.02,4Z"/>
      <path class="cls-6" d="M100.17,30.54c-3.13,3.06-1.15-7.18,3.05-7.94.1,1.35-2.74,7.65-3.05,7.94Z"/>
      <rect class="cls-2" x="70.21" y="24.57" width="1.96" height="3.98"/>
      <rect class="cls-6" x="110.2" y="14.58" width="3.98" height="1.96"/>
      <path class="cls-6" d="M11.19,80.56c1.3.67,1.3,1.33,0,2v-2Z"/>
      <path class="cls-6" d="M13.19,76.56c1.3.67,1.3,1.33,0,2v-2Z"/>
      <path class="cls-6" d="M105.19,18.56c1.3.67,1.3,1.33,0,2v-2Z"/>
      <path class="cls-2" d="M43.19,24.56c1.3.67,1.3,1.33,0,2v-2Z"/>
      <path class="cls-4" d="M60.19,84.56c.11,8.79,12.21,7.59,10,16-2.95,1.79-6.82,3.24-10.07,1.09-1.69-1.12-1.53-7.49-3.96-4.06.44,7.82,10.13,12.78,14.03,4.97h2c.22.7,1.43,1.36,2,2,.61.68.74,2.3,2.06,2.98,2.3,1.19,3.79.77,5.94,1.02-13.59,5.46-35.35,1.72-31.47-16.48,1.76-8.24,5.4-6.19,9.47-7.52Z"/>
      <path class="cls-4" d="M82.19,86.56c13.05,6.72,14.02,20.81,2,22l3.98-10c-.63-.8-7.62,8.83-13.98,6-.2-.09-.55-3.34-2-4-.16-1.09-.17-2.93,0-4h4s0-4,0-4c3.35-1.24,6.17-.22,6-6Z"/>
      <path class="cls-1" d="M66.19,82.56c9.46-.27,8.75.27,16,4,.17,5.78-2.65,4.76-6,6-.98.36-3.4-.53-3.97.03-.46.46.15,2.78-.03,3.97-.17,1.07-.16,2.91,0,4,.1.69-.17,1.46,0,2h-2v-2c2.21-8.41-9.89-7.21-10-16,.69-.23,1.49-1.93,2-2,1.24-.18,2.69.04,4,0Z"/>
      <path class="cls-3" d="M66.19,82.56c-1.31.04-2.76-.18-4,0,.84-11.1,3.24-22.44,9-32.02l-5,32.02Z"/>
      <path class="cls-3" d="M84.19,108.56c-.62.06-1.38.07-2,0-2.15-.24-3.63.17-5.94-1.02-1.33-.69-1.45-2.3-2.06-2.98,6.36,2.83,13.35-6.8,13.98-6l-3.98,10Z"/>
      <path class="cls-3" d="M74.19,104.56c-.57-.64-1.78-1.3-2-2-.17-.54.1-1.31,0-2,1.45.66,1.8,3.91,2,4Z"/>
      <path class="cls-1" d="M58.18,64.57v7.98s-5.98,0-5.98,0c-.47-3.69-.12-5.87,3.02-7.97h2.96Z"/>
      <path class="cls-3" d="M120,54.35c-.51.81-7.85,2.5-9.8,2.19l9.01-7.97c1.81.14,1.25,5.07.79,5.78Z"/>
      <path class="cls-1" d="M98.18,70.57c3.17,3.17-2.81,9.15-5.98,5.98s2.81-9.15,5.98-5.98Z"/>
      <path class="cls-4" d="M46.18,46.55h-5.98s0-5.98,0-5.98c3.64-.65,6.62,2.2,5.98,5.98Z"/>
      <path class="cls-3" d="M70.19,100.56v2c-3.9,7.82-13.59,2.85-14.03-4.97,2.43-3.43,2.27,2.93,3.96,4.06,3.25,2.15,7.12.7,10.07-1.09Z"/>
      <path class="cls-5" d="M76.19,92.56v4s-4,0-4,0c.19-1.19-.42-3.51.03-3.97.56-.56,2.99.33,3.97-.03Z"/>
    </g>
  </g>
</svg>