<?xml version="1.0" encoding="UTF-8"?>
<svg id="Calque_2" data-name="Calque 2" xmlns="http://www.w3.org/2000/svg" viewBox="0 0 202.56 300.2">
  <defs>
    <style>
      .cls-1 {
        fill: #978497;
      }

      .cls-2 {
        fill: #4f4647;
      }

      .cls-3 {
        fill: #939daf;
      }

      .cls-4 {
        fill: #eba749;
      }

      .cls-5 {
        fill: #596b79;
      }

      .cls-6 {
        fill: #fcf3ea;
      }
    </style>
  </defs>
  <g id="Calque_1-2" data-name="Calque 1">
    <g>
      <path class="cls-2" d="M154.51,113.96c1.81.93,10.55,10.05,11.3,10.09,2.27.15,5.84-2.33,6.5-1.92.59.37,1.44,5.67,3.18,5.8.27.02,4.85-1.76,5.02-1.98-8.02,33.71-16.85,53.95-52,64-3.99,1.14-14.27,3.54-18,4-1.93.24-4.04-.15-6,0-1.32.1-2.67-.03-4,0-1.94.04-4.09.19-6,0-2.5-.25-5.91.51-8,0-1.81-.44-19.91-8.84-22.65-10.36-16.75-9.27-18.46-19.39-25.35-35.64-.58-1.36-1.4-2.64-2-4,6.31-4.61,3.82-8.26,7.13-13.87,2.36-3.98,4.81-8.72,6.87-12.13.12-.19,2.77-1.34,4-2,3.38-1.81,12.58-7.39,14-8,29.31-12.63,58.17-8.29,86,6ZM116.5,105.97h-3.98c-.65,2.95.88,4.16,3,5.98l.98-5.98ZM81.51,131.96v2c1.3-.67,1.3-1.33,0-2ZM78.5,133.97c-2.35-2.2-12.21,8-9.98,9.98h13.98c.44-4.2-6.73-.94-7.99-2-4.27-3.57,7.99-4.23,3.99-7.98ZM131.53,144l-2.98,2.98c-.04,2.1,5-1.19,2.98-2.98ZM144.5,143.97c-2.18-2.18-6.16,1.8-3.98,3.98s6.16-1.8,3.98-3.98ZM68.51,153.96l2,6v2h-3.99s.01,2.97.01,2.97l3.28,2.83c1.51.37,2.46-1.79,2.7-1.8,4.29-.25,7.9.48,11.98-2-1.87,19.61,23.62,4.98,32.02-2,2.93-2.44,3.6-3.29,6-6l5.96-5.02-.94-.94c-2.27,1.49-3.38,4.11-5.02,5.96-2.48.2-4.6,3.41-6,4-2.7,1.15-18.61,5.32-19.99,3.99l3.01-11.95c-3.15,1.92-16.76,7.95-19.01,5.95l5.99-11.97c-8.65,1.71-15.35,3.17-23.99-.01-1.16,3.03,4.2,7.91,5.99,7.99Z"/>
      <path class="cls-3" d="M174.51,11.96c-3.09,5.18-5.95,10.39-2,16-.27.08-2.71,2.85-4,4-2.1,1.87-4.19,2.44-5.19,5.91-3.06,10.62,9.96,37.94,15.19,48.09.15.29,2.45.69,3.52,3.39,5.05,12.72,1.4,24.3-1.52,36.61,5.72-7.45-7.75-10.65-12-12,2.25-9.09-5.19-5.07-6.01-6.01-.68-.79,2.46-14.42,1.78-20.78-2.05-19-24.07-61.33-13.9-78.33,3.71-6.2,11.68-5.88,17.63-3.35,3.82,1.62,5.6,5.99,6.49,6.48ZM164.5,11.97c-12.36-2.12-2.49,8.66,0,5.98v-5.98Z"/>
      <path class="cls-1" d="M128.51,189.96c.7,8.89-6.56,17.98-7.62,25.53-2.21,15.68,13.07,37.35,15.43,53.2l22.2,5.28c2.05,12.06-9.76,7.15-8.03,15.97-1.36,1.46-21.37-6.9-22.97-9.99-1.47-2.86-.76-6.98-2-10-6.29-15.18-21.17-42.71-19.01-57.99.55-3.91,7.34-14.14,4-18,3.73-.46,14.01-2.86,18-4Z"/>
      <path class="cls-1" d="M94.51,193.96c-9.66,6.73-8.16,20.95-13.8,30.96l10.8,45.06c.73-9.26.17-21.92-.88-31.13-.54-4.73-4.23-7.13-3.83-11.36.87-9.3,15.64-22.15,13.71-33.53,1.33-.03,2.68.1,4,0,.2,6.78-3.62,12.12-6,18s-6.17,9.47-6.18,16.99c-.01,5.8,6.58,50.87,8.66,52.55,2.81,2.28,16.21,2.95,18.61,6.38,6.04,8.62-5.58,4.98-6.99,6.27-.87.79.4,5.28-.1,5.82-1.79,1.9-21.62-7.81-23.8-11.2-2.28-3.57-5.22-35.14-6.75-43.25-1.14-6.05-5.5-12.57-5.5-18.55,0-8.82,8.66-23.45,10.05-33,2.09.51,5.5-.25,8,0ZM94.5,273.95c-6.67-1.97-4.06,8.32-2.67,11.55,1.18,2.72,7.23,5.62,8.66,4.45,3.76-3.07-4.99-4.87-5.73-7.22-.84-2.68-.12-5.96-.27-8.78Z"/>
      <path class="cls-1" d="M176.51,11.96c-.61-.24-1.52.27-2,0-.89-.49-2.67-4.85-6.49-6.48-5.95-2.53-13.92-2.84-17.63,3.35-10.17,17,11.85,59.33,13.9,78.33.69,6.36-2.46,20-1.78,20.78.81.94,8.26-3.08,6.01,6.01-3.9-1.24-11.28.4-10-6,14.01-13.16-25.56-78.41-12.14-101.14,6.14-10.4,29.79-9.07,30.14,5.14Z"/>
      <path class="cls-5" d="M40.51,89.96l14,26c-1.23.66-3.88,1.81-4,2-2.29-5.84-9.7-23.76-15.03-25.98-3.75-1.56-3.32,2.37-2.87,4.86,1.07,5.93,5.74,10.9,5.88,17.12-.81,1-16.45-11.67-21.11-11.99-7.27-.49-6.8,2.72-4.87,7.99l19.99,13.01-27.99,3.01c4.24,9.76,18.06,2.14,22,9.96-1.98.13-4.01-.1-6,.02-2.43.14-5.67.28-8,0-20-2.39-14.04-19.36,4-18.02-2.1-1.81-3.24-7.05-4-7.98-.29-.35-3.87-.06-5.03-1.88-7.77-12.19,13.56-10.72,21.03-8.13-4.57-13.74.84-13.2,12.01-9.99Z"/>
      <path class="cls-4" d="M172.51,27.96c-3.95-5.61-1.09-10.82,2-16,.48.27,1.39-.24,2,0,4.97,1.96,27.37,2.87,25.99,8.97-7.28,9.06-22.43,4.87-29.99,7.03Z"/>
      <path class="cls-6" d="M158.51,107.96c-1.28,6.4,6.1,4.76,10,6,4.25,1.35,17.72,4.55,12,12-.16.21-4.75,2-5.02,1.98-1.73-.13-2.59-5.43-3.18-5.8-.66-.42-4.23,2.06-6.5,1.92-.76-.05-9.49-9.16-11.3-10.09-1.88-7.85,3.34-5.38,4-6Z"/>
      <path class="cls-1" d="M178.51,85.96c-5.22-10.14-18.25-37.47-15.19-48.09,1-3.48,3.08-4.04,5.19-5.91-3.48,17.54,7.4,36.37,10,54Z"/>
      <path class="cls-1" d="M20.51,135.96c2.5,6.23-5.57,7.25-6,9.01-2.42,9.85,17.4,2.35,22-1.01.6,1.36,1.42,2.64,2,4-14.86,8.82-33.32,11.14-26-12,2.33.28,5.57.14,8,0Z"/>
      <path class="cls-6" d="M110.51,193.96c3.34,3.86-3.45,14.09-4,18h-8c2.38-5.88,6.2-11.22,6-18,1.96-.15,4.07.24,6,0Z"/>
      <path class="cls-6" d="M50.51,117.96c-2.06,3.41-4.51,8.15-6.87,12.13-3.31,5.61-.82,9.25-7.13,13.87-4.6,3.37-24.43,10.86-22,1.01.43-1.76,8.5-2.78,6-9.01,1.99-.12,4.02.11,6-.02-3.94-7.82-17.76-.19-22-9.96l27.99-3.01-19.99-13.01c-1.93-5.27-2.4-8.48,4.87-7.99,4.66.31,20.3,12.98,21.11,11.99-.13-6.22-4.81-11.19-5.88-17.12-.45-2.49-.88-6.42,2.87-4.86,5.33,2.22,12.74,20.14,15.03,25.98Z"/>
      <path class="cls-6" d="M68.51,153.96c-1.79-.08-7.14-4.96-5.99-7.99,8.64,3.18,15.34,1.73,23.99.01l-5.99,11.97c2.26,2.01,15.86-4.02,19.01-5.95l-3.01,11.95c1.38,1.33,17.29-2.84,19.99-3.99v2c-8.4,6.98-33.88,21.61-32.02,2-4.08,2.48-7.69,1.75-11.98,2l-2-4v-2c9.9-12.22,1.29-5.85-2-6ZM87.51,161.96v2c1.3-.67,1.3-1.33,0-2Z"/>
      <path class="cls-3" d="M100.51,193.96c1.93,11.37-12.84,24.23-13.71,33.53-.39,4.23,3.3,6.63,3.83,11.36,1.04,9.21,1.61,21.87.88,31.13l-10.8-45.06c5.64-10.02,4.14-24.24,13.8-30.96,1.91.19,4.06.04,6,0Z"/>
      <path class="cls-3" d="M78.5,133.97c3.99,3.75-8.26,4.41-3.99,7.98,1.26,1.06,8.44-2.21,7.99,1.99h-13.98c-2.23-1.97,7.63-12.17,9.98-9.97Z"/>
      <path class="cls-5" d="M68.51,153.96c3.29.15,11.9-6.22,2,6l-2-6Z"/>
      <path class="cls-5" d="M70.51,161.96l2,4c-.24.01-1.19,2.17-2.7,1.8l-3.28-2.83v-2.96s3.98,0,3.98,0Z"/>
      <path class="cls-1" d="M116.5,105.97l-.98,5.98c-2.12-1.82-3.65-3.03-3-5.98h3.98Z"/>
      <path class="cls-1" d="M144.5,143.97c2.18,2.18-1.8,6.16-3.98,3.98s1.8-6.16,3.98-3.98Z"/>
      <path class="cls-3" d="M116.51,161.96v-2c1.4-.59,3.52-3.8,6-4-2.4,2.71-3.07,3.56-6,6Z"/>
      <path class="cls-1" d="M131.53,144c2.02,1.79-3.02,5.08-2.98,2.98l2.98-2.98Z"/>
      <path class="cls-1" d="M122.51,155.96c1.64-1.85,2.75-4.47,5.02-5.96l.94.94-5.96,5.02Z"/>
      <path class="cls-3" d="M81.51,131.96c1.3.67,1.3,1.33,0,2v-2Z"/>
      <path class="cls-2" d="M164.5,11.97v5.98c-2.49,2.68-12.36-8.1,0-5.98Z"/>
      <path class="cls-3" d="M94.5,273.95c.15,2.82-.57,6.11.27,8.78.73,2.34,9.49,4.15,5.73,7.22-1.44,1.17-7.49-1.72-8.66-4.45-1.4-3.23-4-13.52,2.67-11.55Z"/>
      <path class="cls-2" d="M87.51,161.96c1.3.67,1.3,1.33,0,2v-2Z"/>
    </g>
  </g>
</svg>