<?xml version="1.0" encoding="UTF-8"?>
<svg id="Calque_2" data-name="Calque 2" xmlns="http://www.w3.org/2000/svg" viewBox="0 0 241.62 228.38">
  <defs>
    <style>
      .cls-1 {
        fill: #978497;
      }

      .cls-2 {
        fill: #4f4647;
      }

      .cls-3 {
        fill: #939daf;
      }

      .cls-4 {
        fill: #8b9a99;
      }

      .cls-5 {
        fill: #596b79;
      }

      .cls-6 {
        fill: #fcf3ea;
      }
    </style>
  </defs>
  <g id="Calque_1-2" data-name="Calque 1">
    <g>
      <path class="cls-2" d="M72.77,5.75v2c-1.44,1.23-3.44,5.63-5.22,7.86-2.69,3.36-6.57-.1-2.79,8.12-2.51,1.22-2.32-8.53-5.97-4-.78.97,1.19,9.63-3.99,10.01l-4.01-4-4,5.99-1.99-9.98-1.05,8.01c-12.03-4.7-21.21,16.07-30.97,20.02-1.12,1.47,3.78,3.44,4,3.96.65,1.52,1.92,8.99,1.85,10.84-.56,14.79-11.28.65-13.84,3.17,4.11,22.12,17.24,11.88,21.99-4.01,1.07,1.55,1.31,2.69,2,4l.96,8.04-4.97-1.03.03,8.99c3.42.18,6.64-5.39,7.98-6,1.44-.66,4.12-1.34,6-2,1.43-.51,4.35.45,6,0,3.86-1.05,9.31-2.89,12-6,.62,1.72,2.75,3.38,2.03,6,3.41,3.34,34.16-40.67,15.97-46,.28-1.17-.26-2.8,0-4,1.28-5.87,7.35-11.72,4-18,1.12.28,2.73-.19,4,0,.69,5.19,1.1,5.84,4,10-1.55,2.96-4.77,4.44-3.99,7.99h2.97s5.02-5.99,5.02-5.99c2.69,3.14,7.22,10.55,10,14-.68.62-1.51,1.22-2,2-3.26-.37-6.01.28-7.98,3.03v2.96c2.51.9,4.79-1.86,5.98-1.99,2.61-.29,5.38.2,8,0,3.45,5.62-13.3,5.43-7.99,9.99,2.62,2.25,6.51-7.75,11.99-3.99,6.7,11.06,16.2,21.35,16.09,35.91,34.42-1.13,67.34-14.23,90.31,20.7,8.39,12.75,9.5,26.85,15.18,38.82,6.33,13.37,17.9,11.53,6.39,30.56-13.26-1.85-15.68-17.62-12.34-28.56l-9.59-19.41c-2.24,12.79-7.82,25.28-5.54,38.52,1.12,6.51,5.47,10.79,5.71,18.45.42,13.44-7.32,27.93-6.12,41.67-25.8,11.92-16.51-7.86-16.07-22.66,1.5-.16,3.38,1.92,4,2l1.16,10.04,8.85-.02c.28-3.28-.4-6.76-.01-10.01.24-1.95-.13-4.03,0-6s2.99-5.12,2.13-8.75c-.47-1.99-4.01-1.07-4.13-1.25-.17-.25-.18-5.72,0-6s5.83-.91,5.96-2.98c.45-7.04-12.55-8.22-17.95-7.04l11.66-9.13-1.69-8.85c-.71-.78-20.19,15.78-16.02,3,.4-1.23,12.57-6.48,15.78-10.26,4.05-4.77,5.85-12.54,6.25-18.73-2.71-3.51-23.45,23.19-25,23.99-7.57,3.88,1.53-12.92,3.03-14.98,4.68-6.4,21.43-17.61,23.11-21.06,1.9-3.89-4.19-9.31-3.14-13.95l-10.82,10.18-22.13,33.81c-12.7-6.02,16.26-39.26,19.41-46.55,4.17-9.65-2.23-8.54-10.41-11.43-5.53,14.97-11.38,29.75-16.05,45.06-.93,3.03,2.3,6-3.96,4.93.28-16.38,3.98-33.68,10.02-48.99,1.55-4.96-9-3.7-10.26-1.84-3.61,5.36-8.08,64.39-5.76,66.83l19.99-3.12c4.37,10.81,14.51,19.27,16,31.12h-2c-.41-1.09-2.2-4.63-3.97-3.99-3.75,6.25-9.31,41.77-12.36,43.63-2.2,1.34-13.07.92-14.81-1.51-3.78-5.27,2.02-13.36,3.15-18.14h4c-3.19,14.75,16.48,8.11,4,0,.69-.12,1.46.18,2,0,1.35-.46,3.56-1.79,3.98-3.01,2.43-7.2-3.37-4.36-7.98-4.99-.64-.09-2.49-2.16-4-2,3.01-15.13,3.76-19.05-5.98-31.15l-41.92,3.26c-.92,10.09-3.27,20.9-4.08,30.91-.7,8.65,3.56,31.89-5.43,34.59-20.16,6.06-12.1-16.41-12.49-26.66-.44-11.43-3.98-22.54-4.1-34.94l4-2c0,7.32,0,14.69,0,22.01,6.25-.51,14.3,2.78,16.05-4.97,2.26-10.02-10.94-.7-14.04-9.01,24.16-1.98,12.86-7.81-2-12.02v-2c.34,0,1.82-2.23,4.43-1.68,4.8,1.01,8.31,5.88,13.56,5.68.07-5.74.46-15.23-2.98-20s-5.77,4.93-8.96,3.03c4.42-7.82,7.17-15.89,5.94-25.01l-13.47,21.49c-1.33,4.81-3.32,9.71-4.51,14.5-1.2-.77-2.96-1.17-4-2-4.46-3.55-7.28-8.81-11.98-12,.52,3.12-1.12,9.52.26,11.71.53.85,19.66,5.67-.29,6.29l.02,5.99,6.01,4-6.01,1,3.98,4.02-6.01,1c-1.76,6.76,5.17,2.35,6.03,5.01,1.66,5.16-5.45,1.37-6.15,4.06-3.13,12.19,6.15,8.11,6.15,9.92-8.54.86-5.98,3.15-6.01,11h7.98c-.06-7.96.91-16.16,2.01-24h2c-1.2,8.33,2.32,28.99-1.82,34.71-2.74,3.79-14.66,4.64-15.81-2.15l3.6-75.54c-5.3-20.21-11.53-40.16-13.98-61.02-16.03,1.21-31.84,17.81-47.01,6.04-16.15-12.53-3.48-28.87,6-40.06,3.65-4.31,21.1-19.36,21.95-21.85,1.09-3.18-3.29-8.98,1.08-12.12,8.3,14.91,3.48,1.93,4-2,.03-.22,1.81-3.88,2-4C43.34,3.41,55.01.04,55.68,0c5.73-.24,11.71,4.33,17.09,5.75ZM63.79,7.79l-2.98,2.98c-.04,2.1,5-1.19,2.98-2.98ZM82.77,67.75c1.52-1.91,13.16-22.41,5-21.96-1.59.09-12.27,22.52-17,26.95-3.71,3.47-9.63,4.62-10.01,5.03-1.14,1.25,2.01,3.75,2,3.97-.02.66-.01,1.34,0,2,.08,4.46-2.57,14.23,3.97,17.99,3.63-10.45,14.47-14.98,16.03-25.99.36-2.52-.24-5.41,0-8ZM100.77,65.75c-7-13.83-7.1.98-9.19,5.81-2.93,6.76-7,14.98-10.49,21.51-4.67,8.74-15.51,16.44-12.03,27.36.62,1.94,2.48,3.79,4.67,3.31,2.07-.45,22.24-21.79,24.69-25.33,3.8-5.48,17.93-24.91,4.34-26.66-.12-2.16-1.04-4.11-2-6ZM108.34,117.33c1.09-1.3.42-5.26,1.4-7.53,1.98-4.61,11.89-23.3,10.06-26.06-1.28-1.93-2.78-2.35-5.01-1.99-3,12.4-13.17,27.52-21.97,37.05-4.25,4.6-21.07,15.01-17.77,20.7l9.7,6.25c2.5-9.53,9.48-19.94,17.03-26.07,1.92-1.56,5.81-1.46,6.56-2.35ZM120.77,101.75l-4.02,1,4.02,1c-.09.65.12,1.36,0,2-8.8-.65-3.97,8.21-4,10-.16,8.91-2.09,31.75,1.93,38.71,1.62,2.8,5.62.8,8.06,1.3.57-14.37-2.58-27.48-1.99-42.01,5.04,1.59,5.48,3.14,8-2l3.98,15.99c-2.6-8.15,2.68-14.47,4.02-19.99l6-2c-3.38,7.36-12.87,38.01-13.09,44.98-.28,8.93,15.09,3.95,15.09,3.02v-29c0-6.45,6.78-22.01,8-29,.42-2.4-.27-5.45-.02-8.01-3.88,2.56-6.63.29-9.98,0-.18-.01-1.01-1.67-2.86-1.78-5.22-.3-11.32,1.87-9.14,7.78-.63-4.99-3.61-4.91-6-6-.48-.22-.51-3.04-3.99-1.99,0,4.57.03,13.2-4.01,15.99ZM216.75,115.74v-3.98h-1.96v3.98h1.96ZM217.77,117.75v2c1.3-.67,1.3-1.33,0-2ZM174.76,151.76c-14.16-1.17-13.23,13.18-1.33,6.01,2.71-1.63,1.03-3.67,1.33-6.01ZM180.72,161.75c-17.13,2.52-15.09,11.94,2.03,9.99l-2.03-9.99ZM180.76,175.75c-7.08-.94-12.87,2.17-11.98,10l12,.02-.02-10.02ZM108.75,189.8l-11.96-2.05-.03,10.01,12.02-.02-.03-7.94ZM108.78,201.75h-10.02v10.02h10.02v-10.02Z"/>
      <path class="cls-6" d="M88.77,155.75c1.19-4.79,3.18-9.69,4.51-14.5l13.47-21.49c1.23,9.13-1.51,17.19-5.94,25.01,3.2,1.89,5.55-7.76,8.96-3.03s3.05,14.26,2.98,20c-5.25.2-8.76-4.66-13.56-5.68-2.61-.55-4.09,1.68-4.43,1.68-.69.01-3.52-2.73-3.98-2.01-.12,2.65.09,5.35-.02,8.01h-2c.52-2.28-.55-5.79,0-8Z"/>
      <path class="cls-5" d="M204.77,179.75c-.18.28-.17,5.75,0,6h-8.01s0,10.01,0,10.01h10.01c-.13,1.96.24,4.04,0,5.99-3.27-.28-6.76.41-10,0-.62-.08-2.5-2.16-4-2,.2-6.72.41-13.58-2-20h2c3.66,2.73,7.92.29,12,0Z"/>
      <path class="cls-5" d="M88.77,155.75c-.55,2.21.52,5.72,0,8-1.09,4.78-5.6,15.24-6,18h-2c1.3-9.28,3.31-18.62,4-28,1.04.83,2.8,1.23,4,2Z"/>
      <path class="cls-1" d="M168.77,191.75c-.83,4.13.36,6.19,4,8-.54.18-1.31-.12-2,0-1.14.21-2.71,0-4,0h-4c.71-3.03,1.37-6.83,2-10,1.51-.16,3.36,1.91,4,2Z"/>
      <path class="cls-3" d="M40.77,7.75c-.52,3.93,4.3,16.91-4,2v-2l1.02-1.99,2.98,1.99Z"/>
      <path class="cls-5" d="M72.77,5.75c1.26-1.08,1.65-3.52,3.42-3.99,8.33-2.21,5.95,1.2,6.58,5.99-1.27-.19-2.88.28-4,0-1.52-.38-2.26-3.21-6,0v-2Z"/>
      <path class="cls-5" d="M90.77,19.75l-5.02,5.99h-2.97c-.78-3.55,2.44-5.03,3.99-7.99.13.18,2.36.09,4,2Z"/>
      <path class="cls-5" d="M104.77,39.75c1.7,2.43,1.57,1.99,4,6-5.48-3.76-9.37,6.24-11.99,3.99-5.32-4.56,11.44-4.37,7.99-9.99-2.62.2-5.39-.29-8,0,.73-1.29,1.22-2.75,2-4,.49-.78,1.32-1.38,2-2,2.28,2.84,2.6,3.99,4,6Z"/>
      <path class="cls-4" d="M94.77,157.75v6l-4,2c0-.66-.03-1.34,0-2,.11-2.66-.1-5.36.02-8.01.46-.73,3.29,2.02,3.98,2.01Z"/>
      <path class="cls-6" d="M192.77,179.75c-1.49-11.85-11.62-20.32-16-31.12l-19.99,3.12c-2.32-2.44,2.15-61.48,5.76-66.83,1.26-1.86,11.81-3.12,10.26,1.84-6.03,15.31-9.74,32.61-10.02,48.99,6.27,1.07,3.04-1.9,3.96-4.93,4.67-15.31,10.53-30.09,16.05-45.06,8.18,2.9,14.58,1.78,10.41,11.43-3.15,7.29-32.11,40.53-19.41,46.55l22.13-33.81,10.82-10.18c-1.05,4.64,5.04,10.06,3.14,13.95-1.68,3.45-18.43,14.66-23.11,21.06-1.51,2.06-10.61,18.86-3.03,14.98,1.55-.8,22.29-27.5,25-23.99-.4,6.2-2.19,13.97-6.25,18.73-3.21,3.78-15.38,9.03-15.78,10.26-4.17,12.79,15.32-3.78,16.02-3l1.69,8.85-11.66,9.13c5.4-1.18,18.41,0,17.95,7.04-.13,2.07-5.78,2.7-5.96,2.98-4.08.29-8.34,2.73-12,0Z"/>
      <path class="cls-6" d="M78.77,7.75c3.35,6.28-2.72,12.13-4,18-12.07-1.18-6.97,11.42-8.21,18.79-.92,5.49-3.32,10.6-3.81,16.19,3.06,1.62,5.63-5.72,6.41-7.59,3.48-8.31,3.78-15.64,5.61-23.39,18.19,5.33-12.56,49.35-15.97,46,.72-2.63-1.41-4.28-2.03-6-1.84-5.07-1.7-19.93-5-19.96-5.54-.06-.02,21.25-7,23.96-.61-6.25,3.16-17.96-5.99-17.99v19.99c-1.89.66-4.57,1.34-6.01,2,2.3-6.18-3.01-8.13-4-10-.69-1.31-.93-2.45-2-4-3.03-4.39-3.3-7.63-10-10-.22-.51-5.12-2.49-4-3.96,9.77-3.95,18.94-24.72,30.97-20.02l1.05-8.01,1.99,9.98,4-5.99,4.01,4c5.18-.38,3.21-9.04,3.99-10.01,3.66-4.54,3.46,5.22,5.97,4-3.78-8.22.1-4.76,2.79-8.12,1.79-2.23,3.79-6.63,5.22-7.86,3.74-3.21,4.48-.38,6,0ZM52.76,45.74c.64-3.78-2.34-6.63-5.98-5.98v5.98s5.98,0,5.98,0Z"/>
      <path class="cls-6" d="M108.34,117.33c-.75.89-4.64.79-6.56,2.35-7.55,6.13-14.54,16.53-17.03,26.07l-9.7-6.25c-3.3-5.68,13.52-16.09,17.77-20.7,8.8-9.53,18.97-24.65,21.97-37.05,2.23-.37,3.73.06,5.01,1.99,1.83,2.77-8.07,21.45-10.06,26.06-.98,2.27-.31,6.23-1.4,7.53Z"/>
      <path class="cls-6" d="M156.77,95.75c-1.22,6.99-8,22.55-8,29v29c0,.93-15.37,5.9-15.09-3.02.22-6.97,9.71-37.62,13.09-44.98,1.75-3.82,6.1-6.99,6.04-12l3.96,2Z"/>
      <path class="cls-6" d="M100.77,65.75c-5.48,7.16-7.39,17.07-12.28,24.73-2.82,4.42-9.56,7.43-11.69,14.29,12.43-3.26,26.67-20.55,25.96-33.02,13.59,1.75-.54,21.18-4.34,26.66-2.46,3.54-22.63,24.87-24.69,25.33-2.2.48-4.06-1.37-4.67-3.31-3.48-10.92,7.36-18.62,12.03-27.36,3.49-6.53,7.56-14.75,10.49-21.51,2.09-4.83,2.2-19.64,9.19-5.81Z"/>
      <path class="cls-6" d="M128.77,87.75c-1.6,8.25-3.66,17.65-4,26-.59,14.53,2.56,27.64,1.99,42.01-2.44-.5-6.45,1.5-8.06-1.3-4.02-6.96-2.09-29.79-1.93-38.71,2.83-2.53,3.36-6.48,4-10,.12-.64-.09-1.35,0-2v-2c4.04-2.79,4-11.42,4.01-15.99,3.48-1.05,3.5,1.77,3.99,1.99Z"/>
      <path class="cls-6" d="M80.77,181.75c-1.1,7.85-2.07,16.05-2.01,24.01h-7.98c.02-7.86-2.54-10.15,6.01-11.01,0-1.81-9.28,2.27-6.15-9.92.69-2.69,7.81,1.1,6.15-4.06-.86-2.66-7.79,1.75-6.03-5.01l6.01-1-3.98-4.02,6.01-1-6.01-4-.02-5.99c19.95-.62.82-5.45.29-6.29-1.37-2.19.27-8.6-.26-11.71,4.7,3.18,7.52,8.45,11.98,12-.69,9.38-2.7,18.72-4,28Z"/>
      <path class="cls-6" d="M94.77,159.75c14.86,4.21,26.16,10.04,2,12.02,3.1,8.31,16.3-1,14.04,9.01-1.75,7.75-9.8,4.46-16.05,4.97,0-7.32,0-14.69,0-22.01v-4Z"/>
      <path class="cls-5" d="M102.77,71.75c.71,12.47-13.53,29.76-25.96,33.02,2.12-6.86,8.86-9.86,11.69-14.29,4.89-7.67,6.8-17.57,12.28-24.73.96,1.89,1.88,3.84,2,6Z"/>
      <path class="cls-5" d="M16.77,53.75c6.7,2.37,6.97,5.61,10,10-4.75,15.89-17.88,26.13-21.99,4.01,2.56-2.52,13.28,11.62,13.84-3.17.07-1.85-1.2-9.32-1.85-10.84Z"/>
      <path class="cls-6" d="M146.77,87.75c-6.35,5.89-4.47,13.7-6,20-1.34,5.52-6.62,11.84-4.02,19.99l-3.98-15.99c-.26-6.11,2.79-11.82,2-18-2.18-5.91,3.92-8.08,9.14-7.78,1.86.11,2.68,1.76,2.86,1.78Z"/>
      <path class="cls-6" d="M82.77,67.75c-4.24,5.32-13.68,11.24-20,14,0-.22-3.14-2.72-2-3.97.38-.41,6.3-1.56,10.01-5.03,4.73-4.43,15.41-26.87,17-26.95,8.16-.45-3.48,20.06-5,21.96Z"/>
      <path class="cls-6" d="M82.77,75.75c-1.56,11.01-12.4,15.53-16.03,25.99-6.54-3.76-3.89-13.53-3.97-17.99,7.86.59,12.84-6.29,20-8Z"/>
      <path class="cls-5" d="M74.77,25.75c-.26,1.2.28,2.83,0,4-1.83,7.76-2.13,15.09-5.61,23.39-.78,1.87-3.35,9.21-6.41,7.59.5-5.58,2.89-10.69,3.81-16.19,1.24-7.37-3.87-19.97,8.21-18.79Z"/>
      <path class="cls-5" d="M128.77,87.75c2.39,1.09,5.37,1.01,6,6,.79,6.18-2.26,11.89-2,18-2.52,5.14-2.96,3.59-8,2,.34-8.35,2.4-17.75,4-26Z"/>
      <path class="cls-5" d="M146.77,87.75c3.35.28,6.1,2.55,9.98,0-.25,2.56.43,5.61.02,8.01l-3.96-2c.06,5.01-4.28,8.19-6.04,12l-6,2c1.53-6.3-.35-14.11,6-20Z"/>
      <path class="cls-1" d="M56.77,69.75c-2.69,3.11-8.14,4.95-12,6v-2c6.98-2.71,1.46-24.02,7-23.96,3.3.03,3.16,14.89,5,19.96Z"/>
      <path class="cls-5" d="M44.77,73.75v2c-1.65.45-4.57-.51-6,0v-19.99c9.16.03,5.39,11.74,6,17.99Z"/>
      <path class="cls-6" d="M204.77,185.75c.12.18,3.65-.73,4.13,1.25.86,3.63-2,6.8-2.13,8.75h-10.01s0-10.01,0-10.01h8.01Z"/>
      <path class="cls-6" d="M180.76,175.75l.02,10.02-12-.02c-.89-7.82,4.91-10.94,11.98-10Z"/>
      <path class="cls-6" d="M180.72,161.75l2.03,9.99c-17.12,1.94-19.17-7.47-2.03-9.99Z"/>
      <rect class="cls-6" x="98.76" y="201.75" width="10.02" height="10.02"/>
      <path class="cls-6" d="M206.77,201.75c-.39,3.25.3,6.74.01,10.01l-8.85.02-1.16-10.04c3.24.41,6.73-.28,10,0Z"/>
      <polygon class="cls-6" points="108.75 189.8 108.78 197.75 96.76 197.77 96.79 187.76 108.75 189.8"/>
      <path class="cls-5" d="M82.77,75.75c-7.16,1.71-12.14,8.59-20,8-.01-.66-.02-1.34,0-2,6.32-2.76,15.76-8.68,20-14-.24,2.59.36,5.48,0,8Z"/>
      <path class="cls-5" d="M32.77,77.75c-1.34.61-4.56,6.18-7.98,6l-.03-8.99,4.97,1.03-.96-8.04c.99,1.87,6.3,3.82,4,10Z"/>
      <path class="cls-3" d="M174.76,151.76c-.3,2.34,1.38,4.38-1.33,6.01-11.9,7.17-12.83-7.18,1.33-6.01Z"/>
      <path class="cls-3" d="M170.77,199.75c12.48,8.11-7.19,14.75-4,0,1.29,0,2.86.21,4,0Z"/>
      <path class="cls-6" d="M168.77,191.75c4.6.62,10.41-2.21,7.98,4.99-.41,1.22-2.62,2.56-3.98,3.01-3.64-1.81-4.83-3.87-4-8Z"/>
      <path class="cls-5" d="M120.77,105.75c-.64,3.52-1.17,7.47-4,10,.03-1.79-4.8-10.65,4-10Z"/>
      <path class="cls-4" d="M98.77,35.75c-.78,1.25-1.27,2.71-2,4-1.19.13-3.47,2.89-5.99,1.99v-2.96c1.97-2.75,4.73-3.4,7.99-3.03Z"/>
      <rect class="cls-3" x="214.79" y="111.77" width="1.96" height="3.98"/>
      <polygon class="cls-5" points="120.77 101.75 120.77 103.75 116.75 102.75 120.77 101.75"/>
      <path class="cls-3" d="M217.77,117.75c1.3.67,1.3,1.33,0,2v-2Z"/>
      <path class="cls-5" d="M63.79,7.79c2.02,1.79-3.02,5.08-2.98,2.98l2.98-2.98Z"/>
      <path class="cls-5" d="M52.76,45.74h-5.98s0-5.98,0-5.98c3.64-.65,6.62,2.2,5.98,5.98Z"/>
    </g>
  </g>
</svg>