<?xml version="1.0" encoding="UTF-8"?>
<svg id="Calque_2" data-name="Calque 2" xmlns="http://www.w3.org/2000/svg" viewBox="0 0 133.5 161.85">
  <defs>
    <style>
      .cls-1 {
        fill: #4f4647;
      }

      .cls-2 {
        fill: #926651;
      }

      .cls-3 {
        fill: #b07734;
      }

      .cls-4 {
        fill: #f3c954;
      }

      .cls-5 {
        fill: #95994f;
      }

      .cls-6 {
        fill: #eba749;
      }

      .cls-7 {
        fill: #fcf3ea;
      }
    </style>
  </defs>
  <g id="Calque_1-2" data-name="Calque 1">
    <g>
      <path class="cls-4" d="M24.14,27.33l2-2-2,2Z"/>
      <path class="cls-4" d="M24.14,27.33c2.44,1.88-1.32,1.75,8,6,3.14,1.43,7.25,1.61,5.99,5.99l-9.98,4c3.86-.33,8.27.51,11.99.01-2.71,9.95-1.78,19.89-2,30-1.18,10.26-11.31,17.67-12.1,27-.69,8.16,1.11,14.22,10.1,9,0,.95,1.68,7.74,2,8-11.65,8.03-4.12,23.56,0,33.98-.74.58-6.84-1.34-8-1.98-8.6-4.79-13.92-20.14-15.51-29.49-2.35-13.79,4.98-6.29,5.64-9.6,1.3-6.5-1.51-10.71-2.13-14.91-1.46-9.86-2.89-18.92-2.07-29.07.92-11.38,9.36-20.4-1.93-24.93-6.73-2.7-2.68-2.67-4-4-.85-2.43,2.68-9.52,4-10,.81-.29,9.6-.31,10,0Z"/>
      <path class="cls-4" d="M52.14,15.33c0,1.33-.01,2.67,0,4-1.12-.25-3.6.37-4,0-1.11-1.02.22-7.58-6.7-5.77-8.25,2.16-.24,16.06-15.3,11.77,5.24-11.18-6-15.96-14-8,.25-2.48-.53-5.96,0-8,10.49-1.21,14.7,3.78,18.99,3.94,8.62.32,7.15-10.04,21.01,2.06Z"/>
      <path class="cls-2" d="M18.14,95.33c-.62-2.49-2.82-6.91-3.98-11.1-.88-3.2,2.14-5.91-4.01-4.89l.93,20.2,7.04,1.79c-.22-1.88.43-4.37.02-6,.62,4.2,3.43,8.41,2.13,14.91-.66,3.31-8-4.18-5.64,9.6,1.59,9.34,6.91,24.7,15.51,29.49-8.34,1.38-12.32-13.05-15.48-19.6-1.31-2.72,1.27-5.5-4.51-4.39-2.59,11.06,4.51,15.25,7.98,23.97l-11.99,6c6.82-.66,14.24-1.04,20.98-2.03,3.51-.52,3.35,1.06,3.02-3.95,1.16.64,7.26,2.56,8,1.98-4.12-10.42-11.65-25.95,0-33.98.31.25,7.48-.55,3.98,3.96-.2.26-3.64,0-5.62,3.32-7.13,11.97,4.37,19,3.81,25.7l-6.17,7c14.21-.01,21.12,3.9,25.16-12.09,10.77,3.99,18.99,8.78,30.83,10.12,1.3.15,2.68-.06,4,0,1.96.1,4.04.1,6,0,7.6-.39,6.6-4.01-2-4-1.33,0-2.67,0-4,0v-4c9.01.87,29.43.08,36.74,2.26s-2.12,8.71-7.85,9.62c-17.6,2.79-47.57,1.73-61.9-9.87-1.29-.44-1.7,7.79-3.92,10.05-2.69,2.72-26.93,2.76-32.2,2.11-3.81-.47-2.71-4.01-3.72-3.95-3.67.22-17.16,5.27-19.12-1.29s7.86-8.36,8.16-10.2c.53-3.3-4.73-10.42-4.39-17.8.33-7.09,4.87-9.98,4.36-17.91-.48-7.37-6.4-13.07-6.21-21.94.33-15.24,14.97-31.74,10.07-47.09,11.29,4.53,2.85,13.55,1.93,24.93-.82,10.16.61,19.21,2.07,29.07Z"/>
      <path class="cls-2" d="M58.14,33.33c-8.27,29.28,4.8,45.22,9.45,73.55,1.61,9.84-2.38,21.1,5.51,28.49,5.21,4.87,15.05,5.26,19.04,11.96-1.31-.12-2.7.16-4,0-9.42-1.19-19.28-6.64-23.76-15.24-3.26-6.26.41-12.59-8.24-10.77.24-6.65,8.84-4.46,6.02-13.99l-8.01-3.98c12.59-1.59,11.31-10.53-1.99-8.04l5.99-4c-5.64-15.6-6.68-33.35-10-49.99,4.13-1.71,3.43-5.48,4-6,.61-.55,4.99.48,4.04-3.98l1.96,1.98Z"/>
      <path class="cls-5" d="M26.14,1.33c7.97,5.92,18.94,2.88,28,8,.58,1.28,1.46,1.98,2,4,.3,1.14-.3,2.84,0,4-1.16-.78-3.05-1.17-4-2-13.86-12.11-12.39-1.75-21.01-2.06-4.29-.16-8.51-5.15-18.99-3.94C14.09,1.77,20.97,2.36,26.14,1.33Z"/>
      <path class="cls-2" d="M12.14,17.33c-.57,5.58-3.78,7.59,2,10-1.32.48-4.85,7.57-4,10-.23-.23-2.61.77-3.93-1.48C4.5,32.96-.39,19.6.02,16.37c.59-4.61,7.88-6.55,12.12-7.04-.53,2.04.25,5.52,0,8Z"/>
      <path class="cls-1" d="M60.14,27.33c-.53-1.9-2.72-5.01-4-10-.3-1.16.3-2.86,0-4,12.35-2.47,18.34,14.22,4,14Z"/>
      <path class="cls-6" d="M56.14,17.33c1.28,4.99,3.47,8.1,4,10,.94,3.37-1.64,4.71-2,6l-1.96-1.98c.95,4.46-3.43,3.43-4.04,3.98-3.39-.28-3.62-5.72-4-6,5.15-2.3,4.05-5.21,4-10-.01-1.33,0-2.67,0-4,.95.83,2.84,1.22,4,2Z"/>
      <path class="cls-2" d="M26.14,1.33c10.77-2.15,22.96-3.02,28,8-9.06-5.12-20.03-2.08-28-8Z"/>
      <path class="cls-3" d="M92.14,147.33c.66.06,1.34-.06,2,0v8c-1.32-.06-2.7.15-4,0l-2-8c1.3.16,2.69-.12,4,0Z"/>
      <path class="cls-6" d="M48.14,41.33c3.33,16.64,4.37,34.4,10,49.99l-5.99,4c13.3-2.49,14.58,6.45,1.99,8.04l8.01,3.98c2.82,9.52-5.78,7.34-6.02,13.99,8.66-1.82,4.98,4.51,8.24,10.77,4.48,8.6,14.34,14.05,23.76,15.24l2,8c-11.84-1.33-20.06-6.12-30.83-10.12-4.04,15.99-10.95,12.08-25.16,12.09l6.17-7c.55-6.7-10.94-13.74-3.81-25.7,1.98-3.32,5.42-3.06,5.62-3.32,3.5-4.51-3.67-3.71-3.98-3.96s-2-7.05-2-8c.04-8.39,6.71-10.4,7.98-17.99-3.82.3-4.01,7.91-6.52,9.46-1.48.91-7.13,1.59-9.41,1.56-.19-9.27,9.41-16.88,11.12-23.03.99-3.58-1.18-5.11-1.16-6,.22-10.11-.71-20.05,2-30,.41-.06,7.62-1.84,8-2ZM50.11,87.32c.53-.45,2.26-8.17,2.01-9.99-6.3,1.52-7.61,14.72-2.01,9.99Z"/>
      <path class="cls-1" d="M26.14,25.33l-2,2c-.4-.31-9.19-.29-10,0-5.78-2.41-2.57-4.42-2-10,8-7.96,19.24-3.18,14,8ZM22.13,19.34c-2.18-2.18-6.16,1.8-3.98,3.98s6.16-1.8,3.98-3.98Z"/>
      <path class="cls-1" d="M48.14,19.33h-3.99s0,5.99,0,5.99h3.98s.01-5.99.01-5.99c.4.37,2.88-.25,4,0,.05,4.79,1.15,7.7-4,10-4.89-3.65-13.14-1.95-16,4-9.32-4.25-5.56-4.12-8-6l2-2c15.06,4.29,7.05-9.61,15.3-11.77,6.92-1.81,5.59,4.74,6.7,5.77Z"/>
      <path class="cls-7" d="M48.14,29.33c.38.28.61,5.72,4,6-.57.52.13,4.29-4,6-.38.16-7.59,1.94-8,2-3.72.5-8.13-.35-11.99-.01l9.98-4c1.26-4.38-2.85-4.56-5.99-5.99,2.86-5.95,11.11-7.65,16-4Z"/>
      <path class="cls-3" d="M38.14,73.33c-.02.89,2.16,2.41,1.16,6-1.7,6.15-11.31,13.76-11.12,23.03,2.28.04,7.94-.65,9.41-1.56,2.51-1.55,2.7-9.16,6.52-9.46-1.27,7.59-7.94,9.6-7.98,17.99-8.99,5.22-10.79-.84-10.1-9,.79-9.33,10.92-16.75,12.1-27Z"/>
      <path class="cls-3" d="M30.14,149.33c.34,5.01.49,3.43-3.02,3.95-6.75.99-14.17,1.37-20.98,2.03l11.99-6c-3.48-8.71-10.57-12.9-7.98-23.97,5.78-1.12,3.19,1.66,4.51,4.39,3.16,6.56,7.14,20.98,15.48,19.6Z"/>
      <path class="cls-5" d="M18.14,95.33c.41,1.63-.24,4.12-.02,6l-7.04-1.79-.93-20.2c6.15-1.02,3.13,1.68,4.01,4.89,1.16,4.19,3.36,8.61,3.98,11.1Z"/>
      <path class="cls-6" d="M98.14,151.33l2,4c-1.96.1-4.04.1-6,0v-4c1.33,0,2.67,0,4,0Z"/>
      <path class="cls-3" d="M98.14,151.33c8.6,0,9.6,3.61,2,4l-2-4Z"/>
      <path class="cls-3" d="M50.11,87.32c-5.6,4.73-4.29-8.47,2.01-9.99.25,1.82-1.48,9.54-2.01,9.99Z"/>
      <polygon class="cls-5" points="48.14 19.33 48.13 25.32 44.15 25.32 44.15 19.34 48.14 19.33"/>
      <path class="cls-2" d="M22.13,19.34c2.18,2.18-1.8,6.16-3.98,3.98s1.8-6.16,3.98-3.98Z"/>
    </g>
  </g>
</svg>