<?xml version="1.0" encoding="UTF-8"?>
<svg id="Calque_2" data-name="Calque 2" xmlns="http://www.w3.org/2000/svg" viewBox="0 0 180.56 145.67">
  <defs>
    <style>
      .cls-1 {
        fill: #f28c34;
      }

      .cls-2 {
        fill: #fcf3ea;
      }
    </style>
  </defs>
  <g id="Calque_1-2" data-name="Calque 1">
    <g>
      <path class="cls-1" d="M132.22,82.04c1.46,1.39,22.28-6.96,29.12,4.02,2.48,3.98-7.07,13.54-4.29,18.01,3.54,5.71,19.81,2.45,22.72,15.41,1.54,6.84,1.57,23.63-6.95,26.19l-100.71-4.51c-8.48-2.33-5-10.47-6.79-17.21-3.13-11.81-5.73-26.78-20.38-27.83-15.99-1.14-21.64,29.61-37.52,29.89-1.62.03-7.02-1.5-7.37-3.23-1.1-5.44,16.49-45.39,19.69-54.18,6.77-18.55,12.83-42.3,20.35-59.66,2.58-5.94,7.36-11.25,14.08-7.88l42.01,56.06c8.29,5.18,25.83-10.67,35.23-3.24,7.22,5.71-.23,27.18.81,28.17ZM116.2,70.05c-10.34-.23-20.69,8.31-30.8,1.81-5.31-3.42-18.73-30.91-26.12-37.87-2.86-2.7-4.43-4.8-9.05-3.93l-19.98,53.03c34.99-16.26,48.28,13.66,54.15,42.77l74.81,4.2c14.84-9.28-3.71-8.46-10.98-11.02-14.25-5.01-10.06-10.24-8.03-22.96-24.79,2.59-25.6-2.91-24-26.02Z"/>
      <path class="cls-2" d="M116.2,70.05c-1.6,23.11-.79,28.61,24,26.02-2.03,12.72-6.21,17.95,8.03,22.96,7.26,2.56,25.82,1.74,10.98,11.02l-74.81-4.2c-5.87-29.11-19.16-59.03-54.15-42.77l19.98-53.03c4.62-.86,6.19,1.24,9.05,3.93,7.39,6.96,20.81,34.46,26.12,37.87,10.11,6.5,20.46-2.04,30.8-1.81Z"/>
    </g>
  </g>
</svg>