<?xml version="1.0" encoding="UTF-8"?>
<svg id="Calque_2" data-name="Calque 2" xmlns="http://www.w3.org/2000/svg" viewBox="0 0 278.48 192.5">
  <defs>
    <style>
      .cls-1 {
        fill: #978497;
      }

      .cls-2 {
        fill: #4f4647;
      }

      .cls-3 {
        fill: #939daf;
      }

      .cls-4 {
        fill: #8b9a99;
      }

      .cls-5 {
        fill: #596b79;
      }

      .cls-6 {
        fill: #fcf3ea;
      }
    </style>
  </defs>
  <g id="Calque_1-2" data-name="Calque 1">
    <g>
      <path class="cls-3" d="M102.07,16.24c.81-.98,21.1-9.15,23.49-9.54,26.59-4.29,38.49,32.13,31.49,53.52-1.14,3.49-3.57,7.35-5.41,10.62-2.08,3.68-22.32,29.12-24.05,29.94-17.05,8.11-24.09-15.27-31.48-24.55-.83,18.3,11.41,33.76,30.94,29.95,5.31-1.04,27.56-28.9,31-34.99,8.86-15.69,9.89-26.64,3.59-43.5-2.17-5.81-6.26-9.74-7.53-15.45,16.68,1.23,31.81-3.4,48.08.9,4.79,1.26,25.03,10.45,27.91,13.09.72.65,10.18,14.2,11.1,15.9,2.19,4.06,9.67,23.38,10.45,27.56.83,4.46-.26,36.33-1.55,38.54-9.03,15.53-6.62,14.32-8,32-.11,1.38-1.85,3.94-2.01,6.9-.5,9.1,3.27,31.99-4.46,35.62-12.54,5.89-8.14-2.95-11.49-5.51-2.16-1.66-15.5-3.87-16.16-6.26-1.08-3.94.74-12.07-.1-17.53-1.32-8.57-5.79-16.38-5.79-25.23-7.48-2.02-2.29,8.04-4.09,9.92s-33.48,4.54-38.43,3.62c-5.59-1.04-8.31-4.86-13.45-5.51-4.01,12.17.9,37.01-2.29,46.71-1.24,3.76-7.35,4.07-10.7,3.38-2.08-.42-.26-5-1.17-5.84-.7-.65-16.98-1.89-17.99-5.5-1.41-5.06,3.52-19.64,1.14-26.8l-5-15.96v43c0,1.21-4.82,4.18-5.98,3.01-.29-.29.55-4.78-1.98-7-2.7-2.37-11.62-2.57-12.05-3.02-.54-.58,1.91-6.57,2.01-8.98.55-13.07,1.78-28.26-4.04-39.97l10.55,6.91c2.48,9.84,14.98,4.73,11.47.06-.34-.46-2.65,1.71-4.97.19-4.42-2.9-15.18-14.94-18.04-16.18-3.52-1.52-3.2,1.87-2.97,3.98-2.23,1.02-5.46-1.97-6-2,8.29-7.51-11.46-14.6-14.81-14.16-2.05.26-5.09,11.16-7.09,13.27-.67.71-9.53,8.48-10.1,8.9-1.56,1.14-9.73-1.24-8.02,6.98.46,2.19,7.58,2.45,8.03,3.05.58.77-5.41,11.17.12,18.85,3.97,5.52,17.86,7.4,17.87-2.87.47.14,4.07,4.48,6.1,5.07-4.34,12.25-12.95,13.52-24.1,14.93-8.6-1.86-15.96-6.12-8-13.98-3.15.1-8.49.38-9.99-3.03-3.93-8.94,10.08-1,7.98-8.97l-10-.02c-2.63-9.81,6.7-3.68,10-9.97h-12c-.48-7.18.69-14.95.01-22.02h11.99c.36-9.51-13.46,2.78-9.99-12,3.32,0,6.67.03,9.99-.02.14-4.36-8.89-.83-10-1.97-.24-.25-.1-3.62-.07-5.01.51-18.45,3.79-52.04,15.19-66.89,5.46-7.11,18.23-12.99,26.89-14.11,13.15-1.7,21.65,2.46,34,4-.44.96.46,3.56,0,4-.29.28-8.21-.23-3.99,3.99s3.74-3.68,3.99-3.99ZM62.08,68.23c3.29,3.29,12.68-5.11,4.97-7.97-6.9-2.56-5.83,7.11-4.97,7.97ZM77.48,74.6c-6.87,2.04-8.32,11.84,1.59,11.82,12.02-.03,12.38-15.96-1.59-11.82Z"/>
      <path class="cls-5" d="M84.07,114.24c-.23-2.12-.55-5.5,2.97-3.98,2.86,1.23,13.62,13.27,18.04,16.18,2.32,1.52,4.62-.65,4.97-.19,3.51,4.67-8.99,9.78-11.47-.06l-10.55-6.91c5.82,11.71,4.59,26.9,4.04,39.97-.1,2.41-2.56,8.41-2.01,8.98.43.45,9.35.65,12.05,3.02,2.54,2.23,1.69,6.71,1.98,7,1.16,1.17,5.98-1.8,5.98-3.01v-43l5,15.96c2.38,7.16-2.55,21.74-1.14,26.8,1.01,3.61,17.29,4.85,17.99,5.5.91.84-.91,5.42,1.17,5.84,3.35.68,9.46.38,10.7-3.38,3.19-9.7-1.73-34.54,2.29-46.71,5.14.66,7.86,4.47,13.45,5.51,4.95.92,36.68-1.79,38.43-3.62s-3.39-11.94,4.09-9.92c0,8.84,4.48,16.65,5.79,25.23.84,5.46-.98,13.59.1,17.53.66,2.4,13.99,4.61,16.16,6.26,3.35,2.57-1.06,11.4,11.49,5.51,7.74-3.63,3.97-26.52,4.46-35.62.16-2.96,1.9-5.51,2.01-6.9h2c-1.76,11.21,4.95,42.06-6.06,46.94-2.78,1.23-15.45,3.2-18.69,2.99-7.32-.47-11.66-5.89-16.74-7.43-6.43-1.95-22.74.06-24.51-9.49-1.46-7.92,2.28-18.44-.02-26.99-9.41-.15-18.89.95-27.96-2.01-1.37,1.6-.41,36.83-2.99,42.02-3.1,6.25-19.86,6.84-25.92,5.85-6.91-1.13-8.75-6.38-12.52-7.47-6.37-1.83-19.56,1.99-23.63-6.42-1.94-4.01,3.87-34.8,3.11-45.06-.51-6.98-3.41-12.75-4.07-18.93ZM202.06,142.23l-20.12,5.22c1.3,8.46-4.01,18.6,6.12,21.48,2.18.62,5.3-1.01,5.81-.63,2.7,1.97-.94,13.16,8.19,9.95.86-12.66,3.29-23.32,0-36.02ZM94.06,172.25h-3.98s0,5.99,0,5.99c2.89-.67,4.59-3.23,3.97-5.99ZM100.06,174.25h-3.98v5.98h3.98v-5.98ZM212.06,178.25c-2.18-2.18-6.16,1.8-3.98,3.98s6.16-1.8,3.98-3.98ZM120.06,180.25c-3.17-3.17-9.15,2.81-5.98,5.98s9.15-2.81,5.98-5.98ZM222.06,180.25c-2.18-2.18-6.16,1.8-3.98,3.98s6.16-1.8,3.98-3.98ZM130.06,182.25c-2.01-2.04-8.03,3.9-5.98,5.98s8.03-3.9,5.98-5.98Z"/>
      <path class="cls-5" d="M230.07,26.24c10.61,9.22,14.08,7.82,20,24,1.87,5.12,3.13,10.58,4,16,2.35,14.7,2.09,27.24,0,42h-4c1.29-2.21,2.38-34.08,1.55-38.54-.78-4.18-8.25-23.5-10.45-27.56-.92-1.7-10.38-15.25-11.1-15.9-2.88-2.64-23.12-11.82-27.91-13.09-16.27-4.3-31.4.32-48.08-.9,1.28,5.7,5.36,9.64,7.53,15.45,6.3,16.86,5.27,27.82-3.59,43.5-3.44,6.09-25.69,33.95-31,34.99-19.52,3.81-31.77-11.65-30.94-29.95,7.39,9.28,14.43,32.67,31.48,24.55,1.73-.83,21.98-26.27,24.05-29.94,1.85-3.27,4.27-7.13,5.41-10.62,7-21.39-4.9-57.81-31.49-53.52-2.38.38-22.68,8.56-23.49,9.54-.25.31.21,8.19-3.99,3.99s3.7-3.71,3.99-3.99c.46-.44-.44-3.04,0-4,.54-1.18,1.97-2.33,2-4,7.14.45,17.14-7.69,27.43-7.37,6.67.21,13.12,7.02,19.57,7.55,5.47.45,10.53-2.17,15.92-2.26,23.11-.37,42.15.7,61,15.24,1.86,1.43,1.75,4.56,2.08,4.85Z"/>
      <path class="cls-3" d="M44.07.24c3.26.38,9.86,2.18,8,6-.14.1.34,2.74-.6,3.3-29.11,17.58-24.49,41.41-27.4,70.7-5.92,1.21-3.51-2.96-4.53-6.37-5.84-19.58-10.47-42.14,3.45-59.77.39-.5,8.51-8.49,9.07-8.78,5.12-2.67,13.04,2.15,12.01-5.08Z"/>
      <path class="cls-5" d="M68.07,6.24v2c-8.65,1.12-21.43,7-26.89,14.11-11.4,14.85-14.68,48.43-15.19,66.89-.04,1.39-.17,4.76.07,5.01,1.11,1.14,10.14-2.39,10,1.97-3.32.05-6.67.02-9.99.02-1.33,0-2.67,0-4,0,.24-3.96-.36-8.06,0-12,.04-.44,1.81-2.13,2-4,2.91-29.29-1.71-53.12,27.4-70.7.94-.57.46-3.21.6-3.3.66-.46,12.2.38,16,0Z"/>
      <path class="cls-4" d="M250.07,50.24c12.39,5.22,15.9,21.47,21.13,31.87,3.29,6.53,11.43,7.68,4.68,19.93-21.35,2.23-2-30.25-21.81-35.8-.87-5.42-2.13-10.88-4-16Z"/>
      <path class="cls-4" d="M44.07.24c1.03,7.23-6.89,2.41-12.01,5.08-.56.29-8.68,8.29-9.07,8.78-13.92,17.63-9.28,40.19-3.45,59.77,1.02,3.41-1.39,7.58,4.53,6.37-.19,1.87-1.96,3.56-2,4C3.13,61.58,3.6-4.44,44.07.24Z"/>
      <path class="cls-5" d="M46.07,120.24c.58-.42,9.43-8.19,10.1-8.9,1.99-2.1,5.04-13,7.09-13.27,3.35-.43,23.09,6.66,14.81,14.16-8.96-.47-7.04,5.86-10.06,8.86-4.14,4.11-16.64,7.37-17.67,10.41l-.27,16.74c4.27,1.58,9.13-1.78,12-2.01.59-.05,1.53-.15,2,0,0,10.27-13.89,8.39-17.87,2.87-5.53-7.67.47-18.07-.12-18.85-.45-.6-7.58-.86-8.03-3.05-1.72-8.21,6.46-5.84,8.02-6.98-.67.57-4.29,5.76-4,5.98,9.53.47,17.86-4.51,25.02-10.03-.44-2.31,9.5-7.23,6.97-9.92-7.41-7.86-18.18,7.71-23,12.04-1.66,1.49-4.42,1.44-5,1.93Z"/>
      <path class="cls-5" d="M24.07,108.24c.68,7.07-.49,14.84-.01,22.01h12c-3.3,6.3-12.63.17-10,9.98l10,.02c2.1,7.97-11.91.03-7.98,8.97,1.5,3.41,6.83,3.13,9.99,3.03-7.96,7.86-.6,12.12,8,13.98-.36.05-1.22,1.65-2,2-3-.73-5.55-.11-8.75-2.2-10.68-6.98-14.47-29.84-15.25-41.8-.02-.24,0-3.44,0-4,.01-2-.03-4,0-6,.01-1.03,1.91-3.73,2-6,.03-.67-.03-1.33,0-2,.94.21,1.91,1.09,2,2Z"/>
      <path class="cls-4" d="M250.07,108.24h4c-1.89,13.34-8.5,22.42-10,32h-2c1.38-17.68-1.03-16.47,8-32Z"/>
      <path class="cls-4" d="M22.07,108.24c-.09,2.27-1.99,4.97-2,6l-14.02,5,14.02,1c0,.56-.02,3.76,0,4-7.93,2.16-21.17,3.1-19.99-7.97l21.99-8.03Z"/>
      <path class="cls-4" d="M62.07,146.24c-2.39-8.85,11.72,2.47,11.94,3.17,2.27,7.31-11.28,19.58-19.12,20.74-6.32.93-7.01-.99-10.82-1.91.78-.35,1.64-1.95,2-2,11.15-1.41,19.76-2.67,24.1-14.93-2.03-.59-5.63-4.93-6.1-5.07s-1.41-.05-2,0Z"/>
      <path class="cls-4" d="M104.07,8.24c-.03,1.67-1.46,2.82-2,4-12.35-1.54-20.85-5.7-34-4v-2c18.8-1.9,20.8,1.04,36,2Z"/>
      <path class="cls-4" d="M26.07,96.24c-3.47,14.78,10.35,2.49,9.99,11.99h-11.99c-.09-.9-1.06-1.78-2-1.99.14-3.32-.2-6.69,0-10,1.33,0,2.67,0,4,0Z"/>
      <path class="cls-1" d="M77.48,74.6c13.97-4.14,13.61,11.79,1.59,11.82-9.91.02-8.46-9.79-1.59-11.82Z"/>
      <path class="cls-2" d="M62.08,68.23c-.86-.86-1.93-10.53,4.97-7.97,7.71,2.86-1.68,11.26-4.97,7.97Z"/>
      <path class="cls-4" d="M202.06,142.23c3.29,12.7.86,23.35,0,36.02-9.13,3.21-5.49-7.98-8.19-9.95-.51-.37-3.63,1.25-5.81.63-10.14-2.88-4.83-13.03-6.12-21.48l20.12-5.22Z"/>
      <path class="cls-3" d="M120.06,180.25c3.17,3.17-2.81,9.15-5.98,5.98s2.81-9.15,5.98-5.98Z"/>
      <path class="cls-3" d="M130.06,182.25c2.05,2.07-3.97,8.02-5.98,5.98s3.97-8.02,5.98-5.98Z"/>
      <rect class="cls-3" x="96.08" y="174.25" width="3.98" height="5.98"/>
      <path class="cls-3" d="M94.06,172.25c.62,2.76-1.08,5.32-3.97,5.99v-5.99s3.97,0,3.97,0Z"/>
      <path class="cls-3" d="M222.06,180.25c2.18,2.18-1.8,6.16-3.98,3.98s1.8-6.16,3.98-3.98Z"/>
      <path class="cls-3" d="M212.06,178.25c2.18,2.18-1.8,6.16-3.98,3.98s1.8-6.16,3.98-3.98Z"/>
      <path class="cls-6" d="M46.07,120.24c.58-.49,3.34-.44,5-1.93,4.82-4.33,15.59-19.9,23-12.04,2.53,2.68-7.41,7.61-6.97,9.92-7.16,5.53-15.5,10.5-25.02,10.03-.29-.22,3.33-5.41,4-5.98Z"/>
      <path class="cls-6" d="M20.07,114.24c-.03,2,.01,4,0,6l-14.02-1,14.02-5Z"/>
    </g>
  </g>
</svg>