<?xml version="1.0" encoding="UTF-8"?>
<svg id="Calque_2" data-name="Calque 2" xmlns="http://www.w3.org/2000/svg" viewBox="0 0 278.21 254.81">
  <defs>
    <style>
      .cls-1 {
        fill: #f3c954;
      }

      .cls-2 {
        fill: #fcf3ea;
      }
    </style>
  </defs>
  <g id="Calque_1-2" data-name="Calque 1">
    <g>
      <path class="cls-1" d="M122.5,137.49c-.04.22-1.46,1.66-2,4-5.41,3.65-7.66,10.37-12.22,14.78-9.87,9.54-34.08,17.36-29.88,33.88,2.44,9.59,14.79-4.7,17.43-6.33,6.8-4.19,28.52-12.07,31.87-16.14,6.52-7.93,1.7-29.42,9.9-42.1,20.12-31.1,70.9-20.01,91.93,3.88,11.77,13.37,20.35,28.76,10.98,46.02-3.78,3.13-4.91,4.62-8,8-11.06,3.84-20.18,11.9-31.44,15.56-8.82,2.87-18.03,3.05-26.56,6.44-2,0-4,.02-6,0-26.62-.33-25.11,7.47-43.91,11.09-20.79,4-23.3-2.53-38.96-9.22-11.1-4.75-28.57-3.67-25.07-22.75,4.95-27,59.91-34.92,53.45-75.63-4.99-31.46-27.4-.46-31.05,15.99-1.27,5.72,1.85,25.03-10.42,19.59-8.11-3.6-4.56-17.94-13.1-19.15-18.84-2.67-25.94,15.48-25.04,31.15,1.69,29.71,30.81,26.77,24.1,70.94-.19,1.27.26,2.84,0,4-5.91-1.01-3.97,4.81-7.44,8.12-10.73,10.23-52,19.65-46.27-.69,2.97-10.56,20.34,1.35,32.71-7.43,15.93-11.31,8.81-30.62-3-42-2.08-2.01-3.37-3.7-6-6-10.37-21.43-7.08-41.71,4-62,1.94-1.66,2.25-1.66,4-4l10-4c3.29.23,6.73-.33,10,0,3.77.38,8.47,4.35,13.5-.52,2.3-2.22,8.71-17.25,10.5-21.48,1.36-1.17,3.75-3.83,4-4,32.74-21.39,45.65,5.52,41.84,36.83-.53,4.34-2.97,8.64-3.84,13.17ZM172.12,120.01c-37.75,3.36-20.4,37.92-34.69,55.41-7.28,8.91-24.76,11.16-31.96,20.04-1.59,1.96-4.51,2.91-2.04,6.1,8.32,10.77,29.85-4.97,38.64-7.5,16.04-4.63,33.91-1.64,50.88-7.12,9.05-2.93,37.94-17.96,37.54-28.2-.93-23.4-37.42-40.59-58.36-38.72Z"/>
      <path class="cls-1" d="M238.5,1.49c.64.13,1.37-.15,2,0v4s4,0,4,0c1.93,2.86,5.72,5.51,6,6,7.47,12.95,5.82,27.75,18,38,.79,5.31,3.12,7.78,4,12,4.91,23.46-5.61,47.23-32.48,43.47-6.16-.86-11.58-4.01-17.52-5.47-.6-.72-1.43-1.29-2-2-10.06-12.67-10.17-5.21-24.72-6.24-10.74-.76-34.71-5.76-45.81-8.22-26.06-5.79-37.4-6.63-25.46-37.54.75-.5,1.29-1.44,2-2C156.79,19.87,198.56-6.62,238.5,1.49ZM196.86,43.17c-3.4-2.18-2.31-9.65,3.05-11.26,23.41-7.05,30.78,20.43,28.48,38.48-1.03,8.07-10.57,18.15,7.22,20.99,29.05,4.63,22.02-28.08,15.23-45.23-14.02-35.42-18.79-40.94-55.7-27-10.45,3.95-53.92,25.79-57.6,34.38-8.97,20.92,22.22,12.93,33.42,14.34,12.4,1.56,23.99,13.08,38.1,7.19,7.57-3.16,6.18-19.93,2.98-26.1-3.94-7.62-12.06-3.76-15.19-5.77Z"/>
      <path class="cls-2" d="M168.5,205.49c1.11,6.31-3.17,3.59-6.96,3.95-21.82,2.07-34.96,16.1-59.58,11.58-9.75-1.79-28.81-16.76-36.99-7.07-2.36,2.79.82,14.84-6.47,13.53,6.71-44.17-22.41-41.22-24.1-70.94-.89-15.67,6.21-33.82,25.04-31.15,8.54,1.21,4.99,15.55,13.1,19.15,12.27,5.44,9.15-13.87,10.42-19.59,3.65-16.45,26.06-47.45,31.05-15.99,6.46,40.72-48.5,48.64-53.45,75.63-3.5,19.09,13.97,18,25.07,22.75,15.65,6.7,18.17,13.22,38.96,9.22,18.79-3.61,17.29-11.42,43.91-11.09Z"/>
      <path class="cls-2" d="M124.5,45.49c-11.93,30.91-.6,31.75,25.46,37.54,11.11,2.47,35.07,7.46,45.81,8.22,14.55,1.03,14.66-6.43,24.72,6.24-10.65-3.23-21.74-.97-32.48-2.52-13.84-2-40.86-6.69-54-10-1.96-.5-16.52-9.44-13.51-2.5,1.46,3.37,8.08,5.89,9.56,12.45,1.12,4.94-.46,23.73.43,24.58,4.76,4.58,10.45-5.57,12.19-6.81,23.32-16.68,49.06-11.23,73.81-.2,13.4,5.97,10.4,10.41,16.66,18.34,1.32,1.67,4.5,2.2,6.22,4.73,7.45,10.96,12.44,19.62,7.8,33.62-2.53,7.62-4.87,4.81-6.68,6.32,9.37-17.27.79-32.65-10.98-46.02-21.03-23.89-71.81-34.98-91.93-3.88-8.2,12.68-3.38,34.17-9.9,42.1-3.34,4.07-25.06,11.95-31.87,16.14-2.64,1.62-14.99,15.92-17.43,6.33-4.2-16.52,20.02-24.33,29.88-33.88,4.56-4.41,6.8-11.13,12.22-14.78-.03.15,1.67,1.4,1.43,2.67-.55,2.89-4.94,11.82-3.42,13.32,6.21,6.14,9.95-11.16,10.06-15,.2-6.52-.15-5.12-6.07-4.99.87-4.54,3.31-8.83,3.84-13.17,3.81-31.31-9.09-58.22-41.84-36.83-2.82-3.84,7.5-9.91,8.75-10.33,8.09-2.7,15.25-2.05,23.24.32-2-7.93-3.59-24.23,2.9-30.19,1.65-1.51,4.21-1.2,5.12-1.81ZM118.49,159.5c-1.6-1.57-32.27,13.48-25.98,19.98,1.2,1.24,29.16-10.62,25.98-19.98Z"/>
      <path class="cls-2" d="M34.5,189.49c11.8,11.38,18.93,30.69,3,42-12.37,8.78-29.74-3.13-32.71,7.43-5.73,20.34,35.55,10.92,46.27.69,3.47-3.31,1.53-9.12,7.44-8.12-2.37,10.53-9.43,18.54-19.9,21.09-12.86,3.13-44.31,6.31-37.71-15.67,5.43-18.07,32.44.39,38.56-13.47,1.5-3.41,1.96-20.96,1.09-24.55-.5-2.06-8.28-3.08-6.04-9.41Z"/>
      <path class="cls-2" d="M272.5,61.49c4.83-1.13,4.4,2.51,5.02,5.87,2.99,15.99-3.72,39.12-22.15,42-7.51,1.18-23.5.43-29.73-4.09-3.36-2.44-2.52-5.04-3.15-5.78,5.94,1.46,11.36,4.61,17.52,5.47,26.88,3.76,37.39-20.01,32.48-43.47Z"/>
      <path class="cls-2" d="M32.5,121.49c-11.08,20.29-14.37,40.57-4,62-.46-.4-3.15.02-4.97-1.94-5.02-5.42-7.76-21.66-7.03-29.07.58-5.85,8.6-27.11,12.55-30.5,1.12-.96,3.14-.23,3.45-.49Z"/>
      <path class="cls-2" d="M232.5,183.49c-11.83,12.92-31.8,24.1-51.15,24.21-3.78.02-6.49-2.21-6.85-2.21,8.53-3.39,17.75-3.57,26.56-6.44,11.26-3.66,20.38-11.72,31.44-15.56Z"/>
      <path class="cls-2" d="M80.5,91.49c-1.79,4.23-8.2,19.25-10.5,21.48-5.04,4.88-9.74.9-13.5.52-.96-6.09,5.89-3.86,9.91-7.09,4.23-3.39,8.58-10.2,14.09-14.91Z"/>
      <path class="cls-2" d="M196.86,43.17c3.13,2.01,11.24-1.84,15.19,5.77,3.2,6.18,4.59,22.94-2.98,26.1-14.11,5.89-25.7-5.63-38.1-7.19-11.2-1.41-42.38,6.58-33.42-14.34,3.68-8.59,47.15-30.43,57.6-34.38,36.91-13.93,41.67-8.42,55.7,27,6.79,17.15,13.82,49.86-15.23,45.23-17.79-2.84-8.25-12.92-7.22-20.99,2.3-18.05-5.07-45.53-28.48-38.48-5.36,1.62-6.46,9.08-3.05,11.26Z"/>
    </g>
  </g>
</svg>