<?xml version="1.0" encoding="UTF-8"?>
<svg id="Calque_2" data-name="Calque 2" xmlns="http://www.w3.org/2000/svg" viewBox="0 0 243.47 250.33">
  <defs>
    <style>
      .cls-1 {
        fill: #e99a4c;
      }
    </style>
  </defs>
  <g id="Calque_1-2" data-name="Calque 1">
    <path class="cls-1" d="M117.99,8.26C28.04,17.1-22.85,143.29,45,208.25c85.05,81.42,224.56-28.48,172.73-130.73C165.53-25.49-2.71,72.51,58.34,168.91c56.65,89.45,179.37-26.66,112.58-84.58-49.65-43.05-117.13,18.58-81.8,65.8,20.7,27.68,66.2,9.43,60.74-24.75-2.11-13.2-25.08-24.44-32.41-8.52-5.05,10.98,13.22,10,14.47,11.49,1.67,1.98-.67,9.34-3.92,10.92-27.09,13.16-40.25-40.95-3.06-45.04,47.58-5.24,56.13,63.25,10.42,80.41-65.33,24.53-98.53-69.63-42.04-108.04,68.1-46.3,149.34,41.19,90.63,114.63-63.68,79.65-174.62,12.97-150.21-80.21C55.65,17.35,179.77-16.3,227.02,64.23c60.71,103.48-58.3,230.02-167.07,171.07C-32.81,185.04-11.54,44.76,80.02,7.31c8.95-3.66,39.11-14.94,37.97.95Z"/>
  </g>
</svg>