<?xml version="1.0" encoding="UTF-8"?>
<svg id="Calque_2" data-name="Calque 2" xmlns="http://www.w3.org/2000/svg" viewBox="0 0 142.11 163.63">
  <defs>
    <style>
      .cls-1 {
        fill: #558ea9;
      }
    </style>
  </defs>
  <g id="Calque_1-2" data-name="Calque 1">
    <path class="cls-1" d="M80.15,53.54l51.32-27.55c7.12-.51,13.25,4.42,9.51,11.62l-38.41,47.03c4.84,10.96,30.23,36.81,27.08,47.56-4.57,15.59-39.84-10.61-50.28-10.34-10.43,6.34-22.46,45.3-35.96,41.49-12.58-3.55,1.42-16.39,2.46-22.83,1.62-10.01-3.12-20.4-2.14-30.64-8.8-6.91-47.38,1.27-43.45-14.83,2.28-9.34,32.99-15.13,41.43-19.69L40.25,1.95c1.9-.7,4.5-2.25,6.42-1.9,7.46,1.37,26.75,45.43,33.47,53.49ZM53.99,67.64c1.5,1.58,16.59-4.12,16.07-8.93l-18.06-29.05,1.99,37.98ZM101.97,59.65c-6.34-.53-18.68,8.17-8.96,11.97,2.8,1.1,9.98-11.04,8.96-11.97ZM75.3,71.83c-1.16.18-19.73,10.78-20.34,11.79-9.09,15.01,13.27,21.83,20,16.02,1.19-1.03,8.95-13.61,9.08-15.14.28-3.42-5.1-13.24-8.74-12.67ZM43.97,89.65l-9.98,2.98c2.39,3.38,6.17,3.3,9.98,3v-5.98ZM95.94,97.66c-3.45-2.43-10.89,8.49-9.96,11.96l19.98,8.03c.72-.86-9.1-19.34-10.02-19.99ZM63.97,113.66l-7.98-2.01v15.98c3.11-1.36,9.73-11.55,7.98-13.97Z"/>
  </g>
</svg>