<?xml version="1.0" encoding="UTF-8"?>
<svg id="Calque_2" data-name="Calque 2" xmlns="http://www.w3.org/2000/svg" viewBox="0 0 182.47 189.56">
  <defs>
    <style>
      .cls-1 {
        fill: #e99a4c;
      }
    </style>
  </defs>
  <g id="Calque_1-2" data-name="Calque 1">
    <path class="cls-1" d="M140.87,48.13c1.14,1.08,20.38-6.32,26.18.82,9.74,11.99-24.9,30.99-20.18,35.18,69.72-5.55,3.54,39.67-13.97,59.03,15.75-3.94,43.44-22.98,33.97,8.97,6.89-.51,14.41-1.12,15.6,7.45.2,1.43-5.14,27-5.92,28.22-2.18,3.4-10.02,1.36-12.8-1.53-3.94-4.1-2.44-9.6-2.89-10.13-1.14-1.33-26.84,9.89-24-13.99-2.09-2.24-49.27,32.94-43.99,3.09.97-5.48,23.42-27.61,28.95-33.14,7.69-7.69,17.69-13.98,25.06-22.94,1.85-2.26,4.86-3.23,3.99-6.99-4.06-3.71-43.81,22.71-49.83,27.15-9.55,7.05-37.76,36.04-48.28,34.03s-3.53-11.74.08-16.24c21.79-27.15,55.15-47.86,79.85-72.14,2.11-2.08,5.08-2.88,4.18-6.8-2.35-2.25-38.08,21.16-42.62,24.36-12.61,8.9-78.93,65.75-86.41,65.59-2.04-.04-3.92-1.2-5.13-2.79-11.52-15.22,17.15-44.43,26.16-56.19,2.41-5.67-10.52-.73-13-.77-33.49-.52,18.63-48.12,27.23-54.99,11.26-9,40.63-29.07,53.71-32.34,6.01-1.5,6.73,2.03,4.71,6.65-1.3,2.98-46.09,28.62-54.42,35.69-6.74,5.72-20.37,19.62-24.99,27.01-.94,1.49-6.67,9.69-.26,7.76,28.77-8.68,61.5-39.94,87.69-56.32C120,25.25,166.34-1.35,175.8.05c2.12.31,4.3,1.1,4.96,3.31,2.9,9.75-30.24,31.48-36.96,38.72-1.82,1.97-3.67,2.83-2.93,6.05ZM130.85,34.15c-1.84-1.68-6.4,1.72-8.27,2.71-23.48,12.39-47.85,34.62-67.53,52.47-9.5,8.61-2.13,7.67,5.88,3.88,15.32-7.24,51.77-39.5,65.74-52.26,1.29-1.18,6.37-4.8,4.18-6.8ZM141.88,64.18l-2.98,2.98c-.04,2.1,5-1.19,2.98-2.98ZM153.86,100.14v2c1.3-.67,1.3-1.33,0-2Z"/>
  </g>
</svg>