<?xml version="1.0" encoding="UTF-8"?>
<svg id="Calque_2" data-name="Calque 2" xmlns="http://www.w3.org/2000/svg" viewBox="0 0 127.25 95.27">
  <defs>
    <style>
      .cls-1 {
        fill: #558ea9;
      }
    </style>
  </defs>
  <g id="Calque_1-2" data-name="Calque 1">
    <path class="cls-1" d="M93.5,1.23c2.35,3.28-10.93,54.34-7.57,64.55,1.46,4.43,6.81,3.81,10.11,5.49,6.33,3.23,7.54,2.38,12.07,4.3,2.53,1.08,16.85,7.83,17.56,8.49,2.7,2.52,1.47,9.59-.29,10.85-3.72,2.67-33.33-10.56-44.42-7.77-2.02.51.23,5.61-7.86,3.57-8.85-2.23-5.91-8.75-11.99-12.12-11.48-6.35-39.75-8.73-53.51-14.49-4.43-1.85-10.39-5.15-6.14-10.11,6.43-7.5,32.53,5.93,42.13.1,1.1-.67,14.03-17.76,15.65-20.34,8.72-13.9,12.07-39.66,34.25-32.51Z"/>
  </g>
</svg>