<?xml version="1.0" encoding="UTF-8"?>
<svg id="Calque_2" data-name="Calque 2" xmlns="http://www.w3.org/2000/svg" viewBox="0 0 170.17 192.61">
  <defs>
    <style>
      .cls-1 {
        fill: #558ea9;
      }
    </style>
  </defs>
  <g id="Calque_1-2" data-name="Calque 1">
    <path class="cls-1" d="M106.93.36c19.39-3.1,40.22,14.17,48.26,30.79,15.73,32.5,25.31,119.6-3.87,145.63-17.27,15.4-66.76,23.32-83.88,6.12-8.49-8.53-8.47-26.47-11.94-30.06-.71-.73-16.63-6.21-19.16-6.84-10.85-2.68-16.11,2.02-26.97-9.03-16.98-17.27-6.46-35.85-2.52-54.67,5.55-26.47,3.04-38.34,27.6-56.4,19.25-14.16,28.24-6.07,45.51-10.49,7.29-1.87,14.69-13.09,26.98-15.05ZM73.46,157.9c1.58,31.28,53.22,21.38,68.96,5.98,21.67-21.19,13.59-105.46-2.07-129.89-10.24-15.98-32.92-29.02-46.87-9.09,27.11,25.86,55.18,65.64,47.07,105.12-5.89,28.65-42.87,37.22-67.1,27.89ZM67.44,29.92c-3.79-2.78-20.59,5.54-24.67,8.31-26.35,17.93-17.29,44.65-29.17,70.86l1.87,16.8c3.38.38,1.7-4.57,5.2-5.79,8.31-2.91,25.1,13.12,34.76,13.8,1.54-1.62-8.76-29.75-9.47-35.5-3.17-25.44,8.96-47.48,21.48-68.47ZM82.66,37.99c-12.91,14.39-22.17,33.18-21.19,52.88.26,5.29,9.27,47.78,11,51,4.94,9.22,29.61,5.26,38.09,2.15,38.03-13.95,7.39-69.84-10.09-90.14-2.34-2.71-15.38-16.4-17.81-15.89Z"/>
  </g>
</svg>