<?xml version="1.0" encoding="UTF-8"?>
<svg id="Calque_2" data-name="Calque 2" xmlns="http://www.w3.org/2000/svg" viewBox="0 0 187.8 190.96">
  <defs>
    <style>
      .cls-1 {
        fill: #e99a4c;
      }
    </style>
  </defs>
  <g id="Calque_1-2" data-name="Calque 1">
    <path class="cls-1" d="M77.95.72c12.41-1.93,49.29-.65,55.06,12.12,6.91,15.3-20.16,3.47-27.53,3.27C35.7,14.27-11.26,110.65,45.52,154.19c52.43,40.21,145.28-3.5,115.96-69.96-19.5-44.2-101.63-26.45-90.13,22.15,7.27,30.75,57.52,23.9,52.99-5.01-3.11-19.87-37.92,2.74-24.74-17.02,6.64-9.95,16.44-9.64,26.27-4.52,25.26,13.15,16.69,54.13-7.93,62.87-56.83,20.17-92.45-51.07-46.42-88.42,53.58-43.48,130.47,4.04,114.02,72.02C160.26,230.72-34.87,206.75,5.47,68.25,13.63,40.23,48.65,5.29,77.95.72Z"/>
  </g>
</svg>