<?xml version="1.0" encoding="UTF-8"?>
<svg id="Calque_2" data-name="Calque 2" xmlns="http://www.w3.org/2000/svg" viewBox="0 0 162.99 160.75">
  <defs>
    <style>
      .cls-1 {
        fill: #558ea9;
      }
    </style>
  </defs>
  <g id="Calque_1-2" data-name="Calque 1">
    <path class="cls-1" d="M97.88,2.59c5.19,5.31,7.76,43.95,12.65,53.34,10.04,1.1,42.73,4.07,48.91,10.08,17.7,17.21-36.44,24.88-38.89,33.42,1.71,9.05,11.66,56.41,5.6,60.51-11.23,7.61-44-40.89-48.78-41.26-11.24-.88-36.46,29.57-54.02,29.63-15.25.05-6.59-7.17-5.43-13.62.89-4.98-.21-9.37,1.51-14.49,2.57-7.67,19.15-23.64,22.73-33.09,0-3.56-38.11-26.17-40.78-31-1.64-2.97-1.93-11.54-.15-14.12,4.74-6.84,51.68,2.69,61.22,5.23,4.6-2.71,13.43-38.28,19.79-44.19,3.96-3.68,11.93-4.24,15.65-.45Z"/>
  </g>
</svg>