<?xml version="1.0" encoding="UTF-8"?>
<svg id="Calque_2" data-name="Calque 2" xmlns="http://www.w3.org/2000/svg" viewBox="0 0 293.03 148.78">
  <defs>
    <style>
      .cls-1 {
        fill: #e99a4c;
      }
    </style>
  </defs>
  <g id="Calque_1-2" data-name="Calque 1">
    <path class="cls-1" d="M203.02,83.49c-1.34,9.92-16.57,44.14-25.25,48.73-22.16,11.73-18.29-19.42-19.74-31.72-8.04,9.75-18.44,50.69-37.19,35.17-18.48-15.29,5.34-73.06,15.8-90.56,5.34-8.94,17.32-15.82,12.87-26.09-6.61-15.24-29.26-1.41-33.64,9.39.96,14.48,2.28,30.58,1.12,45.05-.74,9.19-7.62,30.27-10.94,39.04-4.29,11.31-16.18,36.55-26.01,13.99-8.63-19.8,1.86-58.38,10.01-77.96,3.28-7.89,17.95-23.07,6.48-28.56-9.33-4.46-18.19,4.76-23.54,11.48-9.8,12.31-2.65,11.5-1.98,24.08,1.22,23.09-1.4,50.11-10.46,71.5-4.5,10.62-12.85,27.86-26.66,19.59-20.06-12.01-.44-68.23,6.79-85.47,3.32-7.92,15.88-23.28,11.39-30.67C41.56,13.23,15.27,55.13,12.05,64.53s-.7,23.65-11.02,21.97C-5.89,65.75,23.33,16,45.7,17.07c6.45.31,13.74,8.27,17.9,7.21s12.52-14.12,23.3-16.93c10.16-2.64,6.83,1.99,9.61,3,1.74.63,4.53.02,6.86.7s4.38,3.42,6.68,3.47c5.6.11,16.41-17.82,35.92-13.98,9.8,1.93,13.48,16.54,15.21,17.83,1.48,1.1,22.36-7.22,32.72,4.22,2.45,2.71,4.64,11.11,5.42,11.58,2,1.2,8.53-.13,12.28.73,9.87,2.26,13.35,14.6,13.43,23.58,1.5,1.55,18.37-12.46,27.73,3.28,1.77,2.98,1.96,8.4,2.29,8.71,1.1,1.01,25.07-5.92,29.29-5.85,19.13,1.75,1.84,9.08-5.96,12.22-4.73,1.9-17.13,4.28-19.4,6.6-4.19,4.3-5.67,34.2-22.63,23.18-12.35-8.02,7.64-25.42,8.24-31.44,1.13-11.42-11.89-11.05-16.61,1.26-3.12,8.15-4.93,42.93-15.99,44.15-9.62,1.06-7.48-13.08-6.95-19.1,1.38-15.79,17.22-37.03,6.07-52.11-3.04-4.12-8.1-2.61-8.1.1,0,10.24,1.29,24.46,0,34ZM167.02,68.49c4.2-2.31,21.89-26.66,21.97-28.94.46-14.06-21.97-14.39-21.97-8.06v37ZM107.01,46.5c-5.2-.96-3.53.97-4.91,3.97-9.09,19.67-13.75,44.41-13.06,66.02,4.28-2.24,5.77-9.17,7.47-13.51,7.01-17.88,10.94-37.13,10.5-56.48ZM155.01,46.5c-2.77-3.15-9.64,8.34-10.82,10.15-12.6,19.29-18.98,44.93-17.15,67.83,2.61,2.99,8.48-7.6,9.59-9.39,12.01-19.53,17.06-45.95,18.39-68.59ZM44.92,136.42c1-.66,7.7-19.28,8.62-22.41,5.57-18.96,9.49-42.09,5.46-61.52-12.5,15.75-26.72,55.05-23.51,74.5.73,4.4,4.17,12.9,9.43,9.43ZM171.04,120.49c14.97-14.53,20.63-39.56,19.96-60-13.06,16.04-21.15,39.12-19.96,60Z"/>
  </g>
</svg>