<?xml version="1.0" encoding="UTF-8"?>
<svg id="Calque_2" data-name="Calque 2" xmlns="http://www.w3.org/2000/svg" viewBox="0 0 203.68 167.91">
  <defs>
    <style>
      .cls-1 {
        fill: #e99a4c;
      }
    </style>
  </defs>
  <g id="Calque_1-2" data-name="Calque 1">
    <path class="cls-1" d="M87.88.44c44.81-4.22,102.66,22.14,113.83,69,18.71,78.47-101.24,131.68-154.5,74.5C-3.65,89.32,81.36,1.83,142.15,55c37.76,33.03,2.65,84.49-40.36,78.39-43.89-6.23-36.5-67.66,5.47-59.48,10.29,2,19.3,20.54,5.12,25.14-8.88,2.88-7.59-6.17-11.28-7.05-10.65-2.54-16.79,24.57,9.64,21.38,30.85-3.72,36.81-33.99,9.44-48.41-43.08-22.68-91.71,33.97-52.93,68.93,51.38,46.33,166.74-32.01,91.07-93.07C116.24,6.88,35.32,14.92,19.26,71.82c-2.2,7.8-.96,32.07-11.01,29.27-14.11-3.92-6.63-33.05-2.91-43.19C17.75,24.07,52.99,3.73,87.88.44Z"/>
  </g>
</svg>