<?xml version="1.0" encoding="UTF-8"?>
<svg id="Calque_2" data-name="Calque 2" xmlns="http://www.w3.org/2000/svg" viewBox="0 0 190.21 200.9">
  <defs>
    <style>
      .cls-1 {
        fill: #e99a4c;
      }
    </style>
  </defs>
  <g id="Calque_1-2" data-name="Calque 1">
    <path class="cls-1" d="M127.62,18.23C43.93-8.35-20.28,104.54,45.74,163.13c65.69,58.3,164.62-29.1,108.72-94.72-38.55-45.25-114.24-.26-89.63,47.63,8.52,16.57,29.39,30,47.54,19.93,12.82-7.11,20.26-31.55,6.04-39.5-20.16-11.27-9.47,12.06-15.02,15.51-10.6,6.58-22.33-11.97-13.44-26.44,17.38-28.28,60.83-2.67,55.52,35.53-7.54,54.29-94.94,47.24-103.3-10.35C29.05,20.51,161.6-1.54,186.23,84.64c28.22,98.73-100.89,158.33-164.65,80.65C-26.56,106.63,10.76,9.09,84.85.46c12.58-1.47,44.16-.33,42.77,17.77Z"/>
  </g>
</svg>