<?xml version="1.0" encoding="UTF-8"?>
<svg id="Calque_2" data-name="Calque 2" xmlns="http://www.w3.org/2000/svg" viewBox="0 0 210.45 223.41">
  <defs>
    <style>
      .cls-1 {
        fill: #e99a4c;
      }
    </style>
  </defs>
  <g id="Calque_1-2" data-name="Calque 1">
    <path class="cls-1" d="M93.43.88c44.52-5.61,98.49,15.54,111.42,61.45,16.81,59.74-4.56,118.51-59.14,148.82-62.27,34.58-130.06-7.8-121.84-79.84,7.5-65.75,120.33-80.9,111.98,5.99-2.68,27.86-32.17,54.99-59.89,37.94-20.13-12.38-14.89-49.02,6.5-42.53,15.32,4.65-8.92,21.04,4.83,25.19,37.66,11.38,37.72-57.3,15.11-61.26-5.99-1.05-27.38,4.81-32.56,8.64-24.29,17.9-32.11,45.27-18.77,72.84,19.81,40.95,81.88,15.86,105.9-7.71,26.09-25.6,33.73-57.25,30.98-93.17-1.63-21.34-7.2-31.15-25.03-42.97C119.46,5.48,59.41,25.8,27.91,63.36c-7.62,9.08-13.24,29.88-27.91,17.71C9.92,45.36,56.86,5.49,93.43.88Z"/>
  </g>
</svg>