<?xml version="1.0" encoding="UTF-8"?>
<svg id="Calque_2" data-name="Calque 2" xmlns="http://www.w3.org/2000/svg" viewBox="0 0 195.86 219.53">
  <defs>
    <style>
      .cls-1 {
        fill: #558ea9;
      }
    </style>
  </defs>
  <g id="Calque_1-2" data-name="Calque 1">
    <path class="cls-1" d="M95.57,2.65l22.49,61.53c2.52,2.59,56.81-24.27,67.52-25.66,12.5-1.62,11.99,8.47,6.93,17.14-8.39,14.4-22.07,25.53-32.53,37.46-1.89,2.15-2,6-3.89,8.11-3.63,4.03-11.17,5.46-12.1,12.07-1.77,12.58,33.88,54.49,32.1,67.76-.89,6.67-6.72,7.92-12.56,6.74-12.91-2.6-46.71-28.14-58.12-25.75-3.1.65-31.53,44.83-37.38,51.12-8,8.59-18.27,9.62-18.21-4,.04-9.51,8.92-13.47,11.67-22.21l-2.36-44.86c-3.6-5.41-44.6-11.59-52.59-15.41-7.56-3.62-9.38-13.24-1.04-18.05,9.18-5.29,59.99-18.4,63.59-24.41l8.29-75.71c2.33-9.58,10.42-10.37,18.19-5.86ZM104.04,72.15c-4.35-10.14-6.84-23.72-13.98-31.97l-4.01,37.99,17.99-6.02ZM162.04,66.19l-35.93,12.09,5.96,17.87c4.16,2.87,26.3-25.77,29.96-29.97ZM111.85,88.35c-4.64-3.3-21.43,8.09-27.59,8.04l-4.12,35.69c5.88-.64,14.76,7.32,19.85,5.17,1.44-.61,20.35-21.49,21.17-23.12.62-1.24-8.17-24.97-9.3-25.77ZM68.03,104.19c-10.82,4.09-25.37,6.68-33.99,13.97l29.98,8.02,4.01-21.99ZM118.04,148.15l27.95,11.05c-8.73-17.77-14.32-41.93-27.95-11.05ZM88.02,150.2c-3.41-.44-8.62-4.03-11.08-.12l-2.9,18.08c2.79,2.76,16.36-14.5,13.98-17.96Z"/>
  </g>
</svg>