<?xml version="1.0" encoding="UTF-8"?>
<svg id="Calque_2" data-name="Calque 2" xmlns="http://www.w3.org/2000/svg" viewBox="0 0 133.73 146.78">
  <defs>
    <style>
      .cls-1 {
        fill: #558ea9;
      }
    </style>
  </defs>
  <g id="Calque_1-2" data-name="Calque 1">
    <path class="cls-1" d="M69.64,52.29c10.72-8.89,19.24-40.71,30.49-46.5,2.51-1.29,4.61-2.59,6.55.43,6.06,9.46-19.15,40.97-21.06,52.06,3.68,3.48,56.95-20.86,46.83,6.24l-38.85,7.78c-.49,3.48-.13,4.41,2.07,6.92,4.12,4.73,49.99,29.4,31.89,38.15-2.42,1.17-3.59.9-6.01.12-4.75-1.52-25.68-19.28-32.49-23.66-2.02-1.3-9.95-7.21-11.44-5.54-2.97,9.3,11.92,54.05-3.01,54.04-8.96,0-9.21-27.16-10.96-35.13-.32-1.47,1.05-6.91-3.02-4.91-3.31,1.63-14.84,29.25-20.21,35.8-4.31,5.26-14.81,14.76-16.88,3.12-2.64-14.89,25.28-44.75,28.05-60.93-2.41-2.19-36.98,7.88-43.29,7.9-9.31.03-11.99-7.64-1.82-12.03,11.82-5.1,30.25-6.5,43.11-9.89,5.28-4.96-35.28-27.15-31.88-38.81.9-3.08,3.2-3.17,6.03-2.36,3.87,1.11,29.68,23.69,31.84,21.18,2.32-13.14-4.27-28.44-1.97-40.99.67-3.66,2.77-6.29,6.92-4.94,7.41,2.42,4.93,43.64,9.09,51.93Z"/>
  </g>
</svg>