<?xml version="1.0" encoding="UTF-8"?>
<svg id="Calque_2" data-name="Calque 2" xmlns="http://www.w3.org/2000/svg" viewBox="0 0 414.78 45.11">
  <defs>
    <style>
      .cls-1 {
        fill: #558ea9;
      }
    </style>
  </defs>
  <g id="Calque_1-2" data-name="Calque 1">
    <path class="cls-1" d="M385.55,5.41c11.16,7.62,6.46,3.58,19.47,5.47s13.4,16.18-1.84,17.91c-31.92,3.63-74.7.62-108.12,1.88-85.63,3.22-172.08,11.76-257.84,14.16-5.96.17-34.07,1.11-36.23-1.94-1.91-2.71-.82-9.96.99-12.81,3.06-4.83,47.87-4.59,57.13-5.35,20.31-1.67,40.7-4.45,61.01-6l-36.91-4.06c-15-.62-30.96,1.24-45.82-.18-6.88-.66-19.57-.77-17.25-9.73,57.45-3.41,115.33-1.28,173.07-1.93,28.65-.32,177.35-7.65,192.32,2.57Z"/>
  </g>
</svg>