<?xml version="1.0" encoding="UTF-8"?>
<svg id="Calque_2" data-name="Calque 2" xmlns="http://www.w3.org/2000/svg" viewBox="0 0 166.83 179.89">
  <defs>
    <style>
      .cls-1 {
        fill: #558ea9;
      }
    </style>
  </defs>
  <g id="Calque_1-2" data-name="Calque 1">
    <g>
      <path class="cls-1" d="M89.92,112.36c7.22-2.15,10.19.65,12.07,7.16,2.32,8.01,8.59,40.13,8.51,47.51-.07,6.81-3.28,16.98-11.14,11.11-5.89-4.4-15.84-48.59-15.01-57.17.37-3.85,1.45-7.38,5.56-8.61Z"/>
      <path class="cls-1" d="M148.1,74.61c8.33-.59,20.51-2.63,18.51,10.32-1.36,8.82-31.14,10.89-39,11.16-5.75.19-31.3.96-21.28-11.26,4.37-5.33,33.89-9.67,41.77-10.22Z"/>
      <path class="cls-1" d="M.7,107.82c-1.82-2.74.15-7.66,2.96-9.66,5.22-3.71,46.45-12.74,53.87-12.31,14.06.81,11.64,13.02.63,16.82-7.11,2.45-36.78,7.06-44.77,7.4-2.62.11-11.7-.74-12.7-2.24Z"/>
      <path class="cls-1" d="M66.51,3c1.45-5.02,9.83-3.43,11.57,2.43s8.67,46.52,8.51,51.5c-.36,11.49-8.3,22.22-15.09,7.08-1.29-2.87-4.99-16.7-4.99-19.01,0-9.06-1.83-35.67,0-42Z"/>
    </g>
  </g>
</svg>