<?xml version="1.0" encoding="UTF-8"?>
<svg id="Calque_2" data-name="Calque 2" xmlns="http://www.w3.org/2000/svg" viewBox="0 0 263.79 118.96">
  <defs>
    <style>
      .cls-1 {
        fill: #e99a4c;
      }
    </style>
  </defs>
  <g id="Calque_1-2" data-name="Calque 1">
    <path class="cls-1" d="M65.5,65.87c14.58-12.07,44.8-62.01,63.32-63.55,27.55-2.29-8.67,56.59-7.32,67.55,16.6-13.11,41.58-56.83,61.96-61.15,28.21-5.98-8.49,51.69-5.96,61.15,8.62-4.46,13.57-15.2,19.9-21.08,8.97-8.33,49.17-37.43,59.59-38.58,8.3-.92,7.88,7.46,4.62,12.81-2.33,3.82-25.02,17.53-31.18,22.8-9.62,8.24-23.58,22.43-31.98,32.02-6.19,7.08-26.44,37.9-32.38,39.61-12.58,3.64-15.61.92-16.56-10.6-1.49-17.99,6.85-31.88,9.95-48.99-14.02,8.82-37.73,60.86-57.98,51.03-14.61-7.09.65-43.14,1.98-55.03-13.67,11.07-35.49,52.85-53,54.11-7.54.55-12.91-1.75-14.59-9.57-3.58-16.74,28.41-69.86,25.6-72.53-2.01-1.91-6.23,1.56-8.08,2.9-6.76,4.9-20.11,16.17-25.96,22.04S6.99,83.11.36,69.83C-3.99,61.12,31.97,27.15,39.46,20.84,48.06,13.59,68.23-4.14,79.43.88c20.14,9.03-13.88,50.73-13.92,64.99Z"/>
  </g>
</svg>