<?xml version="1.0" encoding="UTF-8"?>
<svg id="Calque_2" data-name="Calque 2" xmlns="http://www.w3.org/2000/svg" viewBox="0 0 448.33 154.44">
  <defs>
    <style>
      .cls-1 {
        fill: #e99a4c;
      }
    </style>
  </defs>
  <g id="Calque_1-2" data-name="Calque 1">
    <path class="cls-1" d="M164.46,16.28c16.36-7.29,26.68-18.97,46.68-15.72,10.38,1.68,15.14,13.94,16.24,14,6.15.36,11.64-9.4,26.34-4.58,12.86,4.22,14.4,18.39,15.65,18.58,11.27,1.73,23.78-13.81,45.27-5.52,12.44,4.8,19.18,22.98,20.73,23.33,1.84.43,18.6-8.99,29.87-7.95,19.54,1.79,22.49,19.89,24.23,20.18,3.24.52,26.08-8.04,35.71-8.28,3.65-.09,24.67.43,23.06,7.09-1.25,5.13-46.74,9.57-54.02,18-1.89,2.18-6.51,32.25-14.3,43.7-23.71,34.86-50.98,4.77-24.5-30.5,3.68-4.91,17.79-15.5,18.41-16.57,2.18-3.73-.95-13.26-4.43-15.74-7.33-5.23-31.06,3.02-32.67,11.52-1.85,9.77-.87,19.53-3.46,30.63-3.63,15.56-14.92,40.35-28.03,49.97-20.47,15.02-28.72-.36-26.96-20.98,1.57-18.43,15.07-37.59,26.02-51.97,8.43-11.06,21.84-13.71,12.34-30.44-9.91-17.46-32.66-5.43-44,4.78-5.02,29.31-14.28,59.28-33.55,82.45-14.93,17.94-34.53,27.21-38.85-3.83-4.63-.86-5.69,4.47-9.38,5.59-22.51,6.8-22.45-23.35-20.12-38.11,2.14-13.57,16.5-39.75,24.66-51.34,2.74-3.9,18.27-20.03,18.53-21.42,2.65-13.87-16.88-6.96-23.54-3.59-28.04,14.18-18.75,27.49-24.72,53.28-3.6,15.54-25.68,63.9-39.91,70.09-12.63,5.49-19.95-3.84-21.33-15.68-1.79-15.29,11.61-48.37,19.51-62.14,5.48-9.56,25.76-30.29,27.55-36.6,3.44-12.11-10.22-12.66-19.21-9.05-26.06,10.45-17.5,19.16-20.9,41.09-2.6,16.8-21.87,67.49-39,73.01-11.42,3.68-20.78-2.33-22.15-14.07-2.55-21.86,3.4-35.81,14.42-53.66,4.24-6.88,28.64-36.06,29.35-38.79.85-3.25-1.42-7.38-3.83-9.51-7.38-6.52-18.4.3-25.35,4.47-22.22,13.33-46.69,47.15-51.68,72.32-.84,4.21.48,39.11-10.69,22.93-6.07-8.8.68-31.53,4.29-41.33C17.26,47.33,56.59-7.66,92.36,3.33c7.3,2.24,11.43,13.7,14.84,13.21,17.91-14.05,44.12-27.66,57.26-.26ZM228.26,62.42c3.45.89,4-1.4,6.01-2.97,3.34-2.6,19.98-16.86,21-19.08,3.39-7.35-2.84-17.01-11.51-15.61-18.78,3.05-11.08,24.52-15.51,37.65ZM216.24,48.44c-4.27-4.79-20.44,26.53-21.7,29.28-5.45,11.9-10.75,25.35-10.28,38.7,4.46,5.17,21.07-25.55,22.35-28.63,2.13-5.15,11.6-37.14,9.63-39.35ZM64.26,116.42c5.21,5.24,18.48-18.81,20.34-22.64,6.31-13,11.06-28.85,11.63-43.35-12.58,9.35-20.19,26.36-26.16,40.43-.63,1.48-3.45,1.54-3.76,2.98-1.3,6.05-.14,15.79-2.05,22.58ZM154.24,54.45c-4.26-.93-4.54,2.16-6.34,4.64-6.15,8.49-31.43,55.76-25.64,63.34,2.84,3.71,4.46-2.85,5.15-3.78,8.29-11.15,19.79-34.84,23.41-48.65,1.34-5.12,2.35-10.39,3.42-15.56ZM254.24,64.45c-4-.5-6.62,3.38-9.02,5.96-14.91,16.13-29.16,37.25-28.96,60.02,3.55,4.11,20.84-22.06,22.33-24.65,3.03-5.28,18.07-38.66,15.65-41.33ZM292.26,134.42c5.07,4.57,18.38-18.4,20.35-22.63,4.04-8.65,6.87-19.79,7.62-29.36-15.37,12.87-23.79,32.85-27.97,51.99ZM376.24,90.45c-5.87-5.45-19.68,20.85-17.98,25.97,9.11,4.01,19.21-24.83,17.98-25.97Z"/>
  </g>
</svg>