<?xml version="1.0" encoding="UTF-8"?>
<svg id="Calque_2" data-name="Calque 2" xmlns="http://www.w3.org/2000/svg" viewBox="0 0 205.87 166.51">
  <defs>
    <style>
      .cls-1 {
        fill: #e99a4c;
      }
    </style>
  </defs>
  <g id="Calque_1-2" data-name="Calque 1">
    <path class="cls-1" d="M114.27.2l-1.04,9.96c-24.45,26.92-51.64,53.38-67.98,86C83.78,69.71,112.34,31,148.28,1.09c5.06-2.62,9.51,5.38,7.71,9.68-20.97,24.59-43.69,47.26-62.5,73.64-10.2,14.31-22.23,31.14-27.2,47.78,22.65-19.53,41.56-43.23,63.95-63.03,6.36-5.62,30.44-27.06,37.03-27.16,6.91-.1,8.66,4.02,5.48,9.65-11.63,14.87-24.87,28.69-36.43,43.58-1.48,1.9-9.54,11.58-8.04,12.94,5.34,4.85,20-17.4,22.95-20.03,2.04-1.82,5.7-2.13,8.05-3.95,5.92-4.58,10.59-12.1,19.77-11.91,15.02,4.42-20.57,38.11-20.77,45.89,3.46,3.34,36.34-26.84,45.02-18.04,10.82,10.97-15.73,43.5-22.06,54.03-4.51.83-2.78-1.98-2.99-4.97-.79-11.05,2.62-17.15,6.01-27-14.81,2.57-34.63,28.59-48.94,26.06-9.89-1.75-3.62-12.55-1.96-18.01.57-1.88,2.49-4.53-1.06-4.04-.06,5.14-6.08,5.65-10.09,8.92-6.25,5.09-19.25,22.88-28.15,12.2-7.07-8.48,12.63-25.86,11.22-35.13l-53.89,52.1c-13.49,6.25-14.22-1.65-10.66-12.63,5.81-17.92,20.46-35.83,27.53-53.46-4.6-4.46-40,37.6-45.65,18.55-2.94-9.92,18.42-37.58,23.62-47.58-16.1,3.57-26.84,27.15-45.08,19.15-6.56-9.3,16.87-38.85,23.18-47.07C28.41,35.94,55,4.74,58.29,3.2c4.63-2.17,11.09-1.55,9.17,5.14-3.93,13.7-41.33,41.47-44.21,59.81,10.03-7.12,20.36-14.37,29.98-22,13.91-11.02,37.23-36.79,49.93-44.07,3.89-2.23,6.8-2.3,11.11-1.89ZM71.29,92.23l-2.98,2.98c-.04,2.1,5-1.19,2.98-2.98ZM127.29,110.23l-2.98,2.98c-.04,2.1,5-1.19,2.98-2.98ZM157.29,120.23l-2.98,2.98c-.04,2.1,5-1.19,2.98-2.98Z"/>
  </g>
</svg>