<?xml version="1.0" encoding="UTF-8"?>
<svg id="Calque_2" data-name="Calque 2" xmlns="http://www.w3.org/2000/svg" viewBox="0 0 123.94 136.24">
  <defs>
    <style>
      .cls-1 {
        fill: #558ea9;
      }
    </style>
  </defs>
  <g id="Calque_1-2" data-name="Calque 1">
    <path class="cls-1" d="M105.52,5.76c.81.51,6.15-3.97,8.88.14,8.61,12.94-18.58,48.72-29.04,57.08,10.85,11.81,26.27,23.9,33.64,38.32,13.23,25.87-1.8,31.14-25.06,21.05-7.98-3.46-30.21-26.43-33.62-26.44-8-.02-32.05,44.86-45.78,39.94-3.74-1.34-2.48-6.73-3.5-7.62-1.52-1.32-7.01.4-7.74-.26-6.07-5.56,23.26-50.33,29.87-56.73C18.08,54.81-2.06,38.79.17,13.91c24.74-8.21,42.2,12.14,59.94,25.99,11.54-15.33,26.54-26.75,40.25-39.9l3.06.95c1.2,1.01,1.45,4.4,2.11,4.81Z"/>
  </g>
</svg>