<?xml version="1.0" encoding="UTF-8"?>
<svg id="Calque_2" data-name="Calque 2" xmlns="http://www.w3.org/2000/svg" viewBox="0 0 289.71 248.8">
  <defs>
    <style>
      .cls-1 {
        fill: #558ea9;
      }
    </style>
  </defs>
  <g id="Calque_1-2" data-name="Calque 1">
    <g>
      <path class="cls-1" d="M227.94,44.2c6.77,4.79,31-18.33,39.26-19.43,7.06-.94,24.82,6.96,22.25,16.19-2.41,8.65-46.48,31.19-47.52,34.74.97,10.99,27.36,71.18,21.81,76.7-27.5.47-40.52-35.9-46.02-58.01-2.7-2.4-31.07,22.56-38.33,24.66-10.42,3.01-34.69,6.07-28.57-10.57,5.34-14.51,40.19-34.1,53.06-43.39-.54-12.63-21.58-55.17-15.88-64.42,22.54-5.66,35.16,26.01,39.93,43.53Z"/>
      <path class="cls-1" d="M87.82,178.36c11.09-1.79,41.46-10.08,45.63,5.48,4.34,16.2-29.32,17.93-39.71,20.58-2.11,9.57,28.36,39.41,14.73,43.82-17.28,5.59-35.29-31.19-43.32-34.42-12.14-4.89-39.45,11.99-59.32-4.5-24.74-20.52,36.56-23.8,47.93-24.93-2.99-15.56-14.02-79.67,5.4-85.63,7.66-2.35,24.28,5.58,26.3,13.09,1.48,5.5-3.04,10.51-3.54,15.71-1.67,17.18,2,34.24,5.91,50.8Z"/>
    </g>
  </g>
</svg>