<?xml version="1.0" encoding="UTF-8"?>
<svg id="Calque_2" data-name="Calque 2" xmlns="http://www.w3.org/2000/svg" viewBox="0 0 129.71 129.1">
  <defs>
    <style>
      .cls-1 {
        fill: #558ea9;
      }
    </style>
  </defs>
  <g id="Calque_1-2" data-name="Calque 1">
    <path class="cls-1" d="M69.67,10.14C29.7,7.04,3.22,53.74,18.19,88.64c21.76,50.72,100.45,21.67,97.59-27.55-1.74-29.9-40.38-39.76-60.17-20.01-20.19,20.15-4.48,52.07,21.55,41.55,11.94-4.82,13.6-25.42,1.58-26.37-9.66-.77-5.31,13.28-17.06,9.9-.38-44.62,58.18-14.4,31.98,18.99-23.96,30.52-74.33,3.81-58.36-38.36,14.73-38.88,75.72-40.41,90.94-.2,18.94,50.07-43.74,98.84-91.27,77.27C-9.96,103.47-10.79,37.87,27.86,11.33c10.18-6.99,39.52-20.92,41.8-1.19Z"/>
  </g>
</svg>