<?xml version="1.0" encoding="UTF-8"?>
<svg id="Calque_2" data-name="Calque 2" xmlns="http://www.w3.org/2000/svg" viewBox="0 0 218.44 221.2">
  <defs>
    <style>
      .cls-1 {
        fill: #558ea9;
      }
    </style>
  </defs>
  <g id="Calque_1-2" data-name="Calque 1">
    <path class="cls-1" d="M114.06.05c57.2-2.13,99.37,63.69,104.08,114.75,6.36,69.07-88.23,121.97-148.2,102.21C15.98,199.23-15.81,111.09,8.02,62.19,22,33.51,82.43,1.23,114.06.05ZM89.95,36.12c-40.89,5.18-66.67,66.43-53.05,101.92,15.63,40.74,89.2,61.47,122.15,31.18,15.85-14.58,30.22-52.86,26.42-73.76-6.69-36.84-60.54-63.77-95.52-59.34ZM18.37,93.55l12-35.99c-6.7,6.44-12.91,19.82-13.99,29.01-.24,2.06-1.36,7.53,1.98,6.98Z"/>
  </g>
</svg>