<?xml version="1.0" encoding="UTF-8"?>
<svg id="Calque_2" data-name="Calque 2" xmlns="http://www.w3.org/2000/svg" viewBox="0 0 230.73 224.45">
  <defs>
    <style>
      .cls-1 {
        fill: #558ea9;
      }
    </style>
  </defs>
  <g id="Calque_1-2" data-name="Calque 1">
    <path class="cls-1" d="M107.77,2.99c18.87-13.03,76.89,19.89,92.47,33.31,47.5,40.92,35.65,123.86-9.03,163.08C105.79,274.35-54.74,168.09,18.74,52.91,36.46,25.11,58.02,8.08,92.19,6.35c3.77-.19,7.88,3.03,11.72,1.83,2.5-.79,2.78-4.43,3.87-5.18ZM90.79,28.86c-32.84,2.6-67.98,46.71-67.66,78.4.56,55.81,47.54,92.68,101.02,93.25,59.97.64,97.48-67.24,78.59-120.71-8.31-23.52-50.53-49.66-74.63-49.56-4.99.02-9.49,2.03-13.71,1.92-7.95-.22-13.69-4.08-23.61-3.3Z"/>
  </g>
</svg>