<?xml version="1.0" encoding="UTF-8"?>
<svg id="Calque_2" data-name="Calque 2" xmlns="http://www.w3.org/2000/svg" viewBox="0 0 180.92 218.1">
  <defs>
    <style>
      .cls-1 {
        fill: #e99a4c;
      }
    </style>
  </defs>
  <g id="Calque_1-2" data-name="Calque 1">
    <g>
      <path class="cls-1" d="M127.33,91.15c-8.72-8.17-5.62-31.21,9.47-17.47,1.91-15.65-12.28-30.88-17.53-8.54-4.53,19.32.73,60.68,28.11,50.11,41.7-16.09,11.78-129.05-43.95-93.95-47.44,29.88-58.72,146.16-13.6,178.38,16.2,11.57,27.74,7.84,44.98,2.02-9.92,24.35-44.29,18.36-59.97,2.97C30.12,160.73,41.71,26.72,107.45,3.3c74.44-26.52,100.55,114.93,39.5,127.48-41.41,8.52-52.87-47.66-39.12-77.1,17.23-36.87,53.22.62,44.1,30.1-2.82,9.12-17.93,13.61-24.59,7.37Z"/>
      <path class="cls-1" d="M1.25,95.29c-3.04-5.25-.53-12.84,7.62-10.74,6.08,1.57,31.86,19.06,29.95,26.09-2.69,3.79-4.11,3.16-8.04,2.16-1.84-.47-28.67-16.03-29.53-17.51Z"/>
      <path class="cls-1" d="M40.81,87.67c-2.75,3-30.43-21.37-31.69-27.48-1.07-5.18,3.9-9.04,8.61-8.61,5.5.5,26.29,32.6,23.08,36.1Z"/>
    </g>
  </g>
</svg>