<?xml version="1.0" encoding="UTF-8"?>
<svg id="Calque_2" data-name="Calque 2" xmlns="http://www.w3.org/2000/svg" viewBox="0 0 162.95 155.11">
  <defs>
    <style>
      .cls-1 {
        fill: #558ea9;
      }
    </style>
  </defs>
  <g id="Calque_1-2" data-name="Calque 1">
    <path class="cls-1" d="M82.38,79.91c11.15,11.67,49.83,20.79,53.58,37.41,5.37,23.73-18.86,22.97-35.58,22.59,20.21,36.53-47.09-3.17-49.58-11.43-3.28-10.85,2.55-18.6,13.48-19.71,5.21-.53,15,4.09,18.09-.86-14.48-8.49-65.63-21.5-67.94-39.2-2.62-20.07,25.47-17.46,39.04-16.91,23.3.95,47.84,8.37,70.91,7.09C98.12,39.66,61.39,26.3,29.12,22.14c-6.9-.89-22.89,1.33-27.57-2.03-2.42-1.74-1.61-11.87-.2-14.27,8.07-13.69,64.03.41,77.47,4.61,17.53,5.48,78.45,33.43,83.07,50.94,10.61,40.24-60.99,17.71-79.51,18.52Z"/>
  </g>
</svg>