<?xml version="1.0" encoding="UTF-8"?>
<svg id="Calque_2" data-name="Calque 2" xmlns="http://www.w3.org/2000/svg" viewBox="0 0 162.81 166.91">
  <defs>
    <style>
      .cls-1 {
        fill: #558ea9;
      }
    </style>
  </defs>
  <g id="Calque_1-2" data-name="Calque 1">
    <path class="cls-1" d="M86.03,62.64c2.7,1.99,46.96-33.59,53.93-37.21,11.1-3.23,9.32,5.83,10.35,6.79,2.93,2.74,18.87.45,9.67,17.41l-60.14,38.28c3.57,15.96,34.09,57.94,25.18,72.74-6.19,10.29-18.36-4.91-19-4.02.63,7.4-.87,11.29-8.92,10.03-10.85-1.69-26.53-42.65-34.2-52-4.75-1.15-40.78,29.01-49.45,32.41-14.84,5.83-9.36-3.52-10.41-9.43-.66-3.72-4.92-4.64-2.06-10.96,4.71-10.4,46.83-31.75,48.76-39.46-3.74-17.34-27.39-50.16-21.46-67.32,1.71-4.94,8.76-2.45,9.65-3.34,1.41-1.41-2.85-22.55,10.07-14.91,2.78,1.64,4.53,8.86,7.04,10.95,3.1,2.57,7.19,1.54,9.98,4.02,5.71,5.08,16.95,37.21,21.01,46.01Z"/>
  </g>
</svg>