<?xml version="1.0" encoding="UTF-8"?>
<svg id="Calque_2" data-name="Calque 2" xmlns="http://www.w3.org/2000/svg" viewBox="0 0 154.9 151.85">
  <defs>
    <style>
      .cls-1 {
        fill: #e99a4c;
      }
    </style>
  </defs>
  <g id="Calque_1-2" data-name="Calque 1">
    <path class="cls-1" d="M72.14,38.24c4.02.55,3.27.37,4.47-2.49,3.03-7.23,3.32-26.59,12.95-29.21,13.76-3.74,11.53,17.31,8.56,25.69,3.97,4.09,24.37-26,37.16-16.15,11.96,9.21-24.55,32.82-19.16,38.15,9.31-1.94,35.28-6.07,29.71,10.69-2.07,6.22-22.55,8.32-28.69,9.38-2.82.49-5.88-1.88-5.01,2.91,3.63,8.99,58.03,30.36,38.59,43.21-11.65,7.7-47.22-23.3-50.6-20.17,1.72,9.24,16.29,39.91.87,42.04-9.27,1.28-12.02-7.63-15.3-14.71-1.31-2.83-2.08-11.83-7.55-7.35-2.33,1.91-2.42,32.85-16.71,31.57-15.86-1.41-5.36-27.95-5.33-37.56-2.44-2.75-18.89,18.47-29.7,11.71-10.36-6.47,22.69-37.19,19.7-39.71C37.44,85.2-.06,94.72,0,81.21c.04-9.37,34.53-12.04,42.11-12.98,1.13-4.62-.88-3.29-2.53-4.57-8.35-6.49-29.57-18.22-29.49-30.52.11-16.82,37.48,9.56,40,7.09.29-7.94-17.69-45.14.63-39.69,5.99,1.78,18.44,30.5,21.41,37.69Z"/>
  </g>
</svg>