<?xml version="1.0" encoding="UTF-8"?>
<svg id="Calque_2" data-name="Calque 2" xmlns="http://www.w3.org/2000/svg" viewBox="0 0 245.52 254.22">
  <defs>
    <style>
      .cls-1 {
        fill: #e99a4c;
      }
    </style>
  </defs>
  <g id="Calque_1-2" data-name="Calque 1">
    <g>
      <path class="cls-1" d="M101.01,14.67c-6.29-1.8-1.12-7.67,2.27-9.73,36.53-22.19,122.37,35.47,137.08,72.38,19.23,48.24-18.41,135.35-61.71,160.99C93.89,288.52-24.83,213.02,4.58,108.23,15.09,70.77,57.72,13.07,102.01,22.68c4.94,5.45-22.02,11.46-24.45,12.53C38.54,52.5,8.26,109.55,12.26,151.43c8.11,84.96,135.31,123.26,186.25,50.74,26.98-38.41,52.39-99.86,17.45-140.43-13.55-15.74-62.76-47.06-82.94-47.06-7.26,0-26.84,1.48-32,0Z"/>
      <path class="cls-1" d="M131.61,35.27c71.31-4.62,105.88,74.04,78.16,134.15-56.91,123.41-231.4,32.92-170.79-78.79,18.95-34.93,53.38-52.82,92.63-55.36ZM121.53,49.18c-70.11,8.88-111.72,93.18-55.53,144.51,80.14,73.21,182.03-44.15,124.85-118.85-17.1-22.33-41.9-29.13-69.31-25.66Z"/>
      <path class="cls-1" d="M115.56,63.23c103.24-9.95,98.63,161.48-7.53,134.42-74.23-18.93-62.46-127.67,7.53-134.42ZM103.43,75.09c-9.97,2.25-26.76,26.12-30.4,35.6-23.39,60.82,52.98,104.13,93.02,59.02,37.51-42.25-7.73-106.99-62.62-94.62Z"/>
      <path class="cls-1" d="M105.4,98.01c.92-.41.78-3.91,5.97-4.89,22.91-4.33,50.66,7.79,50.09,33.99-.1,4.77-3.04,22.97-4.4,27.61-6.25,21.35-43.35,24.54-60.48,14.35-22.8-13.57-23.07-55.7-.04-68.9,2.6-1.49,6.07-.93,8.84-2.17ZM149.68,144.94c-.42-.69-3.79-.87-4.69-2.2-4.74-7.03,12.48-17.19-7.12-30.93-27.75-19.45-61.25,17.71-41.91,41.91,16.49,20.62,60.29,1.91,53.72-8.77Z"/>
    </g>
  </g>
</svg>