<?xml version="1.0" encoding="UTF-8"?>
<svg id="Calque_2" data-name="Calque 2" xmlns="http://www.w3.org/2000/svg" viewBox="0 0 126.55 138.58">
  <defs>
    <style>
      .cls-1 {
        fill: #558ea9;
      }
    </style>
  </defs>
  <g id="Calque_1-2" data-name="Calque 1">
    <path class="cls-1" d="M7.26,135.64c-3.51-3.59-2.95-11.32-.48-15.49l-6.15-1.11c-4.94-26.37,20.47-34.71,32.2-53.91C24.82,53.7-7.1,20.39,1.71,6.07c3.28-5.34,6.87,3.03,11.05,2.05V.12c3.45-.18,6.68-.35,9.96,1.07,5.54,2.38,31.17,37.73,37.32,38.81,11.38-7.18,44.75-42.92,58.86-32.98,3.13,2.21,1.24,9.69,2.33,13.65.85,3.06,4.68,5.56,5.24,8.91,2.11,12.76-35.87,42.03-35.42,47.22,5.65,10.57,16.11,17.37,22.12,27.94,3.49,6.15,9.99,18.58,5.71,24.54-4.61,6.41-7.63-1.86-12.97-1.24-3.65.42-4.64,4.66-9.02,3.22-9.13-3-26.8-29.68-30.85-28.95-5.23.93-44.08,48.37-58.78,33.36Z"/>
  </g>
</svg>