<?xml version="1.0" encoding="UTF-8"?>
<svg id="Calque_2" data-name="Calque 2" xmlns="http://www.w3.org/2000/svg" viewBox="0 0 241.05 242.4">
  <defs>
    <style>
      .cls-1 {
        fill: #558ea9;
      }
    </style>
  </defs>
  <g id="Calque_1-2" data-name="Calque 1">
    <path class="cls-1" d="M114.01.82c11.66-1.87,22.26-.54,32.97,4.06,8.25,3.54,61.38,37.82,66.43,43.57,19.03,21.68,5.86,38.82,9.6,60.42,4.78,27.69,34.5,49.31,5.51,80.45-20.83,22.37-47.55,21.01-74.08,25.92-25.06,4.64-41.3,30.01-74.67,26.9-51.82-4.83-40.12-55.36-55.67-90.37-5.99-13.49-19.67-26.85-22.68-41.32-4.25-20.48,1.13-36.19,16.17-50.06,15.02-13.84,54.19-37.4,73.12-48.88,6.78-4.12,15.44-9.43,23.31-10.69ZM174.52,198.32c15.32-.83,34.07-6.58,44-18.98,21.23-26.51-9.37-48.31-11.08-74.91-1-15.65,8.62-28.01-2.02-43.99-6.28-9.43-29.26-19.55-39.96-26.04-11.78-7.16-20.84-19.03-35.99-20.12-14.83-1.06-31.21,7.36-40.95,18.04,10.8-.82,18.38,0,27.87,5.15,4.03,2.19,26.15,20.07,15.1,22.87-4.62,1.17-14.79-11.28-22.83-13.14-17.02-3.94-34.74-.9-48.16,10.12-29.7,24.4-12.25,54.74-4.91,84.95,4.01,16.49,1.12,39.19,22.79,45.21,9.04,2.51,52.17,8.95,61.14,8.85,25.93-.28,46.24-27.04,48.75-51.23.77-7.45-3.5-36.23,8.99-32.63,9.13,2.64,6.29,33.11,4.79,40.4-3.72,18.04-15.12,32.64-27.53,45.45ZM36.51,64.35c-10.54,2.3-21.87,17.4-23.5,27.47-3.63,22.3,17.82,42.74,25.54,63.5,12.05,32.37,2.02,74.94,49.06,73.11,6.17-.24,11.05-1.26,16.86-3.14,2.67-.87,25.03-11.94,26.05-12.98,3.22-3.29-.68-3.38-2.9-4.03-33.37-9.77-70.38,4.24-82.1-39.93-4.58-17.26-17.2-73.91-14.86-88.88.91-5.84,5.61-9.4,5.86-15.12Z"/>
  </g>
</svg>