<?xml version="1.0" encoding="UTF-8"?>
<svg id="Calque_2" data-name="Calque 2" xmlns="http://www.w3.org/2000/svg" viewBox="0 0 137.44 294.35">
  <defs>
    <style>
      .cls-1 {
        fill: #558ea9;
      }
    </style>
  </defs>
  <g id="Calque_1-2" data-name="Calque 1">
    <path class="cls-1" d="M7.98,2.69c7.41-5.31,32.1-1.54,41.12,1.02,40.56,11.53,67.14,49.4,80.48,87.52,24.66,70.53-10.05,172.1-84.96,197.12-12,4.01-40.77,13.43-43.18-4.98-3.94-30.07,1.42-71.41,2.08-102.12,1.17-53.93-1.96-115.35,1.93-168.06.19-2.63.62-9.13,2.53-10.5ZM19.55,270.28c69.88-7.59,107.42-93.68,95.4-156.41C105.65,65.35,71.7,21.07,20.54,14.2l-1,256.07Z"/>
  </g>
</svg>