<?xml version="1.0" encoding="UTF-8"?>
<svg id="Calque_2" data-name="Calque 2" xmlns="http://www.w3.org/2000/svg" viewBox="0 0 422.07 125.29">
  <defs>
    <style>
      .cls-1 {
        fill: #558ea9;
      }
    </style>
  </defs>
  <g id="Calque_1-2" data-name="Calque 1">
    <path class="cls-1" d="M323.47,111.2c-4.01,3.35-10.8,3.39-14.87,0l-39.54-69.39-44.14,71.86c-3.82,4.94-8.04,7.01-13.99,4.36-11.47-5.11-41.53-74.12-45.89-74.19-11.77,10.45-41.65,76.71-52.45,79.67-4.67,1.28-9.62-1.16-12.26-5L57.03,47.81,12.89,121.64c-4.38,5.75-12.08,4.65-12.87-2.9-.7-6.71,16.7-38.72,20.97-46.98,6.35-12.28,18.91-37.71,26.28-47.72,4.8-6.53,10.51-9.04,17.76-4.21l44,71.97c12.37-11.94,38.93-73.52,51.06-78.98,4.44-2,9.51-1.2,13.39,1.58l41.56,71.37,46.1-73.86c3.27-3.56,8.84-5.17,13.48-3.79,6.86,2.04,39.48,74.7,43.39,71.68.26-2.87,1.53-5.61,2.94-8.08,9.84-17.21,26.78-52.39,38.17-65.83,8.59-10.14,14.18-5.94,20.58,3.25,5.98,8.58,40.3,76.04,41.89,84.16,2.88,14.75-7.83,18.95-18.45,10.41l-36.1-69.86-43.57,77.36Z"/>
  </g>
</svg>