<?xml version="1.0" encoding="UTF-8"?>
<svg id="Calque_2" data-name="Calque 2" xmlns="http://www.w3.org/2000/svg" viewBox="0 0 204.06 208.04">
  <defs>
    <style>
      .cls-1 {
        fill: #e99a4c;
      }
    </style>
  </defs>
  <g id="Calque_1-2" data-name="Calque 1">
    <path class="cls-1" d="M91.64.63c11.58-1.28,25.21-.69,36.44,2.45,6.03,1.69,28.34,11.84,25.99,19.93s-14.69-1.76-18.86-3.06c-31.04-9.72-72.53,1.35-93.08,27.18-76.99,96.72,57.87,192.73,126,110,42.56-51.68-19.26-125.12-71.88-93.88-44.63,26.49-15.21,95.8,26.54,70.54,20.52-12.41,3.35-44.47-9.77-35.85-12.11,7.96,2.71,12.95.96,18.89-3.24,10.97-28.29,3.31-25.49-17.21,4.66-34.14,62.03-30.08,65.44,11.73,4.42,54.23-78.75,68.44-96.78,12.68C28.26,34.7,162.4-1.52,197.61,87.56c42.33,107.11-135.46,175.05-188.49,62.49C-19.94,88.38,23.93,8.1,91.64.63Z"/>
  </g>
</svg>