<?xml version="1.0" encoding="UTF-8"?>
<svg id="Calque_2" data-name="Calque 2" xmlns="http://www.w3.org/2000/svg" viewBox="0 0 200.2 186.19">
  <defs>
    <style>
      .cls-1 {
        fill: #558ea9;
      }
    </style>
  </defs>
  <g id="Calque_1-2" data-name="Calque 1">
    <path class="cls-1" d="M130.66,88.82c9.27-7.2,30.48-23.06,41.29-27.61,9.09-3.83,17.75-3.14,15.21,9.05s-32.01,39.76-41.19,50.98c-3.03,3.7-19.09,23.83-20.03,25.98-1.04,2.39.53,3.89,2.95,2.95,8.66-3.36,26.74-21.38,38.6-27.41,7-3.56,22.78-12.3,24.47.55,1.53,11.57-17.7,32.89-23.04,44.89-1.79,4.03-.02,10.5-4.96,13.08-8.76,4.59-10.93-9.33-9.97-15.94.39-2.71,8.44-16.65.9-15.18-12.17,2.37-34.18,30.2-47.07,34.96-5.15,1.9-11.98,1.67-13.63-4.37-1.95-7.14,18.66-39.73,24.02-47.26,2.2-3.1,25.46-25.5,21.69-29.29-3.67-.46-6.28,2.07-8.96,4.02-22.01,16.04-47.33,50.34-69.21,62.78-10.74,6.1-18.05-.77-14.28-12.24,8.08-24.51,47.5-60.62,65.51-80.59,1.02-1.13,8.53-8.6,6.93-9.97s-6.17,2.06-7.83,3.15c-19.46,12.82-38.83,30.23-55.19,46.81-9.94,10.08-36.58,46.19-50.01,46.18-17.02-.01,2.26-23.26,7.1-29.09,16.03-19.31,37.48-35.36,53.94-54.06,4.13-4.7,8.05-11,11.96-16.02-13.67,2.91-42.38,40.44-54.49,38.69-5.86-.85-8.15-4.82-7.47-10.49,1.47-12.37,30.72-38.25,37.99-50.2,3.58-8.19-13.18,4.69-14.62,5.39C1.25,68.25,23.05,26.98,36.95,12.21c12.48,3.48-2.87,17.69-5,23.03-1.01,2.52.38,3.71,2.95,2.95L80.43,5.72c2.6-1.3,5.46-1.97,8.38-1.56,23.24,3.24-16.66,38.04-18.86,43.07-1.08,2.46.52,3.78,2.94,2.94C89.03,38.54,119.41,7.62,137.93,3.01c6.13-1.53,8.76,4.55,7.71,9.73-.67,3.31-7.23,11.28-9.77,14.41-.87,1.08-21.83,21.31-10.97,17.04,3.71-1.46,18.9-12.97,23.79-16.31,9.85-6.75,26.64-21.76,37.8-26.1,3.9-1.52,7.49-2.73,11.58-.7,4.41,5.48,1.2,11.37-2.13,16.14-18.4,26.38-61.02,53.88-83.95,82.05-1.69,2.07-5.27,6.24-5.07,8.91,6.93-4.35,13.62-8.95,20.06-13.99,1.68-1.31,2.02-4.05,3.69-5.35ZM58.93,38.2v2c1.3-.67,1.3-1.33,0-2Z"/>
  </g>
</svg>