<?xml version="1.0" encoding="UTF-8"?>
<svg id="Calque_2" data-name="Calque 2" xmlns="http://www.w3.org/2000/svg" viewBox="0 0 171.42 166.17">
  <defs>
    <style>
      .cls-1 {
        fill: #e99a4c;
      }
    </style>
  </defs>
  <g id="Calque_1-2" data-name="Calque 1">
    <path class="cls-1" d="M78.88,2.69c7.1,5.91,20.14,45.35,25.91,47.2,15.92-.79,44.64-20.54,59.57-17.79,5.64,1.04,7.89,5.02,6.8,10.51-1.87,9.36-39.2,35.21-45.38,46.76-1.25,6.5,29.76,44.67,31.4,56.21.56,3.96-3.5,9.22-7.18,10.21-9.04,2.44-44.01-25.12-57.49-23.73-12.22,1.26-21.61,38.43-37.63,33.68-11.46-3.39-2.15-16.6-1.32-22.55.42-3.02.31-23.8-.36-24.84-4.37-6.74-60.86-2.72-52.3-23.67,4.89-11.97,43.74-14.72,54.75-23.41,1.88-2.51,3.17-15.69,3.78-20.22,1.6-11.75.04-33.68,2.92-43.08,2.35-7.66,10.15-10.61,16.53-5.3ZM79.41,38.1c-2.82-2.76-3.65.12-3.98,2.95-.86,7.32.52,15.38-1.98,23.03l14.15-5.19c.21-1.25-7.39-20.01-8.19-20.79ZM97.18,76.36c-2.94-1.83-22.05,6.13-23.93,8.55-6.63,8.55-.75,28,12.12,22.27,1.65-.74,16.02-18.56,16.04-20.02.01-1.23-3.74-10.48-4.23-10.79ZM123.43,124.08c-2.42-8.15-11.95-29.31-19.02-13.97-4.23,9.18,12.92,11.38,19.02,13.97Z"/>
  </g>
</svg>