<?xml version="1.0" encoding="UTF-8"?>
<svg id="Calque_2" data-name="Calque 2" xmlns="http://www.w3.org/2000/svg" viewBox="0 0 363.33 126.55">
  <defs>
    <style>
      .cls-1 {
        fill: #558ea9;
      }
    </style>
  </defs>
  <g id="Calque_1-2" data-name="Calque 1">
    <path class="cls-1" d="M343.58,119.43c-15.01-26.23-27.03-54.04-39.52-81.5l-58.43,85.72c-6.83,1.85-12.69-4.07-16.22-9.04-9.43-13.25-26.55-50.41-34.12-66.28-2.07-4.34-.2-15.08-7.07-8.26-14.88,14.77-30.33,50.28-44.69,69.31-8.11,10.74-15.84,26.19-29.31,10.43l-43.15-81.87L14.23,120.08c-1.96,2.33-12.51,2.5-13.15,1.87-6.67-6.68,19.54-48.33,24.41-56.61,8.19-13.94,25.87-45.53,35.89-56.1,7.02-7.41,13.56-6.13,20.66.75l44.05,79.91L187.61,3.46c7.38-4.22,12.1.94,16.34,6.62,13.46,18.04,23.15,51.1,34.73,71.27,1.27,2.21,2.2,5.05,5.38,4.62l48.14-77.9c4.87-6.51,12.07-10.9,19.68-5.91,10.86,7.12,39.78,87.69,50.75,103.24,3.28,15.53-5.41,20.58-19.05,14.04Z"/>
  </g>
</svg>