<?xml version="1.0" encoding="UTF-8"?>
<svg id="Calque_2" data-name="Calque 2" xmlns="http://www.w3.org/2000/svg" viewBox="0 0 208.84 185.86">
  <defs>
    <style>
      .cls-1 {
        fill: #558ea9;
      }
    </style>
  </defs>
  <g id="Calque_1-2" data-name="Calque 1">
    <path class="cls-1" d="M161.94,43.94c10.21-.3,42.94-15.14,40.06,4.9-1.77,12.33-30.02,16.9-36.05,27.1,8.41-1.41,17.09,8.37,21.39,9.62,10.27,2.98,26.19-4.89,20.17,15.01-.81,2.68-12.5,13.63-15.55,16.43-19.01,17.42-42.64,31.75-62.06,49.94-3.66,3.43-14.62,17.41-15.95,18.14-4.62,2.53-9.62-1.44-10.07-6.19-1.66-17.44,56.89-56.96,70.05-68.9-35.2,8.4-70.45,21.39-103.97,35.01-10.36,4.21-52.92,27.12-59.94,24.03-5.2-2.28-6.85-7.36-4.61-12.51,4.54-10.4,59.02-44.34,71.9-52.17,7.54-4.58,16.2-9.67,24.6-12.41.5-3.4-4.64-1.97-6.99-2-3.99-.05-7.48.06-11.44.58-17.78,2.33-47.44,17.49-60.62,17.18-9.41-.22-11.76-10.06-6.95-16.77,44.51-20.39,92.26-33.94,134.04-59.97l-8.12-.11c-40.97,5.24-92.58,33.52-131.12,38.93-11.35,1.59-13.84-6.63-6.69-12.76,3.55-3.04,32.01-12.67,38.89-15.1C93.11,24.23,145.78,13.57,197.23.05c8.12-.88,11.27,9.48,7.68,15.9-4.79,8.57-35.81,18.97-42.97,27.99ZM183.93,87.98c-11.7,2.59-28.01-3.72-38.52-1.58-4.1.83-35.07,18.42-40.14,21.89-2.04,1.4-4.77,3.1-5.33,5.65l83.99-25.96Z"/>
  </g>
</svg>