<?xml version="1.0" encoding="UTF-8"?>
<svg id="Calque_2" data-name="Calque 2" xmlns="http://www.w3.org/2000/svg" viewBox="0 0 122.36 315.71">
  <defs>
    <style>
      .cls-1 {
        fill: #558ea9;
      }
    </style>
  </defs>
  <g id="Calque_1-2" data-name="Calque 1">
    <path class="cls-1" d="M34.31,57.99c6.59.37,12.42,3.98,18.04,6.97,15.63,8.33,38.89,19.43,52.63,29.37,8.06,5.82,12.87,14.11,3.88,21.76-13.73,11.69-46.8,22.86-63.22,34.24-1.97,1.37-3.79,2.78-5.29,4.67,10.31,9.58,75.07,39.19,78.62,47.47,1.91,4.45,2.62,10.31-1.61,13.6-7.54,6.57-68.08,39-69.06,42.95-.65,2.6,1.58,3.6,3.25,4.72l67.79,38.19c5.22,3.24,3.11,12.66-2.32,13.67-12.53,2.33-79.23-40.14-95.45-45.88-6.75-5.2-6.93-12.47-1.13-18.58,5.44-5.73,32.46-21.28,41.23-26.76,6.04-3.77,20.32-9.59,24.54-13.46,6.04-5.55-1.58-5.11-5.99-7.83-22.44-13.87-46.17-25.56-68.64-39.38-3.85-2.63-6.27-7.58-5-12.26,2.32-8.56,62.16-35.38,72.45-43.28l1.24-4.13C68.45,96.23,5.34,68.69,1.33,59.98c-3.55-7.71.5-11.42,6.32-15.63C18.59,36.42,76.64,5.63,88.84,1.55c17.6-5.89,26.93,6.18,13.39,17.38-13.85,11.47-48.24,22.04-64.64,33.36-2.38,1.64-3.97,2.32-3.28,5.7Z"/>
  </g>
</svg>