<?xml version="1.0" encoding="UTF-8"?>
<svg id="Calque_2" data-name="Calque 2" xmlns="http://www.w3.org/2000/svg" viewBox="0 0 166.32 183.14">
  <defs>
    <style>
      .cls-1 {
        fill: #558ea9;
      }
    </style>
  </defs>
  <g id="Calque_1-2" data-name="Calque 1">
    <g>
      <path class="cls-1" d="M32.2,44.53c4.42.97,8.76-2.01,12.91-1.93,6.06.12,15.9,1.24,13.02,7.99-25.7-4.04-33.73,14.77-34.07,37.11-.24,16.16,17.8,36.82,34.05,36.9-4.37-31.97,20.43-63.03,51.24-69.76,7.16-1.56,27.84-3.08,28.88,6.79,1.23,11.63-11.35,4.99-16.93,5.13-11.49.3-29.61,10.13-37.14,18.88-1.93,2.24-11.39,14.3-11.71,15.23-.46,1.31,2.28,3.49,1.3,5.31-.28.51-3.6.31-3.71,1.54-.34,3.72,4.41,14.88,2.07,20.88,37.45,4.43,90.58-46.81,79.12-84.12-5.2-16.91-30.35-18.4-44.19-11.98-3.86,1.79-18.13,14.97-20.91,12.07-1.91-18.51,16.92-26.99,32.91-28.05,42.03-2.79,55.99,29.89,42.05,66.03-10.11,26.21-45.51,54.21-72.49,59.51-4.14.81-8.31.57-12.48.53,3.51,15.01,19.74,26.43,34.98,26.14,5.31-.1,27.92-7.27,29-6.14,5.03,5.25-8.55,14.51-12.64,16.34-25.66,11.47-49.17-1.93-62.42-24.26-2.18-3.67-3.59-11.85-5.38-13.63s-8.73-2.75-12.21-4.8c-12.34-7.32-21.07-14.96-29.07-26.97-1.43-2.14-2.04-6.47-2.33-6.67-.53-.37-5.07,4.1-8.93.03-5.66-5.95-8.39-22.68-6.58-30.63,2.71-11.87,18.73-18.46,19.69-26.29.7-5.71.21-15.75-.64-21.6-1.16-8-15.29-30.24.52-22.52,9.27,4.52,10.07,33.62,12.08,42.93Z"/>
      <path class="cls-1" d="M66.12,32.61c3.17,3.17-2.81,9.15-5.98,5.98s2.81-9.15,5.98-5.98Z"/>
    </g>
  </g>
</svg>