<?xml version="1.0" encoding="UTF-8"?>
<svg id="Calque_2" data-name="Calque 2" xmlns="http://www.w3.org/2000/svg" viewBox="0 0 212.59 193.8">
  <defs>
    <style>
      .cls-1 {
        fill: #e99a4c;
      }
    </style>
  </defs>
  <g id="Calque_1-2" data-name="Calque 1">
    <path class="cls-1" d="M115.87.93c37.68-5.9,78.29,16.74,85.62,55.42,2.84,14.98,3.19,17.79,7.84,32.16,8.92,27.54-1.12,49.79-22,67.89-12.93,11.21-57.85,31.25-74.92,35.08-38.75,8.7-82.18-7.19-101.06-42.98C-13.26,101.82,4.29,70.61,43.43,42.5c10.56-7.59,18.21-6.31,26.8-11.2,15.19-8.64,21.49-26.59,45.63-30.37ZM186.37,56.44c-6.71-39.83-68.42-58.72-93.98-24.98,11.3,2.06,23.44-5.11,34.98-4.99,9.09.09,25.97,5.4,34.08,9.91l24.92,20.06ZM150.37,44.47c-5.81-.87-26.69-10.73-29.98-3.01l13.16,6.99,16.82-3.98ZM58.38,56.46c-15.89,2.57-22.23,14.54-19.1,30.11.5,2.49,8.25,19.25,9.15,19.87,4.22,2.94,9.25-10.28,9.6-13.53.57-5.25-1.97-9.98-1.83-15.46.17-7.1,3.05-13.8,2.18-20.99ZM166.4,108.44c9-1.91,16.3-14.18,15.88-22.7-1.01-20.46-17.89-26.62-35.89-27.29-1.59,1.43,11.44,18.55,12.98,22,3.85,8.61,5.53,18.72,7.02,27.99ZM102.39,114.47c-4.44,4.74,18.23,11.64,21.24,11.9,22.05,1.94,27-9.61,21.2-29.36-1.67-5.69-18.64-28.68-23.88-30.22-8.34-2.45-28.07,12.25-30.14,19.07-3.03,9.95,3.16,21.57,14.16,18.25s.25-15.98,6.45-17.64c14.26-3.8,8.71,31.94-9.02,28ZM26.38,80.46c-5-.73-6.69,5.02-8.36,8.62-23.35,50.09,36.55,98.36,84.36,91.35l-25.83-13.14c-19.95-8.18-19.17-27.83-26.41-41.59-2.28-4.32-8.59-8.11-11.71-12.29-7.23-9.71-13.34-20.35-12.06-32.94ZM184.41,136.45c11.49-9.56,19.3-28.1,10.97-41.99l-10.97,41.99ZM64.41,110.46c-1.84,11.67,1.61,13.36,11,17.95l-11-17.95ZM174.38,122.46c-6.53-6.37-17.38,18.87-19.28,21.48-10.76,14.78-32.18,17.84-49.24,14.03-11.9-2.66-22.73-12.59-32.51-15.49s5.78,11.89,8.37,13.64c18.95,12.8,49.96,15.52,68.5,1.16,4.69-3.63,28.37-30.71,24.16-34.82Z"/>
  </g>
</svg>