<?xml version="1.0" encoding="UTF-8"?>
<svg id="Calque_2" data-name="Calque 2" xmlns="http://www.w3.org/2000/svg" viewBox="0 0 195.47 209.35">
  <defs>
    <style>
      .cls-1 {
        fill: #e99a4c;
      }
    </style>
  </defs>
  <g id="Calque_1-2" data-name="Calque 1">
    <path class="cls-1" d="M83.23,1.27c82.62-11.18,129.18,53.07,106.51,130.51-17.85,60.98-109.33,110.68-155.98,49.92C-.32,137.31,29.22,66.3,88.72,72.75c39.68,4.3,50.9,68.39,17.67,89.68-23.95,15.35-57.42-.52-47.57-29.57,4.24-12.49,23.95-13.55,20.51,2.42-.98,4.52-8.15,12.08,1.81,15.1,11.79,3.58,25.3-9.62,26.62-20.58,3.66-30.52-4.93-44.18-36.55-34.55-6.32,1.93-22.37,18.08-25.91,24.09-12.82,21.8-2.05,63.46,25.59,67.24,69.11,9.46,118.96-66.58,100.3-130.3-5.44-18.58-33.23-34.31-51.41-36.68-38.68-5.04-70.6,13.34-96.11,40.11-5.49,5.76-12.19,21.67-20.71,18.89-9.18-2.99,5.61-25.75,9.1-30.49C25.61,29.67,60.42,4.36,83.23,1.27Z"/>
  </g>
</svg>