<?xml version="1.0" encoding="UTF-8"?>
<svg id="Calque_2" data-name="Calque 2" xmlns="http://www.w3.org/2000/svg" viewBox="0 0 165.5 141.56">
  <defs>
    <style>
      .cls-1 {
        fill: #8a9a99;
      }

      .cls-2 {
        fill: #526364;
      }
    </style>
  </defs>
  <g id="Calque_1-2" data-name="Calque 1">
    <g>
      <path class="cls-2" d="M164.1,100.09c-2.17,19.62-32.55,41.14-51.57,41.47-16.75.29-15.27-15.7-20.46-27.47-36.94,27.38-73.77.52-44.84-41.87,5.09-7.45,20.96-17,22.45-23.55,1.67-7.39,2.79-33.21-6.64-34.67-18.7-2.91-33.36,28.97-39.29,42.75-2.91,6.76-10.02,32.53-13.62,34.46C-1.31,97.33-.51,76.36.59,69.57,3.7,50.47,24.67,14.81,41.44,4.43c14.78-9.16,41.85-4.05,44.54,14.79,1.06,7.42-1.17,15.34,2.14,22.87,15.32-2.9,27.32-17.83,41-4.02,9.68,9.77,11.15,20.14,7.1,33.14-5.84,18.74-34.95,29.71-25.82,52.58,6.34.88,12.68,1.02,18.44-1.96,11.44-5.92,12.04-24.2,27.25-27.75l8,6ZM102.12,88.09c19.68-13.59,33.55-51.52-3.87-30.71l3.87,30.71ZM77.45,64.39c-14.87,1.39-39.2,58.66-6.25,41.79,17.96-9.19,16.16-42.71,6.25-41.79Z"/>
      <path class="cls-1" d="M164.1,100.09l-8-6c1.14-.27,1.75-3.27,5.91-1.12,6.24,3.22,2.22,5.95,2.09,7.12Z"/>
    </g>
  </g>
</svg>