<?xml version="1.0" encoding="UTF-8"?>
<svg id="Calque_2" data-name="Calque 2" xmlns="http://www.w3.org/2000/svg" viewBox="0 0 258.66 315.52">
  <defs>
    <style>
      .cls-1 {
        fill: #865b44;
      }

      .cls-2 {
        fill: #947e92;
      }

      .cls-3 {
        fill: #8a9a99;
      }

      .cls-4 {
        fill: #d35337;
      }

      .cls-5 {
        fill: #9d7662;
      }

      .cls-6 {
        fill: #526364;
      }

      .cls-7 {
        fill: #a2c9df;
      }

      .cls-8 {
        fill: #e68a40;
      }
    </style>
  </defs>
  <g id="Calque_1-2" data-name="Calque 1">
    <g>
      <path class="cls-6" d="M116.14,190.8c-10.3,18.41-22.62,35.99-32.33,54.66-4.24,8.14-6.69,9.66,4.26,11.32,9.1-21.2,22.32-40.29,34.08-59.98-.25,1.9.37,4.27,0,6-1.23,5.8-5.81,8.32-6,14h43c1.99,0,30.05-6.73,30.99-8.02,3.11-4.26-6.15-7.72-9.99-7.98v-8c9.16,8.61,45.54,44.68,54,46,.65.1,1.36-.13,2,0-.81,8.82,2.5,4.83,5,10.04,4.3,8.96-6.1,19.96-8.14,27.87-3.2,12.44,10.18,1.55,13.9-4.14,8.08-12.36,12.95-29.24-4.76-34.57-2.73-.82-5.04,1-6,.8.12-1.31-.08-2.68,0-4v-2c.89.36,2.78-.24,4,0,3.8,2.97,16.07,6.72,17.66,11.33,3.23,9.33-3.69,18.67-3.43,25.76.13,3.46,3.27,7.01,3.83,11.85,5.04,43.51-63.18,40.68-53.59-5.48,1.96-9.45,8.8-14.81,17.54-17.45l-4.98,8.02,16.97-2.04-7.99-5.98c3.72-.93,11.56-1.56,12.01-1.99.35-.33.4-8.49-.33-9.69-.36-.59-6.32-2.11-8.74-4.25-7.9-7.03-7.19-9.03-17.94-16.06-4.36-2.85-5.23-9.44-9.52-3.49-13.03,18.05-6.9,28.13-34.17,33.79-19.86,4.12-55.97,4.62-73.27-6.31-9.2,12.06,3.9,18.78,3.98,30.97.19,27.55-27.48,41.43-51.38,29.37-26.79-13.53-20.06-52.44,8.32-60.47,7.43-2.1,20.6,2.22,23.24-1.12,9.63-12.21-11.69-30.53-10.02-44.56,2.04-3.01,29.69-2.06,36.43-4.57,5.04-1.88,4.85-9.21,5.39-9.62.66-.5,4.47.34,6,0ZM94.13,210.82l-7.97-2.02v3.98s7.98,0,7.98,0v-1.95ZM54.14,274.8c.24-.28,5.26.96,7.12-1.88,6.04-9.23-5.19-9.57-8.73-5.62-1.31,1.46.03,4.84-.38,5.5-1.03,1.65-7.21-1.74-6,12,.75,8.54,5.5,10.18,11.03,15.98l2.99-5.98,5.03,6.09c7.18,1.32,6.01-5.32,6.95-6.09,2.44-1.99,10.98-3.1,9.99-9.99-8.43-1.12-10.85,1.6-9.99,9.99-4.55-3.52-11.02-.85-14.78-1.86-2.05-.55-.98-10.75-9.22-8.14,8.98-1.37,4.92-8.76,6-10ZM74.14,274.8c.08-.86,3.17-4.99,2-5.99-.42-.36-3.05.55-4.39-.09-2.68-1.29-.22-5.42-5.6-3.91-1.31,9.57.94,7.82,7.99,9.99-.24,2.62.13,5.37,0,8h7.98c-.35-9.69-3.47-6.61-7.99-8ZM222.14,276.8c5.66-1.55,6.54.06,9.96-7.02l-11.82,3.18c.16,1.42,1.56,2.67,1.86,3.84-8.73,2.4-2.96,15.99-1,15.96,5.94-4.73,2.37-10.59,1-15.96ZM240.14,288.8c-.31.45-6.43-1.29-3.99,7.99l3.98.02v-8.01s5.99,1.99,5.99,1.99v-9.99c-4.5.6-4.64,6.04-5.98,8ZM232.13,290.8h-5.98v7.99h5.98v-7.99Z"/>
      <path class="cls-6" d="M54.14,274.8c-1.37.37-2.62-1.38-2-2s2.37.63,2,2Z"/>
      <path class="cls-1" d="M128.14,146.8c-1.18,1.8.91,19.2,0,24-.69,3.62-9.3,15.17-12,20-1.53.34-5.34-.5-6,0,.98-4.27-2.44-4.26-4.82-6.08-12.64-9.65-26.39-18.94-35.18-31.92,11.83,7.1,20.64,14.45,30.89,22.03,1.36,1.01,11.34,8.19,12.05,8.07,9.47-1.51,17.42-27.06,11.17-35.21-12.13-9.79-22.61-21.48-34.08-31.92-4.77-4.34-38.86-33.81-41.46-34.52-1.58-.44-2.95-.66-4.56-.45-.86,12.25-4.75,19.87-4.01,32.01.56,9.06-1.19,6.85,4,14,7.98,11,19.21,15.98,26,26-.69-.42-4.33-.31-7.05-1.85-35.09-19.9-32.28-40.35-22.95-76.15.23-.88,2.11-2.41,2-4,2.13,1.76,7.97,3.37,12.02,6.98,25.13,22.36,50.39,45.18,73.98,69.02Z"/>
      <path class="cls-1" d="M44.14,56.8c13.32-2.39,39.72-37.31,47.41-39.59,9.48-2.82,22.89,1.49,31.59,1.19s35.37-5.44,41.06-2.61c2.37,1.18,2.91,4.91,4.62,6.33,4.68,3.89,23.8,16.85,25.45,19.54,6.07,9.88-3.07,15.07-9.72,21.03-13.37,11.97-36.29,22.98-46.45,35.07-2.48,2.95-9.54,17.17-9.57,20.44-.08,7.3,30.86,27.25,35.61,34.6-1.45,1.03-3.86,1.83-4,2l-9.02-7.96,3.02,7.96c-3.29-1.2-5.44.45-9.19-3.84-3.24-3.71-2.08-6.92-2.81-8.16,1.51.12,2.82,2.99,3.96,1.02-4.47-4.52-9.46-10.47-15.92-12.04,3.04,4.65,9.14,6.25,11.96,11.02-1.94-.15-6.59-.42-8,0l-28-28c1.01.46,4.48-.62,6.48.43,3.74,1.97,5.17,5.93,9.5,5.56,10-25.71,19.47-51.7,29.66-77.36,1.69-4.25,6.15-8.09,6.36-8.64-.72,2.15-.06,6.07-1.37,9.57-5.81,15.58-12.5,30.97-18.63,46.41,1.6,1.52,9.07-4.6,10.95-6.03,14.65-11.13,28.2-24.03,42.9-35.15,1.69-6.92-22.36-19.52-26.88-24.78l-6.97,9.98c.5-1.26,2.51-15.39,1.99-15.99-12.1,1.42-26.95,3.7-38.93,4.1-8.36.28-15.94-2.89-23.54-1.69-10.39,1.65-21.36,17.38-29.49,24.6-4.95,4.39-16.89,8.38-16.12,15.88.63,6.21,39.67,36.18,47.19,43,2.96,2.69,6.36,9.84,6.91,10.09-21.76-15.13-41.46-33.15-60-52-1.35-1.62-1.22-4.59-2-6Z"/>
      <path class="cls-6" d="M44.14,56.8c.78,1.41.65,4.38,2,6-4.23-4.3-4.69-7.59-11.99-5.99-1.55,7.27,3.93,7.41,7.34,10.7.93.9.43,3.11.65,3.29.11,1.59-1.77,3.12-2,4,.3-4.5-3.08-5.16-5.72-7.28C23.95,59.1-2.02,43.61.13,27.96,1.14,20.54,26.26-7.21,34.16,1.77c10.54,11.96-18.5,23.31-15.9,31.77.77,2.5,21.58,15.52,25.88,23.26ZM36.13,52.82h-3.98v1.96h3.98v-1.96ZM29.14,54.8v2c1.3-.67,1.3-1.33,0-2Z"/>
      <path class="cls-6" d="M168.14,150.8c6.66-6.02,25.64-30.76,31.32-31.5,11.31-1.47,7.93,10.91,3.53,17.37-4.77,7.01-18.17,19.06-24.86,24.13-1.7,1.29-2.07,5.11-6,4-.21-.88-1.15-1.65-2-2,1.87-2.47,3.47-5.04,5.96-7l-7.96-5Z"/>
      <path class="cls-1" d="M172.14,164.8c3.06,12.72,10.73,14.96,20,22,3.48,2.64,3.02,7.87,10.9,8.11,3.3.1,44.49-9.83,37.09-16.1-13.24.46-26.93,2-39.99,3.99v-2c8.01-.04,41.01-11,45.81-3.82,10.08,15.06-38.11,20.02-39.82,21.84-4.56,4.82,6.39,8.05,7.81,9.27,6.82,5.91,13.15,12.97,20.2,18.72l-2,2c-12.83-10.95-27.59-21.89-40.02-32.98-8.82-7.86-17.65-20.07-25.98-27.02,1.72-.84,1.41-3.03,2-4,.46-.75,1.47-1.29,2-2,.85.35,1.79,1.12,2,2Z"/>
      <path class="cls-5" d="M200.14,180.8v2c-3.19.49-6.12,1-8,4-9.27-7.04-16.94-9.28-20-22,3.93,1.11,4.3-2.71,6-4,2.83,7.54,14.22,20.04,22,20Z"/>
      <path class="cls-2" d="M170.14,162.8c-.53.71-1.54,1.25-2,2-2.71-1.91-5.4-3.94-8-6v-2c.17-.66-.26-1.69,0-2,.14-.17,2.55-.97,4-2,1.15-.81,3.11-1.2,4-2l7.96,5c-2.5,1.96-4.09,4.53-5.96,7Z"/>
      <path class="cls-2" d="M226.14,258.8l7.99,5.98-16.97,2.04,4.98-8.02c1.08-.33,2.83.29,4,0Z"/>
      <path class="cls-2" d="M240.14,232.8c-1.22-.24-3.11.36-4,0-2.81-1.14-2.84-3.01-4-4l2-2c2.58,2.1,4.6,4.9,6,6Z"/>
      <path class="cls-3" d="M166.14,168.8c8.33,6.95,17.16,19.17,25.98,27.02,12.43,11.08,27.19,22.03,40.02,32.98,1.16.99,1.19,2.86,4,4v2l-2,4c-8.46-1.32-44.84-37.39-54-46-7.83-7.36-16.47-17.4-26-22,3.86-5.28,2.17-10.2,12-2Z"/>
      <path class="cls-3" d="M134.14,174.8c-4.23,7.05-7.82,15-12,22-11.76,19.69-24.98,38.79-34.08,59.98-10.95-1.66-8.5-3.18-4.26-11.32,9.72-18.67,22.04-36.25,32.33-54.66,2.7-4.83,11.31-16.38,12-20,2.22-.01,5.22,3.82,6,4Z"/>
      <path class="cls-1" d="M154.14,170.8c9.53,4.6,18.17,14.64,26,22v8c-17.54-1.17-38.83,8.94-58,2,.37-1.73-.25-4.1,0-6,4.18-7,7.77-14.95,12-22,1.09.26,2.69-.09,4,0,2.22,6.66-14.46,21.12-8.06,25.06,4.41,2.71,42.45-.73,44.07-3.09.32-10.88-5.29-8.56-8.99-11.9-4.76-4.3-8.62-11.03-15.02-12.06.71-1.35,3.75-1.66,4-2Z"/>
      <path class="cls-7" d="M48.14,284.8c8.23-2.61,7.16,7.59,9.22,8.14,3.77,1.01,10.23-1.66,14.78,1.86-.86-8.39,1.56-11.11,9.99-9.99.99,6.89-7.55,8-9.99,9.99-.94.77.23,7.41-6.95,6.09l-5.03-6.09-2.99,5.98c-5.53-5.8-10.28-7.44-11.03-15.98h2Z"/>
      <path class="cls-7" d="M74.14,274.8c-7.04-2.17-9.3-.42-7.99-9.99,5.38-1.51,2.92,2.62,5.6,3.91,1.34.64,3.97-.26,4.39.09,1.17,1-1.92,5.12-2,5.99,4.52,1.39,7.64-1.69,7.99,7.99h-7.98c.12-2.62-.25-5.37,0-7.99Z"/>
      <polygon class="cls-3" points="94.13 210.82 94.13 212.78 86.15 212.79 86.15 208.81 94.13 210.82"/>
      <path class="cls-2" d="M236.14,238.8c.97.2,3.27-1.62,6-.8,17.71,5.33,12.85,22.21,4.76,34.57-3.72,5.69-17.11,16.58-13.9,4.14,2.04-7.91,12.44-18.91,8.14-27.87-2.5-5.2-5.81-1.22-5-10.04Z"/>
      <path class="cls-2" d="M236.14,238.8c-.64-.13-1.35.1-2,0l2-4c-.08,1.32.12,2.69,0,4Z"/>
      <path class="cls-7" d="M222.14,276.8c1.37,5.37,4.94,11.23-1,15.96-1.96.03-7.73-13.56,1-15.96-.3-1.17-1.7-2.42-1.86-3.84l11.82-3.18c-3.42,7.08-4.3,5.47-9.96,7.02Z"/>
      <path class="cls-7" d="M240.14,288.8c1.35-1.96,1.49-7.4,5.98-8v9.99s-5.98-1.99-5.98-1.99v8.01s-3.99-.02-3.99-.02c-2.44-9.28,3.68-7.54,3.99-7.99Z"/>
      <path class="cls-4" d="M40.14,112.8c-.74-12.13,3.15-19.75,4.01-32.01,1.62-.2,2.99.02,4.56.45,2.6.72,36.69,30.18,41.46,34.52,11.47,10.44,21.95,22.13,34.08,31.92,6.25,8.16-1.7,33.7-11.17,35.21-.72.11-10.69-7.07-12.05-8.07-10.24-7.59-19.06-14.93-30.89-22.03-6.79-10.02-18.02-15-26-26-2.76-4.93-3.78-7.32,1.99-8.99l-5.99-5.01Z"/>
      <path class="cls-3" d="M42.14,70.8c-.22-.18.27-2.39-.65-3.29-3.41-3.29-8.88-3.44-7.34-10.7,7.3-1.6,7.76,1.69,11.99,5.99,18.54,18.85,38.24,36.87,60,52l28,28c-.35.1-5.8,3.7-6,4-23.58-23.84-48.84-46.66-73.98-69.02-4.06-3.61-9.89-5.23-12.02-6.98Z"/>
      <path class="cls-6" d="M142.14,142.8c.73,1.24-.43,4.45,2.81,8.16,3.74,4.29,5.89,2.64,9.19,3.84,1.01.37,2.32,2.1,4,2,.69.63,1.27,1.42,2,2,2.6,2.06,5.29,4.09,8,6-.59.97-.28,3.16-2,4-9.83-8.2-8.14-3.28-12,2-.25.34-3.29.65-4,2-1.11-.18-2.82-.11-4,0l-2,2c-1.96.06-4.05.14-6,0-1.31-.09-2.91.26-4,0-.78-.18-3.78-4.01-6-4,.91-4.8-1.18-22.2,0-24,.2-.3,5.65-3.9,6-4,1.41-.42,6.06-.15,8,0Z"/>
      <path class="cls-8" d="M40.14,112.8l5.99,5.01c-5.77,1.67-4.76,4.06-1.99,8.99-5.19-7.15-3.44-4.94-4-14Z"/>
      <path class="cls-4" d="M158.14,34.8l6.97-9.98c4.52,5.26,28.58,17.85,26.88,24.78-14.69,11.13-28.25,24.02-42.9,35.15-1.89,1.43-9.35,7.55-10.95,6.03,6.13-15.44,12.83-30.83,18.63-46.41,1.3-3.5.64-7.42,1.37-9.57Z"/>
      <path class="cls-4" d="M106.14,114.8c-.56-.26-3.95-7.4-6.91-10.09-7.51-6.82-46.55-36.8-47.19-43-.76-7.5,11.18-11.48,16.12-15.88,8.13-7.22,19.11-22.95,29.49-24.6,7.6-1.21,15.18,1.96,23.54,1.69,11.98-.4,26.82-2.68,38.93-4.1.53.61-1.48,14.73-1.99,15.99-.22.54-4.68,4.38-6.36,8.64-10.18,25.65-19.66,51.65-29.66,77.36-4.33.36-5.76-3.59-9.5-5.56-2-1.05-5.47.03-6.48-.43Z"/>
      <rect class="cls-3" x="32.15" y="52.82" width="3.98" height="1.96"/>
      <path class="cls-3" d="M29.14,54.8c1.3.67,1.3,1.33,0,2v-2Z"/>
      <path class="cls-5" d="M160.14,154.8c-.26.31.17,1.34,0,2h-2c-1.68.1-2.99-1.63-4-2l-3.02-7.96,9.02,7.96Z"/>
      <path class="cls-5" d="M142.14,142.8c-2.82-4.77-8.92-6.37-11.96-11.02,6.46,1.57,11.45,7.52,15.92,12.04-1.14,1.97-2.45-.9-3.96-1.02Z"/>
      <path class="cls-4" d="M200.14,182.8c13.06-1.98,26.75-3.53,39.99-3.99,7.4,6.27-33.79,16.2-37.09,16.1-7.88-.24-7.42-5.47-10.9-8.11,1.88-3,4.81-3.51,8-4Z"/>
      <path class="cls-1" d="M160.14,158.8c-.73-.58-1.31-1.37-2-2h2v2Z"/>
      <path class="cls-4" d="M150.14,172.8c6.4,1.03,10.26,7.76,15.02,12.06,3.7,3.34,9.31,1.02,8.99,11.9-1.62,2.37-39.66,5.81-44.07,3.09-6.4-3.94,10.28-18.4,8.06-25.06,1.95.14,4.04.06,6,0,.52-.02,1.51-1.96,2-2,1.18-.11,2.89-.18,4,0Z"/>
      <path class="cls-1" d="M144.14,174.8l2-2c-.49.04-1.48,1.98-2,2Z"/>
    </g>
  </g>
</svg>