<?xml version="1.0" encoding="UTF-8"?>
<svg id="Calque_2" data-name="Calque 2" xmlns="http://www.w3.org/2000/svg" viewBox="0 0 113.29 118.68">
  <defs>
    <style>
      .cls-1 {
        fill: #e68a40;
      }
    </style>
  </defs>
  <g id="Calque_1-2" data-name="Calque 1">
    <path class="cls-1" d="M76.13,12.33c-.84.87-18.59-.11-24.09.92C9.65,21.23.29,96.14,47.29,102.16c26.04,3.34,53.3-10.85,48.35-40.35-3.6-21.46-37.21-27.92-45.65-8.63-9.67,22.11,20.26,27.14,20.22,14.16-.02-7.39-17.58-1.99-8.25-14.16,5.83-7.6,7.89.07,9.73.96,5.09,2.48,9.98.12,12.04,9.65,6.2,28.75-44.33,33.28-49.5,5.45-8.95-48.15,52.27-56.79,72.29-24.29,20.73,33.67-9.43,70.58-45.31,73.46C-19.84,124.9-14.22,12.87,42.01,1.22c6.63-1.38,29.71-2.81,33.13,3.1,1.01,1.74,1.62,7.35.99,8.01Z"/>
  </g>
</svg>