<?xml version="1.0" encoding="UTF-8"?>
<svg id="Calque_2" data-name="Calque 2" xmlns="http://www.w3.org/2000/svg" viewBox="0 0 203.44 244.74">
  <defs>
    <style>
      .cls-1 {
        fill: #865b44;
      }

      .cls-2 {
        fill: #8a9a99;
      }

      .cls-3 {
        fill: #9d7662;
      }

      .cls-4 {
        fill: #526364;
      }

      .cls-5 {
        fill: #a2c9df;
      }

      .cls-6 {
        fill: #efd078;
      }

      .cls-7 {
        fill: #4e7298;
      }

      .cls-8 {
        fill: #8e9142;
      }

      .cls-9 {
        fill: #edc041;
      }
    </style>
  </defs>
  <g id="Calque_1-2" data-name="Calque 1">
    <g>
      <path class="cls-8" d="M15.34,81.87c-.34,1.75.5,4.68,0,6-2.13,5.64-5.78,10.11-7.45,17.55-18.28,81.85,45.82,145.39,127.45,130.45,13.35-2.44,13.48-4.47,24-10,17.44-9.17,18.03-9.05,30-24,1.39-1.73,3.72-2.56,6-6,.43-.64,3.15-.52,2.02-2.98l-1.02-1.01c-1.38.76-.89,1.96-1,1.99-1.12.33-2.96-.35-4,0v-4c2.45-.52,5.79-3.69,9.99-1.99-.38,20.7-23.45,36.29-40.55,44.43-35.19,16.75-72.07,17.32-106.08-2.79C9.5,202.79-9.15,150.28,4.25,99.78c1.9-7.16,7.79-13.72,9.09-17.91h2Z"/>
      <path class="cls-3" d="M191.34,189.87v4c-29.92,10.07-78.63,5.8-94-26l-2-2c-3.04-10.6-7.58-10.2,2-18-1.97,19.89,11.87,31.25,28.64,38.36,24.33,10.31,40.25,8.96,65.36,3.64Z"/>
      <path class="cls-8" d="M79.34,97.87c2.81,15.01,1.42,22.2,12,34l4,4c.72,1.51.85,1.3,2,2l2,10c-.39.33-1.6-.33-2,0-9.58,7.8-5.04,7.4-2,18-.66.04-1.34-.05-2,0l-7.74-14.74c19.49-15.44,6.04-11.96-2.34-20.17-2.94-2.88-4.85-9.05-5.91-13.09-1.32-4.99-1.96-16.84-2.86-18.14s-11.42-2.91-15.14-3.86c6.81-1.7,14.2,1.75,20,2Z"/>
      <path class="cls-3" d="M95.34,135.87l-4-4c1.66,1.85,1.44-1.42,4,4Z"/>
      <path class="cls-6" d="M93.34,165.87c-4.55.34-8.91,3.69-13.15,3.89-.99.05-19.09-4.46-12.84,2.08,2.07,2.17,15.17,2.32,18.89,1.86,7.36-.91,5.47-5.34,11.11-5.83,15.37,31.8,64.08,36.07,94,26,1.04-.35,2.88.33,4,0v2c-2.28,3.44-4.61,4.27-6,6-1.16-4.27-5.76.38-7.46,1.55-6.29,4.34-12.47,10.49-17.13,13.86-2.77,2-19.45,4.49-5.42,8.6-10.52,5.53-10.65,7.56-24,10l3.99-9.99c-6.1,1.08-10.36,3.86-16.97,4.13-8.01.33-34.25-1.08-41.89-2.27-5.73-.89-18.27-9.45-22.23-13.77-2.93-3.19-3.8-7.65-5.96-10.04-12.77-14.12-28.48-25.96-29-47.15-.39-15.98,6.5-11.46,9.63-15.48,2.18-2.8-1.94-6.36,8.43-7.43,4.73-.49,10.42,3.94,11.02,3.94,1.4-.01,2.13-4.52,3.5-5.38.47-.3,8.66-4.2,9.48-4.55,5.75-2.47,8.78,3.18,12-10,1.07,4.04,2.97,10.21,5.91,13.09,8.38,8.2,21.83,4.72,2.34,20.17l7.74,14.74Z"/>
      <path class="cls-9" d="M23.34,85.87c6.19.45,27.52,7.83,36,10,3.72.95,14.22,2.56,15.14,3.86s1.55,13.14,2.86,18.14c-3.22,13.18-6.25,7.53-12,10l-1.97-7.98c-.57,8.17-10.13,9.88-16.82,7.71-3.77-1.23-1.41-7.41-7.2-5.71-.87,3.23,1.34,5.57,1.99,7.99.17.61-.12,1.36,0,2v2c-10.37,1.08-6.25,4.63-8.43,7.43-3.12,4.01-10.02-.5-9.63,15.48.52,21.19,16.23,33.03,29,47.15,2.16,2.39,3.03,6.85,5.96,10.04,3.97,4.32,16.5,12.88,22.23,13.77,7.64,1.18,33.88,2.6,41.89,2.27,6.61-.27,10.87-3.05,16.97-4.13l-3.99,9.99C53.71,250.81-10.39,187.27,7.89,105.42c1.66-7.44,5.32-11.91,7.45-17.55,2.41-1.43,5.19-2.21,8-2ZM29.33,181.88c-2.18-2.18-6.16,1.8-3.98,3.98s6.16-1.8,3.98-3.98Z"/>
      <g>
        <path class="cls-7" d="M137.34,35.87c1.35.49,2.59,1.55,4,2-1.64,6.02.55,12.57,7.27,13.4,17.1,2.11,10.64-27.09-5.27-15.4-6.97-2.07-9.72-6.56-14-10,.09-2.07-.46-2.79-2-4-3.24-2.55-4.53-1.27-8.43.22-4.63,1.76-10.73,9.55-13.57,11.78-4.65,3.66-6.61,3.58-12,4-.15.01-.68-1.69-2.62-1.62-8.8.29-4.53,5.43-3.38,9.62,1.74,6.36,3.79,6.68,3.97,7.33,2.08,7.4-3.94,6.67-3.98,7.83-.17,4.28,4.63,15.11-5,16.91-10.33,1.94-30.37-5.75-40.97-8.1l3.98-3.95c-7.05-.16-11.51,2.54-10-6.02l-11.99,1.98c2.46-5.87,11.9-10.94,18-9.98,1.24.19,4.98,3.67,7.07,3.89,2.79.3,6.17-10.25,2.9-13.88-3.44-.87-1.21,3.07-2.14,3.87-1.16.99-5.41-2.09-5.84-1.88-2.38-12.8,3.44-9.29,10.64-14.37,7.68-5.42,8.76-8.28,17.36-11.63-.32,4.67,4.31,6.53,7.98,8,.58-3.64,2.82-6.75.02-10,7.95-8.18,4.12-2.58,7.64-4.47.9-.48,2.25-6.42,6.36-5.58l-2-1.95c15.1-4.4,19.47-6.94,33.87,3.13,7.28,5.09,14.66,18,18.97,21.03,5.16,3.63,15.93-.35,18.76,9.29,6.86,23.34-32.26,25.01-25.61-1.44ZM109.17,8.01c-7.12-4.55-13.05,13.02,2.16,9.85.69-.65-1.49-9.42-2.16-9.85ZM77,71.55c8.66-5.18-8.23-18.35-7.67.31,2.34-.29,5.84.78,7.67-.31Z"/>
        <path class="cls-4" d="M91.34,3.87l2,1.95c-4.11-.84-5.46,5.1-6.36,5.58-3.52,1.89.31-3.71-7.64,4.47-.52.53-6.19,1.29-8,2-8.6,3.35-9.68,6.22-17.36,11.63-7.2,5.08-13.02,1.56-10.64,14.37-.31.15,0,4.34-4,4.97l2,3.03c-6.1-.96-15.54,4.11-18,9.98l11.99-1.98c-1.51,8.56,2.94,5.86,10,6.02l-3.98,3.95c10.6,2.34,30.64,10.04,40.97,8.1,9.63-1.81,4.83-12.64,5-16.91.05-1.16,6.06-.42,3.98-7.83-.18-.65-2.24-.97-3.97-7.33,6.24,1.84,5.57-5.5,11.99-4.02v-1.96s-5.99-2.02-5.99-2.02c5.39-.42,7.35-.34,12-4,2.84-2.24,8.94-10.02,13.57-11.78,3.9-1.48,5.2-2.76,8.43-.22l-1.98,1.02c-1.35,4.91,2.91,2.12,3.98,2.98,4.28,3.44,7.03,7.93,14,10-.11.08-1.96,1.86-2,2-1.41-.45-2.65-1.51-4-2-4.08-1.49-18.52-7.47-21-7.22-.61.06-10.56,4.79-11,5.22-2.49,2.43-13.33,34.72-13.56,39.62-.61,12.76,8.8,25.29-12.44,24.38-5.8-.25-13.19-3.7-20-2-8.48-2.17-29.81-9.55-36-10l-8-4h-2c.18-.59.18-3.61,0-4,.37-.77,1.94-1.61,2-2,15.11,5.89,31.46,12.71,47.51,15.49,11.31,1.96,30.6,7.54,26.5-9.49-24.53,1.32-48.09-8.1-70.01-18,.64-1.34,1.28-2.71,2-4C35.34,34.54,63.38,12.01,91.34,3.87Z"/>
        <path class="cls-2" d="M21.34,59.87c-.72,1.29-1.36,2.66-2,4-2.91,6.08-2.66,3.01-4,12-.06.39-1.63,1.23-2,2-.21-.46-3.81-1.16-4.09-5-.45-6.23,4.48-16.13,12.09-13Z"/>
        <path class="cls-5" d="M143.34,35.87c15.9-11.68,22.37,17.52,5.27,15.4-6.72-.83-8.91-7.38-7.27-13.4.04-.14,1.89-1.92,2-2Z"/>
        <path class="cls-5" d="M43.34,43.87c.43-.21,4.68,2.87,5.84,1.88.93-.8-1.3-4.73,2.14-3.87,3.27,3.64-.12,14.18-2.9,13.88-2.09-.22-5.83-3.7-7.07-3.89l-2-3.03c4-.63,3.69-4.82,4-4.97Z"/>
        <path class="cls-2" d="M93.34,37.87l5.99,2.02v1.96c-6.42-1.48-5.75,5.86-11.99,4.02-1.14-4.19-5.42-9.33,3.38-9.62,1.94-.06,2.46,1.64,2.62,1.62Z"/>
        <path class="cls-5" d="M109.17,8.01c.67.43,2.84,9.2,2.16,9.85-15.21,3.17-9.28-14.39-2.16-9.85Z"/>
        <path class="cls-5" d="M77,71.55c-1.83,1.09-5.33.02-7.67.31-.56-18.66,16.33-5.49,7.67-.31Z"/>
        <path class="cls-5" d="M79.34,15.87c2.79,3.24.56,6.35-.02,10-3.67-1.46-8.29-3.32-7.98-8,1.81-.71,7.48-1.47,8-2Z"/>
        <path class="cls-2" d="M129.34,25.87c-1.07-.86-5.33,1.93-3.98-2.98l1.98-1.02c1.54,1.21,2.09,1.93,2,4Z"/>
        <path class="cls-6" d="M23.34,85.87c-2.81-.21-5.59.57-8,2,.5-1.32-.34-4.25,0-6l8,4Z"/>
        <path class="cls-5" d="M19.34,63.87c21.92,9.9,45.48,19.32,70.01,18,4.1,17.03-15.18,11.44-26.5,9.49-16.05-2.78-32.41-9.6-47.51-15.49,1.34-8.99,1.09-5.92,4-12Z"/>
      </g>
      <path class="cls-1" d="M93.34,165.87c.66-.05,1.34.04,2,0l2,2c-5.64.48-3.75,4.91-11.11,5.83-3.72.46-16.82.31-18.89-1.86-6.25-6.54,11.86-2.04,12.84-2.08,4.24-.2,8.6-3.55,13.15-3.89Z"/>
      <path class="cls-9" d="M189.34,201.87c-11.97,14.95-12.56,14.83-30,24-14.03-4.11,2.64-6.59,5.42-8.6,4.65-3.36,10.84-9.52,17.13-13.86,1.69-1.17,6.3-5.82,7.46-1.55Z"/>
      <path class="cls-3" d="M195.34,195.87v-2c.11-.03-.38-1.23,1-1.99l1.02,1.01c1.13,2.45-1.59,2.33-2.02,2.98Z"/>
      <path class="cls-1" d="M65.34,127.87c-.82.35-9.01,4.26-9.48,4.55-1.36.86-2.1,5.37-3.5,5.38-.61,0-6.29-4.43-11.02-3.94v-2l1.96-1-1.96-1c-.65-2.42-2.86-4.76-1.99-7.99,5.79-1.7,3.43,4.48,7.2,5.71,6.69,2.18,16.24.46,16.82-7.71l1.97,7.98Z"/>
      <path class="cls-6" d="M29.33,181.88c2.18,2.18-1.8,6.16-3.98,3.98s1.8-6.16,3.98-3.98Z"/>
      <path class="cls-6" d="M41.34,131.87c-.12-.64.17-1.39,0-2l1.96,1-1.96,1Z"/>
      <path class="cls-9" d="M175.32,81.86c.51.55.21,8.87,3.98,11.05s13.07.27,18.04,2.98c-9.83,10.58-10.8,9.83-6.01,23.97-5.55,1.72-12.73-6.43-16.7-5.67s-5.66,8.72-11.28,7.67c-.27-4.51,1.03-9.72-1-14-2.27-4.75-9.58-3.81-10.99-7.97,3.27-.7,16.06-3.01,17.54-4.47s1.72-18.58,6.43-13.56Z"/>
      <path class="cls-3" d="M203.34,91.88c1.14,6.58-8.44,11.15-9.69,15.43-2.01,6.92,5.83,15.22-1.36,20.56-3.87.79-10.85-8.11-16-7.98-5.89.14-9.36,12.23-16.94,9.96-.51-5.23,1.04-11.59-.42-16.58-1.84-6.3-13.55-7.47-11.58-14.39,1.1-3.88,12.63-3.28,15.96-6.05,3.8-3.17,3.7-15.21,7.98-18.03,6.36-4.19,8.32,11.93,12.03,14.09s14.89.88,20.03,2.98ZM175.32,81.86c-4.7-5.02-4.91,12.07-6.43,13.56s-14.28,3.77-17.54,4.47c1.41,4.16,8.73,3.22,10.99,7.97,2.04,4.28.73,9.48,1,14,5.62,1.05,7.13-6.89,11.28-7.67s11.15,7.39,16.7,5.67c-4.79-14.13-3.83-13.39,6.01-23.97-4.97-2.71-14.21-.77-18.04-2.98s-3.47-10.5-3.98-11.05Z"/>
    </g>
  </g>
</svg>