<?xml version="1.0" encoding="UTF-8"?>
<svg id="Calque_2" data-name="Calque 2" xmlns="http://www.w3.org/2000/svg" viewBox="0 0 266.13 258.42">
  <defs>
    <style>
      .cls-1 {
        fill: #865b44;
      }

      .cls-2 {
        fill: #d35337;
      }

      .cls-3 {
        fill: #efd078;
      }
    </style>
  </defs>
  <g id="Calque_1-2" data-name="Calque 1">
    <g>
      <path class="cls-2" d="M256.25,232.31l9.16,1.9c4.25,12.48-11.41,12.02-19.73,9.67-6.94-1.96-16.31-17.22-24.7-21.3-33.98-16.56-72.03,37.38-101.66,35.81-10.17-.54-24.64-11.58-22.74-22.57.76-4.41,7.24-13.93,10.01-18.17,7.22-11.04,26.46-29.19,30.59-39.41,1.6-3.97,1.23-7.83,1.06-11.93-3.27-3.34-29.93,11.42-34.64,14.35-9.41,5.86-34.49,29.6-42.39,29.42-11.31-.25-10.16-9.05-4.04-15.86,14.39-16.01,43.82-31.87,63.71-40.29,5.98-2.53,19.39-2.65,21.11-9.06.84-3.12-1.21-6.28-.98-9.22.52-6.6,5.66-30.41-2.01-33.08-16.83-5.86-17.34,15.24-24.35,27.14-13.6,23.06-45.11,52.53-72.27,31.47-13.39-10.39-.06-18.74,8.92-26.81,11.4-10.24,56.31-35.36,60.73-43.27,4.67-8.34,5.61-32.82-5.6-35.93-6.36-1.77-27.89-1.79-31.71,3.62-1.72,2.43-3.86,22.47-7.02,29.97-6.98,16.58-37.2,57.3-56.43,57.56-1.62.02-10.44-1.81-10.8-2.23-.69-.8-.54-17.74-.1-20.66,2.71-17.89,30.24-50.05,44-62.06,3.27-2.86,7.42-1.31,9-6.89,2.33-8.22,1.21-19.98-2.73-27.58-4.53-8.75-23.42-16.68-15.87-24.08,14.51-14.23,38.56,29.26,35.48,41.49,20.43-9.14,50.45-8.68,58.97,16.01,2,5.8,2.02,18.76,3.98,22.02.83,1.39,17.27,11.14,20.06,13.95,1.45,1.46,6.98,10.12,6.98,11.01v35c15.41.26,58.93-13.99,51.09,16.04-2.22,8.51-26.08,39.03-34.23,28.06-5.47-7.36,18.16-22.64,17.13-32.09-1.58-1.42-29.35,4.22-32.06,6.92-2.31,2.3-2.46,16.55-6.25,23.75-8.44,16.03-36.42,32.32-40.33,47.77-.66,2.6-2.5,4.42.56,6.63l12.21.04c28.76-17.48,70.7-53.61,104.55-30.78,4.69,3.16,21.13,19.88,21.33,23.67.1,1.93-3.74,6.44,4.98,8.02,3.43.09-1.91-6.76-2.98-8.02ZM56.24,70.32c-.57-.63-10.24,3.81-11.31,4.66-6.07,4.85-28.37,34.54-31.09,41.92-1.14,3.1-.23,7.92-1.58,11.39,3.84,3.86,27.85-22.19,30.83-26.15,6.87-9.12,14.15-19.69,13.15-31.83ZM96.25,118.31c-2.49,1.43-5.73,1.05-10,4-.75.52-1.28,1.47-2,2-6.12,4.46-26.85,20.75-28.03,26.98-.57,3-.13,3.47,2.8,2.82,12.01-2.66,35.72-19.1,37.23-31.8,4.91,2.04,11.28-13.17,5.02-9.99-1.72.87-2.9,4.77-5.02,5.99Z"/>
      <path class="cls-1" d="M256.25,232.31c1.07,1.26,6.41,8.11,2.98,8.02-8.72-1.58-4.88-6.09-4.98-8.02h2Z"/>
      <path class="cls-3" d="M96.25,118.31c2.12-1.22,3.3-5.12,5.02-5.99,6.26-3.18-.11,12.04-5.02,9.99.16-1.3-.1-2.69,0-4Z"/>
      <path class="cls-3" d="M84.25,124.31c.72-.53,1.25-1.48,2-2l-2,2Z"/>
    </g>
  </g>
</svg>