<?xml version="1.0" encoding="UTF-8"?>
<svg id="Calque_2" data-name="Calque 2" xmlns="http://www.w3.org/2000/svg" viewBox="0 0 132.07 126.3">
  <defs>
    <style>
      .cls-1 {
        fill: #4e7298;
      }

      .cls-2 {
        fill: #2a6395;
      }

      .cls-3 {
        fill: #6ab1d1;
      }
    </style>
  </defs>
  <g id="Calque_1-2" data-name="Calque 1">
    <g>
      <path class="cls-2" d="M100.26.49c1.73,3.51,5.51,2.88,8,4,2.01.9,3.9,2.98,6,4v7.99s8-1.99,8-1.99c.08.3,1.85.72,1.66,2.57-1.32,13.24-34.6,38.64-33.67,42.36.79,3.12,42.82,29.04,41.8,35.8-.3,2.01-3.33,2.59-3.8,3.26-6.21-.85-3.11,1.3-4,4-13.35.14-8.51,1.69-17.46,3.68-11.8,2.62-11.38-4.81-16.76-8.45-3.08-2.09-7.38-2.78-10.28-5.17-5.36-4.42-7.4-14.95-18.19-12.12-2.22.58-1.08,3.88-1.31,4.07-6.73,5.67-15.06,13.62-21.34,20.66-3.91,4.39-7.91,19-18.64,10.3-1.35-3.81,3.49-2.43,3.97-4.28,2.41-9.37-3.59-9.26-4.01-16.68-3.46,2.32-12.18,16.67-11.98,1.99.66-.51,1.25-1.38,2-2,9.72-7.94,10.07-6.51,18-18,.34-.24,2.11.51,3.49-.45,1.66-1.15,5.76-8.87,6.51-11.55.15-.54-.05-1.31,0-2l1.96-1-1.96-1c-.09-.7.17-1.46,0-2-2.53-8.14-8.78-10.84-16-14-.67-.67-1.33-1.34-2-2-.15-.15.65-2.3-1.31-4.11-2.57-2.36-8.99-5.19-12.69-5.89-.6-.71-1.38-1.29-2-2l11.54-9.93c9.51.58,5.35-.72,6.46-6.07h2c9.49,1.7,31.73,24.34,37.31,25.6,6.29,1.42,6.15-4.91,7.94-7.34,3.21-4.34,4.08-7.32,4.75-8.26,5.96-8.41,16.64-21.33,26-24Z"/>
      <path class="cls-1" d="M74.26,24.49c-.67.94-1.54,3.92-4.75,8.26-1.79,2.42-1.65,8.76-7.94,7.34-5.58-1.26-27.82-23.9-37.31-25.6l-1-1.96c-1.2.07-.85,1.23-1,1.96-1.11,5.35,3.05,6.65-6.46,6.07l-11.54,9.93c-1.17-1.34-3.61-.89-4.07-5.03C-1.51,9.93,8.49,13.73,12.49,7.56c1.98-3.05-.92-6.52-.24-7.06,5.58-4.44,34.51,22.01,40.09,26.9,4.73,4.15,4.92,12.87,13.04,7.22,3.47-2.41,4.66-8.21,8.87-10.14Z"/>
      <path class="cls-1" d="M60.26,84.49c.23-.19-.91-3.49,1.31-4.07,10.79-2.83,12.83,7.7,18.19,12.12,2.91,2.39,7.2,3.08,10.28,5.17,5.38,3.64,4.95,11.07,16.76,8.45,8.95-1.98,4.1-3.53,17.46-3.68.89-2.7-2.21-4.85,4-4-1.01,1.44,2.49,3.93-4,4-2.61,7.94-5.69,4.31-9.37,8.65-2.44,2.88-.06,9.68-9.24,7.03-1.11-.32-12.38-9.77-14.44-11.62-5.72-5.11-22.47-25.67-30.94-22.06-.57.24-4.92,9.55-6,10.92-10.47,13.31-40.58,55.46-36.02,11.08-9.09,11.62-23.06-.03-9.98-10-.2,14.68,8.52.33,11.98-1.99.42,7.43,6.42,7.31,4.01,16.68-.48,1.85-5.32.47-3.97,4.28,10.73,8.7,14.73-5.91,18.64-10.3,6.28-7.04,14.61-14.99,21.34-20.66Z"/>
      <path class="cls-1" d="M38.26,64.49c-.76,2.68-4.85,10.39-6.51,11.55-1.38.96-3.15.22-3.49.45-7.93,11.49-8.28,10.06-18,18,2.1-9.12,11.49-13.47,18-18,2.65-3.84,4.56-12.52,10-12Z"/>
      <path class="cls-1" d="M6.26,32.49c3.69.7,10.11,3.53,12.69,5.89,1.97,1.81,1.16,3.95,1.31,4.11-5.99-.27-10.27-5.62-14-10Z"/>
      <path class="cls-1" d="M38.26,58.49c-6.81-2.56-10.96-8.95-16-14,7.22,3.16,13.47,5.86,16,14Z"/>
      <path class="cls-1" d="M38.26,62.49c.05-.62.08-1.38,0-2l1.96,1-1.96,1Z"/>
      <path class="cls-3" d="M24.26,14.49h-2c.15-.73-.2-1.89,1-1.96l1,1.96Z"/>
    </g>
  </g>
</svg>