<?xml version="1.0" encoding="UTF-8"?>
<svg id="Calque_2" data-name="Calque 2" xmlns="http://www.w3.org/2000/svg" viewBox="0 0 208.37 222.28">
  <defs>
    <style>
      .cls-1 {
        fill: #efd078;
      }

      .cls-2 {
        fill: #edc041;
      }
    </style>
  </defs>
  <g id="Calque_1-2" data-name="Calque 1">
    <g>
      <path class="cls-1" d="M43.66.58c13.8-3.12,15.06,7.12,22.52,14.65,19.61,19.81,34.12,40.68,52.11,61.89,25.64,30.23,58.89,63.17,81.9,94.1,6.47,8.7,13.04,17.66,3.09,27-18.06,16.94-57.72,25.99-81.8,23.71C37.61,214.01-17.69,136.43,5.19,54.14,9.1,40.08,28.92,3.91,43.66.58ZM102.89,69.53c-8.27-8.15-19.68-29.75-27.86-39.16-6.3-7.24-17.7-15.63-24.17-23.89-5.82-2.08-3.87,2.59-6,3.7-12.59,6.56-29.65,21.51-30.59,37.12-.16,2.61,2.6,8.28,1.96,8.87-.47.43-4.49-1.11-6.19,1.21-3.46,4.72-6.89,44.69-5.89,51.9.86,6.23,11.38,31.3,15.1,36.92,1.84,2.78,6.63,3.58,7.98,8-1.03-4.82-1.21-16.6,4.03-8.05,1.94,3.17.25,7.65,1.08,10.91.72,2.85,3.03,4.78,3.43,6.65.62,2.85-1.75,5.55-.61,8.43,1.55,3.9,30.39,27.18,35.68,30.43,19.53,11.97,67.5,15.89,89.85,11.07,1.54-.33,16.45-5.3,17.07-5.95,1.14-1.21.49-5.34,2.32-6.6,2.57-1.77,7.5-.25,10.64-1.41,8-2.96,14.74-9.99,10.94-19l-50.46-54.47c-15.02-20.01-31.56-40.19-48.3-56.67Z"/>
      <path class="cls-2" d="M102.89,69.53c16.74,16.48,33.29,36.67,48.3,56.67l50.46,54.47c3.8,9.01-2.94,16.04-10.94,19-3.14,1.16-8.07-.36-10.64,1.41-1.83,1.27-1.18,5.4-2.32,6.6-.62.66-15.52,5.62-17.07,5.95-22.35,4.82-70.32.9-89.85-11.07-5.29-3.24-34.14-26.53-35.68-30.43-1.14-2.88,1.23-5.58.61-8.43-.41-1.87-2.71-3.79-3.43-6.65-.82-3.26.86-7.74-1.08-10.91-5.24-8.55-5.06,3.23-4.03,8.05-1.35-4.43-6.14-5.23-7.98-8-3.72-5.62-14.24-30.69-15.1-36.92-1-7.21,2.43-47.18,5.89-51.9,1.7-2.32,5.73-.78,6.19-1.21.64-.59-2.12-6.26-1.96-8.87.94-15.61,18-30.57,30.59-37.12,2.13-1.11.18-5.77,6-3.7,6.47,8.27,17.87,16.65,24.17,23.89,8.19,9.41,19.59,31.01,27.86,39.16Z"/>
    </g>
  </g>
</svg>