<?xml version="1.0" encoding="UTF-8"?>
<svg id="Calque_2" data-name="Calque 2" xmlns="http://www.w3.org/2000/svg" viewBox="0 0 304.82 197.32">
  <defs>
    <style>
      .cls-1 {
        fill: #947e92;
      }

      .cls-2 {
        fill: #8a9a99;
      }

      .cls-3 {
        fill: #526364;
      }

      .cls-4 {
        fill: #a2c9df;
      }
    </style>
  </defs>
  <g id="Calque_1-2" data-name="Calque 1">
    <g>
      <path class="cls-2" d="M84.21,6.5c4.49,5.95,5.4,6.47,4,16-.03.22-2.96,1.13-1.99,3.99,3.29-.85,16.56-3.51,18-2.01.69.72-.7,7.32,0,8.03,5.12,5.19,6.8-6.15,8.19-8.78,4.23-8.01,7.71-12.85,17.79-11.22,3.42,6.31-14.07,21.92-11.98,23.98,7.02.86,10.72-10.98,13.99-12.97,10.93-6.65,39.47,13.89,53.01,15.01,26.1,2.15,43.44-16.55,73.69,2.26,5.84,3.63,4.6,6.44,11.3,9.71,4.22,14.88,10.88,28.49,10.07,45.07-.68,13.94-7.91,29.95-8.07,43.93-.2,17.91,12.98,35.77-8,45-1.25.55-2.93,1.83-4,2l-5.99-9.99c1.29-1.38,9.84,6.08,8-2l-19.92-4.1c.86-12.9-.61-25.34-2.09-37.91,3.79-2.56,2.55-7.06,0-10s-3.98.68-4.1,3.05c-.18,3.76,2.33,11.99,1.94,12.68-1.54,2.7-32.34,13.12-37.45,13.83-8.55,1.18-19.22-2.05-28.38.44-.61-4.85-.25-5.23,3.79-6.84l-1.81-11.17c-1.72.29-4.94-.51-5.88.1-1.17.75-6.11,23.93-6.17,27.02-.21,11.85,12.64,29.49-8.79,28.93-.77-.02-4.97-9.58-13.15-4.03l5.98-5.97-13.99-.03c.79-8.53,2.89-16.19,2.01-25.02-.24-2.36-3.72-17.9-4.35-18.63s-15.13-4.3-17.66-4.35c-.25-.25.5-2.46-.5-3.44-2.88-2.84-14.67-9.95-15.37-13.82-.54-2.98,9.18-9.18,5.86-12.72-2.87-3.06-14.42,13.89-17.61,15.81-5.78,3.49-20.64,7.8-27.44,8.17-4.84.26-25.56-.2-16.34-6.45,4.46-3.03,10.67-3.34,9.38-11.54-7.12,7.06-15.45,10.94-24.95,14.03-.7,0-2.91-10.23-3.03-12.03,2.28.19,5.74.22,7.1-1.88,6.1-9.39-8.12-14.07-7.1,1.88-1.84-.15-8.99-3.41-9.57-4.42-.87-1.51-.93-13.11-.43-13.58.41-.39,6.82.6,10.06-.97.67-.32,9.16-9.86,9.94-11.03,2.4-3.59.81-6.3-2-10,1.7-.98,4.07-2.17,6-2,4.99.44,2.5,1.56,10,0,2.99-.62,5.68,1.2,9.01-1.97,2.22-2.12,6.79-12.72,8.99-16.03,4.72-7.09,9.41-17.87,17.99-20.04-2.9-6.73-5.05-13.8-5.86-21.12-.59-5.35,4.98-2.08,7.88-2.84ZM121.37,23.7c1.51-2.4,4.43-6.25,3.86-9.16-3.38,2.87-5.98,5.94-8.2,9.8-.81,1.42-1.71,6.41,1.11,3,.15-1.96,2.65-2.74,3.22-3.64ZM88.2,74.49c.54-4.94.14-10.53-5.98-9.98v10s5.98-.02,5.98-.02ZM89.77,80.85c-15.1,1.81-13.12,22.66,1.92,16.12,11.26-4.89,11.32-17.71-1.92-16.12ZM242.2,112.51h-3.98v5.98h3.98v-5.98Z"/>
      <path class="cls-3" d="M210.21,154.5c-14.45,2.46-27.55,2.87-41.99,0,2.22,24.98,6.59,48.7-28.55,41.54-10.85-2.21-11.69-11.39-12.67-11.67-8.99-2.56-26.37,5.89-26.36-10.83,0-9.53,6.66-27.92,5.28-35.57-.63-3.5-10.4-19.09-13.68-20.55-1.39-.62-21.31,10.95-27.93,12.17s-17.6,2-24.19.02c-2.6-.78-4.86-4.18-7.18-4.57-10.46-1.73-10.98,8.15-20.37-7.91C5.64,105.3-1.27,57.87.2,43.49c.24-2.35,3.5-14.42,4.17-14.86,8.6-5.54,9.69,18.61,11.84,23.86l-2,2c-2.88-6.06-5.36-10.71-6.03-17.98-2.87-.38-3.78,5.45-3.88,7.24-.23,3.79-.3,15.99.04,19.43,1.9,19.13,6.23,33.94,25.87,17.32h2c-.78,1.17-9.27,10.71-9.94,11.03-3.24,1.57-9.64.58-10.06.97-.49.47-.44,12.07.43,13.58.58,1,7.73,4.26,9.57,4.42-1.02-15.95,13.2-11.27,7.1-1.88-1.36,2.1-4.82,2.07-7.1,1.88.11,1.8,2.33,12.03,3.03,12.03,9.5-3.09,17.83-6.97,24.95-14.03,1.29,8.19-4.91,8.51-9.38,11.54-9.21,6.25,11.5,6.71,16.34,6.45,6.79-.37,21.66-4.67,27.44-8.17,3.19-1.92,14.73-18.87,17.61-15.81,3.32,3.54-6.4,9.74-5.86,12.72.7,3.87,12.5,10.98,15.37,13.82.99.98.24,3.19.5,3.44-1.33-.03-2.67-.03-3.99,0-1.06,5.08,1.96,10.09,1.79,14.79-.23,6.31-5.13,16.06-3.97,22.05.41,2.1,5.41.66,7.19,3.09,2.14,2.92-.46,9.91,5.79,9.99,1.04.01,8.66-1.78,8.96-2.13,1.47-1.72,2.23-33.71-.16-37.4-.52-.8-10.5-5.2-15.62-10.38,2.53.05,17.06,3.66,17.66,4.35.63.72,4.11,16.26,4.35,18.63.88,8.82-1.22,16.48-2.01,25.02l13.99.03-5.98,5.97c8.17-5.55,12.37,4.01,13.15,4.03,21.43.56,8.57-17.08,8.79-28.93.06-3.08,5-26.27,6.17-27.02.93-.6,4.15.2,5.88-.1l1.81,11.17c-4.04,1.61-4.4,1.99-3.79,6.84,9.16-2.48,19.83.74,28.38-.44,5.11-.7,35.91-11.13,37.45-13.83.4-.69-2.12-8.92-1.94-12.68.11-2.36,1.43-6.13,4.1-3.05.26,3.28-.38,6.75,0,10,1.48,12.57,2.95,25.02,2.09,37.91l19.92,4.1c1.84,8.08-6.7.62-8,2l5.99,9.99c-6.56,1.04-21.74-1.62-22-10-.17-5.44,1.31-6.02,0-14-.15-5.31.22-10.69,0-16-.04-.86.26-3.8,0-3.99-6.28-4.51-5.74,5.23-7.15,6.19-2.17,1.47-11.25,2.88-14.84,3.8-2.04.53-4.54,1.75-6,2ZM250.2,174.51h-3.98c-.48,3.69-.08,5.82,3,7.98l.98-7.98ZM136.2,182.51h-3.98v5.98h3.98v-5.98Z"/>
      <path class="cls-3" d="M88.21,22.5c4.82-.97,18.73,1.56,21.69-.32,1.98-1.25,4.54-16.43,17.02-15.16,7.87.81,5.87,8.47,9.7,10.16,4.66,2.06,11.6.92,17.24,2.66,17.19,5.32,24.53,14.54,45.15,12.42,17.77-1.83,20.28-8.32,41.61-3.19,13.44,3.23,25.76,7.89,29.59,21.41,7.48,3.65,14.75,23.36,20.4,32.6,2.92,4.79,17.33,19.22,13.59,23.39-1.15,1.28-12.82-5.63-13.99-7-3.63-4.27.57-10.39-5.99-8.98,1.94,15.38-5,29.9-6.08,44.92-.83,11.51,4.07,33.79,1.67,41.69-1.82,5.98-10.47,5.8-15.6,7.38,20.98-9.22,7.81-27.09,8-45,.15-13.98,7.38-29.99,8.07-43.93.81-16.58-5.85-30.19-10.07-45.07-6.7-3.27-5.46-6.08-11.3-9.71-30.24-18.81-47.59-.11-73.69-2.26-13.54-1.11-42.08-21.66-53.01-15.01-3.28,1.99-6.98,13.83-13.99,12.97-2.09-2.06,15.4-17.67,11.98-23.98-10.08-1.63-13.56,3.21-17.79,11.22-1.39,2.63-3.08,13.97-8.19,8.78-.7-.71.69-7.32,0-8.03-1.44-1.51-14.71,1.15-18,2.01-.97-2.86,1.96-3.77,1.99-3.99Z"/>
      <path class="cls-1" d="M216.21,152.5c3.59-.93,12.67-2.33,14.84-3.8,1.41-.96.87-10.7,7.15-6.19.26.19-.03,3.13,0,3.99-5.36,4.43-.64,12.13,0,16,1.31,7.98-.17,8.56,0,14h-2c-1.79-15.8-17.88-5.49-20-18-.31-1.83.21-4.07,0-6Z"/>
      <path class="cls-3" d="M84.21,6.5c-2.89.76-8.47-2.52-7.88,2.84.81,7.32,2.96,14.39,5.86,21.12-8.58,2.17-13.27,12.95-17.99,20.04l-2-2c1.23-1.84,2.13-7.19,4.33-10.67,2.15-3.39,8.96-8.39,9.37-10.62.34-1.82-12.18-32.07,5.11-26.53,3.35,1.07,2.45,4.85,3.18,5.82Z"/>
      <path class="cls-3" d="M216.21,158.5c2.12,12.51,18.21,2.2,20,18-8.31.84-19.58,4.45-26.23-2.92-3.18-3.52.24-4.76.23-5.08h5.99s-3.99-10-3.99-10h4Z"/>
      <path class="cls-1" d="M64.21,50.5c-2.2,3.31-6.77,13.92-8.99,16.03-3.33,3.17-6.02,1.34-9.01,1.97,2.37-3.61,5.44-6.51,8-10,2.36-3.2,6.14-7.22,8-10l2,2Z"/>
      <path class="cls-3" d="M38.21,56.5c1.31,12.69,11.84,9.65,12,2,1.19.24,2.72-.16,4,0-2.56,3.49-5.63,6.39-8,10-7.5,1.56-5.01.44-10,0-.18-4.08-1.83-7.92-2-12h4Z"/>
      <path class="cls-1" d="M16.21,52.5c2.52,6.16,11.38,14.55,14,18,2.81,3.7,4.4,6.41,2,10h-2c-4.36-9.94-11.02-15.53-16-26l2-2Z"/>
      <path class="cls-1" d="M212.21,158.5l3.99,9.99h-5.99c-.07-3.32,0-6.66,0-9.99h2Z"/>
      <path class="cls-2" d="M216.21,152.5c.21,1.93-.31,4.17,0,6h-6v-4c1.46-.25,3.96-1.47,6-2Z"/>
      <path class="cls-1" d="M89.77,80.85c13.24-1.59,13.18,11.23,1.92,16.12-15.05,6.54-17.02-14.31-1.92-16.12Z"/>
      <path class="cls-3" d="M88.2,74.49l-5.98.02v-10c6.12-.55,6.52,5.04,5.98,9.98Z"/>
      <path class="cls-3" d="M121.37,23.7c-.57.9-3.07,1.68-3.22,3.64-2.83,3.41-1.93-1.58-1.11-3,2.22-3.86,4.82-6.93,8.2-9.8.56,2.92-2.35,6.76-3.86,9.16Z"/>
      <rect class="cls-4" x="238.22" y="112.51" width="3.98" height="5.98"/>
      <path class="cls-4" d="M240.21,132.5c-.38-3.25.26-6.72,0-10,2.55,2.94,3.79,7.44,0,10Z"/>
      <path class="cls-1" d="M112.21,132.5c5.12,5.18,15.1,9.58,15.62,10.38,2.38,3.69,1.63,35.68.16,37.4-.3.35-7.92,2.15-8.96,2.13-6.25-.08-3.65-7.07-5.79-9.99-1.78-2.43-6.79-.99-7.19-3.09-1.16-5.99,3.74-15.74,3.97-22.05.17-4.7-2.85-9.72-1.79-14.79,1.32-.03,2.66-.02,3.99,0Z"/>
      <rect class="cls-2" x="132.22" y="182.51" width="3.98" height="5.98"/>
      <path class="cls-4" d="M14.21,54.5c4.98,10.47,11.64,16.06,16,26-19.64,16.62-23.97,1.81-25.87-17.32-.34-3.44-.27-15.63-.04-19.43.11-1.79,1.02-7.62,3.88-7.24.67,7.28,3.14,11.92,6.03,17.98Z"/>
      <path class="cls-4" d="M238.21,162.5c-.64-3.87-5.36-11.57,0-16,.22,5.31-.15,10.69,0,16Z"/>
      <path class="cls-2" d="M250.2,174.51l-.98,7.98c-3.08-2.16-3.48-4.29-3-7.98h3.98Z"/>
      <path class="cls-4" d="M50.21,58.5c-.16,7.65-10.69,10.69-12-2-.27-2.61.15-5.37.02-7.99,4.74,2.9,3.51,8.28,11.98,9.99Z"/>
    </g>
  </g>
</svg>