<?xml version="1.0" encoding="UTF-8"?>
<svg id="Calque_2" data-name="Calque 2" xmlns="http://www.w3.org/2000/svg" viewBox="0 0 232.64 252.32">
  <defs>
    <style>
      .cls-1 {
        fill: #865b44;
      }

      .cls-2 {
        fill: #947e92;
      }

      .cls-3 {
        fill: #8a9a99;
      }

      .cls-4 {
        fill: #9d7662;
      }

      .cls-5 {
        fill: #526364;
      }

      .cls-6 {
        fill: #a2c9df;
      }

      .cls-7 {
        fill: #efd078;
      }

      .cls-8 {
        fill: #4e7298;
      }

      .cls-9 {
        fill: #8e9142;
      }

      .cls-10 {
        fill: #edc041;
      }
    </style>
  </defs>
  <g id="Calque_1-2" data-name="Calque 1">
    <g>
      <path class="cls-9" d="M133.81,28.34c.31.31.13,1.54,1.15,1.74,2.74.53,18.95-2.2,25.82-1.71,37.49,2.68,58.66,21.36,52.55,60.49-.88,5.63-14.07,40.46-17.53,42.47-2.71,1.58-6.88.58-9.97,2.03-6.76,3.18-7.8,21.27-10.51,27.53-1.27,2.94-4.15,3.54-5.52,5.44-5.54,7.72-16.54,25.17-24.25,30.75-8.61,6.24-20.04,6.77-27.75,13.25-1.98.12-4.01-.04-6,0-18.61-5.96-38.33-5.89-57.04-11.96-26.59-8.63-55.15-24.76-26.03-52.09,7.51-7.05,23.47-16.53,26.64-27.45.85-2.93-.14-6.69.42-8.49,3.85-12.47,11.42-29.24,18.22-40.32,3.6-5.86,13.15-9.78,11.81-18.52-.57-3.7-5.19-6.52-4.04-11.15,7.03,2.08,9.79-4.37,14.01-6.01.5-.19,1.3.12,2,0-.36,6.01-5.59,8.31-9.88,10.91l3.9,13.1c8.43-3.49,12.23,6.1,17.98-3.02-7.85-1.77-.29-3.51-.47-9.72-.16-5.87-7.82-5.41-7.53-11.27.65.1,1.34-.08,2,0,1.36.17,3.09,3.68,6.09,3.12s10.29-5.25,15.21-6.9c4.4-1.48,5.63,1.76,4.7-6.22h2c.82,1.15,1.3,3.32,2,4ZM143.82,64.33l-3.88-19.15c-12.53-1.09-19.53-.36-16.17,13.76.54,2.26,4.74,2.38,6.04,4.41.47.74-8.18,1.6-3.98,4.98s6.67-3.89,7.2-3.94c2.46-.22,6.89,2.47,10.8-.07ZM145.81,58.34l-1.88,11.12c-5.66.41-16.34,4.35-20.93,1.05-2.92-2.09,1.23-6.9-4.21-6.21-12.95,1.65-27.85,41.82-28.98,54.03-3.67-1.05-6.37-3.15-10-4-.38-1.03.39-3.02,0-4-2.14-5.42-8.22,1.9-8.2,6.99.01,2.98,6.64,14.24,8.2,15.01-5.45,11.24-38.57,19.46-25.41,35.44,11.98,14.54,55.06,15.32,71.41,8.56,9.23-3.81,14.94-11.84,20-20,2.3-3.7,4.87-7.7,6-12,5.01-.45,13.56-1.15,8-6v-2c7.8.83,2.15-3.47,2-6-.07-1.22-.2-2.92,0-4,1.47-7.83,11.48-20.03,14-28,7.61-24.08-4-39.18-28-42l-2,2ZM81.79,70.34c-3.83,1.72-5.75,8.19-7,11.96,3.65-3.43,7.99-6.2,7-11.96Z"/>
      <path class="cls-6" d="M71.81,2.34c6.15.1,20.27,1.53,26.49,2.51,11.18,1.77,22.53,6.8,33.51,9.49.69.52,3.8.1,5.06,1.87,3.68,5.21.18,7.35-5.06,6.13-6.03-6.91-35.45-13.28-45.03-13.97-28.75-2.08-44.99,4.72-50.97,33.97-5.64,27.6,5.01,53.34,12,80-3,3.73-5.58,3.55-6,4-7.57-31.3-23.89-81.71.01-108.99,5.62-6.41,12.66-7.23,17.99-13.01l2-2c2.32,5.33,9.27-.01,10,0Z"/>
      <path class="cls-1" d="M55.81,110.34c-.56,1.8.43,5.56-.42,8.49-3.17,10.92-19.13,20.4-26.64,27.45-29.12,27.33-.56,43.47,26.03,52.09,18.71,6.07,38.43,6,57.04,11.96-18,.33-39.76-1.07-58-6-.27-.07-1.54-3.4-4-4-.75-.18-3.42-.2-4,0-.85-1.85-2.76-1.45-4-2-7.17-3.18-15.48-7.67-22-12-.69-.46-1.26-1.44-2-2-1.24-.94-1.98-2.22-4-2,.25-.98.02-2.76,0-4-.05-3.71-2.05-7.31-1.86-10.83.82-15.44,18.3-27.09,27.86-37.17,1.38-1.46,1.61-3.58,2-4,.42-.45,3-.27,6-4,1.25-1.55,1.4-3.14,2-4,1.89-2.7,3.95-5.41,6-8Z"/>
      <path class="cls-1" d="M199.81,156.34c-.11.34-2.61,1.15-4,6-.17.61.13,1.36,0,2v2c-2.19-.25-5.82-.27-8,0,6.16-2.29,17.34-28.44,4.66-29.37-13.33-.98-14.23,32.93-4.66,29.37-.41.05-7.64,1.8-8,2,1.02-9.3-2.25-6.47-8-2h-2c1.37-1.9,4.25-2.5,5.52-5.44,2.71-6.26,3.74-24.35,10.51-27.53,3.09-1.45,7.26-.45,9.97-2.03,3.46-2.02,16.65-36.84,17.53-42.47,6.1-39.13-15.06-57.81-52.55-60.49-6.87-.49-23.08,2.24-25.82,1.71-1.01-.2-.84-1.43-1.15-1.74,15.12-4.86,28.71-4.79,44.06-1.06,12.2,2.96,28.6,12.79,34.69,23.31,11.08,19.17,7.81,36.12.21,55.72-2.69,6.94-11.72,19.9-12.63,25.54-1.23,7.65,3.41,12.93-.33,24.49Z"/>
      <path class="cls-2" d="M13.81,182.34c-2.16,8.52-18.87,19.59-4.98,31.96-2.49-8.8,1.1-15.9,4.02-24.02,1.14-3.17-.46-7.1,4.96-5.94.74.56,1.31,1.54,2,2-5.48,6.7-7.89,15.32-7.99,23.99,10.99-1.05,22.08-3.76,29.99-11.99,1.24.55,3.15.15,4,2-2.87,1.02-10.98,7.92-13.76,9.17-6.44,2.89-12.97,5.56-20.23,4.85-.55,3.31,4.94,2.22,7.05,2.06,9.36-.71,27.37-6.32,30.94-16.08,2.46.6,3.73,3.93,4,4-29.61,30.03-77.64,15.53-40-26,.02,1.24.25,3.02,0,4Z"/>
      <path class="cls-8" d="M59.81,4.34c-5.32,5.79-12.37,6.6-17.99,13.01-23.91,27.28-7.59,77.69-.01,108.99-.39.42-.62,2.54-2,4-9.25-31.27-21.33-68.34-9.56-100.56,5.25-14.37,14.15-22.84,29.56-25.44Z"/>
      <path class="cls-5" d="M171.81,166.34c-5.29,11.18-15.17,19.59-22,30-12.26,8.76-24.27,29.17-19.6,44.62,1.65,5.48,14.41,11.62,17.6,3.38.69,1.08,2.38,1.86,2,4-7.35,2.31-11.98,8.15-20.05-.96-11.56-13.06,3.49-35.75,2.04-37.03-4.63.18-9.37-.3-13.99-.01,7.71-6.48,19.14-7.01,27.75-13.25,7.71-5.58,18.7-23.03,24.25-30.75h2Z"/>
      <path class="cls-4" d="M165.81,228.34c.57-.23,1.41.22,2,0,.1,1.32-.15,2.7,0,4,.19,1.69.02,3.42,2,4-9.17,6.04-5.24,7.36-20,12,.38-2.14-1.31-2.92-2-4-1.03-1.61-1.96-1.86-2-2-.12-.44-.11-1.55,0-2,2.13-8.43,13.96-9.59,20-12Z"/>
      <path class="cls-8" d="M131.81,14.34c-10.99-2.68-22.33-7.72-33.51-9.49-6.22-.98-20.34-2.41-26.49-2.51V.34c19.93-1.52,43.92,1.85,60,14Z"/>
      <path class="cls-5" d="M227.81,168.34c.2.24,3.44-.94,4.04,1.31,4.35,16.3-10.32,25.81-20.22,35.39-1.18,1.14-3.4.91-3.82,1.3-15.31,14.21-20.16,18.26-38,30-1.98-.58-1.81-2.31-2-4,13.52-3.79,25.12-14.69,35.03-24.07,1.66-1.57,4.82-1.71,4.97-1.93.55-.77-.48-4.46,0-6,1.29-.63,4.07.9,7.01-1.96,2.29-2.22,1.94-5.88,2.99-8.04.83-.53,2.84.13,4.93-1.98,3.08-3.1,7.19-16.88,5.07-20.02-.93-1.37-28.15-10.21-32-6,1.39-4.85,3.89-5.66,4-6,6.54.67,19.4,3.28,24.72,6.35,3.55,2.05,2.6,4.85,3.28,5.65Z"/>
      <path class="cls-5" d="M195.81,164.34c11.59-2.54,16.95,9.35,28.01,8.01.71,6.6-3.22,12.25-6.01,17.99-5.61,3.55-7.22,1.06-10,10-16.15,7.87-24.27,22.17-40,28-.59.22-1.43-.23-2,0,6.4-7.21,14.72-12.68,22.13-18.92,2.05-1.73,5.32-1.98,7.27-3.69,2.36-2.09,21.84-23.2,22.3-24.8,2.69-9.35-14.83-13.79-21.7-14.58v-2Z"/>
      <path class="cls-2" d="M71.81.34v2c-.73-.01-7.68,5.33-10,0,3.41.25,6.92-1.77,10-2Z"/>
      <path class="cls-2" d="M131.81,22.34c.33.38-.32,1.55,0,2h-2c-8.22-5.61-18.29-8.13-28-10-1.24-.24-2.88-1.87-4-2-7.56-.88-24.48-.91-32,0-2.25.27-4.01,1-6,2-7.12,3.57-20.59,20.4-22,28h-2C41.79,13.09,58.03,6.3,86.78,8.37c9.58.69,39,7.06,45.03,13.97Z"/>
      <path class="cls-7" d="M175.81,98.34l-5.97-7.99c-.44,10.48-14.61,24.86-16.07,32.97-.95,5.32,5.35,2.42,8.04,3.02-.2,1.08-.07,2.78,0,4-7.16-2.07-16.95,2.8-22.85,2.02-3.57-.47-6.57-4.33-10.64-5.52-12.59-3.71-26.29-5.02-38.5-8.5,1.12-12.22,16.03-52.39,28.98-54.03,5.44-.69,1.29,4.12,4.21,6.21,4.59,3.3,15.27-.65,20.93-1.05l1.88-11.12,2-2c24,2.82,35.61,17.92,28,42Z"/>
      <path class="cls-7" d="M79.81,132.34c1.3.64,5.44-1.43,6.12,1.1l-1.89,26.66c21.63,12.19,15.7,2.66,27.88-6.65,14.71-11.25,23.81-7.68,39.89-9.11-1.13,4.3-3.7,8.3-6,12-6.91-10.5-9.38,1.64-11.93,4.98-3.72,4.87-9.94,6.73-8.07,15.02-16.35,6.75-59.42,5.98-71.41-8.56-13.16-15.97,19.96-24.2,25.41-35.44Z"/>
      <path class="cls-5" d="M79.81,110.34c-13.47,3.77.22,21.1,10,20-1.07,7.83,1.49,16.72-1.66,24.82,12.75,12.89,13.88.16,21.77-5.7,8.77-6.51,17.19-3.68,19.89-19.1-13.02,1.01-24.1-7.27-36.9-6.15-.39,4.42-3.04,5.74-3.1,6.13.31-8.92-6.64-6.88-10-16,3.63.85,6.33,2.95,10,4,12.21,3.48,25.91,4.8,38.5,8.5,4.07,1.2,7.07,5.05,10.64,5.52,5.9.78,15.7-4.1,22.85-2.02.15,2.53,5.8,6.83-2,6-8.46-2.19-28.3-6.44-30,3.98l30-1.98c5.56,4.85-2.99,5.55-8,6-16.08,1.43-25.18-2.14-39.89,9.11-12.18,9.31-6.25,18.84-27.88,6.65l1.89-26.66c-.67-2.53-4.82-.46-6.12-1.1-1.56-.77-8.18-12.03-8.2-15.01-.02-5.1,6.05-12.41,8.2-6.99Z"/>
      <path class="cls-3" d="M143.82,64.33c-3.9,2.54-8.34-.16-10.8.07-.53.05-3.2,7.16-7.2,3.94-4.2-3.38,4.45-4.24,3.98-4.98-1.29-2.03-5.5-2.15-6.04-4.41-3.36-14.12,3.63-14.86,16.17-13.76l3.88,19.15Z"/>
      <path class="cls-10" d="M101.81,34.34c-.3,5.87,7.36,5.4,7.53,11.27.17,6.2-7.38,7.94.47,9.72-5.75,9.12-9.55-.47-17.98,3.02l-3.9-13.1c4.3-2.6,9.53-4.9,9.88-10.91,1.05-.17,2.94-.16,4,0Z"/>
      <path class="cls-10" d="M161.81,126.34c-2.68-.61-8.99,2.3-8.04-3.02,1.45-8.1,15.63-22.49,16.07-32.97l5.97,7.99c-2.52,7.97-12.53,20.17-14,28Z"/>
      <path class="cls-10" d="M125.81,176.34c-1.87-8.29,4.34-10.15,8.07-15.02,2.55-3.34,5.02-15.48,11.93-4.98-5.06,8.16-10.77,16.19-20,20Z"/>
      <path class="cls-3" d="M159.81,136.34v2l-30,1.98c1.7-10.42,21.54-6.17,30-3.98Z"/>
      <path class="cls-3" d="M79.81,110.34c.39.98-.38,2.97,0,4,3.36,9.12,10.31,7.08,10,16,.05-.39,2.71-1.71,3.1-6.13,12.8-1.12,23.88,7.15,36.9,6.15-2.7,15.42-11.12,12.58-19.89,19.1-7.89,5.86-9.01,18.6-21.77,5.7,3.15-8.1.58-16.99,1.66-24.82-9.78,1.1-23.47-16.23-10-20Z"/>
      <path class="cls-5" d="M101.81,14.34c.32,6.66-1.42,13.95,2,20-.66-.08-1.35.1-2,0-1.06-.16-2.95-.17-4,0-.7.12-1.5-.19-2,0l2-22c1.12.13,2.76,1.76,4,2Z"/>
      <path class="cls-7" d="M81.79,70.34c.99,5.76-3.35,8.53-7,11.96,1.25-3.77,3.17-10.24,7-11.96Z"/>
      <path class="cls-4" d="M145.81,58.34l2-2-2,2Z"/>
      <path class="cls-8" d="M49.81,118.34c-.6.86-.75,2.45-2,4-6.99-26.66-17.64-52.4-12-80h2c-4.24,22.83,7.36,53.62,12,76Z"/>
      <path class="cls-6" d="M49.81,200.34c-3.56,9.77-21.58,15.38-30.94,16.08-2.11.16-7.6,1.25-7.05-2.06,7.26.71,13.79-1.97,20.23-4.85,2.78-1.25,10.89-8.15,13.76-9.17.58-.2,3.25-.18,4,0Z"/>
      <path class="cls-6" d="M17.81,184.34c-5.42-1.17-3.83,2.77-4.96,5.94-2.92,8.12-6.5,15.23-4.02,24.02-13.89-12.37,2.82-23.44,4.98-31.96,2.02-.22,2.76,1.06,4,2Z"/>
      <path class="cls-2" d="M171.81,166.34c5.75-4.47,9.02-7.3,8,2-1.91,1.08-24.94,28.95-27.95,33.05-8.85,12.04-14.55,21.12-12.05,36.95-1.05-.31-2.74.21-4,0-5.39-13.49,6.54-30.63,14-42,6.83-10.41,16.71-18.82,22-30Z"/>
      <path class="cls-10" d="M187.81,166.34c-9.57,3.56-8.67-30.35,4.66-29.37s1.51,27.08-4.66,29.37Z"/>
      <path class="cls-3" d="M135.81,238.34c2.5,6.26,2.27,7.98,10,4,.04.14.97.39,2,2-3.19,8.24-15.95,2.1-17.6-3.38-4.67-15.45,7.35-35.86,19.6-44.62-7.46,11.37-19.39,28.51-14,42Z"/>
      <path class="cls-3" d="M227.81,168.34c2.13,3.14-1.99,16.92-5.07,20.02-2.1,2.11-4.1,1.45-4.93,1.98,2.79-5.74,6.72-11.39,6.01-17.99-11.07,1.34-16.42-10.54-28.01-8.01.13-.64-.17-1.39,0-2,3.85-4.21,31.07,4.63,32,6Z"/>
      <path class="cls-3" d="M207.81,200.34c-.48,1.54.55,5.23,0,6-.15.22-3.32.37-4.97,1.93-9.91,9.37-21.51,20.28-35.03,24.07-.15-1.3.1-2.68,0-4,15.73-5.83,23.85-20.13,40-28Z"/>
      <path class="cls-3" d="M217.81,190.34c-1.05,2.16-.7,5.81-2.99,8.04-2.94,2.86-5.72,1.33-7.01,1.96,2.78-8.94,4.39-6.45,10-10Z"/>
      <path class="cls-8" d="M139.81,238.34c1.39.41,3.34,2.9,6,2-.11.45-.12,1.56,0,2-7.73,3.98-7.5,2.26-10-4,1.26.21,2.95-.31,4,0Z"/>
      <path class="cls-4" d="M65.81,12.34c.76,5.54-1.35,13.7.33,18.68,1.25,3.71,10.29,5.8,11.19,10.55.17.88-1.43,12.14-1.86,13.44-1.67,5.03-22.35,5.47-25.27-.06-1.12-2.12-3.05-13.03-2.53-15.29s9.11-3.03,11.15-7.31c2.4-5.03.43-12.49.99-18.01,1.99-1,3.75-1.73,6-2Z"/>
    </g>
  </g>
</svg>