<?xml version="1.0" encoding="UTF-8"?>
<svg id="Calque_2" data-name="Calque 2" xmlns="http://www.w3.org/2000/svg" viewBox="0 0 231.61 314.79">
  <defs>
    <style>
      .cls-1 {
        fill: #9d7662;
      }

      .cls-2 {
        fill: #efd078;
      }

      .cls-3 {
        fill: #8e9142;
      }
    </style>
  </defs>
  <g id="Calque_1-2" data-name="Calque 1">
    <g>
      <path class="cls-3" d="M55.73,52.76c8.54,7.83-.99,29.35,18.5,46.48,11.52,10.12,41.74,18.8,57.02,18.98,13.12.15,32.78-5.85,45.08-5.07,23.17,1.47,23.56,19.16,14.02,36.18-4.36,7.77-18.63,17.5-22.09,25.92-2.26,5.51,8.01.62,10.96.76,10.74.53,10.5,12.41,8.58,20.79-4.11,17.95-33.63,27.36-35.36,32.77-1.85,5.81,4.65,15.92,5.64,21.79,5.53,32.7,4.81,68.24-38.91,62.89-13.57-1.66-23.32-14.45-24.54-27.61-2.6-28.12,32.29-73.71,33.42-103.76.67-17.81-19.84-45.21-37.31-48.19-24.73-4.21-52.98,11.98-80.96,2.95-17.98-5.81-6.96-36.86-.65-49.52,5.32-10.68,33.39-47.46,46.57-35.37ZM160.24,178.23c-2.01-2.04-8.03,3.9-5.98,5.98s8.03-3.9,5.98-5.98Z"/>
      <path class="cls-3" d="M133.71,4.73c6.89,7.3-2.22,22.41-3.3,30.66-2.08,15.82,2.52,35.76,22.13,33.73,13.49-1.4,29.42-19.38,41.68-9.85,17.27,13.42-15.87,33.87-27.23,38.7-50.17,21.37-96.75-16.76-75.7-69.7,5.43-13.67,28.11-38.71,42.42-23.53Z"/>
      <path class="cls-3" d="M48.25,228.22c3.67-7.51-.7-8.6-8-8-6.56-12.71-2.93-9.53-.58-19.6.8-3.45.38-7.23,1.53-10.46,6.25-17.55,32.96-26.93,47.18-13.07,19.94,19.44-12.28,64.85-40.13,51.13Z"/>
      <path class="cls-3" d="M184.55,287.88c-1.62-1-4.5-11.65-4.43-14.58.27-11,16.52-49.82,25.09-57.11,10.16-8.66,25.52-.58,26.37,11.29.43,5.95-4.16,18.53-6.99,24.08s-24.56,32.06-29.23,34.76c-2.93,1.7-7.94,3.32-10.81,1.56Z"/>
      <path class="cls-1" d="M48.25,228.22c-1.88-.93-3.98-.3-6.16-2.86-1.55-1.82-1.19-3.88-1.84-5.14,7.3-.6,11.67.49,8,8Z"/>
      <path class="cls-2" d="M160.24,178.23c2.05,2.07-3.97,8.02-5.98,5.98s3.97-8.02,5.98-5.98Z"/>
    </g>
  </g>
</svg>