<?xml version="1.0" encoding="UTF-8"?>
<svg id="Calque_2" data-name="Calque 2" xmlns="http://www.w3.org/2000/svg" viewBox="0 0 326.77 182.43">
  <defs>
    <style>
      .cls-1 {
        fill: #947e92;
      }

      .cls-2 {
        fill: #8a9a99;
      }

      .cls-3 {
        fill: #a2c9df;
      }

      .cls-4 {
        fill: #efd078;
      }

      .cls-5 {
        fill: #4e7298;
      }

      .cls-6 {
        fill: #edc041;
      }
    </style>
  </defs>
  <g id="Calque_1-2" data-name="Calque 1">
    <g>
      <path class="cls-6" d="M284.36,104.1c-4.34-5.88-24.33-11.8-32-10-2.55-19.33-12.62-40.57-34-44-.86-9.62,17.95-18.24,25.47-19.52,43.19-7.36,72.49,42.18,40.53,73.52Z"/>
      <path class="cls-2" d="M218.36,50.1c21.38,3.43,31.45,24.67,34,44,.17,1.29-.11,2.69,0,4-1.95-.43-7.45.59-8.01.01-.68-.7.15-13.65-1.55-19.45-5.77-19.68-25.1-23.38-43.33-20.46-6,.96-8.53,5.44-13,7-9.51,3.32-4.7-1.59-6.16-7.7-.14-.59-5.58-9.49-5.94-9.98-24.89-33.98-85.7-9.68-78.02,32.56-13.04-4.53-20.48-9.5-34.79-3.79-18.75,7.48-10.61,25.83-15.07,28.93-5.02,3.49-20.21-2.61-32.11,9.89-14.5,15.24-7.32,42.66,13.24,44.38,3.47.29,31.08.6,33.48.07,3.22-.71,4.7-5.12,7.25-6.48,8.73-4.66,4.95,3.33,6.01,5.01v2C47.8,170.8-5.71,167.43.5,127.22c1.23-7.96,13.05-20.51,20.46-23.53,4.81-1.96,17.01-2.54,18.99-3.99,1.42-1.05,3.01-17.57,13.43-25.6,16.61-12.8,34.11-.13,36.91-2.06,1.46-1,1.97-12.77,3.05-15.99,10.26-30.61,65.95-42.78,83.15-13.07,2.57,4.44,1.42,13.79,7.17,14.82,2.74.49,12.94-6.52,18.23-7.3,1.39-.2,15.67-.54,16.49-.41Z"/>
      <path class="cls-5" d="M288.36,146.1c-9.04,14.42-17.28,15.4-34.66,15.24-4.78-.04-13.26-3.51-16.17-3.28-.92.07-7.53,10.41-12.5,13.71-12.2,8.08-24.86,9.17-38.58,5.23-5-1.44-21.49-10.78-22.73-10.59-2.03.31-9.59,7.04-13.28,8.77-24.08,11.24-63,11.69-76.07-15.07v-2c.67,1.07,18.69,13.53,20.63,14.37,9.37,4.06,29.99,5.3,39.84,3.09,7.89-1.77,23.22-15.25,26.63-15.57,3.76-.35,15.04,7.68,20.35,9.66,15.06,5.59,29.15,5.57,42.43-4.67,4.51-3.48,8.65-12.85,9.43-13.03,6.28-1.41,22.86,4.85,31.43,4.07,5.12-.47,18.48-7.97,21.25-11.92l2,2Z"/>
      <path class="cls-4" d="M324.35,50.13c3.61,10.35-20.72,12.87-21.98,6.94s17.23-10.89,21.98-6.94Z"/>
      <path class="cls-1" d="M284.36,104.1c.39.53-.26,2.86,0,4-.51-.28-1.49.28-2,0-5.59-3.11-12.29-5.21-18-8-.39-.19-.42-1.43-.99-1.97l-1.01,1.97c-4.17,1.66-7.41-1.42-10-2-.11-1.31.17-2.71,0-4,7.67-1.8,27.66,4.12,32,10Z"/>
      <path class="cls-2" d="M294.36,118.1c.29,8.63.74,16.47-2.45,24.62-.82,2.09-3.12,2.71-3.55,3.38l-2-2c2.9-4.14,4.95-15.87,3.96-20.95-1.19-6.11-9.23-7.57-7.96-15.05.51.28,1.49-.28,2,0,4.42,2.46,5.99,6.52,10,10Z"/>
      <path class="cls-3" d="M74.36,158.1c-1.05-1.69,2.72-9.67-6.01-5.01-2.55,1.36-4.03,5.78-7.25,6.48-2.4.53-30.01.22-33.48-.07-20.56-1.72-27.74-29.13-13.24-44.38,11.9-12.5,27.09-6.4,32.11-9.89,4.46-3.1-3.68-21.45,15.07-28.93,14.31-5.71,21.75-.74,34.79,3.79-7.68-42.24,53.13-66.54,78.02-32.56.36.49,5.8,9.39,5.94,9.98,1.46,6.11-3.35,11.02,6.16,7.7,4.47-1.56,7-6.04,13-7,18.23-2.92,37.57.77,43.33,20.46,1.7,5.8.87,18.75,1.55,19.45.56.57,6.07-.45,8.01-.01,2.59.58,5.83,3.66,10,2h2c5.71,2.79,12.41,4.89,18,8-1.27,7.48,6.78,8.94,7.96,15.05.99,5.09-1.06,16.82-3.96,20.95s-16.13,11.46-21.25,11.92c-8.58.78-25.16-5.48-31.43-4.07-.78.18-4.92,9.55-9.43,13.03-13.28,10.24-27.37,10.26-42.43,4.67-5.32-1.97-16.59-10.01-20.35-9.66-3.42.32-18.74,13.8-26.63,15.57-9.85,2.21-30.48.97-39.84-3.09-1.94-.84-19.96-13.31-20.63-14.37Z"/>
      <path class="cls-2" d="M264.36,100.1h-2l1.01-1.97c.57.54.6,1.78.99,1.97Z"/>
      <g>
        <path class="cls-4" d="M212.35,44.09c-10.46,1.66-19.18-2.57-17.98-13.98,1.49-1.68,19.69,7.92,17.98,13.98Z"/>
        <path class="cls-4" d="M230.35,28.09c-14.21,2.59-16.46-26.41-5.03-15.95,2.21,2.03,6.8,14.13,5.03,15.95Z"/>
        <path class="cls-4" d="M302.35,16.11c1.25,4.92-5.7,19.11-10.96,17.98-8.91-1.91,2.56-20.74,10.96-17.98Z"/>
        <path class="cls-4" d="M294.36,118.1c-.21-6.29-5.9-13.07,4.58-9.58,9.52,3.17,9.19,17.15,2.47,15.56-.45-.11-5.82-4.91-7.05-5.98Z"/>
        <path class="cls-4" d="M326.35,96.08c-4.46,5.96-22.68-3.08-19.98-11.97,4.14-2.5,23.46,7.32,19.98,11.97Z"/>
        <path class="cls-4" d="M260.33,22.09c-10.85,6.88-8.43-20.69-2.94-21.98,7.94-1.86,4.76,20.83,2.94,21.98Z"/>
      </g>
    </g>
  </g>
</svg>