<?xml version="1.0" encoding="UTF-8"?>
<svg id="Calque_2" data-name="Calque 2" xmlns="http://www.w3.org/2000/svg" viewBox="0 0 154.63 155.65">
  <defs>
    <style>
      .cls-1 {
        fill: #8e9142;
      }

      .cls-2 {
        fill: #e68a40;
      }

      .cls-3 {
        fill: #edc041;
      }
    </style>
  </defs>
  <g id="Calque_1-2" data-name="Calque 1">
    <g>
      <path class="cls-2" d="M100.81,48.07c1.67,2.56,2.19,4.18,6,4-1.04.08-3.99,3.84-7.65,1.63-6.62-4.79-20.07-39.72-22.76-41.2-9.65-5.29-7.54,7.2-9.71,14.45-3.06,10.23-8.21,20.05-10.34,30.64l-45.53,10.5c-2.22,2.95,7.97,9.03,10.21,10.76,7.31,5.62,15.52,10.64,23.92,14.45.16,18.57-10.83,36.25-7.15,54.75,10.8-4.54,35.37-33.19,44.22-34,7.21-.67,17.87,9.13,25.04,12.77,9.06,4.6,18.91,8.1,27.73,13.25,3.7-4.72-19.24-44.31-18.03-52.9.88-6.26,25.54-26.6,30-34.18l-.22-2.73-3.73-.19c2.44-3.86.57-6.15-4-6,3.1-.15,11.07-5.93,15.1,2.02,6.27,12.36-30.79,38.26-30.72,44.58,3.11,9.07,22.11,45.74,17.4,53.17-6.56,10.36-47.02-23.55-58.68-21.84-6.54.96-25.57,21.86-33.25,26.93-12.64,8.34-20.49,12.04-19.97-7.9.39-15.02,8.3-28.87,9.9-43.62-6.56-6.64-45.46-22.79-37.55-35.11,1.78-2.77,42.93-8.21,49.47-8.52C56.33,44.89,60.95-.04,71.8,0s23.36,39.4,29.01,48.07Z"/>
      <path class="cls-1" d="M124.81,44.07c.28,3.01,5.72,3.01,6,0,2.63-.24,5.36.13,8,0,4.57-.15,6.44,2.14,4,6-12-.07-24.07,1.07-36,2-3.81.18-4.33-1.44-6-4,2.55-.28,5.6.41,8,0,4.53-.78,7.56-3.93,8-4,2.52-.37,5.45.33,8,0Z"/>
      <path class="cls-2" d="M116.81,44.07c-.44.07-3.47,3.22-8,4v-4s8,0,8,0Z"/>
      <path class="cls-2" d="M130.81,44.07c-.28,3.01-5.72,3.01-6,0,1.93-.25,4.04.18,6,0Z"/>
      <path class="cls-3" d="M142.81,50.07l3.73.19.22,2.73c-4.46,7.57-29.12,27.91-30,34.18-1.21,8.59,21.73,48.18,18.03,52.9-8.82-5.14-18.67-8.65-27.73-13.25-7.17-3.64-17.84-13.44-25.04-12.77-8.85.82-33.42,29.46-44.22,34-3.67-18.5,7.32-36.18,7.15-54.75-8.4-3.82-16.61-8.83-23.92-14.45-2.24-1.73-12.43-7.81-10.21-10.76l45.53-10.5c2.13-10.59,7.29-20.41,10.34-30.64,2.17-7.25.05-19.74,9.71-14.45,2.69,1.47,16.14,36.41,22.76,41.2,3.66,2.21,6.62-1.55,7.65-1.63,11.93-.93,24-2.07,36-2Z"/>
    </g>
  </g>
</svg>