<?xml version="1.0" encoding="UTF-8"?>
<svg id="Calque_2" data-name="Calque 2" xmlns="http://www.w3.org/2000/svg" viewBox="0 0 244.13 200.4">
  <defs>
    <style>
      .cls-1 {
        fill: #865b44;
      }

      .cls-2 {
        fill: #9d7662;
      }
    </style>
  </defs>
  <g id="Calque_1-2" data-name="Calque 1">
    <g>
      <path class="cls-1" d="M176.25,167.98c-2.52-2.81-6.48-3.38-10-4-1.83-.32-4.4.43-6,0-.97-8.89-5.39-11.26-14-10-.62-.59-1.41-1.38-2-2l6-4.04c-5.06-8.65-4.42-.86-10,.04-.56.09-1.44.09-2,0,1.51-14.28-17.39,1.15-14.02-15.99,12.86,1.25,9.9-4.92.02-6.01.38-.89-.33-2.84,0-4,1.21-4.28,5.87-13.28-2-12,.04-2-.09-4.01,0-6,.68-14.24,3.95-31.57,2-46v-6h3.99s0-4.99,0-4.99l-1.98-1.01c3.95-17,24.7-64.66,45.09-38.09,11.92,15.53-1.94,57.97-8.71,75.47-8.84,22.84-31.69,42.55-3.87,61.11,23.4,15.62,39.97,2.54,59.33-11.65,6.33-4.64,21.34-24.01,25.88-7.4,2.39,8.76-22.03,29.14-29.83,33.44-11.92,6.57-24.99,10.27-37.88,9.12ZM162.24,17.99c-3.38-3.97-15.36,18.39-16.35,20.63-8.35,18.84-9.84,41.03-9.63,61.35,5.32,1.1,3.44-1.35,4.96-3.94,13.2-22.43,20.78-52.1,21.01-78.04Z"/>
      <path class="cls-1" d="M4.25,189.98c9.1-.31,31.47-7.04,34.93-15.9,2.2-5.64-4.06-7.94-5.48-10.63-10.15-19.21-13.24-36.68-4.54-57.55,4.53-10.87,17.74-18.54,29.61-15.42,26.6,7,21.03,55.59,5.48,71.5-.98,1-2.06,2.51-2.03,3.98-3.49,1.04-.95-4.8-2.96-3.97-6.87,2.81.12,9.59,5.05,11.25,4.22,1.42,5.41-1.25,5.94-1.25,1.68-.02,3.81,1.57,6.16.9,7.99-2.31,23.93-14.66,29.84-20.9,3.62.65,4.68-.37,4-4,.72-.65,1.23-2.88,2-4l8.01-.99c-.5,7.68-8.54,20.59-14.01,25.99-3.98,3.93-10.49,3.27-10.01,9-5.36,3.26-12.92,9.04-19.15,9.91-10.15,1.41-17.43-6.29-26.01-5.74-4.11.26-6.35,5.31-10.3,7.38s-6.96,1.64-10.54,2.45c-.31.07-2.64-1.72-6.35.11-2.15,1.06-8.17,6.59-11.65,7.89-6.19-1.22-6.24-.09-10-6l2-4ZM40.25,123.98c-6.59-2.17-5.92,14.84,0,12,0,3.32-.11,6.68,0,10,.1,2.84-.72,10.65.29,11.83.8.94,4.35-.2,5.71.17,1.29,3.56.26,7.99,6,2,1.12-1.17,3.03-5.98,4-8,1.5.33,5.45-.47,6,0,.3.26-.25,8.23,3.99,3.99s-3.73-3.69-3.99-3.99c-.21-.24-1.96-5.69-2-6-.67-5.07,1.39-12.4,2-18,7.65.74,2.86-2.93,2-6-2.76-9.84-1.67-26.38-15.91-16.89-8.02,5.35-7.47,10.5-8.09,18.89ZM38.24,143.99c-2.18-2.18-6.16,1.8-3.98,3.98s6.16-1.8,3.98-3.98ZM76.24,176h-3.98v1.96h3.98v-1.96ZM83.25,179.98v2c1.3-.67,1.3-1.33,0-2Z"/>
      <path class="cls-2" d="M124.25,125.98c9.88,1.09,12.85,7.26-.02,6.01-3.37,17.14,15.53,1.71,14.02,15.99-5.67-.93-3.65-4.12-5.02-4.08-7.96.24-11.55,13.48-16.89,19.16s-13.95,11.18-20.09,14.91c-.48-5.73,6.02-5.07,10.01-9,5.47-5.39,13.5-18.31,14.01-25.99l-8.01.99c2.39-3.47,11-15.68,12-18Z"/>
      <path class="cls-2" d="M122.25,103.98c-2.79-13.51-4.82-33.64,2-46,1.95,14.43-1.32,31.76-2,46Z"/>
      <path class="cls-2" d="M30.25,191.98c2.81,8.36-12.18,9.14-18,8,3.47-1.3,9.49-6.82,11.65-7.89,3.71-1.84,6.04-.04,6.35-.11Z"/>
      <path class="cls-2" d="M70.25,171.98c-.53,0-1.72,2.68-5.94,1.25-4.93-1.66-11.92-8.44-5.05-11.25,2.02-.82-.53,5.01,2.96,3.97-.04-1.47,1.05-2.98,2.03-3.98-.94,5.14,2.37,7.31,6,10Z"/>
      <path class="cls-2" d="M160.25,163.98c-3.95-1.06-9.74-3.29-12.7-5.88-1.97-1.73-1.13-3.95-1.3-4.12,8.61-1.26,13.03,1.11,14,10Z"/>
      <path class="cls-2" d="M122.25,109.98c7.87-1.28,3.21,7.72,2,12-2.28-3.75-2.09-7.82-2-12Z"/>
      <path class="cls-2" d="M140.25,147.98c5.58-.91,4.94-8.69,10-.04l-6,4.04c-.35-.36-5.24,1.19-4-4Z"/>
      <path class="cls-2" d="M176.25,167.98c-3.29-.29-6.71.26-10.02,0l.02-4c3.52.62,7.48,1.19,10,4Z"/>
      <path class="cls-2" d="M126.25,45.98l1.98,1.01v4.98s-3.98.01-3.98.01c-1.1-2.65,1.76-4.96,2-6Z"/>
      <path class="cls-2" d="M4.25,189.98l-2,4c-.44-.69-3.08-.22-1.99-3.99,1.32-.06,2.66.03,3.99-.01Z"/>
      <path class="cls-2" d="M110.25,147.98c.68,3.63-.38,4.65-4,4,2.12-2.24,1.23-1.49,4-4Z"/>
      <path class="cls-2" d="M40.25,123.98c-.29,3.93.01,8.04,0,12-5.92,2.84-6.59-14.17,0-12Z"/>
      <path class="cls-2" d="M46.25,157.98c2.06.56,4.17.75,6,2-5.74,5.99-4.71,1.56-6-2-1.36-.37-4.9.77-5.71-.17-1.01-1.18-.2-8.99-.29-11.83,4.11,3.01,4.46,7.73,6,12Z"/>
      <path class="cls-2" d="M62.25,151.98c.26.3,8.18-.2,3.99,3.99s-3.69-3.73-3.99-3.99c-.55-.47-4.5.33-6,0,1.01-2.1.41-4.97,4-6,.04.31,1.79,5.76,2,6Z"/>
      <path class="cls-2" d="M64.25,121.98c.86,3.07,5.65,6.74-2,6,.23-2.12-.72-5.07,2-6Z"/>
      <path class="cls-2" d="M38.24,143.99c2.18,2.18-1.8,6.16-3.98,3.98s1.8-6.16,3.98-3.98Z"/>
      <rect class="cls-2" x="72.26" y="176" width="3.98" height="1.96"/>
      <path class="cls-2" d="M83.25,179.98c1.3.67,1.3,1.33,0,2v-2Z"/>
    </g>
  </g>
</svg>