<?xml version="1.0" encoding="UTF-8"?>
<svg id="Calque_2" data-name="Calque 2" xmlns="http://www.w3.org/2000/svg" viewBox="0 0 243.92 244.24">
  <defs>
    <style>
      .cls-1 {
        fill: #865b44;
      }

      .cls-2 {
        fill: #947e92;
      }

      .cls-3 {
        fill: #9d7662;
      }
    </style>
  </defs>
  <g id="Calque_1-2" data-name="Calque 1">
    <g>
      <path class="cls-1" d="M240.71,135.9c-6.9-1.55-2.34,4.15-4.42,7.56-1.22,2.01-12.04,3.97-1.58,10.44-1.35,3.58-2.28,6.44-4,10-13.25-1.12-8.79,4.74-8,14-42.33,66.64-124.99,91.02-188.4,35.89C-21.35,165.38-3.54,76.41,46.69,30.88,75.31,4.94,140.29-8.2,176.1,5.52c53.48,20.49,76.92,76.49,64.61,130.39ZM170.72,21.91l-22-3.99,19.41,7.6,2.59-3.61ZM104.7,21.91l-7.97,2.02v1.95s7.97,0,7.97,0v-3.98ZM192.71,25.93c-1.01-1.06-9.63-2.22-11.98-2.01-.27,4.24,18.05,8.36,11.98,2.01ZM212.7,45.89c3.53-3.4-14.66-15.09-17.95-15.01,5.26,7.63,7.66,13.43,17.95,15.01ZM66.71,201.9c2.06,1.92,5.26,4.14,5.56,4.46,1.04,1.1-.03,4.42.69,5.16,3.57,3.61,35.51-.68,41.26-3.15,4.74-2.04,2.01-3.22.49-6.47,8.02-4.25,16.72-12.61,22-20,6.39,2.53,9.25-5.91,6-10,.57-1.34,1.56-2.66,2-4,7.27-.62,11.01-23,10.08-26.66-.54-2.14-3.96-1.16-4.08-1.34-.39-.59-1.89-11.9-2-14-.01-.2,3.36-2.19,1.77-3.67-.98-.92-3.5-.03-3.77-.33-.79-.89-5.21-13.46-9.99-18.44-21.82-22.74-71.79-12.37-67.88,23.21.87,7.91,8.75,18.88,16.85,19.42,13.52.9,15.63-16.36,27.18-6.9.99,4.76-5.08,17.12-8.74,20.1s-6.8,1.6-9.42,2.61c-4.17-1.49-8.33-3.35-10,2-1.9-.19-4.45.41-6,0,.62-5.59-9.54-6.53-14-10-7.04-5.48-14.15-17.72-14.17-26.98-.21-65.88,93.96-70.1,113.62-15.46,16.16,44.92-7.6,81.66-43.44,106.42,14.37-2.54,27.9-4.91,40.64-12.34,30.57-17.82,62.11-60.02,59.43-96.71-1.11-15.22-9.74-32.83-16.07-46.93-1.61-3.59-3.32-8.36-8-8-.3-.49.3-1.54,0-2-4.62-7.02-10.69-15.77-20-12-16.16-8.45-48.24-9.93-66.1-7.1C48.42,42.65-3.43,125.04,39.89,179.73c7.54,9.51,18.28,14.21,26.82,22.18ZM154.7,169.92h-3.98v1.96h3.98v-1.96ZM23.31,183.15c-1.01-.68.5-4.08-2.58-3.24.23,11.63,2.6,16.88,9.97,6.02-2.94-.03-5.01-1.19-7.39-2.78ZM36.69,197.9c2.39-7.62-8.04-10.85-5.96-5.03.42,1.17,4.25,4.59,5.96,5.03Z"/>
      <path class="cls-3" d="M240.71,135.9c-2.07,9.08-3.11,10.36-6,18-10.47-6.47.35-8.43,1.58-10.44,2.08-3.41-2.48-9.12,4.42-7.56Z"/>
      <path class="cls-3" d="M230.71,163.9c-3.25,6.73-4.28,8.15-8,14-.79-9.26-5.25-15.12,8-14Z"/>
      <path class="cls-3" d="M114.71,201.9c1.53,3.25,4.25,4.43-.49,6.47-5.75,2.47-37.69,6.76-41.26,3.15-.73-.73.34-4.05-.69-5.16-.3-.32-3.49-2.54-5.56-4.46,18.37,6.17,30.08,9.49,48,0Z"/>
      <path class="cls-3" d="M150.71,139.9c.12.18,3.54-.8,4.08,1.34.93,3.67-2.81,26.04-10.08,26.66,2.5-7.52,2.49-19.93,6-28Z"/>
      <path class="cls-3" d="M176.71,39.9c9.31-3.77,15.38,4.98,20,12-8.11-1.26-13.92-8.82-20-12Z"/>
      <path class="cls-2" d="M212.7,45.89c-10.29-1.58-12.69-7.37-17.95-15.01,3.29-.08,21.48,11.61,17.95,15.01Z"/>
      <polygon class="cls-3" points="170.72 21.91 168.13 25.52 148.72 17.92 170.72 21.91"/>
      <path class="cls-3" d="M23.31,183.15c2.37,1.59,4.44,2.75,7.39,2.78-7.37,10.86-9.74,5.62-9.97-6.02,3.08-.84,1.57,2.56,2.58,3.24Z"/>
      <path class="cls-3" d="M64.71,153.9c4.46,3.47,14.62,4.41,14,10-5.44-1.42-13.83-3.45-14-10Z"/>
      <path class="cls-3" d="M142.71,171.9c3.25,4.09.39,12.53-6,10,1-1.41,5.48-8.79,6-10Z"/>
      <path class="cls-3" d="M94.71,161.9c-.24.09-.66,2.98-3.38,3.79-4.25,1.27-5.85-1.71-6.62-1.79,1.67-5.35,5.83-3.49,10-2Z"/>
      <path class="cls-2" d="M192.71,25.93c6.07,6.35-12.25,2.23-11.98-2.01,2.35-.22,10.97.95,11.98,2.01Z"/>
      <path class="cls-3" d="M36.69,197.9c-1.71-.44-5.54-3.86-5.96-5.03-2.08-5.82,8.35-2.6,5.96,5.03Z"/>
      <polygon class="cls-3" points="104.7 21.91 104.7 25.89 96.72 25.88 96.73 23.93 104.7 21.91"/>
      <path class="cls-3" d="M146.71,121.9c.27.3,2.79-.59,3.77.33,1.59,1.48-1.78,3.47-1.77,3.67l-2-4Z"/>
      <path class="cls-3" d="M196.71,53.9c4.68-.36,6.39,4.41,8,8-4.28,1.02-5.86-4.52-8-8Z"/>
      <rect class="cls-3" x="150.72" y="169.92" width="3.98" height="1.96"/>
    </g>
  </g>
</svg>