<?xml version="1.0" encoding="UTF-8"?>
<svg id="Calque_2" data-name="Calque 2" xmlns="http://www.w3.org/2000/svg" viewBox="0 0 211.64 101.19">
  <defs>
    <style>
      .cls-1 {
        fill: #efd078;
      }

      .cls-2 {
        fill: #edc041;
      }
    </style>
  </defs>
  <g id="Calque_1-2" data-name="Calque 1">
    <g>
      <path class="cls-1" d="M207.92,97.72c-.98.58-19.13,2.21-22.6,2.42-55.44,3.37-114.28-2.69-170.08-.08-19.88-1.13-16.06-15.51-11.95-29.95C27.91-16.24,172.14-26.89,206.34,60.96c2.84,7.3,9.43,32.08,1.58,36.76ZM135.66,8.67c-7.09-4.34-62.59-.59-69.46,4.35-2.06,1.48-1.63,5.89-4,8-1.35,1.2-12.24,5.2-13.54,4.52-1.18-.61,1.32-5.63-5.89-1.95-3.12,1.59-21.87,22.06-24.2,25.81-3.85,6.2-13.42,28.06-9.84,34.22.34.58,8.88,9.18,9.48,9.48,5.3,2.67,69.22,1.17,81.11,1.05,28.01-.28,53.51-1.49,81.83,0,21.79,1.15,11.24-5.01,15.37-11.77,1.1-1.8,7.48-.98,7.75-3.47.2-1.84-5.63-19.8-7.01-22.87-.75-1.66-8.23-14.34-8.91-15.09-3.62-4.03-8.34-2-12.14-3.89-2.69-1.34-3.08-5.34-5.49-7.03-9.95-6.99-19.79-10.07-30.03-15.46-3.14-1.65-3.75-5.09-5.05-5.88Z"/>
      <path class="cls-2" d="M135.66,8.67c1.3.8,1.91,4.23,5.05,5.88,10.23,5.39,20.08,8.47,30.03,15.46,2.41,1.69,2.8,5.69,5.49,7.03,3.81,1.9,8.53-.14,12.14,3.89.67.75,8.16,13.43,8.91,15.09,1.38,3.07,7.21,21.02,7.01,22.87-.27,2.49-6.65,1.67-7.75,3.47-4.13,6.76,6.42,12.92-15.37,11.77-28.33-1.49-53.82-.28-81.83,0-11.89.12-75.81,1.62-81.11-1.05-.6-.3-9.14-8.9-9.48-9.48-3.58-6.16,5.99-28.02,9.84-34.22,2.33-3.75,21.08-24.22,24.2-25.81,7.21-3.68,4.71,1.34,5.89,1.95,1.3.67,12.19-3.33,13.54-4.52,2.38-2.11,1.94-6.51,4-8,6.87-4.94,62.37-8.68,69.46-4.35ZM98.24,40.09c-7.58-2.29-17.13-.52-24.11,2.93-2.98,1.47-4.83.02-3.87,5.03,7.91.71,15.54-1.85,23.07-3.98,3.15-.89,5.94,2.18,4.91-3.98ZM166.23,58.08l-25.98-6.01c-.85,7.06,13.89,7.28,19.25,7.75,2.24.2,7.18,1.85,6.73-1.73Z"/>
      <path class="cls-1" d="M98.24,40.09c1.02,6.17-1.76,3.09-4.91,3.98-7.53,2.13-15.16,4.69-23.07,3.98-.96-5.01.89-3.56,3.87-5.03,6.98-3.45,16.54-5.23,24.11-2.93Z"/>
      <path class="cls-1" d="M166.23,58.08c.45,3.59-4.48,1.93-6.73,1.73-5.36-.47-20.1-.69-19.25-7.75l25.98,6.01Z"/>
    </g>
  </g>
</svg>