<?xml version="1.0" encoding="UTF-8"?>
<svg id="Calque_2" data-name="Calque 2" xmlns="http://www.w3.org/2000/svg" viewBox="0 0 270.43 76.14">
  <defs>
    <style>
      .cls-1 {
        fill: #efd078;
      }

      .cls-2 {
        fill: #e68a40;
      }
    </style>
  </defs>
  <g id="Calque_1-2" data-name="Calque 1">
    <g>
      <path class="cls-2" d="M40.64,34.06c-3.72-12.16-6.48-4.4-10,2-2.9,5.28-14.84,30.21-17.02,31.98-3.94,3.21-8.22,1.98-12.99,2.03C-4.41,58.71,22.23,12.8,30.07,10.45c21.59-6.48,37.72,40.44,49.21,37.43,7.45-1.95,22.98-43.69,38.36-43.68,11.55,0,36.35,45.04,43.77,43.76,6.12-1.05,20.52-37.15,26.25-41.88,18.78-15.52,36.96,36.07,45.94,33.98C237.48,39.17,251.5.01,261.63,0c2.77,0,8.11,4.99,8.69,7.48,2.08,8.93-26,57.64-36.79,58.69-11.64,1.13-31.95-39.21-37.69-38.02-7.25,1.5-18.21,40.21-33.15,43.14-16.7,3.28-38.78-42.5-46.82-41.13-4.63.78-24.99,41.89-32.67,45.56-16.68,4.84-29.75-33.26-42.55-41.66Z"/>
      <path class="cls-1" d="M40.64,34.06l-10,2c3.52-6.4,6.28-14.16,10-2Z"/>
    </g>
  </g>
</svg>