<?xml version="1.0" encoding="UTF-8"?>
<svg id="Calque_2" data-name="Calque 2" xmlns="http://www.w3.org/2000/svg" viewBox="0 0 348.68 268.65">
  <defs>
    <style>
      .cls-1 {
        fill: #d35337;
      }

      .cls-2 {
        fill: #9d7662;
      }

      .cls-3 {
        fill: #efd078;
      }

      .cls-4 {
        fill: #e68a40;
      }
    </style>
  </defs>
  <g id="Calque_1-2" data-name="Calque 1">
    <g>
      <path class="cls-1" d="M264.31,100.73c.3.17.9,1.56,4,4,.75.59,1.29,1.41,2,2l-1.92,5.09c7.07,1.51.73,4.68,3.92,8.91-2.85,23.3-11.39,33.59-31.97,45.03-7.42,4.12-22.4,7.54-26.06,9.97-5.59,3.7,4.58,16.65,7.99,20.03,13.42,13.32,29.52,16.86,48.02,14.95.82-34.26,21.08-70.35,59.08-70.04,17.17.14,21.35,20.72,18.48,34.61-3.18,15.38-24.87,32.61-38.18,39.81-5.51,2.99-19.1,5.13-19.52,10.67-.74,9.74,23.94,27.8,34.15,26.96l2,2c-.04.66.06,1.34,0,2-.32,3.71-2.37,6.81-4,10-1.95-.06-4.16.25-6,0l-8-2c-6.99-3.74-16.62-9.29-22.08-14.92-4.66-4.8-12.13-21.04-13.89-22.11-4.13-2.51-14.95-.29-20.81-1.19-26.11-3.99-44.92-20.85-53.53-45.46-23.46-.55-40.62-1.76-57.68-18.33,2.59-11.53-6.2-8.5-8.03-10.03-.56-.47,3.49-11.67,4.03-13.97,8.16,16.88,37.45,29.47,54.99,26.02,6.73-1.33,5.6-15.57,7.57-22.44,1.41-4.91,3.96-6.56,5.44-9.57,3.7-1.28,4.38-4.39,4-8,.43-.55.27-2.24,2-4,.4-.4,3.76.21,5.04-1.94,1.35-2.26.24-6.07,1.4-7.63.88-1.18,12.6-4.1,15.46-5.63,1.59-.84,1.68-4.53,3.42-4.94,5.53-1.3,9.14,4.13,9.69,4.1,1.78-.07,2.22-5.88,4.16-6.03.75-.06,14.18,1.69,14.83,2.06ZM258.01,109.03c-2.22-1.39-12.58-.33-15.8.62-16.67,4.94-31.14,34.35-29.9,51.08,16.91-.51,44.58-23.38,47.63-39.49.54-2.83-.02-11-1.94-12.21ZM327.56,182.01c5.57-7.71,13.75-28.53-2.03-27.2-22.18,1.87-39.55,31.64-39.22,51.92,5.45,5.47,36.82-18.59,41.25-24.73Z"/>
      <path class="cls-1" d="M178.31,48.73c24.94,5.87,26.09,28.61,11.95,46.95-5.6,7.26-14.26,12.18-21.95,17.05h-6.01s0,4,0,4c-.5.28-1.46-.27-2,0l-2,2c-5.55,2.55-10.53,6.44-18,6,.79-1.79.79-4.21,2-5.98-16.33-2.92-9.56,21.14-12,31.98-5.53-7.98-6.09-8.29-10-18-.41-1.01,1.21-3.62-1.25-4.09-6.54.98-15.75-2.17-20.75,2.09h-6l-2-2c-.65-.11-1.37.14-2,0-4.49-3.62-10.08-8.06-16-8-.6-.7-1.35-1.33-2-2-7.84-8.1-10.53-9.01-14.94-20.06-2.46-6.17.96-3.58,4.94-3.94.13.44,1.58,3.27,2,4l2,2c.54.69,1.35,1.36,2,2-1.14,4.8,2.79,4.31,6,6,1.29.68,2.65,1.47,4,2,3.39,6.08,10.07,6.78,16,8,2.75.57,6.86-.24,10,0,.57.04,3.84,2.38,8.97,2.07,16.85-1.01,10.71-15.33,13.42-24.68,1.34-4.65,12.46-9.57,5.61-19.39,2.54-4.14,4.69-8.37,8-12,4.66,3.75,14.72-1.04,10-6,3.81-2.41,2.26-2.4,10-6,2.42,3.31,3.01.36,4,0,5.66-2.08,10.37-2.64,16-4ZM138.31,88.73c-.91.27-1.84,1.09-2,2-.22,1.24.23,2.77,0,4-6.22-2.81-7.2,17.85-5.7,19.77,1.17.83,2.69,0,3.7.23,3.48.77,6.2-.35,10-2,1.04-.45,1.53-1.74,2-2,1.29-.72,2.77-1.21,4-2,.78-.51,1.38-1.31,2-2,1.21-.26,2.82.27,4,0,.73-.17,1.47-1.34,2-2,6.31-7.51,16.15-10.89,21.67-19.33,21.47-32.77-19.28-30.68-34.54-10.54-2.96,3.91-4.61,9.55-7.13,13.87ZM169.31,106.73v2c1.3-.67,1.3-1.33,0-2Z"/>
      <path class="cls-1" d="M68.31,72.73c.24-7.94-4.65-4.38-6,2-1.23.23-2.78-.24-4,0-7.74,1.55-6.04,4.73-6.01,12.01-10.13-.27,3.15-10.31-9.99-10.01-1.32.03-2.69-.11-4,0v-3.99s-11.99,1.99-11.99,1.99v-6s7.99-2,7.99-2c2.47.12,5.63.27,8,0,4.05-.47,8.28-1.23,8.02-5.98h1.96s.03,6,.03,6c2.45.84,3.77-1.98,3.99-2.01,15.87-2.53,27.79-7.51,40.43-18.12,8.49-7.13,21.92-27.73,5.69-32.99-24.97-8.1-44.16,14.72-48.12,37.12-1.71-5.55-1.51-9.68-8-8,3.33-15.26,4.2-21.54,17.05-31.95,34.95-28.32,76.63,4.26,46.91,38.91-10.75,12.54-26.91,19.01-41.95,23.05Z"/>
      <path class="cls-4" d="M130.31,76.73c6.85,9.82-4.26,14.74-5.61,19.39-2.71,9.35,3.43,23.67-13.42,24.68-5.14.31-8.4-2.03-8.97-2.07l15.14-3.86c.61-11.62,2.99-23.27,8.46-33.63,1.46-2.76,3.91-3.71,4.4-4.51Z"/>
      <path class="cls-4" d="M210.31,120.73c-.74-5.82,3.39-8.64,6.96-12.04,11.63-11.07,30.31-20.69,45.71-12.03,1.82,1.02,1.12,3.88,1.33,4.07.54.51,5.43-1.13,4,4-3.1-2.44-3.7-3.83-4-4-.65-.37-14.08-2.12-14.83-2.06-1.94.15-2.38,5.96-4.16,6.03-.55.02-4.16-5.41-9.69-4.1-1.74.41-1.83,4.1-3.42,4.94-2.87,1.52-14.58,4.45-15.46,5.63-1.16,1.55-.05,5.36-1.4,7.63-1.28,2.15-4.64,1.54-5.04,1.94Z"/>
      <path class="cls-4" d="M58.31,74.73c-.21,6.38.18,13.92,2,20-3.98.36-7.4-2.23-4.94,3.94,4.41,11.05,7.1,11.96,14.94,20.06-17.62-8.6-22.64-24.65-28-42,13.14-.3-.14,9.74,9.99,10.01-.03-7.28-1.74-10.46,6.01-12.01Z"/>
      <path class="cls-4" d="M46.31,42.73c6.49-1.68,6.29,2.45,8,8,1.51,4.9,2.95,8.54,2,14-.22.04-1.54,2.85-3.99,2.01l-.03-6.01h-1.96c.26,4.76-3.97,5.52-8.02,5.99,1.25-8.2,2.32-16.31,4-24Z"/>
      <path class="cls-3" d="M326.31,256.73l16.83,2.01c5.19,6.94-6.65,9.48-12.2,9.86-5.25.36-7.74-1.85-8.63-1.87,1.63-3.19,3.68-6.29,4-10Z"/>
      <path class="cls-2" d="M20.31,64.73c0,1.33,0,2.67,0,4l-8,4c-3.3-1.42-8.31-.17-11-6.01-6.67-14.45,14.28-2.97,19-1.99ZM16.3,66.75h-3.98v1.96h3.98v-1.96Z"/>
      <path class="cls-4" d="M130.31,150.73c2.44-10.84-4.33-34.9,12-31.98-1.21,1.77-1.21,4.19-2,5.98-3.21,7.29-2.42,7.18-4,14-.53,2.3-4.58,13.51-4.03,13.97,1.82,1.53,10.61-1.5,8.03,10.03-5.38-5.23-5.79-5.93-10-12Z"/>
      <path class="cls-4" d="M20.31,68.73c0,2-.03,4.01.02,6,3.3-.5,3.42-3.35,3.98-6h2v6s11.99-1.99,11.99-1.99v3.99c-13.53,1.18-12.79,1.69-25.99-4l8-4Z"/>
      <path class="cls-4" d="M98.31,130.73c5-4.26,14.21-1.11,20.75-2.09,2.47.47.85,3.08,1.25,4.09-7.18-.79-15.89,2.16-22-2Z"/>
      <path class="cls-4" d="M148.31,58.73c4.72,4.96-5.34,9.75-10,6,6.18-6.77,6.55-3.82,10-6Z"/>
      <path class="cls-4" d="M88.31,128.73c-4-.88-11.58-1.59-14.74-3.86-2.12-1.53-.99-3.82-1.26-4.14,5.92-.06,11.51,4.38,16,8Z"/>
      <path class="cls-2" d="M178.31,48.73c-5.63,1.36-10.34,1.92-16,4v-2c1.26-.42,2.67-3.41,7.16-4,5.46-.73,6.09,1.36,8.84,2Z"/>
      <path class="cls-4" d="M76.31,110.73c5.87,2.3,17.29,2.38,16,8-5.93-1.22-12.61-1.92-16-8Z"/>
      <path class="cls-4" d="M272.31,120.73c-3.19-4.24,3.15-7.4-3.92-8.91l1.92-5.09c1.96,1.64,3.4,1.11,4.02,5.02.87,5.53-1.88,7.89-2.02,8.98Z"/>
      <path class="cls-1" d="M24.31,64.73c-.17,1.28.25,2.82,0,4-.56,2.65-.68,5.5-3.98,6-.05-1.99-.02-4-.02-6,0-1.33,0-2.67,0-4,1.2.25,2.74-.2,4,0Z"/>
      <path class="cls-2" d="M34.31,66.73l-8,2h-2c.25-1.18-.17-2.72,0-4,2.47.4,9.41,1.97,10,2Z"/>
      <path class="cls-4" d="M62.31,74.73c1.35-6.38,6.24-9.94,6-2-2.03.54-2,1.24-6,2Z"/>
      <path class="cls-4" d="M204.31,132.73c1.66-3.4-.09-2.85,4-8,.38,3.61-.3,6.72-4,8Z"/>
      <path class="cls-3" d="M316.31,266.73c-3.26-.45-.43,2.05-8-2l8,2Z"/>
      <path class="cls-4" d="M168.31,112.73c-2,1.27-2.74,2.2-6,4v-4s6,0,6,0Z"/>
      <path class="cls-4" d="M162.31,50.73v2c-.99.36-1.58,3.31-4,0,1.28-.59,2.01-1.34,4-2Z"/>
      <path class="cls-4" d="M72.31,108.73c-3.21-1.69-7.14-1.2-6-6,1.81,1.78,5.13,2.66,6,6Z"/>
      <path class="cls-3" d="M326.31,254.73l-2-2,2,2Z"/>
      <path class="cls-4" d="M92.31,130.73c-1.41-.1-1.86-1.98-2-2l2,2Z"/>
      <path class="cls-4" d="M158.31,118.73l2-2c-.65.32-1.24,1.65-2,2Z"/>
      <path class="cls-4" d="M64.31,100.73l-2-2c.36.63,1.42,1.25,2,2Z"/>
      <path class="cls-4" d="M136.31,94.73c-1.28,6.74-3,12.96-2,20-1.01-.22-2.53.6-3.7-.23-1.5-1.92-.52-22.59,5.7-19.77Z"/>
      <path class="cls-4" d="M169.31,106.73c1.3.67,1.3,1.33,0,2v-2Z"/>
      <path class="cls-4" d="M150.31,108.73c.28-.92,1.08-1.81,2-2-.62.69-1.22,1.49-2,2Z"/>
      <path class="cls-4" d="M156.31,106.73c.5-.81,1.42-1.31,2-2-.53.66-1.27,1.83-2,2Z"/>
      <path class="cls-4" d="M136.31,90.73c.16-.91,1.09-1.73,2-2-.46.79-1.33,1.38-2,2Z"/>
      <path class="cls-4" d="M144.31,112.73l2-2c-.47.26-.96,1.55-2,2Z"/>
      <rect class="cls-4" x="12.32" y="66.75" width="3.98" height="1.96"/>
    </g>
  </g>
</svg>