<?xml version="1.0" encoding="UTF-8"?>
<svg id="Calque_2" data-name="Calque 2" xmlns="http://www.w3.org/2000/svg" viewBox="0 0 138.22 138.76">
  <defs>
    <style>
      .cls-1 {
        fill: #4e7298;
      }

      .cls-2 {
        fill: #2a6395;
      }
    </style>
  </defs>
  <g id="Calque_1-2" data-name="Calque 1">
    <g>
      <path class="cls-2" d="M36.13,88.87c-13.54-24.43-5.39-48.95,17.01-63.99,27.78-18.66,70.34-2.94,81.96,28.02,11.5,30.65-10.26,70.86-40.97,77.97-1.67.39-4.43-.39-6.82.1-6.22,1.25-12.4,6.7-21.17,3.89-1.13-7.47,3.33-1.08,7.12-3.8,1.37-.98,2.12-3.71,2.87-4.19,14.84-9.52,32.12-11.8,42.41-30.59,24.92-45.48-29.2-85.57-62.85-55.42-12.1,10.84-10.61,17.51-11.56,32.01l-1.96,1,1.96,1c-.18,2.65.17,5.35,0,8,5.05.36,4.15,2.57,6,4-.81,8.51.47,5.15,6,6,12.13,1.87,28.49,4.21,36.11-8.89,5.7-9.8-1.73-15.86-6.11-23.11-.61-1.01,1.2-3.32-1.01-4.01-4.1-1.29-5.9.04-4.99,4.01-1.28,0-2.8-.19-4,0s-2.63-.71-3.69.37l-4.31,9.63c-1.06.11-3.26.24-4,0-.12-3.2,1.24-8.29-2-10,2.93-8.01,2.4-4.76,8-8,3.79,4.15,6.93-1.14,9.03-1.23,2.77-.12,11.44,5.84,16.97,3.23.57.44,5.65,5.51,6,6l2,2c9.63,16.49.61,32.22-14.59,40.41-13.43,7.24-17.5,6.22-31.41,1.59v-3.99s-2.98,0-2.98,0l-1.02,1.98c-4.11-1.77-8.91-2.74-12.63-5.93-1.92-1.64-1.11-3.76-1.37-4.07,5.46-2.36,3.7-5.38,4-10-1.32-.09-2.67.04-3.99-.02l-.03,8.02-3.98-2Z"/>
      <path class="cls-2" d="M8.13,98.87C-.27,78.97-2.78,67.67,3.54,45.28,10.95,19.05,41.91-10.83,70.11,3.9l-24.06,7.89C19.56,23.59,5.52,62.07,14.13,88.87l-6,10Z"/>
      <path class="cls-1" d="M14.13,88.87c1.02,3.18,11.29,19.46,13.99,22.44,11.55,12.75,31.42,15.91,48.01,15.56-.75.48-1.51,3.21-2.87,4.19-3.78,2.72-8.25-3.68-7.12,3.8,8.77,2.81,14.94-2.65,21.17-3.89,2.4-.48,5.16.29,6.82-.1-15.47,12.08-42.19,8.92-58.65-.35-4.97-2.8-24.03-19.32-26.31-23.78-1.57-3.08-.5-6.58-1.04-7.87l6-10Z"/>
      <path class="cls-1" d="M96.13,54.87c-5.53,2.6-14.21-3.35-16.97-3.23-2.1.09-5.24,5.39-9.03,1.23.48-.28.91-2.9,3.32-3.59,9.61-2.74,15.82.33,22.68,5.59Z"/>
      <path class="cls-1" d="M64.13,70.87c-6.83-2.22-3.41-6.14-2-10,3.24,1.71,1.88,6.8,2,10Z"/>
      <path class="cls-1" d="M80.13,60.87c-.91-3.98.89-5.3,4.99-4.01,2.21.69.4,3,1.01,4.01-2,0-4,.01-6,0Z"/>
      <path class="cls-1" d="M56.13,92.87c-5.53-.85-6.81,2.51-6-6,2.32,1.79,4.91,2.78,6,6Z"/>
      <path class="cls-1" d="M76.13,60.87c-1.88,5.36-2.2,9.42-8,10l4.31-9.63c1.06-1.08,2.54-.19,3.69-.37Z"/>
      <path class="cls-1" d="M54.13,102.87l1.02-1.98h2.97s.01,3.98.01,3.98c-1.73-.58-2.75-1.46-4-2Z"/>
      <path class="cls-1" d="M104.13,62.87l-2-2c.51.7,1.54,1.21,2,2Z"/>
      <path class="cls-1" d="M44.13,74.87l-1.96-1,1.96-1c-.04.66.04,1.34,0,2Z"/>
      <path class="cls-1" d="M44.13,82.87c-.3,4.62,1.46,7.64-4,10-.98-1.19-2.66-1.59-4-4l3.98,2,.03-8.02c1.32.06,2.67-.08,3.99.02Z"/>
    </g>
  </g>
</svg>