<?xml version="1.0" encoding="UTF-8"?>
<svg id="Calque_2" data-name="Calque 2" xmlns="http://www.w3.org/2000/svg" viewBox="0 0 133.89 133.81">
  <defs>
    <style>
      .cls-1 {
        fill: #d35337;
      }

      .cls-2 {
        fill: #e68a40;
      }
    </style>
  </defs>
  <g id="Calque_1-2" data-name="Calque 1">
    <g>
      <path class="cls-2" d="M119.64,44.83c5.55-5.36,12.03,6.71,13.1,11.88,5.57,26.78-9.85,48.49-30.11,64.11C44.19,165.87-33.71,84.25,15.68,21.86c48.7-61.51,132.85,21.62,79,67-19.54,16.47-54.74,8.41-57.14-18.94-1.8-20.53,11.57-38.46,33.58-29.6,12.61,5.08,14.47,25.2,3.85,22.19-3.1-.88-16.92-16.36-19.4-2.65-3.86,21.35,28.55,26.04,36,5.89,10.53-28.46-23.18-57.98-50.68-42.68-7.17,3.99-21.14,21.04-22.81,29.18-6.67,32.41,23.8,70.4,58.09,64.08,11.77-2.17,38.02-25.12,41.57-36.41,2.36-7.5,2.61-18.34,3.15-26.46.15-2.32-1.96-7.96-1.25-8.64ZM88.63,28.82v2c1.3-.67,1.3-1.33,0-2ZM105.62,46.81c1.61-1.52-5.97-17.1-7.95-15.97,1.02,3.33-3.96,3.99-4.12,5.31-.82,6.92,8.19,14.32,12.07,10.66Z"/>
      <path class="cls-1" d="M105.62,46.81c-3.88,3.66-12.89-3.75-12.07-10.66.16-1.32,5.14-1.97,4.12-5.31,1.98-1.13,9.56,14.45,7.95,15.97Z"/>
      <path class="cls-1" d="M88.63,28.82c1.3.67,1.3,1.33,0,2v-2Z"/>
    </g>
  </g>
</svg>