<?xml version="1.0" encoding="UTF-8"?>
<svg id="Calque_2" data-name="Calque 2" xmlns="http://www.w3.org/2000/svg" viewBox="0 0 151.98 153.54">
  <defs>
    <style>
      .cls-1 {
        fill: #8a9a99;
      }

      .cls-2 {
        fill: #4e7298;
      }

      .cls-3 {
        fill: #2a6395;
      }
    </style>
  </defs>
  <g id="Calque_1-2" data-name="Calque 1">
    <g>
      <path class="cls-3" d="M46.13,134.55c-3.96,4.05-20.31,29.01-25.58,14.5-3.04-8.37-3.37-5.27-6.04-9.85-3.97-6.8,3.61-13.39-7.1-10.65-1.6.41-.96,4.05-2.28,4.05-11.63-3.77-.54-14.07,4.23-19.82,11.63-14.01,27.03-25.19,38.73-39.23,0-3.9-43.11-34.28-45.61-46.49-2.71-13.25,11.29-5,13.66-8.52.29-.44-2.51-3.62-1.7-5.61.16-.4,5.89-3.44,7.01-4.89.32-.42-.04-7.67,5.49-7.37l48.19,45.8c3.77-4.53,8.84-7.95,13-11.92,1.3-1.24,2.2-1.98,2-4,2.36-3.57,4.12-3.93,6-6l2-2c1.23-1.39,2.69-2.67,4-4l7.91.46c-1.66-2.7,13.27-12.17,15.07-12.49,4.71-.84,3.25,4.76,3.02,8.03-1.33,0-2.65-.13-3.97.02-.42,1.9.34,4.28-.03,5.98-4.79,1.71-7.16,3.56-7.99,9.99,7.47,1.99,6.71-4.11,7.99-9.99,1.04-.37,3.6.47,4,0s-.11-4.4,0-6c3.41,0,5.86-.15,8.02,3.05l-8,16.94,7.97.98c-11.31,15.41-41.75,24.88-33.97,47.04,9.5-4.84,4.15.92,6.41,3.45.94,1.05,4.1.69,5.32,1.82,9.2,8.5,27.43,18.91,22.22,31.7,15.18,4.24.54,6.16-7.95,5.04l5.99,13.99c-.66-.05-1.34.04-2,0-.21-.01-2.24-3.21-3.83-1.92-1.28,1.05-.23,5.96-5.16,5.95-.99,0-1.3-6.55-7.01-4.04-.49-.99-1.86-1.64-2-2-1.75-4.54,4.1-7.19-8-6-.71-.62-1.32-1.35-2-2,1.32-5.17-3.42-4.1-6-6-6.73-4.94-17.31-19.72-24.68-18.13-1.13.24-11.86,15.6-14.52,17.98s-4.53,2.66-6.81,4.15c-2.75,1.81-7.35.09-6,8ZM99.13,30.55v2c1.3-.67,1.3-1.33,0-2ZM54.11,122.54v-3.98h-1.96v3.98h1.96ZM116.12,118.56c-2.18-2.18-6.16,1.8-3.98,3.98s6.16-1.8,3.98-3.98Z"/>
      <path class="cls-2" d="M102.13,18.55c3.64-3.7,7.21-10.89,14.09-14.9,18.32-10.67,14.3,5.27,17.09,7.15.51.35,9.81,5.46,10.39,5.67,4.6,1.69,11.51-1.34,4.52,11.18-5.4,9.66-44.14,42.73-44.05,45.91,17.58,13.06,32.64,28.71,47.81,44.34-1.4,8.03-6.63,15.24-15.84,12.68l1.99,7.97c-1.32-.01-2.68.11-3.99.01l-5.99-13.99c8.49,1.12,23.13-.8,7.95-5.04,5.2-12.79-13.03-23.2-22.22-31.7-1.21-1.12-4.37-.76-5.32-1.82-2.26-2.53,3.09-8.29-6.41-3.45-7.78-22.15,22.66-31.63,33.97-47.04l-7.97-.98,8-16.94c-2.16-3.2-4.61-3.05-8.02-3.05-.11,1.6.39,5.55,0,6s-2.95-.38-4,0c-1.28,5.88-.52,11.98-7.99,9.99.84-6.42,3.2-8.28,7.99-9.99.37-1.7-.39-4.08.03-5.98,1.32-.16,2.64-.02,3.97-.02.23-3.27,1.68-8.87-3.02-8.03-1.79.32-16.73,9.79-15.07,12.49l-7.91-.46Z"/>
      <path class="cls-2" d="M132.13,138.55c-1.39,14.85-10.77,10.57-16,0,5.71-2.52,6.02,4.04,7.01,4.04,4.93,0,3.88-4.91,5.16-5.95,1.59-1.29,3.61,1.91,3.83,1.92Z"/>
      <path class="cls-2" d="M106.13,130.55c12.1-1.19,6.25,1.46,8,6-4.21-.65-5.63-3.94-8-6Z"/>
      <path class="cls-1" d="M52.13,126.55c.38,5.06-3.81,5.77-6,8-1.35-7.91,3.25-6.19,6-8Z"/>
      <path class="cls-2" d="M98.13,122.55c2.58,1.9,7.32.83,6,6-1.85-1.79-5.05-2.71-6-6Z"/>
      <path class="cls-2" d="M88.13,34.55c-.13-1.91,1.19-2.78,2-4,.2,2.02-.7,2.76-2,4Z"/>
      <path class="cls-2" d="M96.13,24.55c.63-.7,1.38-1.3,2-2l-2,2Z"/>
      <path class="cls-2" d="M116.12,118.56c2.18,2.18-1.8,6.16-3.98,3.98s1.8-6.16,3.98-3.98Z"/>
      <rect class="cls-1" x="52.15" y="118.56" width="1.96" height="3.98"/>
      <path class="cls-2" d="M99.13,30.55c1.3.67,1.3,1.33,0,2v-2Z"/>
    </g>
  </g>
</svg>