<?xml version="1.0" encoding="UTF-8"?>
<svg id="Calque_2" data-name="Calque 2" xmlns="http://www.w3.org/2000/svg" viewBox="0 0 241.17 248.34">
  <defs>
    <style>
      .cls-1 {
        fill: #947e92;
      }

      .cls-2 {
        fill: #8a9a99;
      }

      .cls-3 {
        fill: #526364;
      }

      .cls-4 {
        fill: #a2c9df;
      }

      .cls-5 {
        fill: #4e7298;
      }

      .cls-6 {
        fill: #2a6395;
      }

      .cls-7 {
        fill: #6ab1d1;
      }
    </style>
  </defs>
  <g id="Calque_1-2" data-name="Calque 1">
    <g>
      <path class="cls-3" d="M97.71,88.28c.56-.84.98-2.46,2-4-.43.8-1.96,3.78-2,4Z"/>
      <path class="cls-3" d="M107.71,78.28c-.63.14-1.4-.19-2,0,.39-.26.47-1.33,1.02-1.44.51-.1.76,1.39.98,1.44Z"/>
      <path class="cls-3" d="M103.71,80.28c-.76.73-3.87,3.75-4,4,.29-.44-.62-2.54.42-3.57s2.99-.12,3.58-.43Z"/>
      <path class="cls-3" d="M215.71,6.28c-7.3.56-13.51-.34-4,6-7.69-1.36-22.93-1.34-32-2-8.28-.6-17.18-4.13-24.02,1l24.02,3c3.45,8.63,25.01,10.27,34,32,.47,1.13-.93,4.18,2,4l-30.47,49.6c-1.09.97-3.2.13-3.53.4.44-5.23.8-4.44,0-10,4.84,1.53,3.69-3.83,4-4,.73-.41,4.07.93,5.51-.37.92-.83,2.4-8.93,4.46-12.14,1.4-2.17,9.52-9.48,10.6-11.98,7.87-18.24-1.68-27.79-17.54-35.6l-1.03,4.09h-2c-2.72-6.21-7.63-10.67-11.41-16.11-10.87-1.26-38.93,7.86-47.22,6.25-1.8-.35-3.38-7.1-7.49-9.12-3.12-1.53-5.58-.51-7.88-1.03-1.71-.38-2.97-2.24-6.99-2.27-4.23-.04-5.56,1.98-7.01,2.27-2.26.47-4.28,1.64-6,2-3.04.64-5.18,1.28-8,2-1.48.38-22.17,1.45-16,5.99,9.47-.95,19.15,3.74,24,12.01-8.74-5.27-30.8-17.71-36.98-3.94-3.31,7.37,6.37,38.49,18.98,35.94-1.74,2.79-9.48,24.54-7.99,25.99,11.32,2.56,7.76-5.84,11.03-13.95,2.26-5.61,6.8-9.73,6.98-16.02,5.46,2.52-2.81,11.95-2.01,15.97,3.27.87.98-3.46,3.26-4.01,13.38-3.24,2.58,13.52,4.73,22.02,1.88,2.23,7.03-4.55,7.99-5.99-2.77,14.85,13.73-1.68,10-10,1.31.3,3.66-1.1,4.14,1.25l-4.14,16.74c8.67,2.41,5.6-5.03,8.32-7.57.52-.48,3.32,1.73,4.69-.38,1.96-3.04-1.15-5.04-1.02-6.03,1.61-12.41,4.87-4.97,7.97-6.86,2.28-1.39,6.44-10.7,8.39-13.78.62-.99,4.45-7.58,5.64-3.36-8.47,8.09-11.05,17.7-15.22,27.78-1.03,2.49-6.76,10.1-6.73,11.24.07,2.45,7.66,4.26,9.77,2.79,1.46-1.02,8.82-28.58,11.26-33.81.62-1.33,1.86-7.71,4.91-3.98,1.48,1.81-14.26,33.53-11.99,39.98,1.87.33,4.38-.41,6,0,.55.14,1.31-.05,2,0,1.53.11-.5,1.91,4,0,.62-.26,1.69.31,2,0-.76,10.54,10.73,12.25,8.01-.01l1.99,5.99c10.28,1.56,10.67-12.31,11.98-19.98l-8,10.96-1.48-3.45c7.76-22.2,19.91-8.72,9.03,11.01-3.71,6.72-20.01,12.37-1.56,15.47.95-7.01,8.45-17.4,14.02-22-.19,2.31-4.04,15.09,1.96,9.99,1.57-1.34,8.83-17.59,11.92-20.68,1.96-1.96,3.98-1.14,4.12-1.3-.86,5.22-1.72,8.34.02,14,13.29-7.73,13.06-16.33,13.98-29.98-1.32,0-2.69-.12-4-.02-3.26,7.44-4.85,10.01-10,16,.86-5.27,4.91-15.59,10-16,1.13-2.58,2.93-7.26,4-10h4c-1.54,8.7.43,20.7-2.91,30.09-3.12,8.75-13.26,11.04-16.87,17.13-2.51,4.25-8.52,24.67-8.15,29.56.97,12.96,12.03,30.79,9.95,45.22,29.73-18.78,38.09,36.21,10.97,38.05-21.66,1.47-21.94-13.73-16.99-30.05.77-2.53,3.86-3.11,3.62-8.39-.76-16.18-12.29-36.84-12.01-54.21l-5.59-3.39c.48,3.7-.71,8.59-.01,11.99-1.14-10.99-10.27-5.66-11.88,3.13-2.92,15.87,13.25,10.1,11.88-3.13.21,1,3,8.28,4,12-.44-.5-2.72-.05-4.01.99-9.08,7.36,10.44,6.23,4.01-.99,4.16,15.39,6.15,15.03,6,32-13.69,18.64-41.28,20.03-62,14,6.01-18.04,35.05-46.15,43.79-65.21,1.32-2.89,2.74-5.41,2.2-8.78l-11.01,11.98c-4.34,1.99-3.01-7.05-7.95-5.98-1.5.32-4.11,4.48-3.02,5.97l8.05,3.1c-.09,5.33-5.01,6.98-6.06,8.93.29-.46.27-7.13-.26-7.75-5.64-6.71-25.82,8.65-33.73,5.74l3.99-9.97c-10.77,1.04-42.29,3.81-41.97,19.03.17,7.76,24.31,14.33,30.98,14.92,23.11,2.04,22.07-4.97,34.89-19.15,2.08-2.29,5.91-2.54,6.09-2.82-3.4,6.34-6.88,17.31-10.74,23.29-4.44,6.88-19.08,19.17-21.26,22.71-.69-3.92-4.21-3.28-6.91-4.09-5.43-1.62-33.75-6.7-34.99-8-.91-.95.37-7.57-.11-9.92-10.63,11.29-29.31.58-43.98-2,.24-1.12-.36-3.63,0-4,.46-.46,8.6-.27,1.43-9.51-.82-1.06-3.06-.21-3.43-.49-2.04-1.47-2.81-5.45-8-4,1.98-9.66-5.19-6.44,6-20-.5.65-4.33,15.17-3.86,15.84,1.87,2.61,32.32,10.52,36.79,10.12,8.15-.74,26.08-20.89,27.06-29.94-9.48-2.49-16.6,7.49-24.93,8.08-5.77.41-2.19-6.36-3.07-10.09l-15.98,1.99c-1.05-5.98,1.62-3.15,4.69-4.2s14.78-3.24,15.32-3.81-3.5-11.44,0-15.97c-16.2-6.13-18.25,14.63-25.96,23.03-3.48,3.79-9.71,4.51-10.05,4.96,4.4-5.34,11.56-9.12,12.03-17.2.4-6.92-6.24-7.65-7.63-12.21-6.22-20.42,17.29-9.15,23.29-12.92.61-.38,5.95-12.33,6.02-13.04.23-2.49-19.78-27.88-17.67-45.44,1.87-15.57,44.02-25.12,56.99-25.34,15.12-.25,24.39,13.29,31.86,12.22,7.24-1.04,6.64-10.43,17.13-12.06-3.71,6.34-.04,2.31,3.18,2.19,3.74-.14,13.29,1.43,14.81-2.17-5.17.38-10.93-.61-15.99-.02-1.12-6.04,3.06-3.87,6.91-4,14.13-.49,30,.57,44.14,1.95,3.53.34,6.88.68,8.95,4.05ZM197.7,4.3c-5.64.12-11.36-.25-17.01-.02-2.43.1-7.44-1.51-6.97,1.98,5.64-.12,11.36.25,17.01.02,2.43-.1,7.44,1.51,6.97-1.98ZM87.7,78.29c-7.56-1.53-2.77,10.26-3.97,13.98,4.15-1.41,3.5-10.49,3.97-13.98ZM51.7,98.29c-12.36-2.12-2.49,8.66,0,5.98v-5.98ZM81.71,114.26l-2.02-5.97h-1.96s0,5.98,0,5.98h3.99ZM103.7,108.29c-6.99,3.36-19.63-4.48-20,5.97,5.81-1.43,6.2,3.23,7.89,4.62,6.74,5.55,13.62-9.18,12.11-10.59ZM125.72,114.29c-7.15,1.64-19.85-8.86-19.99,2l3.94-1.07-7.95,17.04c9.87,1.44,18.72-5.37,27.67-4.18l4.31-13.8c-7.03-1.95-4.45,9.99-7.01,10-6.92.04,1.27-7.77-.97-10ZM141.69,124.27v-3.98h-1.96v3.98h1.96ZM79.7,122.3h-7.98s0,3.97,0,3.97l7.97-2.02v-1.95ZM149.7,124.29c-2.18-2.18-6.16,1.8-3.98,3.98s6.16-1.8,3.98-3.98ZM68.73,126.32l-2.98,2.98c-.04,2.1,5-1.19,2.98-2.98ZM215.7,192.27l-7.98.02c-.98,7.51,8.55.15,6.01,9.98l1.97-10ZM213.69,210.27v-5.98h-1.96v5.98h1.96ZM209.7,206.29h-3.98v5.98h3.98v-5.98Z"/>
      <path class="cls-3" d="M103.71,80.28c.66-.63,1.28-1.52,2-2-.14.04.12.89-2,2Z"/>
      <path class="cls-3" d="M121.71,192.28c-.43.7-4.55,15.39-3.99,15.99,2.59.29,5.74-2.12,7.99-1.99.62.04,11.18,2.69,11.96,3.04,14.78,6.56,9.04,36.28-5.04,38.94-3.76.71-19.14-3.01-23.46-4.44-11.89-3.93-12.26-24.88-4.55-33.62,3.82-4.32,16.7-8,12.97-13.77-1.96-3.03-60.63-15.83-69.88-18.14v-2c5.16,1.41,13.6,1.29,20.02,2.98,17.86,4.68,35.58,10.61,53.98,13.02ZM113.69,232.28c-.98-3.49,2.41-13.22-1.96-13.99-.19,5.04-4.87,11.53,1.96,13.99ZM128.71,224.28v2c1.3-.67,1.3-1.33,0-2ZM125.69,230.27v-3.98h-1.96v3.98h1.96ZM135.7,226.29c-2.18-2.18-6.16,1.8-3.98,3.98s6.16-1.8,3.98-3.98ZM133.7,234.3h-5.98v1.96h5.98v-1.96Z"/>
      <path class="cls-3" d="M17.71,176.28c-.15.59.1,1.32,0,2s.14,1.37,0,2c-.05.24-4.27,3.43-.98,4.01,3.71.66,3.17-.61,2.98-4.01,34.13-11.59,31.84,43.38,5.45,37.67-.97-.21-17.42-7.33-18.26-7.86-2.38-1.52-5.69-7.15-6.33-9.8-3.43-14.36,9.43-19.31,15.13-30h2c-.49,1.46.43,4.31,0,6ZM33.7,188.29c-4.35.49-9.47,1.27-7.97,5.99h7.97s0-5.99,0-5.99ZM13.7,196.27v-5.98s-1.97,0-1.97,0l-2.02,5.97h3.99ZM33.71,204.28c-3.85,1.07-4.74-2.99-7.98-4,1,11.27,2.41,8.07,7.98,4,1.63-1.19,5.78,2.25,3.99-7.99h-5.98s1.99,7.99,1.99,7.99Z"/>
      <path class="cls-1" d="M215.71,6.28c.66-.05,1.34.02,2,0l2.98,1.99,1.02-1.99c44.73,3.99-1.28,40.6-4,56h-4c1.56-4.02,1.47-9.39,5.96-13.02-1.21-2.01-2.69.94-3.96,1.02-2.93.18-1.53-2.87-2-4,2.38-4.24,7.21-6.99,10-10,4.42-4.77,2.35-2.65,4-8,.17-.57-.13-1.32,0-2,5.48,2.06,5.73-6.26,2-8-.88-.41-17.07-5.83-18-6-9.51-6.34-3.3-5.44,4-6ZM226.71,8.28v2c1.3-.67,1.3-1.33,0-2Z"/>
      <path class="cls-1" d="M33.71,154.28l-3.99,9.99h5.99c-.36.38.24,2.89,0,4.01-1.93-.34-8.36-3.96-7.99-.03,6.21.45,15.53,6.81,19.99,8.03v2c-11.97-2.99-15.13-7.03-26-2l1.98-11.99c-.4-.96-5.84,5.55-5.98,5.99h-2c1.49-2.79,9.78-18.9,10-20,5.19-1.45,5.96,2.53,8,4ZM28.71,152.28v2c1.3-.67,1.3-1.33,0-2ZM25.69,162.27l1.04-5.95c-2.16,1.77-3.66,3.02-3,5.95h1.96Z"/>
      <path class="cls-2" d="M193.71,192.28c-3.56-2.32-4.03-6.01-4-10,.15-16.97-1.84-16.61-6-32-1-3.72-3.79-11-4-12-.7-3.4.49-8.29.01-11.99l5.59,3.39c-.28,17.37,11.25,38.03,12.01,54.21.25,5.29-2.85,5.86-3.62,8.39Z"/>
      <path class="cls-2" d="M35.71,168.28c14.67,2.58,33.35,13.29,43.98,2,.49,2.35-.79,8.97.11,9.92,1.24,1.3,29.56,6.38,34.99,8,2.7.81,6.23.17,6.91,4.09-18.4-2.41-36.11-8.34-53.98-13.02-6.43-1.69-14.86-1.57-20.02-2.98-4.45-1.21-13.78-7.58-19.99-8.03-.37-3.94,6.05-.32,7.99.03Z"/>
      <path class="cls-2" d="M153.71,146.28c1.04-1.94,5.97-3.59,6.06-8.93l-8.05-3.1c-1.09-1.49,1.52-5.64,3.02-5.97,4.94-1.07,3.61,7.97,7.95,5.98l11.01-11.98c.54,3.37-.88,5.89-2.2,8.78-8.73,19.07-37.78,47.17-43.79,65.21-.91,2.74-.54,7.01-2,10-2.25-.13-5.39,2.28-7.99,1.99-.56-.6,3.55-15.29,3.99-15.99,2.18-3.54,16.82-15.84,21.26-22.71,3.86-5.98,7.34-16.95,10.74-23.29Z"/>
      <path class="cls-1" d="M155.71,4.28c5.06-.59,10.82.4,15.99.02-1.52,3.6-11.07,2.02-14.81,2.17-3.22.12-6.9,4.15-3.18-2.19.65-.1,1.34.08,2,0Z"/>
      <path class="cls-4" d="M21.71,176.28c-.52.24-1.38-.17-2,0h-2c.43-1.69-.49-4.54,0-6,.15-.43,5.58-6.95,5.98-5.99l-1.98,11.99Z"/>
      <path class="cls-1" d="M19.71,180.28c.19,3.4.73,4.67-2.98,4.01-3.29-.59.93-3.77.98-4.01h2Z"/>
      <path class="cls-3" d="M221.71,6.28l-1.02,1.99-2.98-1.99c1.3-.04,2.71-.12,4,0Z"/>
      <path class="cls-1" d="M17.71,178.28c.1-.68-.15-1.41,0-2h2l-2,2Z"/>
      <path class="cls-6" d="M185.71,86.28c-.31.17.84,5.53-4,4-1.33-9.21-14.08-44.54-26.04-41.19-1.75.49-12.26,7.57-13.96,9.19-1.19-4.22-5.02,2.37-5.64,3.36-1.94,3.09-6.11,12.4-8.39,13.78-3.1,1.88-6.36-5.55-7.97,6.86l-20.09-37.94c-8.44-1.9-7.19,6.12-11.91,9.94l-.99-3.99c-4.4,3.23-6.02,8.48-8.97,12.6-1.28,1.79-3.93,1.21-4.04,1.4-12.61,2.54-22.3-28.57-18.98-35.94,6.18-13.76,28.25-1.33,36.98,3.94,1.03.62,3.38.21,5.1,1.82,1.91,1.79,7.51,18.32,10.89,14.17-.96-10.63-.63-24.57,12.02-27.19,2.69-.56,23.93,6.34,27.76,8.43,19.57,10.68,30.31,37.03,38.23,56.77ZM109.69,54.27v-3.98h-1.96v3.98h1.96Z"/>
      <path class="cls-5" d="M97.71,10.28c2.53,3.31,11.47,3.31,14,0,2.3.52,4.76-.51,7.88,1.03,4.11,2.02,5.69,8.77,7.49,9.12,8.29,1.61,36.34-7.51,47.22-6.25,3.78,5.44,8.69,9.89,11.41,16.11,4.5,10.27,3.6,18.37,3.99,29.03.1,2.69-1.64,8.31,2.99,6.98,2.72-.78,1.11-32.56-4.98-36.01l1.03-4.09c15.86,7.81,25.41,17.36,17.54,35.6-1.08,2.51-9.21,9.81-10.6,11.98-2.06,3.21-3.54,11.3-4.46,12.14-1.44,1.3-4.78-.04-5.51.37-7.92-19.74-18.67-46.09-38.23-56.77-3.83-2.09-25.07-8.99-27.76-8.43-12.65,2.62-12.98,16.55-12.02,27.19-3.38,4.15-8.98-12.38-10.89-14.17-1.72-1.61-4.07-1.2-5.1-1.82-4.85-8.27-14.54-12.95-24-12.01-6.17-4.54,14.52-5.62,16-5.99,3.44,3.82,9.68,3.35,8-2,1.72-.36,3.74-1.53,6-2Z"/>
      <path class="cls-5" d="M143.71,86.28c.94-.98,5.18-2.86,5.99-1.99l-3.99,17.99c-4.5,1.91-2.47.11-4,0,.48-3.72-.68-8.56,0-12,.04-.22,1.84-3.84,2-4Z"/>
      <path class="cls-5" d="M181.71,90.28c.8,5.56.44,4.77,0,10-5.57,4.6-13.07,14.99-14.02,22-18.46-3.1-2.15-8.75,1.56-15.47,10.88-19.74-1.27-33.21-9.03-11.01l1.48,3.45,8-10.96c-1.31,7.68-1.7,21.54-11.98,19.98l-1.99-5.99c2.72,12.26-8.77,10.55-8.01.01,4.27-4.31,10.1-25.22-.96-21.96-2.88.85-2.33,4.82-3.04,5.96-.96,1.53-1.33,2.36-2,4-.16.38-2.84.62-3.18,2.85s1.87,6.29,1.18,9.15c-1.62-.42-4.12.32-6,0-2.27-6.45,13.47-38.17,11.99-39.98-3.06-3.74-4.29,2.65-4.91,3.98-2.44,5.24-9.8,32.79-11.26,33.81-2.11,1.48-9.71-.34-9.77-2.79-.03-1.13,5.7-8.75,6.73-11.24,4.17-10.08,6.75-19.69,15.22-27.78,1.7-1.62,12.21-8.7,13.96-9.19,11.96-3.35,24.72,31.98,26.04,41.19Z"/>
      <path class="cls-5" d="M31.71,130.28c.34-.44,6.57-1.16,10.05-4.96,7.71-8.4,9.76-29.16,25.96-23.03-3.5,4.53.57,15.38,0,15.97s-12.31,2.78-15.32,3.81-5.74-1.79-4.69,4.2l15.98-1.99c.88,3.73-2.71,10.5,3.07,10.09,8.33-.59,15.45-10.56,24.93-8.08-.98,9.06-18.91,29.21-27.06,29.94-4.46.4-34.92-7.5-36.79-10.12-.47-.66,3.36-15.19,3.86-15.84Z"/>
      <path class="cls-5" d="M153.71,146.28c-.18.28-4.02.53-6.09,2.82-12.82,14.17-11.78,21.18-34.89,19.15-6.67-.59-30.82-7.15-30.98-14.92-.33-15.22,31.2-17.99,41.97-19.03l-3.99,9.97c7.91,2.91,28.09-12.45,33.73-5.74.53.63.55,7.29.26,7.75Z"/>
      <path class="cls-5" d="M107.71,78.28c3.73,8.32-12.77,24.85-10,10,.04-.22,1.57-3.2,2-4,.13-.25,3.24-3.27,4-4,2.12-1.11,1.86-1.96,2-2,.6-.19,1.37.14,2,0Z"/>
      <path class="cls-5" d="M87.71,54.28c4.71-3.82,3.47-11.84,11.91-9.94l20.09,37.94c-.13,1,2.98,2.99,1.02,6.03-1.36,2.11-4.17-.1-4.69.38-2.72,2.54.34,9.98-8.32,7.57l4.14-16.74c-.49-2.35-2.83-.95-4.14-1.25-.23-.05-.47-1.55-.98-1.44-.55.11-.63,1.18-1.02,1.44-.72.48-1.34,1.37-2,2-.59.31-2.59-.55-3.58.43s-.13,3.13-.42,3.57c-1.02,1.54-1.44,3.16-2,4-.96,1.44-6.11,8.22-7.99,5.99-2.15-8.49,8.65-25.26-4.73-22.02-2.29.55,0,4.89-3.26,4.01-.81-4.03,7.47-13.45,2.01-15.97-.18,6.3-4.72,10.41-6.98,16.02-3.27,8.12.29,16.51-11.03,13.95-1.49-1.45,6.25-23.2,7.99-25.99.11-.18,2.76.39,4.04-1.4,2.95-4.12,4.57-9.37,8.97-12.6l.99,3.99c-.45-.45-2.05.31-2,1,.15,2.18,2.94-.06,2-1Z"/>
      <path class="cls-5" d="M125.72,114.29c2.24,2.23-5.95,10.04.97,10,2.56-.01-.02-11.95,7.01-10l-4.31,13.8c-8.95-1.19-17.8,5.63-27.67,4.18l7.95-17.04-3.94,1.07c.14-10.86,12.84-.36,19.99-2Z"/>
      <path class="cls-2" d="M213.71,62.28c-1.07,2.74-2.87,7.42-4,10-5.09.41-9.14,10.73-10,16-.14.16-2.16-.66-4.12,1.3-3.09,3.1-10.35,19.35-11.92,20.68-6,5.11-2.16-7.67-1.96-9.99.33-.27,2.44.57,3.53-.4l30.47-49.6c1.27-.08,2.75-3.03,3.96-1.02-4.49,3.63-4.39,9-5.96,13.02Z"/>
      <path class="cls-5" d="M209.71,72.28c1.31-.11,2.68.02,4,.02-.92,13.65-.68,22.25-13.98,29.98-1.74-5.66-.88-8.78-.02-14,5.15-5.99,6.74-8.56,10-16Z"/>
      <path class="cls-5" d="M179.71,138.28c1.37,13.22-14.8,19-11.88,3.13,1.61-8.78,10.75-14.11,11.88-3.13Z"/>
      <path class="cls-5" d="M103.7,108.29c1.51,1.41-5.37,16.14-12.11,10.59-1.69-1.39-2.07-6.05-7.89-4.62.37-10.45,13.01-2.61,20-5.97Z"/>
      <path class="cls-6" d="M147.71,102.28c-.31.31-1.38-.26-2,0l3.99-17.99c-.81-.87-5.04,1.01-5.99,1.99.71-1.14.16-5.11,3.04-5.96,11.06-3.27,5.23,17.65.96,21.96Z"/>
      <path class="cls-6" d="M141.71,90.28c.67-1.64,1.04-2.47,2-4-.16.16-1.96,3.78-2,4Z"/>
      <path class="cls-6" d="M141.71,102.28c-.69-.05-1.45.14-2,0,.69-2.86-1.53-6.92-1.18-9.15s3.03-2.47,3.18-2.85c-.68,3.44.48,8.28,0,12Z"/>
      <path class="cls-4" d="M179.71,10.28c.24,1.22-.36,3.1,0,4l-24.02-3c6.84-5.13,15.74-1.6,24.02-1Z"/>
      <path class="cls-7" d="M111.71,10.28c-2.53,3.31-11.47,3.31-14,0,1.44-.3,2.77-2.31,7.01-2.27s5.29,1.89,6.99,2.27Z"/>
      <path class="cls-1" d="M197.7,4.3c.47,3.49-4.54,1.88-6.97,1.98-5.65.23-11.38-.14-17.01-.02-.47-3.49,4.54-1.88,6.97-1.98,5.65-.23,11.38.14,17.01.02Z"/>
      <path class="cls-4" d="M215.7,192.27l-1.97,10c2.54-9.83-6.99-2.47-6.01-9.98l7.98-.02Z"/>
      <path class="cls-5" d="M87.7,78.29c-.47,3.49.18,12.57-3.97,13.98,1.2-3.72-3.59-15.51,3.97-13.98Z"/>
      <path class="cls-7" d="M91.71,12.28c1.68,5.35-4.56,5.82-8,2,2.82-.72,4.96-1.36,8-2Z"/>
      <path class="cls-4" d="M51.7,98.29v5.98c-2.49,2.68-12.36-8.1,0-5.98Z"/>
      <rect class="cls-4" x="205.72" y="206.29" width="3.98" height="5.98"/>
      <polygon class="cls-5" points="79.7 122.3 79.69 124.25 71.72 126.27 71.72 122.29 79.7 122.3"/>
      <path class="cls-2" d="M149.7,124.29c2.18,2.18-1.8,6.16-3.98,3.98s1.8-6.16,3.98-3.98Z"/>
      <polygon class="cls-5" points="81.71 114.26 77.72 114.27 77.73 108.29 79.68 108.29 81.71 114.26"/>
      <rect class="cls-2" x="211.73" y="204.29" width="1.96" height="5.98"/>
      <rect class="cls-5" x="139.73" y="120.29" width="1.96" height="3.98"/>
      <path class="cls-5" d="M68.73,126.32c2.02,1.79-3.02,5.08-2.98,2.98l2.98-2.98Z"/>
      <path class="cls-4" d="M183.71,150.28c6.43,7.22-13.09,8.35-4.01.99,1.29-1.04,3.57-1.49,4.01-.99Z"/>
      <path class="cls-2" d="M113.69,232.28c-6.83-2.46-2.14-8.94-1.96-13.99,4.37.76.98,10.5,1.96,13.99Z"/>
      <path class="cls-2" d="M135.7,226.29c2.18,2.18-1.8,6.16-3.98,3.98s1.8-6.16,3.98-3.98Z"/>
      <rect class="cls-4" x="127.72" y="234.3" width="5.98" height="1.96"/>
      <rect class="cls-1" x="123.73" y="226.29" width="1.96" height="3.98"/>
      <path class="cls-1" d="M128.71,224.28c1.3.67,1.3,1.33,0,2v-2Z"/>
      <path class="cls-2" d="M33.71,204.28l-1.99-7.99h5.98c1.79,10.24-2.36,6.79-3.99,7.99Z"/>
      <path class="cls-4" d="M33.71,204.28c-5.57,4.07-6.98,7.27-7.98-4,3.24,1.01,4.13,5.07,7.98,4Z"/>
      <path class="cls-2" d="M33.7,188.29v6s-7.97-.01-7.97-.01c-1.5-4.72,3.62-5.5,7.97-5.99Z"/>
      <polygon class="cls-2" points="13.7 196.27 9.71 196.26 11.73 190.29 13.69 190.29 13.7 196.27"/>
      <path class="cls-3" d="M223.71,36.28c-.34-3.49.33-6.96,4-8-1.65,5.35.42,3.23-4,8Z"/>
      <path class="cls-3" d="M229.71,18.28c3.73,1.74,3.48,10.06-2,8,.41-2.22,2.69-4.99,2-8Z"/>
      <path class="cls-3" d="M226.71,8.28c1.3.67,1.3,1.33,0,2v-2Z"/>
      <path class="cls-4" d="M25.69,162.27h-1.96c-.66-2.93.84-4.18,3-5.95l-1.04,5.95Z"/>
      <path class="cls-4" d="M28.71,152.28c1.3.67,1.3,1.33,0,2v-2Z"/>
      <rect class="cls-5" x="107.73" y="50.29" width="1.96" height="3.98"/>
      <path class="cls-6" d="M187.71,30.28c6.09,3.45,7.7,35.23,4.98,36.01-4.63,1.33-2.89-4.29-2.99-6.98-.4-10.66.51-18.76-3.99-29.03h2Z"/>
      <path class="cls-3" d="M87.71,54.28c.94.94-1.85,3.18-2,1-.05-.69,1.55-1.45,2-1Z"/>
    </g>
  </g>
</svg>