<?xml version="1.0" encoding="UTF-8"?>
<svg id="Calque_2" data-name="Calque 2" xmlns="http://www.w3.org/2000/svg" viewBox="0 0 295.94 114.03">
  <defs>
    <style>
      .cls-1 {
        fill: #efd078;
      }

      .cls-2 {
        fill: #edc041;
      }
    </style>
  </defs>
  <g id="Calque_1-2" data-name="Calque 1">
    <g>
      <path class="cls-2" d="M166.27,7.94c5.34,2.14,4.41,2.81,8,6,1.16,5.66,5.31,10.72,4.09,16.98-.44,2.28-5.26.37-6.09,1.03-3.61,2.87,3.95,3.69,4.21,6.87.62,7.56-2.41,15.83-4.21,23.12-.42,1.71.46,4.42,0,6l-2,2c-.16.5-1.39,2.53-2,4-14,3.64-8.39,15.98,3.12,17.88,13.82,2.29,25.12-1.06,37.41-6.46,3.01-1.32,6.54-.3,5.47-5.43,1.37-.48,2.66-1.4,4-2,1.05-.47,4.12,1.2,4.1-1.14.57-9.79-5.2-16.13-6.18-23.77-.48-3.72,2.56-8.21-3.92-7.08.07-1.94-.3-4.26,0-6,6.91-1.6,9.72-11.38,16.14-14.85,2.44-1.32,8.99-2.93,11.86-3.15,1.2-.09,2.88-.18,4,0,4.67,8.68,5.19,19.03,3.83,28.82-1.59,11.44-18.81,26.86-.67,31.1,4.27,1,2.41-3.58,2.84-3.93.23-.19,4.86-.18,6,0,1.97.32,2.77,3.16,8.44,1.61,1.02-.28,10.71-5.89,11.57-6.69,2.03-1.87,1.49-4.22,1.99-4.92.53-.74,1.47-1.27,2-2l11.96-1c-6.57,5.68-7.14,14.25-15.24,18.73-11.48,6.34-23.31,1.96-34.73,6.27-.82-.52-2.02.31-4-2-.42-.49,1.22-3.54-1.16-4.12-11.81-2.85-19.35,8.67-28.77,13.19-11.05,5.3-22.39,6.51-34.6,4.45-10.74-1.81-23.73-18-27.48-1.53-1.13.34-3.62-.41-4,0h-4s0,4,0,4c-1.26.21-2.87-.28-4,0-9.24,2.28-19.06,4.67-28,8-1.31-.12-2.87.25-4,0,1.52-5.53-5.45-4.51-10-6-2.03-.67-3.98-1.29-6-2v-4s-4,0-4,0c-.11-.18-1.31.09-2,0,2.18-5.95-9.83-6.46-8,0-3.64.32-7.62,1.59-12,2-11.7,1.1-21.89,4-34,0-8.6-4.81-4.65-2.68-10-8l-3.99-9.99c10.18,3.61,17.8,12.56,29.2,13.87,4.04.46,15.78,1.15,14.79-5.88,1.24-.24,2.97.32,4,0,16.45-5.2,2.29-15.74,1.96-27-.16-5.57,4.83-2.26,8.04-3,.36,1.57,5.37,15.46,6.08,15.94,1.48,1.02,6.24-.65,7.92-1.94,12.01-1.2,2.01,4.86,1.86,10.93-.25,10.69,12.4,14.03,21.18,15.07,3.19.38,10.43,2.08,8.96-4,1.98-.03,4.04.18,6,0,1.69-.16,3.45-.04,4-2,.55-.29,1.7.33,2,0,3.99.17,6.14-1.94,6-6,.6-.21,1.44.23,2,0,16.16-6.53,3.78-12.7,2.12-23.12-1.92-12.01,1.62-32.16,6.29-43.47,3.56-8.65,12.79-13.79,21.59-15.41ZM159.69,20.17c-12.3,3.1-17.26,47.68-8.38,49.76,10.76,2.52,27.48-54.57,8.38-49.76ZM226.27,47.94c-7.96-1.65-2.84,14.5-1.61,16.61,4.88,8.38,5.7.9,7.61-2.61,2.8-5.13,9.4-21.72,7.84-26.72-1.08-3.47-7.64-4.5-9.65-3.08-1.14.81-3.99,13-4.19,15.79Z"/>
      <path class="cls-1" d="M116.27,97.94c1.47,6.08-5.77,4.38-8.96,4-8.78-1.04-21.42-4.37-21.18-15.07.14-6.07,10.15-12.13-1.86-10.93,2.09-1.6,8.21-13.22,10.37-16.73,1.6-2.61.68-6.4,5.63-5.27-.36,3.28-2.59,6.45-1.99,9.99,10.64,1.86,16.21-29.68,13.98-31.99l-9.99,4c-.8-12.04,2.41-18.71-12-24,9.82-3.16,4.48,1.17,6.98,2.04,10.45,3.63,2.67-9.56-10.19-9.97-3.56-.11-11.48,3.99-14.8,5.93,4.75-13.77,23.86-11.35,33.05-4.05,17.21,13.66,12.7,41.79,2.59,58.69-3.81,6.37-18.28,19.08-17.79,24.31.86,9.22,19.43,9.15,26.15,9.05Z"/>
      <path class="cls-1" d="M70.27,11.94c-2.42,6.91-5.66,8.98-6.09,16.97-.35,6.51-1.22,7.93,6.09,7.03-1.33,7.47-1.7,18.66,0,26-3.2.74-8.2-2.57-8.04,3,.32,11.26,14.48,21.8-1.96,27,7.42-10.52-.42-16.16-1.78-27.22-1.44-11.75-1.37-40.19,6.02-49.6,2.61-3.33,4.42-2.28,5.75-3.17Z"/>
      <path class="cls-2" d="M72.27,9.94c3.31-1.94,11.23-6.04,14.8-5.93,12.86.41,20.64,13.6,10.19,9.97-2.5-.87,2.84-5.21-6.98-2.04-13.14,4.23-10.69,5.87-16.02,16.59-1.27,2.54-2.45-1.18-3.98,7.41-7.31.9-6.44-.52-6.09-7.03.43-7.99,3.67-10.07,6.09-16.97.72-.48,1.27-1.57,2-2Z"/>
      <path class="cls-1" d="M242.27,89.94c11.41-4.31,23.24.07,34.73-6.27,8.1-4.47,8.66-13.04,15.24-18.73l-11.96,1c2.45-3.33,7.66-15.91,13.8-6.79,11.29,16.77-31.71,43.44-51.8,30.79Z"/>
      <path class="cls-1" d="M16.27,93.94c-.48-.48-3.55-.06-5.75-3.17-4.04-5.7-15.35-30.2-8.22-34.82,8.26-5.36,9.48,15.1,11.53,19.43,7.87,16.58,25.74,19.82,42.44,16.56.99,7.03-10.75,6.34-14.79,5.88-11.4-1.31-19.02-10.25-29.2-13.87l3.99,9.99Z"/>
      <path class="cls-1" d="M166.27,7.94c-8.81,1.61-18.03,6.76-21.59,15.41-4.66,11.31-8.2,31.46-6.29,43.47,1.66,10.42,14.04,16.59-2.12,23.12,7.29-11.07-3.99-21.76-3.97-35,.01-13.97,11.08-47.23,27.26-49.03,4.34-.48,4.42,1.11,6.71,2.03Z"/>
      <path class="cls-1" d="M146.27,99.94c3.75-16.47,16.74-.29,27.48,1.53,12.21,2.06,23.55.85,34.6-4.45,9.42-4.52,16.95-16.04,28.77-13.19,2.38.57.74,3.63,1.16,4.12-14.26-3.47-19.76,8.97-29.53,13.47-9.26,4.26-25.34,5.94-35.34,4.4-10.88-1.67-13.93-9.9-27.13-5.87Z"/>
      <path class="cls-1" d="M250.27,77.94c-.43.34,1.43,4.92-2.84,3.93-18.14-4.24-.93-19.66.67-31.1,1.36-9.8.85-20.14-3.83-28.82,11.44,1.86,9.51,22.21,7.49,30.51-1.7,7-14.66,23.58-1.49,25.49Z"/>
      <path class="cls-1" d="M168.27,73.94c-2.57,6.13-7.25,11.97,3.06,13.95,14.42,2.76,29.52-3.24,42.94-7.95,1.07,5.13-2.46,4.11-5.47,5.43-12.3,5.4-23.59,8.75-37.41,6.46-11.5-1.91-17.11-14.24-3.12-17.88Z"/>
      <path class="cls-1" d="M174.27,13.94c.27.24,2.4-.79,4.12,1.28,5.91,7.12,1.74,32.06-.76,41.18-.92,3.38-.46,6.52-5.36,5.54,1.79-7.29,4.83-15.56,4.21-23.12-.26-3.18-7.81-4.01-4.21-6.87.83-.66,5.65,1.25,6.09-1.03,1.22-6.26-2.93-11.32-4.09-16.98Z"/>
      <path class="cls-1" d="M212.27,39.94c1.58-9.18,12.6-19.34,21.47-21.56,3.75-.94,7.6-2.22,6.53,3.56-2.86.22-9.41,1.83-11.86,3.15-6.43,3.47-9.23,13.25-16.14,14.85Z"/>
      <path class="cls-1" d="M212.27,45.94c6.48-1.12,3.44,3.36,3.92,7.08.98,7.64,6.76,13.98,6.18,23.77.02,2.34-3.05.68-4.1,1.14-2.29-12.95-6.48-17.9-6-32Z"/>
      <path class="cls-1" d="M60.27,101.94c1.33,6.22-11.65,6.14-14.97,6.15-11.89.01-10.75-1.51-19.03-6.15,12.11,4,22.3,1.1,34,0Z"/>
      <path class="cls-1" d="M134.27,103.94c.21,7.08-18.53,10.03-23.18,10.09-2.87.04-4.42-2.06-4.82-2.09,8.94-3.33,18.76-5.72,28-8Z"/>
      <path class="cls-1" d="M278.27,67.94c-.5.7.04,3.05-1.99,4.92-.86.79-10.55,6.41-11.57,6.69-5.67,1.54-6.47-1.3-8.44-1.61l22-10Z"/>
      <path class="cls-1" d="M92.27,105.94c4.55,1.49,11.52.47,10,6-4.17-.93-11.23.14-10-6Z"/>
      <path class="cls-1" d="M72.27,99.94c-1.83-6.46,10.18-5.95,8,0-2.22-.29-5.7-.2-8,0Z"/>
      <path class="cls-1" d="M134.27,89.94c.14,4.06-2.01,6.17-6,6,1.65-1.79-2.07-3.13,6-6Z"/>
      <path class="cls-1" d="M142.27,99.94c-1.42,1.54,3.46,2.76-4,4v-4s4,0,4,0Z"/>
      <path class="cls-1" d="M82.27,99.94h4s0,4,0,4c-.85-.3-2.96.61-3.78-.2-.89-.88.13-3.21-.22-3.8Z"/>
      <path class="cls-1" d="M126.27,95.94c-.55,1.96-2.31,1.84-4,2,.55-2.31,2.99-1.47,4-2Z"/>
      <path class="cls-1" d="M170.27,69.94l2-2c-.47,1.61-1.96,1.87-2,2Z"/>
      <path class="cls-1" d="M226.27,47.94c-.4,5.66-1.67,14.21,6,14-1.92,3.52-2.73,11-7.61,2.61-1.23-2.11-6.34-18.26,1.61-16.61Z"/>
      <path class="cls-2" d="M102.27,35.94l9.99-4c2.23,2.31-3.34,33.85-13.98,31.99-.6-3.54,1.63-6.71,1.99-9.99.15-1.31-.13-2.69,0-4,7.37-2.5,2.03-6.93,2-8-.05-1.99.13-4.02,0-6Z"/>
      <path class="cls-1" d="M100.27,49.94c.26-2.57-1.15-6.58,2-8,.03,1.07,5.37,5.5-2,8Z"/>
    </g>
  </g>
</svg>