<?xml version="1.0" encoding="UTF-8"?>
<svg id="Calque_2" data-name="Calque 2" xmlns="http://www.w3.org/2000/svg" viewBox="0 0 126.46 122.55">
  <defs>
    <style>
      .cls-1 {
        fill: #2a6395;
      }
    </style>
  </defs>
  <g id="Calque_1-2" data-name="Calque 1">
    <g>
      <path class="cls-1" d="M88.98,11.35c12.24-13.7,51.31,18.58,32.41,35.4-19.24,17.12-50.02-15.68-32.41-35.4Z"/>
      <path class="cls-1" d="M99.84,81.09c7.39-.67,15.56,7.72,16.46,14.8,3.01,23.55-34.53,36.39-37.97,17.74-2.7-14.62,5.95-31.14,21.51-32.55Z"/>
      <path class="cls-1" d="M29.82,1.21c30.3-7.83,26.43,24.72,7.09,29.09C11.04,36.14,12.33,5.73,29.82,1.21Z"/>
      <path class="cls-1" d="M67.62,45.53c13.13,6.51,7.33,30.58-10.67,30.6-22.68.03-14.11-42.89,10.67-30.6Z"/>
      <path class="cls-1" d="M19.86,80.22c-12.27,12.46-29.27-19.16-13.49-26.61,12.77-6.02,24.23,15.7,13.49,26.61Z"/>
      <path class="cls-1" d="M49.87,114.23c-4.66,4.63-18.63,3.52-19.7-6.46-1.93-18.07,22.25-16.03,22.27-4.17,0,1.84-1.66,9.72-2.58,10.63Z"/>
    </g>
  </g>
</svg>