<?xml version="1.0" encoding="UTF-8"?>
<svg id="Calque_2" data-name="Calque 2" xmlns="http://www.w3.org/2000/svg" viewBox="0 0 396.24 134.99">
  <defs>
    <style>
      .cls-1 {
        fill: #4e7298;
      }

      .cls-2 {
        fill: #2a6395;
      }

      .cls-3 {
        fill: #53add9;
      }
    </style>
  </defs>
  <g id="Calque_1-2" data-name="Calque 1">
    <g>
      <path class="cls-2" d="M150.43,12.72c7.37,10.11,13.97,19.37,20.34,30.66,2.44,4.32,21.78,46,25.62,43.34,12.96-22.22,21.28-49.23,33.63-71.39.83-1.49,9.69-14.08,10.44-14.56,2.29-1.48,2.83.22,3.97,1.17,8.47,7.06,12.39,25.54,17.68,36.1,6.8,13.56,15.99,26.33,21.35,40.73,14.27-4.27,15.12-20.46,20.55-31.46,1.48-2.99,4.36-5.02,5.9-8.1,6.49-12.99,14.29-49.44,33.48-36.44l49.05,104.94c11.49,16.47-5.78,29.44-16.89,14.89-6.98-9.14-20.57-38.75-26.89-51.11-2.89-5.66-9.37-28.78-15.23-28.78-5.81,11.09-39.54,85.56-46.31,87.81s-10.2-5.24-13.07-10.43c-9.96-18-17.31-43.09-26.18-61.82-.82-1.74-5.85-10.61-7.43-9.54l-33.16,75.85c-5.78,4.71-6.05,13.74-14.87,9.14l-44.02-87-45.15,87.92-5.61-4.15L56.4,50.72c-3.27-2.45-10.83,13.65-12.34,16.63-5.16,10.19-21.79,55.1-26.61,59.38-4.45,3.95-14.7,2.99-16.64-3.43-2.95-9.78,2.84-10.48,5.1-16.1,9.47-23.6,19.43-52.51,31.08-74.92,1.35-2.6,10.78-18.76,11.71-19.4.88-.6,7.76,1.48,9.1,2.47,15.52,24.85,30.81,50.35,42.65,77.35,2.82,1.9,13.31-27.81,14.56-30.41,6.04-12.56,12.83-25.31,19.42-37.58l8.01-2.02c.71-2.3-1.89-4.76-2.01-5.98-.05-.58-.12-1.45,0-2l10-2ZM248.42,34.71c-8.04-2.01-2.11,12.8,1.99,14.01l-1.99-14.01Z"/>
      <path class="cls-1" d="M140.43,14.72c.63-2.77,4.04-5.68,6.97-6.06,5.26-.68,2.14,2.83,3.03,4.06l-10,2Z"/>
      <path class="cls-1" d="M140.43,16.72c.12,1.22,2.72,3.68,2.01,5.98l-8.01,2.02c1.62-3.02,2.3-6.57,6-8Z"/>
      <path class="cls-3" d="M248.42,34.71l1.99,14.01c-4.11-1.21-10.03-16.02-1.99-14.01Z"/>
    </g>
  </g>
</svg>