<?xml version="1.0" encoding="UTF-8"?>
<svg id="Calque_2" data-name="Calque 2" xmlns="http://www.w3.org/2000/svg" viewBox="0 0 148.35 158.82">
  <defs>
    <style>
      .cls-1 {
        fill: #efd078;
      }

      .cls-2 {
        fill: #edc041;
      }
    </style>
  </defs>
  <g id="Calque_1-2" data-name="Calque 1">
    <g>
      <path class="cls-1" d="M78.72.96c5.79,3.36,18.74,42.06,22.67,50.29,11.78,24.67,27.75,50.26,39.13,74.87,17.28,37.35,5.1,32.6-28.4,32.4-12.44-.08-27.38-1.78-39.94-2.06-13.31-.3-58.41,2.66-67.03-.96-13.24-5.55,2.73-25.71,6.3-33.6,13.94-30.73,26.94-63.93,42.22-93.78,4.09-7.99,14.37-33.34,25.04-27.15ZM90.54,44.05c2.63-4.49-8.39-27.95-11.69-32.25-2.23-2.91-3.81-4.86-7.85-2.37-5.62,13.06-14.15,25.01-20.28,37.72-11.49,23.85-21.07,56.41-33.2,78.8-4.47,8.26-13.67,11.74-10.43,24.59,31.67.12,63.4-.15,95.09-.09,6.28.01,27.33,4.08,31.97-1.86,1.73-2.21,3.34-13.23,2.55-16.52-1.61-6.65-11.51-15.11-14.73-21.41-4.93-9.66-7.79-24.28-13.34-34.66-2.59-4.84-7.66-10.37-10.56-15.45l-.98,7.97c-8.95.97-11.04-17.1-10.07-22.67.25-1.42,3.19-1.27,3.5-1.81Z"/>
      <path class="cls-2" d="M90.54,44.05c-.32.54-3.26.39-3.5,1.81-.97,5.56,1.12,23.64,10.07,22.67l.98-7.97c2.89,5.08,7.97,10.61,10.56,15.45,5.56,10.38,8.41,24.99,13.34,34.66,3.22,6.3,13.12,14.76,14.73,21.41.79,3.29-.82,14.31-2.55,16.52-4.64,5.94-25.69,1.87-31.97,1.86-31.69-.06-63.42.21-95.09.09-3.25-12.85,5.95-16.33,10.43-24.59,12.13-22.39,21.7-54.95,33.2-78.8,6.13-12.71,14.66-24.66,20.28-37.72,4.04-2.49,5.62-.54,7.85,2.37,3.3,4.3,14.32,27.76,11.69,32.25ZM103.1,128.52c3.74-5.08-12.04-12.44-13.98-2.95-1.42,6.95,12.65,4.77,13.98,2.95ZM63.1,142.55c-2.18-2.18-6.16,1.8-3.98,3.98s6.16-1.8,3.98-3.98Z"/>
      <path class="cls-1" d="M103.1,128.52c-1.34,1.82-15.4,4-13.98-2.95,1.94-9.49,17.72-2.13,13.98,2.95Z"/>
      <path class="cls-1" d="M63.1,142.55c2.18,2.18-1.8,6.16-3.98,3.98s1.8-6.16,3.98-3.98Z"/>
    </g>
  </g>
</svg>