<?xml version="1.0" encoding="UTF-8"?>
<svg id="Calque_2" data-name="Calque 2" xmlns="http://www.w3.org/2000/svg" viewBox="0 0 202.25 173.97">
  <defs>
    <style>
      .cls-1 {
        fill: #d35337;
      }

      .cls-2 {
        fill: #efd078;
      }

      .cls-3 {
        fill: #e68a40;
      }
    </style>
  </defs>
  <g id="Calque_1-2" data-name="Calque 1">
    <g>
      <path class="cls-1" d="M83.82.5c31.94-3.65,71.05,12.95,92.39,36.49,6.23,6.88,28.31,37.28,25.85,45.63-2.04,6.93-101.15,50.7-115.84,58.27-10.86,5.6-55.94,35.6-64.71,32.9C-.16,138.09-7.34,96.96,8.74,57.42,20.43,28.67,52.83,4.04,83.82.5ZM74.25,27.95l-7.94,3.12c.1,3.79-14.18,17.09-12.04,18.86,6.02,4.98,9.26-9.6,11.01-11.97,2.85-3.87,9.44-4.25,8.97-10.01ZM122.27,31.96c2.63,5.78,9.98,8.46,15.96,9-4.33-4.06-9.48-9.4-15.96-9ZM128.25,53.93c1.39-6.66-4.47-9.57-9.98-9.97-.13,2.81,2.43,1.66,4.71,4.46,1.68,2.07-.72,7.07,5.27,5.51Z"/>
      <path class="cls-3" d="M74.25,27.95c.47,5.76-6.12,6.14-8.97,10.01-1.74,2.37-4.99,16.95-11.01,11.97-2.15-1.78,12.14-15.08,12.04-18.86l7.94-3.12Z"/>
      <path class="cls-2" d="M122.27,31.96c6.47-.4,11.63,4.94,15.96,9-5.98-.53-13.33-3.22-15.96-9Z"/>
      <path class="cls-3" d="M128.25,53.93c-5.99,1.56-3.59-3.44-5.27-5.51-2.27-2.8-4.83-1.65-4.71-4.46,5.51.4,11.37,3.31,9.98,9.97Z"/>
    </g>
  </g>
</svg>