<?xml version="1.0" encoding="UTF-8"?>
<svg id="Calque_2" data-name="Calque 2" xmlns="http://www.w3.org/2000/svg" viewBox="0 0 188.47 194.43">
  <defs>
    <style>
      .cls-1 {
        fill: #a2c9df;
      }

      .cls-2 {
        fill: #53add9;
      }

      .cls-3 {
        fill: #6ab1d1;
      }
    </style>
  </defs>
  <g id="Calque_1-2" data-name="Calque 1">
    <g>
      <path class="cls-2" d="M98.72,10.13c.41,1.09-1.02,2.91,1.15,4.2,7.75,4.59,28.44,3.36,35.86,13.79,2.9-1.31-2.02-7.09-3.01-7.99,9.79-1.86,11.09,5.55,16.11,10.89,1.03,1.09,3.44.7,3.89,1.11.72.65,1.46.94,2,2,1.56,3.05.94,9.06,2.54,11.47,1.04,1.56,5.26,1.92,6.56,4.52,1.92,3.82,4.93,16.07,8.9,24.01v10.02s4-.02,4-.02c.14.6-.1,1.33,0,2h-2l-1.99,1.02,1.99,2.98c-.08,1.32.06,2.67,0,4-2.33-.33-9.47.54-10.01.01-1.62-1.59,3.69-14.24-3.98-12.02.2,8.24-2.31,16.1-4.01,24.01-2.64,12.32-3.26,23.17-13.89,33.1-2.12,1.98-19.43,11.03-14.1,16.89,2.27,2.5,11.65-11.53,16.07-10.86,10.42-9.03,15.41-21.4,15.92-35.13,1.25.69,6.9-.93,7.91.08.76.76-.88,7.96,3.1,9.91l6.98-5.98c-6.08,22.15-25.78,47.37-45.04,59.94-11.13,7.26-34.86,18.07-47.59,11.66-3.69-1.86-3.14-5.41-3.4-5.61-.62-.48-10.01,10.72-9.96-4,4.31.66,8.73.84,13,2l14.99-3.98c-16.67-1.36-33.01-2.87-48.97-8.04-2.56.77,4.63,5.85,4.98,6.02l1.99,9.99c-6.31-.92-23.76-5.07-25.62-11.36-1.14-3.87.48-8.26-1.4-12.59-2.53-5.83-16.62-11.94-18.84-15.14s-2.68-11.64-6.16-15.87l5.97-1.07c.72-7.95-4.74-12.7-4.17-21.06.33-4.74,5.82-.93,4.2-6.89l-7.97,1.99c-2.79-3.3,4.7-28.91,6.68-34.31s5.65-8.32,7.07-11.32c1.92-4.05,2.08-12.89,5.64-16.48,13.85-14,30.78-13.49,43.24-21.73,3.16-2.09,1.96-7.98,6.73-9.78,1.99-.75,17.43-2.8,19.55-2.45,5.52.89,3.87,2.91,5.07,6.08ZM84.71,34.15c-19.54-2.13-42.83,17.54-47.97,35.98l24.16-22.82,23.81-13.16ZM88.72,48.11c-.67-2.89-3.23-4.59-5.99-3.97v3.98s5.99,0,5.99,0ZM104.71,50.12c.39-7.25-7.17-6.23-11.98-5.98-1.38,6.49,8.12,5.72,11.98,5.98ZM104.72,66.11c-3.43-6.98-13.81-3.11-19.99-3.97-6.95,5.29,18.72,4.21,19.99,3.97ZM130.69,108.12c5.12-4.85,10.19-35.7-3.96-35.98-1.19,6.55,2.03,12.67,2.06,18.9,0,1.08-5.32,23.93,1.89,17.09ZM108.43,76.3c-.94-.67-6.74,1.35-7.7,2.82,5.55,3.95,6.83,8.33,6,15.03,9.7,4.68,5.23-15.33,1.7-17.85ZM82.71,78.14c-12.15,1.21-16.77,15.6-17.98,25.98l7.46-2.54,10.52-23.44ZM50.71,82.14c-14.38.79-12.15,21.63-11.97,31.98l11.97-31.98ZM108.71,104.14c-6.38-.82-7.4,7.47-10.86,10.12-2.06,1.58-7.63,1.56-7.12,2.86,4,10.09,20.9-4.96,17.98-12.98ZM125.74,110.17l-2.98,2.98c-.04,2.1,5-1.19,2.98-2.98ZM44.72,142.14l-7.95-1.03,4.97,9.01,2.99-7.99ZM58.71,156.16l-13.97-6.02c-1,5.28,1.08,3.49,3.99,4.89,1.28.62,10.13,5.29,9.98,1.12ZM48.71,164.15h-3.98v1.96h3.98v-1.96Z"/>
      <path class="cls-3" d="M152.72,32.13c-.46-.41-2.87-.02-3.89-1.11-5.02-5.34-6.32-12.75-16.11-10.89-.51-.46-10.88-7.22-11.51-7.48-7.25-3.01-15.27.29-22.49-2.52-1.2-3.17.45-5.19-5.07-6.08-2.13-.34-17.56,1.7-19.55,2.45-4.77,1.8-3.57,7.69-6.73,9.78-12.47,8.24-29.4,7.73-43.24,21.73-3.56,3.6-3.71,12.43-5.64,16.48-1.42,3-5.02,5.71-7.07,11.32s-9.47,31.02-6.68,34.31l7.97-1.99c1.61,5.96-3.88,2.15-4.2,6.89-.58,8.36,4.89,13.11,4.17,21.06l-5.97,1.07c3.47,4.23,3.87,12.56,6.16,15.87s16.31,9.32,18.84,15.14c1.88,4.34.26,8.72,1.4,12.59,1.85,6.29,19.3,10.45,25.62,11.36l-1.99-9.99c5.25,2.64,10.38,3.14,16,4-.05,14.72,9.34,3.52,9.96,4,.26.2-.28,3.76,3.4,5.61,12.74,6.41,36.46-4.39,47.59-11.66,19.26-12.57,38.96-37.79,45.04-59.94l-6.98,5.98c-3.99-1.96-2.34-9.15-3.1-9.91-1-1-6.65.61-7.91-.08-.31-.17.87-5.54-4-4,1.7-7.91,4.2-15.77,4.01-24.01,7.67-2.22,2.36,10.43,3.98,12.02.54.53,7.68-.34,10.01-.01.22.03,1.45,2.89,3.99,1.99,1.3-3.8-1.59-7.31-1.99-9.99-.1-.67.14-1.4,0-2-1.78-7.48-1.55-5.1-4-10-3.97-7.94-6.98-20.19-8.9-24.01-1.31-2.6-5.53-2.97-6.56-4.52-1.6-2.4-.98-8.41-2.54-11.47,13.59,1.5,26.7,22.2,30.66,34.52,17.1,53.2-39.98,122.25-93.58,125.55C-39.94,202.31-22.72-2.72,97.78.03c21.46.49,47.08,10.42,54.94,32.11Z"/>
      <path class="cls-1" d="M156.72,106.13c4.87-1.54,3.69,3.83,4,4-.51,13.73-5.5,26.1-15.92,35.13-4.42-.68-13.8,13.36-16.07,10.86-5.33-5.86,11.98-14.9,14.1-16.89,10.63-9.93,11.25-20.78,13.89-33.1Z"/>
      <path class="cls-1" d="M84.71,34.15l-23.81,13.16-24.16,22.82c5.14-18.43,28.43-38.11,47.97-35.98Z"/>
      <path class="cls-1" d="M130.69,108.12c-7.22,6.84-1.89-16-1.89-17.09-.03-6.23-3.25-12.35-2.06-18.9,14.15.29,9.07,31.13,3.96,35.98Z"/>
      <path class="cls-1" d="M56.72,172.13c-.35-.18-7.54-5.25-4.98-6.02,15.97,5.17,32.31,6.68,48.97,8.04l-14.99,3.98c-4.27-1.16-8.69-1.34-13-2-5.62-.86-10.75-1.36-16-4Z"/>
      <path class="cls-1" d="M132.72,20.13c.99.9,5.91,6.68,3.01,7.99-7.42-10.43-28.11-9.21-35.86-13.79-2.17-1.29-.74-3.11-1.15-4.2,7.22,2.81,15.23-.49,22.49,2.52.63.26,11.01,7.02,11.51,7.48Z"/>
      <path class="cls-1" d="M82.71,78.14l-10.52,23.44-7.46,2.54c1.21-10.38,5.82-24.77,17.98-25.98Z"/>
      <path class="cls-1" d="M50.71,82.14l-11.97,31.98c-.18-10.35-2.41-31.19,11.97-31.98Z"/>
      <path class="cls-1" d="M108.71,104.14c2.92,8.02-13.98,23.07-17.98,12.98-.51-1.3,5.06-1.27,7.12-2.86,3.46-2.66,4.48-10.94,10.86-10.12Z"/>
      <path class="cls-1" d="M108.43,76.3c3.54,2.52,8,22.53-1.7,17.85.83-6.69-.45-11.08-6-15.03.95-1.47,6.75-3.49,7.7-2.82Z"/>
      <path class="cls-3" d="M104.72,66.11c-1.27.24-26.94,1.32-19.99-3.97,6.18.86,16.56-3.01,19.99,3.97Z"/>
      <path class="cls-1" d="M104.71,50.12c-3.86-.25-13.36.51-11.98-5.98,4.81-.26,12.37-1.27,11.98,5.98Z"/>
      <path class="cls-3" d="M58.71,156.16c.15,4.17-8.7-.51-9.98-1.12-2.91-1.41-4.99.39-3.99-4.89l13.97,6.02Z"/>
      <polygon class="cls-3" points="44.72 142.14 41.73 150.12 36.77 141.11 44.72 142.14"/>
      <path class="cls-1" d="M176.72,86.13c.4,2.68,3.28,6.19,1.99,9.99-2.54.89-3.77-1.96-3.99-1.99.06-1.33-.08-2.68,0-4s-.06-2.67,0-4h2Z"/>
      <path class="cls-1" d="M176.72,84.13l-4,.02v-10.02c2.45,4.9,2.21,2.52,4,10Z"/>
      <path class="cls-1" d="M88.72,48.11h-5.99s0-3.97,0-3.97c2.76-.62,5.32,1.08,5.99,3.97Z"/>
      <rect class="cls-1" x="44.73" y="164.15" width="3.98" height="1.96"/>
      <path class="cls-3" d="M174.72,90.13l-1.99-2.98,1.99-1.02c-.06,1.33.08,2.68,0,4Z"/>
      <path class="cls-1" d="M125.74,110.17c2.02,1.79-3.02,5.08-2.98,2.98l2.98-2.98Z"/>
    </g>
  </g>
</svg>