<?xml version="1.0" encoding="UTF-8"?>
<svg id="Calque_2" data-name="Calque 2" xmlns="http://www.w3.org/2000/svg" viewBox="0 0 180.1 145.82">
  <defs>
    <style>
      .cls-1 {
        fill: #d35337;
      }

      .cls-2 {
        fill: #e68a40;
      }
    </style>
  </defs>
  <g id="Calque_1-2" data-name="Calque 1">
    <g>
      <path class="cls-2" d="M131.74,80.2c1.8,1.79,23.01-5.65,29.11,6.04,2.98,5.72-5.41,12.88-2.24,17.99,2.97,4.78,17.64,1.93,20.7,15.4,1.55,6.82,1.54,23.65-6.96,26.2l-102.19-4.94c-7.68-3.38-2.97-43.95-25.68-44.65-16.62-.51-27.18,44.33-44.49,24.57L45.05.09c2.38-.12,4.98-.25,7.25.54,9.95,3.48,33.83,48.19,45.47,56.69,10.2,5.41,45.48-26.78,33.98,22.87ZM109.74,70.21c-31.04,17.39-34.44-20.48-50.93-36.07-2.83-2.67-4.49-4.82-9.04-3.91l-18.03,49.97c6.61-.05,12.06-2.5,18.93-2.04,27.96,1.88,29.56,45.5,36.33,47.78l74.73,4.27c-.31.39.69,2.98-.22,3.71-2.89,2.31-15.96-3.36-15.76,3.26,2.87,2.69,20.36,5.5,22.66,5.17,5.85-.83,9.35-22.01-2.84-28.99-14.34-8.21-16.58.15-10.7-23.17-4.21-6.9-25.96-2.7-27.16-3.97-.57-.6.38-6.09,0-8.01-5.99-1.33-8.44,8.19-4.09,11.1,3.68,2.45,15.62-.99,19.23,4.9,2.6,4.23-4.78,14.29.82,19.17,2.63.2,17.36,1.38,18.16,1.82,4.33,2.39,1.38,11.99,7.87,7.01,1.37,5.8-4.37,4.75-5.98,6-1.08-11.13-20.43-6.41-25.02-13.98-2.62-4.32.08-16.98-.97-18.03-1.32-1.32-15.81,2.77-20.2-2.8-3.91-4.96-.94-16.78-1.81-23.19,2.38.19,7.37-2.38,11.98,2l.03-14.01c-9.82-2.61-22.33,5.6-30.97,4.1-6.15-1.07-7.08-11.42-14.02-12.11-3.37,5.21,1.21,15.34,5.84,18.15,9.23,5.58,13.62-2.56,17.9-1.83,2.06.35,2.89,3.57,3.24,3.7ZM33.73,54.22c-5.19-6.03-10.41,22.38-11.03,23.95-5.22,13.17-15.52,24.44-12.95,40.03,9.17-.58,11.96-12.35,16.12-16.86,16.69-18.08,36.49-9,43.32,12.42,2.01,6.3.31,18.56,5.86,22.13l68.69,4.31c1.25-7.7-3.71-1.44-5.66-2.41-7.81-3.88-10.2-6.34-21.64-7.38-6.86-.63-26.37,2.74-30.63.86-9.35-4.13-13.49-29.84-18.35-37.76-9.06-14.78-28.58-9.41-41.69-3.29l7.97-35.99Z"/>
      <path class="cls-1" d="M33.73,54.22l-7.97,35.99c13.1-6.12,32.63-11.49,41.69,3.29,4.86,7.93,9,33.64,18.35,37.76,4.26,1.88,23.78-1.49,30.63-.86,11.43,1.04,13.83,3.5,21.64,7.38,1.95.97,6.92-5.29,5.66,2.41l-68.69-4.31c-5.55-3.56-3.85-15.83-5.86-22.13-6.83-21.42-26.62-30.51-43.32-12.42-4.17,4.51-6.95,16.28-16.12,16.86-2.57-15.6,7.73-26.87,12.95-40.03.62-1.57,5.84-29.98,11.03-23.95Z"/>
      <path class="cls-1" d="M163.74,128.21c1.61-1.25,7.35-.2,5.98-6-6.49,4.98-3.54-4.62-7.87-7.01-.8-.44-15.53-1.62-18.16-1.82-5.6-4.87,1.77-14.94-.82-19.17-3.61-5.89-15.55-2.44-19.23-4.9-4.35-2.9-1.9-12.43,4.09-11.1.38,1.92-.57,7.41,0,8.01,1.2,1.27,22.95-2.94,27.16,3.97-5.88,23.31-3.64,14.95,10.7,23.17,12.19,6.98,8.69,28.15,2.84,28.99-2.3.33-19.79-2.48-22.66-5.17-.2-6.62,12.86-.94,15.76-3.26.92-.73-.09-3.32.22-3.71.41-.5,1.51-1.62,2-2Z"/>
      <path class="cls-1" d="M109.74,70.21c-.35-.13-1.17-3.35-3.24-3.7-4.28-.73-8.66,7.41-17.9,1.83-4.64-2.8-9.21-12.94-5.84-18.15,6.94.69,7.87,11.04,14.02,12.11,8.64,1.51,21.15-6.71,30.97-4.1l-.03,14.01c-4.61-4.38-9.6-1.81-11.98-2-1.8-.14-4.83.43-6,0Z"/>
    </g>
  </g>
</svg>