<?xml version="1.0" encoding="UTF-8"?>
<svg id="Calque_2" data-name="Calque 2" xmlns="http://www.w3.org/2000/svg" viewBox="0 0 220.03 240.5">
  <defs>
    <style>
      .cls-1 {
        fill: #865b44;
      }

      .cls-2 {
        fill: #d35337;
      }

      .cls-3 {
        fill: #9d7662;
      }

      .cls-4 {
        fill: #526364;
      }

      .cls-5 {
        fill: #a2c9df;
      }

      .cls-6 {
        fill: #efd078;
      }

      .cls-7 {
        fill: #4e7298;
      }

      .cls-8 {
        fill: #8e9142;
      }

      .cls-9 {
        fill: #e68a40;
      }

      .cls-10 {
        fill: #edc041;
      }
    </style>
  </defs>
  <g id="Calque_1-2" data-name="Calque 1">
    <g>
      <path class="cls-4" d="M43.01,154.61c.15.08-.35,2.67.65,3.27,2.4,1.44,5.42,1.36,7.47,3.58,6.43,6.94,4.15,19.22-6.11,20.14,5,5.45,13.5,2.22,19.99,3.01,11.02,1.34,25.7,5,35.95,9.05,20.58,8.13,39.75,27.45,64.05,12.95,1.33-.02,2.67.06,4,0,.21,0,.95,1.47,3.92,1.23,8.08-.66,19.96-5,28.08-7.23-1.42,2.79-1.17,7.64-4.34,12.67-10.39,16.51-20.11,6.4-34.07,7.75-3.3.32-25.8,6.58-28.22,7.96-6.45,3.69-4.64,10.86-18.66,11.49-20.71.93-64.18-24.36-76.66-40.92-11.14-14.79-11.49-39.21-16.06-56.94,10.09,11.85,10.71,7.27,20,12Z"/>
      <path class="cls-3" d="M159.01,12.61c.76.59,1.33,1.34,2,2v8.01c-1.97-.1-4.04.2-6-.01-4.88-9.18-8.48-13.99-20-8-1.19-.21-2.68.09-4,0,3.5-5.27,2.02-3.96-2.97-4.01-21.88-.21-44.41,2.79-56.12,24-1.03,1.87-.37,4.73-.92,6.01-5.94,13.99-8.57,29.51-9.97,45.03-1.56,17.26-4.55,72.36-.61,86.64.98,3.54-.63,5.2,4.57,4.32-4.95-15.1-.72-31.28,0-45.99h2c-.06,3.33.08,6.67,0,10,0,.21-2.26.6-1.79,1.65.19.42,6.6,5.83,6.99,6.07,4.08,2.53,9.76,2.05,12.8,6.28-3.9.19-7.69-.9-11.18,1.82-4.08,3.17-7.93,14.58.23,16.13,12.23,2.32,14.32-.08,22.95,12.05-11.66,1.98-16.7-2.04-27.83-5.19-6.37-1.81-3.89.65-4.17,5.19-6.49-.79-14.99,2.44-19.99-3.01,10.26-.93,12.54-13.21,6.11-20.14-2.05-2.21-5.07-2.14-7.47-3.58-1-.6-.5-3.19-.65-3.27,2.81-2.42,8-16.27,8-19v-42c0-7.87,2.22-35.2,4-43,2.13-9.3,10.79-20.75,14-30,1.23-.64,3.24-1.5,4-2l1,1.96,1-1.96c.41-.61-.61-3,2-6l.93,1.74c4.48-2.26,10.72-2.6,13.07-7.74.69.08,1.88-.18,2,0,.37.57-.99,3.79,1.19,4.17,4.51.78,12.74-5.24,17.93-6.05,17.09-2.65,31.36,2.21,46.87,7.88Z"/>
      <path class="cls-1" d="M53.01,50.61h2c-1.78,7.8-4,35.13-4,43v42c0,2.73-5.19,16.58-8,19-9.29-4.73-9.91-.15-20-12C2.91,119-6.46,92.43,4.89,61.49c11.18-30.49,28.81-1.22,48.12-10.88ZM18.01,50.61v2c1.3-.67,1.3-1.33,0-2ZM39.01,64.61c-1.09-2.5-5.91-9.23-8.47-10.53s-10.77-3.86-9.5,1.46c8.48,18.76,14.28,43,22.98,61.06,1.12,2.33,1.99,5.5,4.97,6.01,1.26-6.61-1.13-12.88-1.57-19-.87-11.99-3.28-27.22-8.41-39,.15.48,4.67,5.1,6,8,1.25,2.71,1.51,6.94,2.02,9.99h1.96c.39-3.88-.46-8.2.02-11.99.4-3.15,3.94-8.73,2-14.01-6.02-.94-14.45.13-12,8.01ZM16.99,54.61c-4.59-.94-3.19.5-4.49,2.55-10.46,16.62-7.58,54.52,4.51,70.45,1.6,2.11,15.86,18.35,16.87,19.12,9.11,6.95,13.35-12.67,13.16-18.97-.04-1.26-3.48-1.02-4.62-3.62-9.8-22.26-16.02-47.01-25.43-69.53Z"/>
      <path class="cls-1" d="M129.01,136.61h-2c-1.92-.22-4.21.33-6,0-2.29-.41-5.95-3.76-10-2-.66-1.35-3.9-1.8-4-2-1.27-2.67-2.34-10.08-4-14,.11.18,2.8-.53,4.03,1.37,5.47,8.42,3.95,12.58,17.96,10.62-.75-5.73-5.17-14.22-10.5-16.48-5.87-2.49-15.78-2.92-11.5,4.49-.28-.67-8.31-4.83-2.05-9.04,9.25-6.22,23.24,3.99,26.52,13.58,1.92,5.62.91,8.65,1.54,13.47Z"/>
      <path class="cls-1" d="M165.01,114.61h4c.27,1.19,1.19,1.44,2,2,2.81,1.93,7.49.61,12,2,1.1.34,2.93-.35,4,0,.71.23,10.97,4.89,13.09,5.91,22.9,10.99,24.97,44.89,11.78,63.96-3.09,4.46-8.35,7.16-10.87,12.13-8.12,2.23-20,6.58-28.08,7.23-2.97.24-3.71-1.24-3.92-1.23,20.37-11.66,37.8-9.4,44-36,2.75-11.8,3.61-23.18-4-34s-20.11-12.28-32-12c-1.98-.94-9.19-4.48-9.98-5.1-2.06-1.61-1.68-4.58-2.02-4.9-.57-.54-3.57-.06-5.79-3.13-11.7-16.11-15.57-51.98-36.37-65.71-16.38-10.81-47.45-12.79-51.83,10.83,34.01-9.11,53.91,13.16,61.52,43.48.94,3.75-.43,10.23.79,12.22s18.16,7.27,21.78,9.2c14.7,7.86,24.81,19.5,20.87,37.06,7.23-3.26,26.94-4.59,29.02,6.04-20.34-12.49-37.32,6.16-55.04,11.97-4.94,1.62-.99-5.06-2.4-9.33-5.27-15.97-20.68-8.25-20.56-.64-4.13-2.46-6.38-7.19-11.99-5.99.04,1.31-.15,2.68,0,3.99,5.53,2.86,10.6,5.46,15.02,9.96.72-2.83-2.96-4.13-3.02-7.96,5.94,3.54,9.8,7.86,17.99,8.03l-11.99,5.97c-1.58-.68-4.02.37-7.04-1.88-3.61-2.69-10.5-9.74-10.96-14.12-6.05-3.13-17.23-8.95-24-10-1.23-.19-2.7.05-4,0-.66-.03-1.34-.03-2,0-3.04-4.23-8.72-3.75-12.8-6.28-.39-.24-6.8-5.65-6.99-6.07-.47-1.05,1.78-1.44,1.79-1.65,9.79,8.26,21,7.98,31.64,11.36,3.19,1.01,13.37,7.58,14.35,6.63,6.38-6.23-23.49-15.08-25.13-15.85-6.32-2.96-8.78-8.73-12.86-12.14,10.93,1.29,15.16,14.45,27.99,7.98,3.16-4.2-27.76-30.55-29.99-9.98-.43-.28-1.38.24-2,0-1.25-3.4,1.92-7.88,2-10,8.99-6.52,28.68,7.27,34,14,.58.73,1.95,1.83,2,2,.24.82.17,5.75,0,6-.19.28-5.97,1.08-5.96,3,0,2.58,10.24,5.81,11.96,7,.29.2-1.07.86,4,4,1.24.77,2.68,1.36,4,2,1.59.77,1.76,6.87,8.76,1.8,5.57-4.04,2.57-4.31,1.24-7.8s-.77-4.13-6-6c.34.44,3.18-.47,4,0,3.62,2.07,12.7,8.82,15.1,11.89,5.79,7.44,1.79,16.23,14.81,10.98,18.34-7.39,11.73-28.68-1.27-38.52-5.97-4.52-24.57-11.15-26.67-13.33-1.69-1.75-4.59-13.09-5.97-17.03-8.3-23.69-12.23-38.56-42-40-4.75-.23-6.25,1.04-10,2-.66.17-1.44-.2-2,0-.78.28-2.6-.59-3.65.28-3.64,3-2.43,29.19-2.35,35.72l-1.98,1.01c-.44,10.96.53,22.07-.02,32.99-.73,14.7-4.95,30.88,0,45.99-5.2.88-3.59-.78-4.57-4.32-3.94-14.28-.95-69.38.61-86.64,1.4-15.52,4.03-31.04,9.97-45.03h2c-.95,2.03-2.74,3.13-1.98,6,3.06-.06,4.68-5.14,5.98-6,.44-.29,8.24-4.16,8.73-4.33,47.06-16.4,66.51,45.58,79.27,78.33Z"/>
      <path class="cls-1" d="M213.01,170.61c-.72,1.16-21.11,11.85-24.03,12.97-11.2,4.31-41.98,10.42-52.06,4.04-2.15-1.36-1.44-4.44-1.91-5.01,24.12,6.22,54.66,1.14,72-18,1.85-2.04,3.32-5.23,5.98-6-.56,2.7.85,10.66.02,12Z"/>
      <path class="cls-1" d="M131.01,150.61c4.36,5.47-2.65,6.73-8,6v-6c2.32-.46,5.48.32,8,0Z"/>
      <path class="cls-4" d="M155.01,22.61c1.96.21,4.03-.09,6,.01v-8.01c.27.27,2.54-.41,3.4.55,12.94,14.49,23.87,48.63,24.67,68.36.5,12.27-2.44,23.03-2.07,35.09-1.07-.35-2.9.34-4,0-.61-22.82,1.68-50.45-4.44-72.56-.98-3.54-17.94-31.59-17.56-13.44-5.66-4.76-3.61-5.5-6-10-6.47-.68-13.53-6.88-20-8,11.52-5.99,15.12-1.18,20,8Z"/>
      <path class="cls-4" d="M159.01,12.61c-15.51-5.66-29.79-10.52-46.87-7.88-5.19.81-13.42,6.83-17.93,6.05-2.18-.38-.82-3.6-1.19-4.17,14.65-9.49,44.39-7.97,59.45-.44,4.22,2.11,4.66,4.97,6.55,6.44Z"/>
      <path class="cls-4" d="M69.01,20.61c-3.21,9.25-11.87,20.7-14,30h-2c.52-10.4,5.45-17.47,11.28-24.82,2.53-3.19-1.4-2.01,4.72-5.18Z"/>
      <path class="cls-4" d="M91.01,6.61c-2.34,5.15-8.59,5.49-13.07,7.74l-.93-1.74c3.81-4.38,8.01-6.66,14-6Z"/>
      <path class="cls-4" d="M73.01,18.61c.47-.31,1.78.33,2,0l-1,1.96-1-1.96Z"/>
      <path class="cls-2" d="M115.01,164.61c.46,4.38,7.35,11.43,10.96,14.12,3.02,2.25,5.46,1.2,7.04,1.88,1.25.54,1.36,1.23,2,2,.48.58-.24,3.65,1.91,5.01,10.08,6.38,40.86.27,52.06-4.04,2.92-1.12,23.31-11.81,24.03-12.97-6.2,26.6-23.63,24.34-44,36-1.33.06-2.67-.02-4,0-34.85.58-30.15-2.79-58-16v-4c.68-.71,1.44-2.84,2-4,1.27-2.63,3.07-4.18,1.96-8.03-1,.18-1.69,2-1.96,2.03-1.04.09-6.87-13.54-12-14-.3-.43.29-1.47,0-2-1.26-2.34-3.8-2.97-6-4v-2c6.77,1.05,17.95,6.87,24,10Z"/>
      <path class="cls-2" d="M165.01,114.61c.34.32-.04,3.29,2.02,4.9.79.62,8,4.16,9.98,5.1.81.39,1.7,2.35,3.83,3.08,8.89,3.02,19.75,1.18,28.17,8.92,7.61,10.82,6.75,22.2,4,34,.83-1.34-.58-9.3-.02-12-2.66.77-4.13,3.96-5.98,6h-2c-2.08-10.63-21.8-9.31-29.02-6.04,3.94-17.56-6.17-29.2-20.87-37.06-3.63-1.94-20.53-7.14-21.78-9.2s.15-8.47-.79-12.22c-7.61-30.33-27.51-52.59-61.52-43.48,4.38-23.61,35.45-21.64,51.83-10.83,20.8,13.73,24.67,49.6,36.37,65.71,2.23,3.06,5.23,2.59,5.79,3.13Z"/>
      <path class="cls-1" d="M97.01,184.61c3.15-.54,3.91-1.31,6-2,.6-.2,1.41.21,2,0,1.08-.38,3.64.42,4,0-.56,1.16-1.32,3.29-2,4-.62.64-3.52-1.23-4.01,1.02-1.07,4.89,2.32,2.18,4.01,2.98,27.85,13.21,23.15,16.58,58,16-24.3,14.5-43.47-4.82-64.05-12.95-10.25-4.05-24.93-7.7-35.95-9.05.29-4.54-2.2-7,4.17-5.19,11.13,3.16,16.17,7.18,27.83,5.19ZM100.01,186.61v2c1.3-.67,1.3-1.33,0-2Z"/>
      <path class="cls-6" d="M71.01,128.61c.62.24,1.57-.28,2,0,.6.4,1.26,1.38,2,2,4.07,3.42,6.53,9.19,12.86,12.14,1.64.77,31.51,9.62,25.13,15.85-.98.95-11.16-5.62-14.35-6.63-10.64-3.38-21.85-3.1-31.64-11.36.08-3.33-.06-6.67,0-10l.11-3.95c.5-.5,2.7,1.49,3.89,1.95Z"/>
      <path class="cls-4" d="M71.01,40.61c.55-1.28-.12-4.14.92-6.01,11.7-21.21,34.23-24.21,56.12-24,4.99.05,6.47-1.26,2.97,4.01-22.43-1.46-44.35,4.55-56,24-.43.72-1.67,1.3-2,2h-2Z"/>
      <path class="cls-4" d="M85.01,154.61c.66-.03,1.34-.03,2,0,1.54,5.15,3.74,1.88,4,2,2.2,1.03,4.74,1.66,6,4l-21.95-3.98c-4.13,12.6,2.84,8.05,10.64,12.28,6.64,3.6,11.31,9.38,17.31,13.69-2.09.69-2.85,1.46-6,2-8.62-12.13-10.72-9.73-22.95-12.05-8.17-1.55-4.32-12.96-.23-16.13,3.5-2.72,7.29-1.62,11.18-1.82Z"/>
      <path class="cls-9" d="M67.01,96.61c.1,8.39,2.43,15.34.02,23.99,1.68.75,3.91-3.59,3.98-3.99.31.8,2.01,1.81,2,2-.08,2.12-3.25,6.6-2,10-1.19-.46-3.39-2.45-3.89-1.95l-.11,3.95h-2c.54-10.93-.42-22.03.02-32.99l1.98-1.01Z"/>
      <path class="cls-2" d="M16.99,54.61c9.4,22.52,15.62,47.27,25.43,69.53,1.14,2.6,4.59,2.36,4.62,3.62.19,6.31-4.05,25.92-13.16,18.97-1.01-.77-15.27-17.01-16.87-19.12-12.09-15.93-14.97-53.83-4.51-70.45,1.29-2.05-.1-3.49,4.49-2.55Z"/>
      <path class="cls-9" d="M39.01,64.61c5.12,11.78,7.53,27,8.41,39,.45,6.13,2.84,12.39,1.57,19-2.99-.51-3.85-3.67-4.97-6.01-8.69-18.06-14.5-42.3-22.98-61.06-1.27-5.32,7-2.73,9.5-1.46s7.39,8.02,8.47,10.53Z"/>
      <path class="cls-2" d="M39.01,64.61c-2.45-7.87,5.98-8.95,12-8.01,1.94,5.28-1.6,10.86-2,14.01l-4,2c-1.33-2.9-5.85-7.52-6-8Z"/>
      <path class="cls-6" d="M49.01,70.61c-.48,3.78.37,8.11-.02,11.99h-1.96c-.52-3.05-.78-7.28-2.02-9.99l4-2Z"/>
      <path class="cls-2" d="M18.01,50.61c1.3.67,1.3,1.33,0,2v-2Z"/>
      <path class="cls-3" d="M183.01,118.61c-4.51-1.39-9.19-.07-12-2-.12-4.03,4-12.33,4-15v-38c0-2.54-3.73-14.25-6-17-.09-.65.09-1.35,0-2-.26-1.91-1.71-8.87-2.44-9.64-.98-1.03-3.24-.09-3.56-.36-.73-.61-1.3-1.41-2-2-.39-18.15,16.58,9.9,17.56,13.44,6.12,22.1,3.83,49.73,4.44,72.56Z"/>
      <path class="cls-4" d="M171.01,116.61c-.81-.56-1.73-.81-2-2-1.53-6.68,1.93-15.69,2.1-22.9.34-14.49-.16-30.79-2.1-45.1,2.27,2.75,6,14.46,6,17v38c0,2.67-4.12,10.97-4,15Z"/>
      <path class="cls-9" d="M209.01,136.61c-8.41-7.74-19.28-5.9-28.17-8.92-2.13-.72-3.02-2.69-3.83-3.08,11.89-.28,24.75,1.69,32,12Z"/>
      <path class="cls-9" d="M127.01,166.61c-.12-7.61,15.29-15.33,20.56.64,1.41,4.27-2.54,10.95,2.4,9.33,17.72-5.81,34.7-24.46,55.04-11.97h2c-17.34,19.14-47.88,24.22-72,18-.64-.77-.75-1.46-2-2l11.99-5.97c-8.2-.16-12.05-4.49-17.99-8.03.06,3.83,3.74,5.13,3.02,7.96-4.42-4.5-9.49-7.1-15.02-9.96-.14-1.3.05-2.68,0-3.99,5.61-1.2,7.86,3.53,11.99,5.99Z"/>
      <path class="cls-7" d="M97.01,160.61c.29.53-.3,1.57,0,2,1.41,2.01,5.52,7.2,6.23,8.76,1.5,3.3,1.78,7.62,1.77,11.24-.59.21-1.4-.2-2,0-6-4.31-10.67-10.09-17.31-13.69-7.8-4.23-14.77.32-10.64-12.28l21.95,3.98Z"/>
      <path class="cls-4" d="M109.01,176.61c-.32,1.5.46,5.46,0,6-.36.42-2.92-.38-4,0,0-3.63-.28-7.94-1.77-11.24-.71-1.56-4.82-6.74-6.23-8.76,5.13.46,10.96,14.09,12,14Z"/>
      <path class="cls-3" d="M109.01,182.61c.46-.54-.32-4.5,0-6,.27-.02.96-1.85,1.96-2.03,1.11,3.85-.69,5.4-1.96,8.03Z"/>
      <path class="cls-3" d="M107.01,186.61v4c-1.69-.8-5.09,1.91-4.01-2.98.49-2.25,3.39-.38,4.01-1.02Z"/>
      <path class="cls-3" d="M91.01,154.61v2c-.26-.12-2.46,3.15-4-2,1.3.05,2.77-.19,4,0Z"/>
      <path class="cls-3" d="M100.01,186.61c1.3.67,1.3,1.33,0,2v-2Z"/>
      <path class="cls-4" d="M163.01,34.61c.32.27,2.58-.67,3.56.36.73.77,2.18,7.73,2.44,9.64-5.85,1.51-4.22-5.65-6-10Z"/>
      <path class="cls-5" d="M77.01,40.61c-1.3.86-2.92,5.94-5.98,6-.76-2.87,1.03-3.96,1.98-6,.33-.7,1.57-1.28,2-2l2,2Z"/>
      <path class="cls-10" d="M111.01,134.61h-2c-.05-.17-1.42-1.27-2-2,.1.2,3.34.65,4,2Z"/>
      <path class="cls-10" d="M85.01,58.61l-2.98,4c6.92,3.15,10.04-1.21,16.85,3.08,12.17,7.67,16.11,24.84,28.13,32.93,1.38,3.94,4.28,15.27,5.97,17.03,2.1,2.18,20.7,8.81,26.67,13.33,13,9.84,19.61,31.13,1.27,38.52-13.02,5.24-9.02-3.55-14.81-10.98-2.39-3.08-11.48-9.82-15.1-11.89.74-2.91-1.74-5.98-2-8-.63-4.82.38-7.85-1.54-13.47-3.28-9.59-17.27-19.8-26.52-13.58-6.26,4.21,1.77,8.38,2.05,9.04,1.66,3.92,2.73,11.33,4,14-5.32-6.73-25.01-20.52-34-14,0-.19-1.69-1.2-2-2,.57-3.32.59-20.06-4-20-.08-6.53-1.29-32.72,2.35-35.72,1.05-.87,2.87,0,3.65-.28l1,1.96,1-1.96c3.75-.96,5.25-2.23,10-2ZM104.99,102.61c.52-12.13-9.51-21.69-17-29.96,2.65,10.27,10.2,21.67,17,29.96Z"/>
      <path class="cls-6" d="M127.01,98.61c-12.02-8.09-15.96-25.26-28.13-32.93-6.81-4.29-9.93.08-16.85-3.08l2.98-4c29.77,1.44,33.7,16.31,42,40Z"/>
      <path class="cls-6" d="M73.01,60.61c.56-.2,1.34.17,2,0l-1,1.96-1-1.96Z"/>
      <path class="cls-2" d="M73.01,128.61c2.23-20.57,33.15,5.78,29.99,9.98-12.83,6.47-17.06-6.69-27.99-7.98-.74-.62-1.4-1.6-2-2Z"/>
      <path class="cls-3" d="M121.01,136.61c-1.29,11.79,1.5,6.39,6,8-.58-.76.41-6.13,0-8h2c.26,2.02,2.74,5.09,2,8-.82-.47-3.66.44-4,0,5.23,1.87,4.65,2.46,6,6h-2c-2.52.32-5.68-.46-8,0-1.89.38-3.33,2.23-4,4-5.07-3.14-3.71-3.8-4-4,4.57-5.88-.92-7.97-6-10,.17-.25.24-5.18,0-6h2c4.05-1.76,7.71,1.59,10,2Z"/>
      <path class="cls-5" d="M109.01,140.61c5.08,2.03,10.57,4.12,6,10-1.72-1.19-11.95-4.42-11.96-7,0-1.92,5.77-2.72,5.96-3Z"/>
      <path class="cls-6" d="M123.01,156.61c-1.32-.64-2.76-1.23-4-2,.67-1.77,2.11-3.62,4-4v6Z"/>
      <path class="cls-6" d="M123.01,156.61c5.35.73,12.36-.53,8-6h2c1.33,3.49,4.34,3.77-1.24,7.8-7,5.07-7.17-1.03-8.76-1.8Z"/>
      <path class="cls-8" d="M71.01,116.61c-.07.4-2.3,4.74-3.98,3.99,2.41-8.65.08-15.6-.02-23.99,4.59-.06,4.57,16.68,4,20Z"/>
      <path class="cls-8" d="M104.99,102.61c-6.8-8.29-14.35-19.69-17-29.96,7.49,8.27,17.52,17.83,17,29.96Z"/>
      <path class="cls-5" d="M127.01,136.61c.41,1.87-.58,7.24,0,8-4.5-1.61-7.29,3.79-6-8,1.79.33,4.08-.22,6,0Z"/>
      <path class="cls-9" d="M103.01,118.61c-4.28-7.41,5.63-6.98,11.5-4.49,5.33,2.26,9.74,10.75,10.5,16.48-14.01,1.96-12.49-2.2-17.96-10.62-1.23-1.9-3.92-1.18-4.03-1.37Z"/>
    </g>
  </g>
</svg>