<?xml version="1.0" encoding="UTF-8"?>
<svg id="Calque_2" data-name="Calque 2" xmlns="http://www.w3.org/2000/svg" viewBox="0 0 83.93 89.35">
  <defs>
    <style>
      .cls-1 {
        fill: #4e7298;
      }

      .cls-2 {
        fill: #2a6395;
      }
    </style>
  </defs>
  <g id="Calque_1-2" data-name="Calque 1">
    <g>
      <path class="cls-2" d="M83.85,36.16l-1.53,1.2c.18,3,1.36,5.79,1.53,8.8.11,1.95.11,4.05,0,6-7.41-6.07-12.21,6.95-2,8-.58,2.18-.96,3.92-2,6-.84.37-1.76,1.12-2,2-3.88,14.27-3.11,8.53-12,14-7.32-8.46-6.44.77-10.02,3.07-2.73,1.76-21.2-1.9-25.98-3.07C9.59,77.18,1.27,65.76.07,44.86-2.46,1.12,69.12-25.3,83.85,36.16ZM59.84,68.17l-9.99,7.97h11.98c.8-3.54-3.13-1.24-3.83-2.1-.6-.73,2.19-4.15,1.84-5.87ZM65.84,68.17c-2.18-2.18-6.16,1.8-3.98,3.98s6.16-1.8,3.98-3.98ZM47.84,76.18h-3.98v1.96h3.98v-1.96ZM40.85,78.16v2c1.3-.67,1.3-1.33,0-2Z"/>
      <path class="cls-1" d="M65.85,82.16c-.87.54-1.68,3.15-4.5,4.39-9.42,4.14-24.64,4.49-31.5-4.39,4.78,1.17,23.26,4.83,25.98,3.07,3.58-2.3,2.7-11.53,10.02-3.07Z"/>
      <path class="cls-1" d="M83.85,52.16c-.26,4.8-1.2,5.01-2,8-10.21-1.05-5.41-14.07,2-8Z"/>
      <path class="cls-1" d="M77.85,68.16c.24-.88,1.16-1.63,2-2-.39.78-1.34,1.4-2,2Z"/>
      <path class="cls-1" d="M59.84,68.17c.36,1.73-2.44,5.14-1.84,5.87.7.86,4.63-1.44,3.83,2.09h-11.98s9.99-7.96,9.99-7.96Z"/>
      <path class="cls-1" d="M65.84,68.17c2.18,2.18-1.8,6.16-3.98,3.98s1.8-6.16,3.98-3.98Z"/>
      <rect class="cls-1" x="43.86" y="76.18" width="3.98" height="1.96"/>
      <path class="cls-1" d="M40.85,78.16c1.3.67,1.3,1.33,0,2v-2Z"/>
    </g>
  </g>
</svg>