<?xml version="1.0" encoding="UTF-8"?>
<svg id="Calque_2" data-name="Calque 2" xmlns="http://www.w3.org/2000/svg" viewBox="0 0 146.25 156.05">
  <defs>
    <style>
      .cls-1 {
        fill: #d35337;
      }
    </style>
  </defs>
  <g id="Calque_1-2" data-name="Calque 1">
    <path class="cls-1" d="M119.85,26.27c-5.73-1.21-8.79-5.82-14.62-8.36-15.93-6.93-45.12-4.76-60.04,4.69-58.86,37.27-23.34,146.36,56.45,112.45,45.88-19.5,39.18-96.75-22.3-86.3-38.67,6.58-39.11,58.94-2.23,61.46,19.99,1.37,31.82-34.63,5.81-29.92-6.81,1.23-6.5,8.46-10.35,9.75-13.3,4.46-12.78-22.22,5.26-26.86,26.98-6.94,52.26,35.85,19.85,55.92-40.45,25.04-84.68-31.12-52.65-68.65,29.12-34.13,91.24-18.09,99.92,27.75,14.19,74.88-91.34,106.18-130.75,46.75C-24.13,67.16,19.98-5.37,88.83.31c14.15,1.17,34.51,8.28,31.02,25.95Z"/>
  </g>
</svg>