<?xml version="1.0" encoding="UTF-8"?>
<svg id="Calque_2" data-name="Calque 2" xmlns="http://www.w3.org/2000/svg" viewBox="0 0 118.48 229.85">
  <defs>
    <style>
      .cls-1 {
        fill: #947e92;
      }

      .cls-2 {
        fill: #9d7662;
      }

      .cls-3 {
        fill: #a2c9df;
      }
    </style>
  </defs>
  <g id="Calque_1-2" data-name="Calque 1">
    <g>
      <path class="cls-1" d="M79.3,5.42c-1.18,8.3,11.07,2.17,14.77,2.57,10.94,1.18,10.98,15.35,11.23,23.43-6.44-1.13-3.37,3.23-3.92,6.98-.7,4.8-3.1,20.48,1.92,23.02.89.45,3.56-1.22,4.11,1.15,2.68,11.46-1.99,31.71-2.21,43.76-.55,30.29,1.02,59.95,2.25,90.07.3,7.26-2.63,13.69-.14,21.02-6.86.44-13.22,2.3-20.07,3.01-2.96.31-6.95-4.11-5.94,3C-31.85,196.72-21.6,33.05,79.3,5.42ZM36.3,47.42v2c1.3-.67,1.3-1.33,0-2ZM34.32,51.46c-1.67,1.64-4.75,5.5-4.04,7.92,1.67-1.64,4.75-5.5,4.04-7.92ZM17.28,77.41v-3.98h-1.96v3.98h1.96ZM13.28,101.42l2-21.99-5.96,15.2,3.96,6.79ZM35.29,113.41l-3.97-17.98-2.01,17.98h5.98Z"/>
      <path class="cls-2" d="M79.3,5.42c13.94-3.82,33.73-12.91,36.05,6.95,6.23,53.48,1.52,120.27-.13,173.96-.24,7.71,2.36,41.02-2.94,43.07s-4.82-3.93-6.13-4c-11.52-.63-12.11,1.03-24.85-1.98-1.01-7.11,2.98-2.69,5.94-3,6.85-.71,13.21-2.57,20.07-3.01-2.49-7.33.44-13.77.14-21.02-1.23-30.11-2.8-59.78-2.25-90.07.22-12.05,4.89-32.3,2.21-43.76-.55-2.36-3.22-.69-4.11-1.15.37-10.35,2.34-19.4,2-30-.26-8.08-.29-22.25-11.23-23.43-3.7-.4-15.95,5.74-14.77-2.57Z"/>
      <path class="cls-3" d="M105.3,31.42c.34,10.6-1.63,19.65-2,30-5.02-2.54-2.63-18.22-1.92-23.02.55-3.75-2.51-8.11,3.92-6.98Z"/>
      <polygon class="cls-3" points="13.28 101.42 9.32 94.63 15.28 79.43 13.28 101.42"/>
      <polygon class="cls-3" points="35.29 113.41 29.31 113.41 31.32 95.43 35.29 113.41"/>
      <rect class="cls-3" x="15.32" y="73.43" width="1.96" height="3.98"/>
      <path class="cls-3" d="M34.32,51.46c.71,2.42-2.37,6.27-4.04,7.92-.71-2.42,2.37-6.27,4.04-7.92Z"/>
      <path class="cls-3" d="M36.3,47.42c1.3.67,1.3,1.33,0,2v-2Z"/>
    </g>
  </g>
</svg>