<?xml version="1.0" encoding="UTF-8"?>
<svg id="Calque_2" data-name="Calque 2" xmlns="http://www.w3.org/2000/svg" viewBox="0 0 109.9 112.35">
  <defs>
    <style>
      .cls-1 {
        fill: #9d7662;
      }
    </style>
  </defs>
  <g id="Calque_1-2" data-name="Calque 1">
    <g>
      <path class="cls-1" d="M84.61,2.28c20.02-5.2,37.15,22.1,14.59,34.64-30.33,16.86-37.92-28.58-14.59-34.64Z"/>
      <path class="cls-1" d="M1.53,31.41C-5.6,19.01,13.81-1.95,25.6.15c14.63,2.6,12.62,38.43-9.3,37.6-2.5-.09-13.95-4.91-14.77-6.33Z"/>
      <path class="cls-1" d="M11.6,111.25c-.55-.23-7.63-7.97-8.08-8.82-9.68-18.36,17.79-34.57,26.5-20.53,7.6,12.25-3.21,35.82-18.42,29.36Z"/>
      <path class="cls-1" d="M71.43,107.55c-.67-.39-5.96-10.88-6.27-12.87-1.99-12.88,7.25-25.48,20.5-18.42,19.24,10.25-5.88,36.17-14.23,31.29Z"/>
      <path class="cls-1" d="M60.57,48.33c6.45,6.78-2.24,32.8-18.57,23.58-19.66-11.11,4.35-38.51,18.57-23.58Z"/>
    </g>
  </g>
</svg>