<?xml version="1.0" encoding="UTF-8"?>
<svg id="Calque_2" data-name="Calque 2" xmlns="http://www.w3.org/2000/svg" viewBox="0 0 100.34 128.79">
  <defs>
    <style>
      .cls-1 {
        fill: #526364;
      }

      .cls-2 {
        fill: #4e7298;
      }
    </style>
  </defs>
  <g id="Calque_1-2" data-name="Calque 1">
    <g>
      <path class="cls-1" d="M52.77,4.78c24.08,10.01,38.27,28.68,45.09,53.91,7.36,27.27-1.12,65.35-33.04,70.09-7.94-15.71,10.71-27.6,13.49-41.48,2.47-12.34-2.83-37.87-11.5-47.56-10.84-12.12-24.33-12.59-36.03-18.97,3.21-7.03,12.35-.1,10.02-10.01,7.86.32,3.45,8.74,9.97,8.01-.7-7.15,7.02-5.74,2.01-13.99ZM57.77,12.78v2c1.3-.67,1.3-1.33,0-2ZM61.77,14.78v2c1.3-.67,1.3-1.33,0-2Z"/>
      <path class="cls-1" d="M12.77,54.78c.26-.19-.02-3.5,2.04-4.89,2.29-1.55,12.27-5.39,14.84-5.14,1.8.17,17.62,9.22,19.19,10.96,7.67,8.5,6.83,26.35-.76,34.37-6.5,6.87-29.54,12.39-37.29,7.68-9.58-5.82-14.55-28.95-7.39-38.37,2.13-2.8,7.6-3.3,9.38-4.62,6.19,13.86-4.31,9.95-7.09,13.9-2.92,4.15.44,12.93,1.37,17.81l13.7,2.29.02-8.02c2.24-2.42,27.65,12.88,28.08-4.87.33-13.47-10.16-22.9-23.54-22.57-3.59.09-6.72,5.22-12.55,1.46Z"/>
      <path class="cls-2" d="M52.77,4.78c5.01,8.26-2.71,6.85-2.01,13.99-6.52.73-2.11-7.69-9.97-8.01,2.33,9.91-6.8,2.98-10.02,10.01-3.53-1.93-6.98-5.48-7.7-9.48C19.94-6.05,42.94.69,52.77,4.78Z"/>
      <path class="cls-2" d="M61.77,14.78c1.3.67,1.3,1.33,0,2v-2Z"/>
      <path class="cls-2" d="M57.77,12.78c1.3.67,1.3,1.33,0,2v-2Z"/>
      <path class="cls-2" d="M12.77,54.78c5.83,3.76,8.96-1.37,12.55-1.46,13.38-.33,23.87,9.1,23.54,22.57-.43,17.75-25.83,2.45-28.08,4.87l-.02,8.02-13.7-2.29c-.93-4.88-4.29-13.66-1.37-17.81s13.28-.04,7.09-13.9Z"/>
    </g>
  </g>
</svg>