<?xml version="1.0" encoding="UTF-8"?>
<svg id="Calque_2" data-name="Calque 2" xmlns="http://www.w3.org/2000/svg" viewBox="0 0 164.86 279.55">
  <defs>
    <style>
      .cls-1 {
        fill: #4e7298;
      }

      .cls-2 {
        fill: #2a6395;
      }
    </style>
  </defs>
  <g id="Calque_1-2" data-name="Calque 1">
    <g>
      <path class="cls-2" d="M154.14,191.28c-12.82,14.31-33.46,28-55,28h-29c-10.76,43.3,30.97,56.43,64.64,39.64,5.04-2.51,12.19-10.54,16.61-11.09,12.4-1.54,10.04,7.62,2.63,14.33-18.54,16.79-57.94,24.46-78.82,9.07-10.02-7.38-11.09-11.58-15.06-21.94l-2-6c-.14-.63.11-1.35,0-2l-2-4c-.39-6.57,2.77-17.52,2.15-20.64-.12-.61-7.97-5.49-10.15-7.36-2.9-3.76-1.35-7.92,0-12,.52.49,12.18,6.01,13.05,5.99,4.84-.1,5.68-5.81,8.95-7.99,1.85-1.24,8.28-2.43,10.9-3.92l1.1,1.92c-1.78,2.71-2.9,10.64-6,13.98,24.74.41,46.31-1.53,66-17.98l12,2Z"/>
      <path class="cls-2" d="M100.14,91.28l2,2c3.49.84,6.78,2.43,10,4v4s4,0,4,0c3.05,5.59,4.91,9.06,4,16-6.38,1.48-8.37-1.43-12-6-2.81-3.55.61-6.78-8.91-8.09-18.51-2.54-37.34,12.07-48.11,26.08-1.54,2.01-3.88,2.54-2.98,6,9.18.9,18.67,3.31,27.99,2.01,1.54-.21,1.86-1.97,2-2,8.39-1.93,14.3-4.54,22-8-.12,2.6,2.46,6.8,2,10-.58.17-1.33-.13-2,0-2.92.57-6.87-.43-10.01,0v6c-19.35,7.48-28.82,5.22-47.99,2-1.85-.31-7.59.49-8.01.01-.7-.8.97-6.3-.19-7.87-.64-.87-3.2.19-3.81-.14-1.8-.98-4.53-2.68-6-4l2-5.99c-1.88-.35-4.35.38-6,0-1.39-3.01-2.38-8.67-3.99-11.99l7.99,1.99c.27.81,1.42,2.81,2,4l2,2c.45.65,1.39,1.25,2,2,1.18,1.44,1.28,5.56,3,6.04,7.76,2.15,3.88-3.81,5-6.04,8.47-16.81,42.74-37.38,62-34ZM115.14,107.28v2c1.3-.67,1.3-1.33,0-2Z"/>
      <path class="cls-2" d="M46.14,41.28c39.92-22.74,66.93,16.04,26.64,35.64-10.78,5.24-37.96,7.87-48.64,2.36-2.89-1.49-9.56-17.55-15.99-19.01,2.45-3.29,7.99.87,9.99,1.01.65.04,1.35.03,2,0-.07,3.58-.91,4.59,2.77,3.79,1.55-.34,3.21-2.15,5.22-1.81v-2.96s-1.99-1.02-1.99-1.02c4.54-4.24,1.7-1.44,6-4l4-6c2.78-2.3,4.61-2.92,6-4l1.21,1.61c2.49-.09,8.21-1.56,6.77-3.58l-3.98-2.03ZM67.66,43.68c-11.99,1.68-27.12,14.07-35.48,22.6,9.7,11.44,30.4,3.74,40.63-3.33,11.8-8.16,9.84-21.37-5.15-19.27Z"/>
      <path class="cls-2" d="M78.14,183.28c14.12-15.61,38.92-34.76,61.02-34.13,21.85.63,28.73,8.39,24.53,30.76-.97,5.19-3.85,4.96-5.55,7.36-2.34-2.72-3.93-6.17-8-6,15.31-28.92-21.99-19.59-36.69-11.69-3.88,2.09-24.55,16.76-27.31,19.69-3.26-3.9-9.63.66-8-6Z"/>
      <path class="cls-1" d="M6.14,25.28l1,10.02c1.36-8.93,4.91-7.16,9-10.02-3.36,12.52-8.14,25.13,2,36-2-.14-7.54-4.3-9.99-1.01,6.43,1.46,13.1,17.52,15.99,19.01-3.98,12.29-4.14,25.67,0,38l-7.99-1.99c1.61,3.32,2.6,8.98,3.99,11.99,1.65.39,4.12-.34,6,0l-2,5.99c-3.42-3.07-2.34-2.4-4-6-11.93-2.81-13.2-24.68-11.83-34.83.73-5.41,6.72-16.15,5.64-19.91-.46-1.61-12.06-10.22-13.81-19.26l8.04,2.96-4.1-7.95c8.57-1.34-.57-9.56-3.94-1.01.07-10.64,1.22-13.69,6-22Z"/>
      <path class="cls-2" d="M26.14,151.28c4.51-.57,4.8,3.59,7.35,6.04l2.65-.04c-.94,3.9-1.54,18.17,0,22h-6c2.53,3.3-.06,7.58,0,8-7.54-5.1-6.65-19.38-6-28l2-6c.21-.66-.26-1.55,0-2Z"/>
      <path class="cls-1" d="M36.14,179.28c.4,1,11.21,17.26,12,18-1.35,4.08-2.9,8.24,0,12-7.19-6.19-16.62-12.13-18-22-.06-.42,2.53-4.7,0-7.99h6Z"/>
      <path class="cls-1" d="M108.14,111.28c3.63,4.57,5.62,7.48,12,6-.47,3.6-4.34,9.67-6.89,12.13-.79.76-10.46,7.68-11.11,7.87.46-3.2-2.12-7.4-2-10,.26-5.87,8.29-9.23,8-16Z"/>
      <path class="cls-2" d="M24.14,9.28l4,4c-.74.46-6.99,8.5-12,12-4.09,2.86-7.64,1.09-9,10.02l-1-10.02c3.1-5.39,6.25-9.94,11.45-14.05,2.02-1.6,5.42-1.22,6.55-1.95Z"/>
      <path class="cls-1" d="M24.14,9.28c.22-.14-1.02-2.62,2.45-4.62,6.32-3.64,23.49-9.51,23.54,2.6-4.4,1.17-19.08,4.2-22,6.01l-4-4Z"/>
      <path class="cls-1" d="M30.14,137.28c.61.33,3.17-.73,3.81.14,1.16,1.57-.51,7.07.19,7.87.42.48,6.16-.32,8.01-.01-.89,3.51-5.35,9.3-6,12l-2.65.04c-2.55-2.45-2.84-6.61-7.35-6.04.65-1.13.56-2.74,2-4,.73-.64,4.02,1.14,4.02-1l-4.02-1,2-8Z"/>
      <path class="cls-1" d="M158.14,187.28c-1.54,2.19-2.84,2.7-4,4l-12-2c1.96-1.64,6.99-6.09,8-8,4.07-.17,5.66,3.28,8,6Z"/>
      <path class="cls-1" d="M78.14,183.28c-1.63,6.66,4.74,2.1,8,6-1.25,1.33-3.81,3.72-4,4l-1.1-1.92c-2.62,1.49-9.05,2.69-10.9,3.92-.16-6.78,4.84-8.51,8-12Z"/>
      <path class="cls-2" d="M.14,47.28c3.37-8.55,12.5-.33,3.94,1.01l4.1,7.95L.14,53.28c-.31-1.62-.01-4.13,0-6Z"/>
      <path class="cls-1" d="M100.14,137.28c-2.52,2.87-6.51,4.65-10,6v-6c3.13-.42,7.08.57,10,0Z"/>
      <path class="cls-1" d="M26.14,59.28l1.98,1.02v2.96c-2-.34-3.66,1.48-5.21,1.81-3.68.79-2.84-.22-2.77-3.79,1.8-.07,4.73-.81,6-2Z"/>
      <path class="cls-1" d="M38.14,125.28c-1.12,2.23,2.76,8.18-5,6.04-1.72-.48-1.82-4.6-3-6.04,2.66,2.04,5.38,2.01,8,0Z"/>
      <path class="cls-1" d="M46.14,41.28l3.98,2.03c1.44,2.02-4.28,3.49-6.77,3.58l-1.21-1.61c1.1-.85,1.61-2.64,4-4Z"/>
      <path class="cls-1" d="M112.14,97.28c.61.3,2.56-.6,3.58.42s.12,3.03.42,3.58h-4s0-4,0-4Z"/>
      <path class="cls-1" d="M24.14,159.28c.32-4.29,1.5-4.43,2-6l-2,6Z"/>
      <path class="cls-1" d="M60.14,249.28c-.93-2.42-1.35-2.94-2-6l2,6Z"/>
      <path class="cls-1" d="M32.14,55.28c.31-.18.17-2.84,4-6l-4,6Z"/>
      <path class="cls-1" d="M58.14,241.28c-.04-.22-1.79-.48-2-4l2,4Z"/>
      <path class="cls-2" d="M28.14,145.28l4.02,1c0,2.14-3.29.36-4.02,1v-2Z"/>
      <path class="cls-1" d="M28.14,123.28l-2-2c.28.58,1.46,1.22,2,2Z"/>
      <path class="cls-1" d="M102.14,93.28l-2-2c1.57.28,1.86,1.97,2,2Z"/>
      <path class="cls-1" d="M115.14,107.28c1.3.67,1.3,1.33,0,2v-2Z"/>
      <path class="cls-1" d="M76.14,137.28l2-2c-.14.03-.46,1.79-2,2Z"/>
    </g>
  </g>
</svg>