<?xml version="1.0" encoding="UTF-8"?>
<svg id="Calque_2" data-name="Calque 2" xmlns="http://www.w3.org/2000/svg" viewBox="0 0 237.59 193.62">
  <defs>
    <style>
      .cls-1 {
        fill: #e68a40;
      }

      .cls-2 {
        fill: #edc041;
      }
    </style>
  </defs>
  <g id="Calque_1-2" data-name="Calque 1">
    <g>
      <path class="cls-1" d="M192.06,15.34c5.67,2.65,16.51,9.27,22.49,14.31,8.02,6.74,28.34,29.03,21.73,40.43-56.12,32.58-111.94,65.84-167.4,99.57-24.17,14.7-44.34,43.38-60.53,4.19C-15.99,114.89,15.28,43.65,70.67,15.43c41.86-21.33,79.29-19.76,121.4-.08ZM78.71,80.49c-4.64-4.66-19.04,14.87-10.97,17.97,5.49,2.11,3.93-.65,5.16-2.87,1.33-2.4,7.65-13.26,5.81-15.1Z"/>
      <path class="cls-2" d="M78.71,80.49c1.84,1.85-4.48,12.7-5.81,15.1-1.23,2.22.33,4.98-5.16,2.87-8.07-3.1,6.33-22.63,10.97-17.97Z"/>
    </g>
  </g>
</svg>