<?xml version="1.0" encoding="UTF-8"?>
<svg id="Calque_2" data-name="Calque 2" xmlns="http://www.w3.org/2000/svg" viewBox="0 0 183.24 226.72">
  <defs>
    <style>
      .cls-1 {
        fill: #526364;
      }

      .cls-2 {
        fill: #a2c9df;
      }

      .cls-3 {
        fill: #4e7298;
      }

      .cls-4 {
        fill: #2a6395;
      }
    </style>
  </defs>
  <g id="Calque_1-2" data-name="Calque 1">
    <g>
      <path class="cls-4" d="M152.48,138.77c26.75-3.6,42.9,31.23,19.4,49.42-38.22,29.57-62.07-43.68-19.4-49.42Z"/>
      <g>
        <path class="cls-1" d="M48.94,194.25c-6.77-14.53-7.82-7.61-19.91-15.09C1.12,161.88-7.33,128.03,6.58,98.89c5.67-11.87,23.21-30.82,34.98-37.02,4.97-2.61,16.06-4.79,18.79-8.18s4.27-16.78,7.51-23.52C76.24,12.75,100.78-1.79,119.98.18c9.13.94,20.19,5.22,16.95,16.06-10.89-2.69-18.29-6.06-30.05-3.05-13.46,3.45-33.1,23.98-29.93,39.04,23.53-.97,54.27,15.88,49.87,42.91-1.13,6.91-5.92,12.3-12.78,13.21-28.41,3.77-41.76-11.34-50.29-36.23-43.56,12.69-64.87,79.1-12.92,96.1,1.77-16.06,35.07-42.44,46.53-23.41,6.9,11.47-2.25,34.21-13.96,38.91-7,2.81-17.32,1.01-22.47,2.53-2.62.77-5.24,10.37-12,8ZM110.65,93.98c11.92-7.4-21.95-30.97-31.7-25.72-.99.93,2.6,12.62,3.91,14.55.47.69,11.8,10.57,12.57,10.88,2.38.97,13.64,1.27,15.21.29ZM86.93,150.26c-2.6-2.73-26.81,13.86-23.98,21.98,13.4-.24,27.15-6.45,23.98-21.98Z"/>
        <path class="cls-1" d="M64.94,206.25c5.45-.32,3.37,3.01,5.51,3.87,6.61,2.65,26.77,4.08,26.44,13.14-.28,7.76-27.21.57-32.67-3.3-6.17-4.37-6.23-8.22-9.29-13.71,4.36,3.37,8.32.1,10,0Z"/>
        <path class="cls-3" d="M64.94,206.25c-1.68.1-5.64,3.37-10,0-2.62-4.71-3.78-7.22-6-12,6.76,2.37,9.38-7.23,12-8-1.34,7.55,1.87,13.17,4,20Z"/>
        <path class="cls-2" d="M86.93,150.26c3.17,15.53-10.58,21.74-23.98,21.98-2.83-8.11,21.38-24.71,23.98-21.98Z"/>
      </g>
    </g>
  </g>
</svg>