<?xml version="1.0" encoding="UTF-8"?>
<svg id="Calque_2" data-name="Calque 2" xmlns="http://www.w3.org/2000/svg" viewBox="0 0 227.52 218.01">
  <defs>
    <style>
      .cls-1 {
        fill: #865b44;
      }

      .cls-2 {
        fill: #8a9a99;
      }

      .cls-3 {
        fill: #9d7662;
      }

      .cls-4 {
        fill: #526364;
      }

      .cls-5 {
        fill: #a2c9df;
      }

      .cls-6 {
        fill: #4e7298;
      }
    </style>
  </defs>
  <g id="Calque_1-2" data-name="Calque 1">
    <g>
      <path class="cls-1" d="M102.97,5.15c35.99-10.56,72.61-4.39,104.98,14.02-1.37-9.19,11.4-20.75,15.63-11.6,1.41,3.05,3.21,28.62,3.47,34.49,1.27,28.87-.36,58.31-.98,87.18-3.26,9.98-12.49,3.51-15.31,7.13-7.52,24.47-30.08,45.87-29.91,71.64-1.89,12.08-15.59,14.81-15.87-.87,6.92,11.79,11.6,2.98,12.2-6.93.39-6.5-2.08-11.94-2.28-17.99-.34-10.13,5.04-31.97-7.92-31.08v34c-3.93-1.35-2.01-8.97-4.3-12.7-2.15-3.49-32.65-11.22-39.29-12.71-11.17-2.51-22.88-4.62-34.4-4.61l18.96-1.95c13.48,1.42,26.11,6.37,39.38,8.64,2.07.35,6.13,3.15,5.64-.65-36.14-12.23-74.11-14.79-111.98-10.01l21.98,3.96c-24.96,5.09-52.03-1.75-45.98,33.01,1.46,8.41,6.41,2.66,10.99,3.01,36.12,2.71,72.38,2.16,108,3.82,8.08.38,20.72,4.49,27.97,4.21,3.04-.12-1.61-10.16,3.01-10.02,1.6,5.42-1.87,11.53-1.98,15.99-23.56-7.16-48.78-2.86-73.08-3.92-13.79-.6-30.18-3.58-43.94-4.06-4.02-.14-27.98-1.07-28.99-.03-.84.86,1.82,10.56-1.86,13.13-2.21,1.55-10.04,1.55-12.26,0-1.41-.98-3.65-29.29-3.85-34.14-.53-13.24-5.66-43.56,13.98-38.98-.08.65.02,1.34,0,2-.14,5.53-1.86,13.05,5.05,14.09,6.38.96,35.53-7.32,45.98-8.07,19.14-1.37,39.56-.27,58.25,3.7,13.32,2.83,25.64,8.81,38.71,12.28.01-5.5.85-17.2,8.71-15.62,3.84.77,5.96,8.58,11.27,7.61,2.05-8.19,6.52-15.72,12.03-21.99.62-.7,1.36-1.31,2-2s1.33-1.33,2-2c1.02-1.03,3.84-1.55,6-4,3.47-3.94,2.45-4.73,4-8l7.98,2c-.43-5.13.66-11.03.02-16-.34-2.6-1.5-4.11-2-6,3.33-1.19,1.29-6.77,2-8,.37-.64,6.11,2.77,3.51-10.52-1.68-8.56-2.56-10.75-9.51-11.48-1.24-.13-2.74-.09-4,0,.34-3.49-.33-6.96-4-8-.07-1.32.15-2.7,0-4,6.52,1.52,8.38-21.74,8.21-25.02-.48-8.86-28.69-7.45-34.87-9.31-2.44-.73-4.62-4.35-3.33-5.65,1.18-1.19,11.14,5.35,11.97.02-15.16-3.8-31.14-9.9-46.92-10.15-12.5-.2-24.09,6.27-35.07,2.12ZM190.96,15.17h-3.98v1.96h3.98v-1.96ZM12.96,143.16c-13.83,2.01-7.89,6.71-7.89,14.9,0,12.04-2.06,33.5-.05,44.04.49,2.54,2.73,6.15,4.98,7.03,4.19,1.64,5.09-10.62,5.11-12.96.18-16.59-4.4-35.66-2.15-53.01ZM38.96,153.17h-5.98v1.96h5.98v-1.96ZM30.96,155.17c-3.52.49-12.65-.18-13.98,3.96,3.42-1.2,12.63-.11,13.98-3.96ZM162.96,165.17h-5.98v1.96h5.98v-1.96Z"/>
      <path class="cls-3" d="M164.97,205.15c.1-4.46,3.58-10.57,1.98-15.99-4.62-.14.03,9.91-3.01,10.02-7.26.28-19.89-3.84-27.97-4.21-35.62-1.66-71.88-1.11-108-3.82-4.58-.34-9.53,5.4-10.99-3.01-6.05-34.76,21.02-27.92,45.98-33.01l-21.98-3.96c37.87-4.78,75.83-2.22,111.98,10.01.49,3.8-3.57,1-5.64.65-13.27-2.27-25.9-7.22-39.38-8.64l-18.96,1.95c11.52-.01,23.22,2.1,34.4,4.61,6.64,1.49,37.14,9.22,39.29,12.71,2.29,3.73.38,11.35,4.3,12.7v-34c12.95-.89,7.58,20.96,7.92,31.08.2,6.05,2.67,11.49,2.28,17.99-.59,9.91-5.28,18.72-12.2,6.93-.01-.66-.02-1.34,0-2Z"/>
      <path class="cls-3" d="M102.97,5.15c10.98,4.14,22.57-2.32,35.07-2.12,15.77.25,31.75,6.35,46.92,10.15-.84,5.33-10.79-1.21-11.97-.02-1.29,1.3.89,4.92,3.33,5.65,6.18,1.86,34.39.46,34.87,9.31.18,3.28-1.69,26.55-8.21,25.02-.22-1.91-1.8-3.18-2-4-.6-2.41,1.52-6.1-1.23-8.2-3.21-2.45-23.64-8.75-28.35-9.39-1.52-.21-16.15-.24-16.98-.03-3.41.88-5.46,5.03-7.44,7.63-3.39,4.45-6.51,6.81-6.02,14l-7.98-8c.02-6.83,2.13-10.91-4.8-14.2-5.91-2.8-32.75-2.7-39.81-1.32-11.99,2.34-7.47,19.67-11.39,27.52-2.86.25-5.54.24-8,2-.66.07-1.34-.07-2,0-4.37-13.77-.95-29.66-1.99-44.01,16.18-.28,4.24,3.61,3.83,6.85-.54,4.24.34,9.53.41,13.92l3.73,17.23,4.04-25.98,3.96,3.98v-8.01s24.81.16,24.81.16c-.38-4.27,10.21-12.14,12.21-12.14h30c2.35,0,14.49,5.89,16.98.03-17.11-4.75-44.46-6.4-61.26-.36-1.66.6-14.44,12.78-8.72-1.66,2.47-.94,4.17-2.88,8-4ZM126.96,21.16c-4.23,1.13-15.64-3.44-13.98,3.98,4.23-1.13,15.64,3.44,13.98-3.98Z"/>
      <path class="cls-1" d="M62.97,61.15l-3.91-50.81c.69-5.23,2.05-7.77,7.33-8.81,5.74-1.13,4.58.79,6.58,5.62-3.62-3.14-7.56-2.14-8.02,2.98l8.02-.98c.61,1.62,2.59,8.02,3.02,8.02,6.29-4.96,12.63-5.61,18.98-8.02-5.72,14.44,7.06,2.26,8.72,1.66,16.81-6.04,44.15-4.38,61.26.36-2.5,5.87-14.63-.03-16.98-.03h-30c-2,0-12.6,7.86-12.21,12.14l-24.8-.16v8.01s-3.97-3.98-3.97-3.98l-4.04,25.98-3.73-17.23c-.07-4.39-.95-9.69-.41-13.92.41-3.24,12.35-7.13-3.83-6.85,1.05,14.35-2.38,30.24,1.99,44.01-.22.02-3.14,1.57-4,2Z"/>
      <path class="cls-2" d="M98.97,55.15v4c-10.29.83-37.48,5.55-44.07,12.92-3.88,4.35-1.76,11.75-7.93,11.08h-2c5.72-9.96,6.08-16.1,18-22,.86-.43,3.78-1.98,4-2,.66-.07,1.34.07,2,0,.81-.08,4.19,5.63,8-2,7.33-.65,14.68-1.65,22-2Z"/>
      <path class="cls-3" d="M72.97,7.15c.23.56-.22,1.41,0,2l-8.02.98c.46-5.12,4.4-6.12,8.02-2.98Z"/>
      <path class="cls-2" d="M146.97,39.15c-2.57,5.53-4.92,11.59-3.84,17.85,10.54.16,42.5,18.25,49.76,15.17,1.7-.72,3.54-3.83,6.08-5.02-.25,2.65-2.31,8.78-1.8,9.7,1.89,3.39,12.78,5.86,15.8.3-.04.66,0,1.33,0,2-.01,1-2.12,3.42-1.9,6.76.33,4.81,3.29,6.96,3.9,9.24.5,1.89,1.66,3.4,2,6-1.42,1.94-2.56,4.07-4,6,1.14-4.75-4.33-19.63-7.39-22.13-6.23-5.11-58.87-23.25-68.53-24.98-4.47-.8-7.97-.52-12.08-.89v-4c2.67-.05,5.35.07,8.01.01.03-3.33-.02-6.68,0-10.01l7.98,8c-.49-7.2,2.63-9.55,6.02-14Z"/>
      <path class="cls-2" d="M202.97,53.15c.15,1.3-.07,2.68,0,4,.14,2.65-.1,5.34,0,8-1.16.27-2.74,1.41-4,2,.56-6.03.33-12.04,2-18,.2.82,1.78,2.09,2,4Z"/>
      <path class="cls-3" d="M12.96,143.16c-2.25,17.36,2.33,36.42,2.15,53.01-.03,2.34-.93,14.6-5.11,12.96-2.25-.88-4.49-4.49-4.98-7.03-2.01-10.54.05-32,.05-44.04,0-8.19-5.93-12.89,7.89-14.9Z"/>
      <path class="cls-3" d="M210.97,65.15c6.95.74,7.83,2.93,9.51,11.48,2.6,13.28-3.14,9.87-3.51,10.52.34-3.49-.33-6.96-4-8,0-.67-.04-1.34,0-2,.23-4.15.28-8.3-2-12Z"/>
      <path class="cls-3" d="M216.97,101.15c.64,4.97-.45,10.87-.02,16l-7.98-2c1.75-3.71.2-2.91,4-8,1.44-1.93,2.58-4.06,4-6Z"/>
      <path class="cls-5" d="M216.97,87.15c-.71,1.23,1.33,6.81-2,8-.61-2.28-3.57-4.44-3.9-9.24-.23-3.34,1.88-5.75,1.9-6.76,3.67,1.04,4.34,4.51,4,8Z"/>
      <path class="cls-3" d="M206.97,65.15c-1.31.09-2.91-.26-4,0-.1-2.66.14-5.35,0-8,3.67,1.04,4.34,4.51,4,8Z"/>
      <rect class="cls-3" x="156.98" y="165.17" width="5.98" height="1.96"/>
      <rect class="cls-3" x="186.98" y="15.17" width="3.98" height="1.96"/>
      <path class="cls-1" d="M126.96,21.16c1.66,7.42-9.75,2.85-13.98,3.98-1.66-7.42,9.75-2.85,13.98-3.98Z"/>
      <path class="cls-5" d="M76.97,57.15c-3.81,7.63-7.19,1.92-8,2,2.46-1.76,5.14-1.75,8-2Z"/>
      <path class="cls-5" d="M182.97,97.15c-6.6-1.86-13.23-2.3-20-4-2.99-5.76,12.82-5,16.72-3.72,3.45,1.13,3.52,4.6,3.28,7.72Z"/>
      <path class="cls-4" d="M124.97,55.15v4c-8.74-.79-17.26-.71-26,0v-4c8.6-.41,17.38.17,26,0Z"/>
      <g>
        <path class="cls-6" d="M162.97,93.15c6.77,1.7,13.4,2.14,20,4,6.71,1.89,5.54,2.04,10,6-4.15-4.18-29.65-2.79-36.51-4.49-5.64-1.39-14.91-10.47-20.99-13.01-16.08-6.71-47.58-4.74-64.98-1.99-5.39.85-21.3,4.82-24.91,8.1-2.44,2.22-21.8,30.63-23.05,33.94-2.03,5.35-1.8,9.9-1.57,15.44l-5.98-1.99c.02-.66-.08-1.35,0-2,1.96-15.72,21.41-39.05,30-54h2c30.08,1.03,60.64-14.94,91.13-2.13,10.09,4.24,11.2,8.7,24.87,12.13Z"/>
        <path class="cls-2" d="M192.97,103.15c2.05,2.07,6.71,19.84,6,24-.67.67-1.36,1.3-2,2l-2,2c-5.5,6.27-9.98,13.8-12.03,21.99-5.31.97-7.43-6.83-11.27-7.61-7.86-1.58-8.7,10.12-8.71,15.62-13.07-3.48-25.39-9.45-38.71-12.28-18.69-3.97-39.11-5.07-58.25-3.7-10.46.75-39.6,9.03-45.98,8.07-6.91-1.04-5.19-8.57-5.05-14.09l5.98,1.99c-.22-5.54-.45-10.08,1.57-15.44,1.25-3.31,20.61-31.72,23.05-33.94,3.61-3.28,19.52-7.25,24.91-8.1,17.4-2.75,48.9-4.71,64.98,1.99,6.08,2.54,15.36,11.61,20.99,13.01,6.86,1.7,32.37.3,36.51,4.49ZM77.97,91.15v2c1.3-.67,1.3-1.33,0-2ZM96.96,91.16c-2.01-2.04-8.03,3.9-5.98,5.98s8.03-3.9,5.98-5.98ZM66.99,113.15c5.97-3.26,9.85-11.3,9.96-18-5.17,3.49-8.55,12.05-9.96,18ZM134.96,107.14c3.6-3.99-4.86-10.52-9.98-7.98-3.37,2.68,8.88,9.19,9.98,7.98ZM142.95,107.15c-4.74,2.02-6.52,9.31-7,13.96l7-13.96ZM130.97,127.15c-1.71,1.05-5.89,4-3.02,3.96,1.05-.02,2.34-2.84,3.02-3.96.63-.38,2.81.32,3.99,0,.54-4.18.19-4.53-3.99-3.99-.33,1.18.38,3.37,0,3.99ZM120.98,137.13c2.93.66,4.18-.84,5.95-3l-5.95,1.04v1.96Z"/>
        <path class="cls-4" d="M204.97,123.15c-2.16,2.45-4.98,2.97-6,4,.71-4.16-3.95-21.93-6-24,7.13,6.32,9.01,10.89,12,20Z"/>
        <path class="cls-3" d="M30.96,155.17c-1.35,3.85-10.56,2.76-13.98,3.96,1.33-4.14,10.46-3.47,13.98-3.96Z"/>
        <rect class="cls-3" x="32.98" y="153.17" width="5.98" height="1.96"/>
        <path class="cls-4" d="M194.97,131.15l2-2c-.64.69-1.38,1.3-2,2Z"/>
        <path class="cls-6" d="M66.99,113.15c1.41-5.95,4.79-14.51,9.96-18-.11,6.7-3.99,14.74-9.96,18Z"/>
        <path class="cls-5" d="M134.96,107.14c-1.09,1.21-13.35-5.3-9.98-7.98,5.12-2.54,13.58,3.99,9.98,7.98Z"/>
        <path class="cls-6" d="M142.95,107.15l-7,13.96c.48-4.65,2.26-11.94,7-13.96Z"/>
        <path class="cls-5" d="M96.96,91.16c2.05,2.07-3.97,8.02-5.98,5.98s3.97-8.02,5.98-5.98Z"/>
        <path class="cls-6" d="M130.97,127.15c.38-.63-.32-2.81,0-3.99,4.18-.54,4.53-.19,3.99,3.99-1.18.33-3.37-.38-3.99,0Z"/>
        <path class="cls-4" d="M120.98,137.13v-1.96l5.95-1.04c-1.77,2.16-3.02,3.66-5.95,3Z"/>
        <path class="cls-4" d="M130.97,127.15c-.68,1.12-1.96,3.94-3.02,3.96-2.87.04,1.31-2.91,3.02-3.96Z"/>
        <path class="cls-6" d="M77.97,91.15c1.3.67,1.3,1.33,0,2v-2Z"/>
      </g>
    </g>
  </g>
</svg>