<?xml version="1.0" encoding="UTF-8"?>
<svg id="Calque_2" data-name="Calque 2" xmlns="http://www.w3.org/2000/svg" viewBox="0 0 195.1 171.67">
  <defs>
    <style>
      .cls-1 {
        fill: #d35337;
      }

      .cls-2 {
        fill: #e68a40;
      }
    </style>
  </defs>
  <g id="Calque_1-2" data-name="Calque 1">
    <g>
      <path class="cls-1" d="M77.27.69c37.84-5.19,83.92,19.73,102.86,52.1,13.45,23,19.57,68.45,11.03,93.79-1.16,3.44-11.32,23.41-13.43,24.71-7.05,4.34-50.81-29.37-59.33-34.77-30.13-19.11-61.27-37.01-90.52-57.48C23.01,75.62-.7,60,.02,55.54c.88-5.53,18.56-25.94,23.91-30.2C36.04,15.69,62.04,2.78,77.27.69ZM149.74,48.16c2.95-2.95-8.98-10.79-11.01-11.95-1.21,3.54,8.56,14.4,11.01,11.95ZM152.75,52.17v2c1.3-.67,1.3-1.33,0-2ZM139.74,84.16c4.77-4.07-22.5-13.86-25.99-11.97,1.37,7.18,22.72,14.76,25.99,11.97ZM67.75,84.15c-3.2-9.34-8.37-11.26-17.99-9.97-1.84,6.41,16.47,11.17,17.99,9.97ZM98.75,78.17v2c1.3-.67,1.3-1.33,0-2ZM109.43,80.49c-1.17-.68-6.94-1.21-7.67.67l9.98,7c.72-.78-1.68-7.3-2.31-7.67Z"/>
      <path class="cls-2" d="M139.74,84.16c-3.27,2.79-24.62-4.79-25.99-11.97,3.49-1.89,30.76,7.9,25.99,11.97Z"/>
      <path class="cls-2" d="M67.75,84.15c-1.52,1.2-19.83-3.56-17.99-9.97,9.62-1.29,14.78.63,17.99,9.97Z"/>
      <path class="cls-2" d="M149.74,48.16c-2.45,2.45-12.22-8.41-11.01-11.95,2.03,1.16,13.96,9,11.01,11.95Z"/>
      <path class="cls-2" d="M109.43,80.49c.63.36,3.03,6.88,2.31,7.67l-9.98-7c.73-1.88,6.49-1.34,7.67-.67Z"/>
      <path class="cls-2" d="M152.75,52.17c1.3.67,1.3,1.33,0,2v-2Z"/>
      <path class="cls-2" d="M98.75,78.17c1.3.67,1.3,1.33,0,2v-2Z"/>
    </g>
  </g>
</svg>