<?xml version="1.0" encoding="UTF-8"?>
<svg id="Calque_2" data-name="Calque 2" xmlns="http://www.w3.org/2000/svg" viewBox="0 0 204.7 192.6">
  <defs>
    <style>
      .cls-1 {
        fill: #526364;
      }
    </style>
  </defs>
  <g id="Calque_1-2" data-name="Calque 1">
    <path class="cls-1" d="M144.42,2.74c14.04,25.89-35.56,18.67-43.04,25.99-9.55,9.34,7.73,35.09-2.81,52.19s-24.93,5.6-33.24,11.75c-1.3.96-2.82,9.15-4.74,12.28-2.84,4.65-8.24,11.86-11.73,16.27-2.64,3.34-18.17,16.06-15.95,19.02,5.58,2.25,37.13,14.81,39.99,12.04-.73-22.7,1.55-39.44,25.9-45.11,4.94-1.15,22.13-1.1,24.3-4.11,6.09-8.47-9.18-28.83.75-38.82,3.57-3.6,8.02-2.79,10.87,1.23,4.45,6.27,11.97,32.16,9.82,39.37-.32,1.06-11.79,14.37-13.02,15.06-6.13,3.44-18.92,2.73-26.6,5.4-17.81,6.18-25.4,39.41-2.51,42.69,7.7,1.1,14.81-19.38,19.63-25.57,8.06-10.35,22.6-21.9,35.97-14.25,4.95,2.83,17.66,30.32,24.47,16.69,3.8-7.61-1.89-16.88,11.49-16.28,6.58.29,10.9,6.47,10.71,12.77-.04,1.36-6.86,24.97-7.64,26.08-9.16,12.92-32.39-1.72-41.12-9.15-10.98-9.36-13.46-25.59-26.1-2.07-2.86,5.33-14.41,33.97-17.23,35.75-1.61,1.01-10.11.69-12.59.22-7.72-1.47-32.23-15.99-41.71-20.27-12.44-5.62-46.81-17.98-55.46-26.53-9.91-9.81,8.66-16.96,16.1-24.05,2.62-2.5,20.79-20.14,21.44-21.51,1.74-3.65,1.15-16.64,5.01-21.02,8.78-9.94,44.19,9.41,36.97-18.98-3.38-13.3-22.83-26.4-10.6-39.68,3.08-3.34,40.99-18.47,46.63-19.36,5.56-.87,22.31-1.71,26.03,2Z"/>
  </g>
</svg>