<?xml version="1.0" encoding="UTF-8"?>
<svg id="Calque_2" data-name="Calque 2" xmlns="http://www.w3.org/2000/svg" viewBox="0 0 374.67 97.48">
  <defs>
    <style>
      .cls-1 {
        fill: #865b44;
      }

      .cls-2 {
        fill: #8a9a99;
      }

      .cls-3 {
        fill: #526364;
      }

      .cls-4 {
        fill: #efd078;
      }

      .cls-5 {
        fill: #8e9142;
      }
    </style>
  </defs>
  <g id="Calque_1-2" data-name="Calque 1">
    <g>
      <path class="cls-5" d="M121.65,73.79c-.73-.24-1.7-4.35-3.98-4l1.97,17.99c-3.91-2.56-17.99,2.09-17.99-2.99v-31c-4.4-.13-.84,8.86-2.01,10-1.9,1.86-45.06-11.12-51.35-13.65C28.46,42.19,8.57,28.03,4.63,5.83c2.26,4.48,16.17,5.53,16.79,6.19.81.86-.1,4.48.64,6.27,3.58,8.73,35.07,13.3,44.24,11.46l5.35-7.95c5.58.5,11.33,1.33,16,2,32.65,4.71,33.42-.3,63.16-3.84,14.72-1.75,30.37-1.63,44.85-.13l-8,6c1.84,5.57,8.97,3.88,13.99,3.97l-3.99-9.99h50c.84,0-.05-14.45,10-8-6.25,3.25-4.08,3.46-2,8,.9,1.96-1.04,6.62,7,4.08,1.95-.62-.02-4.76,2.17-6.28.65-.45,12.95-3.87,13.81-3.83l1.03,6.03c11.3,2.95,1.02-8.45,9.98-8.01-.08,3.16-.22,6.5,1.82,9.2,5.38,7.13,40.99,8.68,51,11.01,2.96.69,9.25,5.54,11.17,3.81.76-.69,2.21-16.98,13.96-2.95,1.66,1.98,2.82,2.82,2.02,5.88-8,7.86-20.29,3.15-29.95,7.09l21.98,1.99c-3.14,7.61-7.5,5.02-13.99,3.99l1.99,5.97c-7.97-.09-15.66,2.13-23.37,3.75-3.67.77-7.8-1.8-6.63,4.27-2.54.34-5.44-.31-8,0-2.08-3.32-7.59-1.99-10.97-2.04-20.41-.26-41.07,1.65-61.02,6.05l-1.99-6.01c.43,9.82-3.23,16.26,5.98,21.97-4.76-2.18-6.68,4.04-7.19,4.07-12.11.85-11.33-10.35-14.37-15.58-1.63-2.81-3.24-3.07-4.44-4.47-1.66-1.93-2.77-4.45-5.02-5.96l3.02,5.96c-1.22,3.55-3.5,3.7-6.85,4.11-17.14,2.12-37.93-2.59-55.19.85-3.77,3-.12,2.66.04,3.04.57,1.36,1.48,2.63,2,4-6.28,3.21-12.9,4.71-20,4-1.07-2.95-2.26-9.94-3.89-11.13-2.81-2.04-7.86-.12-10.11-.87ZM177.65,27.77c-1.55-5.1-7.6-4.01-12-3.96,1.55,5.1,7.6,4.01,12,3.96ZM227.64,31.78c.5-7.16-7.26-6.27-11.99-5.98v5.98s11.99,0,11.99,0ZM139.66,31.8l-16,1.97,15.98,4.01.02-5.98ZM187.64,31.81h-7.98s0,3.97,0,3.97l7.97-2.02v-1.95ZM363.65,33.81h-5.99s0,3.97,0,3.97c2.76.62,5.32-1.08,5.99-3.97ZM291.65,49.79c.37.37-.57,10.18,6,0,1.58.45,5.36,1.99,6,2,1.48.03,4.16-.03,4-2l30-.02c.15-1.29-2.66-3.98-3-3.98h-48c-.78,0-14.71-4.25-13.03-7.98-5.33.75.49,5.76,2.1,6.91,4.18,3.02,15,4.14,15.93,5.07ZM199.65,59.79h-32v2h32v-2ZM208.65,61.79v2c1.3-.67,1.3-1.33,0-2Z"/>
      <path class="cls-3" d="M87.65,23.79c-.9-9.58,9.51.36,12.71-.28,2.42-.49,4.04-5.32,8.36-5.8,5.07-.57,8.1,4.29,12.91,4.08l3.08-8,12.92,6.01c-2.27-12.26,11.26-3.2,16.76-3.92,1.34-.17,1.09-3.79,2.59-4.14,4.58-1.07,9.37,2.28,13.58,2,3.66-.25,6.38-3.68,10.04-3.77,3.91-.1,9.45,4.31,11.93,3.69s2.45-5.75,4.28-6.03c3.75-.59,6.69,3.77,10.01,4.22,5.61.78,8.11-3.3,9.84-3.33.95-.02,9.59,3.46,17.95,3.72,3.23.1,6.97,2.19,9.68,1.71s4.27-15.16,18.86-8.64c2.93,1.31,6.05,6.04,7.78,6.35,3.17.57,4.9-6.23,13.52-5.8,10.31.51,6.66,8.01,11.26,12.89,4.16,4.42,39.3,9.33,46.94,9.24,8.11-.09,11.5-4.45,17.87-4.32,13.04.27,16.44,8.86,12.75,20.77-.25.81-10.98,11.67-11.78,12.21-5.69,3.86-33.45,8.01-41.85,9.15-1.18-6.07,2.96-3.5,6.63-4.27,7.71-1.61,15.4-3.83,23.37-3.75l-1.99-5.97c6.49,1.02,10.85,3.62,13.99-3.99l-21.98-1.99c9.66-3.94,21.95.77,29.95-7.09.8-3.06-.37-3.9-2.02-5.88-11.75-14.04-13.2,2.26-13.96,2.95-1.93,1.73-8.21-3.12-11.17-3.81-10.01-2.33-45.62-3.88-51-11.01-2.04-2.7-1.9-6.04-1.82-9.2-8.96-.44,1.32,10.96-9.98,8.01l-1.03-6.03c-.86-.04-13.16,3.38-13.81,3.83-2.19,1.52-.22,5.66-2.17,6.28-8.04,2.54-6.1-2.12-7-4.08,8.18,1.58,8.48-3.84,2-8-10.05-6.45-9.16,8-10,8h-50l3.99,9.99c-5.02-.09-12.15,1.6-13.99-3.97l8-6c-14.48-1.5-30.12-1.62-44.85.13-29.74,3.54-30.51,8.55-63.16,3.84Z"/>
      <path class="cls-3" d="M121.65,73.79c-1.8,6.76,6.77,9.52,7.71,13.41,3.12,12.86-21.94,14.1-29.33,1.2-3.72-6.49-1.1-17.85-2.65-20.34-1.19-1.92-35.66-8.41-43.65-11.35C30.02,47.96,8.19,35.56.99,9.41-3.66-7.48,9.18,2.84,16.22,6.26c2.84,1.38,7.52.88,9.01,1.92,1.83,1.27,1.95,7.25,2.45,7.62,1.13.85,6.47-2.57,8.7-2.2,1.91.31,1.82,4.33,3.25,5.28,1.96,1.31,4.95-.95,7.91-.08,11.18,3.28,12.98,1.99,24.12,2.99l-5.35,7.95c-9.18,1.85-40.67-2.73-44.24-11.46-.73-1.78.17-5.41-.64-6.27-.62-.66-14.53-1.71-16.79-6.19,3.95,22.19,23.84,36.36,43.66,44.31,6.29,2.52,49.45,15.51,51.35,13.65,1.17-1.14-2.39-10.14,2.01-10v31c0,5.08,14.08.44,17.99,2.99l-1.97-17.99c2.28-.35,3.25,3.76,3.98,4Z"/>
      <path class="cls-3" d="M217.65,69.79c1.2,1.4,2.82,1.67,4.44,4.47,3.04,5.23,2.26,16.43,14.37,15.58.51-.04,2.43-6.25,7.19-4.07-9.21-5.71-5.55-12.15-5.98-21.97l1.99,6.01c19.95-4.4,40.61-6.31,61.02-6.05,3.38.04,8.89-1.28,10.97,2.04-5.61.68-34.38,2.52-35.76,4.23-6.12,7.58,5.11,7.43,5.56,7.92,6.8,7.44-12.21,15.74-22.46,9.89-2.57-1.47-.9-3.29-1.34-4.04,21.36,1.03,8.3-25.16-2-4-1.21-2.92-1.84-7.56-2.12-7.85-.94-.98-9.25.3-11.89-.15-4.91,15.27,11.98,7.06,10.01,16.89-3.28,16.35-36.87,6.07-32-10.89h-66c-.16-.38-3.81-.04-.04-3.04,17.26-3.44,38.05,1.27,55.19-.85,3.35-.41,5.63-.56,6.85-4.11h2Z"/>
      <path class="cls-3" d="M155.65,81.79c1.22,3.23,4.28,8.13-1.3,9.84-.89.27-17.82-1.49-18.58-2.03s.19-2.95-.12-3.8c7.1.71,13.72-.79,20-4Z"/>
      <path class="cls-5" d="M255.65,79.79c10.3-21.16,23.36,5.03,2,4-.72-1.24-1.45-2.68-2-4Z"/>
      <path class="cls-3" d="M291.65,49.79c-.93-.93-11.75-2.04-15.93-5.07-1.6-1.16-7.42-6.16-2.1-6.91-1.68,3.73,12.25,7.98,13.03,7.98h48c.34,0,3.15,2.69,3,3.98l-30,.02-3.99-1.99v3.99c-.66-.01-4.43-1.55-6.01-2-1.06-.3-4.23-4.72-6,0Z"/>
      <path class="cls-3" d="M227.64,31.78h-12s0-5.98,0-5.98c4.74-.29,12.49-1.18,11.99,5.98Z"/>
      <rect class="cls-3" x="167.65" y="59.79" width="32" height="2"/>
      <polygon class="cls-3" points="139.66 31.8 139.64 37.78 123.66 33.77 139.66 31.8"/>
      <path class="cls-1" d="M257.65,11.79c6.48,4.16,6.18,9.58-2,8-2.08-4.54-4.25-4.75,2-8Z"/>
      <path class="cls-3" d="M177.65,27.77c-4.4.05-10.45,1.14-12-3.96,4.4-.05,10.45-1.14,12,3.96Z"/>
      <path class="cls-4" d="M297.65,49.79c-6.57,10.18-5.63.37-6,0,1.77-4.72,4.94-.3,6,0Z"/>
      <polygon class="cls-3" points="187.64 31.81 187.63 33.76 179.66 35.78 179.66 31.8 187.64 31.81"/>
      <path class="cls-3" d="M363.65,33.81c-.67,2.89-3.23,4.59-5.99,3.97v-3.98s5.99,0,5.99,0Z"/>
      <path class="cls-2" d="M307.65,49.79c.16,1.97-2.52,2.03-4,2v-3.99s4,1.99,4,1.99Z"/>
      <path class="cls-1" d="M208.65,61.79c1.3.67,1.3,1.33,0,2v-2Z"/>
      <path class="cls-1" d="M217.65,69.79h-2l-3.02-5.96c2.25,1.51,3.36,4.03,5.02,5.96Z"/>
    </g>
  </g>
</svg>