<?xml version="1.0" encoding="UTF-8"?>
<svg id="Calque_2" data-name="Calque 2" xmlns="http://www.w3.org/2000/svg" viewBox="0 0 152.44 159.57">
  <defs>
    <style>
      .cls-1 {
        fill: #edc041;
      }
    </style>
  </defs>
  <g id="Calque_1-2" data-name="Calque 1">
    <path class="cls-1" d="M54.32,68.11c2.31-2.32-17.08-49.93-12.59-59.45,3.57-7.57,10.94-3.44,17.48-4.64,5.34-.98,11.13-7.18,16.15-1.95,7.56,7.88,12.18,54.34,18.1,55.81,6.41,1.6,34.2-11.36,42.07-11.74,10.2-.48,7.08,7.98,9.31,12.44,2.98,5.96,11.39,12.92,5.63,20.68-7.53,10.15-45.05,7.57-47.88,16.2-3.97,12.14,15.77,48.9,7.71,55.66-3.11,2.61-26.3,10.32-30.03,8.02-9.77-6.02-11.26-54.32-19.32-56.82-11-3.41-44.02,22.96-55.54,5.68-22-32.98,28.87-33.37,48.91-39.91Z"/>
  </g>
</svg>