<?xml version="1.0" encoding="UTF-8"?>
<svg id="Calque_2" data-name="Calque 2" xmlns="http://www.w3.org/2000/svg" viewBox="0 0 180.05 212.09">
  <defs>
    <style>
      .cls-1 {
        fill: #865b44;
      }

      .cls-2 {
        fill: #8a9a99;
      }

      .cls-3 {
        fill: #9d7662;
      }

      .cls-4 {
        fill: #526364;
      }

      .cls-5 {
        fill: #a2c9df;
      }

      .cls-6 {
        fill: #efd078;
      }

      .cls-7 {
        fill: #8e9142;
      }

      .cls-8 {
        fill: #e68a40;
      }

      .cls-9 {
        fill: #edc041;
      }
    </style>
  </defs>
  <g id="Calque_1-2" data-name="Calque 1">
    <g>
      <path class="cls-3" d="M50.06,174.3c-14.82-5.9-14.84-53.4-13.98-66.98,2.39-37.59,16.21-77.65,61.07-75.1,58.78,3.35,58.63,100.88,40.85,140.63-.82,2.01-2.91,1.08-3.94,1.45-.57.2-1.36-.18-2,0,.22-1.25-.32-2.97,0-4,1.94-6.25,5.97-12.41,7.49-19.51,6.66-31.18,6.46-104.88-34.97-112.01-60.55-10.43-67.26,61.01-62.53,104.53,1.22,11.28,8.4,20.12,10.01,30.99-.62-.2-1.44.22-2,0Z"/>
      <path class="cls-4" d="M106.06,158.3c0,6.65,0,13.36,0,20.01,8.78.23,17.64-1.71,26.01-4.01.64-.18,1.43.2,2,0-.78,6.4,2.04,25.65-2.5,29.52-.55.47-12.14,5.68-13.05,5.94-13.45,3.83-65.05,4.9-68.42-12.49-1.29-6.69.81-15.87-.04-22.97.56.22,1.38-.2,2,0,1.05.34,2.85-.31,4,0,7.2,1.98,14.19,5.26,22.01,4,1.36-5.12-1.77-10.73-1.72-15.09.02-1.63,1.71-2.66,1.72-2.92h4c-.9,14.05-2.58,23.36,15.01,20,7.31-1.4,5.65-15.77,4.99-22h4ZM64.06,184.3c-1.17-6.89-1.78-3.46-9.99-3.99,4.83,13.93-4.29,18.56,11.57,23.4,12.38,3.77,50.87,4.02,61.2-3.2,3.79-2.65,1.62-15.89,1.2-20.23-4.65-2-8.37,3.54-9.99,4.01-16.92,4.91-36.66.92-54,0Z"/>
      <path class="cls-6" d="M132.06,170.3c-30.03,6.05-17.41-15.37-22.29-21.79-.69-.91-3.02.09-3.71-.21-2.21-.98-2.12-2.16-6-2,5.26-2.08,3.24-4.62,4-8,14.24-13.85,8.25-38.83-1.16-53.84-1.26-2.01-9.99-15.47-12.83-12.16-2.15,25.97-33.05,44.95-10.01,71.99h-2c-16.63,2.4-4.56,18.02-8.87,24.14-3.37,4.77-14.33-2.27-13.13,5.86-1.15-.31-2.95.34-4,0-1.62-10.87-8.79-19.71-10.01-30.99-4.73-43.52,1.98-114.96,62.53-104.53,41.43,7.14,41.63,80.84,34.97,112.01-1.52,7.1-5.55,13.25-7.49,19.51Z"/>
      <path class="cls-2" d="M118.06,184.3c1.61-.47,5.33-6.01,9.99-4.01.42,4.34,2.59,17.58-1.2,20.23-10.34,7.21-48.83,6.97-61.2,3.2-15.86-4.84-6.74-9.47-11.57-23.4,8.22.52,8.83-2.91,9.99,3.99s3.5,3.16,4,4c.57.96-1.34,5.48,1.08,6.13,6.2,1.67,42.29.61,46.92-4.13,1.99-2.04,2.45-3.04,2-6Z"/>
      <path class="cls-2" d="M100.06,152.3l2,2c.09,1.32-.14,2.69,0,4,.65,6.23,2.32,20.6-4.99,22-17.59,3.36-15.91-5.95-15.01-20,.17-2.65-.15-5.36-.01-8.01h18.01Z"/>
      <path class="cls-5" d="M118.06,184.3c.45,2.96-.01,3.96-2,6-16-.51-32.3,1.56-48-2-.5-.84-2.88,2.62-4-4,17.34.92,37.08,4.91,54,0Z"/>
      <path class="cls-1" d="M82.06,146.3l2,2c1.03.27,2.7-.07,4,0,5.87.32,9.63-1.9,12-2,3.88-.16,3.79,1.02,6,2v10h-4c-.14-1.31.09-2.68,0-4l1.98-1.02v-2.97s-2.96,0-2.96,0l-1.02,1.98h-18.01c-.14,2.64.18,5.35.01,8h-4c.08-5.32-.06-10.68,0-16h2c.46.54,1.5,1.63,2,2Z"/>
      <path class="cls-9" d="M88.06,144.3c-9.49-3.03-13.03-16.03-12.06-25.04.37-3.43,14.59-35.65,16.28-36.74,5.69-3.68,11.79,12.41,13.21,17.34,4.36,15.09,1.83,23.87-1.43,38.43-.76,3.38,1.26,5.92-4,8-2.37.1-6.13,2.32-12,2-.18-1.28.26-2.85,0-4,.8.26,4.17.23,3.93-.89-6.05-9.91-6.4-19.7,1.08-29.1,6.52,8.62-.21,18.44,1.01,27.99,8.05-2.8,5.13-30.89,1.95-33.99-3.63-3.55-3.44,1.81-4.14,2.91-11.22,17.43-8.03,14.78-3.83,33.08Z"/>
      <path class="cls-7" d="M104.06,138.3c3.26-14.56,5.79-23.35,1.43-38.43-1.42-4.93-7.52-21.02-13.21-17.34-1.69,1.09-15.91,33.31-16.28,36.74-.97,9.01,2.57,22.01,12.06,25.04.26,1.15-.18,2.72,0,4-1.3-.07-2.97.27-4,0-.29-.07-1.25-1.44-2-2-.5-.37-1.54-1.46-2-2-23.04-27.04,7.86-46.02,10.01-71.99,2.84-3.32,11.57,10.15,12.83,12.16,9.41,15.01,15.41,39.99,1.16,53.84Z"/>
      <path class="cls-4" d="M116.06,190.3c-4.63,4.74-40.72,5.8-46.92,4.13-2.42-.65-.51-5.17-1.08-6.13,15.7,3.56,32,1.49,48,2Z"/>
      <polygon class="cls-4" points="100.06 152.3 101.08 150.32 104.05 150.31 104.04 153.28 102.06 154.3 100.06 152.3"/>
      <path class="cls-8" d="M88.06,144.3c-4.2-18.3-7.39-15.65,3.83-33.08.71-1.1.51-6.46,4.14-2.91,3.18,3.1,6.1,31.19-1.95,33.99-1.22-9.55,5.51-19.37-1.01-27.99-7.47,9.39-7.13,19.19-1.08,29.1.23,1.12-3.13,1.15-3.93.89Z"/>
      <g>
        <path class="cls-6" d="M150.07,54.29c-5.5-5.43,16.25-21.91,18-12.95,1.23,6.33-14.75,16.16-18,12.95Z"/>
        <path class="cls-6" d="M26.05,148.31c2.69,2.35-10.75,15.64-15.98,11.98-1.08-8.97,8.77-12.75,15.98-11.98Z"/>
        <path class="cls-6" d="M178.06,76.31c6.18,6.23-18.07,14.24-17.96,6.99.06-3.71,15.47-9.5,17.96-6.99Z"/>
        <path class="cls-6" d="M20.07,114.32c5.95,5.35-18.16,7.37-19.99,5.97-1.39-7.73,17.72-8.02,19.99-5.97Z"/>
        <path class="cls-6" d="M22.04,76.36c6.85,8.52-18.11,7.93-17.97-2.05,1.11-.93,17.4,1.34,17.97,2.05Z"/>
        <path class="cls-6" d="M180.05,124.29c-1.39,1.18-19.52-1.11-17.98-7.98,6.38-.36,17.48-.71,17.98,7.98Z"/>
        <path class="cls-6" d="M98.05.29c-.85,6.63,3.63,19.77-5.98,20.01-1.41-7.25-3.82-22.6,5.98-20.01Z"/>
        <path class="cls-6" d="M140.05,10.31c2.74,2.58-7.39,21.83-13.98,15.98-1.96-1.74,7.13-22.43,13.98-15.98Z"/>
        <path class="cls-6" d="M62.05,26.29c-4.88,4.81-20.05-16.21-10.96-17.98,5.78-1.13,13.09,15.88,10.96,17.98Z"/>
        <path class="cls-6" d="M36.05,52.29c-5.65,2.81-20.94-8.34-19.98-12.96,1.91-9.19,23,10.27,19.98,12.96Z"/>
        <path class="cls-6" d="M176.05,160.29c-3.54,3.21-20.16-5.44-19.98-11.98,8.41-.92,20.62.8,19.98,11.98Z"/>
      </g>
    </g>
  </g>
</svg>