<?xml version="1.0" encoding="UTF-8"?>
<svg id="Calque_2" data-name="Calque 2" xmlns="http://www.w3.org/2000/svg" viewBox="0 0 111.14 264.7">
  <defs>
    <style>
      .cls-1 {
        fill: #e68a40;
      }
    </style>
  </defs>
  <g id="Calque_1-2" data-name="Calque 1">
    <path class="cls-1" d="M100.84,16.33c-14.57,11.41-39.99,17.03-54.05,26.9-2.04,1.43-5.77,3.4-5.24,6.44,1.5,8.63,65.06,23.62,67.77,32.48.78,2.55-.27,3.98-1.73,5.88-6.17,8.05-60.15,24.55-60.16,27.88-.3,3.63,3.44,4.65,5.92,6.08,13.96,8,44.29,16.67,54.67,24.79s-9.07,15.53-15.22,18.46c-10.29,4.89-37.46,12.27-44.11,17.5-1.74,1.37-1.82,3.44-1.28,5.16,1,3.17,53.78,23.06,60.18,27.86,1.61,1.6,2.41,3.65,1.74,5.89-1.44,4.81-85.64,44.27-90.5,43.02-4.38-1.13-11.71-12.41-6.84-17.25s39.65-18.16,49.51-23.56c2.26-1.24,4.87.13,3.93-3.94-3.13-6.64-49.48-20.69-56-27.99-11.78-13.18,21.2-21.75,30.06-25.98,6.67-3.19,13.53-6.53,20.01-10.09,1.83-1.01,5.36-.27,3.93-3.93-2.37-6.03-47.42-19.92-56.7-27.3-2.96-2.36-6.09-6.27-5.04-10.34,2.21-8.5,43.57-18.75,52.51-25.63,2.62-2.02,4.01-2.96,3.28-6.74-.64-3.31-50.11-18.99-56.22-27.95-3.96-5.8,2.31-10.46,6.79-13.47C23.08,30.39,57.46,14.94,75.02,7.47c13.96-5.93,34.42-16.92,25.82,8.86Z"/>
  </g>
</svg>