<?xml version="1.0" encoding="UTF-8"?>
<svg id="Calque_2" data-name="Calque 2" xmlns="http://www.w3.org/2000/svg" viewBox="0 0 195.07 175.06">
  <defs>
    <style>
      .cls-1 {
        fill: #947e92;
      }

      .cls-2 {
        fill: #9d7662;
      }
    </style>
  </defs>
  <g id="Calque_1-2" data-name="Calque 1">
    <g>
      <path class="cls-2" d="M106.53,2.13c4.37-.74,9.13-2.64,14.01-2v4c-.75.8,2.42,4.74-5.1,4.12-4.94-.41-1.22-4.48-4.89-4.1l1.98,5.99c-1.73-.4-8.27,1.12-10,2v-3.99c-5.45-.36-7.57,3.8-4,7.99-22.36,14.28-31,41.68-24.27,67.31.47,1.78-.96,6.18,3.24,4.67,5.69-2.05,31.48-33.91,35.42-40.59,8.78-14.87,6.23-17.74,7.61-33.39.21-2.35,3.27-6.42,2-10,11.39-.07,10.7,19.19,9.97,26.98-1.71,18.25-19.63,40.73-31.87,54.12-3.47,3.8-16.96,12.09-15.79,17.62,2.19,10.36,34.71,15.78,43.69,13.29-5.8-23.69,33.58-71.49,55.02-48.04,15.61,17.07-9.8,43.25-25.04,51.03-8.95,4.57-18.68,1.07-17.1,15.11,1.83,16.27,10.59,16.82,17.11,25.9.64.89-1.2,7.04,3.38,7.61l11.51,2.49,2.11-4.12,3,8.02c-10.74,2.05-20.04.91-29.82-5.18-15.98-9.95-15.99-22.42-22.15-37.85-20.55-1.76-39.42-6.21-53.02-22.61-14.82,10.55-48.67,35.8-67.02,33.64l2-10c7.79-3.62,16.28-7.01,23.72-11.28,3.97-2.28,32.34-21.01,33.42-22.71.97-1.54-4.41-16.7-4.89-21.26-3.23-30.27,10.15-67.18,41.75-74.75-.2,3.4-.72,4.64,2.98,4.01l1.02-4.01ZM140.54,112.12c10.64.94,44.36-28.3,32.11-37.14-12.4-8.95-31.71,27.24-32.11,37.14Z"/>
      <path class="cls-1" d="M178.53,174.13l-3-8.02-2.11,4.12-11.51-2.49c-4.58-.57-2.74-6.72-3.38-7.61,6.03,4.05,13.95,5.06,21.11,4.13,1.11-.14,19.55-14.38,14.58,2.51-1.73,5.87-10.62,6.39-15.69,7.36Z"/>
      <path class="cls-1" d="M8.53,132.13l-2,10c-2.27-.27-5.05-.6-5.97-3.03-2.51-6.62,3.97-5.11,7.97-6.97Z"/>
      <path class="cls-1" d="M112.53,10.13l-1.98-5.99c3.67-.37-.05,3.69,4.89,4.1,7.52.63,4.35-3.31,5.09-4.12.14-.15,1.33,0,2,0,1.27,3.58-1.79,7.65-2,10-3.33,1-7.14-3.8-8-4Z"/>
      <path class="cls-1" d="M106.53,2.13l-1.02,4.01c-3.7.63-3.18-.61-2.98-4.01,1.14-.27,2.74.21,4,0Z"/>
      <path class="cls-1" d="M98.53,16.13c-3.57-4.18-1.45-8.35,3.99-7.99v3.99c-.24.13-2.04,2.76-3.99,4Z"/>
    </g>
  </g>
</svg>