<?xml version="1.0" encoding="UTF-8"?>
<svg id="Calque_2" data-name="Calque 2" xmlns="http://www.w3.org/2000/svg" viewBox="0 0 273.85 255.96">
  <defs>
    <style>
      .cls-1 {
        fill: #efd078;
      }

      .cls-2 {
        fill: #edc041;
      }
    </style>
  </defs>
  <g id="Calque_1-2" data-name="Calque 1">
    <g>
      <path class="cls-2" d="M113.73,88.05c.23.15-.46,2.68.5,3.5,1.19,1.03,3.26.26,3.5.5,3.52,3.55,2.6,4.24,4,8l-1.98,1.01v4.98s3.98.01,3.98.01c.02,1.33.05,2.68,0,4-.33,8.02-3.32,21.45-6,30-.62,1.99-1.37,3.96-2,6-3.57-.74-4.54.5-4,4-4.11,2.93-6.42,6.56-10,10h-4s0,4,0,4c-2.06,1.94-5.05,3.06-6,4-3.84-.64-4.67.14-4,4-4.92,1.61-4.1,2.28-8,6-.22.21-2.36-.79-4.11,1.31-6.96,8.35-6.76,19.79,7.13,18.88,6.56-.43,19.61-14.67,27.54-18.63,3.87-1.93,8.14-1.01,12.53-3.47,10.88-6.1,7.47-24.52,9.36-34.64,4.95-26.4,44.02-34.83,65.94-25.27,6.34,2.76,9.93,4.9,17.6,7.81,8.05,3.06,7.04,5.11,12,10-.27,7.57,6.77,10.97,9.38,17.61,5.64,14.3.34,21.14-7.38,32.39-.58.25-1.49-.26-2,0-15.47,7.95-20.75,13.28-39.51,17.49-5.34,1.2-18.81-1.78-18.49,6.51-1.85.33-4.14-.32-6,0-15.69-8.98-28.54,6.97-43.08,8.11-10.92.85-22.32-2.44-32.92-4.11-.61-.73-1.44-1.3-2-2-2.94-3.64-5.77-6.83-10-2-1.68-.61-2.71-1.41-4-2l-4-2c-.42-.26-2.16.46-3.53-.5-1.44-1-1.51-4.32-2.47-5.5,2.47-6.55,2.64-14.44,4.08-20.57.36-1.53,6.2-2.06,3.92-7.43,5.97-6.45,15.4-9.24,16-10,4.09.59,4.57.09,4-4,7.23-2.39,2.78-2.4,6.25-6.67,2.59-3.19,5.45-5.92,7.75-9.33,7.51,1.7,7.41-3.8,8-10,.19-1.97-.17-4.03,0-6,5.92,2.84,6.59-14.17,0-12,.06-1.33-.1-2.68,0-4,.03-.33,3.68-3.87,1.94-5.97-.51-.62-3.38.36-3.94-.03-.23-.16-3.18-3.17-4-4-.7-.71,2.18-3.44-2.9-4.08-4.61-.58-5.84-.43-5.1,4.08-.65.03-1.38-.12-2,0-7.43,1.5-10.14,7.26-12,14-.44,1.58.33,4.18,0,6-7.49-1.13-5.26,13.99-6,20-.16,1.29.22,2.77,0,4-12.62,8-7.29-12.55-17.99-17.03-.33-6.47,8.22-3.52,10.21-6.19s3.07-11.1,3.78-14.79c.12-.64-.11-1.35,0-2,3.86.67,4.64-.16,4-4,.7-.7,2.54-4.17,4-6,6.44,2.12,7.04-5.25,9.47-5.99,6.72-2.04,16.59-1.9,22.53,1.99ZM161.73,124.05c-.42.52-8.78,3.81-12,6-.46.31-2.72-.64-3.68.32s-.04,2.87-.32,3.68c-.81,2.33-1.72,7.7-2,8-1.52,1.64-3.34-4.25-4,6-.17,2.6-.11,5.39,0,8l-4,16c-.88,1-.4,2.83-4,6s-3.72,3.71-6,6c-1.34,1.34-4.53,1.25-6,2-2.66,1.36-5.3,2.61-8,4s-5.56,2.48-8,4c-2.79,1.74-6.52,1.11-7.9,7.13-1.12,4.91,2.28,1.99,3.9,2.87,1.17.63,3.72,1.8,4,2,.47.34-1.96,3.47,2.9,4.16,4.82.68,10.81,1.03,9.1-4.16,1.31.1,2.68,0,4,0,10.07.07,5.33-.97,13.21-3.79,4.78-1.72,17.3-2.41,16.79-8.21,5.71-.54,12.12.2,18,0,2.91-.1,4.33.55,10,0,1.93-.19,4.27.34,6,0,6.26-1.24,17.69-2.3,18-10,2.02-.77,4.01-1.29,6-2,2.43-.87,5.64.05,8.86-2.17s2.68-5.38,3.14-5.83c2.02-1.99,4.01-4.05,6-6,.38-.37,4.92,1.42,4.15-2.88l-.15-11.14-4,.02c-.14-1.3.29-2.97,0-4-.24-.85-1.66-1.42-2-2-1.42-2.46-5.86-7.96-8-10-3.42-3.25-3.16-2.28-6-4-10.31-6.25-17.96-9.08-30-10,3.46-6.04-17.18-4.63-18.02-4-.47.35.47,3.43.02,4Z"/>
      <path class="cls-2" d="M233.73,6.05c.64.13,1.37-.15,2,0-.72,5.91.74,3.28,4,4,.67.15,1.46-.2,2,0,.17,5.82,6.56,7.9,8.5,12.5,2.51,5.94.65,11.7,2.4,17.6,3.87,13.07,22.55,25.54,14.07,43.87-.36.78-8.77,12.78-9.87,14.13-3,3.68-8.98,8.48-13.98,7.91-2.62-.3-4.54-2.92-6.71-3.43-3.46-.83-7.19-.36-10.51-1.47-6.2-2.07-8.88-9.9-14.94-11.06-6.83-1.31-16.1.62-23.74-.26-6.52-.75-12.84-4.35-18.69-5.31-23.14-3.78-65.33-1.97-39.38-36.34C146.1,25.37,205.5.26,233.73,6.05ZM149.73,42.05c-1.04.56-1.6,1.79-2,2-.52.28-1.48-.28-2,0-1.1.59-1.61,1.77-2,2-1.27.74-2.8,1.18-4,2s-3.31-.27-5.83,3.21c-3.37,4.66-.3,5.54-.17,6.79.1.98.14,3.86,0,4-.71.71-9.1-.87-.02,9.01,6.68,7.27,21.42,1.92,32.5,3.51,9.79,1.41,18.15,9.14,24.51,9.66,7.32.6,16.18-4.45,23.68-1.84,6.17,2.15,3.71,15.36,24.34,15.83,14.82.34,22.64-9.9,20.16-24.26-.66-3.84,1.19-5.84-5.17-5.91.07-1.32-.01-2.67,0-4,0-.35,2.52-1.91,1.72-6.39s-4.28-6.74-5.72-9.61c-2.68-5.35-3.87-9.17-6-14-.57-1.29-1.93-1.84-2-2-.24-.56.23-1.43,0-2-.77-1.91-.6-5.05-1.84-6.7-1.53-2.04-3.8-1.02-4.16-1.3-2.43-1.93-2.46-4.49-7.41-5.57-21.99-4.82-58.96,14.89-78.59,25.57Z"/>
      <path class="cls-1" d="M241.73,10.05c17.39,6.29,12.13,18.81,16.98,32.02,5.69,15.48,20.02,19.5,13.46,41.43-8.14,27.22-30.06,31.34-53.12,18.23-3.29-1.87-5.61-6.34-8.73-7.27-6.55-1.97-17.58.36-25.35-.65-12.77-1.65-47.52-7.44-58.05-11.95-26.95-11.54-2.83-38.97,12.18-49.43C158.2,19.1,199.62-1.39,222.71.07c2.98.19,12.61.6,11.02,5.98-28.23-5.79-87.63,19.31-104.86,42.14-25.94,34.37,16.24,32.56,39.38,36.34,5.86.96,12.17,4.55,18.69,5.31,7.64.88,16.9-1.04,23.74.26,6.06,1.16,8.74,8.99,14.94,11.06,3.33,1.11,7.05.65,10.51,1.47,2.17.52,4.09,3.13,6.71,3.43,5,.58,10.97-4.23,13.98-7.91,1.1-1.35,9.51-13.35,9.87-14.13,8.47-18.32-10.2-30.8-14.07-43.87-1.75-5.9.11-11.66-2.4-17.6-1.94-4.6-8.33-6.69-8.5-12.5Z"/>
      <path class="cls-2" d="M25.73,182.05c-1.7-5.8-3.82-12.97-4.09-18.95-.35-7.77.67-30.61,10.09-17.05-1.53,5.33-1.5,20.64,0,26l2,2c5.44,12.54,19.48,13.01,23.11,33.89,2.72,15.62,2.05,20.13-7.11,32.11h-4s0,4,0,4c-.67.15-1.45-.19-2,0-8.13,2.86-30.95,13.14-38,6-1.44-1.46-2.54-9.95,0-12,1.38-.77,1.5-1.63,4-2l-.02,4c8.01-2.37,21.38,7.18,22.02-4,.69-.12,1.87.21,2,0h4s0-4,0-4c.7-.44,1.25-1.48,2-2,1.19-.82,3.58.14,5.81-3.12,4.1-6.01-.33-29.4-9.81-30.88-.26-.56.27-1.5,0-2l-2-2c-.68-.65-1.32-1.36-2-2,.16-3.96-1.95-6.16-6-6-.2-.59.18-1.38,0-2Z"/>
      <path class="cls-1" d="M73.73,104.05c-.71,3.69-1.82,12.16-3.78,14.79s-10.54-.28-10.21,6.19c10.7,4.48,5.37,25.02,17.99,17.03-1,5.65-4.39,8.45-10.04,5.03-4.47-2.7-4.04-18.4-12.82-18.89-2.73-.15-12.79,3.06-15.14,4.85-1.46,1.12-7.6,11.62-8,13-9.43-13.56-10.45,9.28-10.09,17.05.27,5.98,2.4,13.15,4.09,18.95-4.78,1.33-5.35-5.51-6.32-8.63-5.42-17.58-1.44-35.73,11.28-49.4,12.72-13.66,19.13-4.59,31.64-8.35,6.96-2.1,4.3-12.06,11.39-11.61Z"/>
      <path class="cls-1" d="M215.73,124.05c-7.67-2.92-11.26-5.05-17.6-7.81-21.92-9.56-60.99-1.13-65.94,25.27-1.9,10.11,1.51,28.53-9.36,34.64-4.39,2.46-8.66,1.54-12.53,3.47-7.93,3.96-20.98,18.2-27.54,18.63-13.89.91-14.09-10.53-7.13-18.88,1.75-2.1,3.89-1.1,4.11-1.31-7.6,29.74,12.54,8.88,24.16,1.16,4.96-3.3,13.05-5.48,16.88-9.12,11.03-10.46,1.17-36.01,21.09-50.91,20.51-15.34,46.21-13.98,68.01-2.26,3.33,1.79,5.63,2.8,5.86,7.13Z"/>
      <path class="cls-1" d="M163.73,208.05c-5.32.91-11.75,1.37-16.57,2.43-8.02,1.76-15.91,8.41-26.41,9.58-6.73.75-27.99-.01-32.63-4.47-1.06-1.02-.12-3.22-.38-3.54,10.6,1.67,22.01,4.96,32.92,4.11,14.54-1.14,27.39-17.08,43.08-8.11Z"/>
      <path class="cls-1" d="M227.73,184.05c-8.98,18.36-39.76,20.79-58,24-.33-8.29,13.15-5.32,18.49-6.51,18.77-4.2,24.05-9.54,39.51-17.49Z"/>
      <path class="cls-1" d="M229.73,184.05c7.72-11.25,13.03-18.09,7.38-32.39-2.62-6.63-9.66-10.04-9.38-17.61,12.72,12.55,21.16,22.4,11.63,40.62-3.18,6.08-3.91,6.89-9.63,9.38Z"/>
      <path class="cls-1" d="M39.73,230.05c4.22-11.24.88-23.54-4-34,9.48,1.47,13.91,24.87,9.81,30.88-2.23,3.27-4.61,2.3-5.81,3.12Z"/>
      <path class="cls-1" d="M113.73,88.05c.41.44,5.5-1.12,4,4-.24-.24-2.31.53-3.5-.5-.96-.82-.27-3.35-.5-3.5-5.94-3.89-15.81-4.02-22.53-1.99-2.43.74-3.03,8.11-9.47,5.99.68-.84-.13-3.15,3.17-5.76,5.59-4.43,19.29-8.45,25.73-4.04,2.95,2.02,2.55,5.22,3.1,5.8Z"/>
      <path class="cls-1" d="M5.73,250.05c7.05,7.14,29.87-3.14,38-6,1,4.61-2.26,4.31-5.22,5.68-7.92,3.65-22.21,8.58-30.39,4.98-3.22-1.42-2.1-4.37-2.39-4.65-.21-.21-2.62.49-4.05-1.36-3.89-5.04-.4-8.15,4.05-10.64-2.54,2.05-1.44,10.54,0,12Z"/>
      <path class="cls-1" d="M123.73,110.05c4.47,7.15,1.56,17.12-.62,24.48-.99,3.33-.49,6.52-5.38,5.52,2.68-8.55,5.67-21.98,6-30Z"/>
      <path class="cls-1" d="M69.73,170.05c2.28,5.37-3.56,5.89-3.92,7.43-1.43,6.13-1.61,14.02-4.08,20.57-.21-.26-3.51,1.03-4.1-1.26-2.31-9.04,6.19-20.36,12.1-26.74Z"/>
      <path class="cls-1" d="M31.73,236.05c-.64,11.18-14.01,1.63-22.02,4l.02-4c6.65-.99,15.57,1.14,22,0Z"/>
      <path class="cls-1" d="M83.73,118.05c-1.23,6.77-3.03,12.89-2,20.02l-4-.02c.74-6.01-1.49-21.13,6-20Z"/>
      <path class="cls-1" d="M95.73,98.05c-1.72,5.83-6.04,12.46-12,14,1.86-6.74,4.57-12.5,12-14Z"/>
      <path class="cls-1" d="M111.73,112.05c6.59-2.17,5.92,14.84,0,12,.35-3.94-.19-8.04,0-12Z"/>
      <path class="cls-1" d="M111.73,130.05c-.59,6.2-.49,11.7-8,10,2.71-4.02,2.6-11.24,8-10Z"/>
      <path class="cls-1" d="M85.73,210.05c-4.47,1.35-6.72-.82-10-2,4.23-4.83,7.06-1.64,10,2Z"/>
      <path class="cls-1" d="M97.73,98.05c-.74-4.51.48-4.66,5.1-4.08,5.09.64,2.2,3.37,2.9,4.08-2.66.09-5.35-.14-8,0Z"/>
      <path class="cls-1" d="M31.73,190.05c-1.86-1.74-3.33,1.93-6-6,4.05-.16,6.16,2.04,6,6Z"/>
      <path class="cls-1" d="M109.73,102.05c.56.4,3.42-.59,3.94.03,1.74,2.1-1.91,5.63-1.94,5.97l-2-6Z"/>
      <path class="cls-1" d="M123.73,106.05h-3.99s0-4.99,0-4.99l1.98-1.01c.78,2.09,1.94,2.16,2,6Z"/>
      <path class="cls-1" d="M115.73,146.05c-2.25,7.25-1.2,2.01-4,4-.54-3.5.43-4.74,4-4Z"/>
      <path class="cls-1" d="M89.73,156.05c.57,4.09.09,4.59-4,4,2.08-2.64-3.2-1.62,4-4Z"/>
      <path class="cls-1" d="M101.73,160.05c-1.09,1.05-2.22,2.33-4,4v-4s4,0,4,0Z"/>
      <path class="cls-1" d="M91.73,168.05c-1.8,1.78,3.58,1.52-4,4-.67-3.86.16-4.64,4-4Z"/>
      <path class="cls-1" d="M37.73,232.05v4s-4,0-4,0c.32-.52-.7-3.07.31-3.69,1.36-.84,3.24-.02,3.69-.31Z"/>
      <path class="cls-1" d="M49.73,240.05c-1.32,1.73,3.08,2.42-4,4v-4s4,0,4,0Z"/>
      <path class="cls-1" d="M77.73,98.05c.64,3.84-.14,4.67-4,4,1.28-7.48,2.55-2.56,4-4Z"/>
      <path class="cls-1" d="M71.73,206.05c-1.49-.68-2.55-1.12-4-2l4,2Z"/>
      <path class="cls-1" d="M33.73,174.05l-2-2c.11.39,1.6,1.08,2,2Z"/>
      <path class="cls-1" d="M35.73,194.05c-.29-.52-1.39-1.42-2-2l2,2Z"/>
      <path class="cls-1" d="M149.73,194.05c.52,5.8-12.01,6.49-16.79,8.21-7.88,2.83-3.14,3.86-13.21,3.79,8.43-6.65,19.3-10.99,30-12Z"/>
      <path class="cls-1" d="M161.73,124.05c.46-.57-.48-3.64-.02-4,.84-.63,21.48-2.04,18.02,4-5.93-.45-12.05.32-18,0Z"/>
      <path class="cls-1" d="M201.73,184.05c-.31,7.7-11.74,8.76-18,10-1.46-6.24,3.77-3.07,8.01-4.92,3.49-1.53,5.83-3.49,9.99-5.08Z"/>
      <path class="cls-1" d="M139.73,156.05c.14,3.32,3.68,5.73.35,13.3-1.79,4.07-4.04,2.35-4.35,2.7l4-16Z"/>
      <path class="cls-1" d="M225.73,154.05l4-.02.15,11.14c.77,4.29-3.77,2.51-4.15,2.88-.33-4.57.47-9.49,0-14Z"/>
      <path class="cls-1" d="M219.73,174.05c-.46.45.01,3.66-3.14,5.83s-6.44,1.31-8.86,2.17c-1.36-5.28,7.85-5.72,12-8Z"/>
      <path class="cls-1" d="M115.73,206.05c1.71,5.19-4.28,4.84-9.1,4.16-4.86-.69-2.43-3.81-2.9-4.16,3.97.21,8.04-.3,12,0Z"/>
      <path class="cls-1" d="M103.73,194.05l-4,10c-1.62-.88-5.02,2.04-3.9-2.87,1.38-6.02,5.1-5.39,7.9-7.13Z"/>
      <path class="cls-1" d="M177.73,194.05c-5.67.55-7.09-.1-10,0,1.32-3.15,8.68-3.15,10,0Z"/>
      <path class="cls-1" d="M131.73,178.05c-.13,3.97-1.99,6.1-6,6,2.28-2.29,2.48-2.9,6-6Z"/>
      <path class="cls-1" d="M119.73,186.05v4s-8,0-8,0c2.7-1.39,5.34-2.64,8-4Z"/>
      <path class="cls-1" d="M143.73,142.05v6s-4,0-4,0c.66-10.25,2.48-4.36,4-6Z"/>
      <path class="cls-1" d="M215.73,138.05h-6.01s0-4,0-4c2.84,1.72,2.58.75,6,4Z"/>
      <path class="cls-1" d="M149.73,130.05v4s-4,0-4,0c.28-.81-.65-2.7.32-3.68s3.22-.01,3.68-.32Z"/>
      <path class="cls-1" d="M225.73,150.05l-2-2c.34.58,1.76,1.15,2,2Z"/>
      <path class="cls-1" d="M133.73,62.05c2.54,13.27,23.21,6.72,34.52,8.48,10.31,1.61,40.91,20.31,43.43-1.69,1.79-15.6-3.63-18.01-14.88-22.87-13.33-5.76.32-13.61,12.03-12.03,14.96,2.02,18.19,26.48,16.8,39-.41,3.71-3.71,6.78-3.76,10.09-.16,11.86,20.05,14.24,27.29,8.41,6.35-5.12,4.18-16.28,4.58-23.4,6.36.07,4.51,2.07,5.17,5.91,2.47,14.35-5.34,24.6-20.16,24.26-20.62-.48-18.17-13.68-24.34-15.83-7.5-2.61-16.36,2.44-23.68,1.84-6.36-.52-14.73-8.25-24.51-9.66-11.08-1.6-25.82,3.76-32.5-3.51-9.08-9.88-.69-8.3.02-9.01Z"/>
      <path class="cls-1" d="M253.73,64.05l-4-16c1.44,2.87,4.93,5.21,5.72,9.61s-1.72,6.04-1.72,6.39Z"/>
      <path class="cls-1" d="M139.73,48.05l-6,10c-.13-1.25-3.2-2.13.17-6.79,2.52-3.48,4.59-2.37,5.83-3.21Z"/>
      <path class="cls-1" d="M235.73,22.05c.36.29,2.63-.74,4.16,1.3,1.24,1.65,1.07,4.79,1.84,6.7-5.22,1.22-4.94-3.91-6-8Z"/>
      <path class="cls-1" d="M243.73,34.05l-2-2c.07.16,1.43.71,2,2Z"/>
      <path class="cls-1" d="M147.73,44.05c.4-.21.96-1.44,2-2l-2,2Z"/>
      <path class="cls-1" d="M143.73,46.05c.39-.23.9-1.41,2-2l-2,2Z"/>
    </g>
  </g>
</svg>