<?xml version="1.0" encoding="UTF-8"?>
<svg id="Calque_2" data-name="Calque 2" xmlns="http://www.w3.org/2000/svg" viewBox="0 0 96.64 98.31">
  <defs>
    <style>
      .cls-1 {
        fill: #8e9142;
      }

      .cls-2 {
        fill: #edc041;
      }
    </style>
  </defs>
  <g id="Calque_1-2" data-name="Calque 1">
    <g>
      <path class="cls-1" d="M58.16.5l9,30.03c61.38,13.22,8.05,26.85,6.95,31.31-2.52,10.23,7.37,27.93,3.14,34.75-5.36,8.64-27.42-17.99-36.09-17.96-6.54.02-22.19,14.92-32.97,9.86l10.02-28.94C13,48.56-1.79,45.77.18,30.51l34.04-.99C36.63,24.64,51.71-4.1,58.16.5ZM37.19,34.5H6.19c3.48,4.96,18.65,18.69,19.58,23.28,1.09,5.37-11.5,22.89-9.57,24.71,10.43.69,16.54-11.04,26.81-9.98,7.9.81,20.08,15.14,28.16,18.01.9-9.65-8.05-26.37-.09-34.13,1.56-1.52,21.1-10.24,17.1-13.88-23.98-2.15-29.36-8.54-32-32.01-5.17-4.74-15.08,22.76-18.99,24Z"/>
      <path class="cls-2" d="M37.19,34.5c3.91-1.24,13.82-28.74,18.99-24,2.65,23.47,8.02,29.86,32,32.01,4,3.63-15.55,12.36-17.1,13.88-7.96,7.76.99,24.48.09,34.13-8.08-2.88-20.26-17.2-28.16-18.01-10.27-1.05-16.38,10.68-26.81,9.98-1.93-1.82,10.66-19.34,9.57-24.71-.93-4.59-16.1-18.32-19.58-23.28h31Z"/>
    </g>
  </g>
</svg>