<?xml version="1.0" encoding="UTF-8"?>
<svg id="Calque_2" data-name="Calque 2" xmlns="http://www.w3.org/2000/svg" viewBox="0 0 142.07 169.52">
  <defs>
    <style>
      .cls-1 {
        fill: #865b44;
      }

      .cls-2 {
        fill: #947e92;
      }

      .cls-3 {
        fill: #9d7662;
      }

      .cls-4 {
        fill: #efd078;
      }
    </style>
  </defs>
  <g id="Calque_1-2" data-name="Calque 1">
    <g>
      <path class="cls-1" d="M118.23,157.52c-1.8-.26-3.03,1.62-4,2-2.8,1.1-9.4,2.27-12,2-.7-.07-1.48.17-2,0l1.98-6-5.98,2c-28.74-22.48-58.67-57.47-84.95-84.05-3.93-3.98-10-5.18-11.05-11.01s1.13-16.48,6.52-19.56c30.42-8.86,59.75-24.41,89.56-34.29,11.9-3.94,45.9-18.09,45.76,1.65-.2,29.01-15.12,73.34-19.61,104.5-1.97,13.68-2.11,28.83-4.23,42.77ZM24.23,53.54l-11.99,4.97c5.85,7,9.9.97,11.99-4.97ZM106.22,59.53h-3.98s0,7.99,0,7.99c3.98-1.07,4.49-4.26,3.97-7.99ZM32.25,61.53c-.66,2.93.84,4.18,3,5.95l-1.04-5.95h-1.96ZM44.22,61.53c-2.18-2.18-6.16,1.8-3.98,3.98s6.16-1.8,3.98-3.98ZM104.19,133.56c-10.37.92-1.13,7.97,4.02,7.96l-4.02-7.96ZM112.22,151.53c-2.18-2.18-6.16,1.8-3.98,3.98s6.16-1.8,3.98-3.98Z"/>
      <path class="cls-3" d="M114.23,159.52c0,1.33-.01,2.67,0,4,.02,1.99.15,3.98-.03,5.97-5.24.36-11.89-1.83-11.97-7.97,2.6.27,9.2-.9,12-2Z"/>
      <path class="cls-2" d="M118.23,157.52c-.52,3.41,1.72,6.6-4,6-.01-1.33,0-2.67,0-4,.97-.38,2.2-2.26,4-2Z"/>
      <path class="cls-3" d="M100.23,161.52c-2.83-.92-2.94-3.17-4-4l5.98-2-1.98,6Z"/>
      <path class="cls-4" d="M24.23,53.54c-2.09,5.94-6.14,11.97-11.99,4.97l11.99-4.97Z"/>
      <path class="cls-3" d="M104.19,133.56l4.02,7.96c-5.15.01-14.39-7.04-4.02-7.96Z"/>
      <path class="cls-4" d="M106.22,59.53c.52,3.73,0,6.92-3.97,7.99v-7.99s3.97,0,3.97,0Z"/>
      <path class="cls-3" d="M44.22,61.53c2.18,2.18-1.8,6.16-3.98,3.98s1.8-6.16,3.98-3.98Z"/>
      <path class="cls-3" d="M112.22,151.53c2.18,2.18-1.8,6.16-3.98,3.98s1.8-6.16,3.98-3.98Z"/>
      <path class="cls-3" d="M32.25,61.53h1.96l1.04,5.95c-2.16-1.77-3.66-3.02-3-5.95Z"/>
    </g>
  </g>
</svg>