<?xml version="1.0" encoding="UTF-8"?>
<svg id="Calque_2" data-name="Calque 2" xmlns="http://www.w3.org/2000/svg" viewBox="0 0 294.42 172.56">
  <defs>
    <style>
      .cls-1 {
        fill: #947e92;
      }

      .cls-2 {
        fill: #8a9a99;
      }

      .cls-3 {
        fill: #9d7662;
      }

      .cls-4 {
        fill: #526364;
      }

      .cls-5 {
        fill: #a2c9df;
      }
    </style>
  </defs>
  <g id="Calque_1-2" data-name="Calque 1">
    <g>
      <path class="cls-1" d="M36.38,34.17l2.01,7.02c20.79-28.48,72.74-23.86,104.51-18.55,9.21,1.54,11.74,7.64,12.51,7.59,3.5-.23,5.28-4.96,9.55-3.86,3.45.89,7.74,8.99,13.41,7.79.1-8.79-19.19-10.34-8.96-19.98l11.98,9.98c3.71-10.88,40.74-7.99,46.05-2.05,4.34,4.85-4.08,4.22-5,7.11-.77,2.41.86,6.49,2.97,6.94,4.98,1.07,3.48-7.81,7.92-5.96,8.89,11.83,22.94,14.46,37.04,13.98-7.43,23.72,13.96,10.5,10.01,5.99-.26-.3-8.23.25-3.99-3.99s3.7,3.71,3.99,3.99c2.25,2.18,5.94.87,7.52,9.46,3.81,20.7-1.8,23.07-18.93,30.12-9.89,4.07-27,9.82-37.12,7.93-3.2-.6-5.75-1.76-8.47-3.51-7.27-4.69-7.44-13.82-14.99-15.99,1.09,9.58,7.64,19.29,15.99,23.99l2,6c-.35.83.6,3.34-.09,3.89-3.88,3.09-26.26-10.87-30.93-13.85,9.77,16.61-20.51,20.13-28.78,31.31l1.79,26.63-7.97-2.01c2.16,13.33-15.65-1.97-12.02,14.02l-11.07-5.86c-5.53-4.62-2-17.22-2.9-24.14l4.08.93c-.46-2.29-4.23-12.64-5.09-12.98-8.43-3.3-3.66,8.67-5,10.05-.94.98-23.26.35-27.1.08-14.22-.99-27.72-5.13-40.9-10.08-.63,8.75,2.45,19.3-3.94,26.51l-22.76,9.22c-3.08-1.3-4.65-3.54-5.26-6.8-2.7-14.36,1.89-35.72-.08-50.93l-3.95,3.97c-6.31-16.96-6.29-39.6.48-56.48.34-.85,7.04-12.83,7.49-13.5,1.69-2.51,2.88-2.73,4-4ZM206.37,32.18c-6.12-.55-6.52,5.04-5.98,9.98l5.98.02v-10ZM254.38,60.18l-13.99,2.98c3.54,5.13,8.13,5.66,13.99,5v-7.98Z"/>
      <path class="cls-4" d="M36.38,34.17C64.95,1.78,125.19,17.2,162.37,24.17c-1.38-9.96,3.11-17.14,13.6-12.64,2.4,1.03,2.26,4.58,3.69,4.73,4.12.45,16.59-4.49,22.64-5.2,3.16-.37,9.07,1.72,10,1.07C214.77,10.43,210.21-.09,223.45,0c7.69.06,6.44,5.24,6.92,12.17-1.25.28-3.01-.32-3.99,0-.34-2.02-.78-12.22-4.97-9.98l-5.02,11.97c3.43.1,6.8-.94,9.99-1.99.35,2.13-.89,6.43.3,7.69.73.78,4.74.44,6.76,2.18,3.5,3.01,6.23,10.95,11,13.07,7.65,3.39,20.5,1.82,28.49,3.51,14,2.95,22.84,20.94,21.32,34.34-.34,3.03-9.99,25.45-11.85,28.24-8.18,12.24-37.18,18.11-51.12,17.05-10.01-.76-19.82-7.69-26.09-8.1-19.19-1.25.54,35.31-.66,42.84-.37,2.32-3.77.81-4.16,1.18v-3.99c-1.33-.08-2.67.06-4-.01.28-2.75,1.85-4.91,1.53-8.46-.31-3.33-4.39-20.92-6.62-21.52-2.77-.75-20.11,11.23-20.7,12.29-2.82,5.13,5.68,10.09,5.82,10.73,1.45,6.22-8.59,4.98-1.91,9.84,7.82,5.7,10.49-3.46,21.88-2.88-.42,4.16-.34,4.52,4,4-10.99,10.39-13.52,8.84-27.99,3.99,2.71,20.03-41.3,17.53-43.57,2.54-.79-5.21,3.42-14.15,1.55-20.52h-38c-2.67,5.48,3.47,17.49-3.29,19.72-2.36.78-18.88.95-21.43.33-2.34-.57.01-4.9-3.27-4.04,3.04,16.25-28.85,14.55-37.1,6.07-10.41-10.7-.08-29.86-3.05-42.96l-11.87-41.12c1.48-2.83.95-8.32,3.96-11.02-4.02.7-15.08,9.62-5.96,13.02-6.81,8.7-13.72,8.63-8.61-3.56,2.15-5.13,18.23-26.59,22.94-33.11,2.16-2.99,3.41-5.31,7.67-5.33-.45.67-7.15,12.66-7.49,13.5-6.77,16.88-6.79,39.52-.48,56.48l3.95-3.97c1.96,15.21-2.62,36.57.08,50.93.61,3.25,2.18,5.49,5.26,6.8l22.76-9.22c6.39-7.21,3.3-17.76,3.94-26.51,13.18,4.95,26.68,9.09,40.9,10.08,3.84.27,26.16.9,27.1-.08,1.33-1.38-3.44-13.35,5-10.05.86.34,4.63,10.69,5.09,12.98l-4.08-.93c.89,6.91-2.64,19.52,2.9,24.14l11.07,5.86c-3.63-15.99,14.19-.69,12.02-14.02l7.97,2.01-1.79-26.63c8.26-11.18,38.55-14.71,28.78-31.31,4.67,2.97,27.05,16.94,30.93,13.85.69-.55-.26-3.06.09-3.89,3.91-9.22,1.19-4.2-2-6-8.35-4.7-14.9-14.41-15.99-23.99,7.54,2.17,7.71,11.3,14.99,15.99,2.72,1.75,5.27,2.91,8.47,3.51,10.12,1.89,27.24-3.86,37.12-7.93,17.13-7.05,22.74-9.42,18.93-30.12-1.58-8.6-5.27-7.29-7.52-9.46-.29-.28.24-8.22-3.99-3.99s3.73,3.69,3.99,3.99c3.95,4.52-17.44,17.73-10.01-5.99-14.1.48-28.15-2.15-37.04-13.98-4.45-1.86-2.95,7.03-7.92,5.96-2.11-.46-3.74-4.54-2.97-6.94.92-2.88,9.34-2.25,5-7.11-5.31-5.93-42.34-8.83-46.05,2.05l-11.98-9.98c-10.23,9.64,9.06,11.19,8.96,19.98-5.67,1.2-9.96-6.89-13.41-7.79-4.27-1.11-6.04,3.62-9.55,3.86-.77.05-3.3-6.05-12.51-7.59-31.77-5.31-83.72-9.93-104.51,18.55l-2.01-7.02ZM276.38,96.17c-14.97-1.19-21.21,4.54-36,6-2.31.23-10.06-.98-10.02,1.02.09,5.26,5.86,5.42,10.02,4.98-1.87,5.59-7.64,1.79-7.99,5.98,8.79,1.14,39.11-5.79,43.56-12.46,1.23-1.84.07-4.08.43-5.52,1.98.16,4.02-.05,6,0,1.17-8.97-3.93-8.38-6,0ZM84.38,152.17c1.08-2.41,5.38-5.57,3.82-7.8-.27-.39-6.96-5.94-7.4-6.11-3.35-1.33-12.16-2.33-16.41-4.07-.45,9.22-1.5,16.41,7.02,21.97l2.98-7.98c5.32-1.75,3.14,3.24,5.53,3.95,1.61.48,3.4-.21,4.46.05-3.32,7.39,4.14,6.97,4.05,1-.02-1.76-2.91-.72-4.05-1ZM192.37,154.18c-2.18-2.18-6.16,1.8-3.98,3.98s6.16-1.8,3.98-3.98ZM58.36,162.16v-5.98h-1.96v5.98h1.96ZM46.36,166.16v-5.98h-1.96v5.98h1.96ZM54.37,160.18c-2.18-2.18-6.16,1.8-3.98,3.98s6.16-1.8,3.98-3.98ZM166.37,166.16l-.98-5.98c-2.12,1.82-3.65,3.03-3,5.98h3.98ZM156.37,164.18c-2.18-2.18-6.16,1.8-3.98,3.98s6.16-1.8,3.98-3.98Z"/>
      <path class="cls-1" d="M12.38,78.17c-.4.76-1.46,1.31-2,2-9.12-3.41,1.94-12.33,5.96-13.02-3.01,2.71-2.48,8.2-3.96,11.02Z"/>
      <path class="cls-4" d="M254.38,60.18v7.98c-5.86.66-10.45.13-13.99-5l13.99-2.98Z"/>
      <path class="cls-4" d="M206.37,32.18v10s-5.98-.02-5.98-.02c-.54-4.94-.14-10.53,5.98-9.98Z"/>
      <path class="cls-5" d="M224.38,102.17c3.19,1.8,5.91-3.22,2,6l-2-6Z"/>
      <path class="cls-1" d="M196.38,150.17c-11.39-.58-14.06,8.58-21.88,2.88-6.67-4.86,3.36-3.62,1.91-9.84-.15-.63-8.64-5.6-5.82-10.73.59-1.07,17.93-13.04,20.7-12.29,2.23.6,6.32,18.19,6.62,21.52.33,3.55-1.25,5.72-1.53,8.46Z"/>
      <path class="cls-1" d="M276.38,96.17c-.35,1.44.8,3.68-.43,5.52-4.46,6.67-34.77,13.6-43.56,12.46.35-4.19,6.12-.39,7.99-5.98.48-1.43-.32-4.21,0-6,14.79-1.46,21.03-7.19,36-6Z"/>
      <path class="cls-3" d="M84.38,152.17c-1.05-.25-2.85.44-4.46-.05-2.4-.72-.21-5.7-5.53-3.95l-2.98,7.98c-8.52-5.56-7.47-12.75-7.02-21.97,4.25,1.74,13.06,2.74,16.41,4.07.45.18,7.13,5.72,7.4,6.11,1.56,2.23-2.74,5.4-3.82,7.8Z"/>
      <path class="cls-5" d="M276.38,96.17c2.07-8.39,7.18-8.98,6,0-1.98-.04-4.02.17-6,0Z"/>
      <path class="cls-5" d="M84.38,152.17c1.14.27,4.03-.76,4.05,1,.08,5.98-7.38,6.39-4.05-1Z"/>
      <path class="cls-5" d="M166.37,166.16h-3.98c-.65-2.95.88-4.16,3-5.98l.98,5.98Z"/>
      <path class="cls-5" d="M196.38,150.17c1.33.07,2.67-.07,3.99.01v3.99c-4.33.52-4.41.16-3.99-4Z"/>
      <path class="cls-5" d="M192.37,154.18c2.18,2.18-1.8,6.16-3.98,3.98s1.8-6.16,3.98-3.98Z"/>
      <path class="cls-1" d="M54.37,160.18c2.18,2.18-1.8,6.16-3.98,3.98s1.8-6.16,3.98-3.98Z"/>
      <path class="cls-2" d="M156.37,164.18c2.18,2.18-1.8,6.16-3.98,3.98s1.8-6.16,3.98-3.98Z"/>
      <rect class="cls-1" x="44.4" y="160.18" width="1.96" height="5.98"/>
      <rect class="cls-2" x="56.4" y="156.18" width="1.96" height="5.98"/>
      <path class="cls-1" d="M226.38,12.17c-3.2,1.05-6.56,2.09-9.99,1.99l5.02-11.97c4.19-2.23,4.64,7.97,4.97,9.98Z"/>
    </g>
  </g>
</svg>