<?xml version="1.0" encoding="UTF-8"?>
<svg id="Calque_2" data-name="Calque 2" xmlns="http://www.w3.org/2000/svg" viewBox="0 0 162.02 200">
  <defs>
    <style>
      .cls-1 {
        fill: #865b44;
      }

      .cls-2 {
        fill: #8a9a99;
      }

      .cls-3 {
        fill: #efd078;
      }

      .cls-4 {
        fill: #8e9142;
      }

      .cls-5 {
        fill: #edc041;
      }
    </style>
  </defs>
  <g id="Calque_1-2" data-name="Calque 1">
    <g>
      <path class="cls-4" d="M12.74,132.24c.57,3.32,5.14,9.12,8,12,.18,1.28-.12,2.7,0,4l-2,2c-4.95-6.99-6.92-9.08-10-18h4Z"/>
      <path class="cls-4" d="M106.74,134.24c-.41,1.56-2.77,5.84-4,6-.14.02.29-2.35-1.98-1.99-.28,1.22.36,3.26-.02,3.99-.5.96-1.51,1.38-2,2l-12.01,3.99,1.03-5.95c-9.35,8.48-7.99.11-5.02-8.04.18-.48,1.56-1.14,2-2,.28-.55,1.42-1.24,2-2,4.99-3.05,12.78-4.66,17.98-8l2.02,12Z"/>
      <path class="cls-4" d="M4.74,104.24c.2-12.26-2.47-16.72,9.99-23.01,23.18-11.71,90.66-12.52,112.75,1.28,9.53,5.95,6.45,16.88,7.26,17.74,1.31,1.38,16.24-4.12,23.72,7.26,10.57,16.08-4.23,37.57-20.25,43.2-5.34,1.88-19.45,1.55-21.23,6.77-3.25,9.54,3.53,5.71,9.85,7.65s15.05,5.44,13.52,13.92c-.4,2.2-3.31,2.65-3.61,3.18-1.21.25-3.13-.37-4,0,5.2-9.08-.68-8.97-6-12-4.35-2.48-9-5-14-6,.97-1.5,1.04-5.84,2-8,.66-1.48,1.49-2.82,2-4,2.22-.07,4.02-1.23,6-2,11.93-4.65,27.13-7.23,32.48-20.51,2.22-5.5,2.76-15.36-.64-20.33-3.6-5.27-22.19-9.26-21.83.83,29.81-1.8,16.96,31.14-6.01,32.01.24-1.15-.13-2.69,0-4,10.1,2.99,27.02-20.42,16.69-23.68-17.18-5.42-8.87,12.32-16.69,21.68.19-1.97-.12-4.02,0-6,.37-6.21-.26-11.78,1.99-17.99-4.37-.7-6.28,4.12-9.96,5.19-3.25.95-6.86-.33-12.04.79s-12.51,2.82-16.83,6.25c-3.34,2.66-2.42,4.75-3.17,5.75-.76.47-1.3,1.45-2,2s-1.43,1.32-2,2c-4.5,5.34-6.51,8.04-6.02,15.99l-9.96-13.99c-1.27,5.05,4.9,10.49,4.13,14.75-.38,2.09-3.9.99-4.15,1.25,3.43-3.38-15.97-16.09-19.96-15.02.74,3.4,18.71,16.25,19.96,15.02-.3.3.83,3.85-1.17,4.08-11.8,1.32-39.44-15.81-32.83-32.08,9.78-1.24,18,5.04,26.58,8.43,1.8.71,5.72,3.63,5.4-.4-8.96-5.9-22.31-10.66-33.09-11.95-3.32-.4-3.11-.35-2.91,2.91.67,11.33,5.62,18.44,12.03,27.01,3.53,4.72,5.48,9.7,12,12v10c-3.98-1.01-23.55-9.97-26-12-.2-.17-1.75-3.51-2-4-1.33-2.58-2.09-5.05-2-8l-2-4c-.85-6.08-9.99-37.96-7.99-39.99,3.97-4.02,8.2,5.84,9.23,5.96,24.9,2.95,47.39,4.68,73.5,1.78,11.6-1.29,22.39-7.54,33.24-3.75,1.61-2.94-2.01-7.5-1.99-7.99.06-1.44,2.7-1.33,2-6-1.32-8.79-2.35-7.73-10.46-10.54-26.78-9.3-75-8.16-101.6,1.49-7.22,2.62-4.45,4.66-5.95,9.06-.35,1.02-1.71,2.01-2,4-.26,1.79,0,4.08,0,6h-4Z"/>
      <path class="cls-4" d="M26.74,160.24c.65,3.45-1.44,4.37-4,6-2.45.4-12.06,4.45-14,6-1.78,1.41-1.42,2.43-2,4-.13.36-1.74.55-1.8,1.37-.21,2.64,13.12,11.71,15.8,12.63v2c-1.82-.59-5.06.35-8-.91-12.12-5.23-18.88-15.04-5.04-23.13,8.88-5.19,17.66-.47,15.04-11.96h2c-.77,1.98,1.96,3.78,2,4Z"/>
      <path class="cls-1" d="M90.74,194.24v4c-26.73,3.27-44.12,2.39-70-6v-2c15.44,5.28,52.98,5.06,70,4Z"/>
      <path class="cls-2" d="M66.73.25c-10.01,21.75,19.72,36.55,3,55.98-1.22-5.78,1.63-10.23.6-16.48-2.18-13.18-16.45-18.63-8.49-35.51,1.39-2.96-.35-4.96,4.9-3.98Z"/>
      <path class="cls-2" d="M46.71,64.23c-5.64,5.36-1.45-13.59-2.37-16.58-2.19-7.12-18.55-14.29-4.59-27.4,2.36,3.75-1.74,7.14-.23,12.03,1.59,5.14,7.97,7.68,9.12,15.08.51,3.26-.12,15.15-1.93,16.87Z"/>
      <path class="cls-2" d="M90.73,22.23c-.25,14.34,17.76,26.24.99,37.97,6.91-14.14-5.1-21.62-5.05-34.93.01-3.98.21-3.2,4.06-3.04Z"/>
      <path class="cls-1" d="M136.74,182.24c-2.99,5.27-1.52,5.81-8.53,8.39-7.43,2.74-14.75,3.5-21.47,3.61v-2c4.71-.92,14.44-3.04,18.49-4.51,3.12-1.14,4.69-4.29,7.51-5.49.87-.37,2.79.25,4,0Z"/>
      <path class="cls-4" d="M8.74,110.24c.25,1.92,1.52,5.03,2,8l-4,2c-.49-3.1-1.75-4.83-2-10h4Z"/>
      <path class="cls-1" d="M12.74,132.24h-4c-.35-1.02.32-2.86,0-4l1.99-3.99h-3.99c-.25-1.2.2-2.75,0-4.01l4-2c.75,4.65,1.22,9.47,2,14Z"/>
      <path class="cls-1" d="M102.74,192.24v2c-.24.22.87,3.32-1.38,4.04-2,.63-4.78-.43-6.62-.04v-4c.71-.06,5.03-1.55,8-2Z"/>
      <path class="cls-1" d="M8.74,104.24c0,1.94-.24,4.15,0,6h-4c-.1-1.98-.03-4.01,0-6h4Z"/>
      <path class="cls-1" d="M114.74,156.24c-.96,2.16-1.03,6.5-2,8-2.64,4.06-11.23,5.67-8,16-1.23-.38-18.57,5.66-24.92,6.07-13.97.9-30.91-5.02-41.08-4.07-2.88-1.77-5.02-8.93-6-10h2l1.96-1c-.02-1.3-1.67-.8-1.96-1-1.08-.73-2.75-1.45-4-2-2.32-1.02-2.01-1.97-6-2-.64,0-1.38-.1-2,0,2.56-1.63,4.65-2.55,4-6,2.45,2.03,22.02,10.99,26,12,16.08,4.09,34.54,2.56,48.67-6.33,4.86-3.06,7.17-9,13.33-9.67ZM100.72,172.24c-.59-.81-13.2,5.39-19,5.98-6.34.64-17.55.69-23.8-.15-1.35-.18-27.06-9.82-19.17-1.86,5.32,5.37,38.69,6.88,47,6.04,3.29-.33,19.83-3.34,14.97-10.01Z"/>
      <path class="cls-1" d="M26.74,160.24c-.04-.22-2.77-2.02-2-4,.25.49,1.8,3.83,2,4Z"/>
      <path class="cls-1" d="M22.74,148.24c-.09,2.95.67,5.42,2,8h-2c-3.77-.9-3.27-4.97-4-6l2-2h2Z"/>
      <path class="cls-4" d="M6.74,124.24h3.99s-1.99,4-1.99,4c-.06-.22-1.36-.92-2-4Z"/>
      <path class="cls-4" d="M94.74,194.24v4c-1.16.25-2.7-.16-4,0v-4c1.32-.08,2.68.12,4,0Z"/>
      <path class="cls-4" d="M106.74,192.24v2c-1.13.02-3.76-.22-4,0v-2c1.27-.19,2.79.24,4,0Z"/>
      <path class="cls-5" d="M106.74,118.24c5.18-1.12,8.78.16,12.04-.79,3.68-1.08,5.58-5.89,9.96-5.19-2.25,6.21-1.62,11.78-1.99,17.99-6.51,5.44-6.81,14.66-10,22-.51,1.18-1.34,2.52-2,4-6.16.67-8.48,6.61-13.33,9.67-14.12,8.89-32.59,10.42-48.67,6.33v-10c4.46,1.58,19.89,3.85,24.13,3.16,4.84-.79,24.57-14.06,27.55-18.48,5.43-8.06,6.82-13.92,4.32-22.68-.58-2.04-.86-4.15-2-6Z"/>
      <path class="cls-3" d="M128.74,94.24c-2.11,1.38-9.05,1.34-10,2-9.44-8.67-32.9-9.86-46-10-19.85-.21-34.03,2.5-52.59,8.43-2.92.93-7.28,3.62-9.41-.43,1.49-4.4-1.27-6.44,5.95-9.06,26.59-9.64,74.82-10.79,101.6-1.49,8.11,2.82,9.14,1.76,10.46,10.54Z"/>
      <path class="cls-3" d="M22.74,148.24h-2c-.12-1.3.18-2.72,0-4l2,4Z"/>
      <path class="cls-3" d="M126.74,100.24c-.02.5,3.59,5.05,1.99,7.99-10.85-3.79-21.64,2.46-33.24,3.75-26.12,2.9-48.61,1.18-73.5-1.78-1.03-.12-5.26-9.98-9.23-5.96-2,2.03,7.14,33.91,7.99,39.99-2.86-2.88-7.43-8.68-8-12-.78-4.53-1.25-9.35-2-14-.48-2.97-1.75-6.08-2-8s0-4.06,0-6-.26-4.21,0-6c36.67,13.35,80.82,14.38,118,2Z"/>
      <path class="cls-1" d="M72.74,86.24c1.11,6.12-3.07,3.79-6.91,4-6.29.35-42.41,3.76-45.1,6.01-3.45,2.89.8,3.45,2.8,4.19,19.48,7.16,74.1,6.3,93.78-.25,2.36-.78,1.26-3.83,1.43-3.95.95-.66,7.89-.62,10-2,.7,4.67-1.94,4.56-2,6-37.18,12.38-81.33,11.35-118-2,.29-1.99,1.65-2.98,2-4,2.13,4.05,6.49,1.36,9.41.43,18.55-5.92,32.73-8.63,52.59-8.43Z"/>
      <path class="cls-3" d="M52.74,162.24c-6.52-2.3-8.47-7.28-12-12,4.17,3.54,29.99,12.01,33.08,11.55,2.42-.36,3.69-6.86,6.95-8.53,7.58-3.91,9.73,1.34,17.98-9.02.49-.62,1.5-1.04,2-2l2-2c1.23-.16,3.59-4.44,4-6,.7-2.66-1.67-8.35,2-10,2.5,8.76,1.11,14.62-4.32,22.68-2.98,4.42-22.71,17.69-27.55,18.48-4.23.69-19.67-1.58-24.13-3.16Z"/>
      <path class="cls-3" d="M122.74,150.24c.09-2.66,3.67-6.44,4-8,22.97-.87,35.82-33.81,6.01-32.01-.36-10.09,18.23-6.1,21.83-.83,3.4,4.97,2.86,14.83.64,20.33-5.35,13.29-20.55,15.87-32.48,20.51Z"/>
      <path class="cls-5" d="M126.74,170.24c8.54,10.33-6.67,18.52-16.61,15.63-3.66-1.07-5.02-5.51-5.39-5.63-3.23-10.33,5.36-11.94,8-16,5,1,9.65,3.52,14,6Z"/>
      <path class="cls-1" d="M106.74,118.24c1.14,1.85,1.42,3.96,2,6-3.67,1.65-1.3,7.34-2,10l-2.02-12c-5.2,3.34-12.99,4.95-17.98,8,.76-1-.17-3.09,3.17-5.75,4.31-3.43,11.45-5.09,16.83-6.25Z"/>
      <path class="cls-1" d="M84.74,132.24c.7-.55,1.24-1.53,2-2-.58.76-1.72,1.45-2,2Z"/>
      <path class="cls-1" d="M40.74,150.24c-6.41-8.58-11.36-15.68-12.03-27.01-.19-3.27-.4-3.31,2.91-2.91,10.78,1.29,24.14,6.05,33.09,11.95.32,4.03-3.6,1.12-5.4.4-8.58-3.39-16.8-9.67-26.58-8.43-6.61,16.27,21.03,33.4,32.83,32.08,2-.22.87-3.78,1.17-4.08-1.25,1.23-19.22-11.62-19.96-15.02,3.99-1.07,23.39,11.64,19.96,15.02.25-.25,3.77.85,4.15-1.25.77-4.26-5.4-9.71-4.13-14.75l9.96,13.99c-.49-7.95,1.52-10.65,6.02-15.99-2.97,8.15-4.33,16.52,5.02,8.04l-1.03,5.95,12.01-3.99c-8.25,10.36-10.39,5.11-17.98,9.02-3.25,1.68-4.52,8.17-6.95,8.53-3.08.46-28.91-8.02-33.08-11.55Z"/>
      <path class="cls-1" d="M82.74,134.24c.57-.68,1.3-1.45,2-2-.44.86-1.82,1.52-2,2Z"/>
      <path class="cls-1" d="M126.74,136.24c-.06.66.07,1.34,0,2-.13,1.31.24,2.85,0,4-.33,1.56-3.91,5.34-4,8-1.98.77-3.78,1.93-6,2,3.19-7.34,3.49-16.56,10-22-.12,1.98.19,4.03,0,6Z"/>
      <path class="cls-3" d="M132.74,182.24c-2.81,1.2-4.38,4.34-7.51,5.49-4.05,1.48-13.79,3.6-18.49,4.51-1.21.24-2.73-.19-4,0-2.97.45-7.29,1.94-8,2-1.32.12-2.68-.08-4,0-17.02,1.06-54.56,1.28-70-4-2.69-.92-16.02-9.99-15.8-12.63.07-.82,1.67-1.01,1.8-1.37,4.32,6.2,15.8,11.21,23.17,12.1,2.5.3,5.07-5.74,8.83-6.1,10.17-.95,27.11,4.97,41.08,4.07,6.36-.41,23.7-6.44,24.92-6.07.37.11,1.73,4.56,5.39,5.63,9.94,2.9,25.15-5.29,16.61-15.63,5.32,3.03,11.2,2.92,6,12Z"/>
      <path class="cls-5" d="M30.74,168.24l-1.98,1.02c-1.38,4.6,3.5,2.45,3.98,2.98.98,1.07,3.12,8.23,6,10-3.76.35-6.33,6.39-8.83,6.1-7.38-.89-18.86-5.89-23.17-12.1.58-1.57.22-2.59,2-4,3.77,5.1,16.69-.03,16-6,3.99.03,3.68.98,6,2Z"/>
      <path class="cls-3" d="M24.74,166.24c.69,5.97-12.23,11.1-16,6,1.94-1.55,11.55-5.6,14-6,.62-.1,1.36,0,2,0Z"/>
      <path class="cls-4" d="M118.74,96.24c-.17.12.93,3.16-1.43,3.95-19.67,6.55-74.3,7.42-93.78.25-2-.74-6.25-1.3-2.8-4.19,2.69-2.25,38.81-5.66,45.1-6.01,3.84-.21,8.02,2.12,6.91-4,13.1.14,36.56,1.33,46,10Z"/>
      <path class="cls-5" d="M100.72,172.24c4.86,6.67-11.68,9.68-14.97,10.01-8.31.83-41.68-.67-47-6.04-7.89-7.96,17.82,1.68,19.17,1.86,6.25.84,17.46.79,23.8.15,5.81-.59,18.42-6.78,19-5.98Z"/>
      <path class="cls-3" d="M34.74,170.24v2h-2c-.48-.52-5.36,1.62-3.98-2.98l1.98-1.02c1.25.55,2.92,1.27,4,2Z"/>
      <path class="cls-5" d="M34.74,172.24v-2c.29.2,1.94-.3,1.96,1l-1.96,1Z"/>
      <path class="cls-1" d="M102.74,140.24l-2,2c.38-.73-.26-2.77.02-3.99,2.27-.36,1.84,2.01,1.98,1.99Z"/>
    </g>
  </g>
</svg>