<?xml version="1.0" encoding="UTF-8"?>
<svg id="Calque_2" data-name="Calque 2" xmlns="http://www.w3.org/2000/svg" viewBox="0 0 376.28 95.78">
  <defs>
    <style>
      .cls-1 {
        fill: #865b44;
      }

      .cls-2 {
        fill: #8a9a99;
      }

      .cls-3 {
        fill: #526364;
      }

      .cls-4 {
        fill: #efd078;
      }

      .cls-5 {
        fill: #8e9142;
      }
    </style>
  </defs>
  <g id="Calque_1-2" data-name="Calque 1">
    <g>
      <path class="cls-5" d="M76.01,20.1c5.79-5.31,6.45-16.14,15.45-17.64,9.17-1.53,11.21,9.68,13.55,9.6,1.16-.04,8.59-15.74,19-8.98,7.71,5.01-.66,5.7,16,7.02-1.13,5.29,2.63,4.01,5.98,4.92,18.04,4.91,44.94-1.04,63.08.92,19.94,2.16,39.91,7.31,59.47,8.74,13.89,1.02,37.99,7.26,50.6,5.56,3.49-.47,2.66-3.41,4.45-3.95,16.61-5.01,32.85-7.92,46.4-20.19,1.06,1.4-1.94,9.76-2.95,12.03-5.47,12.2-17.27,20.79-29.25,26.75-19.53,9.71-44.17,15.44-65.77,17.24,4.85,5.98,5.49,21.53-3.39,23.71-14.78,3.62-7.38-28.23-24.6-21.7l5.99,2c-.01,1.81-1.8,3.1-3.43,3.55-3.86,1.07-20.84,2.07-26.57,2.43-3.76.23-7.27-1.44-10.65-1.25-17.13.98-34.21,2.73-51.35,3.25.69-3.34,2.67-9.16,1.01-11.99-5.05,4.01-8.83,28.76-17.99,25.98-6.46-1.97,1.16-18.64-1.04-23.99l-5.15,6.06-49.85-8.04c-13.31.45-26.55-.49-39.7-2.3-10.29-1.42-29.58-2.29-33.27-13.71,4.15-.1,7.87,1.77,11.99,1.99l1.02,4.01c3.7.63,3.18-.61,2.98-4.01,1.98.15,4.01-.11,6,0v3.99c2.83,1.28,5.48-1.95,6-1.99,11.17-.76,22.78.49,34,0,3.51-.15,8.2,1.41,10-2,3.72-7.04-13.74-1.98-16.9-1.9-19.21.46-37.97-2.12-57.11-2.1-1.36-10.26,1.22-6.26,5.17-8.75.89-.56,1-2.88,2.27-3.17,3.99-.91,8.99.59,13.38-.27,10.63-2.07,38.65-5.79,45.19-11.8ZM96,12.11c-1.45-1.45-8.91.75-7.98,4.96,1.63,7.39,11.84-1.1,7.98-4.96ZM120,12.11c-3.17-3.17-9.15,2.81-5.98,5.98s9.15-2.81,5.98-5.98ZM200.01,24.1c-.17-1.26.2-2.69,0-3.98-4.17-.58-4.54-.19-3.98,3.98,1.33.12,2.67-.05,3.99,0,.17,1.28-.65,3.91,1.16,4.08l8.83-2.11v-1.96c-3.31-.14-6.68.12-9.99-.02ZM188.01,32.08c-1.21-4.52-6.18-4.26-9.99-3.97v3.98s9.99,0,9.99,0ZM278,34.09v-3.99s-3.98,3.01-3.98,3.01l3.98.98ZM268,38.09c-.64-8.99-6.84-5.78-12.08-3-1.27.68-7.51,2.01-3.89,5,1.4,1.15,11.51-6.31,15.97-2ZM298,34.12h-11.98s0,3.97,0,3.97l11.98-2.01v-1.96ZM106.01,36.12c-4.87-1.97-5.58,2.2-6.15,2.48-3.56,1.79-6.99.58-5.84,5.49l11.99-7.97ZM92,44.12h-5.98v1.96h5.98v-1.96Z"/>
      <path class="cls-3" d="M76.01,20.1c-6.55,6.01-34.57,9.73-45.19,11.8-4.39.85-9.39-.65-13.38.27-1.27.29-1.38,2.61-2.27,3.17-3.95,2.5-6.53-1.51-5.17,8.75,19.13-.01,37.89,2.57,57.11,2.1,3.16-.08,20.63-5.14,16.9,1.9-3.2.12-8.29-1.24-10,2-11.22.49-22.83-.76-34,0-.97-2.63-3.81-1.88-6-2-1.99-.11-4.02.15-6,0-1.32-.1-2.68.07-4,0-4.12-.22-7.84-2.09-11.99-1.99,3.69,11.42,22.98,12.29,33.27,13.71,13.14,1.82,26.39,2.76,39.7,2.3l49.85,8.04,5.15-6.06c2.21,5.34-5.42,22.02,1.04,23.99,9.16,2.79,12.93-21.97,17.99-25.98,1.66,2.83-.32,8.65-1.01,11.99-.14.66.17,1.41,0,2-6.35,22.25-16.15,18.51-35.99,15.99-6.33-5.6,32.93-21.6,1.99-19.99-1.33.07-2.67-.12-4-.01v8.01c-9.22,10.44-28.98,9.63-26.08-.9.49-1.77,10.93-3.94,8.07-11.09-23.35-1.87-49.68-1.16-72.39-6.61-14.92-3.58-40.29-18.65-24.74-35.54,10.52-11.43,18.97,1.66,23.98,2,11.28.75,34.18-9.15,47.16-7.85ZM118.02,70.09c-10.43-1.38-10.62.28-12,9.99l12,.02v-10.02Z"/>
      <path class="cls-3" d="M174.01,10.1c.29-.29-.82-3.94,1.1-4.13,4.08-.42,6.59,3.71,10.05,4.17,4.3.56,8.16-2.38,11.78-2.02,3.04.3,5.17,3.68,8.21,4.03,4.92.57,9.55-4.92,13.62-4.22,1.82.32,1.72,5.03,4.49,5.98,4.61,1.58,9.32-2.27,13.29-1.43,2.79.59,5.5,4.92,8.77,5.25,3.79.38,7.37-4.8,11.5-3.53,2.6.8,2.52,5.75,4.44,6.09,4.1.71,8.43-4.31,11.64-4.31,1.74,0,1.61,4.21,3,5.18,5.97,4.15,8.47-5.14,13.09-5.07,1.88.03,1.38,5.2,4.12,6.02,3.89,1.16,7.13-4.57,11.75-4.08,3.28.35,5.85,4.62,10.12,4.27,5.26-.44,4.43-5.66,5.09-6.15,2.17-1.61,6.11,4.23,8.66,3.79,1.99-.34,5.46-5.96,9.23-7.06,4.12-1.2,8.7,1.79,9.75,1.04.92-.66.92-5.04,3.51-5.71,2.29-.59,5.25,1.96,6.5,1.52.21-.07.32-2.76,1.73-3.56,5.08-2.9,10.39-6.83,16.55-6.06,1.67,10.78-4.4,20.12-10.94,28.05-13.61,16.51-34.36,25.68-54.61,31.39-5.2,1.47-31.3,5.44-32.18,6.83-1.63,2.59,1.16,13.07-1.74,19.26-1.3,2.78-11.37,9.37-14.05,10.08-1.88.5-13.81-1.5-15.27-2.18-2.95-1.36-2.66-5.04-4.61-5.55-4.9-1.27-13.74,3.57-21.13,2.04-.37-.08-5.6-4.64-5.58-5.02.18-2.62,3.51-4.93,4.11-8.9.19-1.27-.13-2.7,0-4,5.73-.36,22.71-1.36,26.57-2.43,1.63-.45,3.41-1.74,3.43-3.55l-5.99-2c17.21-6.52,9.81,25.32,24.6,21.7,8.89-2.18,8.24-17.73,3.39-23.71,21.6-1.81,46.25-7.53,65.77-17.24,11.98-5.96,23.78-14.55,29.25-26.75,1.02-2.26,4.01-10.63,2.95-12.03-13.55,12.27-29.79,15.18-46.4,20.19-1.79.54-.95,3.48-4.45,3.95-12.62,1.7-36.71-4.54-50.6-5.56-19.56-1.44-39.53-6.58-59.47-8.74-18.14-1.97-45.03,3.99-63.08-.92-3.34-.91-7.11.37-5.98-4.92,13.22,1.05,9.65-2.76,15.36-3.7,2.43-.4,12.44,9.91,18.64,3.7l.02,3.99h1.96c.27-2.15.39-4.13-1.98-3.99ZM308.01,26.08l-3-3.94-2.99,2.97,5.99.97ZM251.97,72.12c-7.12-4.65-9.69,9.74-7.95,13.97,7.81.98,13.5-10.35,7.95-13.97Z"/>
      <path class="cls-1" d="M220.01,72.1c-.13,1.3.19,2.73,0,4h-62c.17-.59-.14-1.34,0-2,17.14-.52,34.23-2.27,51.35-3.25,3.37-.19,6.88,1.48,10.65,1.25Z"/>
      <path class="cls-5" d="M124.01,72.1c0,3.86-1.73,5.43-4,8v-8.01c1.33-.11,2.67.08,4,.01Z"/>
      <path class="cls-3" d="M268,38.09c-4.47-4.31-14.58,3.15-15.97,2-3.62-2.98,2.62-4.32,3.89-5,5.24-2.78,11.45-5.99,12.08,3Z"/>
      <path class="cls-3" d="M96,12.11c3.86,3.86-6.35,12.35-7.98,4.96-.93-4.21,6.52-6.41,7.98-4.96Z"/>
      <path class="cls-3" d="M120,12.11c3.17,3.17-2.81,9.15-5.98,5.98s2.81-9.15,5.98-5.98Z"/>
      <path class="cls-3" d="M188.01,32.08h-9.99s0-3.97,0-3.97c3.81-.29,8.77-.55,9.99,3.97Z"/>
      <polygon class="cls-2" points="298 34.12 298 36.08 286.02 38.09 286.02 34.11 298 34.12"/>
      <path class="cls-3" d="M200.01,24.1c-1.32-.05-2.66.11-3.99,0-.56-4.17-.19-4.55,3.98-3.98.21,1.29-.16,2.72,0,3.98,3.31.14,6.68-.12,9.99.02v1.96s-8.83,2.11-8.83,2.11c-1.81-.18-.99-2.8-1.16-4.08Z"/>
      <path class="cls-2" d="M40.01,50.1c-.52.04-3.17,3.26-5.99,1.99v-3.99c2.18.12,5.02-.63,5.99,2Z"/>
      <path class="cls-3" d="M106.01,36.12l-11.99,7.97c-1.15-4.91,2.28-3.69,5.84-5.49.57-.29,1.29-4.45,6.15-2.48Z"/>
      <path class="cls-2" d="M84.01,48.1c-1.8,3.41-6.49,1.85-10,2,1.71-3.24,6.8-1.88,10-2Z"/>
      <path class="cls-4" d="M28.01,48.1c.2,3.4.72,4.64-2.98,4.01l-1.02-4.01c1.32.07,2.68-.1,4,0Z"/>
      <rect class="cls-3" x="86.02" y="44.12" width="5.98" height="1.96"/>
      <polygon class="cls-3" points="278 34.09 274.02 33.11 277.99 30.1 278 34.09"/>
      <path class="cls-5" d="M118.02,70.09v10.02s-12-.02-12-.02c1.38-9.72,1.57-11.37,12-9.99Z"/>
      <polygon class="cls-5" points="308.01 26.08 302.02 25.11 305.01 22.14 308.01 26.08"/>
      <path class="cls-2" d="M174.01,10.1c2.37-.14,2.25,1.84,1.98,3.99h-1.96s-.02-3.99-.02-3.99Z"/>
    </g>
  </g>
</svg>