<?xml version="1.0" encoding="UTF-8"?>
<svg id="Calque_2" data-name="Calque 2" xmlns="http://www.w3.org/2000/svg" viewBox="0 0 192.82 204.17">
  <defs>
    <style>
      .cls-1 {
        fill: #8a9a99;
      }

      .cls-2 {
        fill: #9d7662;
      }

      .cls-3 {
        fill: #526364;
      }

      .cls-4 {
        fill: #efd078;
      }

      .cls-5 {
        fill: #4e7298;
      }

      .cls-6 {
        fill: #8e9142;
      }

      .cls-7 {
        fill: #e68a40;
      }

      .cls-8 {
        fill: #edc041;
      }
    </style>
  </defs>
  <g id="Calque_1-2" data-name="Calque 1">
    <g>
      <path class="cls-3" d="M84.21,128.92h2c-.09,4.66.06,9.34,0,14-4.11-2.39-.95-8.91-2-10.02-1.29-1.37-32.75,3.89-37.14,5.87-2.03.91-7.09,3.27-4.85,6.11.6.76,15.68,6.54,17.91,7.11,22.46,5.76,65.34,6.62,86.09-4.08,3.12-1.61,6.75-2.45,5.99-6.99-13.72-4.01-27.55-7.59-42-8.02v-2c14.06-.52,28.45,2.41,42,6,1.27.34,3.37,2.96,6,2,.21,19.78,10.12,46.5-10.63,56.37-24.23,11.53-73.07,11.92-97.36.61-23.54-10.96-11.8-38.17-12.02-58.99,1.28-.15,2.78.23,4,0,13.11-2.46,27.33-9.09,42-8ZM140.21,154.92c-27.86,8.52-74.13,6.52-100-8v35c0,.57,6.66,6.84,8.14,7.86,9.71,6.73,44.31,9.87,56.84,9.1,5.67-.35,39.72-6.31,42.51-8.48,2-1.56,6.13-16.26,6.52-19.48.83-6.86-.59-14.94-.01-21.99-2.01-2.28-12.38,5.5-13.99,5.99Z"/>
      <path class="cls-2" d="M158.21,138.92c-2.63.96-4.73-1.66-6-2,5.47-10.61.34-24.28-.08-34.92-1.6-40.23,4.19-97.04-52.93-97.24-69.63-.24-54.58,84.77-56.99,132.16-1.22.23-2.72-.15-4,0-.34-32.97-6.41-74.99,8.25-106.75,18.52-40.12,86.43-41.08,103.27,2.23,11.91,30.64,8.14,74.09,8.48,106.52Z"/>
      <path class="cls-4" d="M152.21,136.92c-13.55-3.59-27.94-6.52-42-6,1.15-6.45,3.51-10.82-2-16,17.09-10.13,3.4-58.17-11.03-63.98-3.87-1.56-4.38,9.34-4.97,11.98-.15.64.17,1.39,0,2-12.93,13.52-16.3,25.83-12,44,.65,2.74,3.95,5.64,4,6,.45,3.16-4.47,9.65,0,14-14.67-1.09-28.89,5.54-42,8C44.62,89.53,29.57,4.53,99.2,4.77c57.12.2,51.33,57.01,52.93,97.24.42,10.64,5.55,24.31.08,34.92ZM78.2,20.93c-16.54,1.25-19.89,17.97-19.98,31.98l13.03-11.92c-.21-9.13,3.69-12.63,6.95-20.06Z"/>
      <path class="cls-5" d="M140.21,154.92c10.27.27-6.09,3.63-1.92,9.88.47.71,13.38,4.28,15.92,6.12-.39,3.22-4.51,17.92-6.52,19.48-2.79,2.17-36.84,8.13-42.51,8.48-12.53.78-47.13-2.37-56.84-9.1-1.48-1.03-8.14-7.3-8.14-7.86v-35c25.87,14.52,72.14,16.52,100,8ZM90.21,172.92c2.61-5.52,23.53-1.8,15.13,10.13-4.65,6.59-19.24-1.44-15.13-10.13-.69,1.01-3.96,1.15-3.99,4.9-.1,13.23,24.09,17.66,24.09.1,0-10.07-7.87-13.65-16.88-10.71-3.56,1.16-2.44,4.59-3.22,5.71Z"/>
      <path class="cls-1" d="M110.21,132.92c14.45.43,28.28,4.01,42,8.02.75,4.55-2.88,5.38-5.99,6.99-20.75,10.7-63.64,9.84-86.09,4.08-2.23-.57-17.31-6.36-17.91-7.11-2.23-2.84,2.83-5.2,4.85-6.11,4.39-1.98,35.85-7.24,37.14-5.87,1.05,1.11-2.11,7.63,2,10.02.45.26,1.36-.22,2,0-1.13,5.92,3.08,4.01,6.91,4,4.46-.01,13.34,1.5,15-3.24,1.34-3.81-1.89-6.29-1.91-6.76-.05-1.31.16-2.72,0-4h2Z"/>
      <path class="cls-1" d="M140.21,154.92c1.61-.49,11.98-8.27,13.99-5.99-.57,7.05.84,15.13.01,21.99-2.54-1.83-15.44-5.41-15.92-6.12-4.18-6.26,12.18-9.61,1.92-9.88Z"/>
      <path class="cls-2" d="M88.21,116.92c1.04.05,3.27-2.08,4-2,2.07.22,4.43,2.15,8,2,3.07-.13,5.29-.4,8-2,5.51,5.18,3.15,9.55,2,16v2h-2c-.47-3.8.35-8.12.01-12.01h-22.02c-.06,2.66.06,5.34.01,8.01h-2c-4.47-4.35.45-10.84,0-14h2c.63,1.09.07,1.91,2,2Z"/>
      <path class="cls-8" d="M92.21,62.92l6.01-5.03c5.67,3.38,15.25,25.48,15.91,32.26.73,7.55-4.26,23.81-11.91,24.76,4.48-12.28-.19-20.26-2.02-32-6.02,2.86-8.63,9.54-7.98,16-.14.63.1,1.35,0,2l-4,16c-1.93-.09-1.37-.91-2-2-1.23-2.12-3.87-5.66-4-6-6.6-17.64,5.52-27.77,10-44,.17-.61-.15-1.36,0-2Z"/>
      <path class="cls-6" d="M108.21,114.92c-2.71,1.6-4.93,1.87-8,2v-2h2c7.65-.96,12.64-17.21,11.91-24.76-.66-6.79-10.24-28.88-15.91-32.26l-6.01,5.03c.6-2.64,1.1-13.54,4.97-11.98,14.43,5.82,28.11,53.85,11.03,63.98Z"/>
      <path class="cls-6" d="M82.21,108.92h-2c-4.3-18.17-.93-30.48,12-44-4.48,16.23-16.6,26.36-10,44Z"/>
      <path class="cls-7" d="M86.21,114.92h-2c-.05-.36-3.35-3.26-4-6h2c.13.34,2.77,3.88,4,6Z"/>
      <path class="cls-3" d="M90.21,172.92c-4.11,8.69,10.48,16.72,15.13,10.13,8.41-11.93-12.52-15.65-15.13-10.13.77-1.12-.34-4.55,3.22-5.71,9.01-2.93,16.87.64,16.88,10.71,0,17.55-24.19,13.12-24.09-.1.03-3.74,3.3-3.89,3.99-4.9Z"/>
      <path class="cls-3" d="M108.21,136.92c.02.48,3.25,2.95,1.91,6.76-1.66,4.74-10.55,3.23-15,3.24-3.83.01-8.04,1.92-6.91-4,6.67,2.33,22.82,3.25,20-6Z"/>
      <path class="cls-4" d="M92.21,98.92c.12-.55,4.84-9.97,7.99-8.01,2.06,8.56.69,15.48.01,24.01v2c-3.57.15-5.93-1.78-8-2,.45-4.44-.66-9.76,0-14,.1-.65-.14-1.37,0-2Z"/>
      <path class="cls-7" d="M92.21,114.92c-.73-.08-2.96,2.05-4,2l4-16c-.66,4.24.45,9.56,0,14Z"/>
      <path class="cls-7" d="M102.21,114.92h-2c.68-8.53,2.05-15.45-.01-24.01-3.15-1.96-7.87,7.46-7.99,8.01-.65-6.46,1.96-13.14,7.98-16,1.83,11.74,6.5,19.72,2.02,32Z"/>
      <g>
        <path class="cls-4" d="M.22,66.93c1.47-1.48,21.81.29,21.95,4.99.11,3.74-18.44,4.71-21.07,1.11-1.1-1.5-1.34-5.64-.88-6.1Z"/>
        <path class="cls-4" d="M190.2,110.91c-6.78.13-19.07,1.59-19.98-7.98,7.14.11,19.16-2.7,19.98,7.98Z"/>
        <path class="cls-4" d="M22.2,100.93c2.84,13.15-26.65,16.72-15.95,5.03,2.03-2.21,14.14-6.8,15.95-5.03Z"/>
        <path class="cls-4" d="M192.2,68.94c4.67,6.46-18.43,10.89-21.98,5.96-4.39-6.1,18.58-10.66,21.98-5.96Z"/>
        <path class="cls-4" d="M166.22,42.91c-3.59-3.14,17.81-21.09,19.98-10.96,1.21,5.63-14.59,13.59-19.98,10.96Z"/>
        <path class="cls-4" d="M28.2,42.91c-8.97-.33-19.28-6.33-19.98-15.98,10.82-1.49,20.26,4.76,19.98,15.98Z"/>
      </g>
    </g>
  </g>
</svg>