<?xml version="1.0" encoding="UTF-8"?>
<svg id="Calque_2" data-name="Calque 2" xmlns="http://www.w3.org/2000/svg" viewBox="0 0 224.42 118.29">
  <defs>
    <style>
      .cls-1 {
        fill: #a2c9df;
      }

      .cls-2 {
        fill: #53add9;
      }

      .cls-3 {
        fill: #6ab1d1;
      }
    </style>
  </defs>
  <g id="Calque_1-2" data-name="Calque 1">
    <g>
      <path class="cls-3" d="M224.01,7.15c3.25,38.14-12.73,69.22-42.77,91.67C116.14,147.48,4.31,99.09.21,17.95.03,14.42-.68,5.72,2.16,3.74c1.12-.78,23.02-2.74,27.05-2.96,47.12-2.57,108.14,1.78,156,4.17,6.48.32,36.36-1.7,38.8,2.2ZM88.29,104.87c2.25,1.78,2.85,5.33,7.46,7.54,17.27,8.3,72.11-4.59,85.65-19.44,6.25-6.86,10.86-22.8,19.91-30.11,3.34-2.7,7.38-1.34,8.62-2.35.69-.56,6.43-15.42,6.49-16.59.36-7.85-4.11-7.41-5.97-10.63-1.3-2.23-1.12-5.58-3.18-8.4-7.49-10.25-28.34-5.23-36.96,1.97-4.3-6.28,10.85-12.89,5.99-17.99-1.76-1.84-45.26-.76-50.88.11-7.23,1.12-13.36,7.69-17.89,8.03s-10.91.16-15.44-1.01c-3.62-.93-5.51-7.14-8.79-7.14h-47c-1.28,0,4.77,10.05-6.89,7.91-4.2-.77-7.55-6.43-12.57-1.37-7.91,7.97,7.87,9.7,3.44,15.46-.8,1.04-10.28-7.95-11.97-5.99-2.45,14.46,4.2,8.45,6,10,.69.6-2.7,6.87-1.73,10.52.27,1,9.98,17.47,11.01,17.63,17.1,2.69,9.67-21.14,10.73-22.15,5.33-5.12,10.28,10.49,10.13,15.07-.16,5.08-5.47,8.81-4.14,14.92l-3.96-1.02,3.96,7.02c-.67.52-2.1,3.81-2.05,4.78,6.88,9.35,11.19,5.35,18.65,7.17.59.14,2.59,3.74,9.4,6.05,4.92,6.1,14.3,10.27,22,10Z"/>
      <path class="cls-2" d="M40.29,70.87c-1.33-6.11,3.98-9.84,4.14-14.92.15-4.58-4.8-20.19-10.13-15.07-1.06,1.02,6.37,24.84-10.73,22.15-1.03-.16-10.74-16.62-11.01-17.63-.97-3.65,2.42-9.93,1.73-10.52-1.8-1.55-8.45,4.46-6-10,1.69-1.96,11.17,7.03,11.97,5.99,4.43-5.76-11.35-7.5-3.44-15.46,5.02-5.06,8.37.6,12.57,1.37,11.67,2.15,5.61-7.91,6.89-7.91h47c3.28,0,5.17,6.2,8.79,7.14,4.53,1.17,10.77,1.36,15.44,1.01s10.66-6.9,17.89-8.03c5.62-.87,49.12-1.95,50.88-.11,4.86,5.1-10.29,11.71-5.99,17.99,8.62-7.21,29.47-12.23,36.96-1.97,2.06,2.82,1.88,6.17,3.18,8.4,1.87,3.22,6.33,2.79,5.97,10.63-.05,1.17-5.8,16.03-6.49,16.59-1.24,1.01-5.27-.35-8.62,2.35-9.05,7.31-13.66,23.25-19.91,30.11-13.54,14.85-68.37,27.73-85.65,19.44-4.62-2.22-5.21-5.76-7.46-7.54-9-7.11-11.89-6.58-22-10-6.81-2.31-8.81-5.91-9.4-6.05-7.46-1.82-11.77,2.18-18.65-7.17-.06-.96,1.37-4.26,2.05-4.78.58-.45,3.57.43,4-.02.82-.86-3.62-4.24-4-5.98ZM98.29,24.87c-7.3,1.52-14.41-1.63-21.01-2.03-4.18-.25-3.54,1.61-3,5.02.24,1.53,20.93-.8,24.01-.99,2.09-.13,8.02.9,8.02-1l-8.02-1ZM167.31,28.91l-2.98,2.98c-.04,2.1,5-1.19,2.98-2.98ZM42.28,36.89h-3.98v1.96h3.98v-1.96ZM99.77,55.5c-5.45-2.61-18.4,1.21-25.47-2.63.22,11.32,13.37,3.38,16.88,4.24,2.27.55,2.41,4.61,3.5,5.29,4.84,3.03,18.16-2.72,19.6-1.53l-1.99,5.97,11.98-3.01c-3.16-13.05-16.84-4.07-22.73-4.88-1.29-.18-1.22-3.19-1.78-3.46ZM168.3,66.86c2.82,2.92,8.18-6.81,7.01-9.95-1.79,1.82-9.14,7.73-7.01,9.95ZM110.28,74.88c-2.97-.47-6.83.05-7.97,3.02-2.5,6.51,11.9.41,7.97-3.02ZM120.29,90.88c-5.87-.65-11.6-.16-14,5.97h14.01s-.01-5.97-.01-5.97Z"/>
      <path class="cls-1" d="M88.29,104.87c-7.7.27-17.08-3.9-22-10,10.11,3.42,13,2.89,22,10Z"/>
      <path class="cls-1" d="M40.29,70.87c.38,1.74,4.82,5.12,4,5.98-.43.45-3.41-.43-4,.02l-3.96-7.02,3.96,1.02Z"/>
      <path class="cls-3" d="M99.77,55.5c.56.27.49,3.28,1.78,3.46,5.89.81,19.57-8.17,22.73,4.88l-11.98,3.01,1.99-5.97c-1.44-1.2-14.76,4.56-19.6,1.53-1.09-.69-1.24-4.74-3.5-5.29-3.51-.86-16.66,7.08-16.88-4.24,7.07,3.84,20.02.02,25.47,2.63Z"/>
      <path class="cls-1" d="M98.29,24.87v2c-3.08.19-23.77,2.52-24.01.99-.53-3.41-1.18-5.27,3-5.02,6.6.4,13.71,3.55,21.01,2.03Z"/>
      <path class="cls-1" d="M120.29,90.88v5.98s-14-.01-14-.01c2.4-6.13,8.13-6.62,14-5.97Z"/>
      <path class="cls-1" d="M110.28,74.88c3.93,3.43-10.47,9.53-7.97,3.02,1.14-2.97,5-3.49,7.97-3.02Z"/>
      <path class="cls-1" d="M168.3,66.86c-2.14-2.21,5.22-8.13,7.01-9.95,1.17,3.14-4.19,12.87-7.01,9.95Z"/>
      <path class="cls-3" d="M98.29,24.87l8.02,1c0,1.9-5.93.87-8.02,1v-2Z"/>
      <rect class="cls-3" x="38.3" y="36.89" width="3.98" height="1.96"/>
      <path class="cls-3" d="M167.31,28.91c2.02,1.79-3.02,5.08-2.98,2.98l2.98-2.98Z"/>
    </g>
  </g>
</svg>