<?xml version="1.0" encoding="UTF-8"?>
<svg id="Calque_2" data-name="Calque 2" xmlns="http://www.w3.org/2000/svg" viewBox="0 0 274.59 169.79">
  <defs>
    <style>
      .cls-1 {
        fill: #947e92;
      }

      .cls-2 {
        fill: #8a9a99;
      }

      .cls-3 {
        fill: #526364;
      }

      .cls-4 {
        fill: #a2c9df;
      }
    </style>
  </defs>
  <g id="Calque_1-2" data-name="Calque 1">
    <g>
      <path class="cls-1" d="M212.3,7.71c2.28,6.87-.35,7.66,0,14,.14,2.49,1.77,5.43,2,8-12.35,1.97-2.73,12.96-.01,9.99.34-.37.18-8.06.01-9.99,10.03-1.6,6.78,9.3,10.39,11.61,6.55,4.2,25.54-.59,36.65,8.35,7.89,6.35,11.32,22.39,8.33,31.53-1.45,4.43-36.65,16.1-42.65,16.41-8.09.41-22.56-3.53-28.88-8.73-2.87-2.36-2.57-6.9-5.82-7.15,3.06,8.64,13.14,17.81,21.98,19.99.46,1.28,1.82,2.82,2,4,.02.14-2.05,1.04-2.03,1.92,13.34,4.81,7.99,1.07,11.84-4.56.77-1.13,23.98-8.87,25.57-8.91,2.47-.06,2.48,2.16,6.62,1.55,1.27-.19,2.7.13,4,0-1.52,3.13-2.83,6.7-4,10-2.13.97-3.92,1.31-6,2-30.75,10.13-45.5,4.69-73.99-7.99-1.98,5.64,5.32,4.21,5.99,7.01.79,3.32-4.95,5.23-5.69,8.36-1.34,5.73,5.73,19.38,5.13,25.35-.28,2.77-3.97,8.12-5.44,11.27h-2c-4.19-5.24-8.19,3.28-13.99,2.01-4.43-20.27-3.61-24.59,13.95-35.03l-13.54,1.3c-2.18,5.11-6.34,8.73-6.56,14.74-.24,6.52,3.6,16.82,4.14,22.97.06.66-.06,1.34,0,2-5.78,4.75-2.34-2.92-8.96-3.05-8.1-.17-11.61,13.35-24.76,4.77l-2.29-37.72c-7.42-2.14-2.51,8.53-3.98,10.02-2.04,2.05-18.85-1.71-23.02-2-2.94-.21-6.1,1.99-9.55,1.58-4.97-.59-30.12-10.98-31.44-9.58-.68,9.05.89,19.11-.01,27.99h-2c-2.16-3.34-4.3-.21-6,0-.7.09-1.46-.17-2,0-1.02.32-2.72-.22-3.99.01l1.99,11.99c-1.31.03-2.71.12-4,0,1.64-14.02-3.05-3.65-10.72-6.2-5.92-1.97-2.59-30.75-3.5-38.58-2.59-22.41-15.1-29.93-6.34-56.77C34.88,15.77,87.93,20.33,127.07,25.94c5.02.72,22.33,6.89,24.83,5.29.3-.19.59-6.51,4.37-3.51.64.51,6.6,15.71,10.02,11.99,3-3.27-10.85-14.87-9.99-18.95,1.21-5.75,9.71-.87,12.01-1.05.31,2.52-1.2,11.81,3.97,7.96.17-.13-.39-2.74,1.43-3.96,10.38-6.98,18.29-6.65,30.59-6.01l-1.98-11.98,9.99,1.99ZM74.29,33.73c-3.27-1.54-14.72,2.67-11.98,3.96,2.97,1.32,14.79-2.63,11.98-3.96ZM59.3,37.71v2c1.3-.67,1.3-1.33,0-2ZM192.29,37.71h-5.98v7.99h5.98v-7.99ZM55.3,39.71v2c1.3-.67,1.3-1.33,0-2ZM51.3,41.71v2c1.3-.67,1.3-1.33,0-2ZM258.29,55.7c0-7.86-7.93-7.96-7.98,0h7.98ZM236.29,69.7c1.42-8.12-3.57-14.15-9.98-6.96l9.98,6.96ZM150.28,145.7v-7.98h-1.96v7.98h1.96Z"/>
      <path class="cls-3" d="M212.3,7.71l-9.99-1.99,1.98,11.98c-12.3-.63-20.21-.97-30.59,6.01-1.82,1.22-1.27,3.84-1.43,3.96-5.16,3.85-3.66-5.45-3.97-7.96-2.3.18-10.8-4.7-12.01,1.05-.86,4.08,12.99,15.68,9.99,18.95-3.42,3.73-9.38-11.48-10.02-11.99-3.78-3-4.07,3.32-4.37,3.51-2.5,1.6-19.81-4.57-24.83-5.29-39.13-5.62-92.18-10.17-107.32,36.21-8.76,26.84,3.75,34.36,6.34,56.77.91,7.83-2.42,36.61,3.5,38.58,7.67,2.56,12.36-7.81,10.72,6.2-5.81-.53-15.37-.82-17.38-7.34-.35-1.13,1.34-3.24.76-4.26-.25-.45-3.29-.34-3.48-1.63-.77-5.29,3.3-19.81,1.93-29.59-1.85-13.22-13.5-27.73-9.85-43.17-4.14,2.18-6.23,7.39-11.97,5.99-2.06-10.24,6.54-13.72,10.82-20.16C31.83,32.38,44.38,18.86,85.29,17.53l67.02,8.19c-4.65-14.51,14.76-16.11,15.99-6.02,5.59-.44,11.8-4.23,17.47-5.52,3.28-.75,12.1-.01,12.54-.47.68-.71-2.65-12.88,7.36-13.7,4.7-.38,5.58,4.5,6.64,7.68Z"/>
      <path class="cls-3" d="M54.3,151.71c-3.12,3.34-.31,7.4-6,6v-6c1.7-.21,3.84-3.34,6,0Z"/>
      <path class="cls-3" d="M56.3,151.71c.9-8.89-.67-18.94.01-27.99,1.32-1.39,26.47,8.99,31.44,9.58,3.45.41,6.61-1.79,9.55-1.58,4.17.29,20.98,4.05,23.02,2,1.47-1.49-3.43-12.16,3.98-10.02l2.29,37.72c13.15,8.58,16.66-4.93,24.76-4.77,6.62.14,3.18,7.8,8.96,3.05.64,6.97-2.94,7.76-9.89,9.09-9.53,1.83-22.12,1.7-28.78-5.54l-1.31-23.56c-9.49,1.47-18.57-1.14-27.37-1.9-2.83-.24-4.39,1.94-4.64,1.91-10.5-1.27-17.95-7.93-27.99-8v17.99c4.77,1.45,8.87-5.19,12.89-3.99,2.63.79,2.86,5.81,3.14,6,.98.68,5.93-8.39,9.96,2-3.29,2.9-9.93,1.68-14,2l-.02-6c-2.98.43-3.78,3.42-3.98,6-3.36.22-6.79-.72-10.03.97-6.11,3.18,1.68,6.7-13.97,7.03l-1.99-11.99c1.27-.24,2.97.3,3.99-.01-.35,2.87-.14,4.01,2,6,5.89,5.46,7.38.09,8-6Z"/>
      <path class="cls-3" d="M212.3,21.71c8.37.23,9.89,14.01,16.48,16.6,19.32,7.59,39.96-3.04,45.03,26.87,2.39,14.06-1.18,13.95-4.94,24.11-3.5,9.47,1.3,11-10.58,16.42,1.17-3.3,2.48-6.87,4-10,.94-1.94,4.36-4.14,3.02-5.96l-9.01,1.97v2.97s1.99,1.02,1.99,1.02c-4.14.61-4.15-1.62-6.62-1.55-1.59.04-24.8,7.79-25.57,8.91-3.85,5.63,1.5,9.37-11.84,4.56-.02-.88,2.05-1.78,2.03-1.92,3.8,4.66,10.28-1.28,7.99-3.99-.32-.38-6.09.95-9.99,0-8.84-2.18-18.92-11.35-21.98-19.99,3.25.25,2.95,4.79,5.82,7.15,6.32,5.2,20.8,9.14,28.88,8.73,6-.3,41.2-11.98,42.65-16.41,2.98-9.13-.44-25.18-8.33-31.53-11.11-8.94-30.1-4.15-36.65-8.35-3.61-2.32-.36-13.21-10.39-11.61.17,1.93.33,9.62-.01,9.99-2.72,2.97-12.34-8.02.01-9.99-.23-2.57-1.86-5.51-2-8Z"/>
      <path class="cls-1" d="M88.3,139.71c-.46,4.66,1.81,10.63-2,14-4.02-10.39-8.97-1.32-9.96-2-.28-.19-.51-5.21-3.14-6-4.02-1.21-8.12,5.43-12.89,3.99v-17.99c10.04.07,17.49,6.73,27.99,8Z"/>
      <path class="cls-1" d="M72.3,155.71c-2.26.18-3.44-.04-4,0,.2-2.57,1-5.57,3.98-6l.02,6Z"/>
      <path class="cls-3" d="M252.3,107.71c-10.02,10.38-26.82,11.48-40.48,9.48-11.35-1.67-27.35-16.41-27.7,3.48-.37,21.1,22.57,42.21-23.82,37.04-.54-6.16-4.38-16.45-4.14-22.97.22-6.01,4.38-9.63,6.56-14.74l13.54-1.3c-17.56,10.44-18.38,14.76-13.95,35.03,5.79,1.28,9.8-7.25,13.99-2.01-2.48,1.66-6.69,1.09-5.99,3.98,10.27,1.16,6.35-.48,7.99-3.98,1.48-3.15,5.16-8.51,5.44-11.27.6-5.96-6.47-19.62-5.13-25.35.73-3.13,6.47-5.04,5.69-8.36-.67-2.8-7.96-1.38-5.99-7.01,28.48,12.68,43.24,18.12,73.99,7.99Z"/>
      <path class="cls-3" d="M236.29,69.7l-9.98-6.96c6.41-7.19,11.39-1.16,9.98,6.96Z"/>
      <rect class="cls-3" x="186.31" y="37.71" width="5.98" height="7.99"/>
      <path class="cls-3" d="M258.29,55.7h-7.98c.05-7.96,7.98-7.86,7.98,0Z"/>
      <path class="cls-4" d="M214.3,101.71c3.9.96,9.66-.38,9.99,0,2.29,2.71-4.19,8.66-7.99,3.99-.18-1.18-1.54-2.72-2-4Z"/>
      <path class="cls-4" d="M56.3,151.71c-.62,6.09-2.11,11.46-8,6,5.69,1.4,2.88-2.66,6-6h2Z"/>
      <path class="cls-4" d="M48.3,157.71c-2.14-1.99-2.35-3.13-2-6,.54-.17,1.3.09,2,0v6Z"/>
      <path class="cls-2" d="M74.29,33.73c2.81,1.33-9.01,5.28-11.98,3.96-2.74-1.29,8.71-5.5,11.98-3.96Z"/>
      <path class="cls-4" d="M262.3,95.71c-1.3.13-2.73-.19-4,0l-1.98-1.02v-2.97s9-1.97,9-1.97c1.34,1.82-2.08,4.01-3.02,5.96Z"/>
      <path class="cls-4" d="M178.3,151.71c-1.64,3.5,2.28,5.14-7.99,3.98-.7-2.89,3.52-2.32,5.99-3.98h2Z"/>
      <rect class="cls-4" x="148.32" y="137.72" width="1.96" height="7.98"/>
      <path class="cls-2" d="M59.3,37.71c1.3.67,1.3,1.33,0,2v-2Z"/>
      <path class="cls-2" d="M55.3,39.71c1.3.67,1.3,1.33,0,2v-2Z"/>
      <path class="cls-2" d="M51.3,41.71c1.3.67,1.3,1.33,0,2v-2Z"/>
    </g>
  </g>
</svg>