<?xml version="1.0" encoding="UTF-8"?>
<svg id="Calque_2" data-name="Calque 2" xmlns="http://www.w3.org/2000/svg" viewBox="0 0 304.64 238.76">
  <defs>
    <style>
      .cls-1 {
        fill: #865b44;
      }

      .cls-2 {
        fill: #8a9a99;
      }

      .cls-3 {
        fill: #9d7662;
      }

      .cls-4 {
        fill: #526364;
      }

      .cls-5 {
        fill: #a2c9df;
      }

      .cls-6 {
        fill: #efd078;
      }
    </style>
  </defs>
  <g id="Calque_1-2" data-name="Calque 1">
    <g>
      <path class="cls-1" d="M88.54,4.52v15.99c8.34,1.62.08-12.08,8-13.99v50c4.68.27,3.54.68,4-2.96,1.73-13.52-2.96-30.06,2-43.04.41,1.54,2.54,7.64,3.33,8.1,7.52,4.38,24.73-1.04,32.67,5.9-11.03-1.22-22.91-.04-34.01-1.99.27,1.64-.44,5.37.02,5.94,1.49,1.85,41.07,5.85,47,6.22s10.57-2.4,15.9-2.25c4.81.14,42.91,6.2,44.22,8.03.98,1.37-1.58,6.08-1.34,9.04,1.21,14.93,4.95,26.04,4.23,44.09-.15,3.85,2.06,8.03-4,6.91.09-3.95-2.48-11.05-2-18,.03-.39,2.17-2.24,2.18-4.93.04-8.57-4.93-5.25-10.18-9.07,2.67-.07,5.35.09,8.01.01l-1.92-24.72-11.06-3.32c-1.46.06-3.7,26.64,2.97,28.03-36.22,1.29-96.8-7.99-134.97-12.03-6.06-.64-43.37-4.42-45.01-5.99-2.2-2.1,4.9-24.97-6.01-23.97l2,175.98c2.59,3.42,3.61-.26,3.96-2.97.68-5.23,1.24-13.25.56-18.47-.39-2.98-1.59-2.7,2.46-2.59l188.99,30.03-.08-11.91-191.04-29.95-2.86-108.12,131.98,14.01c.84,3.46-2.95,1.2-3.86,2.13-1.54,1.57,1.85,3.64,1.87,3.85.87,12.58-1.39,25.58.87,38.13l13.13,1.85c-3.09-5.74-1.87-11.87-2-17.98,6.37-1.11,3.53,3.21,3.94,6.97.89,8.24,5.56,23.87-1.94,29.03-1.27-12.79,4.38-16.42-14-16.01.2,13.97-.29,28.04,0,42.01.01.67-.02,1.33,0,2,.4,14.18-4.67,21.18,14,20.01.29-5.95-.38-12.07,0-18.01.09-1.32-.05-2.67,0-4,.36-9.51.56-14.28,0-24,6.3-1.11,3.6,3.17,3.93,6.98,1.18,13.71-.38,27.29.08,41.03h5.98s2.01-108.01,2.01-108.01l2.3,40.7c10.83,11.59,7.62-7.86,7.7-16.7,6.09-1.11,3.8,3.06,4,6.91.22,4.34-.18,8.76.02,13.08l3.98-3.99v72h5.99c.69-22.95-.9-46.13,0-69.09.15-3.85-2.06-8.02,4-6.91.16,3.32-.15,6.69,0,10.01h7.98c-2.14-5.27,1.91-13.27,2.01-16.01,6.04-1.12,3.87,3.06,4,6.91,1.27,37.95-.96,76.11,0,114.08.41,7.39,10.5,5.59,12.66.56,1.21-17.37,1.68-35.22,1.4-52.63-.54-33.51-4.38-68.17-2.15-101.98.32-4.85.88-11.05,4.07-14.93.07.66-.06,1.34,0,2,.22,2.54-.98,12.05,1.03,12.03l50.97-18.03c-1.33,1.83,1.93,13.14,2.08,16.92.87,21.61-.83,43.46-.06,65.07,3.36.53,1.87-3.76,1.98-5.99h3.99c-4.63,6.8,5.1,21.19-3.99,20,0-.91,1.36-12.28-2.01-8.99v15.99c2.68,3.21,1.94-1.55,2.01-2.99,6.44.5,5.58.97,6.04-4.88,2.45-31.24-1.89-65.56-.06-97.12-1.87.96-4.08,1.26-5.98,2-1.02.4-3.68-.43-4,0,4.66-7.18,14.43-3.74,8.98-16.02-14.38,5.14-28.73,10.59-42.98,16.02.52-.16,8.06-4.65,9.42-5.51,9.49-6.04-8.05-4.66-13.33-4.38l-2.09,9.88c1.83-.26,4.52.47,6,.02-4.17,1.59-9.43,7.21-16,6,1.03-1.84,1.84-3.87,2-6l5.99,1.99.05-12.81c-.35-2.38-4.2-.87-6.04-1.18-4.57-.77-9.41-1.15-14-1.98-.14,2.44,2.92,2.92,4,3.98-6.43,5.72-1.98,10.42-1.9,16.92.69,55.35-.72,110.76-.1,166.11l-3.99,2.95c-.93-57.58,1.94-115.64-1.63-172.98-.16-2.63,1.75-5.52,1.78-8.15.02-1.12-5.42-6.1-4.18-10.85,15.04,1.13,29.85,1.84,44.98,2,7.37.08,16.4,5.22,23.02-3.99-6.09,1.24-11.68-1.28-17.21-1.81-40.93-3.96-83.26-7.41-124.78-12.21l142.97,12.03c-1.66-17.92,14.49-30.15,21.13-9.14l-.16,164.05c-8.22,17.49-22.58,8.01-19.96-8.96-3.52-.27-6.69,1.25-9.99,2.01.15-.15-.65-2.17,1.31-4.12,7.5-7.47,21.07-3.48,16.68-19.87-2.41,1.35-10.74,3.26-11.99,3.99-1.41-7.79,3.75-21.07-3.98-26,.62,7.34-.93,15.9-.02,23.04.37,2.94,1.55,6.21,4,2.96-10.36,6.11-21.94,11.71-34,18,.2-.1,1.96-3.78,2-4l8.09-3.33.02-15.5c-.35-2.43-3.4-.72-4.11-1.17-.92-.59-1.36-1.17-2-2,5.77.93,3.71-1.42,4-6,6.06-1.11,3.84,3.06,4,6.91.09,2.18-1.58,20.44,3.97,15.09,3.46-3.34,1.56-26.69,1.95-33.15.16-2.58,2.07-4.57,2.08-4.84,6.99.24,5.52,1.24,6.01-4.9,1.63-20.67-1.22-43.2,0-64.09-10.61-5.28-5.97,12.79-6.01,20.99-6.1,1.11-3.8-3.06-4-6.91-.23-4.34.18-8.76-.02-13.09-2.74,1.13-5.22,2.86-7.98,4-3.06,1.26-7.55,3.84-8,4-1.76.6-7.38-.67-8.01,0-1.06,1.14,2.12,26.75,2.17,30.96.13,10.2-.25,19.75-.07,29.95.12,6.66-1.77,45.46-.08,47.09.22.21,5.49.23,5.99-.01-1.02.53-3.5,3.33-6.14,4.75-9.4,5.05-12.75.26-7.83,15.25,14.96-4.73,26.65-14.49,41.98-18-10.3,10.13-35.06,15.84-41.49,22.5s3.89,30.88-11.5,31.71c-16.22.88-9.96-17.3-11-28.22l-186.98-28.03c-3.21.13,4.12,26.85-9.97,27.93-7.08.54-6.17-4.88-7.05-5.9l6-.02c-3.8-5.66-4.67-11.17-4.02-17.97l-1.98,17.99c-.22-.25-2.74.58-3.55-.36-2.18-2.53-.26-57.8-.37-66.73-.21-17.27.22-34.39,0-52-.15-12.09-7.34-53.99,2.76-61.06,11.64-8.15,16.75,6.24,15.16,16.15,1.99-.03,4,0,5.99-.02-1.74,1.16-4.06,1.65-4.55,2.02-10.35,7.8,13.13,6.61,18.55,5.98,2.93,2.83,6.46,1.94,10,2,6.37.12,9.3,1.98,7.99-5.99-.57-.65-6.15,1.58-7.99,1.99-3.29.73-6.66,1.61-10,2-1.41-4.67,21.88-7.32,24-8-1.9.84-2.34,9.43-2.01,12l10.01-.02c-4.25-3.75.48-11.55,0-11.96-.3-.26-7.36-.3-8-.02,6.73-2.15,34.25-9.62,23.02-17.95-18.4,4.36-42.54,17.71-61.02,17.95,15.47-10.31,48.3-12.98,56.75-19.79,2.26-1.82.63-10.36,5.25-16.21ZM296.5,20.54c-7.22-5.91-.31,10.66.1,12.92l-.06,154.09,3.99,2.95c.43-45.01-.55-89.91-1.25-134.66-.13-8.1,4.51-29.34-2.78-35.31ZM8.54,30.52c-8.46-1.24-2,6.15-2,9v145h2V30.52ZM110.54,34.52c-.85-.14-2.94-3.31-5.99-1.99-.5,8,1.63,16.52-2.01,23.97l10.01.03v-14.01c1.86,5.88.39,15.37,5.98,13.99l.02-22c-2.57-.32-5.59.42-8.01.01ZM94.53,34.51h-5.98v20.02h5.98v-20.02ZM134.25,36.81l-11.71-2.29-.02,24.01h12.02s-.29-21.72-.29-21.72ZM86.53,36.51h-5.98v18.02h5.98v-18.02ZM142.53,36.51h-5.98v22.02h5.98v-22.02ZM158.43,38.63l-13.88-2.09c.75,13.82-5.55,27.26,14,24l-.12-21.91ZM76.52,52.51v-13.98h-1.96v13.98h1.96ZM164.53,38.52c-4.69-.28-3.53-.66-3.99,2.96-.69,5.39-2.39,21.69,5.99,21.03l-2-23.99ZM182.53,64.51l1.14-22.04-13.13-1.96.24,21.78,11.75,2.22ZM190.53,40.53c-2.47-3.25-3.62.04-3.99,2.95-.83,6.52.59,14.31.01,21.03,2.47,3.25,3.62-.04,3.99-2.95.83-6.52-.59-14.31-.01-21.03ZM278.54,136.52V60.52h-2v76h2ZM20.54,62.52v75c0,.67,1.85,8.48,4.97,6.98,7.15-3.45,1.12-29.9.95-36.9-.36-15,.44-30.11.07-45.09h-5.99ZM36.54,64.52c-10.84-1.9-3.68,5.61-3.82,12.99-.2,9.9-.22,18.02-.09,27.93.27,20.35-.38,40.76-.07,61.09h5.99c1.21-1.13-1.99-11.03-1.99-13.01v-89ZM48.54,132.52l-2.01-68.01-7.99.03c5.24,8.37-.46,65.63,2.01,67.99h7.99c-8.57,4.43-7.34,8.08-8,15.99-.05.66.01,1.34,0,2-.3,13.29-2.88,20.15,14.01,18.01.1-5.32-.15-10.69,0-16.01.04-1.33.02-2.67,0-4-.08-5.98.08-12.02-.02-18-1.68,1.23-4.35,1.15-5.98,2ZM54.54,66.52h-4v59c0,.35,2.7,3.15,4,3v-62ZM64.54,66.52c-2.39-.42-5.46.24-8.01-.01-2.46,2.49,1.93,36.55,2.09,42.93.46,17.97-2.25,41.15-.09,58.12.37,2.92,1.52,6.2,3.99,2.95l2.01-99.99c0,17.44.46,34.64,2.01,51.99,2.74.55,4.81-.7,5.64-3.34,1.76-5.56-.58-49.25-3.59-51.79-1.09-.92-2.77-.64-4.06-.87ZM88.54,68.52h-5.99c3.14,15.98-.39,31.81-.21,47.01.18,14.77,2.3,30.32,2.3,46.08,0,5.64-5.35,12.72,3.9,12.91v-106ZM94.54,112.52v-42h-2v42h2ZM104.54,104.52c-6.06,1.12-3.85-3.06-4-6.91-.3-7.69.93-16.86,0-24.13-.37-2.92-1.53-6.2-3.99-2.95l-.02,40.98,8.01-2.99c.08,1.49-.65,6.17,2.01,2.99v-39.99s-4.04.02-4.04.02c3.5,10.48,1.85,22.01,2.03,32.98ZM116.53,72.51h-5.98v104.02s5.98-.02,5.98-.02v-104ZM122.54,72.52v42c18.68,2,10.1-9.05,10.4-19,.18-6.03,3.02-13.08,1.71-19.77l-12.11-3.23ZM142.53,76.53c-5.85-1.58-5.82,6.95-6.08,10.9-2.09,31.6,2.25,63.54,2.11,95.08l3.99-2.95v-103.03ZM234.54,78.52h-4v48h4v-48ZM106.54,114.52c-4.96.61-13.43-.2-14.12,4.89-.61,4.43-.63,30.67.4,33.83,1.64,5,9.42,3.04,13.72,3.28v-42ZM124.54,160.52c1.92-.09,7.58.41,7.98-.02,2.29-2.48,1.23-39.14-.85-42.11l-11.13-1.88c2.43,11.79-8,37.08,4,44.01-1.33.06-2.67-.1-4-.01l.23,17.79,11.75,2.22.02-18c-5.16,1.4-6.04-.86-8.01-2ZM80.54,152.52v-32c-19.88,4.62-13.18,15.45-14.01,32.01h14.01ZM188.54,166.52v-39c0-3.53-11.17-3.34-14-3v40l14,2ZM210.54,192.52v-61c0-1.92-7.16-6.4-10-5v66h10ZM236.54,130.52h-6v34h6v-34ZM272.53,136.51h-5.98s0,14,0,14c7.89.3,6.01-8.47,5.98-14ZM28.53,146.53c-9.13.03-5.42,11.74-5.98,18h5.98s0-18,0-18ZM272.53,152.51h-5.98v16.02h5.98v-16.02ZM80.53,172.53l-.86-16.13-13.14-1.88.23,15.8,13.77,2.22ZM106.55,158.51h-14.02s.12,15.91.12,15.91l13.88,2.09.02-18ZM188.55,168.51h-14.02c-.08,13.67-3.56,22.62,14.02,20.02v-20.02ZM236.53,168.51h-5.98v18.02h5.98v-18.02ZM292.53,178.53c-7.66-1.6-2.67,11.61-3.98,15.98,7.66,1.6,2.67-11.61,3.98-15.98Z"/>
      <path class="cls-3" d="M138.54,24.52c.66.07,1.34-.08,2,0,41.52,4.79,83.85,8.25,124.78,12.21,5.53.53,11.12,3.06,17.21,1.81-6.62,9.21-15.65,4.07-23.02,3.99-15.14-.16-29.95-.87-44.98-2-1.25,4.75,4.19,9.73,4.18,10.85-.04,2.62-1.95,5.51-1.78,8.15,3.57,57.35.69,115.4,1.63,172.98l3.99-2.95c-.63-55.36.78-110.76.1-166.11-.08-6.5-4.53-11.2,1.9-16.92,6.14,6.02,5.15,5.51,6,14-3.19,3.88-3.75,10.08-4.07,14.93-2.23,33.81,1.61,68.47,2.15,101.98.28,17.41-.19,35.26-1.4,52.63-2.16,5.03-12.25,6.84-12.66-.56-.96-37.97,1.26-76.13,0-114.08-.13-3.85,2.04-8.03-4-6.91.09-2.66-.06-5.34,0-8,6.06,1.12,3.85-3.06,4-6.91.72-18.05-3.02-29.16-4.23-44.09-.24-2.96,2.32-7.67,1.34-9.04-1.31-1.83-39.41-7.89-44.22-8.03-5.32-.15-10.25,2.6-15.9,2.25-5.93-.37-45.51-4.37-47-6.22-.46-.57.25-4.3-.02-5.94,11.1,1.95,22.97.77,34.01,1.99Z"/>
      <path class="cls-3" d="M102.54,10.52c-4.95,12.97-.27,29.52-2,43.04-.47,3.65.68,3.23-4,2.96V6.52c-7.92,1.91.34,15.61-7.99,13.99V4.52c2.96-3.76,5.17-5.68,10.73-3.78,4.82,1.64,2.48,6.87,3.26,9.78Z"/>
      <path class="cls-3" d="M146.54,78.52c-.01-.21-3.4-2.29-1.87-3.85.91-.93,4.7,1.33,3.86-2.13L16.54,58.54l2.86,108.12,191.04,29.95.08,11.91-188.99-30.03c-4.05-.11-2.85-.39-2.46,2.59.68,5.21.11,13.24-.56,18.47-.35,2.71-1.38,6.39-3.96,2.97l-2-175.98c10.91-1,3.81,21.87,6.01,23.97,1.64,1.57,38.95,5.35,45.01,5.99,38.18,4.03,98.75,13.32,134.97,12.03.67-.02,1.33.02,2,0,5.25,3.82,10.22.5,10.18,9.07-.01,2.68-2.15,4.54-2.18,4.93l-10.03,1.14c.91,10.33,1.52,20.51,2.03,30.86-6.06-1.11-3.85,3.06-4,6.91-.91,22.96.68,46.14,0,69.1h-5.99v-72.01l-3.98,3.99c-.2-4.32.2-8.74-.02-13.08-.2-3.85,2.09-8.02-4-6.91.09-10.13,4.05-26.88-10-24l-2.01,108.01h-5.98c-.45-13.74,1.11-27.32-.08-41.03-.33-3.81,2.37-8.09-3.93-6.98-.04-.66.07-1.34,0-2,7.5-5.16,2.83-20.79,1.94-29.03-.41-3.77,2.43-8.09-3.94-6.97-.19-8.88,4.37-30.97-12-22ZM206.53,78.54h-9.98v1.96h9.98v-1.96Z"/>
      <path class="cls-3" d="M254.54,70.52c2.76-1.14,5.24-2.87,7.98-4,.2,4.33-.21,8.75.02,13.09.2,3.84-2.1,8.02,4,6.91-.09,15.86.75,32.2,0,48-.01.27-1.93,2.26-2.08,4.84-.39,6.46,1.51,29.81-1.95,33.15-5.55,5.36-3.88-12.91-3.97-15.09-.16-3.85,2.06-8.02-4-6.91.38-5.94-.25-12.06,0-18.01h-5.98c.97,7.35-2.39,18.35,1.99,24.01.64.83,1.08,1.41,2,2-7.56,3.33-2.66,13.24-4,20-.04.22-1.8,3.9-2,4,12.06-6.29,23.64-11.89,34-18-2.45,3.25-3.63-.03-4-2.96-.91-7.14.64-15.7.02-23.04,7.73,4.93,2.57,18.21,3.98,26,1.25-.73,9.58-2.64,11.99-3.99,4.39,16.39-9.19,12.4-16.68,19.87-1.95,1.95-1.15,3.97-1.31,4.12-15.32,3.51-27.01,13.26-41.98,18-4.92-14.99-1.57-10.2,7.83-15.25,2.64-1.42,5.12-4.22,6.14-4.75-.5.25-5.78.22-5.99.01-1.7-1.63.19-40.43.08-47.09-.18-10.2.2-19.75.07-29.95-.05-4.21-3.23-29.83-2.17-30.96.63-.68,6.25.6,8.01,0l2.01,50.99,5.98,5v-59.99Z"/>
      <path class="cls-3" d="M248.54,56.52c14.25-5.44,28.6-10.88,42.98-16.02,5.45,12.28-4.32,8.85-8.98,16.02l-50.97,18.03c-2.01.02-.8-9.48-1.03-12.03h2c6.57,1.21,11.83-4.41,16-6Z"/>
      <path class="cls-5" d="M210.54,192.52h-10v-66c2.84-1.4,10,3.08,10,5v61Z"/>
      <path class="cls-3" d="M296.5,20.54c7.3,5.97,2.66,27.21,2.78,35.31.7,44.75,1.68,89.65,1.25,134.66l-3.99-2.95.06-154.09c-.41-2.27-7.32-18.84-.1-12.92Z"/>
      <path class="cls-5" d="M146.54,162.52c-.29-13.97.21-28.04,0-42.01,18.38-.42,12.73,3.22,14,16.01.07.66-.04,1.34,0,2,.56,9.72.36,14.49,0,24h-14Z"/>
      <path class="cls-5" d="M124.54,160.52c-12-6.93-1.57-32.22-4-44.01l11.13,1.88c2.07,2.98,3.14,39.64.85,42.11-.4.43-6.06-.07-7.98.02,1.96,1.13,2.85,3.39,8.01,2l-.02,18-11.75-2.22-.23-17.79c1.32-.09,2.67.07,4,.01Z"/>
      <path class="cls-5" d="M106.54,114.52v42c-4.3-.24-12.08,1.72-13.72-3.28-1.04-3.15-1.01-29.39-.4-33.83.7-5.09,9.17-4.28,14.12-4.89Z"/>
      <path class="cls-5" d="M188.54,166.52l-14-2v-40c2.83-.34,14-.53,14,3v39Z"/>
      <path class="cls-3" d="M142.53,76.53v103.03s-3.98,2.95-3.98,2.95c.15-31.54-4.2-63.48-2.11-95.08.26-3.95.24-12.48,6.08-10.9Z"/>
      <polygon class="cls-3" points="116.53 72.51 116.53 176.51 110.55 176.53 110.55 72.51 116.53 72.51"/>
      <path class="cls-3" d="M286.54,56.52c1.9-.74,4.11-1.03,5.98-2-1.83,31.56,2.51,65.88.06,97.12-.46,5.85.4,5.38-6.04,4.88.07-1.32,0-2.67,0-4,9.09,1.19-.63-13.2,3.99-19.99h-3.99c1.24-25.19-.92-50.79,0-76.01Z"/>
      <path class="cls-3" d="M88.54,68.52v106c-9.26-.19-3.9-7.28-3.9-12.91,0-15.77-2.12-31.31-2.3-46.08-.19-15.2,3.35-31.03.21-47.02h5.99Z"/>
      <path class="cls-3" d="M64.54,66.52v4l-2.01,99.99c-2.47,3.25-3.62-.04-3.99-2.95-2.17-16.97.55-40.15.09-58.12-.16-6.37-4.55-40.43-2.09-42.93,2.55.26,5.62-.41,8.01.01Z"/>
      <path class="cls-3" d="M36.54,64.52v89c0,1.98,3.21,11.88,1.99,13h-5.99c-.3-20.32.34-40.73.07-61.08-.13-9.9-.11-18.02.09-27.93.15-7.39-7.02-14.89,3.82-12.99Z"/>
      <path class="cls-5" d="M80.54,152.52h-14.01c.83-16.55-5.87-27.38,14.01-32v32Z"/>
      <path class="cls-3" d="M8.54,30.52v154h-2V39.52c0-2.85-6.46-10.24,2-9Z"/>
      <path class="cls-5" d="M188.55,168.51v20.02c-17.58,2.6-14.1-6.35-14.02-20.02h14.02Z"/>
      <path class="cls-5" d="M160.54,166.52c-.39,5.94.29,12.05,0,18.01-18.67,1.17-13.6-5.82-14-20.01l14,2Z"/>
      <path class="cls-3" d="M54.54,66.52v62c-1.3.15-4-2.65-4-3v-59h4Z"/>
      <polygon class="cls-5" points="80.53 172.53 66.76 170.31 66.53 154.51 79.67 156.39 80.53 172.53"/>
      <polygon class="cls-5" points="106.55 158.51 106.53 176.51 92.65 174.42 92.53 158.51 106.55 158.51"/>
      <path class="cls-5" d="M54.54,152.52c-.14,5.32.11,10.69,0,16.01-16.89,2.14-14.3-4.72-14.01-18.01l14,2Z"/>
      <rect class="cls-5" x="230.54" y="130.52" width="6" height="34"/>
      <path class="cls-5" d="M54.54,148.52h-14c.66-7.91-.57-11.56,8-16,1.63-.85,4.3-.77,5.98-2,.09,5.98-.06,12.02.02,18Z"/>
      <path class="cls-6" d="M286.54,56.52c-.92,25.22,1.24,50.82,0,76-.11,2.23,1.38,6.52-1.98,5.99-.76-21.6.93-43.46.06-65.07-.15-3.78-3.41-15.1-2.08-16.92.32-.43,2.98.4,4,0Z"/>
      <path class="cls-3" d="M104.54,108.52l-8.01,2.99.02-40.98c2.47-3.25,3.62.04,3.99,2.95.93,7.27-.31,16.44,0,24.13.15,3.85-2.06,8.02,4,6.91.02,1.33-.07,2.67,0,4Z"/>
      <rect class="cls-3" x="276.54" y="60.52" width="2" height="76"/>
      <path class="cls-5" d="M250.54,156.52c-4.38-5.66-1.02-16.66-1.99-24.01h5.98c-.24,5.96.38,12.07,0,18.01-.29,4.58,1.77,6.93-4,6Z"/>
      <path class="cls-5" d="M252.54,158.52c.71.45,3.76-1.25,4.11,1.17l-.02,15.5-8.09,3.33c1.34-6.76-3.56-16.67,4-20Z"/>
      <path class="cls-6" d="M234.54,44.52c-.21,3.97.3,8.04,0,12-.16,2.13-.97,4.16-2,6h-2c-.06-.66.07-1.34,0-2-.85-8.49.14-7.98-6-14-1.08-1.06-4.14-1.54-4-3.98,4.59.83,9.42,1.21,14,1.98Z"/>
      <rect class="cls-5" x="230.55" y="168.51" width="5.98" height="18.02"/>
      <path class="cls-5" d="M28.53,146.53v18s-5.98,0-5.98,0c.56-6.26-3.15-17.97,5.98-18Z"/>
      <rect class="cls-2" x="266.55" y="152.51" width="5.98" height="16.02"/>
      <path class="cls-6" d="M104.54,104.52c-.18-10.96,1.47-22.49-2.03-32.98l4.04-.02v39.99c-2.66,3.17-1.93-1.5-2.01-2.99-.07-1.33.02-2.67,0-4Z"/>
      <rect class="cls-3" x="92.54" y="70.52" width="2" height="42"/>
      <path class="cls-3" d="M234.54,44.52c1.83.31,5.69-1.2,6.04,1.18l-.05,12.81-5.99-1.99c.3-3.96-.21-8.03,0-12Z"/>
      <path class="cls-5" d="M272.53,136.51c.03,5.53,1.91,14.3-5.98,14v-14s5.98,0,5.98,0Z"/>
      <path class="cls-3" d="M292.53,178.53c-1.31,4.37,3.68,17.58-3.98,15.98,1.31-4.37-3.68-17.58,3.98-15.98Z"/>
      <path class="cls-3" d="M6.54,204.52l1.98-17.99c-.65,6.8.22,12.31,4.02,17.97l-6,.02Z"/>
      <path class="cls-2" d="M54.54,148.52c.02,1.33.04,2.67,0,4l-14-2c.01-.66-.05-1.34,0-2h14Z"/>
      <path class="cls-4" d="M160.54,162.52c-.05,1.33.09,2.68,0,4l-14-2c-.02-.67.01-1.33,0-2h14Z"/>
      <path class="cls-6" d="M286.54,152.52c0,1.33.07,2.68,0,4-.07,1.44.67,6.2-2.01,2.99v-15.99c3.37-3.28,2.01,8.08,2.01,8.99Z"/>
      <path class="cls-3" d="M64.54,40.52c-2.12.68-25.41,3.33-24,8-5.41.63-28.9,1.82-18.55-5.98.48-.36,2.81-.86,4.55-2.02,18.48-.23,42.63-13.58,61.02-17.95,11.23,8.32-16.29,15.79-23.02,17.95Z"/>
      <rect class="cls-3" x="136.55" y="36.51" width="5.98" height="22.02"/>
      <rect class="cls-3" x="88.55" y="34.51" width="5.98" height="20.02"/>
      <path class="cls-3" d="M110.54,34.52c2.42.41,5.45-.33,8.01-.01l-.02,22c-5.59,1.38-4.12-8.11-5.99-13.99-.81-2.55-2.6-4.81-2-8Z"/>
      <path class="cls-3" d="M164.53,38.52l2,23.99c-8.38.66-6.68-15.63-5.99-21.03.47-3.62-.7-3.25,3.99-2.96Z"/>
      <path class="cls-3" d="M190.53,40.53c-.58,6.71.85,14.5.01,21.03-.37,2.92-1.53,6.2-3.99,2.95.58-6.71-.85-14.5-.01-21.03.37-2.92,1.53-6.2,3.99-2.95Z"/>
      <path class="cls-3" d="M50.54,46.52c1.84-.41,7.42-2.65,7.99-1.99,1.31,7.98-1.61,6.11-7.99,5.99v-4Z"/>
      <path class="cls-6" d="M50.54,46.52v4c-3.54-.06-7.07.83-10-2,3.34-.39,6.71-1.27,10-2Z"/>
      <rect class="cls-3" x="74.56" y="38.53" width="1.96" height="13.98"/>
      <rect class="cls-1" x="196.55" y="78.54" width="9.98" height="1.96"/>
    </g>
  </g>
</svg>