<?xml version="1.0" encoding="UTF-8"?>
<svg id="Calque_2" data-name="Calque 2" xmlns="http://www.w3.org/2000/svg" viewBox="0 0 205.9 201.26">
  <defs>
    <style>
      .cls-1 {
        fill: #a2c9df;
      }

      .cls-2 {
        fill: #53add9;
      }

      .cls-3 {
        fill: #6ab1d1;
      }
    </style>
  </defs>
  <g id="Calque_1-2" data-name="Calque 1">
    <g>
      <path class="cls-2" d="M97.57,4.07c11.52,1.89,23.38-1.15,36.48,2.52,31.34,8.79,60.63,47.21,64.9,78.73.32,2.38-1.52,5.27-1.32,7.71,1.27,15.9,7.51,30.33-10.04,40.04,1.17,2.78,9.58-1.72,7.96,3.94-.71,2.49-8.5,18.78-10.12,21.34-.76,1.2-10.27,12.03-11.85,13.71-.65.69-1.33,1.33-2,2l-32.01,16.98c-8.25.59-17.96,3.8-25.14,4.86-1.7.25-26.67,4.14-18.84-1.82l9.98-1.99c-4.1-1.81-12.58,2.34-14.89,1.75-2.58-.66-2.37-5.66-4.27-5.85-2.91-.29-8.86,3.13-15.7,1.97-4.32-.73-23.09-11.02-29.13-13.89-7.34-10.07-20.67-20.21-23.59-33.58-.82-3.73,1.32-6.98.74-10.6-.48-3-3.08-6.96-3.15-7.82-.11-1.32.08-2.68,0-4l4-40c0-.67,0-1.33,0-2l4.03-14.98c.15-2.27-5.88-1.96-4.03,2.98h-5.99c-.53-.69,4.83-13.58,5.99-16,1.21-.43,4.07.86,5.63-.31,1.02-.77,11.4-16.23,15.38-19.68,7.76-6.72,20.21-5.78,22.99-16.01.65-.22,1.88-1.33,4-2,.19-.06,2.16,2.44,3.88,1.18l22.12-9.18h4ZM121.56,16.05c-3.61-6.47-19-5.5-23.99-.97l23.99.97ZM169.57,60.07c-4.1-18.69-24.66-28.87-41.95-33.05-21.95-5.31-34.35-3.52-54.02,4.12-3.12,1.21-8.23.25-9.73,1.23-.82.54-2.16,7.89-4.25,10.79s-5.91,3.74-7.36,5.62c-18.83,24.3-24.84,71.39-4.74,96.34,2.23,2.76,12.23,10.98,16.04,12.96l4,2c8.26,17.79,41.92,16.39,58.83,13.84,6.46-.97,10.05-5.08,16.15-5.85,2.07.32-.65,7.79-.99,8.01-.48.32-8.49-5-7.99,3.99,9.32,2.45,7.52-3.72,7.99-3.99,3-1.71,17.07-5.24,13.83-9.86-7.48.24-1.58-6.96-1.83-12.14.47-.28,1.44.27,2,0,4.81-2.31,3.16-5,4-6,1.23-1.46,3.64-3.47,4-4,3.16,2.04,11.61-6.42,11.9-7.48.79-2.91,3.94-19.28,4.05-21.87.13-2.97-1.95-4.4-1.95-4.65.03-1.33-.02-2.67,0-4l4,.02c-.89-8.49,2.97-19.95-4-26.02-.08-1.32.13-2.69,0-4-.51-5.22-1.12-14.22-8-14-.29-.52.3-1.55,0-2ZM156.55,26.11c-.96,3.18,6.19,7.5,8.98,6.98l-8.98-6.98ZM27.56,54.08h-3.98s0,5.99,0,5.99c2.89-.67,4.59-3.23,3.97-5.99ZM27.55,116.06v-11.98h-1.96v11.98h1.96ZM29.56,132.06c.45-.58-.49-13.96-3.97-13.98-.59.88-.8,20.11,3.97,13.98ZM33.56,136.06l-7.97,10c9.76-4.77,3.72,2.38,9.96,6l-1.99-15.99ZM163.56,158.08c-3.78-2.97-7.06,6.93-5.98,7.98,2.41,2.36,7.91-3.98,5.98-7.98Z"/>
      <path class="cls-3" d="M173.57,172.07c1.57-1.67,11.09-12.5,11.85-13.71,1.62-2.56,9.41-18.85,10.12-21.34,1.63-5.66-6.79-1.16-7.96-3.94,17.55-9.72,11.32-24.14,10.04-40.04-.2-2.45,1.64-5.34,1.32-7.71-4.27-31.53-33.56-69.94-64.9-78.73-13.1-3.67-24.96-.63-36.48-2.52,22.44-11.32,54.94,3.05,72.96,18.04,24.07,20.04,38.43,68.05,34.83,98.74-1.98,16.82-13.98,45.83-31.79,51.22Z"/>
      <path class="cls-3" d="M63.57,14.07c-2.77,10.23-15.22,9.29-22.99,16.01-3.98,3.45-14.36,18.91-15.38,19.68-1.56,1.18-4.42-.12-5.63.31-1.16,2.42-6.52,15.31-5.99,15.99h3.99c-4.72,11.94-7.97,22.95-8,36.01-5.9-.13-6.28-1.54-6.07,4.98.14,4.15,3.68,21.76,6.03,24.05,4.89,4.77,4.48-4.46,4.04-7.04h2c.07.86,2.67,4.82,3.15,7.82.57,3.62-1.56,6.86-.74,10.6,2.92,13.38,16.25,23.51,23.59,33.58,6.04,2.87,24.82,13.16,29.13,13.89,6.83,1.16,12.78-2.25,15.7-1.97,1.9.19,1.69,5.19,4.27,5.85,2.31.59,10.79-3.56,14.89-1.75l-9.98,1.99c-7.83,5.96,17.14,2.08,18.84,1.82,7.18-1.06,16.89-4.27,25.14-4.86l32.01-16.98c-31.74,31.8-102.52,39.7-130,2-11.63-5.52-17.34-10.71-24.77-22.23C-.98,126.31-5.07,98.9,6.57,68.07c2.66-7.05,5.99-15.48,13-18,8.82-18.45,24.75-29.52,44-36Z"/>
      <path class="cls-3" d="M93.57,4.07l-22.12,9.18c-1.72,1.26-3.68-1.24-3.88-1.18,5.13-6.74,17.86-7.62,26-8Z"/>
      <path class="cls-3" d="M63.57,158.07c-3.81-1.98-13.82-10.2-16.04-12.96-20.1-24.96-14.09-72.04,4.74-96.34,1.45-1.88,5.31-2.77,7.36-5.62s3.43-10.25,4.25-10.79c1.5-.98,6.61-.02,9.73-1.23,19.66-7.64,32.07-9.43,54.02-4.12,17.29,4.18,37.84,14.37,41.95,33.05-7.37-10.99-26.88-23.63-39.57-27.43-40.58-12.17-74.93,4.97-87.45,45.41-10.14,32.77-.83,56.34,21.02,80.02Z"/>
      <path class="cls-3" d="M153.57,154.07c.25,5.18-5.65,12.38,1.83,12.14,3.25,4.62-10.83,8.15-13.83,9.86-.47.27,1.33,6.44-7.99,3.99-.5-8.99,7.51-3.67,7.99-3.99.34-.22,3.05-7.7.99-8.01-6.1.77-9.69,4.88-16.15,5.85-16.92,2.55-50.57,3.96-58.83-13.84,32.18,18.83,56.22,11.95,86-6Z"/>
      <path class="cls-1" d="M19.57,78.07c0,.67,0,1.33,0,2-4.57,1.4-3.9,5.16-4.12,8.89-.54,9.37-.46,21.74.12,31.11.08,1.32-.11,2.68,0,4h-2c-1.38-7.98-4.02-12.11-4-22,.03-13.07,3.28-24.08,8-36h2c0,4,0,8,0,12Z"/>
      <path class="cls-3" d="M177.57,110.07c0,.25,2.08,1.68,1.95,4.65-.11,2.58-3.26,18.95-4.05,21.87-.29,1.07-8.74,9.52-11.9,7.48,7.79-11.59,10.05-20.66,14-34Z"/>
      <path class="cls-3" d="M15.57,120.07c-.57-9.37-.65-21.74-.12-31.11.21-3.73-.45-7.49,4.12-8.89l-4,40Z"/>
      <path class="cls-3" d="M177.57,80.07c6.97,6.06,3.11,17.53,4,26.02l-4-.02c.15-8.44.48-17.64,0-26Z"/>
      <path class="cls-3" d="M121.56,16.05l-23.99-.97c4.99-4.52,20.38-5.5,23.99.97Z"/>
      <path class="cls-3" d="M33.56,136.06l1.99,15.99c-6.24-3.61-.21-10.76-9.96-6l7.97-10Z"/>
      <path class="cls-3" d="M29.56,132.06c-4.77,6.13-4.56-13.1-3.97-13.98,3.48.02,4.42,13.4,3.97,13.98Z"/>
      <path class="cls-3" d="M19.57,66.07c-1.86-4.93,4.18-5.24,4.03-2.98l-4.03,14.98c0-4,0-8,0-12Z"/>
      <path class="cls-3" d="M163.56,158.08c1.93,4-3.57,10.34-5.98,7.98-1.08-1.05,2.2-10.95,5.98-7.98Z"/>
      <path class="cls-3" d="M169.57,62.07c6.88-.22,7.49,8.78,8,14-4.06-2.7-5.08-8.83-8-14Z"/>
      <rect class="cls-3" x="25.59" y="104.08" width="1.96" height="11.98"/>
      <path class="cls-3" d="M27.56,54.08c.62,2.76-1.08,5.32-3.97,5.99v-5.99s3.97,0,3.97,0Z"/>
      <path class="cls-3" d="M156.55,26.11l8.98,6.98c-2.79.52-9.94-3.8-8.98-6.98Z"/>
      <path class="cls-3" d="M155.57,154.07l4-6c-.84,1,.81,3.69-4,6Z"/>
      <path class="cls-2" d="M9.57,102.07c-.02,9.89,2.62,14.02,4,22,.45,2.58.85,11.81-4.04,7.04-2.35-2.3-5.9-19.9-6.03-24.05-.21-6.52.17-5.11,6.07-4.98Z"/>
    </g>
  </g>
</svg>