<?xml version="1.0" encoding="UTF-8"?>
<svg id="Calque_2" data-name="Calque 2" xmlns="http://www.w3.org/2000/svg" viewBox="0 0 155.14 217.61">
  <defs>
    <style>
      .cls-1 {
        fill: #865b44;
      }

      .cls-2 {
        fill: #947e92;
      }

      .cls-3 {
        fill: #8a9a99;
      }

      .cls-4 {
        fill: #9d7662;
      }

      .cls-5 {
        fill: #526364;
      }

      .cls-6 {
        fill: #a2c9df;
      }

      .cls-7 {
        fill: #efd078;
      }

      .cls-8 {
        fill: #4e7298;
      }

      .cls-9 {
        fill: #6ab1d1;
      }

      .cls-10 {
        fill: #edc041;
      }
    </style>
  </defs>
  <g id="Calque_1-2" data-name="Calque 1">
    <g>
      <path class="cls-5" d="M42.83,64.73c7.28-2.96,30.87-4.86,32-6.03.27-.28.39-6.81-.34-7.66-.63-.74-10.97-1.69-9.65-7.28,1.1-4.65,19.19-7.35,23.07-1.1,5.46,8.81-10.72,5.11-9.06,16.06,13.28-.66,28.22,4.06,39.99,10.01,2.38,1.2,5.73,4.15,8,6,.33.27,2.27-.93,4.13,1.27,22.69,26.83,30.21,62.97,12.9,94.76-2.87,5.27-14.32,17.86-14.75,19.41-1.71,6.25,16.5,31.59-4.44,25.68-5.68-1.6-3.05-3.86-3.84-5.12l10.01-1.02c.99-4.38-6.3-3.92-8-7.99-.7-1.67,5.65.29,3.98-3.96-2.02-5.11-11.28.09-11.94,1.04-1.49,2.14,3.1,6.05,3.96,7.93-9.62-10.74-12.3-2.9-21.91-.91-6.04,1.25-15.03,3.11-20.98,2.97-9.87-.23-24.12-7.45-30.47-7.61-4.16-.1-8.07,4.72-10.64,7.54,3.64-2.16,2.06-19.34-5.9-13.92-.7.48-5.42,13.39-6.09,15.91,5.21,2.52,6.19-3.77,6.94-3.75,1.19.02,3.97,2.4,5.05,1.76-1.65,1.81-1.57,6.45-5.32,7.72-21.26,7.19-2.64-20.83-2.72-24.77-.02-.9-8.2-12.39-9.96-14.95.87,1.19,20.4,16.23,23.24,17.76,77.76,41.81,145.43-55.9,86.76-111.76C86.46,44.29,13.2,63.3,6.83,120.73c-.76,6.86-.82,21.2,0,28,.34,2.79,8.95,26.56,10,28C-6.21,143.32-5.66,106.46,24.83,76.73c3.75-3.66,13.21-10.05,18-12Z"/>
      <path class="cls-5" d="M128.83,36.73v2c-.56-.15-1.31.08-2,0-1.32-1.68-3.95-3.78-6-4C118.8,4.95,78.86,2.7,56.77,9.66c-15,4.73-16.82,11.83-21.94,25.06-.41,1.05-2.1,2.3-2,4-1.28-.03-2.76-.16-4,0l-1-1.96-1,1.96c-3.1.73-8.57,4.34-12,6-.89.43-3.09-.42-4,0l-1.13-10.07c3.74-5.36,12.32,3.08,18.31-1.73,7.91-6.36,2.41-20.73,23.7-28.32C80.67-5.72,124.49-.17,128.83,36.73Z"/>
      <path class="cls-4" d="M40.83,62.73c-4.71,3.4-11.39,9.54-16,12-1.92,1.02-13.88,5.94-15.18,6.03-13.25.88-12.85-29.46,1.18-36.03.91-.42,3.11.43,4,0v2c-.89.41-1.41,1.64-2,2-.7.42-1.31,1.39-2,2s-1.49,1.3-2,2c-.45.61-2.37.55-3.49,3.4-6.35,16.21,1.83,28.47,15.49,12.6.63-.2,1.47.23,2,0,2.88-1.25,3.38-3.61,4-4,1.24-.78,2.8-1.18,4-2l22.01-13.05c-3.55-9.74-11.07-10.71-20.01-10.95-.1-1.7,1.59-2.95,2-4,6.31.15,22.72,6.91,23.86,13.27.75,4.21-14.05,11.98-17.86,14.73Z"/>
      <path class="cls-1" d="M130.83,36.73c4.47,5.41,10.53,4.62,14,6,1.09.43,9.01,10.94,9.58,13.42,1.24,5.41,1.86,27.09-6.21,26.33-2.09-.2-10.3-5.29-13.34-6.77-2.03-.99-6.83-4.99-8.02-.98-2.27-1.85-5.62-4.8-8-6-1.45-1.57-2.6-4.78-4-6l2-2c.89.36,2.78-.24,4,0,2.54,1.87,3.98,2.61,6,4,4.37,3,6.15,5.3,12,8,1.31.6,2.21,1.41,4,2,8.76,2.88,8.66-.47,8-10-.08-1.16.24-3.78,0-4-.22-8.44-15.3-20.19-22-22v-2h2Z"/>
      <path class="cls-8" d="M118.83,206.73c-.85-1.88-5.44-5.79-3.96-7.93.66-.95,9.92-6.15,11.94-1.04,1.67,4.25-4.67,2.29-3.98,3.96,1.7,4.07,9,3.61,8,7.99l-10.01,1.02c-.76-1.22-1.4-2.68-2-4Z"/>
      <path class="cls-6" d="M42.83,64.73c-4.79,1.95-14.25,8.34-18,12v-2c4.61-2.46,11.29-8.6,16-12l2,2Z"/>
      <path class="cls-3" d="M126.83,82.73l-8,2c-8.59-7.98-35.01-16.63-46.71-15.89-36.39,2.32-66.07,42.75-56.72,78.32,5.65,21.49,13.1,29.71,31.43,39.57.66.36,1.77,3.21,4.5,4.41,37.45,16.48,77.49-5.08,85.52-44.4l3.96,9.98c1.57-8.94,3.36-20.15,2.18-29.12-.49-3.7-3.73-2.62-4.11-4.24-.95-4.06,1.05-14.8-.06-16.62-.32-.53-3.65,4.31-8.84-6.21-2.84-5.75-3.47-8.99-9.15-13.79h5.99s.01-4,.01-4c58.67,55.86-9,153.57-86.76,111.76-2.84-1.53-22.37-16.57-23.24-17.76-1.05-1.44-9.66-25.21-10-28,3.33-6.7,3.39-20.88,0-28,6.37-57.42,79.63-76.43,120-38Z"/>
      <path class="cls-8" d="M34.83,208.73c-1.08.64-3.86-1.74-5.05-1.76-.75-.01-1.73,6.27-6.94,3.75.68-2.52,5.39-15.43,6.09-15.91,7.96-5.42,9.54,11.76,5.9,13.92Z"/>
      <path class="cls-7" d="M126.83,38.73c.69.08,1.44-.15,2,0,6.7,1.81,21.78,13.56,22,22-.43-.38-3.3.64-3.85-.11-.95-1.29,1.01-6.36-3.01-10.03-.89-.81-20.91-9.59-22.12-9.68-9.35-.68-5.85,8.76-11.02,13.82-1.2-1.01-12.25-4.06-8-10,1.88-2.62,19.37-6.53,24-6Z"/>
      <path class="cls-7" d="M28.83,38.73c1.24-.16,2.72-.03,4,0,8.93.24,16.46,1.21,20.01,10.95l-22.01,13.05c4.28-2.93,21.7-14.72,13.72-19.74-2.57-1.62-25.88,1.97-29.72,3.74v-2c3.43-1.66,8.9-5.27,12-6,.6-.14,1.32.09,2,0Z"/>
      <path class="cls-4" d="M120.83,34.73c2.05.22,4.68,2.32,6,4-4.63-.53-22.12,3.38-24,6-4.25,5.94,6.8,8.99,8,10,.69.58,1.25,1.52,2,2,1.42.91,3.08,3.63,4,4l-2,2c-2.56-2.22-17.72-11.76-17.99-13.03-.99-4.62,5.28-4.21,5.99-4.97.55-.58.05-3.52,3.13-5.78,2.54-1.87,11.64-4.56,14.87-4.22Z"/>
      <path class="cls-4" d="M28.83,38.73c-.68.09-1.4-.14-2,0l1-1.96,1,1.96Z"/>
      <path class="cls-10" d="M14.83,46.73c3.84-1.77,27.15-5.35,29.72-3.74,7.98,5.02-9.44,16.81-13.72,19.74-1.2.82-2.76,1.22-4,2l-4,4c-.53.23-1.37-.2-2,0-4.08,1.32-7.47,2.9-12,2.01v-18.01c.51-.7,1.34-1.41,2-2l2-2c.59-.36,1.11-1.59,2-2Z"/>
      <path class="cls-7" d="M8.83,52.73v18.01c4.53.9,7.92-.69,12-2.01-13.66,15.88-21.85,3.61-15.49-12.6,1.12-2.85,3.04-2.79,3.49-3.4Z"/>
      <path class="cls-7" d="M22.83,68.73l4-4c-.62.39-1.12,2.75-4,4Z"/>
      <path class="cls-7" d="M10.83,50.73c.69-.61,1.3-1.58,2-2l-2,2Z"/>
      <path class="cls-9" d="M6.83,148.73c-.82-6.8-.76-21.14,0-28,3.39,7.12,3.33,21.3,0,28Z"/>
      <path class="cls-10" d="M110.83,54.73c5.17-5.06,1.67-14.5,11.02-13.82,1.2.09,21.22,8.86,22.12,9.68,4.02,3.67,2.07,8.74,3.01,10.03.55.75,3.42-.27,3.85.11.24.22-.08,2.84,0,4h-5.99c1.08,5.49,4.2,7.27-2.01,10-1.79-.59-2.69-1.4-4-2l-12-8c-2.02-1.39-3.46-2.13-6-4s-3.98-4.19-8-4c-.75-.48-1.31-1.42-2-2Z"/>
      <path class="cls-7" d="M150.83,64.73c.66,9.53.76,12.88-8,10,6.21-2.73,3.08-4.51,2.01-9.99h5.99Z"/>
      <path class="cls-7" d="M138.83,72.73c-5.85-2.7-7.63-5-12-8l12,8Z"/>
      <path class="cls-7" d="M120.83,60.73c-1.22-.24-3.11.36-4,0s-2.58-3.09-4-4c4.02-.19,5.44,2.12,8,4Z"/>
      <path class="cls-5" d="M118.83,84.73c.69.64,1.27,1.38,2,2,5.68,4.81,6.31,8.04,9.15,13.79,5.19,10.52,8.52,5.68,8.84,6.21,1.11,1.82-.89,12.57.06,16.62.38,1.62,3.63.54,4.11,4.24,1.18,8.97-.61,20.18-2.18,29.12l-3.96-9.98c-8.04,39.32-48.07,60.88-85.52,44.4-2.73-1.2-3.83-4.05-4.5-4.41,57.67,26.86,112.33-32.24,80.82-85.82C90.3,37.39-13.44,89.5,25.05,165.08c2.31,4.54,17.34,19.58,21.78,21.65-18.34-9.86-25.78-18.08-31.43-39.57-9.35-35.56,20.33-76,56.72-78.32,11.7-.75,38.12,7.91,46.71,15.89Z"/>
      <path class="cls-8" d="M126.83,82.73v3.99s-6,.01-6,.01c-.73-.62-1.31-1.36-2-2l8-2Z"/>
      <path class="cls-5" d="M78.8,96.73l3.91,40.73c-13.11,4.38-13.75,22.32-27.87,23.25.72-10.09,12.28-15.48,15.43-23.56,4.64-11.9.83-23.46,3.12-34.97.72-3.64.93-6.61,5.42-5.46Z"/>
      <polygon class="cls-5" points="128.72 124.84 129.99 138.82 118.84 140.71 126.85 135.73 120.82 133.71 124.82 126.75 118.84 124.75 128.72 124.84"/>
      <path class="cls-5" d="M24.84,142.7l5.99-5.96c-10.95,1.58-10.92-13.32-1.3-11.62,8.68,1.53,6.81,20.08-4.69,17.58ZM30.82,128.74c-2.18-2.18-6.16,1.8-3.98,3.98s6.16-1.8,3.98-3.98Z"/>
      <path class="cls-5" d="M83.13,88.38c.7.97,5.47-1.1,3.69,4.33h-9.98s3.98-11.01,3.98-11.01l-3.98-2.96c12.1-1.59,5.17,8.08,6.29,9.64Z"/>
      <path class="cls-5" d="M80.83,184.73c2.13-2.13-1.76-6.22-3.99-3.99s1.86,6.11,3.99,3.99c-7.28,7.05-13.98-7.69-4.99-11.99.39-.19,4.58,6.16,5.02,6.98,1.68,3.12,3.07,2.02-.03,5.02Z"/>
      <path class="cls-5" d="M72.82,92.71c-8.3,1.53-.62-9.65-1.97-13.98l1.97,13.98Z"/>
      <path class="cls-2" d="M122.82,104.74v5.98s-5.98,0-5.98,0c-.65-3.64,2.2-6.62,5.98-5.98Z"/>
      <path class="cls-3" d="M36.82,112.71h-5.98s0-5.98,0-5.98c3.78-.64,6.63,2.34,5.98,5.98Z"/>
      <path class="cls-5" d="M52.82,94.72c-2.01,2.04-8.03-3.9-5.98-5.98s8.03,3.9,5.98,5.98Z"/>
      <path class="cls-2" d="M106.82,88.74c2.05,2.07-3.97,8.02-5.98,5.98s3.97-8.02,5.98-5.98Z"/>
      <rect class="cls-2" x="100.84" y="172.74" width="5.98" height="3.98"/>
      <path class="cls-5" d="M54.82,172.74c.62,2.76-1.08,5.32-3.97,5.99v-5.99s3.97,0,3.97,0Z"/>
      <path class="cls-5" d="M122.82,156.74v3.98c-2.95.65-4.16-.88-5.98-3l5.98-.98Z"/>
      <polygon class="cls-5" points="36.82 160.71 32.83 160.71 35.84 156.74 36.82 160.71"/>
      <path class="cls-5" d="M79.83,170.73c1.3.67,1.3,1.33,0,2v-2Z"/>
      <path class="cls-6" d="M30.82,128.74c2.18,2.18-1.8,6.16-3.98,3.98s1.8-6.16,3.98-3.98Z"/>
      <path class="cls-6" d="M80.83,184.73c-2.13,2.13-6.22-1.76-3.99-3.99s6.11,1.86,3.99,3.99Z"/>
      <path class="cls-5" d="M144.83,42.73c-3.47-1.38-9.53-.59-14-6,7.57-9.72,18.95-6.47,14,6Z"/>
    </g>
  </g>
</svg>