<?xml version="1.0" encoding="UTF-8"?>
<svg id="Calque_2" data-name="Calque 2" xmlns="http://www.w3.org/2000/svg" viewBox="0 0 297 156.3">
  <defs>
    <style>
      .cls-1 {
        fill: #8a9a99;
      }

      .cls-2 {
        fill: #a2c9df;
      }
    </style>
  </defs>
  <g id="Calque_1-2" data-name="Calque 1">
    <g>
      <path class="cls-1" d="M190.22,32.16c.4-.82-1.07-2.29,1.23-4.16,12.06-9.82,38.21-4.82,49.76,4.17s16.36,26.09,14.99,40c30.25-4.35,54.65,31.33,31.8,54.78-12.53,12.86-29.65,15.14-46.85,13.27-5.22-.57-9.75-4.53-13.85-4.14-3.56.35-13.66,11.55-19.73,14.43-18.08,8.57-39.1,7.45-56.41-2.31-5.29-2.98-9.73-9.62-14.95-10.05.58-.75,1.72-8.97,5.96-5.99.38.27,1.01,4.46,5.31,7.71,17.66,13.35,49.5,12.82,67.24.33,3.34-2.35,2.42-6.99,8.56-8.07,11.52-2.03,25.15,6.72,38.99,3.07,1.38-.36,16.74-6.92,17.46-7.53,1.52-1.3,1.19-4.64,2.36-6.04,1.62-1.95,4.24-2.22,5.7-4.8,14.17-25.15-14.49-45.23-37.58-40.68-.25-8.25.14-20.88-2.43-28.57-.29-.87-11.54-12.76-12.5-13.48-7.99-6.05-24.23-7.08-33.97-5.82-3.94.51-7.1,3.66-11.11,3.88-2.12,4.36-2.84,7.17-9.97,8-1-9.15-12.22-27.35-20.63-30.59-4.4-1.7-5.99.71-8.18.53-1.35-.11-.93-3.35-2.63-3.85-28.9-8.52-58.17,15.68-54.59,45.91-7.34,1.68-8.77-6.86-15.08-8.01-17.67-3.22-32.94,8.15-36.44,25.48-.65,3.23-.02,12.09-.46,12.54-.51.52-11.02-.41-14.6.41C10.52,86.48.06,108.82,12.4,122.98c4.23,4.86,25.7,9.21,32.78,8.77,4.96-.31,8.73-3.83,13.56-3.2.61.08,11.09,3.23,11.5,3.67.89.95-3.67,4.52,1.11,7.71,2.05,1.37,19.29,7.69,21.99,8.1,3.56.54,20.9.45,23.85-.37.75-.21,9.23-7.43,13.04-8.59,2.03-.62,3.84-1.08,5.99-.91-17.04,22-48.45,18.57-69.88,4.88-3.3-2.11-6.35-7.74-9.57-8.59-4.03-1.07-10.22,2.12-15.54,1.89-14.13-.59-34.43-3.36-39.47-18.71-6.74-20.52,6.74-36.03,25.95-40.99,2.84-.73,10.15-.1,10.53-.47.56-.54-.37-10.31,1.55-15.45,7.24-19.38,32.58-26.37,50.43-18.57C86.24,18.09,114.96-.42,137.21,0c9.8.19,29.1,7.14,36.02,14.14,5.75,5.81,6.9,18.58,16.99,18.01Z"/>
      <path class="cls-2" d="M136.22,138.16c-2.15-.18-3.96.29-5.99.91-3.81,1.16-12.29,8.38-13.04,8.59-2.95.82-20.29.91-23.85.37-2.69-.41-19.93-6.73-21.99-8.1-4.78-3.19-.22-6.76-1.11-7.71-.41-.44-10.89-3.59-11.5-3.67-4.82-.63-8.6,2.89-13.56,3.2-7.08.45-28.55-3.91-32.78-8.77-12.34-14.16-1.88-36.5,15.23-40.4,3.58-.82,14.09.12,14.6-.41.44-.45-.19-9.32.46-12.54,3.5-17.33,18.77-28.7,36.44-25.48,6.31,1.15,7.74,9.69,15.08,8.01-3.57-30.22,25.69-54.42,54.59-45.91,1.7.5,1.28,3.74,2.63,3.85,2.19.18,3.78-2.23,8.18-.53,8.41,3.24,19.62,21.44,20.63,30.59,7.13-.82,7.85-3.63,9.97-8,4.02-.22,7.17-3.38,11.11-3.88,9.74-1.25,25.98-.22,33.97,5.82.96.73,12.21,12.61,12.5,13.48,2.57,7.69,2.19,20.32,2.43,28.57,23.09-4.56,51.75,15.53,37.58,40.68-1.46,2.58-4.08,2.85-5.7,4.8-1.17,1.41-.84,4.74-2.36,6.04-.72.62-16.08,7.17-17.46,7.53-13.84,3.65-27.47-5.09-38.99-3.07-6.15,1.08-5.23,5.72-8.56,8.07-17.74,12.48-49.58,13.02-67.24-.33-4.3-3.26-4.93-7.44-5.31-7.71-4.24-2.98-5.38,5.24-5.96,5.99Z"/>
    </g>
  </g>
</svg>