<?xml version="1.0" encoding="UTF-8"?>
<svg id="Calque_2" data-name="Calque 2" xmlns="http://www.w3.org/2000/svg" viewBox="0 0 442.57 112.45">
  <defs>
    <style>
      .cls-1 {
        fill: #865b44;
      }

      .cls-2 {
        fill: #9d7662;
      }
    </style>
  </defs>
  <g id="Calque_1-2" data-name="Calque 1">
    <g>
      <path class="cls-1" d="M234.86,12.23c-16.01.95.19,5,1.57,6.55.79.9,4.16,5.09,4.43,5.45,1.15,1.49,1.34,2.99,2,4,.58,3.9.6,6.67-3.98,6.03v1.94s7.98,2.03,7.98,2.03c2.48,5.63,3.96,11.1,6,16-6.45-.76-3.57,1.83-2.58,5.57,2.28,8.6,4.17,12.52,12.58,16.43.05.66-.05,1.34,0,2,.04.55-3.8,8.97,1.03,10.02,8.53,1.86,5.96-6.36,6.97-10.02.17-.62-.17-1.38,0-2,9.06,1.24,4.8-1.84,6-6,.24-.82,1.44-2.37,2-4h4s0-8,0-8c.86-1.71.66-8.33,6-10,1.85-.58,7.01.84,7.9-.09.65-.67,1.75-13.99,5.18-17.9,6.65-7.59,5.94,3.21,8.92-16.01.2-1.27-.15-2.71,0-4l10-4c11.91,4.53,7.06,20.41,10,24v6.01s4,0,4,0c3.66,9.4,10.91,27.01,15.54,35.45,1.26,2.3-.1,3.38,4.43,2.54,9.1-24.45,24.94-45.09,37-68.01,6.72-5.9,13.86.54,17.18,6.84,8.77,16.66,28.45,65.31,32.9,83.15,3.26,13.07-5.78,17.08-16.53,11.35l-29.52-69.32-33.31,64.67c-19.67,18.55-18.06-1.26-23.8-13.15-.84-1.73-3.84-2.26-5.66-6.65-2.29-5.52-14.23-46.85-17.22-46.84-7.98,10.57-14.18,22.62-21,33.96-9.44-1.29-4.46,2.1-5.97,6.44-.86,2.46-4.62,2.11-5.73,4.87-.94,2.34.16,5.4-.3,6.69-1,2.81-11.35,20.97-12.37,21.69-1.68,1.18-5.42.06-7.63.31-2.88-4.06-4.54-12.8-10-12-.14-1.31.08-2.68,0-4-.04-.69,2.23-3.06,1.65-6.49-.65-3.83-7.67-22.53-13.65-21.51-.18-.61.19-1.39,0-2-2.71-8.76-3.25-18.31-7.64-27.37-3.18-6.56-3.97-10.78-10.36-6.63-2.24,1.46-2.51,2.18-4,4-4.63-.87-4.54,1.95-4,6-5.67,9.18-12.72,22.17-18,32-5.15.03-12.27,11.73-11.97,14.95.13,1.39,1.96.93,1.97,1.05.05,3.43-1.09,3.8-2,6h-6s0,6,0,6c-.23.19.94,3.44-1.32,4.03-1.87.49-8.98.49-10.37-.36l-37.32-71.65-33.19,71.78c-4.43.26-11.77,1.68-14.76-1.82L48.83,34.24c-13.55,17.96-20.09,41.82-29.98,62-5.47,3.55-8.72.46-12,0-.02-4.17-.44-8.38.47-12.51,2.7-12.26,14.36-39.88,20.12-51.9,5.71-11.91,18.11-40.36,31.12-20.29l28.32,60.7c3.85,2.92,21.53-40.62,23.2-43.77,3.77-7.12,15.05-29.86,24.49-23.91l36.29,69.68c-2.32,3.24-2.6,12.25,1.96,7.99.46-.43.32-4.06,1.96-5.14,2.35-1.54,6.2,1.86,8.17.36,2.3-1.76,1.58-6.86,1.93-7.23.49-.54,7.77,6.48,7.99-5.96l-10.01-4.01c.29-.49-.29-1.49,0-2h5.99c.76-1.95-2-3.78-1.99-4,.07-3.37,16.09-33.46,19.15-37.89,1.94-2.82,4.88-3.1,6.2-4.76,3.48-4.39,1.81-10.95,11.64-11.53,11.53-.68,7.86,5.8,11.02,12.18Z"/>
      <path class="cls-2" d="M310.86,14.23c-2.98,19.23-2.27,8.42-8.92,16.01-3.42,3.91-4.53,17.23-5.18,17.9-.89.92-6.06-.49-7.9.09,4.73-10.05,9.32-20.34,15.31-29.74,1.93-3.04-.52-5.66,6.69-4.26Z"/>
      <path class="cls-2" d="M182.86,60.23l10.01,4.01c-.22,12.43-7.5,5.42-7.99,5.96-.35.38.37,5.47-1.93,7.23-1.97,1.51-5.82-1.9-8.17-.36-1.64,1.08-1.5,4.71-1.96,5.14-4.57,4.26-4.28-4.74-1.96-7.99,1.38-1.93,9.74-10.23,12-14ZM181.86,64.23v2c1.3-.67,1.3-1.33,0-2ZM185.86,66.23v2c1.3-.67,1.3-1.33,0-2Z"/>
      <path class="cls-2" d="M222.86,30.23c6.39-4.14,7.18.07,10.36,6.63,4.39,9.05,4.94,18.61,7.64,27.37l-18-34Z"/>
      <path class="cls-2" d="M252.86,94.23c-5.62-8.23-9.16-18.5-12-28,5.97-1.02,12.99,17.68,13.65,21.51.58,3.42-1.69,5.79-1.65,6.49Z"/>
      <path class="cls-2" d="M252.86,54.23c3.01,7.24,9.14,10.74,10,22-8.41-3.9-10.3-7.83-12.58-16.43-.99-3.75-3.87-6.33,2.58-5.57Z"/>
      <path class="cls-2" d="M6.86,96.23c3.28.46,6.53,3.55,12,0-1.56,3.18-2.63,8.68-7.24,9.52-12.02,2.19-16.5-11.18-4.76-9.52Z"/>
      <path class="cls-2" d="M196.86,72.23c-2.42,4.52-4.14,15.8-10,16,0-.11-1.84.34-1.97-1.05-.3-3.23,6.82-14.92,11.97-14.95Z"/>
      <path class="cls-2" d="M270.86,78.23c-1.01,3.66,1.56,11.88-6.97,10.02-4.83-1.06-1-9.47-1.03-10.02,2.66,2.04,5.38,2.01,8,0Z"/>
      <path class="cls-2" d="M234.86,12.23c1.71,3.46,6.16,6.78,6,12-.27-.35-3.64-4.54-4.43-5.45-1.37-1.56-17.58-5.61-1.57-6.55Z"/>
      <path class="cls-2" d="M252.86,98.23c5.46-.8,7.12,7.94,10,12-.27.03-2.37,3.15-3.8,1.94-.89-.75-5.96-11.7-6.2-13.94Z"/>
      <path class="cls-2" d="M294.86,70.23c-3.56,5.92-6.49,13.68-12,18,.46-1.29-.64-4.35.3-6.69,1.11-2.77,4.88-2.41,5.73-4.87,1.51-4.34-3.47-7.73,5.97-6.44Z"/>
      <path class="cls-2" d="M246.86,38.23l-7.99-2.03v-1.94c4.59.63,4.57-2.13,3.99-6.03,2.78,4.26,2.46,6.5,4,10Z"/>
      <path class="cls-2" d="M184.86,94.23c-3.07,7.37-3.81,4.19-6,6v-6s6,0,6,0Z"/>
      <path class="cls-2" d="M282.86,58.23v8.01s-4-.01-4-.01c1.92-5.62,2.46-4.94,4-8Z"/>
      <path class="cls-2" d="M330.86,30.23c2.76,3.37.27-3.59,4,6h-4s0-6,0-6Z"/>
      <path class="cls-2" d="M276.86,70.23c-1.2,4.16,3.06,7.24-6,6,.75-2.65,3.6-4.79,6-6Z"/>
      <path class="cls-2" d="M186.86,54.23c0,.22,2.75,2.05,1.99,3.99h-5.99c.38-.65-.34-2.79,0-3.98h4Z"/>
      <path class="cls-2" d="M218.86,34.23c-.24.3-3.57,5.31-4,6-.54-4.05-.63-6.87,4-6Z"/>
      <path class="cls-1" d="M181.86,64.23c1.3.67,1.3,1.33,0,2v-2Z"/>
      <path class="cls-1" d="M185.86,66.23c1.3.67,1.3,1.33,0,2v-2Z"/>
    </g>
  </g>
</svg>