<?xml version="1.0" encoding="UTF-8"?>
<svg id="Calque_2" data-name="Calque 2" xmlns="http://www.w3.org/2000/svg" viewBox="0 0 118.48 83.92">
  <defs>
    <style>
      .cls-1 {
        fill: #4e7298;
      }

      .cls-2 {
        fill: #2a6395;
      }
    </style>
  </defs>
  <g id="Calque_1-2" data-name="Calque 1">
    <g>
      <path class="cls-2" d="M93.54,34.65c35.02-4.2,31.58,48.65-.49,49.27-29.22.57-33.76-45.17.49-49.27Z"/>
      <path class="cls-1" d="M19.46.72c38.06-7.79,33.57,50.55,7.31,53.39C-8.55,57.93-6.73,6.08,19.46.72ZM27.79,6.48c-2.09-1.81-11.5.29-14.55,2C3.9,13.68,3.69,29.8,6.42,38.85c3.18,10.53,21.65,7.03,28.76,3.58,10.27-4.99,10.83-30.27,1.83-30.22-1.48,0-.91,3-1.48,3.36-8.06,4.97-5.87-7.47-7.73-9.08Z"/>
      <path class="cls-2" d="M27.79,6.48c1.86,1.61-.33,14.05,7.73,9.08.57-.35,0-3.35,1.48-3.36,9-.05,8.45,25.23-1.83,30.22-7.1,3.45-25.58,6.95-28.76-3.58-2.73-9.05-2.52-25.16,6.81-30.37,3.06-1.7,12.46-3.8,14.55-2Z"/>
    </g>
  </g>
</svg>