<?xml version="1.0" encoding="UTF-8"?>
<svg id="Calque_2" data-name="Calque 2" xmlns="http://www.w3.org/2000/svg" viewBox="0 0 208.12 184.9">
  <defs>
    <style>
      .cls-1 {
        fill: #42b1e4;
      }

      .cls-2 {
        fill: #6dbddb;
      }

      .cls-3 {
        fill: #6ec0dd;
      }
    </style>
  </defs>
  <g id="Calque_1-2" data-name="Calque 1">
    <g>
      <path class="cls-1" d="M7.82,128.77c-2.78-9.95-5.77-37.28-3.92-46.91.79-4.08,4.18-6.07,5.09-9.09s-.64-5.8.07-8.05c3.71-11.78,33.23-43.6,43.76-51.95,4.88-3.87,17.59-11.01,23.62-10.04.83.13,3.11,5.42,6.41,6.07,1,.2.62-3.75,2.16-3.98,10.43-1.57,18.22,5.03,26.8,9.96.29.47,2.41.8,2.95,2.07,6.45,15.15-13.35,4.69-21.76,5.95-31.79,4.79-62.65,48.15-65.15,79s7.85,40.38,33.96,50.97c17.16,6.96,33.3,3.58,51.03.06l-1.03,7.92c4.32,2.81,32.96-13.62,36.19-18.92,2.25-3.69-1.18-7.5-.17-8.98.34-.49,7.94-1.2,10.93-4.14,2.36-2.32,6.99-12.33,9.05-15.95,10.33-18.1,18.52-36.67,15.1-58.1-1.47-9.23-12.94-30.27-10.62-36.63,4.46-12.24,20.75,7.57,23.87,13.38,42.88,79.92-36.84,170.42-122.75,150.75-22.05-5.05-59.33-31-65.6-53.4Z"/>
      <path class="cls-2" d="M111.82,14.77c-8.58-4.92-16.37-11.53-26.8-9.96-1.54.23-1.16,4.18-2.16,3.98-3.3-.65-5.58-5.94-6.41-6.07-6.03-.97-18.75,6.17-23.62,10.04-10.53,8.35-40.05,40.17-43.76,51.95-.71,2.25.82,5.1-.07,8.05s-4.31,5.02-5.09,9.09c-1.86,9.63,1.13,36.96,3.92,46.91C-10.25,91.22,4.33,39.58,37.94,15.89c20.42-14.39,57.99-26.55,73.87-1.13Z"/>
      <path class="cls-3" d="M167.82,112.77c-2.06,3.61-6.68,13.63-9.05,15.95-3,2.94-10.6,3.65-10.93,4.14-1.01,1.48,2.42,5.28.17,8.98-3.23,5.3-31.87,21.73-36.19,18.92l1.03-7.92c-17.73,3.52-33.87,6.89-51.03-.06,42.08,6.91,76.74-11.25,106-40Z"/>
    </g>
  </g>
</svg>