<?xml version="1.0" encoding="UTF-8"?>
<svg id="Calque_2" data-name="Calque 2" xmlns="http://www.w3.org/2000/svg" viewBox="0 0 498.55 106.34">
  <defs>
    <style>
      .cls-1 {
        fill: #4cb0dc;
      }
    </style>
  </defs>
  <g id="Calque_1-2" data-name="Calque 1">
    <path class="cls-1" d="M498.16,18.4c2.36,2.05-6.74,28.97-8.73,33.68-9.41,22.2-23.64,43.19-50.98,33.05-32.18-11.94-13.32-58.27-40.79-72.95-21.33,25.24-17.85,88.35-65.78,77.51-10.36-2.34-17.26-16.61-20.39-25.62-4.04-11.62-6.85-43.95-25.96-42.02-15.64,1.58-21.66,64.54-48.94,71.18-20.62,5.02-33.05-8.51-40.19-26.09-4.74-11.66-11.72-57.29-32.99-39.07s-14.57,85.83-59.5,77.54c-12.04-2.22-22.9-20.24-27.2-30.78-6.01-14.7-13.88-61.53-39.27-44.74-9.69,6.41-25,44.37-26.2,55.98-.58,5.63,4.64,17.77-4.91,15.19-8.87-2.4-6.24-15.85-4.97-23.25,2.12-12.31,16.31-51.25,26.48-57.44,10.7-6.51,19.94-8.53,31.31-2.18,29.91,16.69,21.96,42.47,35.62,64.38,6.78,10.88,20.1,17.77,27.41,4.07,10.98-20.57,11.25-52.71,30.72-67.23,17.37-12.95,29.94-12.3,43.49,5.54,10.27,13.52,12.48,35.05,22.32,49.67,18.13,26.93,33.92-35.59,38.33-45.12,11.59-25.03,40.13-27.66,57.43-6.63,9.16,11.13,14.28,52.86,27.3,54.54,7.32.95,20.28-25.77,22.78-32.4,7.47-19.79,7.75-49.87,38.42-44.62,29.44,5.04,25.95,44.56,36.37,63.61,9.44,17.25,18.95,10.52,26.74-3.45,4.67-8.38,14.37-41.48,17.31-44.69s12.58.45,14.74,2.33Z"/>
  </g>
</svg>