<?xml version="1.0" encoding="UTF-8"?>
<svg id="Calque_2" data-name="Calque 2" xmlns="http://www.w3.org/2000/svg" viewBox="0 0 476.82 76.13">
  <defs>
    <style>
      .cls-1 {
        fill: #e84925;
      }

      .cls-2 {
        fill: #6961a3;
      }

      .cls-3 {
        fill: #f6d13a;
      }

      .cls-4 {
        fill: #36a160;
      }

      .cls-5 {
        fill: #46b2e3;
      }
    </style>
  </defs>
  <g id="Calque_1-2" data-name="Calque 1">
    <g>
      <path class="cls-2" d="M408.36,18.2c.62-1.01,17.81-12.23,19.74-13.18,4.58-2.28,15.01-6.09,19.49-4.74,14.82,4.49,34.04,28.46,28.14,44.22-2.32,6.19-18.35,22.46-24.43,25.72-39.03,20.94-63.66-18.52-42.94-52.02Z"/>
      <path class="cls-5" d="M335.11,5.98c15.61-.19,27.89,19.56,30.06,33,4.11,25.46-47.6,46.09-66.39,18.23-16.67-24.7,12.03-50.93,36.34-51.23Z"/>
      <path class="cls-3" d="M113,15.93c5.86-1.08,17.29-1.21,23.07-.02,2.1.43,21.83,11.2,23.38,12.62,4.73,4.35,8.7,22.13,5.21,27.06-3.13,4.41-75.45,5.93-80.32,2.06-13.75-10.93,14.32-39.08,28.66-41.72Z"/>
      <path class="cls-4" d="M245.53,11.46c9.94,7.41,6.16,12.32,8.1,20.9,1.21,5.34,4.26,6.03,3.96,13.98-.44,11.51-4.86,25.86-17.48,28.7-34.85,7.85-43.37-28.07-30.58-53.58,13.02-5.31,20.31-14.87,36-10ZM239.53,61.42c-.35-5.43-20.43-2.55-15.99,2,3.99,4.09,11.74-.17,15.99-2Z"/>
      <path class="cls-1" d="M8.16,62.81C-17.21,41.46,22.7-5.88,44.43,27.55c17.55,27-17.08,51.41-36.27,35.26Z"/>
    </g>
  </g>
</svg>