<?xml version="1.0" encoding="UTF-8"?>
<svg id="Calque_2" data-name="Calque 2" xmlns="http://www.w3.org/2000/svg" viewBox="0 0 209.06 209.08">
  <defs>
    <style>
      .cls-1 {
        fill: #c1ebd1;
      }

      .cls-2 {
        fill: #7cbe93;
      }

      .cls-3 {
        fill: #80bb97;
      }

      .cls-4 {
        fill: #f4fbf6;
      }

      .cls-5 {
        fill: #f3fbf6;
      }

      .cls-6 {
        fill: #4fa66f;
      }

      .cls-7 {
        fill: #8fc6a2;
      }

      .cls-8 {
        fill: #3aa060;
      }
    </style>
  </defs>
  <g id="Calque_1-2" data-name="Calque 1">
    <g>
      <path class="cls-8" d="M150.39,38.32c5.84-2.91,13.76-7.82,19.88-9.11,27.37-5.78,54.3,11.21,28.14,36.14-15.1,14.4-36.6,23.27-54.77,33.24l-5.21,6.75c23.21,10.49,46.96,25.49,59.93,47.95-1.52,1.5-3.03,4.11-5.21,4.54-10.72,2.13-41-17.86-52.75-21.5.45,17.67,6.26,35.02,3.81,52.82-4.69,34.03-37.16,19.49-43.3-6.33-2.24-9.4-1.83-17.93-4.52-28.49-.1-6.01.04-10.83,6.01-13.02l-4-.96c-.83-1.78,2.88-9.64-1-12.01-1.98,4.49-7.1,2.31-9.02,3.29-2.04,1.04-19.73,11.76-20.65,12.55-2.1,1.8-1.22,5.28-3.34,7.08-2.89,2.47-10.22,1.45-12.01,7.06-.63.16-1.38-.16-2,0-5.43,1.4-9.39,3.54-14.3,4.74-7.16,1.74-8.52-3.47-15.7,7.26-9.54-.6-23.59-7.49-19.73-18.73.87-2.55,4.54-2.75,5.79-4.72,14.97-23.61,17.44-22.86,41.94-36.54,2.5,2.26,18.27-7.5,17.96-1-.17,3.51-12.73,4.68-11.96,11-10.3,5.97-23.62,14.75-30.83,24.17-6.78,8.87-10.95,17.97,5.27,11.65,1.81-.71,1.74-2.97,3.15-3.63,22.44-10.55,42.42-24.78,62.37-39.2-.91-1.6-2.53-2.11-3.96-3-3.66-2.27-3.75-2-8-2-.65,0-1.36-.08-2,0h-9.99c3.67-8.99-4.34-10.58-10.01-14-16.12-9.72-32.6-17.89-45.93-31.46-5.85-12.21,3.11-11.82,11.93-6.54,3.18,1.91,3.93,5.58,4.27,5.69,2.81.94,7.34-6.84,10.68,5.4.37,1.37-1.4,4.31-.95,4.88s3.06-.37,4.01.03c9.66,4.05,18.82,11.65,28,16,2.95,7.34,14.86,7.21,17.99.97,1.83-3.63-8.73-3.51-4-6.97.69-.5,4.57.65,6.51-.06.35-.13,2.8-2.53,5.5-3.95,1.3-.68,2.78-1.21,4-2,9.81-6.36,11.68-6.42,12.85-19.71.61-6.93-5.21-15.19,5.98-12.11,5.42,1.49-.12,8.4,1.18,9.78.45.47,8.93-.31,7.85,4.85-.18.86-8.39,14.49-8.98,15.14-1.91,2.11-5.18,1.37-7.01,3.41-1.64,1.82-4.64,11.03-4.02,13.48,5.6,2.67,14.38,7.95,20.29,4.2,1.95-1.24,1.43-4.59,1.86-5.04,13.88-14.62,45.42-25.26,60.69-40.52l3.31-9.46c-9.4-3.4-22.71-1.51-31.99,1.98l-20,3.98,6-7.98ZM120.39,124.32c-5.47-6.03-19.2-.58-18.04,10.67.06.55,6.44,5.26,6.04,9.33-.42,14.7,7,39.22,16.03,50.95,2.65,3.45,5.56-8.4,5.78-10.13,1.05-8.3-5.11-55.65-9.81-60.82Z"/>
      <path class="cls-6" d="M26.39,56.32c8.74-3.05,52.01,18,53.99,15.99-7.11-17.76-9.73-51.73,4.95-66.05,24.29-23.7,44.96,26.18,41.08,46.06,7.73-5.44,15.74-9.89,23.98-14l-6,7.98,20-3.98c-6.57,2.47-25.6,15.02-31.02,20.07-7.96,7.43-11.25,17.49-18.95,24.93,5.01,5.86,11.27,5.67,17.96,3-.43.46.09,3.8-1.86,5.04-5.91,3.76-14.7-1.52-20.29-4.2-.62-2.45,2.38-11.66,4.02-13.48,1.84-2.04,5.11-1.3,7.01-3.41.59-.65,8.8-14.28,8.98-15.14,1.08-5.16-7.41-4.38-7.85-4.85-1.31-1.37,4.24-8.29-1.18-9.78-11.18-3.08-5.37,5.19-5.98,12.11-1.17,13.29-3.04,13.35-12.85,19.71.63-6.67,7.72-5.21,9.57-13.43,2.92-12.97.06-48.58-16.4-52.51-16.63,19.36-9.66,48.22,2.84,67.94-2.7,1.42-5.16,3.82-5.5,3.95-1.94.71-5.81-.45-6.51.06-4.74,3.46,5.82,3.33,4,6.97-3.13,6.24-15.04,6.37-17.99-.97,1.73.82,11.52,4.49,11.99,3.99,1.83-1.92-.64-5.95-3.22-7.76-5.24-3.69-21.73-8.74-28.7-11.3-2.17-.8-6.83-4.99-8.07-.93-.95-.4-3.57.51-4.01-.03s1.32-3.51.95-4.88c-3.34-12.24-7.86-4.47-10.68-5.4-.34-.11-1.08-3.79-4.27-5.69ZM122.38,32.33c-7.33.03-7.33,5.95,0,5.98v-5.98Z"/>
      <path class="cls-7" d="M52.39,158.32c1.79-5.61,9.12-4.59,12.01-7.06,2.11-1.81,1.24-5.29,3.34-7.08.92-.79,18.61-11.51,20.65-12.55,1.92-.98,7.04,1.2,9.02-3.29,3.88,2.37.17,10.23,1,12.01l4,.96c-5.98,2.19-6.11,7.01-6.01,13.02-2.26-8.87-.46-11.15-.99-19.99-3.93,6.63-11.45,5.93-16.87,9.13-12.34,7.3-10.26,10.92-26.14,14.86Z"/>
      <path class="cls-3" d="M60.39,94.32c5.67,3.42,13.68,5.01,10.01,13.99h9.99c-6.83.91-19.62,8.3-26,12.01-.77-6.33,11.79-7.49,11.96-11,.31-6.5-15.46,3.26-17.96,1,8.37-4.67,21.69-5.83,12-16Z"/>
      <path class="cls-2" d="M50.39,158.32c-1.77,1.01-6.07,7.35-6.52,7.56-1.49.67-3.68-1.12-5.5-.42-1.96.77-2.81,3.92-7.07,4.84-2.82.61-7.76.22-10.91.02,7.19-10.73,8.54-5.52,15.7-7.26,4.91-1.19,8.87-3.34,14.3-4.74Z"/>
      <path class="cls-4" d="M80.39,108.32c.64-.08,1.35,0,2,0l8,2c1.43.89,3.05,1.4,3.96,3-19.94,14.42-39.92,28.65-62.37,39.2-1.41.66-1.34,2.92-3.15,3.63-16.22,6.31-12.05-2.78-5.27-11.65,7.2-9.42,20.53-18.2,30.83-24.17,6.38-3.7,19.17-11.09,26-12Z"/>
      <path class="cls-5" d="M120.39,124.32c4.7,5.17,10.86,52.52,9.81,60.82-.22,1.73-3.13,13.58-5.78,10.13-9.03-11.72-16.45-36.24-16.03-50.95.22-7.58,1.7-23.99,12-20Z"/>
      <path class="cls-1" d="M44.39,72.32c1.24-4.06,5.9.14,8.07.93,6.97,2.56,23.47,7.61,28.7,11.3,2.58,1.81,5.05,5.84,3.22,7.76-.47.5-10.26-3.17-11.99-3.99-9.18-4.35-18.34-11.95-28-16Z"/>
      <path class="cls-7" d="M120.39,124.32c-10.3-3.99-11.78,12.42-12,20,.4-4.06-5.99-8.77-6.04-9.33-1.16-11.25,12.57-16.7,18.04-10.67Z"/>
      <path class="cls-3" d="M90.39,110.32l-8-2c4.25,0,4.34-.27,8,2Z"/>
      <path class="cls-8" d="M122.38,32.33v5.98c-7.33-.03-7.33-5.95,0-5.98Z"/>
    </g>
  </g>
</svg>