<?xml version="1.0" encoding="UTF-8"?>
<svg id="Calque_2" data-name="Calque 2" xmlns="http://www.w3.org/2000/svg" viewBox="0 0 198.95 179.03">
  <defs>
    <style>
      .cls-1 {
        fill: #9b6aa7;
      }
    </style>
  </defs>
  <g id="Calque_1-2" data-name="Calque 1">
    <path class="cls-1" d="M184.94,113.37l14.01,5.05c-2.25,5.51-3.36,12.66-6.32,17.67-3.68,6.23-33.22,36.5-39.01,39.16-12.71,5.83-35.08,4.75-47.41-2.16-5.89-3.3-18.91-18.16-22.71-19.32-8.16-2.49-10.22,2.46-15.74,3.43-12.85,2.27-31.14.3-40.94-8.68C8.95,132.17.96,117.63.02,92.42c-.41-10.94,4.7-13.11,4.65-13.91-.55-8.8-2.85-15.22,5.26-23.11,11.28,3.56,4.96,12.84,4.89,20.9-.18,20.23,1.21,41.18,15.04,57.13,11.78,13.59,32.26,13.93,44.42,1-1.93-10.32-7.68-26.04-7.54-36.05.27-18.79,4.07-54.78,13.68-70.48,12.11-19.8,33.82-38.03,56.35-21.38,33.3,24.59,1.87,89.58-19.92,113.82-3.67,4.08-18.3,15.63-19.07,17.04-3.52,6.4,11.24,20.38,17.11,23.02,27.92,12.58,62.22-22.53,70.04-47.03ZM120.37,11.64c-8.66,1.32-26.06,24.55-28.9,33.3-3.36,10.36-12.21,72.2-1.53,74.43,23.42-15.21,61.23-81.67,37.05-105.07-2.3-2.22-3.11-3.19-6.62-2.66Z"/>
  </g>
</svg>