<?xml version="1.0" encoding="UTF-8"?>
<svg id="Calque_2" data-name="Calque 2" xmlns="http://www.w3.org/2000/svg" viewBox="0 0 136.71 156.34">
  <defs>
    <style>
      .cls-1 {
        fill: #f7ea9d;
      }

      .cls-2 {
        fill: #fdf9d4;
      }

      .cls-3 {
        fill: #fdfce8;
      }

      .cls-4 {
        fill: #f1d44f;
      }

      .cls-5 {
        fill: #fbf5b7;
      }
    </style>
  </defs>
  <g id="Calque_1-2" data-name="Calque 1">
    <g>
      <path class="cls-3" d="M98.01,22.28c-5.39,6.05-12.55-2.55-15.16-3.37-6.07-1.9-25.88-2.68-22.6,7.6,8.23,3.82,25.11-.94,30.48.36,7.01,1.7,34.74,22.41,39.2,28.98,9.93,14.65,8.15,52.37-.03,67.31-13.44,24.54-29.27,31.22-56.89,33.1-16.35,1.12-48.71-9.6-58.73-22.76C-13.31,97.28.51,24.07,43.51,4.78c13.36-5.99,39.6-7.4,51.54,1.95,3.63,2.84,4.92,13.35,2.96,15.55ZM84.25,110.52c2.95-1.73,2.53-.46,6-4,.86-.87,3.86-3.75,4-4,4.38-3.49,5.15-1.61,3.95,2.94-2.09,7.9-12,12.26-17.95,17.06-15.25,4.92-24.69,5.61-39.81-1.19C4.25,105.06,11.83,52.92,37.31,30.58c18.05-15.82,33.58-20.86,56.93-12.07,1.35-6.96-6.28-11.17-11.96-13.03C33.99-10.32,1.76,48.07,2.26,89.51c.96,79.49,139.15,92.45,130.06-12.06-1.18-13.54-3.55-17.84-13.02-26.98C69.66,2.63.95,58.17,38.31,105.47c12.11,15.33,29.93,14.43,45.94,5.06Z"/>
      <path class="cls-4" d="M84.25,110.52c-16.01,9.37-33.84,10.28-45.94-5.06C.95,58.17,69.66,2.63,119.3,50.48c9.48,9.14,11.85,13.43,13.02,26.98C141.41,181.97,3.22,169.01,2.26,89.51,1.76,48.07,33.99-10.32,82.28,5.49c5.68,1.86,13.31,6.06,11.96,13.03-23.35-8.79-38.88-3.75-56.93,12.07-25.48,22.34-33.06,74.48,3.13,90.75,15.12,6.8,24.56,6.11,39.81,1.19,2.72-.88,5.04-.2,8.71-2.24,13.8-7.67,18.51-32.32,13.29-45.76-10.26-26.42-60.82-21.9-55.51,14.52,3.64,24.95,42.42,16.23,39.57-3.41-2.21-15.26-28.07-13.36-19.2-.94.71,1,13.88,2.9,5.18,8.86-12.41,8.49-21.24-10.1-12.95-22.94,6.66-10.3,17.77-6.45,26.91-2.09,10.34,11.62,16.5,18.37,8,34-.14.25-3.14,3.13-4,4-2.92.03-5.13,1.13-6,4ZM32.25,128.54c9.28,14.24,31.44,16.23,47.09,14.07,5.44-.75,24.75-12.78,28.98-17.02,18.23-18.24,19.55-61.47-3.41-76.74-11.34-7.54-41.24-12.22-48.67,1.65,19.75-7.8,55.32,4.33,58.05,26.97,6.57,54.61-38.31,66.19-82.05,51.07Z"/>
      <path class="cls-1" d="M86.25,68.52c6.78,3.23,9.89,6.25,15.01,11.99l.99-5.99c5.22,13.44.51,38.09-13.29,45.76-3.67,2.04-5.98,1.36-8.71,2.24,5.95-4.8,15.86-9.16,17.95-17.06,1.2-4.55.43-6.43-3.95-2.94,8.5-15.63,2.34-22.38-8-34Z"/>
      <path class="cls-1" d="M90.25,106.52c-3.47,3.54-3.05,2.27-6,4,.87-2.87,3.08-3.97,6-4Z"/>
      <path class="cls-5" d="M32.25,128.54c43.73,15.12,88.62,3.54,82.05-51.07-2.72-22.64-38.3-34.77-58.05-26.97,7.43-13.87,37.33-9.19,48.67-1.65,22.96,15.27,21.64,58.5,3.41,76.74-4.23,4.24-23.54,16.27-28.98,17.02-15.65,2.15-37.81.16-47.09-14.07Z"/>
      <path class="cls-2" d="M102.25,74.52l-.99,5.99c-5.12-5.74-8.23-8.76-15.01-11.99-9.13-4.36-20.25-8.21-26.91,2.09-8.29,12.84.54,31.43,12.95,22.94,8.7-5.96-4.47-7.86-5.18-8.86-8.88-12.42,16.99-14.32,19.2.94,2.84,19.65-35.94,28.36-39.57,3.41-5.31-36.42,45.25-40.94,55.51-14.52Z"/>
    </g>
  </g>
</svg>