<?xml version="1.0" encoding="UTF-8"?>
<svg id="Calque_2" data-name="Calque 2" xmlns="http://www.w3.org/2000/svg" viewBox="0 0 245.89 225.57">
  <defs>
    <style>
      .cls-1 {
        fill: #fce8c0;
      }

      .cls-2 {
        fill: #faebd3;
      }

      .cls-3 {
        fill: #eab577;
      }

      .cls-4 {
        fill: #fdf5e7;
      }

      .cls-5 {
        fill: #fcf4e0;
      }

      .cls-6 {
        fill: #fefbf2;
      }

      .cls-7 {
        fill: #f9e1b9;
      }

      .cls-8 {
        fill: #f9ddb0;
      }

      .cls-9 {
        fill: #fcf8eb;
      }

      .cls-10 {
        fill: #f7debb;
      }

      .cls-11 {
        fill: #fceed2;
      }

      .cls-12 {
        fill: #fdf9ed;
      }

      .cls-13 {
        fill: #f1ba76;
      }

      .cls-14 {
        fill: #e6994f;
      }

      .cls-15 {
        fill: #e8ab6a;
      }

      .cls-16 {
        fill: #fbeace;
      }

      .cls-17 {
        fill: #fae3be;
      }

      .cls-18 {
        fill: #fef2d8;
      }

      .cls-19 {
        fill: #f9d5a2;
      }

      .cls-20 {
        fill: #e59a50;
      }

      .cls-21 {
        fill: #eab378;
      }

      .cls-22 {
        fill: #eac598;
      }

      .cls-23 {
        fill: #fbfaf4;
      }

      .cls-24 {
        fill: #ed8d34;
      }

      .cls-25 {
        fill: #f3d4a7;
      }

      .cls-26 {
        fill: #f8deb0;
      }

      .cls-27 {
        fill: #fdf6e3;
      }

      .cls-28 {
        fill: #fdf8ee;
      }

      .cls-29 {
        fill: #fbf9eb;
      }

      .cls-30 {
        fill: #fcf9ee;
      }
    </style>
  </defs>
  <g id="Calque_1-2" data-name="Calque 1">
    <g>
      <path class="cls-20" d="M81.22,26.7v2c-4.31.78-8.69,3.41-13.99,2.01-1,5.61,1.05,3,3.04,3.95,12.36,5.85,8.86.95,16.03.11,5.59-.65,11.33.24,16.92-.07v2c-9.63-1.84-14.64,3.72-18,12-.8-.31-1.34-3.49-3.35-3.84s-18.06,3.11-18.64,3.86c8.81,8.86-5.21,18.32-5.53,27.37-.08,2.37,2.56,3.95,2.51,6.71-.12,6.95-.28,17.63-2.99,23.89,1.7-13.52-5.34-22.23-5.35-24.98,0-.7,4.26-9.63,5.35-13.02.74-2.29,4.58-13.42,3.99-13.99-11.41.66-17.54-4.06-21.99,7.99-4,10.83-4.71,23.13,6,30-1.62,1.6-1.35,2.46-2,4-3.17,7.5-1.32,4.65,0,10,.31,1.25,1.52,4.99,2,6,1.97,4.17.38,7.17,7.97,6-.75-3.62,3.68-8.19,4.03-10,.79,4.6,6.64,3.19,8,4.11.25.17-1.65,3.95-1.28,5.85,1.28,6.55,5.26,8.74-.73,16.04-2.39-1.63-5.17-2.03-8-2-.09-.51,2.88-7.95-.02-10-9.82-6.93-8.97,22.2-7.95,26.66.4,1.75,5.1.9,4.07,4.28l-4.08,9.05,6-9.99c4.63-1.04,5.75,3.65,7.99,6-10.49-3.17-6.01,14.83-2.97,17.97,4.81,4.98,16.5,4.03,22.96,4.02l-3.99-7.99c2.2,1.44,5.66.92,8.18,4.93,1.58,2.51-.27,5.67.72,7.05,3.3,4.6,6.56.02,8.1.02h36c7.44,0,4.94,8.44,23,2v2c-27.14,38.94-73.5,55.44-102.1,7.1-2.41-4.08-1.97-9.2-4.99-13.01-4.51-5.7-15.64-10.37-22.92-20.08-1.68-6.86-5.79-13.06-5.48-20.48.14-3.3,3.11-23.46,3.88-26.12,1-3.43,6.42-6,8.12-9.94,3.61-8.34-6.43-31.91-2.53-43.45-8.52-1.53-7.57,4.49-9.99,7.99-1.87,2.71-4.03,5.35-6,8-1.39,1.87-3.74,7.89-5,7.96-8.3.44,5.58-22.4,7-25.96,9.54-7.87,16.35-14.62,24.96-22.04,15.56-13.4,27.93-8.04,43.04-11.96ZM71.22,36.72c-2.42-1.85-19.37,3.57-17.99,9.97,9.62,1.29,14.78-.63,17.99-9.97ZM43.21,166.7c-.11-18.25,4.41-37.2-11.97-49.99-8.31,16.86-10.34,44.62,11.97,49.99ZM135.21,188.71l-75.99-1.99c11.7,26.24,28.55,38.52,56.68,23.66,3.61-1.9,23.65-17.45,19.31-21.67Z"/>
      <path class="cls-14" d="M239.22,82.7c2.36,10.57,4.12,15.56.52,25.94-3.92,11.32-7.68,17.47-16.52,24.06l5.96-7-5.96-3c13.07-16.46,15.48-46.43-13.74-41.75-4.32,9.22,3.05,17.02,3.88,26.66.67,7.82-1.7,15.43-2.12,23.09,1.92-2.08,6.81-3.08,7.98-4l-11.98,8,2.04-32.57c-4.92-.8-13.81-13.9-18.05-9.45-.4.42.89,4.32-4.01,10.01,6.47-20.6-23.9-18.07-2,2-12.99,6.72-11.75-19.7-5.47-25.43,2.6-2.37,20.14-.25,15.46-6.55-.37-.49-9.2-1.73-11.83-3.18-14.11-7.77-1.14-25.74-2.17-26.82-7.44-1.73-14.92-2.96-11.99,5.99h-7.99c-4.21,4.19,11.23,24.71,7.99,0,1.54,4.7,4.25,10.92,1.02,16.03-4.71,7.46-7.52-10.4-17.01-6.02l1,9.98c-9.25-4.06-4.89-6.99-6.23-9.97-4.61-10.2-4.98-7.76-12.78-12.02l12-2.01c3.07-3.29-11.57-12.11-13.98-13-3.09-1.15-20.22-5.2-19.97.02,2.2,2.37,5.3,3.33,7.96,5-4.8.22-7.34,2.28-4,6-1.97-.93-13.25-5.86-14-6v-2l3.99-5.99c-9.98-3.14-16.34-1.75-25.99-.01v-2c2.68-.7,5.99-7.2,8.17-8.84,27.53-20.67,59.85-28.45,81.1,4.56,2.23,3.47,7.2,16.39,8.65,17.35,2.41,1.58,10.98,1.04,15.71,2.29,20.84,5.52,12.07,21.39,18.3,27.7,4.14,4.2,18.02,3.3,26.06,12.94ZM103.22,22.68c12.98.5,26.4-2.4,37.91,5.11,4.73,3.09,11.2,13.24,15.51,14.54,18.87,5.7,5.26-18.7-.57-25.47-13.48-15.66-40.14-7.67-52.84,5.82ZM199.21,70.7c1.68-14.06-2.36-23.72-17.99-22-2.1,16.24,1.74,21.21,17.99,22Z"/>
      <path class="cls-22" d="M11.22,78.7c-10.19,14.75,15.19,48.06,16.13,20.96.34-9.83-5.66-22.45-2.14-32.95l-7.99,3.99c2.42-3.51,1.47-9.52,9.99-7.99-3.89,11.55,6.14,35.12,2.53,43.45-1.7,3.93-7.13,6.51-8.12,9.94-.78,2.67-3.75,22.83-3.88,26.12-.31,7.42,3.81,13.62,5.48,20.48-7.87-10.51-9.07-17.06-7.83-30.84.35-3.93,3.99-9.12,3.44-11.89-.71-3.62-12.56-11.25-15.16-16.72-7.4-15.51-3.27-31.98,9.55-42.55-1.42,3.56-15.3,26.4-7,25.96,1.26-.07,3.61-6.09,5-7.96Z"/>
      <path class="cls-15" d="M153.22,188.7v-2c3.03-1.08,13.54-5.7,15.78-7.14,19.75-12.73,11.55-19.84-1.86-6.12-1.94,1.99-3.89-1.51-3.88-1.74.02-1.46,16.94-21.69,21.95-16.99l-1.98,9.98c8.22,1.77,4.8-3.14,8.82-8.13,1.83-2.28,26.21-20.16,31.17-23.86,8.84-6.59,12.6-12.73,16.52-24.06,3.6-10.38,1.83-15.37-.52-25.94,19.14,22.94-7.25,49.19-24.13,62.87-11.8,9.56-16.66,13.69-27.81,24.19-8.95,8.44-21.64,16.89-34.07,18.93Z"/>
      <path class="cls-24" d="M121.22,36.7c6.04,3.8,8.85,7.18,14,10,7.79,4.26,8.16,1.82,12.78,12.02,1.35,2.98-3.02,5.91,6.23,9.97l-1-9.98c9.49-4.38,12.3,13.48,17.01,6.02,3.23-5.11.52-11.32-1.02-16.03-2.93-8.95,4.55-7.72,11.99-5.99,1.03,1.08-11.94,19.05,2.17,26.82,2.63,1.45,11.47,2.69,11.83,3.18,4.68,6.3-12.85,4.17-15.46,6.55-6.29,5.74-7.52,32.15,5.47,25.43.48-.25,1.5-1.42,2-2,4.9-5.7,3.61-9.6,4.01-10.01,4.23-4.45,13.13,8.65,18.05,9.45l-2.04,32.57,11.98-8c.22-.17,3.81-3.76,4-4l5.96,3-5.96,7c-4.96,3.7-29.34,21.58-31.17,23.86-4.02,4.99-.59,9.9-8.82,8.13l1.98-9.98c-5.01-4.7-21.93,15.53-21.95,16.99,0,.23,1.94,3.73,3.88,1.74,13.42-13.73,21.61-6.61,1.86,6.12-2.24,1.44-12.75,6.07-15.78,7.14-18.06,6.44-15.56-2-23-2h-36c-1.54,0-4.8,4.59-8.1-.02-.99-1.38.86-4.54-.72-7.05-2.52-4.01-5.98-3.49-8.18-4.93-8.33-5.45-9.41-7.08-16-14-2.24-2.35-3.36-7.04-7.99-6l-6,9.99,4.08-9.05c1.03-3.38-3.67-2.52-4.07-4.28-1.02-4.46-1.87-33.59,7.95-26.66,2.9,2.05-.06,9.48.02,10,.8,4.78,4.02,14.68,9.25,15.55,2.11.35,6.09-2.24,6.74-1.56.55.58-.91,7.06,6.01,14.01,5.4,5.42,12.05,9.26,20,7.98-3.78-11.36-4.08-20.41-16-25.98-9.25-4.32-8.54-1.56-18-8,5.99-7.3,2-9.5.73-16.04-.37-1.9,1.52-5.68,1.28-5.85-1.36-.92-7.21.49-8-4.11.12-.64-.08-1.35,0-2,2.71-6.26,2.87-16.94,2.99-23.89.05-2.76-2.59-4.34-2.51-6.71.32-9.05,14.34-18.51,5.53-27.37.58-.75,16.66-4.2,18.64-3.86s2.56,3.53,3.35,3.84c2.83,1.09,25.69,4.17,28.74,3.9,2.14-.19,11.32-2.83,11.22-4.9-2.2-2.17-5.23-3.71-7.96-5-3.34-3.72-.8-5.78,4-6ZM139.21,64.69c.77-3.76-2.55-5.45-5.02-7.98-9.96,2.98-3.28,9.7,5.02,7.98ZM71.22,80.69c3.73,3.36,21.7-16.14,25.95-18.99-13.48-9.23-25.79,5.34-25.95,18.99ZM117.22,72.71c-4.08-4.17-24.86,5.46-23.99,13.98,4.35-.1,30.04-7.8,23.99-13.98ZM131.21,92.71c-3.49-3.81-22.39,23.42-19.98,25.98,11.52-4,19.83-13.41,19.98-25.98ZM122.77,132.2c.84-.51,1.24-3.7,3.78-5.16,3.99-2.28,8.66-.34,11.7-2.22,1.08-.67,13.6-15.2,14.05-16.18,2.48-5.41-3.14-9.94-6.1-13.94-4.06-1.03-13.05,19.75-17.86,24.12-3.53,3.21-19.04,9.39-19.08,10.88-.08,2.99,10.6,4.24,13.52,2.5ZM87.2,130.7l-7.85-17.13c-.04-2.71-4.64-6.61-6.12-4.86-3.35,3.95,7.7,21.75,13.97,21.99ZM147.22,138.72c-1.8-1.51-15.87,6.91-15.96,8.98-.38,8.45,16.86-2.78,15.96-8.98ZM125.21,158.72l-18-3.99c5.14,7.14,14.39,19.39,18,3.99Z"/>
      <path class="cls-23" d="M135.21,188.71c4.35,4.23-15.7,19.77-19.31,21.67-28.13,14.86-44.98,2.58-56.68-23.66l75.99,1.99Z"/>
      <path class="cls-9" d="M43.21,166.7c-22.31-5.37-20.28-33.12-11.97-49.99,16.38,12.79,11.86,31.73,11.97,49.99Z"/>
      <path class="cls-6" d="M17.22,70.7l7.99-3.99c-3.52,10.5,2.48,23.12,2.14,32.95-.94,27.1-26.32-6.21-16.13-20.96,1.97-2.65,4.13-5.29,6-8Z"/>
      <path class="cls-29" d="M39.22,62.7c4.45-12.05,10.58-7.33,21.99-7.99.59.57-3.25,11.7-3.99,13.99-2.6,1.14-14.87,19.49-17.99,15.99v-21.99Z"/>
      <path class="cls-2" d="M103.22,36.7c.75.14,12.03,5.07,14,6,2.73,1.29,5.76,2.83,7.96,5,.09,2.07-9.09,4.71-11.22,4.9-3.05.27-25.9-2.81-28.74-3.9,3.36-8.28,8.37-13.84,18-12Z"/>
      <path class="cls-4" d="M61.22,158.7c6.59,6.92,7.67,8.55,16,14l3.99,7.99c-6.46,0-18.15.96-22.96-4.02-3.04-3.14-7.52-21.14,2.97-17.97Z"/>
      <path class="cls-21" d="M39.22,62.7v21.99c3.13,3.5,15.4-14.85,18-15.99-1.1,3.4-5.36,12.32-5.35,13.02.02,2.74,7.05,11.46,5.35,24.98-.08.65.12,1.36,0,2-.34,1.8-4.78,6.37-4.03,10-7.6,1.17-6-1.83-7.97-6,3.93,3.33,4.61.82,6.42-2.58,5.13-9.66,5.78-29.43-6.42-17.42-10.71-6.87-10-19.17-6-30Z"/>
      <path class="cls-24" d="M81.22,28.7c9.65-1.74,16.02-3.13,25.99.01l-3.99,5.99c-5.6.31-11.33-.58-16.92.07-7.16.84-3.66,5.74-16.03-.11-1.99-.94-4.04,1.67-3.04-3.95,5.3,1.4,9.68-1.23,13.99-2.01Z"/>
      <path class="cls-5" d="M45.22,112.7c-.48-1.01-1.69-4.75-2-6v-10c.65-1.54.38-2.4,2-4,12.19-12.01,11.55,7.75,6.42,17.42-1.81,3.4-2.49,5.91-6.42,2.58Z"/>
      <path class="cls-3" d="M63.22,134.7c9.46,6.44,8.75,3.68,18,8h-7.99s3.99,18,3.99,18c-6.92-6.95-5.46-13.43-6.01-14.01-.65-.69-4.63,1.91-6.74,1.56-5.23-.86-8.45-10.77-9.25-15.55,2.83-.03,5.61.37,8,2Z"/>
      <path class="cls-7" d="M71.22,36.72c-3.21,9.34-8.37,11.26-17.99,9.97-1.38-6.39,15.57-11.82,17.99-9.97Z"/>
      <path class="cls-21" d="M43.22,106.7c-1.32-5.35-3.17-2.5,0-10v10Z"/>
      <path class="cls-28" d="M103.22,22.68c12.7-13.49,39.36-21.48,52.84-5.82,5.83,6.77,19.45,31.17.57,25.47-4.3-1.3-10.78-11.45-15.51-14.54-11.51-7.52-24.93-4.61-37.91-5.11Z"/>
      <path class="cls-30" d="M223.22,122.7c-.19.24-3.78,3.83-4,4-1.17.92-6.06,1.92-7.98,4,.42-7.67,2.79-15.27,2.12-23.09-.83-9.64-8.2-17.44-3.88-26.66,29.23-4.68,26.81,25.29,13.74,41.75Z"/>
      <path class="cls-27" d="M199.21,70.7c-16.25-.79-20.09-5.76-17.99-22,15.63-1.72,19.67,7.94,17.99,22Z"/>
      <path class="cls-18" d="M121.22,36.7c-2.66-1.67-5.76-2.63-7.96-5-.25-5.22,16.89-1.16,19.97-.02,2.41.89,17.05,9.71,13.98,13l-12,2.01c-5.15-2.82-7.96-6.2-14-10Z"/>
      <path class="cls-16" d="M187.22,102.7c-.5.58-1.52,1.75-2,2-21.9-20.07,8.47-22.6,2-2Z"/>
      <path class="cls-17" d="M169.22,48.7c3.24,24.71-12.2,4.19-7.99,0h7.99Z"/>
      <path class="cls-25" d="M122.77,132.2c-2.91,1.74-13.6.5-13.52-2.5.04-1.49,15.55-7.67,19.08-10.88,4.81-4.37,13.8-25.14,17.86-24.12,2.96,4.01,8.58,8.53,6.1,13.94-.45.97-12.96,15.51-14.05,16.18-3.04,1.87-7.7-.06-11.7,2.22-2.54,1.45-2.94,4.65-3.78,5.16Z"/>
      <path class="cls-12" d="M81.22,142.7c11.92,5.57,12.22,14.62,16,25.98-7.95,1.28-14.6-2.56-20-7.98l-3.99-17.99h7.99Z"/>
      <path class="cls-10" d="M71.22,80.69c.16-13.65,12.47-28.22,25.95-18.99-4.25,2.85-22.22,22.34-25.95,18.99Z"/>
      <path class="cls-8" d="M131.21,92.71c-.15,12.57-8.46,21.98-19.98,25.98-2.42-2.56,16.48-29.79,19.98-25.98Z"/>
      <path class="cls-11" d="M117.22,72.71c6.05,6.18-19.64,13.88-23.99,13.98-.86-8.52,19.91-18.15,23.99-13.98Z"/>
      <path class="cls-13" d="M87.2,130.7c-6.27-.24-17.32-18.04-13.97-21.99,1.48-1.74,6.08,2.16,6.12,4.86l7.85,17.13Z"/>
      <path class="cls-1" d="M125.21,158.72c-3.6,15.4-12.86,3.15-18-3.99l18,3.99Z"/>
      <path class="cls-26" d="M147.22,138.72c.9,6.2-16.34,17.43-15.96,8.98.09-2.07,14.15-10.49,15.96-8.98Z"/>
      <path class="cls-19" d="M139.21,64.69c-8.29,1.72-14.98-5-5.02-7.98,2.47,2.53,5.78,4.22,5.02,7.98Z"/>
    </g>
  </g>
</svg>