<?xml version="1.0" encoding="UTF-8"?>
<svg id="Calque_2" data-name="Calque 2" xmlns="http://www.w3.org/2000/svg" viewBox="0 0 200.81 197.5">
  <defs>
    <style>
      .cls-1 {
        fill: #1c70a9;
      }
    </style>
  </defs>
  <g id="Calque_1-2" data-name="Calque 1">
    <path class="cls-1" d="M123.14,12.21c-16.18-3.74-39.41,3.53-54.7,10.3-21.79,9.64-40.92,37.06-48.83,59.17-7.26,20.27-6.85,32.38.59,52.51,34.67,93.75,171.38,46.63,164.92-40.93-5.48-74.39-127.44-64.46-126.13,11.95.69,40.34,55.02,55.89,74.26,16.12,15.73-32.53-16.34-52.08-30.92-26.93-9.22,15.9,2.79,10.61,5.99,15.83,3.63,5.93-4.41,9.27-9.61,7.46-25.15-8.77-10.87-47.9,15.34-47.51,22.8.34,41.39,21.42,38.28,44.06-2.65,19.27-10.83,26.34-24.45,38.12-9.11-4.33-5.27.97-11.25,4.38-16.74,9.52-48.15-8.31-58.3-22.68-29.12-41.29-1.8-90.28,44.36-101.28,75.93-18.1,128.61,62.75,78.38,123.92-37.34,45.47-101.22,55.77-147.97,16.6C11.78,155.41-5.47,115.19,1.61,87.7c.67-2.61,3.82-4.73,4.56-7.48C16.44,42.21,37.73,16.38,76.79,4.73c13.78-4.11,41.57-10.98,46.35,7.48Z"/>
  </g>
</svg>