<?xml version="1.0" encoding="UTF-8"?>
<svg id="Calque_2" data-name="Calque 2" xmlns="http://www.w3.org/2000/svg" viewBox="0 0 279.63 236.71">
  <defs>
    <style>
      .cls-1 {
        fill: #a8e6f3;
      }

      .cls-2 {
        fill: #9ed4e8;
      }

      .cls-3 {
        fill: #47b3e2;
      }

      .cls-4 {
        fill: #83c9e3;
      }
    </style>
  </defs>
  <g id="Calque_1-2" data-name="Calque 1">
    <g>
      <path class="cls-3" d="M73.72,7.06c6.57-3.24,8.57,4.25,8.99,3.99,2.69-1.66,3.39-5.4,8.15-6.03,2.74-.36,5.7,1.37,7.89,1.08s4.12-3.42,7.83-3.16c.94.06,1.8,5.91,6.1,5.34,2.43-.32,4.88-4.35,9.86-3.32,1.68.35-.45,6.41,7.17,2.09l.02,6.04c2.93-1.15,4.62-2.33,8.02-1.28.67.21,11.47,6.77,11.97,7.26.24.23,2.86,5.72,2.97,6.04,2.81,8.53-14.21.99-15.89.89-2.43-.14-7.07.82-10.06,1.15-3.79.42-8.14-2.47-7.02,3.91-44.56,10.72-89.12,68.26-85.61,114.42,1.5,19.68,9.16,27.64,25,37.18,74.56,44.9,204.13-24.88,190.13-114.12-2.61-16.64-18.53-28.73-15.51-44.48,2.2-11.48,21.39.91,26.02,5.97,27.79,30.4,24.66,105.69,1.64,137.79-3.26,4.54-12.31,16.26-15.64,20.28-33.66,40.6-102.5,57.58-152.08,44.02-32.33-8.85-71.69-37.84-84.74-69.26C-16.43,101.78,14.42,32.35,73.72,7.06ZM199.72,181.08c-11.52,5.69-28.88,11.42-39.4,17.58-2.74,1.6-5.39,2.39-4.58,6.4,15.77-5.46,32.3-11.49,43.98-23.98Z"/>
      <path class="cls-4" d="M149.72,19.06c-.5-.49-11.3-7.05-11.97-7.26-3.4-1.05-5.08.13-8.02,1.28l-.02-6.04c-7.62,4.31-5.48-1.74-7.17-2.09-4.99-1.03-7.43,3-9.86,3.32-4.3.57-5.17-5.27-6.1-5.34-3.72-.26-5.63,2.87-7.83,3.16s-5.15-1.44-7.89-1.08c-4.75.63-5.45,4.37-8.15,6.03-.42.26-2.42-7.24-8.99-3.99C93.64-1.44,96.5-1.39,117.16,2.61c16.66,3.23,20.85,1.46,32.55,16.45Z"/>
      <path class="cls-2" d="M149.72,19.06c3.95,5.06,7.76,5.32,3.93,13.99-11.87-2.51-21.76-4.91-33.93-1.99-1.11-6.38,3.23-3.5,7.02-3.91,2.99-.33,7.63-1.29,10.06-1.15,1.68.1,18.7,7.63,15.89-.89-.11-.32-2.72-5.81-2.97-6.04Z"/>
      <path class="cls-1" d="M199.72,181.08c-11.68,12.49-28.21,18.52-43.98,23.98-.82-4.01,1.83-4.8,4.58-6.4,10.53-6.16,27.88-11.89,39.4-17.58Z"/>
    </g>
  </g>
</svg>