<?xml version="1.0" encoding="UTF-8"?>
<svg id="Calque_2" data-name="Calque 2" xmlns="http://www.w3.org/2000/svg" viewBox="0 0 213.92 226.22">
  <defs>
    <style>
      .cls-1 {
        fill: #f4e17f;
      }

      .cls-2 {
        fill: #f4d142;
      }
    </style>
  </defs>
  <g id="Calque_1-2" data-name="Calque 1">
    <g>
      <path class="cls-2" d="M165.78,17.06c42.9,21.75,53.53,65.5,45.84,110.84-9.84,58.06-81.07,116.64-140.58,92.89C-2.52,191.45,5.37,77.27,88.77,78.89c17.44.34,40.35,25.11,42.88,41.3,1.05,6.73.8,22.58-.35,29.39-4.49,26.61-42.73,42.57-62.56,21.53-13.98-14.83-3.53-44.77,11.87-33.87,9.36,6.62-6.48,16.29-2.84,25.83,31.82,3.16,46.75-18.42,37.44-48.43-1.78-5.74-8.06-16.76-14.53-17.62s-32.46,5.49-37.98,9.97c-22.93,18.56-30.13,53.57-14.63,78.79,23.11,37.62,91.07,9.9,114.69-14.73,26.84-27.98,31.65-59.28,29.11-97.08-2.42-36.01-34.41-50.7-67.11-52.89-40.64-2.72-66.24,9.9-95.01,36.95-4.91,4.62-19.8,23.79-23.31,24.74-10.37,2.81-5.86-10.48-2.67-15.71,6.51-10.66,21.2-23.08,30.85-31.26,5.47-4.64,4.82-5.89,8.01-8.85.65-.6,14.34-8.68,15.17-8.96,2.64-.91,5.84,6.18,7.56-.15.42-1.56-1.83-3.54.28-5.75,4.44-4.67,24.31-8.43,31.16-8.99,24.93-2.02,46.94,2.8,68.97,13.97Z"/>
      <path class="cls-1" d="M165.78,17.06C143.74,5.89,121.74,1.07,96.81,3.09c-6.85.56-26.72,4.31-31.16,8.99-2.11,2.22.15,4.19-.28,5.75-1.72,6.33-4.92-.77-7.56.15-.83.29-14.53,8.36-15.17,8.96-3.19,2.96-2.55,4.21-8.01,8.85-9.65,8.19-24.34,20.61-30.85,31.26C14.69,44.78,32.92,26.75,54.38,14.67,86.93-3.65,124.95-4.85,158.54,11.31c2.88,1.39,5.9,2.5,7.24,5.76Z"/>
    </g>
  </g>
</svg>