<?xml version="1.0" encoding="UTF-8"?>
<svg id="Calque_2" data-name="Calque 2" xmlns="http://www.w3.org/2000/svg" viewBox="0 0 194.49 190.53">
  <defs>
    <style>
      .cls-1 {
        fill: #3aa561;
      }

      .cls-2 {
        fill: #3ea362;
      }

      .cls-3 {
        fill: #32a05b;
      }
    </style>
  </defs>
  <g id="Calque_1-2" data-name="Calque 1">
    <g>
      <path class="cls-1" d="M110.87,184.2c-4.34,2.1-8.33-2.66-10.88-2.93-5.5-.58-17.41,5.96-24.88,2.96L70.22,4.22c7.69-.74,20.85,1.25,27.82-.3,1.36-.3.43-5.49,5.82-3.43,8.34,3.18,5.09,13.82,5.69,18.3,7.31,54.4,11.64,111.25,1.32,165.42Z"/>
      <path class="cls-2" d="M190.52,187.84c-3.32,4.04-10.31-.14-14.36.46-6.99,1.03-1.51,3.69-12.3,1.18-1.25-.29-3.1,1.06-4.34.41-.61-.32-.7-2.73-1.94-3.58-2.06-1.42-6.1-.94-6.68-3.28-.95-3.78.59-10.83.09-15.68-4.64-44.56-5.41-101.62-1.92-146.11.53-6.81-5.8-14.67,5.78-15.96,3.06-.34,22.7,1.15,24.18,2.05,5.43,3.28,9.07,29.36,9.79,36.39,2.89,28.05,4.79,63.28,5.59,91.61.26,9.29.17,47.59-3.89,52.53Z"/>
      <path class="cls-3" d="M5.26,6.63c3.88-2.36,10.11,1.05,10.85,5.61,0,10.22,2.5,21.24,2.98,31.02,1.59,31.93,2.61,74.61,1.52,106.08-.24,7-2.2,32.22-3.89,37.7s-10.46,4.03-12.71-.7c-1.16-2.45-2.82-16.99-3.07-20.91-1.29-20.57,2.21-41.97,1.96-62.18-.19-15.14-7.74-90.49,2.37-96.63Z"/>
    </g>
  </g>
</svg>