<?xml version="1.0" encoding="UTF-8"?>
<svg id="Calque_2" data-name="Calque 2" xmlns="http://www.w3.org/2000/svg" viewBox="0 0 197.62 192.65">
  <defs>
    <style>
      .cls-1 {
        fill: #f9e889;
      }

      .cls-2 {
        fill: #f3de6e;
      }

      .cls-3 {
        fill: #f5d53a;
      }

      .cls-4 {
        fill: #f4e489;
      }

      .cls-5 {
        fill: #f7e36d;
      }

      .cls-6 {
        fill: #f9ee9f;
      }

      .cls-7 {
        fill: #f4e282;
      }
    </style>
  </defs>
  <g id="Calque_1-2" data-name="Calque 1">
    <g>
      <path class="cls-2" d="M133.82,185.72c-10.45,2.22-19.43,2.13-30,2,11.85-4.63,19.25.45,29.4-8.74.87-.79.05-3.79,1.89-5.38,5.26-4.55,16.84-4.7,22.84-8.75,19.3-13.03,19.97-27.7,26.91-47.09,1.65-4.61,8.31-14.16,8.39-15.01.11-1.29-6.39-15.19-6.66-21.04-.23-4.89,2.94-5.99,3.11-8.94.99-18.06-31.62-49.53-45.87-59.06h2c14.98,9.37,36.02,25.18,43.68,41.32,22.15,46.68-2.53,119.38-55.68,130.68Z"/>
      <path class="cls-4" d="M145.82,13.72h-2c-17.05-11.39-39.5-11.78-58.49-5.49-9.3,3.09-10.48,3.84-20.22,6.18-8.3,1.99-20.43,5.41-27.27,10.38C26.5,33.06,5.83,71.17,3.86,84.94c-2.28,15.96,7.34,51.96,16.92,64.83,6.59,8.86,27.15,23.86,37.05,29.95,2.5,1.54,5.35,2.7,8,4-17.4-1.81-42.05-23.35-51.06-37.94C-6.07,112.07-7.02,55.52,25.96,28.86c12.32-9.96,40.02-19.64,55.51-24.49C107.79-3.88,123.42-.29,145.82,13.72Z"/>
      <path class="cls-7" d="M103.82,187.72c10.57.13,19.55.22,30-2-11.54,7.66-35.62,7.7-49.05,6.05-7.7-.94-12.63-4.95-18.95-8.05-2.65-1.3-5.5-2.46-8-4,8.77-.89,19.61,6.67,27.1,7.89,5.61.92,12.92.03,18.9.11Z"/>
      <path class="cls-3" d="M143.82,13.72c14.25,9.52,46.87,41,45.87,59.06-.16,2.95-3.34,4.05-3.11,8.94.28,5.85,6.77,19.75,6.66,21.04-.07.86-6.73,10.4-8.39,15.01-6.95,19.39-7.62,34.05-26.91,47.09-6,4.05-17.58,4.2-22.84,8.75-1.84,1.59-1.02,4.59-1.89,5.38-10.15,9.19-17.55,4.11-29.4,8.74-5.98-.08-13.28.81-18.9-.11-7.49-1.22-18.33-8.78-27.1-7.89-9.89-6.09-30.45-21.09-37.05-29.95C11.2,136.9,1.58,100.89,3.86,84.94c1.97-13.77,22.64-51.88,33.99-60.14,6.84-4.98,18.97-8.39,27.27-10.38,9.74-2.34,10.92-3.09,20.22-6.18,18.99-6.3,41.44-5.9,58.49,5.49ZM43.81,59.73c-3.75-4.31-14.4,17.4-15.05,19.93-1.87,7.28-.66,14.7-.93,22.05,5.68,1.06,3.23-1.47,4.53-4.36,2.32-5.18,2.77-12.34,4.6-15.58.74-1.31,3.71-1.56,4.83-3.59,1.47-2.66,3.13-17.18,2.03-18.45ZM105.81,75.73c-2.86-3-13.45,12.1-14.77,14.21-1.77,2.83-14.36,28.62-13.21,29.77,15.57-2.09,11.21-8.05,14.56-16.42,1.78-4.45,15.48-25.4,13.42-27.56ZM111.81,107.73c-5.37-1.13-3.43,1.46-4.95,3.95-8.75,14.35-13.02,29.4-15.03,46.03,18.79-2.55,15.35-35.06,19.98-49.98ZM87.83,125.73h-10.02v5.98h10.02v-5.98Z"/>
      <path class="cls-1" d="M111.81,107.73c-4.63,14.92-1.19,47.42-19.98,49.98,2.01-16.63,6.27-31.68,15.03-46.03,1.52-2.49-.42-5.08,4.95-3.95Z"/>
      <path class="cls-5" d="M105.81,75.73c2.06,2.16-11.65,23.11-13.42,27.56-3.35,8.37,1.02,14.34-14.56,16.42-1.15-1.15,11.44-26.94,13.21-29.77,1.32-2.11,11.91-17.21,14.77-14.21Z"/>
      <path class="cls-6" d="M43.81,59.73c1.1,1.27-.56,15.79-2.03,18.45-1.12,2.03-4.09,2.28-4.83,3.59-1.82,3.23-2.27,10.4-4.6,15.58-1.3,2.9,1.16,5.43-4.53,4.36.27-7.35-.94-14.77.93-22.05.65-2.53,11.3-24.24,15.05-19.93Z"/>
      <rect class="cls-5" x="77.81" y="125.73" width="10.02" height="5.98"/>
    </g>
  </g>
</svg>