<?xml version="1.0" encoding="UTF-8"?>
<svg id="Calque_2" data-name="Calque 2" xmlns="http://www.w3.org/2000/svg" viewBox="0 0 211.99 217.56">
  <defs>
    <style>
      .cls-1 {
        fill: #40a163;
      }

      .cls-2 {
        fill: #7ebb91;
      }

      .cls-3 {
        fill: #45a366;
      }

      .cls-4 {
        fill: #66b181;
      }
    </style>
  </defs>
  <g id="Calque_1-2" data-name="Calque 1">
    <g>
      <path class="cls-1" d="M25.42,160.3c24.74,62.15,123.59,53.65,155.43.43,26.59-44.45,18.52-94.67-39.34-101.53-35.6-4.22-75,22.41-69.6,61.58,7.65,55.49,94.54,21.62,71.23-19.2-7.42-12.99-21.81-8.26-27.57,4.05-1.51,3.22-1.28,15.5-8.21,11.74-12.6-6.82-6.19-23.83,3.02-31.13,23.13-18.35,50.55,7.36,51.11,33.15,1.15,52.79-79.73,58.19-101.7,13.54-20.22-41.11,20.44-86.02,62.28-87.91,58.67-2.64,100.9,36.88,87.4,96.27-21.52,94.72-172.52,105.9-204.04,7.01,8.42-7.81-12.93-25.08,8-19.98l-4,5.96,8-1.98c-.02.67,0,1.33,0,2-.01,3.9-.37,7.66,1.84,11.17-9.18,1.85,3.71,4.35,1.05,10.7l5.11,4.12Z"/>
      <path class="cls-3" d="M23.42,82.3c-1.51,3.11-5.52,6.73-5.81,7.59-2.14,6.29.53,23.93-8.16,21.36-6.48-1.91-7.69-12.25-5.14-16.9,2.7-4.92,12.65-3.58,2.96-7.16,3.12-3.26,5.51-20,6.15-20.89.13-.18,2.7.15,4.15-.92,2.16-1.59-.67-5.2,1.61-8.13,2.13-2.74,8.49-4.43,10.22-7.98,2.59-5.31-6.2.36-5.98-2.97,1.5-2.01,2.94-2.77,4-4,3.68.29,7.65.29,9.99-3.01l-4.01-2.25.02-2.73C57.07,11.22,84.64-1.46,118.44.13c9.44.44,45.74,6.76,42.98,21.12-1.49,7.75-13.91-3.67-17.42-4.54C88.23,2.89,46.43,34.96,23.42,82.3Z"/>
      <path class="cls-4" d="M13.42,66.3c-.64.9-3.03,17.63-6.15,20.89,9.68,3.58-.27,2.24-2.96,7.16-2.55,4.65-1.33,14.99,5.14,16.9,8.69,2.56,6.02-15.08,8.16-21.36.29-.85,4.3-4.48,5.81-7.59-3.18,17.28-5.51,32.4-6,50l-8,1.98,4-5.96c-20.93-5.1.42,12.17-8,19.98C3.21,141.36.05,136.82,0,127.53c-.01-2.13,3.09-4.58,2.96-7.9-1-25.17-2.52-28.85,8.46-53.33h2Z"/>
      <path class="cls-2" d="M23.42,46.3c-.22,3.34,8.57-2.34,5.98,2.97-1.73,3.55-8.09,5.24-10.22,7.98-2.28,2.93.54,6.54-1.61,8.13-1.45,1.07-4.02.73-4.15.92h-2c4.37-9.73,6.05-11.99,12-20Z"/>
      <path class="cls-4" d="M25.42,160.3l-5.11-4.12c2.65-6.35-10.23-8.85-1.05-10.7-2.22-3.51-1.85-7.27-1.84-11.17,4.31,7.75,4.72,17.77,8,26Z"/>
      <path class="cls-2" d="M33.42,34.3l-.02,2.73,4.01,2.25c-2.34,3.3-6.31,3.31-9.99,3.01,2.09-2.44,3.33-5.4,6-8Z"/>
    </g>
  </g>
</svg>