<?xml version="1.0" encoding="UTF-8"?>
<svg id="Calque_2" data-name="Calque 2" xmlns="http://www.w3.org/2000/svg" viewBox="0 0 366.37 152.48">
  <defs>
    <style>
      .cls-1 {
        fill: #66a0c7;
      }

      .cls-2 {
        fill: #6fa7ca;
      }

      .cls-3 {
        fill: #166eae;
      }

      .cls-4 {
        fill: #5797c1;
      }
    </style>
  </defs>
  <g id="Calque_1-2" data-name="Calque 1">
    <g>
      <path class="cls-3" d="M272.2,56.4c1.37-6.38,6.3-14.97,9.53-21.43,2.21-4.42,16.07-31.35,17.44-32.59,7-6.32,17,1.17,19.87,8.18,5.34,13.07,8.7,29.21,15.81,42.19-.18,18.74,34.14,74.28,31.36,88.23-.1.5-6.67,7.14-7.16,7.27-.74.19-12.34-4.23-13.04-5.17-2.72-3.66.69-8.56-.15-10.28-14.91-30.6-26.86-64.37-39.77-97.29-.82-2.08-.76-4.82-3.86-5.12.86,6.35-4.72,10.02-2.03,16.01l-3.97-2.03c-2.73,17.19-11.08,32.93-18.06,48.63-4.85,10.92-11.9,24.01-18.37,35.98-2.59,4.79-4.91,17.61-10.97,19.13-5.13,1.28-12.54-3.65-15.46-7.88-11.78-17.12-23.56-56.34-32.81-77.19-4.01-9.05-9.24-17.69-13.35-26.67-16.98,30.98-28.24,69.56-46.61,99.4-4.15,6.74-13.41,20.65-22.41,15.63L61.21,36.41,12.32,149c-2.93,4.03-8.02,1.88-11.93,1.21-.53-4.04-.58-8.35.29-12.36,2.76-12.8,13.32-38.18,18.56-51.43,9.57-24.17,21.94-47.49,33.08-70.9,7.05-4.29,13.66-3.73,18.85,2.91,15.67,35.46,33.26,70.05,52.05,103.95,9.02-26.46,23.83-49.65,36.99-73.99,9.18-1.12,9.62-16.29,12.97-22.03,2.58-4.42,6.04,3.44,7.01,2.03,3.26-4.75-6.67-6.69-3.98-12,2.83-4.22,1.18-6.83,8-8,2.57,4.57,8.08,5.48,10.86,10.13,1.97,3.28,2.51,10.52,3.64,11.51,3.48,3.03,5.32,2.46,9.28,9.99,2.06,3.93-.22,8.84,8.22,10.37,7.56,17.07,20.71,42.22,24,60,.65,3.52-.49,8.23.02,11.99,3.16.84,1.21-2.53,2.57-3.4,1.95-1.24,4.89-.28,5.39-.64.24-.17-1.81-3.32-1.07-5.92,3.71-13.15,13.02-27.58,17.71-39.63.25-.65,6.75-4.35,6.86-4.75.25-.87-.47-7.05.52-11.66Z"/>
      <path class="cls-2" d="M272.2,56.4c-.99,4.61-.27,10.78-.52,11.66-.12.4-6.61,4.1-6.86,4.75-4.68,12.06-14,26.49-17.71,39.63-.73,2.6,1.32,5.74,1.07,5.92-.51.36-3.44-.6-5.39.64-1.37.87.59,4.23-2.57,3.4-.51-3.76.63-8.47-.02-11.99,5.55,3.79,3,1.48,4.95-1.95,9.55-16.77,14.53-36.92,27.05-52.05Z"/>
      <path class="cls-1" d="M184.2,8.4c15.76-2.7,23.02,19.67,28.76,32.01.47,1.02,1.85,6.86,3.24,9.99-8.44-1.53-6.16-6.44-8.22-10.37-3.95-7.54-5.8-6.96-9.28-9.99-1.13-.99-1.67-8.22-3.64-11.51-2.79-4.65-8.29-5.56-10.86-10.13Z"/>
      <path class="cls-4" d="M176.2,16.4c-2.69,5.31,7.24,7.25,3.98,12-.97,1.41-4.43-6.45-7.01-2.03-3.35,5.74-3.79,20.91-12.97,22.03,5.69-10.52,9.25-21.91,16-32Z"/>
    </g>
  </g>
</svg>