<?xml version="1.0" encoding="UTF-8"?>
<svg id="Calque_2" data-name="Calque 2" xmlns="http://www.w3.org/2000/svg" viewBox="0 0 242.65 205.69">
  <defs>
    <style>
      .cls-1 {
        fill: #b2e7f3;
      }

      .cls-2 {
        fill: #d6f7fb;
      }

      .cls-3 {
        fill: #eafafc;
      }

      .cls-4 {
        fill: #a9e8f3;
      }

      .cls-5 {
        fill: #beecf5;
      }

      .cls-6 {
        fill: #4db3dc;
      }

      .cls-7 {
        fill: #b6eef8;
      }

      .cls-8 {
        fill: #bdeef6;
      }

      .cls-9 {
        fill: #67bcdd;
      }

      .cls-10 {
        fill: #bdedf4;
      }
    </style>
  </defs>
  <g id="Calque_1-2" data-name="Calque 1">
    <g>
      <path class="cls-6" d="M6.4,129.31c3.65-6.07-3.13-7.67-3.53-15.6-.19-3.63-1.36-5.83,2.56-8.38l7.96,21.97,7.03-20.01,3.96,2.03.02-10.02,5.98.03-3.99,19.99c-5.62,22.77-1.88,31.17,16.17,44.83s43.87,18.55,65.83,15.16c1.49-6.14-9.97-4.02-15.33-5.66-26.88-8.27-45.72-35.64-50.67-62.33-.51-4.1,2.76-13.37,5.08-16.06,1.99-2.3,14.44,1.29,10.92-13.94.63-1,.32-3.8,1.93-4.99l19.05-23.03c-13.73,6.12-22.83,14.31-28.98,28.02-1.24,2.75-1.97,5.23-2.99,7.99-6.52-4.72-10.82-6.65-9.01-15.99,3.39-5.13,6.28-11.1,10-16,5.39-7.11,8.75-11.9,16-17.98-8.79,1.45-15.06,10.09-23.01,13.97-3.14-2.04,1.34-4.55,2.05-7.04.36-1.23-1.49-4.1-1.01-4.8.77-1.11,21.79-7.49,25.65-8.57,1.71-9.12,14.49-13.33,22.31-17.58,62.43-33.91,95.78-8,133.66,43.34,25.15,34.09,26.89,85.13-7.83,113.49-27.57,22.52-94.53,36.12-128.8,33.14-23.15-2.01-62.91-16.37-72-40-3.95-10.27-4.74-23.39-9.03-35.97ZM184.4,27.29c-8.42-13.17-25.38-15.84-39.99-15.96l18.01,4.96,21.98,11ZM150.41,23.32c-26.35-8.54-57.03-.49-76.01,19.97,8.93-1.92,16.12-7.2,25.21-9.77,9.08-2.57,22.53-4.7,32.05-5.95,1.96-.26,25.64.96,18.76-4.25ZM158.4,35.31l-26,4.02c4.86,6.28,16.72,6.08,24,7.98,20.75,12.89,35.62,25.97,49.98,46,4.92-25.33.81-49.95-26.38-58.6-3.43-1.09-13.66-3.65-16.64-3.43-4.25.31-3.83,3.14-4.96,4.03ZM192.4,121.31c10.21-21.4,2.34-33.34-15.38-45.62-21.63-14.99-53.1-26.85-74.71-5.47-8.74,8.65-18.86,25.76-5.93,35.08,12.47-42.99,74.53-28.56,82.02,10,.63,5.98-7.31,9.69-7.64,10.28-.28.52,2.13,4.42.2,9.14-3.94,9.66-24.34,15.72-32.98,21.17l-39.58,9.4c6.49-.56,12.51,2.29,18.97,2.18,16.91-.28,61.33-26.62,72.16-40.11,2.1-2.62,1.84-3.92,2.86-6.05ZM72.4,81.31c-3.58,4.87-6.85,7.33-9.56,13.44-16.15,36.39,14.08,58.13,48.58,54.57,12.1-1.25,49.79-21.44,52.56-33.42,6.24-27.09-40.03-37.1-56.43-14.45s21.66,21.65,31.94,11.96c8.21-7.74-4.32-9.5-3.08-18.09,7.19-7.14,35.03,29.13-5.23,33.76-22.03,2.53-38.08-7.01-48.78-25.77-1.07-6.54-2.64-11.93-1.84-18.81.6-5.19,8.51-18.38,7.83-19.18-2.2-2.63-10.24,9.93-13.2,9.87-2.21,1.26-2.03,5.07-2.79,6.11ZM164.4,171.31l-11.99.02v1.95s3.99,2.03,3.99,2.03c-2.07.77-3.89,1.35-6,2-.84.26-7.53-3.06-6,4-4.5,1.38-9.45,2.72-14,4-39.48,11.08-66.39,5.73-98.45-19.99-1.26-1.01-10.42-12.66-7.19-1.38.84,2.93,12.81,17.7,15.24,19.3,20.36,13.43,75.1,12.45,98.41,6.07.66.03,1.34.04,2,0,2.92-.16,5.72.58,8-2,25.86-3.53,64.98-21.27,77.68-45.32,10.68-20.21,8.77-55.7-7.66-72.68,6.89,40.07-19.62,82.47-54.02,102Z"/>
      <path class="cls-9" d="M90.4,15.31c-7.82,4.25-20.61,8.46-22.31,17.58-3.87,1.08-24.88,7.46-25.65,8.57-.49.7,1.36,3.57,1.01,4.8-.72,2.48-5.2,5-2.05,7.04,7.96-3.88,14.22-12.52,23.01-13.97-7.25,6.08-10.61,10.87-16,17.98-.8-2.91,3.37-7.95-3.07-4.07-19.64,11.82-38.01,38.99-34.42,62.59.27,1.75.87,6.02,3.47,5.47,2.22-8.91,5.4-19.29,9.44-27.48,2.48-5.03,11.09-15.23,14.58-20.51-1.81,9.34,2.49,11.27,9.01,15.99,1.02-2.76,1.75-5.24,2.99-7.99l1,12.02c.69.03,5.64-9.86,7-12.02,3.53,15.22-8.93,11.64-10.92,13.94-2.33,2.69-5.6,11.96-5.08,16.06-1.11-5.99-2.66-11.76-2.99-17.99-4.45,6.54-11.21,18.7-13.01,25.99l3.99-19.99-5.98-.03-.02,10.02-3.96-2.03-7.03,20.01-7.96-21.97c-3.92,2.54-2.75,4.75-2.56,8.38.41,7.93,7.19,9.53,3.53,15.6-1.38-4.05-5.07-7.81-5.87-13.13-2.78-18.57,5.66-42.04,17.04-56.69,10.95-14.1,27.28-21.06,40.09-29.82,9.53-6.52,20.72-13.95,32.74-14.35Z"/>
      <path class="cls-3" d="M48.4,57.31c-3.72,4.9-6.61,10.87-10,16-3.49,5.28-12.1,15.47-14.58,20.51-4.04,8.19-7.22,18.58-9.44,27.48-2.6.55-3.2-3.72-3.47-5.47-3.59-23.6,14.78-50.77,34.42-62.59,6.44-3.88,2.27,1.16,3.07,4.07Z"/>
      <path class="cls-8" d="M138.4,189.31c-23.31,6.39-78.05,7.36-98.41-6.07-2.42-1.6-14.4-16.36-15.24-19.3-3.23-11.28,5.93.37,7.19,1.38,32.06,25.72,58.97,31.07,98.45,19.99v4c2.65.14,5.33-.1,8,0Z"/>
      <path class="cls-2" d="M150.41,23.32c6.89,5.2-16.79,3.99-18.76,4.25-9.52,1.26-22.97,3.39-32.05,5.95-9.09,2.57-16.28,7.85-25.21,9.77,18.98-20.46,49.66-28.51,76.01-19.97Z"/>
      <path class="cls-1" d="M178.4,115.31c1.58,8.14.41,12.26-4,19.98,3.25,2.69,13.96-12.88,18-13.98-1.02,2.13-.75,3.43-2.86,6.05-10.83,13.49-55.25,39.83-72.16,40.11-6.46.11-12.48-2.74-18.97-2.18l39.58-9.4c8.64-5.45,29.04-11.5,32.98-21.17,1.92-4.72-.49-8.62-.2-9.14.33-.59,8.27-4.3,7.64-10.28Z"/>
      <path class="cls-7" d="M50.4,81.31c6.15-13.71,15.25-21.9,28.98-28.02l-19.05,23.03c-1.61,1.19-1.3,3.99-1.93,4.99-1.36,2.16-6.31,12.05-7,12.02l-1-12.02Z"/>
      <path class="cls-5" d="M72.4,81.31c.77-1.04.58-4.85,2.79-6.11,2.96.05,10.99-12.5,13.2-9.87.67.81-7.23,13.99-7.83,19.18-.79,6.87.77,12.27,1.84,18.81-.88-1.55-2.9-2.17-3.58-5.34-1.29-5.98,3.32-24.2-6.42-16.66Z"/>
      <path class="cls-4" d="M184.4,27.29l-21.98-11-18.01-4.96c14.61.12,31.57,2.79,39.99,15.96Z"/>
      <path class="cls-10" d="M158.4,35.31c-3.97,3.11-4.31,5.55-12,4.01-1.16,5.12,5.69,5.31,10,7.99-7.28-1.9-19.14-1.7-24-7.98l26-4.02Z"/>
      <path class="cls-8" d="M164.4,171.31c-2.87,1.63-4.78,2.8-8,4l-3.98-2.03v-1.95s11.98-.02,11.98-.02Z"/>
      <path class="cls-8" d="M150.4,177.31c-1.5,2.02-3.64,3.27-6,4-1.53-7.06,5.16-3.74,6-4Z"/>
      <path class="cls-8" d="M148.4,187.31c-2.28,2.58-5.08,1.84-8,2,1.43-3.21,5.49-1.66,8-2Z"/>
    </g>
  </g>
</svg>