<?xml version="1.0" encoding="UTF-8"?>
<svg id="Calque_2" data-name="Calque 2" xmlns="http://www.w3.org/2000/svg" viewBox="0 0 162.2 173.55">
  <defs>
    <style>
      .cls-1 {
        fill: #c5a7c8;
      }

      .cls-2 {
        fill: #9967a8;
      }
    </style>
  </defs>
  <g id="Calque_1-2" data-name="Calque 1">
    <g>
      <path class="cls-2" d="M20.01,82.51c12.17-.85,24.44-2.43,35.98-6.98L18.75,33.8c-4.37-8.6-4.48-15.76,6.35-9.39,3.6,2.12,5.16,7.46,7.57,9.44,1.65,1.35,4.92,1.34,7.41,3.53,9.94,8.72,19.51,19.7,28.91,29.09,3.25-1.9,2.41-4.26,3-6.95,3.16-14.24,1.98-36.4,3.92-52.08.9-7.27,5.98-10.63,9.63-3.48,7.7,15.1,1.5,39.69,2.47,56.55,7.89-4.06,47.24-50.52,50.74-49.89,1.24.22,4.65,3.77,4.93,5.18,1.55,7.86-38.69,47.51-45.68,55.73-.84,4.35,2.01,3.03,5.02,3.04,14.15.02,29.35-7.02,45.87-3.97,7.37,1.36,19.24,11.76,9.79,17.65l-60.68,4.26c-.9,3.47,1.44,4,2.98,6,5.96,7.77,39.84,37.99,40.83,43.29.68,3.65-9.32,11.71-13.76,9.79-8.93-3.86-28.79-33.45-40.04-39.1-2.29,14.22,3.2,46.37-2.02,58.52-1.49,3.48-9.12,2.9-11.46.96-9.11-7.51-2.81-53.17-4.56-65.48-2.35-3.17-39.18,39.96-42.95,42.2s-7.18-.35-11.01,1.8c-2.82-4.14,14.23-25.99,17.93-30.5,1.63-1.99,4.35-2.59,5.99-4.48,5.4-6.22,10.4-12.99,16.06-19.01-19.51.5-36.84,4.58-56.01-2.05l2.01-1.97h11.99s-1.99-7.98-1.99-7.98l8-2.02Z"/>
      <path class="cls-1" d="M20.01,82.51l-8,2.02,1.99,7.97H2.01c-5.12-14.35,7.85-9.28,18-9.99Z"/>
    </g>
  </g>
</svg>