<?xml version="1.0" encoding="UTF-8"?>
<svg id="Calque_2" data-name="Calque 2" xmlns="http://www.w3.org/2000/svg" viewBox="0 0 136.24 157.76">
  <defs>
    <style>
      .cls-1 {
        fill: #dc806a;
      }

      .cls-2 {
        fill: #e63d1d;
      }
    </style>
  </defs>
  <g id="Calque_1-2" data-name="Calque 1">
    <g>
      <path class="cls-2" d="M43.85,65.33c-3.64-7.51-29.97-49.85-25.99-53.94.34-.35,8.56-3.55,9.04-3.54.74.01,11.95,7.41,12.46,7.95,4.41,4.65,13.45,27.47,18.46,34.5,15.05,21.1,17.82,2.87,28.32-9.67,7.74-9.24,17.73-18.19,23.7-29.3,2.9-1.49,3.7-1.25,6-2,2.78,7.47,9.99,1.16,15.99,2v6c-7.31,12.55-47.61,56.5-48.03,65.18,5.35,18.65,33.71,47.2,29.19,66.92-1.57,6.87-5.46,11.4-12.12,5.86-7.62-6.35-31.24-50.74-36.06-51.95-2.59-.65-3.49,1.66-4.94,3.03-7.74,7.27-33.69,46.41-38.41,48.49-6.36,2.8-8.09-8.89-12.6,2.46-14.2-6.78-8.66-13.56-1.88-23.84,11.15-16.93,28.37-34.74,41.41-50.58,4.15-8.91-1.44-11.16-4.54-17.56Z"/>
      <path class="cls-1" d="M43.85,65.33c-3.25-1.27-4.69-3.79-6.4-6.59-4.18-6.84-22.61-34.15-22.95-38.66-.12-1.52.96-12.26,1.43-12.7.74-.7,5.24.8,7.47-.47,1.4-.8,2.78-8.42,6.45-6.64,16.85,16.43,25.62,38.16,39.01,57.05L102.77,15.2c1.64-3.07,4.99-2.8,7.08-3.88-5.97,11.11-15.96,20.06-23.7,29.3-10.5,12.54-13.27,30.77-28.32,9.67-5.01-7.03-14.06-29.85-18.46-34.5-.51-.54-11.72-7.94-12.46-7.95-.49,0-8.7,3.19-9.04,3.54-3.99,4.09,22.35,46.44,25.99,53.94Z"/>
      <path class="cls-1" d="M115.85,9.33c8.89-2.9,9.22-5.79,19.89.12,2.13,5.13-3.1,6.53-3.89,7.88v-6c-6.01-.85-13.22,5.47-16-2Z"/>
    </g>
  </g>
</svg>