<?xml version="1.0" encoding="UTF-8"?>
<svg id="Calque_2" data-name="Calque 2" xmlns="http://www.w3.org/2000/svg" viewBox="0 0 196.77 197.29">
  <defs>
    <style>
      .cls-1 {
        fill: #f0faf3;
      }

      .cls-2 {
        fill: #90cba7;
      }

      .cls-3 {
        fill: #3f9e63;
      }

      .cls-4 {
        fill: #eef8f1;
      }

      .cls-5 {
        fill: #ecfaf1;
      }

      .cls-6 {
        fill: #dff4e8;
      }

      .cls-7 {
        fill: #59ae78;
      }

      .cls-8 {
        fill: #daf5e3;
      }
    </style>
  </defs>
  <g id="Calque_1-2" data-name="Calque 1">
    <g>
      <path class="cls-3" d="M17.41,149.2c3.55-8.9,24.87-42.26,23.74-46.58-.72-2.78-22.61-21.83-26.78-25.37-9.31-7.9-17.82-6.14-12.94-22.05,21.17,1.62,41.46,9.12,62.07,10.81C74.51,57.41,98.63.69,110.37,0c1.68-.1,5.74,1.16,6.98,2.22,5.16,4.43,6.72,68.37,9.87,70.01l66.76,4.94c4.38,4.1,3.49,12.49-1.96,15.64-10.25,5.92-32.15,9.98-44.58,15.41-5.84,2.55-11.76,5.56-17.16,8.97-.18,11.71,14,73.57,7.12,80.01-.55.52-12.44-1.69-15.09-1.83-14.71-15.62-26.06-34.81-40.9-50.18-.81-.83-.99-3.34-2.9-3.49-3.97-.32-12.64,5.72-16.66,7-2.04.65-4.81-1.45-6.56-.6-.61.3-1.38,7.9-6.89,11.28-3.41,2.09-6.81-.48-9.09,2.61-1.87,2.54-1.45,6.35-2.01,7.19-.28.41-7.51-3.14-9.9-1.13-3.23,2.71-3.06,9.68-13.05,13.08-4.78,1.63-1.11-6.57-6.54-6.29l-.37-2.61c7.68-4.53,4.62-9.77,6.04-15.63.11-.46,2.41-3.61,3.93-7.41ZM90.2,49.72c-1.95,3.61-2.49,12.8-8.75,16.48,4.24,6.01,9.82,3.2,15.39,3.56,3.16.2,6.52,5.28,10.59.49s-1.59-30.77-.98-39.09c-2.32-3.18-3.1-1.06-5.04,1.03-1.83,1.96-9.78,14.89-11.2,17.53ZM31.41,77.2c6.21,5.78,11.38,9.63,19.05,13.96.6.1,2.2-2.86,2.95-3.96,4.81-7.05,2.58-13.05-5.9-15.17-3.31-.83-6.18,1.41-8.98,1.08-2.42-.29-14.3-6.77-15.1-5.91-.69,5.24,5.06,7.28,7.98,10ZM69.41,85.2c-4.08,3.63-7.95,7.85-9.47,13.53-2.34,8.72.52,5.29,3.47,6.47-2.2,11.59-3.74,4.87-10,10-2.48,2.03-14.99,21.43-18,26-3.27,4.97-7.44,7.9-6,15.99,17.57,4.58,14.42-7.87,22.13-12.94,4.57-3,10.29-.49,12.95-2.81,4.03-3.52,5.66-17.06,10.9-19.4,2.34-1.04,3.91,3.26,6.67,2.9,3.74-.49,7.7-9.6,14.31-3.74,7.65,6.78-2.01,5.98-4.01,9.95-3.55,7.07.89,12.79,7.04,16.04,3.85,5.14,12.91,13.38,17.98,18,.21-9.88-.23-20.3-1.98-30l-.29-14.82-7.73-4.23c4.23-6.3,3.98-9.81,4.02-16.95.02-3.07-.15-12.22-2.35-13.67-1.3-.85-27.25-4.56-30.77-4.48-7.82.19-4.99.69-8.88,4.15ZM151.41,87.22c-13.83,2.14-30.96-10.66-23.98,11.99,8.07-3.61,19.33-2.99,23.98-11.99Z"/>
      <path class="cls-7" d="M81.41,145.2c-17.66,3.9-29.78,17.43-44.86,26.17-10.02,5.81-4.96,3.16-10.39,7.98-.79.7-12.59,5.8-13.75,5.75-1.54-.06-11.32-3.75-11-6.8.53-5.11,10.74-25.97,16-29.1-1.52,3.81-3.82,6.96-3.93,7.41-1.42,5.86,1.64,11.1-6.04,15.63l.37,2.61c5.43-.28,1.75,7.92,6.54,6.29,9.99-3.4,9.83-10.37,13.05-13.08,2.39-2.01,9.62,1.55,9.9,1.13.56-.84.14-4.66,2.01-7.19,2.28-3.09,5.68-.52,9.09-2.61,5.52-3.38,6.28-10.98,6.89-11.28,1.75-.85,4.53,1.25,6.56.6,4.02-1.29,12.69-7.32,16.66-7,1.91.15,2.1,2.66,2.9,3.49Z"/>
      <path class="cls-7" d="M63.41,105.2c8.91,3.54,13.87,16.09,18.63,15.67,1.46-.13,24.97-12.54,26.1-13.47,2.46-2.01.3-6.51,3.27-8.2-.04,7.13.21,10.65-4.02,16.95l7.73,4.23.29,14.82c-.55-3.07-3.81-7.22-2.02-12-3.92,2.91-20.81,9.76-19.84,14.73.11.54,5.16,8.34,5.86,9.27-6.14-3.26-10.59-8.97-7.04-16.04,2-3.98,11.65-3.17,4.01-9.95-6.61-5.86-10.57,3.25-14.31,3.74-2.76.36-4.33-3.94-6.67-2.9-5.24,2.34-6.88,15.89-10.9,19.4-2.66,2.32-8.38-.19-12.95,2.81-7.72,5.07-4.57,17.51-22.13,12.94-1.43-8.09,2.73-11.02,6-15.99l.96,7.97,30.92-20.94c-3.26-5.24-7.09-12.05-13.88-13.03,6.26-5.13,7.8,1.59,10-10-2.95-1.17-5.81,2.25-3.47-6.47,1.52-5.68,5.39-9.9,9.47-13.53-3.17,7.42-4.54,12.3-6,20Z"/>
      <path class="cls-4" d="M90.2,49.72c1.42-2.64,9.37-15.58,11.2-17.53,1.95-2.08,2.72-4.21,5.04-1.03-.61,8.32,5.23,34.07.98,39.09s-7.43-.29-10.59-.49c-5.57-.36-11.15,2.45-15.39-3.56,6.26-3.68,6.8-12.86,8.75-16.48Z"/>
      <path class="cls-1" d="M115.41,135.2c1.75,9.7,2.19,20.12,1.98,30-5.07-4.62-14.13-12.86-17.98-18-.69-.92-5.75-8.73-5.86-9.27-.97-4.97,15.92-11.82,19.84-14.73-1.79,4.78,1.47,8.93,2.02,12Z"/>
      <path class="cls-5" d="M53.41,115.2c6.79.98,10.62,7.79,13.88,13.03l-30.92,20.94-.96-7.97c3.01-4.57,15.52-23.97,18-26Z"/>
      <path class="cls-8" d="M151.41,87.22c-4.65,8.99-15.91,8.38-23.98,11.99-6.99-22.65,10.15-9.85,23.98-11.99Z"/>
      <path class="cls-6" d="M31.41,77.2c7.31-2.39,25.18-2.13,22,10-.75,1.1-2.35,4.06-2.95,3.96-7.67-4.34-12.84-8.18-19.05-13.96Z"/>
      <path class="cls-2" d="M53.41,87.2c3.18-12.13-14.69-12.39-22-10-2.92-2.72-8.67-4.76-7.98-10,.8-.86,12.68,5.62,15.1,5.91,2.8.33,5.67-1.91,8.98-1.08,8.48,2.12,10.71,8.12,5.9,15.17Z"/>
    </g>
  </g>
</svg>