<?xml version="1.0" encoding="UTF-8"?>
<svg id="Calque_2" data-name="Calque 2" xmlns="http://www.w3.org/2000/svg" viewBox="0 0 181.42 157.76">
  <defs>
    <style>
      .cls-1 {
        fill: #c8a2ce;
      }

      .cls-2 {
        fill: #9e6ba9;
      }

      .cls-3 {
        fill: #f4e8f5;
      }

      .cls-4 {
        fill: #f6eef7;
      }

      .cls-5 {
        fill: #d2add8;
      }

      .cls-6 {
        fill: #faf5f9;
      }

      .cls-7 {
        fill: #e5cae8;
      }
    </style>
  </defs>
  <g id="Calque_1-2" data-name="Calque 1">
    <g>
      <path class="cls-2" d="M72.08.59c11.51-1.8,17.14,2.54,25.54,2.54,4.42,0,9.2-2.81,14.03-3,31.94-1.26,56.48,6.62,66.43,39.53,13,43-13.49,88.5-50.74,110.17-27.9,16.24-95.34,6.49-115.79-19.64C-21.86,87.48,23.04,8.28,72.08.59ZM164.61,82.11c4.08-22.89,3.21-63.73-25.44-69.55-4.39-.89-32.34-1.85-21.29,5.28,9.41,6.07,29.36,17.67,35.6,26.4,7.05,9.85,8.61,23.22,7.39,35.03-.41,4.02-.08,2.87,3.73,2.84ZM130.03,44.68c-2.11-2.6-11.43-7.07-15.41-6.54l17.01,17.97c2.4-2.64.36-9.03-1.6-11.43ZM118.61,76.1c.66-10.18.43-22.81-9.97-27.99,3.69,8.83,8.49,15.37,6.85,25.8-.71,4.53,2.54,2.94,3.12,2.19ZM93.77,54.2c-8.48,1.89-34.05,53.86-12.05,56.01,19.52,1.91,24.92-58.88,12.05-56.01ZM48.62,56.13c-5.15-.88-3.63.73-4.58,4.3-3.1,11.62-3.89,23.95-1.4,35.67l5.98-39.97ZM66.62,144.09c-5.88-5.38-13.69-7.59-20.66-12.32-13.34-9.05-25.23-26.88-26.98-43.2-.5-4.7,4.07-12.34-.34-14.44-14.22,38.59,8.42,68.19,47.97,69.96ZM122.6,120.07c.2-.23.73-4.21-.97-3.95-16.59,13.71-35.22,10.93-54.41,6.37-11.03-2.62,2.46,9.95,4.74,11.18,8.18,4.41,30.39,0,38.48-4.74,2.74-1.61,4.79-4.67,7.21-6.89,1.58-1.44,4.74-1.73,4.95-1.98Z"/>
      <path class="cls-6" d="M164.61,82.11c-3.81.03-4.14,1.18-3.73-2.84,1.21-11.8-.34-25.17-7.39-35.03-6.25-8.73-26.2-20.33-35.6-26.4-11.05-7.14,16.9-6.17,21.29-5.28,28.65,5.82,29.52,46.66,25.44,69.55Z"/>
      <path class="cls-4" d="M66.62,144.09c-39.55-1.78-62.2-31.37-47.97-69.96,4.41,2.11-.17,9.74.34,14.44,1.75,16.33,13.63,34.15,26.98,43.2,6.97,4.73,14.78,6.94,20.66,12.32Z"/>
      <path class="cls-3" d="M122.6,120.07c-.21.25-3.37.53-4.95,1.98-2.42,2.21-4.47,5.28-7.21,6.89-8.1,4.74-30.3,9.15-38.48,4.74-2.28-1.23-15.76-13.8-4.74-11.18,19.19,4.56,37.82,7.34,54.41-6.37,1.71-.26,1.17,3.72.97,3.95Z"/>
      <path class="cls-1" d="M48.62,56.13l-5.98,39.97c-2.49-11.72-1.7-24.04,1.4-35.67.95-3.57-.57-5.18,4.58-4.3Z"/>
      <path class="cls-7" d="M130.03,44.68c1.95,2.4,3.99,8.79,1.6,11.43l-17.01-17.97c3.99-.52,13.3,3.94,15.41,6.54Z"/>
      <path class="cls-5" d="M118.61,76.1c-.57.74-3.83,2.34-3.12-2.19,1.64-10.43-3.16-16.97-6.85-25.8,10.4,5.18,10.63,17.81,9.97,27.99Z"/>
    </g>
  </g>
</svg>