<?xml version="1.0" encoding="UTF-8"?>
<svg id="Calque_2" data-name="Calque 2" xmlns="http://www.w3.org/2000/svg" viewBox="0 0 120.19 226.51">
  <defs>
    <style>
      .cls-1 {
        fill: #96cde3;
      }

      .cls-2 {
        fill: #e7f8fa;
      }

      .cls-3 {
        fill: #f0fcfa;
      }

      .cls-4 {
        fill: #4bafdb;
      }
    </style>
  </defs>
  <g id="Calque_1-2" data-name="Calque 1">
    <g>
      <path class="cls-4" d="M59.92,44.31c5.1-2.06,9.37-5.04,15.18-5.83,13.46-1.83,40.96-.65,35.98,19.82s-33.6,22.31-50.12,21.92c-10.83-.26-14.62-8.83-21.14,5-2.96,6.27-4.42,14.16-3.89,21.08,21.53-5.76,74.57-14.2,83.07,13.92,3.37,11.14-.56,13.68-9.7,18.47-15.67,8.2-38.67,8.42-55.33,2.58-12.83-4.5-17.16-18.58-28.11-8.01-12.64,12.2-15.58,38.38,2.07,46.05,26.35,11.45,20.44-7.78,32.89-15.09,13.81-8.1,30.7.09,29.16,17.1s-20.31,10.41-31.21,18.98l3.13,26.01c-14.91,3.06-17.02-27.01-19.89-29.09-1.52-1.1-12.5-2.32-17.45-4.55C-1.03,181.11-6.7,149.61,7.9,127.28c3.25-4.97,14.92-10.99,15.75-14.34,1.03-4.19-4.65-16.8-3.31-25.07,1.57-9.71,11.27-19.35,11.28-20.55,0-1.08-10.05-12.83-11.23-18.47C15.55,25.83,36.07,9.68,56.37,3.75c9.94-2.9,39.82-9.28,36.55,6.57-18.24-2.44-52.44,8.18-59.43,26.55-2.63,6.92-1.16,18.86,6.44,19.44,9.98.76,18.18-1.26,20-12ZM95.91,50.32c-3.67-3.61-39.93,9.63-39.95,14.99-.01,3.12,19.87,3.24,22.42,2.64,3.19-.76,21.45-13.76,17.53-17.63ZM105.93,128.3c3.29-17.77-20.24-16.86-32.45-15.43-3.57.42-27.59,5.89-27.52,8.44,15.36,18.52,39.69,9.17,59.96,6.99Z"/>
      <path class="cls-1" d="M59.92,44.31c-1.82,10.74-10.02,12.76-20,12,4.71-6.88,12.87-9.12,20-12Z"/>
      <path class="cls-3" d="M105.93,128.3c-20.28,2.18-44.61,11.53-59.96-6.99-.07-2.55,23.95-8.02,27.52-8.44,12.2-1.43,35.73-2.34,32.45,15.43Z"/>
      <path class="cls-2" d="M95.91,50.32c3.93,3.86-14.34,16.87-17.53,17.63-2.55.6-22.43.49-22.42-2.64.02-5.36,36.28-18.6,39.95-14.99Z"/>
    </g>
  </g>
</svg>