<?xml version="1.0" encoding="UTF-8"?>
<svg id="Calque_2" data-name="Calque 2" xmlns="http://www.w3.org/2000/svg" viewBox="0 0 153.27 154.01">
  <defs>
    <style>
      .cls-1 {
        fill: #32a05c;
      }

      .cls-2 {
        fill: #81c198;
      }

      .cls-3 {
        fill: #9bd0ae;
      }
    </style>
  </defs>
  <g id="Calque_1-2" data-name="Calque 1">
    <g>
      <path class="cls-1" d="M150.21,9.96c-8.83,22.6-33.31,43.54-47.96,63l43.98,38.03c5.19,7.54-.06,8.78,6.05,17.98,3.34,5.02-2.5,10.68-6.68,10.61-4.79-.08-30.8-15.79-36.38-19.63-8.85-6.1-16.66-18.11-27.59-19.69l-46.45,53.69c-6.32.9-6.5-9.56-6.99-9.99-3.68-3.25-17.28,16.31-17.66-6.61l43.65-62.28c-.78-2.92-10.33-6.87-12.04-8.46-9.88-9.24-21.17-22.45-31.88-33.7-2.32-2.44-6.06-2.72-8.05-4.95-.55-5.53-.9-5.52,4.41-6.69,9.09-2.01,7.07,6.43,15.59,2.67C7.98,10.1,8.16,1.29,28.21,13.96c12.33,7.79,28.96,21.19,40.13,30.91,3.52,3.06,3.03,8.91,8.77,7.17.51-.15,2.78-4.19,5.1-6.08,8.97-7.26,5.32-7.47,9.84-12.66,1.92-2.2,12.6-8.9,15.06-11.46,3.62-3.77,9.15-10.91,11.12-15.87l4.98,7.97c-1.58-13.32,20.01-12.1,26.99-3.99Z"/>
      <path class="cls-2" d="M150.21,9.96c-6.98-8.11-28.57-9.33-26.99,3.99l-4.98-7.97c-1.97,4.96-7.5,12.1-11.12,15.87-2.46,2.56-13.14,9.26-15.06,11.46-4.52,5.19-.87,5.39-9.84,12.66C90.31,27.76,107.54,13.7,121.41,0c7.07,3.7,28.02-3.27,30.67,7.31.48,1.92-1.74,2.33-1.86,2.66Z"/>
      <path class="cls-3" d="M28.21,13.96C8.16,1.29,7.98,10.1,22.21,23.94c-8.52,3.75-6.5-4.68-15.59-2.67-5.31,1.17-4.96,1.17-4.41,6.69C-.73,24.68.06,22.25.2,17.97c14.16,1,7.94-.19,10.02-6.91,3.73-12.09,13.94-5.19,17.99,2.91Z"/>
    </g>
  </g>
</svg>