<?xml version="1.0" encoding="UTF-8"?>
<svg id="Calque_2" data-name="Calque 2" xmlns="http://www.w3.org/2000/svg" viewBox="0 0 216.57 215.87">
  <defs>
    <style>
      .cls-1 {
        fill: #9f6fa8;
      }
    </style>
  </defs>
  <g id="Calque_1-2" data-name="Calque 1">
    <path class="cls-1" d="M112.58,98.84c-3.13,4.31.39,9.92-1.56,13.4-1.55,3.28-7.04-1.35-8.31-2.73-21.27-23.14,32.33-47.52,57.71-23.29,16.88,16.11,7.93,50.37-7.45,63.98-28.43,25.17-77.01,17.3-95.74-15.98-.71-1.26.92-3.66.23-5.42-.19-.48-2.93-.64-3.81-3.31-4.17-12.57.3-16.48,1.71-26.47.45-3.17-1.94-6.72-1.06-11.33,1.1-5.72,17.03-26.57,22.49-30.67,46.41-34.9,125.21-19.42,138.3,42.23.32,1.52,1.18,13.02,1.04,13.69-.51,2.32-4.2.39-4.16,2.28.03,1.22,6.53.59,4.04,6.99l-6.01,1c12.49,6.06,2.61,8.99,2.42,9.97-1.83,9.25-.68,14.18-5.84,24.53-1.34,2.69-6.32,2.98-4.6,8.53l-3.86-1.93c-.98,5.75-4.6,13.19-8.83,17.2-3.64,3.45-8.23,2.96-8.82,3.44-17.57,14.32-26.9,22.66-50.38,28.36-48.17,11.71-107.74-18.13-124.95-65.22-3.21-8.77-8.16-38.42-1.15-44.89l-3.98-1.01v-1.95c4.61.86,3.28-3.39,4.7-5.32,1.74-2.36,7.67.45-2.68-5.69,4.31-5.56,4.45-12.61,6.99-18.99C22.21,37.22,56.94,8.25,92.39,1.69c14.93-2.76,31.85-4.03,39.55,11.54l-28.45-.49C11.59,23.71-23.09,168.61,73.64,197.58c62.75,18.79,132.54-30.32,126.31-98.31-6.55-71.44-144.71-59.38-131.84,23.83,1.76,11.36,18.25,26.69,29.36,28.67,18.15,3.23,37.75-5.93,49.36-19.69,8.06-9.56,14.96-26.05,5.02-36.72-10.33-11.09-31.13-7.73-39.28,3.49Z"/>
  </g>
</svg>