<?xml version="1.0" encoding="UTF-8"?>
<svg id="Calque_2" data-name="Calque 2" xmlns="http://www.w3.org/2000/svg" viewBox="0 0 386.81 223.75">
  <defs>
    <style>
      .cls-1 {
        fill: #f08b2f;
      }

      .cls-2 {
        fill: #99d5e6;
      }

      .cls-3 {
        fill: #eabc8a;
      }

      .cls-4 {
        fill: #5b67b4;
      }

      .cls-5 {
        fill: #41b6e7;
      }
    </style>
  </defs>
  <g id="Calque_1-2" data-name="Calque 1">
    <g>
      <path class="cls-4" d="M254.58,167.67c-12.53,9.71-24.62,11.31-39.82,14.21,1.99,13.98,7.59,27.36,5.82,41.83-20.07,1-20.8-23.65-27.92-37.19-12.86.24-34.03,11.05-44.26,1-10.35-10.17,3.77-7.55,10.18-12.82l27.16-6.85c1.21-6.61-7.03-50.56.15-52.26,20.79-4.91,15.7,34.96,24.63,45.28,13.96-.65,37.19-13.09,44.05,6.79Z"/>
      <g>
        <path class="cls-5" d="M270.59,129.71c-30.22-.16-10.71-12.71,2.18-22.82,8.8-6.9,20.71-13.73,29.98-20.39.36-1.89-2.77-11.43-3.82-14.14-4.53-11.65-13.72-22.87-15.85-36.12-2.97-18.46.97-23.64,17.61-13.1l24.07,46.46c3.23,2.2,20.18-12.54,24.04-14.67,7.46-4.12,19.5-10.18,27.41-7.9,14.44,4.17,12.87,10.12,2.82,18.59-5.59,4.71-39.67,25.7-40.3,29.33,9.22,18.89,21.89,37.55,23.85,58.75l-9.98-1.99-.02,8.02c-5.57,5.72-18.34-14.19-20.78-18.23-2.83-4.67-13.41-30.28-15.52-31.51-4.27-2.49-15.43,7.16-19.7,9.72-12.49-4.81-17.47,2.46-26,10Z"/>
        <path class="cls-2" d="M296.59,119.71c-10.17,6.1-13.11,10.07-26,10,8.53-7.54,13.51-14.81,26-10Z"/>
      </g>
      <g>
        <path class="cls-1" d="M90.59,109.71c-4.87-2.57-18.06-13.76-22.04-11.16l-33.91,50.21c-24.21,16.61-12.29-11.01-14.08-13.01-1.03-1.15-7.1,2.39-5.89-2.94,2.69-11.75,30.91-44.68,29.6-51.81C40.33,71.95-5.75,51.07.6,41.74l9.99-2.05c-3.06-3.5-10.49-15.29-2.71-17.81,9.31-3.01,42.95,29.86,55.51,31.69C72.3,44.63,97.22,1.3,107.94.02c2.39-.28,4.1,2.74,6.22,3.15,5.06,1,12.23-2.59,9.6,8.54-2.79,11.84-35.13,53.05-35.2,59.03-.02,2.21,1.31,3.79,2.95,5.06l29.08,19.91,12,12c.62.62,1.66,1.44,2,2,1.85,9.56-4.66,4.4-9.97,7.02-2.69,1.32-4.3,5.51-7.29,6.86-8.13-6.36-17.82-9.16-26.74-13.88Z"/>
        <path class="cls-3" d="M90.59,109.71c8.91,4.71,18.61,7.51,26.74,13.88,3-1.35,4.61-5.53,7.29-6.86,5.31-2.62,11.82,2.54,9.97-7.02,2.03,3.37,3.05,7.13.23,10.85-2.53,3.34-9.12-2.76-9.24,7.21-7.24,1.3-30.19-11.48-34.99-18.06Z"/>
        <path class="cls-3" d="M132.59,107.71l-12-12c5.61.86,11.15,6.43,12,12Z"/>
      </g>
    </g>
  </g>
</svg>