<?xml version="1.0" encoding="UTF-8"?>
<svg id="Calque_2" data-name="Calque 2" xmlns="http://www.w3.org/2000/svg" viewBox="0 0 191.24 187.26">
  <defs>
    <style>
      .cls-1 {
        fill: #eba662;
      }

      .cls-2 {
        fill: #f0a65f;
      }

      .cls-3 {
        fill: #f2be84;
      }

      .cls-4 {
        fill: #f0b06b;
      }

      .cls-5 {
        fill: #ee8b31;
      }
    </style>
  </defs>
  <g id="Calque_1-2" data-name="Calque 1">
    <g>
      <path class="cls-5" d="M143.19,15.1c87.37,41.02,44.81,161.89-41.51,171.49-25.74,2.86-47.28-3.51-68.49-17.49l-20-22c-1.41-3.09-5.78-12.87-6.02-15.2-.34-3.25,2.03-8.21,1.77-8.56-.44-.59-3.74-.69-4.73-2.16-3.18-4.73.34-10.41.76-15.31.22-2.59-1.66-5.47-1.31-7.54.52-3.06,6.11-4.98,7.21-8.72,1.46-4.94-4.39-15.22,6.3-16.55l-.22-3.8c-9.18-.87-.17-4.98,1.02-8.11,5.11-13.5,13.93-24.28,25.1-35.11C73.66-3.65,106.25-2.24,143.19,15.1ZM103.18,71.11c-2.38.14-4.24-1.03-6.13,1.24-3.83,4.6-8.3,27.61-11.86,34.73,4.42.8,5.38-2.9,7.09-5.89,2.04-3.55,12.55-28.52,10.89-30.09ZM43.17,155.14c-5.37-1.15-12.02-7.8-14.42-12.6-.86-1.73-7.11-17.79-7.18-18.8-.22-2.85,6.99-10.43-2.35-14.64-3.94,13.64-.75,33.63,10.11,42.91,1.7,1.46,15.89,12.43,13.86,3.13ZM77.19,157.08c4.7-.78,8.98,3.74,12.96,3.83,2.54.06,16.98-4.93,17-6.81.05-5.12-27.46-4-29.96,2.98Z"/>
      <path class="cls-1" d="M143.19,15.1C106.25-2.24,73.66-3.65,43.07,26.03c-11.17,10.84-20,21.62-25.1,35.11-1.18,3.13-10.2,7.24-1.02,8.11l.22,3.8c-10.69,1.33-4.83,11.61-6.3,16.55-1.11,3.74-6.69,5.65-7.21,8.72-.35,2.06,1.54,4.94,1.31,7.54-.42,4.9-3.95,10.58-.76,15.31.98,1.46,4.29,1.56,4.73,2.16.26.35-2.11,5.31-1.77,8.56.24,2.33,4.62,12.11,6.02,15.2C-9.33,117.99-1.03,66.82,23.14,40.05,55.46,4.24,89.09-11.42,136.08,9.21c3.33,1.46,5.76,1.86,7.11,5.89Z"/>
      <path class="cls-2" d="M13.19,147.1l20,22c-11.79-7.77-14.08-8.98-20-22Z"/>
      <path class="cls-2" d="M43.17,155.14c2.04,9.3-12.15-1.67-13.86-3.13-10.85-9.27-14.05-29.27-10.11-42.91,9.35,4.21,2.14,11.79,2.35,14.64.08,1,6.32,17.07,7.18,18.8,2.4,4.8,9.05,11.45,14.42,12.6Z"/>
      <path class="cls-4" d="M103.18,71.11c1.66,1.57-8.85,26.54-10.89,30.09-1.71,2.98-2.67,6.68-7.09,5.89,3.56-7.12,8.03-30.13,11.86-34.73,1.89-2.27,3.74-1.11,6.13-1.24Z"/>
      <path class="cls-3" d="M77.19,157.08c2.5-6.98,30-8.1,29.96-2.98-.02,1.88-14.47,6.87-17,6.81-3.97-.1-8.25-4.61-12.96-3.83Z"/>
    </g>
  </g>
</svg>