<?xml version="1.0" encoding="UTF-8"?>
<svg id="Calque_2" data-name="Calque 2" xmlns="http://www.w3.org/2000/svg" viewBox="0 0 252.84 240.07">
  <defs>
    <style>
      .cls-1 {
        fill: #f4d238;
      }

      .cls-2 {
        fill: #f4e798;
      }

      .cls-3 {
        fill: #f2d857;
      }
    </style>
  </defs>
  <g id="Calque_1-2" data-name="Calque 1">
    <g>
      <path class="cls-3" d="M130.67,20.03c-4.85,11.43-8.47,15.45-13.7,25.3-2.22,4.18-11.75,27.95-13.55,28.56-11.76,4.01-51.27-41.14-60.69-33.81-4.59,3.58,2.28,8.5,2.83,10.03,6.38,17.7,14.86,35.09,24.69,51.49.85,7.11-.69,16.58-9.12,18.04-4.82.84-8.04-2.46-12.35-.67-.93.39-15.16,10.9-16.17,12-4.1,4.42-5.09,14.34-16.69,10.88-1.61-.48-5.37-9.93-9.24-5.82-.97,1.03.94,7.16,2.15,8.83,4.08,5.62,24.96,2.86,32.92,3.08,4.78.13,9.16,2.12,13.92,2.25,8.51.23,21.97-8.63,20.55,6.24s-12.92,42.4-13.48,52.69c-.35,6.33,6.46,12.27-3.1,14.87-3.02,3.41,7.73,6.16,12.25,2.22,2.32-2.02,2.03-6.03,3.43-7.53,1.65-1.78,4.58-2.39,6.43-4.52,9.6-11.06,33.34-54.91,46.68-28.89,6.99,13.63,9.42,27.8,20.25,41.75,21.26,27.4,10.68-14.07,10.02-24.02-.61-9.27.22-18.75.07-28.05-.11-6.58-3.9-9.53-.22-16,6.8-11.93,26.81-4.6,39.21-4.84,4.71-.09,9.1-1.89,13.83-2.16,5.96-.34,43.46,3.1,26.87-8.7-5.36-3.81-27.25-15.99-33.41-18.59-1.67-.7-14.47-4.82-15.27-4.76-1.33.11-17.14,12.76-15.09,1.16.84-4.75,8.03,2.69,9.99-7.03,1.74,1.3,4.28,1.24,6,2,17.59,7.76,33.12,16.34,50.26,24.73,4.89,2.4,14.04,1.19,11.46,7.97-2.19,5.75-14.8,6.75-20.75,7.27-23.44,2.05-48.47-4.17-70.9,4.14,3.77,16,.95,32.58,1.97,48.85.51,8.08,10.88,31.93-4.85,31.05-15.95-.89-30.51-58.19-40.46-59.87-2.63-.44-13.38,11.21-15.75,13.82-6.94,7.65-22.96,32.15-29.86,36.13-7.71,4.45-19.22-.51-18.71-8.76.19-3.04,7.46-19.19,9.03-24.91,1.7-6.17,11.43-39.86,9.66-42.48-2.31-3.42-13,.41-18.13.21-9.75-.38-33.99-.86-41.55-2.57-9.31-2.1-14.31-8.76-11.14-18.33,1.25-3.77,16.38-6.77,21.11-8.87,13.93-6.22,27.08-15.71,42.49-18.51,2.26-2.62-4.74-16.53-6.45-20.31-3.52-7.76-23.91-40.24-23.53-44.46,1.05-11.76,14.71-4.31,21.15-1.17,4.85,2.36,10.22,6.16,14.77,9.23,5.15,3.47,24.6,22,28.93,20.71,2.64-.79,23.04-41.1,27.25-47.89l4-2Z"/>
      <path class="cls-2" d="M126.67,22.03c.73-1.18.64-4.31,2.23-6.68,3.63-5.4,9.54-9.48,12.79-15.32,3.72-.92,12.97,15.37,12.97,19v46c0,1.39,2.44,2.28,4.13,2.24,11.97-.33,35.79-15.14,51.03-17.07,10.26-1.3,23.77-2.16,24.34,11.19s-36.09,33.19-43.65,45.57c-2.26,3.7-2.41,5.5.14,9.08-1.72-.76-4.26-.7-6-2,4.08-20.23,27.01-27.85,39.02-41.98,10.66-12.55,7.52-21.36-9.77-19.82-9.99.89-58.5,22.66-61.24,19.82.95-6.52-1.75-12.59-2.09-18.93-.48-8.97,2.75-24.7,1.23-31.09-3.96-16.75-14.64-17.35-21.15-2l-4,2Z"/>
      <path class="cls-1" d="M130.67,20.03c6.51-15.35,17.19-14.76,21.15,2,1.51,6.39-1.71,22.12-1.23,31.09.34,6.34,3.04,12.41,2.09,18.93,2.74,2.84,51.25-18.93,61.24-19.82,17.29-1.54,20.42,7.28,9.77,19.82-12.01,14.14-34.94,21.75-39.02,41.98-1.96,9.72-9.15,2.28-9.99,7.03-2.05,11.6,13.76-1.05,15.09-1.16.8-.07,13.6,4.05,15.27,4.76,6.17,2.59,28.05,14.78,33.41,18.59,16.6,11.8-20.91,8.36-26.87,8.7-4.72.27-9.12,2.06-13.83,2.16-12.41.25-32.42-7.08-39.21,4.84-3.68,6.47.11,9.43.22,16,.15,9.3-.68,18.78-.07,28.05.66,9.95,11.24,51.42-10.02,24.02-10.83-13.95-13.26-28.12-20.25-41.75-13.34-26.02-37.08,17.83-46.68,28.89-1.85,2.13-4.78,2.75-6.43,4.52-1.4,1.5-1.11,5.51-3.43,7.53-4.52,3.95-15.28,1.19-12.25-2.22,9.56-2.6,2.75-8.54,3.1-14.87.56-10.3,12.05-37.69,13.48-52.69s-12.04-6.01-20.55-6.24c-4.76-.13-9.14-2.11-13.92-2.25-7.96-.22-28.84,2.54-32.92-3.08-1.22-1.67-3.12-7.8-2.15-8.83,3.87-4.11,7.63,5.34,9.24,5.82,11.6,3.45,12.58-6.46,16.69-10.88,1.02-1.1,15.24-11.61,16.17-12,4.31-1.8,7.53,1.5,12.35.67,8.43-1.46,9.97-10.93,9.12-18.04-9.84-16.4-18.31-33.79-24.69-51.49-.55-1.53-7.42-6.45-2.83-10.03,9.42-7.34,48.93,37.81,60.69,33.81,1.8-.61,11.33-24.38,13.55-28.56,5.23-9.84,8.85-13.87,13.7-25.3Z"/>
    </g>
  </g>
</svg>