<?xml version="1.0" encoding="UTF-8"?>
<svg id="Calque_2" data-name="Calque 2" xmlns="http://www.w3.org/2000/svg" viewBox="0 0 403.14 63.7">
  <defs>
    <style>
      .cls-1 {
        fill: #1868a8;
      }

      .cls-2 {
        fill: #72a0bf;
      }

      .cls-3 {
        fill: #4c87b5;
      }
    </style>
  </defs>
  <g id="Calque_1-2" data-name="Calque 1">
    <g>
      <path class="cls-1" d="M396.31,27.71l-5.53,5.82c-12.55,5.39-6.56-6.09-18.47-3.82-12.93-10.07-12.4-12.91-30-16-2.21-.39-4.84-3.01-8.01-1.98,6.19,8.05-12.37,4.69-13.36,8.98-.25,1.06,1.49,2.68,1.38,3-.15.44-1.63,3.35-2,4h-4s0,4,0,4c-.59.74-2.85,2.81-4,4-5.77-4.77-6.66,4.46-8.37,5.63-5.27,3.61-10.3,3.65-18.5,10.6-3.14,2.66-7.62-3.83-9.13,5.77-8.31.81-20.95-.88-28.53-4.47-15.6-7.38-28.08-31.19-46.47-31.16-32.27.06-45.35,46.64-79.51,41.17-29.2-4.68-42.68-44.37-77.52-36.55-17.5,3.93-31.52,17.22-38.94,32.9-14.19-4.98,3.57-27.54,11.06-32.8,18.14-12.74,44.6-14.14,64.28-4.46,16.45,8.1,27.36,29.8,47.08,28.82,10.38-.52,37.2-38.47,61.5-41.5,38.07-4.75,38.06,16.31,62.34,29.76,25.61,14.18,37.5-7.29,53.68-21.79,1.95-1.75,5.65-1.39,6.65-2.23.38-.32-1.47-3.23.19-4.68C316.72,6.72,338.36-.45,345.05.02c20.61,1.45,23.56,10.81,37.39,20.56,4.33,3.05,9.22,4.81,13.87,7.14ZM306.31,31.69c6.25.93,8.91-1.93,7.98-7.98l-7.98,7.98Z"/>
      <path class="cls-2" d="M372.31,29.71c11.91-2.28,5.91,9.21,18.47,3.82l5.53-5.82c5.53,2.76,10.71,6.15,2.74,11.91-8.42,6.09-20.96-5.4-26.74-9.91Z"/>
      <path class="cls-3" d="M312.31,35.71c-9.79,10.15-20.85,20.52-36,22,1.51-9.6,5.99-3.11,9.13-5.77,8.2-6.95,13.23-6.99,18.5-10.6,1.71-1.17,2.6-10.4,8.37-5.63Z"/>
      <path class="cls-3" d="M342.31,13.71l-20,10c.11-.32-1.62-1.94-1.38-3,1-4.29,19.56-.93,13.36-8.98,3.18-1.02,5.81,1.6,8.01,1.98Z"/>
      <path class="cls-3" d="M320.31,27.71c-1.54,2.66-3.13,2.92-4,4v-4s4,0,4,0Z"/>
      <path class="cls-3" d="M306.31,31.69l7.98-7.98c.93,6.05-1.73,8.91-7.98,7.98Z"/>
    </g>
  </g>
</svg>