<?xml version="1.0" encoding="UTF-8"?>
<svg id="Calque_2" data-name="Calque 2" xmlns="http://www.w3.org/2000/svg" viewBox="0 0 440.69 178.73">
  <defs>
    <style>
      .cls-1 {
        fill: #e16952;
      }

      .cls-2 {
        fill: #fcece3;
      }

      .cls-3 {
        fill: #e47862;
      }

      .cls-4 {
        fill: #fdf6f0;
      }

      .cls-5 {
        fill: #e5917c;
      }

      .cls-6 {
        fill: #df7057;
      }

      .cls-7 {
        fill: #fdf3ed;
      }

      .cls-8 {
        fill: #f6ccbb;
      }

      .cls-9 {
        fill: #e33d20;
      }

      .cls-10 {
        fill: #e05c42;
      }

      .cls-11 {
        fill: #e16d55;
      }

      .cls-12 {
        fill: #e2593e;
      }

      .cls-13 {
        fill: #fdf2ea;
      }

      .cls-14 {
        fill: #fbe3d6;
      }

      .cls-15 {
        fill: #e2462d;
      }

      .cls-16 {
        fill: #e6a997;
      }

      .cls-17 {
        fill: #e34e32;
      }

      .cls-18 {
        fill: #dc4f33;
      }

      .cls-19 {
        fill: #e2755e;
      }

      .cls-20 {
        fill: #e14b2e;
      }
    </style>
  </defs>
  <g id="Calque_1-2" data-name="Calque 1">
    <g>
      <path class="cls-12" d="M280.11,24.22c11.45,5.76,13.96,17.85,15.14,18.15,5.22,1.31,10.26-3.81,14.67-4.91,19.61-4.9,23.19,15.3,29.47,16.44,5.88,1.06,16.07-11.41,28.2-6.16,13.38,5.79,15.12,30.34,17.5,30.44,12.66-5.76,25.92-15.81,39.01-19.95,22.11,9.94-5.47,16.54-12,24-6.9,3.17-28.86,14.25-34.05,13.24-14.52-2.83-7.34-12.13-8.18-21.87-1.38-16.01-5.26-20.35-19.62-10.22-12.42,8.76-6.52,14.94-8.7,27.3-3.27,18.52-14.2,65.25-34.92,71.2-25.22,7.24-18.24-28.7-14.53-41.65,5.51-.85,11.41-28.94,17.98-14.97,2.2,4.68-5.37,2.35-5.99,2.98-.59.59,1.66,4.59,1.39,6.71-.46,3.55-2.59,14.63-3.46,17.85-.45,1.66-3.29,1.21-3.74,2.73-.85,2.84,1.26,16.6,4.82,16.66,2.66.04,4.14-6.33,5-7.96,6.78-12.83,13.31-25.57,16-40,5.15-5.34,4.13-11.65,1.98-18-3.19,0-3.1,5.75-5.09,6.1-11.35,1.98-3.14-12.67-.88-18.1,4.51-10.86,8.45-11.43,1.83-25.85-3.71-2.63-20.92,5.78-22.85,9.83-2.39,5.01-.7,16.33-1.77,22.7-2.76,16.48-8.5,34.59-15.21,49.32-5.63.63-11.61.05-14.7,5.99-1.62,3.1-.99,13.22-1.4,13.77-2.27,3.06-12.28,1.01-15.9.24-6.2-4.91-4.45-15.09-3.97-22.98,1.19-19.91,8.9-34.33,19.15-50.85,8.57-13.81,27.49-26.25,10.83-44.17-3.65-3.93-5.32-.1-10.01-.02,4.21-5.57-2.41-3.26-1.98-4.97l15.99-3.01ZM262.11,114.22c-2.64,6.69-2.76,4.26-4,14-.16,1.3.16,2.7,0,4-.06.45-2.31,1.56-2.03,4.96.36,4.52,11.42-4.63,11.74-5.27.61-1.17-1.82-3.18-1.71-3.69,1.73-8.29,7.39-14.99,10.08-22.92,2.98-8.8,3.97-18.06,5.91-27.07-10.37,7.48-15.29,24.12-19.98,36Z"/>
      <path class="cls-18" d="M76.11,28.22c1.37,1.72,2.43,8.23,7,9.94,8.85-8.7,16.48-18.34,28.98-21.94,1.94,10.61-2.42,6.48-6.99,9.92-5.17,3.9-16.55,19.96-16.99,26.08-.74,10.18,2.94,22.98,2.07,35.07-.78,10.81-13.69,64.47-23.49,66.97-4.46,1.14-13.03-1.11-15.98-4.62-10.69-12.7.62-54.81,6.45-69.38,2.54-6.34,16.2-27.37,16.42-29.28.55-4.84-4.61-17.4-8.41-20.8-15.87-14.22-41.33,19.88-47.41,32.67-3.22,6.78-6.55,28.33-7.65,29.37-.76.71-7.62.26-9.12-1.88-5.41-7.7,13.18-43.45,19.18-51.08,13.62-17.3,38.56-32.87,55.95-11.05ZM62.08,136.21c1.12-1.14,10.23-26.31,11.1-29.92,2.5-10.38,3.33-21.42,2.9-32.07l-10.37,18.6c-4,12.9-9.48,26.49-7.61,40.43.37,2.75,1.08,5.89,3.97,2.95Z"/>
      <path class="cls-10" d="M138.11,34.22c-.21,3.88-.98,12.99,1.89,15.11,7.39,5.46,4.94-3.43,8.11-7.11,2.39,4.24.05,8.45.58,12.53.23,1.73,2.51,3.48,2.64,5.48.71,11.02-4.05,19.56.79,29.99l-6.02.03c9.12,9.76-.31,20.56,0,31.99l-3.97-2.02c2.32,10.12-3.4,16.68-4.02,26.01-5.06,11.45-15.39,41.04-32.66,30.15-9.47-5.98-4.66-45.7-2.79-56.6,3.6-21.01,11.94-40.68,21.45-59.55,7.45.25,6.11-8.62,8-14,.49-.78,1.61-1.34,2-2,2.36-3.98,1.39-7.14,4-10ZM136.11,66.22c-11.57,30.52-26.66,59.67-23.99,93.99,3.47,3.96,13.02-18.31,14.06-20.92,6.86-17.16,11.24-38.62,11.93-57.07l2.01-15.99c8.55-2.43-.49,13.72,8.02,8.96-1.39-2.59-3.17-14.12-4.23-14.9-.31-.23-7.51-.4-7.73-.08-.73,1.09.44,4.65-.07,6Z"/>
      <path class="cls-11" d="M166.11,6.22c2.38-1.53,4.21-4.71,7.48-5.55,22.29-5.72,26,27.26,29.5,27.5,18.66-15.85,29.87-6.79,42.02,10.04,9.44-11.24,20.02-21.52,34.99-13.99l-15.99,3.01c-.42,1.71,6.19-.6,1.98,4.97,4.69-.08,6.36-3.91,10.01.02-6.29.06-15.01,6.03-20,10-24.62-4.63-18.8,3.69-26.14,16.44-1.45,2.52-7.55,7.9-9.86,11.56h-2c2.37-4.17,11.74-16.88,12.05-19.1.51-3.67-2.67-16.09-5.07-18.92-2.65-3.13-4.66-.29-6.82,1.17-21.44,14.5-14.66,25.71-18.67,47.33-1.77,9.53-6.18,22.2-9.48,31.52-2.07,5.83-14.1,35.44-16.96,38.01-5.29,4.74-7.45.96-11.04-.01,11.78,4.52,17.86-26.31,21.98-33.02l-9.98-2.98c3.7-9.44,7.94-21.57,9.5-31.51.34-2.13,2.13-6.95-1.48-6.47l-14.03,39.99c.18-4.31-.13-8.67.01-12.99-6.62-3.76-10.84,14.89-11.6,20.57s-.08,24.25,5.59,26.42c-1.96-.53-5.33-.79-6.72-1.81-2.12-1.57-.89-3.14-1.28-4.19-1.12-18.11,2.66-39.68,11.22-55.78,5.97-11.24,8.43-11.88,13.25-24.75,2.03-5.43,6.87-8.82,5.53-15.47.56-.75,1.43-1.28,2-2-.03,12.05-5.41,24.63,5,33.96,2.12.07,10.41-37.06,10.9-40.86-.48-4.18-3.36-10.59-8.88-9.09-4.28,1.17-.97,7.96-2.44,11.46-1.18,2.84-3.63,3.31-4.59,4.53.03-10.77.65-21.42-2-32,3.1.71,4.47,4.25,7.99-1.03-4.67-12.98-16.06-7.18-25.99-6.97Z"/>
      <path class="cls-1" d="M236.11,126.22c-.88,2.73-1.34,6.27-2,8-1.9,4.94-14.48,27.1-18.56,28.72-7.15,2.83-17.3-2.37-19.01-10.15-5.97-27.17,8.55-59.68,21.57-82.57h2c-3.38,5.35-5.57,12.08-10.01,17.04,11.67,11.37,6.41.95,9.23-3.04.4-.57,9.08-9.93,9.78-9.96,1.3-.05,4.97,7.53,8.99,5.96.58-4.58-.94-10.28.08-14.58.17-.72,6.77-9.72,7.93-11.41-.94,24.91-2.26,48.07-10,72ZM212.08,144.21c10.4-20.25,16.69-43.03,18.01-65.99l-9.77,15.2c-1.35,6.1-4.76,11.59-6.51,17.49-.79,2.69-9.48,38.69-1.73,33.3Z"/>
      <path class="cls-20" d="M184.11,14.22c-1.31-.3-2.83-2.13-5-1.93-4.31.4-26.05,22.96-27,27.93-1.04.79-3.34,1.24-4,2-3.17,3.68-.72,12.57-8.11,7.11-2.87-2.13-2.1-11.23-1.89-15.11.05-.98,2.8-3.33,2-3.98l-8-2.02c-.14-.64.16-1.38,0-2-.96-3.82-1.92-6.61-4-9.98,6.83-1.34,8.91,5.49,14,7.98,7.34,3.59,12.18-9.69,17.01-14.05,2.23-2.02,4.81-2.54,6.99-3.95,9.93-.21,21.32-6.01,25.99,6.97-3.52,5.28-4.89,1.74-7.99,1.03Z"/>
      <path class="cls-17" d="M256.11,42.22c-5.05,4.02-7,7.63-10,12-1.16,1.69-7.76,10.69-7.93,11.41-1.02,4.29.5,10-.08,14.58-4.02,1.58-7.69-6.01-8.99-5.96-.7.03-9.37,9.39-9.78,9.96-2.82,3.99,2.44,14.41-9.23,3.04,4.44-4.96,6.63-11.69,10.01-17.04,2.31-3.66,8.41-9.04,9.86-11.56,7.34-12.75,1.52-21.07,26.14-16.44Z"/>
      <path class="cls-19" d="M320.11,74.22c-2.25,5.43-10.47,20.08.88,18.1,2-.35,1.9-6.09,5.09-6.1,2.16,6.34,3.18,12.66-1.98,18,.37-1.99,3.8-14.03-.97-11.98-7.64,3.28-23.01,44.7-21.04,54.97l6.01-2.99c-.86,1.63-2.34,8-5,7.96-3.56-.06-5.67-13.81-4.82-16.66.45-1.51,3.29-1.06,3.74-2.73.87-3.22,3-14.3,3.46-17.85.27-2.12-1.98-6.12-1.39-6.71.63-.63,8.19,1.7,5.99-2.98-6.57-13.97-12.47,14.12-17.98,14.97,5-17.46,15.24-33.16,28-46Z"/>
      <path class="cls-6" d="M142.11,24.22c-5.09-2.49-7.17-9.32-14-7.98,2.08,3.37,3.04,6.16,4,9.98-6.25-8.46-8.36-7.14-17.4-2.4-12.07,6.32-18.46,18.12-26.6,28.4.44-6.12,11.82-22.18,16.99-26.08,4.56-3.44,8.92.69,6.99-9.92-12.5,3.6-20.13,13.24-28.98,21.94-4.57-1.72-5.63-8.22-7-9.94,2.25.49,6.2,5.92,7,5.94,2.11.04,19.46-22.73,34-24.03,9.47-.85,22.48,3.49,25,14.09Z"/>
      <path class="cls-5" d="M154.11,144.22c-.5-1.35-1.79-1.97-2.08-4.82-2.79-27.61,15.78-69.23,32.08-91.18,1.33,6.66-3.5,10.05-5.53,15.47-4.82,12.87-7.28,13.51-13.25,24.75-8.56,16.1-12.34,37.67-11.22,55.78Z"/>
      <path class="cls-16" d="M412.11,82.22c6.53-7.46,34.11-14.06,12-24,7.37-2.33,20.03-4.07,15.71,8.68-2.2,6.48-22.04,12.72-27.71,15.32Z"/>
      <path class="cls-3" d="M282.11,130.22c-1.4,3.07-4.28,9.62-6,12-6.8,9.38-14.85,16.82-26,8,3.62.78,13.63,2.83,15.9-.24.41-.56-.21-10.67,1.4-13.77,3.09-5.94,9.07-5.36,14.7-5.99Z"/>
      <path class="cls-5" d="M138.11,146.22c.62-9.33,6.34-15.89,4.02-26.01l3.97,2.02c-.3-11.44,9.12-22.23,0-31.99l6.02-.03c-4.84-10.43-.08-18.97-.79-29.99-.13-2-2.42-3.74-2.64-5.48-.53-4.08,1.81-8.29-.58-12.53.66-.76,2.96-1.21,4-2-1.37,7.19,1.68,14.3,1.67,20.83-.05,32.98-2.04,54.34-15.67,85.17Z"/>
      <path class="cls-5" d="M124.11,60.22c3.2-6.34,4.4-8.28,8-14-1.89,5.38-.55,14.25-8,14Z"/>
      <path class="cls-5" d="M132.11,28.22l8,2.02c.79.65-1.95,2.99-2,3.98-2.61,2.86-1.64,6.02-4,10,1.86-4.65-1.54-9.12-2-12-.2-1.27.25-2.82,0-4Z"/>
      <path class="cls-13" d="M308.11,144.22l-6.01,2.99c-1.98-10.28,13.4-51.69,21.04-54.97,4.77-2.05,1.34,9.99.97,11.98-2.69,14.43-9.22,27.17-16,40Z"/>
      <path class="cls-14" d="M266.11,128.22l-7.01,7.99-.99-3.99c.16-1.3-.16-2.7,0-4l4-14c4.7-11.88,9.61-28.51,19.98-36-1.93,9.02-2.92,18.28-5.91,27.07-2.69,7.94-8.35,14.63-10.08,22.92Z"/>
      <path class="cls-3" d="M266.11,128.22c-.11.52,2.32,2.52,1.71,3.69-.33.64-11.38,9.79-11.74,5.27-.27-3.4,1.98-4.51,2.03-4.96l.99,3.99,7.01-7.99Z"/>
      <path class="cls-3" d="M258.11,128.22c1.24-9.74,1.36-7.31,4-14l-4,14Z"/>
      <path class="cls-2" d="M62.08,136.21c-2.89,2.94-3.6-.2-3.97-2.95-1.87-13.95,3.61-27.53,7.61-40.43l10.37-18.6c.43,10.65-.4,21.68-2.9,32.07-.87,3.61-9.98,28.78-11.1,29.92Z"/>
      <path class="cls-4" d="M138.11,82.22c-.69,18.45-5.07,39.92-11.93,57.07-1.04,2.61-10.59,24.88-14.06,20.92-2.68-34.32,12.42-63.47,23.99-93.99,3.39,3.19,2.18,11.15,2,16Z"/>
      <path class="cls-5" d="M136.11,66.22c.51-1.35-.66-4.91.07-6,.21-.32,7.42-.15,7.73.08,1.06.78,2.83,12.31,4.23,14.9-8.5,4.76.53-11.4-8.02-8.96l-2.01,15.99c.18-4.85,1.39-12.81-2-16Z"/>
      <path class="cls-15" d="M162.11,150.22c-5.67-2.18-6.37-20.54-5.59-26.42s4.98-24.33,11.6-20.57c-.14,4.33.17,8.69-.01,12.99-.05,1.33.07,2.67,0,4-.17,3.07-4.41,7.71.98,6.01,1.39-.44,2.23-4.36,3.02-6.01.69-1.43,1.23-4.03,2-6l9.98,2.98c-4.12,6.71-10.2,37.55-21.98,33.02Z"/>
      <path class="cls-9" d="M186.11,46.22c.96-1.22,3.4-1.69,4.59-4.53,1.46-3.5-1.85-10.29,2.44-11.46,5.52-1.51,8.4,4.91,8.88,9.09-.5,3.8-8.78,40.93-10.9,40.86-10.41-9.33-5.03-21.91-5-33.96Z"/>
      <path class="cls-8" d="M174.11,114.22c-.77,1.97-1.31,4.57-2,6h-4c.07-1.33-.05-2.67,0-4l14.03-39.99c3.61-.48,1.81,4.35,1.48,6.47-1.57,9.94-5.8,22.08-9.5,31.51Z"/>
      <path class="cls-7" d="M212.08,144.21c-7.75,5.39.93-30.61,1.73-33.3,1.74-5.9,5.16-11.39,6.51-17.49l9.77-15.2c-1.31,22.96-7.6,45.73-18.01,65.99Z"/>
      <path class="cls-11" d="M172.11,120.22c-.8,1.65-1.63,5.57-3.02,6.01-5.39,1.7-1.14-2.94-.98-6.01h4Z"/>
    </g>
  </g>
</svg>