<?xml version="1.0" encoding="UTF-8"?>
<svg id="Calque_2" data-name="Calque 2" xmlns="http://www.w3.org/2000/svg" viewBox="0 0 128.36 178.08">
  <defs>
    <style>
      .cls-1 {
        fill: #71add1;
      }

      .cls-2 {
        fill: #0f6db1;
      }

      .cls-3 {
        fill: #6eb5da;
      }

      .cls-4 {
        fill: #4e9bcc;
      }
    </style>
  </defs>
  <g id="Calque_1-2" data-name="Calque 1">
    <g>
      <path class="cls-2" d="M18.71,173.89c-.57.27-2.9,7.41-10.61,2.42-6.38-4.12-3.44-40.97-3.84-50.14-1.38-31.34-2.32-58.68-1.94-89.93.07-5.64-2.85-14.45-2.22-17.7.28-1.44,4.04-1.25,4.21-2.47.93-6.62-8.72-9.27,1.34-14.35,7.48-3.78,28.22-.5,36.92,2.02,42.97,12.45,82.88,32.13,85.68,82.43,2.87,51.57-46.1,79.78-91.31,86.83-5.62.88-13.95-1.09-18.22.89ZM24.17,9.26l-5.98-.02c-1.43,15.04,4.55,13.15,5.98.02ZM87.91,55.6l-7.72-4.35c.01,3.35-1.28,17.93,2.98,17.96,6.26.04,3.66-8.31,4.74-13.61ZM112.12,109.23c1.08-.96,7.51-25.71,1.04-27.97l-.98,14.99-3.99-1.01c4.99,11.19-1.38,9.23-2.03,11.03-1.54,4.29,5.35,3.51,5.96,2.96Z"/>
      <path class="cls-4" d="M112.12,109.23c-.61.55-7.5,1.33-5.96-2.96.65-1.8,7.02.15,2.03-11.03l3.99,1.01.98-14.99c6.47,2.27.04,27.01-1.04,27.97Z"/>
      <path class="cls-1" d="M87.91,55.6c-1.08,5.29,1.52,13.64-4.74,13.61-4.26-.02-2.96-14.61-2.98-17.96l7.72,4.35Z"/>
      <path class="cls-3" d="M24.17,9.26c-1.43,13.12-7.41,15.01-5.98-.02l5.98.02Z"/>
    </g>
  </g>
</svg>