<?xml version="1.0" encoding="UTF-8"?>
<svg id="Calque_2" data-name="Calque 2" xmlns="http://www.w3.org/2000/svg" viewBox="0 0 187.38 180.54">
  <defs>
    <style>
      .cls-1 {
        fill: #f4c99e;
      }

      .cls-2 {
        fill: #efd2b2;
      }

      .cls-3 {
        fill: #f3cea4;
      }

      .cls-4 {
        fill: #eb923b;
      }

      .cls-5 {
        fill: #e4984b;
      }

      .cls-6 {
        fill: #e7b37d;
      }

      .cls-7 {
        fill: #e89340;
      }
    </style>
  </defs>
  <g id="Calque_1-2" data-name="Calque 1">
    <g>
      <path class="cls-7" d="M91.31,150.56c-1.28,4.66-9.55,27.59-11.97,29.1-3.84,2.39-13.38-.4-15.71-4.42-2.87-4.95-6.9-30.52-8.07-37.93-3.97-25.07-4.36-53.21-8.4-77.6-.85-5.14-8.36-39.67-9.88-41.14-2.64-2.57-3.5.4-4.45,2.52-4.97,11.14-14.53,58.84-18.51,63.48-1.31,1.52-8.58,3.59-10.5,3.57-8.36-.1-.55-7.28.53-11.54,4.08-16.15,5.6-30.28,11.4-46.6,4.69-13.2,14.44-45.34,30.47-21.34,10.75,16.09,17.18,59.23,20.51,79.49,2.96,17.95,4.62,36.34,6.6,54.42,3.45-.56,3.52-3.95,4.54-6.44,8.82-21.54,10.69-48.54,15.44-71.56l11.16-21.88c-7.11-11.75,4.16-23.81,5.02-36.94,1.82-7.88,14.57,3.67,15.25,5.33,2.38,5.79.18,22.69.73,30.16,1.46,19.73,2.59,17.59-.07,38.59-.19,1.46-.3,22.5-.07,23.66,1.28,6.32,7.19-1.49,7.95-.91l3.95,13.14c-6.63,1.64-1.94,2.78-1.92,6.85-8.36-1.2-11.27-2.45-10,8-2.15,1.1-4.06,4.61-8,4l-4.99-75.99c-6.09,13.29-3.82,30.99-9.17,44.43-.82,2.07-6.39,3.45-5.98,8.52.06.71,6.4-.41,1.96,11.5-4.07,10.91-4.75,16.32-7.82,27.54Z"/>
      <path class="cls-6" d="M93.31,64.56c4.23-20.5,8.81-41.04,12.29-61.69,8.88-4.46,19.63-1.9,21.6,8.8,3.95,21.5,3.17,46.02,8.15,67.91.54,2.39.6,6.31,3.94,2.98,6.25-6.23,6.17-53.6,8.06-65.02.58-3.52,1.53-3.43,3.97-4.97h2c-6.29,17.81-4.78,36.9-4.96,55.11-.02,1.78-2.99,3.47-2.99,3.89,0,1.25,4.39,4.06,5.92,2.99.44-.31,2.73-11.1,7.1-4.05,3.15,5.09.44,17.29,1.12,17.87s3.91-.1,5.81,2.2l-7.98,4-.03-21.99c-6.23-1.47-5.12,6.41-5.99,9.99-3.41,14.13-7.6,26.21-12,40-1.3-.12-2.73.18-4,0,.03,7.28-6.08,5.99-10,8-1.27-10.45,1.64-9.2,10-8-.02-4.08-4.71-5.21,1.92-6.85l-3.95-13.14c-.75-.58-6.67,7.23-7.95.91-.23-1.16-.12-22.2.07-23.66,2.66-21,1.53-18.86.07-38.59-.55-7.47,1.65-24.36-.73-30.16-.68-1.66-13.43-13.22-15.25-5.33-.87,13.13-12.13,25.19-5.02,36.94l-11.16,21.88Z"/>
      <path class="cls-1" d="M151.31,12.56c3.76-2.37,18.4-3.75,20.1-.72l15.97,143.7-.08,3.01-19.1-3.88-12.88-75.11-4.01,3c.86-3.58-.24-11.46,5.99-9.99l.03,21.99,7.98-4c3.72,4.47,3.7,20.98,13.98,24,2.19-10.25-5.57-22.01-5.81-31.18-.46-17.46-.89-34.75-1.97-51.82-.41-6.44-2.4-12.51-2.21-18.98l-15.98-.02h-2Z"/>
      <path class="cls-2" d="M139.31,122.56c-4.15,12.99-4.29,14.01-4.97,26.12-.69,12.18-10.48,18.09-17.03,7.88l11.06.11c2.04-4.55,1.83-12.69-3.05-15.12-11.81-5.88-7.41,6.6-8.01,15-4.18-6.52-1.12-14.66-2-22h2c3.94.61,5.85-2.9,8-4,3.92-2.01,10.03-.72,10-8,1.27.18,2.7-.12,4,0Z"/>
      <path class="cls-3" d="M117.31,134.56h-2c-.96-8.05-3.16-16.86-3.98-25.02-.16-1.59,1.73-22.49-3.99-16.97-2.17,2.09-7.96,51.53-16.03,57.99,3.07-11.23,3.75-16.63,7.82-27.54,4.44-11.9-1.9-10.79-1.96-11.5-.41-5.07,5.16-6.45,5.98-8.52,5.35-13.44,3.08-31.13,9.17-44.43l4.99,75.99Z"/>
      <path class="cls-4" d="M153.31,12.56l15.98.02c-.19,6.47,1.81,12.54,2.21,18.98,1.08,17.07,1.51,34.36,1.97,51.82.24,9.18,8,20.93,5.81,31.18-10.28-3.02-10.26-19.53-13.98-24-1.9-2.29-5.1-1.6-5.81-2.2s2.03-12.78-1.12-17.87c-4.37-7.05-6.67,3.74-7.1,4.05-1.52,1.07-5.92-1.74-5.92-2.99,0-.43,2.97-2.11,2.99-3.89.18-18.21-1.32-37.3,4.96-55.11Z"/>
      <path class="cls-5" d="M117.31,156.56c.6-8.41-3.81-20.89,8.01-15,4.88,2.43,5.09,10.57,3.05,15.12l-11.06-.11Z"/>
    </g>
  </g>
</svg>