<?xml version="1.0" encoding="UTF-8"?>
<svg id="Calque_2" data-name="Calque 2" xmlns="http://www.w3.org/2000/svg" viewBox="0 0 368.59 127.99">
  <defs>
    <style>
      .cls-1 {
        fill: #52aed9;
      }

      .cls-2 {
        fill: #51afd8;
      }

      .cls-3 {
        fill: #4eafda;
      }

      .cls-4 {
        fill: #4bb0dc;
      }

      .cls-5 {
        fill: #83c6dd;
      }

      .cls-6 {
        fill: #90cee2;
      }
    </style>
  </defs>
  <g id="Calque_1-2" data-name="Calque 1">
    <g>
      <path class="cls-4" d="M239.92,88.22c-8.31,14.28-15.6,38.7-36.08,31.07l-50.92-97.03c-12.85,26.44-28.74,51.01-43.75,76.21-5.94,9.98-6.99,23.59-24.23,15.71L38.91,26.23c-7.73,17.76-16.01,40.98-27.32,56.66-1.39,1.93-6.81,9.36-9.65,7.32-.36-3.01-2.12-5.65-1.93-8.82C.64,71.32,23.58,25.56,30.23,15.53c10.34-15.61,18.02-1.69,24.58,8.81s34.88,69.66,40.12,71.88c8.33-18.22,20.7-34.17,30.65-51.33C130.46,36.46,144.24,1.57,152.92.1c8.32-1.41,14.92,12.71,18.52,19.61,9.41,18.03,17.55,37.34,27.06,55.02,4.31,8.02,7.24,17.35,11.46,25.48l51.32-85.77c2.62-.81,12.47,1.28,14.78,3.18,2.83,2.33,16.68,28.34,19.59,33.9,4.44,8.49,22.39,52.43,27.3,54.71,2.89,1.34,5.99-6.48,7.3-8.66,5.76-9.58,15.12-35.09,20.77-41.22,4.56-4.95,6.09-3.95,10.91-2.11l3.98,11.94c-9.19.6-5.86,7.12-7.35,10.04-4.62,9.09-10.77,12.29-12.95,20.12-.79,2.85-3.13,5.59-1.68,9.89-8.68,14.5-7.26,26.12-29.1,20.18l-45.18-86.91-2.73-3.23c-2.89,1.49-2.21,4.04-3,5.96-10.52-7.57-2.72,10.93-11.98,10.03l3.98,5.97c-.67.66-1.32,1.37-2,2-1.36,1.25-6.98,1.33-9.07,6.12-1.28,2.93.54,5.87.16,6.89-1.68,4.51-7.63,7.36-5.08,14.99Z"/>
      <path class="cls-2" d="M314.37,39.8c-2.15-3.78.2-17.3,3.58-20.54,11.95-11.49,27.19,7.25,18.11,20.11-4.35,6.17-18.53,5.98-21.69.43Z"/>
      <path class="cls-3" d="M93.4,14.54c17.21-3.14,20.08,25.12,5.42,27.69-17.56,3.08-19.9-25.05-5.42-27.69Z"/>
      <path class="cls-1" d="M204.39,12.7c8.36-8.43,23.9-.3,19.1,16.11-5.6,19.13-33.34-1.74-19.1-16.11Z"/>
      <path class="cls-5" d="M343.92,106.22c-1.46-4.3.88-7.05,1.68-9.89,2.18-7.83,8.33-11.03,12.95-20.12,1.49-2.93-1.84-9.44,7.35-10.04l-3.98-11.94c7.71,2.95,7.5,5.94,5.45,14.46s-17.97,28.38-23.45,37.54Z"/>
      <path class="cls-6" d="M253.92,60.22c-.99,10.54-8.87,19.19-14,28-2.55-7.63,3.41-10.48,5.08-14.99.38-1.02-1.44-3.96-.16-6.89,2.09-4.79,7.71-4.87,9.07-6.12Z"/>
      <path class="cls-6" d="M263.92,42.22c-2.35,5.74-3.16,11.22-8,16l-3.98-5.97c9.26.9,1.46-17.6,11.98-10.03Z"/>
    </g>
  </g>
</svg>