<?xml version="1.0" encoding="UTF-8"?>
<svg id="Calque_2" data-name="Calque 2" xmlns="http://www.w3.org/2000/svg" viewBox="0 0 123.76 129.9">
  <defs>
    <style>
      .cls-1 {
        fill: #8cc9a5;
      }

      .cls-2 {
        fill: #2fa05c;
      }
    </style>
  </defs>
  <g id="Calque_1-2" data-name="Calque 1">
    <g>
      <path class="cls-2" d="M8.02,103.9c4.77-6.14,35.28-36.74,35.64-39.38-1.7-9.61-37.21-48.33-31.63-54.61l11.98,5.98C22.22,9.15,19.91,4.13,27.27.01c5.16-.86,30.6,35.86,34.59,42.63,3.92,4.65,4.82-2.72,8.06-5.81,11.31-10.83,20.56-19.73,32.89-29.18,3.2-2.45,2.4-6.17,5.17-5.75,1.29,9.75,5.99,3.7,11.06,3.93,8.59.39,2.17,12.82,4.72,18.73l-41.53,40.62c7.77,15.43,21.33,29.46,28.51,44.98,5.5,11.9-.56,6.11-.89,8.91-.35,2.99,5.36,10.74-2.72,10.82-.95,0-17.37-5.33-18.15-5.88-7.55-5.36-21.93-29.17-26.99-38.12-2.13-1.47-31.41,34.39-36.1,36.92-7.04,3.8-8.29-2.98-8.84-2.93-4.63.42-4.29,9.54-13.02,5.01s-1.63-10.48,1.99-14.99c1.56-1.94,5.96-1.4,2-6Z"/>
      <path class="cls-1" d="M6.02,109.9c-.69-3.15.38-3.92,2-6,3.96,4.6-.44,4.06-2,6Z"/>
    </g>
  </g>
</svg>