<?xml version="1.0" encoding="UTF-8"?>
<svg id="Calque_2" data-name="Calque 2" xmlns="http://www.w3.org/2000/svg" viewBox="0 0 226.44 200.47">
  <defs>
    <style>
      .cls-1 {
        fill: #f4d09c;
      }

      .cls-2 {
        fill: #fae5c0;
      }

      .cls-3 {
        fill: #f4cc94;
      }

      .cls-4 {
        fill: #fcf1d7;
      }

      .cls-5 {
        fill: #ea994c;
      }

      .cls-6 {
        fill: #fcf5dd;
      }

      .cls-7 {
        fill: #fdf1d7;
      }

      .cls-8 {
        fill: #e6aa6a;
      }

      .cls-9 {
        fill: #ed8e37;
      }

      .cls-10 {
        fill: #f9deb1;
      }

      .cls-11 {
        fill: #e9a663;
      }

      .cls-12 {
        fill: #e59c55;
      }
    </style>
  </defs>
  <g id="Calque_1-2" data-name="Calque 1">
    <g>
      <path class="cls-9" d="M145.15,195.51l-63.99,1.99,5.99-4c4.1-4.53-23.49-16.08-28.01-15.99-14.37-9.04-17.34-10.14-28-24l-2-5.98c4.56-1.07,6.81,2.35,10,3.98,2.83,1.45,6.47,6.9,8,2,.75-2.41-1.4-8.54,3.2-9.92.83-.25,14.78,3.85,16.15,4.6.87.48,12.64,12.05,8.68,14.35-9.74,5.38-11.95-7.03-20-4.05,2.63,8.49,17.73,19.45,26.57,16.64,3.05-.97,4.38-5.23,8.43-5.64,4.82-.49,17.11,2.3,24.98,2.03,19.61-.66,30.25-6.44,42-22l15.02-16c11.77,3.19-3.89,12.04-1.01,19.99,6.85.45,7.81-6.39,9.99-9.99,15.09-24.92,19.82-46.71,9.55-74.55-3.01-8.17-11.36-26.2-21.53-24.47,5.64,10.23,9.99,21.48,11.99,33.01,1.58,9.13,2.35,19.68,1.97,28.99l-4.94,18.99c-6.91-4.93-2.33-10.72-2.86-16.96-1.06-12.56-1.46-24.9-6.17-35.03-7.81-16.79-14.43-41.22-34-46-6.63-5.99-18.71-4.04-26.47-1.47-11.18,3.71-26.27,16.95-36.55,23.51-2.75,1.75-6.74,1.71-6.99,1.98-1.32,1.43,5.88,8.34,1.99,11.97s-3.75-7.29-7.95-3.97c-.98.78-11.36,19.59-12.04,21.98-2.77,1.55-4.38,4.64-7.99,3.99l-2.98-9.97c-5.65,3.28-3.72,10.47-5.03,13.98-.09.25-2.85,1.19-3.47,3.46-4.93,18.02-.79,32.66,1.46,50.53l-7.99-5.99c-.67-1.37-1.37-2.5-2-4l-2.02-25.99-11.01,29.97c-4.87.95-2.82-3.88-2.96-6.96-.51-10.99-.06-20.92,5.19-30.82,2.4-4.53,11.51-12.49,12.41-15.59,1.27-4.4-.41-9.19.41-13.24.33-1.62,3.59-1.34,4.56-3.82,2.41-6.15,4.65-18.4,8.63-23.34.93-1.15,11.42-9.83,12.19-10.02,4.33-1.11,6.58,4.6,11.09,3.55,7.48-1.74,24.77-20.94,35.49-21.76.15-3.81-8.67-2.07-10.5-1.49-3.88,1.24-23.61,15.41-25.48,13.5l7.99-13.99C95.68-5.34,105.23.03,138.4,3.27c22.46,2.2,37.98-.7,57.75,14.25,34.99,26.46,34.52,67.21,24.06,106.06-11.21,41.61-33.4,62.37-75.06,71.94ZM213.13,63.51c-3.39-23.19-23.28-46.72-47.98-47.98,6.37,10.17,18.32,14.19,27.05,21.93,9.48,8.41,12.81,17.3,20.94,26.04ZM175.16,169.49c21.1-7.16,31.29-33.41,33.98-53.97l-13.15,23.82-20.83,30.15Z"/>
      <path class="cls-12" d="M65.15,13.51l-7.99,13.99c1.87,1.91,21.6-12.26,25.48-13.5,1.83-.58,10.65-2.33,10.5,1.49-10.72.82-28.01,20.01-35.49,21.76-4.51,1.05-6.77-4.65-11.09-3.55-.76.2-11.26,8.88-12.19,10.02-3.98,4.94-6.22,17.19-8.63,23.34-.97,2.48-4.23,2.2-4.56,3.82-.83,4.05.86,8.84-.41,13.24-.9,3.1-10.01,11.06-12.41,15.59-5.25,9.91-5.71,19.83-5.19,30.82.14,3.08-1.9,7.9,2.96,6.96l11.01-29.97,2.02,25.99c-1.8-4.33-1.83-10.16-5.98-12-7.14,35.62,23.36,61.27,55.98,63.98-1.82-3.3-6.73-5.92-10-7.98,4.52-.09,32.11,11.46,28.01,15.99l-5.99,4,63.99-1.99c-43.75,10.06-105.62,7.35-134.84-32.16C-3.32,144.91-1.91,117.88,5.72,97.08c4.34-11.83,10.74-26.44,15.59-38.23,7.96-19.37,26.84-34.84,43.84-45.34Z"/>
      <path class="cls-5" d="M31.15,89.51c1.31-3.51-.62-10.7,5.03-13.98l2.98,9.97c3.61.65,5.22-2.44,7.99-3.99-.29,1.03.15,2.71,0,4-2.61.97-1.91,3.81-2,6-.75,17.9-2.07,39.47,13.01,51.99,1.94-.46.91-4.18.99-5.99.13-2.89-1.69-6.92,2.97-5.98,4.27,7.58,7.34,13.22,13.03,19.98,4.68,5.56,9.72,11.4,16.63,14.37,7.99,3.44,15.93,2.29,23.37,5.63-7.87.27-20.16-2.52-24.98-2.03-4.06.41-5.38,4.67-8.43,5.64-8.84,2.81-23.94-8.14-26.57-16.64,8.05-2.98,10.26,9.42,20,4.05,3.97-2.3-7.81-13.87-8.68-14.35-1.37-.75-15.32-4.85-16.15-4.6-4.6,1.39-2.45,7.51-3.2,9.92l-17.01-25.99c-2.5,8.61,7.36,16.02,9.01,23.99-3.19-1.63-5.44-5.05-10-3.98l2,5.98c-5.49-7.14-6.02-7.87-10-16l7.99,5.99c-2.25-17.87-6.39-32.51-1.46-50.53.62-2.26,3.37-3.2,3.47-3.46-2.22,9.09-7.16,18.79,1.98,25.99-2.77-8.2,6.44-21.23-1.98-25.99Z"/>
      <path class="cls-8" d="M135.15,27.51c-20.72-5.07-46.39,9.59-59.84,25.16-7.42,8.59-14.72,42.13-14.18,53.75.73,15.9,8.16,30.76,14.03,45.09-5.69-6.76-8.76-12.41-13.03-19.98-4.66-.94-2.84,3.09-2.97,5.98-10.86-18.35-7.55-39.83-6.02-59.99-3.13-.69-1.06,2.46-3.33,3.94-.77.5-2.11-.26-2.65.05.68-2.39,11.06-21.21,12.04-21.98,4.2-3.32,3.94,7.71,7.95,3.97s-3.31-10.54-1.99-11.97c.25-.27,4.24-.23,6.99-1.98,10.28-6.55,25.37-19.79,36.55-23.51,7.75-2.57,19.84-4.52,26.47,1.47Z"/>
      <path class="cls-6" d="M181.15,143.51c-3.63,2.19-5.08,3.86-3.26-2.25,6.09-20.43,13-43.17,3.26-63.75-2-11.54-6.35-22.78-11.99-33.01,10.18-1.74,18.52,16.3,21.53,24.47,10.27,27.84,5.55,49.62-9.55,74.55Z"/>
      <path class="cls-7" d="M19.15,133.51c.63,1.5,1.33,2.63,2,4,3.98,8.13,4.51,8.86,10,16,10.66,13.86,13.63,14.96,28,24,3.27,2.06,8.18,4.68,10,7.98-32.62-2.71-63.12-28.36-55.98-63.98,4.15,1.84,4.18,7.67,5.98,12Z"/>
      <path class="cls-11" d="M169.15,73.51c4.71,10.12,5.11,22.47,6.17,35.03.53,6.23-4.05,12.02,2.86,16.96l4.94-18.99c.38-9.31-.39-19.86-1.97-28.99,9.75,20.58,2.83,43.32-3.26,63.75-1.82,6.11-.37,4.44,3.26,2.25-2.18,3.6-3.14,10.44-9.99,9.99-2.88-7.95,12.78-16.8,1.01-19.99l-15.02,16c1.8-2.38,10.04-15.85,10.87-18.13,5.89-16.36,3.01-40.78,1.13-57.87Z"/>
      <path class="cls-2" d="M213.13,63.51c-8.12-8.75-11.45-17.64-20.94-26.04-8.73-7.74-20.68-11.76-27.05-21.93,24.7,1.26,44.59,24.79,47.98,47.98Z"/>
      <path class="cls-10" d="M175.16,169.49l20.83-30.15,13.15-23.82c-2.69,20.56-12.88,46.81-33.98,53.97Z"/>
      <path class="cls-1" d="M47.15,153.51c-1.53,4.9-5.17-.55-8-2-1.65-7.97-11.51-15.38-9.01-23.99l17.01,25.99Z"/>
      <path class="cls-4" d="M59.15,137.51c-.08,1.81.95,5.53-.99,5.99-15.08-12.52-13.76-34.09-13.01-51.99,2.74-1,1.75-3.87,2-6,.15-1.29-.29-2.97,0-4,.55-.31,1.88.45,2.65-.05,2.27-1.48.19-4.64,3.33-3.94-1.52,20.16-4.84,41.64,6.02,59.99Z"/>
      <path class="cls-3" d="M31.15,89.51c8.42,4.76-.79,17.79,1.98,25.99-9.14-7.2-4.19-16.9-1.98-25.99Z"/>
      <path class="cls-8" d="M45.15,91.51c.09-2.19-.61-5.03,2-6-.25,2.13.74,5-2,6Z"/>
    </g>
  </g>
</svg>