<?xml version="1.0" encoding="UTF-8"?>
<svg id="Calque_2" data-name="Calque 2" xmlns="http://www.w3.org/2000/svg" viewBox="0 0 164.31 302.76">
  <defs>
    <style>
      .cls-1 {
        fill: #f5d644;
      }

      .cls-2 {
        fill: #fdfdf1;
      }

      .cls-3 {
        fill: #fcf9e3;
      }
    </style>
  </defs>
  <g id="Calque_1-2" data-name="Calque 1">
    <g>
      <path class="cls-1" d="M31.46,127.66c.77-3.08-.5-3.19-2.12-4.83-9.23-9.39-23.11-12.98-27.39-28.61-5.23-19.11.2-39,14.46-52.57,14.75-14.03,20.1-14.5,37.57-20.43,7.99-2.71,20.54-11.97,32.68-15.32,11.3-3.11,64.72-12.06,68.62.99,3.66,12.22-23.26,4.79-28.37,5.24-19.54,1.72-67.98,20.27-84.85,31.18-26.37,17.07-39.5,51.21-6.01,68.79,13.84,7.27,11.18,2.66,20.7-2.1,21.94-10.98,59.79-21.74,83.19-11.79,8.71,3.7,21.41,14.73,13.47,24.46-9.84,12.04-51.53,19.42-67.03,19.15-26.68-.47-33.57-17.24-55.95,7.86-8.48,9.5-20.71,26.5-13.12,39.16,2.17,3.62,14.74,11.09,19.19,11.03,1.72-.02,25.08-13.19,30.62-15.51,24.69-10.32,53.35-18.53,79.75-9.08,24.35,8.71,22.2,31.26-.34,40.49-16.77,6.87-63.43,10.46-81.56,7.41-14.71-2.47-21.95-12.52-35.36,3.66-6.58,7.93-7.87,17.81-3.62,27.32,3.9,8.73,30.09,22.9,39.56,26.44,10.84,4.06,31.03,4.74,37.89,8.1,4.13,2.02,6,9.43,2.11,12.09-12.48,8.53-65.37-12.86-77.14-23.06-25.89-22.45-26.66-41.11-7.09-68.85C-13.61,188.19,1.31,143.93,31.46,127.66ZM69.48,121.72c.35,3.14,2.97,3.06,5.19,3.78,16.12,5.21,43.99,1.81,58.21-7.4,16.59-10.75-20.75-11.27-28.22-10.23-11.28,1.57-23.81,11.26-35.17,13.85ZM61.48,207.67c3.91,5.49,51.79.2,60.78-2.19,4.33-1.15,26.4-9.71,25.2-14.76-2.12-8.92-45.96-4.07-54.4-2.43-12.07,2.34-27.83,6.12-31.59,19.38Z"/>
      <path class="cls-3" d="M61.48,207.67c3.76-13.26,19.51-17.04,31.59-19.38,8.44-1.64,52.28-6.49,54.4,2.43,1.2,5.05-20.87,13.61-25.2,14.76-8.99,2.39-56.87,7.69-60.78,2.19Z"/>
      <path class="cls-2" d="M69.48,121.72c11.36-2.59,23.89-12.28,35.17-13.85,7.47-1.04,44.82-.52,28.22,10.23-14.22,9.21-42.08,12.61-58.21,7.4-2.22-.72-4.84-.64-5.19-3.78Z"/>
    </g>
  </g>
</svg>