<?xml version="1.0" encoding="UTF-8"?>
<svg id="Calque_2" data-name="Calque 2" xmlns="http://www.w3.org/2000/svg" viewBox="0 0 192.62 170.92">
  <defs>
    <style>
      .cls-1 {
        fill: #e64723;
      }

      .cls-2 {
        fill: #dc765d;
      }

      .cls-3 {
        fill: #e08b73;
      }

      .cls-4 {
        fill: #df6d51;
      }
    </style>
  </defs>
  <g id="Calque_1-2" data-name="Calque 1">
    <g>
      <path class="cls-1" d="M170.48,3.7c.69.52,1.39,1.35,2,2,.93,8.24,7.74,17.49,12,24,3.29,22.29,10.17,66.41-7.89,84.59-2.13,2.14-5.91,1.48-7.98,4.51-2.31,3.37-1.55,8.84-3.28,12.75-6.19,14.03-24.26,16.23-32.85,28.15-40.41,18.75-90.22,14.36-125.03-15.97-15.39-13.41-3.55-16.83,5.16-24.96,6.79-6.33,6.66-6.88,15.39-12.45,2.2-1.41,2.81-4.39,4.92-5.23,12.05-4.8,14.8,4.42,24.21,8.97,5.45,2.63,11.65,3.65,17.35,5.65,3.39,1.19,6.91,1.45,8.51,2.1,2.02.83,1.41,4,2.51,3.98,3.41-.07,6.24-5.59,10.96-4.08.08,9.4,2.75,7.27,10.02,5.98l-5.99-4.97c.72-1.3,6.09-4.11,7.99-5.01,1.34-.64,2.7-1.3,4-2,14.97-8.02,11.48-8.23,20.07-22.53.82-1.36,3.81-1.39,4.02-2.8.58-3.79-2.36-7.45-2.21-9.57.1-1.37,4.51-.83,4.14-2.06-3.54-11.62-2.42-22.86-6.16-33.52-.56-1.59-4.06-.96-4.04-4.43.06-12.01,12.26-10.79,14.19-21.09,2.29-1.43,2.27-3.21,8-6,5.08-2.47,14.49-5.69,20-6ZM164.51,33.7c6.37-1.43,5.74-21.4-.99-19.99l-7.05,11.96c6.09-.48,8.47,1.82,8.04,8.03Z"/>
      <path class="cls-2" d="M142.48,15.7c-1.92,10.31-14.12,9.08-14.19,21.09-.02,3.47,3.48,2.84,4.04,4.43,3.74,10.66,2.62,21.9,6.16,33.52.37,1.23-4.04.69-4.14,2.06-.15,2.12,2.79,5.78,2.21,9.57-.22,1.41-3.2,1.44-4.02,2.8-8.59,14.3-5.11,14.5-20.07,22.53,15.71-18.53,22.94-31.17,19.77-56.77-1.17-9.48-9.61-18.25-7.43-25.78,1.41-4.85,12.94-10.49,17.65-13.44Z"/>
      <path class="cls-3" d="M132.48,159.7c8.59-11.92,26.66-14.12,32.85-28.15,1.73-3.92.96-9.38,3.28-12.75,2.08-3.03,5.85-2.37,7.98-4.51,18.05-18.18,11.18-62.3,7.89-84.59-.19-1.27.13-2.7,0-4,21.93,51.31-2.18,110.88-52,134Z"/>
      <path class="cls-2" d="M108.48,113.7c-1.9.9-7.27,3.71-7.99,5.01l5.99,4.97c-7.27,1.29-9.94,3.41-10.02-5.98-4.72-1.5-7.55,4.01-10.96,4.08-1.1.02-.49-3.15-2.51-3.98-1.61-.66-5.12-.92-8.51-2.1l34-2Z"/>
      <path class="cls-4" d="M184.48,25.7c.13,1.3-.19,2.73,0,4-4.26-6.51-11.07-15.76-12-24,6.12,6.5,8.64,12.15,12,20Z"/>
      <path class="cls-4" d="M170.48,3.7c-5.51.31-14.92,3.53-20,6L163.85.09c3.3-.61,4.64,2.1,6.63,3.61Z"/>
      <path class="cls-4" d="M164.51,33.7c.43-6.21-1.95-8.51-8.04-8.03l7.05-11.96c6.73-1.41,7.36,18.56.99,19.99Z"/>
    </g>
  </g>
</svg>