<?xml version="1.0" encoding="UTF-8"?>
<svg id="Calque_2" data-name="Calque 2" xmlns="http://www.w3.org/2000/svg" viewBox="0 0 458.88 96.56">
  <defs>
    <style>
      .cls-1 {
        fill: #fbf1eb;
      }

      .cls-2 {
        fill: #faf1e9;
      }

      .cls-3 {
        fill: #dd5232;
      }

      .cls-4 {
        fill: #fcf1ea;
      }

      .cls-5 {
        fill: #faece4;
      }

      .cls-6 {
        fill: #fae5dd;
      }

      .cls-7 {
        fill: #db856c;
      }
    </style>
  </defs>
  <g id="Calque_1-2" data-name="Calque 1">
    <g>
      <path class="cls-3" d="M363.6,54.71c2.18-3.39,4.28-7.01,6.92-10.09,4.88-5.69,16.22-6.77,3.76-15.59-12.68-8.98-38.29-6.72-51.41-.05-11.47,5.83-4.78,3.99-3.78,9.27,2.6,13.66,2.94,31.54-5.79,43.16-21.07,28.04-52.67-5.98-31.37-39.37,6.84-10.73,30.18-21.4.45-25.09-16.43-2.04-29.9,1.18-44.61,7.97-.15,8.48,5.54,14.03,5.99,22.74.77,14.69-10.66,44.73-28.95,43.04-21.8-2.01-23.18-28.01-16.22-44.01,2.13-4.9,17.85-21.82,15.01-25.96-9.8-5.19-47.62-.83-53.14,7.97-.67,1.07,3.67,18.7,3.23,25.1-1.7,24.72-27.57,51.41-41.06,18.9-9.51-22.91,20.07-45.87,18.93-50.83-1.7-7.39-22.71-9.47-29.04-9.25-9.32.33-36.34,7.23-40.02,16.08-.9,2.16,11.46,17.7,11.24,26.93-.3,12.67-11.56,34.14-26.58,30.56-12.69-3.03-18.02-11.16-17.4-24.34.37-7.96,9.14-19.83,9.58-24.48.81-8.72-22.48-.55-27.05,3.01L2.63,56.69c-11.11-14.63,15.76-31.36,28.45-33.5,9.02-1.52,21.6,1.35,29.12-.88,2.8-.83,13.06-11.58,19.33-14.67C93.45.78,112.59-2.04,127.73,1.59c7.96,1.91,24.92,14.39,26.86,14.41,3.25.03,9.73-5.75,14.11-7.2,7.79-2.57,28.91-4.89,36.94-3.1,6.6,1.47,16.5,8.86,20.97,8.86s14.45-7.52,20.88-8.98c13.73-3.12,33.79-2.32,46.58,3.67,4.4,2.06,13.59,10.98,14.5,11.01,1.12.03,16.1-7.82,20.62-8.97,17.71-4.54,36.93-1.64,52.3,8.56,4.23,2.81,8.35,10.47,13.21,10.94,4.49.44,7.81-3.51,12.02-3.97,5.35-.58,61.32-1.36,50.87,13.86-2.47,3.59-46.13-2.92-54.11.93-2.6,13.82,2.3,20.02-3.87,35.1l-15.03,15.98c-5.32,1.31-1.98-4.78-2.98-5.99-4.38-5.27-3.77,5.69-4.04,5.98-2.77,2.96-14.5-4.63-16.75-8.16-5.23-8.2.72-21.06,2.79-29.82ZM227.59,36.71c-4.33-4.2-11.85,10.39-13.43,13.58-3.85,7.78-12.35,33.06,3.4,25.39,10.38-5.06,10.97-29,10.03-38.97ZM61.63,38.72c-1.86,1.35-16.94,35.98-3.06,36.1,16.32-1.09,12.45-42.9,3.06-36.1ZM149.59,40.72c-10.39-.7-22.65,29.96-12.96,31.98,8.74,1.82,16.33-25.58,12.96-31.98ZM307.59,40.72c-5.8-6.44-30.27,34.81-14.71,37.68,12.08,2.23,17.45-29.65,14.71-37.68ZM389.59,50.72c-9.39,2.81-17.62,11.92-19.51,21.47-4.59,23.18,17.03,6.31,19.34-8.66.65-4.21.05-8.59.17-12.81Z"/>
      <path class="cls-7" d="M363.6,54.71c-2.07,8.75-8.02,21.62-2.79,29.82,2.25,3.53,13.97,11.12,16.75,8.16.27-.29-.34-11.25,4.04-5.98,1,1.2-2.34,7.3,2.98,5.99l15.03-15.98c-14.27,34.88-53.44,20.17-41.08-16.13,1.36-3.99,4.16-4.44,5.08-5.87Z"/>
      <path class="cls-5" d="M227.59,36.71c.94,9.97.36,33.91-10.03,38.97-15.75,7.67-7.25-17.61-3.4-25.39,1.58-3.19,9.1-17.77,13.43-13.58Z"/>
      <path class="cls-1" d="M307.59,40.72c2.74,8.03-2.63,39.91-14.71,37.68-15.56-2.87,8.91-44.12,14.71-37.68Z"/>
      <path class="cls-2" d="M61.63,38.72c9.39-6.81,13.27,35-3.06,36.1-13.89-.11,1.19-34.75,3.06-36.1Z"/>
      <path class="cls-4" d="M389.59,50.72c-.13,4.22.48,8.6-.17,12.81-2.32,14.97-23.93,31.84-19.34,8.66,1.89-9.55,10.13-18.66,19.51-21.47Z"/>
      <path class="cls-6" d="M149.59,40.72c3.37,6.41-4.22,33.8-12.96,31.98-9.69-2.02,2.57-32.68,12.96-31.98Z"/>
    </g>
  </g>
</svg>