<?xml version="1.0" encoding="UTF-8"?>
<svg id="Calque_2" data-name="Calque 2" xmlns="http://www.w3.org/2000/svg" viewBox="0 0 181.27 171.48">
  <defs>
    <style>
      .cls-1 {
        fill: #dcf4e3;
      }

      .cls-2 {
        fill: #3aa260;
      }

      .cls-3 {
        fill: #e7f9ee;
      }

      .cls-4 {
        fill: #ace1bf;
      }

      .cls-5 {
        fill: #cbefd9;
      }

      .cls-6 {
        fill: #eef8f0;
      }

      .cls-7 {
        fill: #60b17e;
      }

      .cls-8 {
        fill: #cfeeda;
      }

      .cls-9 {
        fill: #c3e9d1;
      }

      .cls-10 {
        fill: #48a469;
      }

      .cls-11 {
        fill: #f2fbf4;
      }

      .cls-12 {
        fill: #e2f7ea;
      }

      .cls-13 {
        fill: #d3f1de;
      }

      .cls-14 {
        fill: #94c7a6;
      }

      .cls-15 {
        fill: #c1ebd2;
      }

      .cls-16 {
        fill: #bbe4cc;
      }

      .cls-17 {
        fill: #8ad2a7;
      }

      .cls-18 {
        fill: #8fd2a8;
      }

      .cls-19 {
        fill: #d1f0dc;
      }
    </style>
  </defs>
  <g id="Calque_1-2" data-name="Calque 1">
    <g>
      <path class="cls-10" d="M172.04,42.02c2.79,11.49,4.94,23.11,5.61,34.99.3,5.33-3.7,6.07.39,13.01.45.76,1.53,1.29,2,2l-1.94,3.01,1.94.99c-.04.66.09,1.35,0,2-4.18,2.95-2.58,9.12-4.08,12.43-1.36,3.02-10.76,9.92-9.92,17.57-20.89,28.36-49.33,43.08-85.56,43.46-28.71.3-65.26-20.67-73.86-49.05C3.82,113.14-.14,78.98,0,69.09c.25-17.35,4.39-29.35,16.09-42.02C39.16,2.11,62.84,8.88,92.84,3.82c8.47-1.43,9.11-5.17,21.74-3.31,22.99,3.39,46.54,21.38,57.47,41.51ZM104.04,10.02c-.28-.19.2-5.12-3.17-5.86-3.07-.68-27.83,9.66-34.82,5.87-1.96,5.47,3.29,3.4,3.8,4.12,2.83,4-2.92,3.96-4.61,5.98-5.36,6.41-8.99,14.4-19.2,13.89,2.61-1.99,20.6-17.25,17.98-20-26.77,6.21-47.62,20.15-51.86,49.14-.49,5.81,2.29,1.45,3.57-.45,4.41-6.59,6.17-10.78,12.31-16.68l-2,9.98,13.99-7.97c.53,4.11-3.27,7.47-3.46,11.29-.14,2.95,4.68,18.61,3.45,20.7-.11.18-3.01-1.5-4.02-.9-4.59,2.73-2.47,10.49-3.96,14.89-.03-.37-2.12-2.23-2.08-4.83.2-11.79,1.67-22.13,6.08-33.15-8.8,1.72-15.95,23.76-16.18,30.95-.05,1.7,1.23,14.91,1.71,16.45,1.6,5.14,19.78,27.18,15.72,14.33-3.42-10.84-3.99-10.92-5.25-21.76,1.29,9.16,8.33,13.75,8.01,21.99,2.55.51,3.4-.23,5.08-1.9,1.93-1.92,7.2-10.79,8.91-14.09,1.87,1.61,12.76,4.41,16,3.98-2.16-4.56-7.22-6.98-9.76-11.27-2.09-3.53-1.35-6.57-2.24-8.71l4.01-12c4.22-.59,3.25-.22,4.49,2.55,5.5,12.29-.8,5.35,10.38,5.33,1.94,0-1.16,8.08,7.12.13-1.15,3.54,2.92,7.3-6,6.01-.96,2.29,2.15,7.47,2,7.99-.11.37-4.38,1.63-5.59,5.39-2.84,8.81,2.47,13.32,6.51,4.61l15.08,4c-.56.09-2.22,1.76-4.84,2.09-11.44,1.43-25.51-.27-37.15-.08.97,9.43,16.47,15.32,23.99,15.99l-4.99,3.99-13.01-6-.02,6.02-6.96-2.04.97,8.03c-14.56-5.78-28.79-5.33-37.01-21.99-2.53,24.68,32.18,44.2,53.94,46.06,40.66,3.47,77.09-17.64,91.07-56.07,1.72-4.74,3.15-5.56,4-12,.17-1.27-.04-2.69,0-4,4.75-8.83,1.28-20.78-.02-30-5.89,1.9-1.3,7.74-2.07,12.7-.91,5.82-3.81,11.29-3.91,17.3-.43.67-1.36,1.35-2,2-3.75,3.82-4.71,9.17-8,2,.1-1.08-1.53-11.64-2.02-12l-9.98,4c2.15-9.64,2.53-23.01-2-32l3.97,2c2.77-9.17,4.24-12.22-3.97-18,1.33.86,3.57.57,6.1,2.82,8.55,7.61,8.86,16.77,9.93,27.17,3.49.47,1.87-4.54,1.97-6.96.68-16.42.17-34.92-19.46-38.54-10.9-2.01-23.07.18-10.53,9.51h-23.98c-.98-10.21,13.37-5.37,13.97-6.01.27-.29.24-7.41-.17-7.83-.28-.29-4.89-.89-7.82-2.16,5.52-.56,14.99-.36,18-5.98-3.74-.87-18.34,1.1-20-.02Z"/>
      <path class="cls-14" d="M178.04,90.02c-4.09-6.94-.08-7.68-.39-13.01-.68-11.88-2.83-23.5-5.61-34.99,7.94,14.62,12.78,31.79,6,48Z"/>
      <path class="cls-14" d="M166.04,128.02c-.84-7.64,8.56-14.55,9.92-17.57,1.49-3.31-.11-9.48,4.08-12.43-2.13,15.6-5.2,18.05-14,30Z"/>
      <path class="cls-2" d="M104.04,10.02l-4,3.97c2.22-.02,4.06,1.18,6,2.03,2.93,1.28,7.53,1.87,7.82,2.16.41.42.44,7.54.17,7.83-.6.63-14.95-4.2-13.97,6.01h23.98c1.45,1.08,8.45,3.71,12,6,8.21,5.78,6.74,8.82,3.97,18l-3.97-2c-2.13-4.22-11.13-11.57-15.95-13.05-24.05-7.41,5.49,15.7,8.86,21.14,11.75,18.98-2.36,38.07-.9,39.9,2.94,3.7,4.34-2.68,5-3.89,1.62-2.99,4.28-8.93,4.99-12.1l9.98-4c.49.36,2.12,10.92,2.02,12-.32,3.46-7.36,11.06-7.67,13.44-.77,5.96,5.5,14.59-3.4,13.79-4.26-.38-9.81-7.99-10.91,2.78l5.96-4c1.95,2.72-3.49,12.76-5.8,14.69-2.86,2.38-5.7.55-7.69,1.75-1.18.71-4.95,8.92-10.49,9.57-14.6,3.13-30.05,4.56-44.38-.61-4.3-1.55-8.59-6.19-11.62-7.39l-.97-8.03,6.96,2.04.02-6.02,13.01,6,4.99-3.99c12.65,1.13,33.44-8.01,35.99-21.99-6.18,2.08-11.58,2.98-17.99,3.99l-15.08-4c-4.04,8.7-9.35,4.2-6.51-4.61,1.21-3.75,5.48-5.01,5.59-5.39,11.41,6.26,18.03-17.35,6.03-17.99.66,2.01-1.79,3.26-2.03,3.99-8.28,7.95-5.17-.13-7.12-.13-11.18.02-4.88,6.96-10.38-5.33-1.24-2.77-.27-3.14-4.49-2.55l-4.01,12c-5.99-14.41-9.95,10.88-4,16-1.71,3.3-6.97,12.18-8.91,14.09-1.68,1.67-2.53,2.41-5.08,1.9.32-8.25-6.72-12.83-8.01-21.99-.08-.65.05-1.34,0-2,1.49-4.4-.63-12.17,3.96-14.89,1.01-.6,3.91,1.08,4.02.9,1.23-2.1-3.59-17.75-3.45-20.7.19-3.81,3.99-7.18,3.46-11.29l-13.99,7.97,2-9.98c6.84-6.57,11.89-7.34,18-12,10.21.51,13.84-7.49,19.2-13.89,1.69-2.02,7.44-1.98,4.61-5.98-.51-.72-5.76,1.36-3.8-4.12,7,3.79,31.75-6.55,34.82-5.87,3.37.74,2.89,5.67,3.17,5.86ZM98.04,19.99c-4.13-11.67-29.92,2.8-25.98,8.02s21.44-5.78,25.98-8.02ZM72.04,38.04c-13.12-5.84-21.07,3.08-21.98,15.98l21.98-15.98ZM98.04,54c-1.81-6.18-11.56-10.5-15.99-5.95-4.88,5.01,14.36,4.54,15.99,5.95ZM104.02,80.02c.32-.34,1.95-8.35,1.93-9.18-.13-6.72-20.02-13.86-25.96-7.4-5.98,6.49,8.12,6.1,14.21,9.42,2.99,1.63,7.7,9.42,9.82,7.16ZM108.06,96.02c5.21-1.99,6.65-6.72,5.96-12-4.48,1.73-6.22,7.57-5.96,12ZM126.03,124.03c-1.51-1.44-22.36,12.3-23.99,15.97,4.29,1.47,28.51-11.68,23.99-15.97Z"/>
      <path class="cls-11" d="M166.04,90.02c-.04,1.31.17,2.73,0,4l-4,12c-13.98,38.43-50.41,59.55-91.07,56.07-21.76-1.86-56.47-21.38-53.94-46.06,8.22,16.66,22.45,16.21,37.01,21.99,3.03,1.2,7.32,5.84,11.62,7.39,14.33,5.17,29.78,3.74,44.38.61s25.77-11.29,34-23c2.03-2.89,4.66-9.56,6.59-13.5,2.75-5.6,6.75-11.17,7.41-17.5.64-.65,1.57-1.33,2-2,2.77-4.37,4.17-6.14,5-12.02,1.74,0,1.08,9.58,1,12.02Z"/>
      <path class="cls-6" d="M96.04,110.02c6.41-1.01,11.81-1.91,17.99-3.99-2.55,13.99-23.33,23.12-35.99,21.99-7.52-.67-23.02-6.56-23.99-15.99,11.65-.2,25.72,1.5,37.15.08,2.61-.33,4.27-2,4.84-2.09Z"/>
      <path class="cls-3" d="M46.04,34.02c-6.11,4.66-11.16,5.43-18,12-6.15,5.91-7.91,10.1-12.31,16.68-1.27,1.9-4.06,6.26-3.57.45,4.24-28.99,25.09-42.93,51.86-49.14,2.62,2.75-15.37,18.01-17.98,20Z"/>
      <path class="cls-1" d="M32.04,96.02c1.27,10.84,1.83,10.92,5.25,21.76,4.06,12.85-14.12-9.19-15.72-14.33-.48-1.54-1.77-14.75-1.71-16.45.23-7.19,7.38-29.23,16.18-30.95-4.41,11.02-5.88,21.36-6.08,33.15-.04,2.6,2.05,4.47,2.08,4.83.05.66-.08,1.35,0,2Z"/>
      <path class="cls-12" d="M124.04,32.02c-12.54-9.33-.37-11.52,10.53-9.51,19.63,3.62,20.14,22.12,19.46,38.54-.1,2.42,1.52,7.43-1.97,6.96-1.06-10.4-1.37-19.55-9.93-27.17-2.53-2.25-4.77-1.96-6.1-2.82-3.55-2.3-10.55-4.92-12-6Z"/>
      <path class="cls-8" d="M136.04,54.02c4.53,8.99,4.15,22.36,2,32-.71,3.17-3.36,9.11-4.99,12.1-.66,1.21-2.06,7.59-5,3.89-1.45-1.83,12.65-20.92.9-39.9-3.37-5.44-32.91-28.55-8.86-21.14,4.82,1.48,13.82,8.83,15.95,13.05Z"/>
      <path class="cls-7" d="M158.04,92.02c-.66,6.33-4.66,11.9-7.41,17.5-1.93,3.93-4.56,10.6-6.59,13.5-8.23,11.71-20.06,20.02-34,23,5.54-.65,9.3-8.86,10.49-9.57,1.99-1.19,4.83.63,7.69-1.75,2.31-1.93,7.76-11.97,5.8-14.69l-5.96,4c1.1-10.76,6.66-3.16,10.91-2.78,8.9.8,2.64-7.82,3.4-13.79.3-2.37,7.34-9.98,7.67-13.44,3.29,7.17,4.25,1.82,8-2Z"/>
      <path class="cls-16" d="M54.04,102.02c-5.95-5.12-1.99-30.41,4-16,.89,2.13.15,5.17,2.24,8.71,2.54,4.29,7.6,6.72,9.76,11.27-3.24.43-14.13-2.37-16-3.98Z"/>
      <path class="cls-19" d="M80.04,96.02c.15-.52-2.96-5.7-2-7.99,8.92,1.29,4.85-2.47,6-6.01.23-.72,2.68-1.98,2.03-3.99,12,.63,5.38,24.25-6.03,17.99Z"/>
      <path class="cls-9" d="M166.04,90.02c.08-2.44.74-12.02-1-12.02-.83,5.88-2.23,7.65-5,12.02.1-6.01,3-11.47,3.91-17.3.77-4.96-3.81-10.8,2.07-12.7,1.31,9.22,4.77,21.17.02,30Z"/>
      <path class="cls-4" d="M104.04,10.02c1.66,1.12,16.26-.85,20,.02-3.01,5.62-12.48,5.42-18,5.98-1.94-.84-3.78-2.05-6-2.03l4-3.97Z"/>
      <path class="cls-9" d="M162.04,106.02l4-12c-.85,6.44-2.28,7.26-4,12Z"/>
      <path class="cls-13" d="M104.02,80.02c-2.12,2.27-6.83-5.53-9.82-7.16-6.09-3.32-20.19-2.93-14.21-9.42,5.94-6.46,25.83.68,25.96,7.4.02.83-1.61,8.84-1.93,9.18Z"/>
      <path class="cls-5" d="M98.04,19.99c-4.54,2.24-22.18,13.06-25.98,8.02s21.85-19.69,25.98-8.02Z"/>
      <path class="cls-15" d="M72.04,38.04l-21.98,15.98c.9-12.89,8.85-21.81,21.98-15.98Z"/>
      <path class="cls-7" d="M126.03,124.03c4.52,4.29-19.7,17.44-23.99,15.97,1.63-3.67,22.48-17.41,23.99-15.97Z"/>
      <path class="cls-17" d="M98.04,54c-1.63-1.41-20.87-.94-15.99-5.95,4.43-4.55,14.18-.23,15.99,5.95Z"/>
      <path class="cls-18" d="M108.06,96.02c-.26-4.43,1.48-10.27,5.96-12,.69,5.28-.75,10.01-5.96,12Z"/>
    </g>
  </g>
</svg>