<?xml version="1.0" encoding="UTF-8"?>
<svg id="Calque_2" data-name="Calque 2" xmlns="http://www.w3.org/2000/svg" viewBox="0 0 201.45 188.74">
  <defs>
    <style>
      .cls-1 {
        fill: #f3e8f4;
      }

      .cls-2 {
        fill: #f8eff8;
      }

      .cls-3 {
        fill: #f5e8f6;
      }

      .cls-4 {
        fill: #e7cfea;
      }

      .cls-5 {
        fill: #f7f0f9;
      }

      .cls-6 {
        fill: #9d6da9;
      }

      .cls-7 {
        fill: #eedef1;
      }
    </style>
  </defs>
  <g id="Calque_1-2" data-name="Calque 1">
    <g>
      <path class="cls-6" d="M81.98,1.35c17.02-1.51,46.61-2.94,61.95,2.7,99.83,36.68,59.36,193-42.34,184.34-30.74-2.62-69.97-18.73-85.92-46.09C-3.77,108.94-5.36,81.57,12.21,47.07,27.78,16.49,48.47,4.33,81.98,1.35ZM78.57,8.45C35.77,10.63,6.98,58.58,8.59,98.41l7.62-25.35c7.73-17.03,19.26-32.48,33.42-44.58,9-7.69,19.65-12.87,28.94-20.04ZM116.57,20.42c-1.04-.39-2.27-3.41-4.92-3.35-1.86.04-4.13,2.38-6.35,2.61-5.36.56-14.22-1.19-16.72,4.72,6.29-.02,13.91-.64,20-1.98.95,1.66,2.69,1.45,4,2,1.65.69,3.12,2.89,6,2,.45.29,1.78,1.61,2,2v6.01s-4,0-4,0c-13-11.73-44.1,3.55-55.82,13.18-18.88,15.5-24.72,59.43-11.86,79.5,21.73,33.9,87.21,41.18,107.19,1.84,24.51-48.24,11.15-89.42-39.51-108.51ZM161.87,31.13c-5.6-5.83-18.57-16.86-27.29-13.71,25.52,14.6,46.27,45.71,43.97,75.99l-6.99,27.01c18.49-28.19,13.43-65.22-9.69-89.29ZM34.55,142.42c.29-4.65-3.68-7.74-4.97-12.01-2.55-8.47-3.73-25.99-3.09-34.88.69-9.64,4.32-19.55,5.09-29.1-16.34,21.9-19.75,57.05,2.97,75.99ZM47.26,139.74c-4.64-5.22-8.57-14.56-10.72-21.3-3.66-.49-1.63,4.15-1.11,6.11,9.18,34.78,28.48,42.53,63.13,39.86l-25.36-7.61c-7.68-5.67-19.6-9.91-25.94-17.05ZM82.58,178.41c39.24,7.4,78.05-2.43,93.97-41.98-16.8,17.3-36.92,28.04-59.99,34.99l-33.98,6.99Z"/>
      <path class="cls-5" d="M78.57,8.45c-9.29,7.17-19.94,12.35-28.94,20.04-14.16,12.1-25.69,27.55-33.42,44.58l-7.62,25.35C6.98,58.58,35.77,10.63,78.57,8.45Z"/>
      <path class="cls-2" d="M82.58,178.41l33.98-6.99c23.07-6.95,43.19-17.69,59.99-34.99-15.92,39.55-54.73,49.38-93.97,41.98Z"/>
      <path class="cls-7" d="M161.87,31.13c23.12,24.07,28.18,61.09,9.69,89.29l6.99-27.01c2.3-30.29-18.45-61.4-43.97-75.99,8.72-3.15,21.69,7.88,27.29,13.71Z"/>
      <path class="cls-1" d="M47.26,139.74c6.35,7.15,18.26,11.39,25.94,17.05l25.36,7.61c-34.65,2.68-53.95-5.07-63.13-39.86-.52-1.96-2.55-6.6,1.11-6.11,2.14,6.73,6.08,16.08,10.72,21.3Z"/>
      <path class="cls-3" d="M34.55,142.42c-22.73-18.94-19.31-54.09-2.97-75.99-.77,9.55-4.4,19.46-5.09,29.1-.64,8.89.54,26.41,3.09,34.88,1.28,4.27,5.26,7.36,4.97,12.01Z"/>
      <path class="cls-4" d="M116.57,20.42c-3.41-1.47-6.22,1.61-8,2-6.09,1.34-13.71,1.96-20,1.98,2.5-5.91,11.37-4.16,16.72-4.72,2.22-.23,4.49-2.57,6.35-2.61,2.65-.06,3.88,2.96,4.92,3.35Z"/>
      <path class="cls-4" d="M116.57,34.42h4s0-6,0-6c1.27,2.25,3.19,3.06,1.99,6.98-1.83,5.99-4.58.29-5.99-.98Z"/>
      <path class="cls-4" d="M118.57,26.42c-2.88.89-4.35-1.31-6-2,3.11-.78,3.99.68,6,2Z"/>
    </g>
  </g>
</svg>