<?xml version="1.0" encoding="UTF-8"?>
<svg id="Calque_2" data-name="Calque 2" xmlns="http://www.w3.org/2000/svg" viewBox="0 0 238.09 132.82">
  <defs>
    <style>
      .cls-1 {
        fill: #e68060;
      }

      .cls-2 {
        fill: #e18569;
      }

      .cls-3 {
        fill: #dc8469;
      }

      .cls-4 {
        fill: #de8368;
      }

      .cls-5 {
        fill: #e87756;
      }

      .cls-6 {
        fill: #e65026;
      }
    </style>
  </defs>
  <g id="Calque_1-2" data-name="Calque 1">
    <g>
      <path class="cls-6" d="M25.97,89c-2.88-4.43-9.43-20.48-11.08-26.03-.9-3.03-.81-10.62-1.31-12.48-3.43-12.55-8.51-8.41-9.6-9.51-1.85-1.88,3.07-7.34,3.05-10.14-.02-4.63-5.43-12.87-5.06-14.8,1.03-5.31,34.16-2.65,41.08-2.97,23.96-1.13,57.01-6.56,79.66-5.46,3.44.17,7.41,3.6,10.13,3.49,1.1-.05.91-3.71,2.46-4.09,3.32-.82,41.98-2.6,47.72-2.24,4.21.27,1.96,4.98,5.83,4.26,2.32-.43,4.27-2.75,6.2-2.95,5.33-.56,11.5.93,16.92.89l-2.03-3.97c11.36-.37,22.59-.82,24.12,12.92.89,8.01-3.41,33-6.11,41.06-5.74,17.12-22.46,36.23-36,48-5.14,3.26-13.27,6.21-17.89,9.12-1.34.85-1.75,2.67-2.11,2.88-4.34,1.29-10.2,1.6-14.96,4.12l-2.03-4.11-8.02,7.99c-4.91-11.37-4.2.94-6.27,2.1-1.8,1-11.29,2.48-13.42,1.97-1.54-.37-1.16-4.18-2.32-4.14-3.24.1-10.49,6.19-18.02,6.09-4.73-.06-35.4-8.76-40.99-10.99-4.08-1.62-9.44-5.3-11.97-9.03,14.85-4.7,37.18,11.66,42,5.98,3.09-3.65-21.2-8.7-23.35-9.62-10.66-4.56-23.67-11.95-31.66-20.34-3.44,5.03,14.73,15.89,13.01,17.97-8.29,3.74-11.87-1.21-18-5.98-4.31-3.35-6.89-5.21-10-10ZM37.41,33.72c-11.01-5.98-1.86,11.71,5.9,12.74,3.49.47,21.95-6.44,26.64-8.49,1-4.72-4.02-3-7.03-3.03-7.73-.08-14.95,2.83-22.04,2.26-3.6-.29-3.02-3.23-3.48-3.48Z"/>
      <path class="cls-2" d="M227.97,57c2.7-8.06,7-33.06,6.11-41.06-1.53-13.74-12.76-13.29-24.12-12.92l2.03,3.97c-5.41.04-11.59-1.45-16.92-.89-1.93.2-3.88,2.51-6.2,2.95-3.87.72-1.62-3.99-5.83-4.26-5.74-.36-44.4,1.42-47.72,2.24-1.56.39-1.37,4.05-2.46,4.09-2.72.11-6.69-3.32-10.13-3.49-22.65-1.1-55.7,4.33-79.66,5.46-6.92.33-40.05-2.34-41.08,2.97-.37,1.93,5.03,10.16,5.06,14.8.01,2.8-4.91,8.26-3.05,10.14,1.09,1.1,6.17-3.04,9.6,9.51.51,1.86.41,9.44,1.31,12.48,1.65,5.54,8.21,21.59,11.08,26.03-7.32-5.86-13.5-19.17-16.97-28.03C6.14,53.64-5.66,12.9,3.31,10.93c2.91-.64,14.33-1.83,17.76-1.97,56.57-2.26,114.94-4.88,171.57-6.7,13.69-.44,42.75-9.47,45.31,11.93,1.14,9.54-4.91,34.07-9.98,42.81Z"/>
      <path class="cls-4" d="M53.97,111c2.53,3.73,7.89,7.41,11.97,9.03,5.59,2.22,36.26,10.92,40.99,10.99,7.53.1,14.78-6,18.02-6.09,1.16-.03.78,3.77,2.32,4.14,2.13.51,11.62-.97,13.42-1.97,2.07-1.16,1.36-13.47,6.27-2.1l8.02-7.99,2.03,4.11c4.76-2.52,10.62-2.83,14.96-4.12-40.42,23.04-84.7,20.8-122-6,1.25-.22,2.98.32,4,0Z"/>
      <path class="cls-1" d="M35.97,99c6.13,4.76,9.71,9.72,18,5.98,1.73-2.07-16.45-12.94-13.01-17.97,7.98,8.39,21,15.79,31.66,20.34,2.15.92,26.44,5.97,23.35,9.62-4.81,5.68-27.15-10.67-42-5.98-1.02.32-2.75-.22-4,0-4.21-3.03-13.9-3.93-14-12Z"/>
      <path class="cls-3" d="M191.97,105c-9.23,8.03-6.65,8.04-20,12,.36-.21.78-2.03,2.11-2.88,4.61-2.91,12.74-5.86,17.89-9.12Z"/>
      <path class="cls-5" d="M37.41,33.72c.46.25-.13,3.19,3.48,3.48,7.09.58,14.31-2.33,22.04-2.26,3.01.03,8.02-1.69,7.03,3.03-4.69,2.05-23.16,8.95-26.64,8.49-7.76-1.04-16.91-18.72-5.9-12.74Z"/>
    </g>
  </g>
</svg>