<?xml version="1.0" encoding="UTF-8"?>
<svg id="Calque_2" data-name="Calque 2" xmlns="http://www.w3.org/2000/svg" viewBox="0 0 150.76 158.41">
  <defs>
    <style>
      .cls-1 {
        fill: #9867a4;
      }
    </style>
  </defs>
  <g id="Calque_1-2" data-name="Calque 1">
    <path class="cls-1" d="M77.16,147.09c6.08-.94,26.55-13.6,32-18,42.85-34.61,35.09-100.48-20.94-115.06C59.6,6.58,8.66,35.52,12.32,67.9c3.6,31.86,35.09,55.42,65.97,40.31,18.11-8.86,26.07-21.22,21.45-41.71-5.46-24.21-53.62-19.15-53.61,7.58,0,24.65,32.45,15.83,27.84,2.31-1.05-3.08-7.62-4.54-7.71-6.28-.02-.3,2.14-4.88,3.24-5.16,19.1-4.88,28.85,32.16-2.52,35.96-35.32,4.29-44.78-44.89-16.83-58.85,42.33-21.14,90.15,31.13,47.82,69.82C43.21,161.93-40.17,71.56,22.14,20.07c76.7-63.39,174.1,37.32,105.11,109.11-19.49,20.28-58.57,40.45-84.11,21.91-1.98-1.1,1.79-4,2.02-4,9.37,0,23.47,1.32,32,0Z"/>
  </g>
</svg>