<?xml version="1.0" encoding="UTF-8"?>
<svg id="Calque_2" data-name="Calque 2" xmlns="http://www.w3.org/2000/svg" viewBox="0 0 293.91 201.13">
  <defs>
    <style>
      .cls-1 {
        fill: #f3d241;
      }

      .cls-2 {
        fill: #fdfbd3;
      }

      .cls-3 {
        fill: #fefef5;
      }

      .cls-4 {
        fill: #f0d75e;
      }

      .cls-5 {
        fill: #fbf0a2;
      }

      .cls-6 {
        fill: #fdfef3;
      }

      .cls-7 {
        fill: #f5e89b;
      }

      .cls-8 {
        fill: #fbf9e6;
      }

      .cls-9 {
        fill: #fdfcee;
      }
    </style>
  </defs>
  <g id="Calque_1-2" data-name="Calque 1">
    <g>
      <path class="cls-9" d="M66.25,187.63c-9.1-11.08-13.9-25.98-14.17-41.02-.19-10.25-.4-14.34-1.19-24.23-.62-7.74,5.51-15.83,5.51-21.75,0-6.46-5.5-10.28-4.07-19.86,1.85-12.41,19.21-17.77,10.46-36.67-2.01-4.35-16.19-13.52-21.08-12.2-6.32,1.71-19.32,31.19-24.26,37.9-31.68,9.38-12.76-34.47-1.2-46.61C31.98,6.66,56.57,2.42,74.28,18.59c4.67,4.27,9.2,14.75,11.98,16.13,3.19,1.59,11.62-2.86,16.76-2.88,5.97-.03,24.67,7.21,26.99,5.54.45-.32,2.42-6.84,5.14-9.86,12.95-14.35,27.46-6.58,41.2-10.79,7.34-2.25,13.59-15.45,23.36-16.73,7.5,3.31,18.77,2.15,25.14,4.02,4.12,1.2,6.3,7.64,14.87,9.14,11.13,1.95,14.21-3.55,21.26-3.42,3.95.07,22.33,6.25,25.42,8.73,8.03,6.44,12.38,31.47-1.48,32.73-9.86.9-12.45-18.86-24.14-14.28-3.77,1.48-4.54,15.37-4.33,19.5,1.31,26.1,8.59,40.92,5.78,70.2-1.07,11.09-8.95,59.07-18.01,64-3.88,2.11-15.67,1.52-20.08.13-7.52-2.36-10.64-15.21-16.92-15.21-6.95,0-10.64,22.09-16.98,25.21-4.1,2.02-20.84-3.97-24.07-8.02-6.58-8.26-7.98-27.7-10.9-31.09-13.3-15.4-8.59,24.68-18.4,27.62-22.39,6.71-21.75-8.18-31.61-21.57-7.09.07-5.73,36.59-29.64,29.55-3.65-1.08-3.91-4.45-5.36-5.59,22.36,7.73,23.22-5.87,27.45-23.55,6.42-26.81,5.84-57.87,2.31-85.22-.82-6.37-6.21-20.2-5.8-24.18.99-9.61,10.66-10.82,16.96-2.98,11.25,14.04,1.71,27.06-.65,43.19-3.19,21.78-2.76,49.7,2.29,71.17,1.49,6.33,3.43,16.06,10.48,17.5,19.99,4.09,16.27-11.76,19.46-24.44,2.05-8.16,7.37-16,5.51-25.49,5.28-.62,3.16.09,4.02,2.94,4.34,14.37,12.15,52.66,29.13,54.99,12.91,1.77,12.06-6.68,14.84-15.94,11.72-39.06,6.32-90.53-2.98-130.02-1.29-5.49-6-10.29-4.23-16.02,2.95-9.54,16.76-17.56,26.32-12.06,22.25,12.81.94,32.62-2.88,49.33-6.28,27.44-7.23,75.85,3.75,101.79,4.68,11.08,6.91,17.78,21.04,14.99,8.21-1.62,17.35-32.81,18.8-41.2,4.87-28.27,3.11-66.23-3.52-94.11-.77-3.23-1.18-6.78-4.3-8.7.13-12.95,12.82-21.25,23.06-12.05,2.97,2.66,14.58,27.17,17.04,7.14,2.67-21.77-19.12-25.61-36.23-22.21-4.54.9-11.77,5.6-14.46,4.92-2.82-.71-7.34-7.88-13.41-9.8-6.75-5.37-20.04-5.16-28.06-3.06-9.51,2.49-16.55,15.51-21.39,16.78-7.11,1.86-14.15-4.52-27.64,2.19-8.65,4.31-15.31,19.51-18.14,19.99-3.72.63-7.41-7.11-10.88-8.8-12.59-6.14-34.28,2-35.71.7-.45-.41-.35-4.68-2.1-6.82-11.7-14.37-30.02-26.67-48.09-14.98C17.03,22.47,3.06,51.97,4.26,67.63c10.3,1.38,9.26-3.18,11.99-10,8.23-7.7,12.52-29.38,25.47-31.69,14.4-2.57,20.91,9.26,26.53,19.69,6.18,13.03-4.75,23.34-7.77,35.23-2.58,10.13-4.07,30.86-4.31,41.69-.49,22.18,1.38,44.62,10.08,65.08ZM108.22,83.62c1.86-1.78,5.39-24.41-2.94-23.98-5.44,1.1-1.89,17.26-.99,21,.57,2.38.49,6.27,3.93,2.98Z"/>
      <path class="cls-7" d="M162.25,53.63c.53-5.4.89-10.67,1.99-15.99-4.61-4.37-30.62,23.45-23.51,32.51l8.53,31.47c4.51-17.05,5.44-31.97,12.99-47.99-3.52,36.11-16.03,58.64-4.73,97.73,2.73,9.42,10.21,17.9,13.54,26.22,1.53,3.83-3.03,11.59,8.25,13.99,10.81,2.3,9.27,0,12.94-5.93,1.26-2.04,2.47-4.14,4-6-2.78,9.26-1.93,17.71-14.84,15.94-16.97-2.33-24.79-40.62-29.13-54.99-.86-2.85,1.25-3.56-4.02-2.94,1.86,9.49-3.46,17.33-5.51,25.49-3.19,12.68.53,28.53-19.46,24.44-7.05-1.44-8.99-11.17-10.48-17.5-5.05-21.47-5.48-49.39-2.29-71.17,2.36-16.12,11.91-29.15.65-43.19-6.29-7.85-15.97-6.63-16.96,2.98-.41,3.98,4.97,17.81,5.8,24.18,3.53,27.35,4.11,58.41-2.31,85.22-4.24,17.67-5.09,31.27-27.45,23.55-1.92-1.52-2.48-2.16-4-4-8.7-20.46-10.57-42.9-10.08-65.08.24-10.83,1.74-31.56,4.31-41.69,3.02-11.89,13.95-22.2,7.77-35.23.22.41,2.87.84,3.62,3.31,3.45,11.46-5.59,18.12-5.62,28.69-.33.65-1.61,1.23-2,2-6.06,12.01-6.45,68.69-3.89,82.89.79,4.37,7.19,18.06,9.89,21.11,6.01,6.79,7.9,7.31,16,4,1.02-.42,3.21,1.32,4.01-1.37,2.59-8.72,4.65-23.26,5.99-32.63,1.77-12.41,2.84-24.93,2-38,2.18-15.21-.03-35.78-6-50-.08-10.71.57-12.19,8-20,.35.57,10.16,4.12,12,6,14.4,29.83,1.78,31.45.02,61.02-.63,10.59-.89,29.26.14,39.65s5.6,41.95,21.42,32.88c6.01-3.45,2.65-13.4,3.26-17.67,4.06-28.39,10.62-42.43,6.95-74.66-1.12-9.79-9.19-23.2-7.45-31.74,1.1-5.4,17.24-23.84,23.1-25.1,18.41-3.94,6.02,10.29,2.57,17.63Z"/>
      <path class="cls-4" d="M224.25,11.63c-10.42-3.3-33.49-4.05-35.99,9.99,11.52,1.16,15.01-9.89,26.73-3.72,17.84,9.38,10.32,26.96,16.3,33.69,2.26,2.54,7.53,1.77,8.72,5.28,2.56,7.56,2.97,36.22,3.12,45.76.27,16.73-2.69,34.26-.85,50.99l11.04-17.92c9.24-29.95-5.35-63.85-5.07-92.07,3.12,1.92,3.53,5.47,4.3,8.7,6.63,27.89,8.38,65.85,3.52,94.11-1.44,8.39-10.59,39.58-18.8,41.2-14.13,2.79-16.35-3.91-21.04-14.99-10.97-25.94-10.02-74.35-3.75-101.79,3.82-16.71,25.13-36.52,2.88-49.33-9.56-5.51-23.38,2.52-26.32,12.06-1.77,5.73,2.94,10.53,4.23,16.02,9.3,39.49,14.7,90.96,2.98,130.02-1.53,1.86-2.74,3.96-4,6-.53-14.77,8.58-30.03,7.88-44.86-.2-4.33-3.49-8.78-3.9-14.12-2.01-26.73,2.99-40.78-4.19-69.81-1.26-5.07-7.49-16.68-7.86-20.37-.51-5.14,4.49-6.22,4.05-10.82-19.52,3.89-44.31-4.58-51.51,19.47-.82,2.75-.46,5.72-.49,8.52-12.39.62-16.68-12.1-27.98-11.99-.7.65,3.11,8.17,3.99,9.99-1.84-1.88-11.65-5.43-12-6-.56-.91.66-5.35-.03-5.98-1.96-1.81-10.55,3.38-13.33,3.51-4.76.24-11.01-8.33-12.65,1.46-2.79,16.69.52,15.93-8,33,.02-10.56,9.06-17.23,5.62-28.69-.74-2.47-3.39-2.9-3.62-3.31-5.63-10.42-12.13-22.25-26.53-19.69-12.94,2.31-17.23,23.98-25.47,31.69,4.47-11.17,5.29-23.23,16.14-30.86,14.51-10.19,27.01,1.46,29.85-1.15s-1.48-6.49-5-7.97c-6.26-2.63-18.58-2.06-24.99-.02,18.06-11.69,36.39.62,48.09,14.98,1.74,2.14,1.65,6.41,2.1,6.82,1.44,1.3,23.12-6.84,35.71-.7,3.46,1.69,7.16,9.43,10.88,8.8,2.83-.48,9.49-15.68,18.14-19.99,13.49-6.71,20.53-.33,27.64-2.19,4.84-1.27,11.88-14.28,21.39-16.78,8.02-2.1,21.31-2.31,28.06,3.06ZM65.28,25.64c-6.14,1.26-1.12,11.46,5.94,9.99,6.34-1.32-2.63-10.66-5.94-9.99ZM233.25,57.67c-9.49-.14-18.27,98.15-2,107.92,3.11.02,8.71-34.05,9.07-38.89.59-7.84.93-68.91-7.07-69.03ZM218.24,137.63c-3.68-.6-5.61,1.64-6.07,5.07-1.18,8.71,9.81,49.62,23.82,40.67,5.78-9.81-4.53-9.71-8.88-17.59-3.9-7.08-6.76-20.01-8.86-28.15Z"/>
      <path class="cls-1" d="M224.25,11.63c6.07,1.92,10.59,9.1,13.41,9.8s9.92-4.02,14.46-4.92c17.11-3.39,38.91.45,36.23,22.21-2.46,20.03-14.07-4.48-17.04-7.14-10.24-9.2-22.93-.9-23.06,12.05-.28,28.22,14.31,62.12,5.07,92.07l-11.04,17.92c-1.84-16.73,1.12-34.25.85-50.99-.15-9.54-.56-38.2-3.12-45.76-1.19-3.52-6.46-2.74-8.72-5.28-5.98-6.73,1.54-24.31-16.3-33.69-11.72-6.16-15.21,4.89-26.73,3.72,2.5-14.04,25.57-13.29,35.99-9.99Z"/>
      <path class="cls-1" d="M32.25,17.63c6.41-2.04,18.73-2.61,24.99.02,3.52,1.48,7.96,5.24,5,7.97s-15.34-9.04-29.85,1.15c-10.86,7.63-11.67,19.69-16.14,30.86-2.73,6.82-1.69,11.38-11.99,10-1.2-15.65,12.77-45.16,27.99-50Z"/>
      <path class="cls-1" d="M112.25,51.63c-.88-1.82-4.69-9.34-3.99-9.99,11.29-.11,15.59,12.61,27.98,11.99.03-2.8-.33-5.78.49-8.52,7.2-24.05,31.99-15.58,51.51-19.47.44,4.6-4.56,5.68-4.05,10.82.37,3.7,6.6,15.3,7.86,20.37,7.19,29.03,2.18,43.08,4.19,69.81.4,5.35,3.69,9.8,3.9,14.12.7,14.83-8.41,30.09-7.88,44.86-3.67,5.93-2.13,8.23-12.94,5.93-11.28-2.4-6.72-10.16-8.25-13.99-3.32-8.32-10.81-16.79-13.54-26.22-11.3-39.08,1.21-61.62,4.73-97.73,3.46-7.33,15.85-21.57-2.57-17.63-5.85,1.25-22,19.7-23.1,25.1-1.74,8.54,6.33,21.95,7.45,31.74,3.68,32.23-2.89,46.28-6.95,74.66-.61,4.27,2.75,14.22-3.26,17.67-15.82,9.08-20.44-22.89-21.42-32.88s-.77-29.06-.14-39.65c1.76-29.57,14.38-31.18-.02-61.02ZM176.27,171.63c4.93,4.63,9.54-20.31,9.82-23.18,1.78-18.04-2.5-60.45-6.33-79.34-.67-3.29-1.74-8.38-5.49-9.48-.55,6.16-4.65,11.21-5.86,17.14-3.92,19.18-2.93,62.68,2.36,81.33.42,1.5,4.97,13.03,5.5,13.53ZM130.25,150.63c1.69-13.68,0-33.48,0-48,0-.41-3.36-3.63-3.98-3-1.73,19.95-7.27,40.59-2.01,60.01,4.14,2.09,5.69-6.6,5.99-9.01Z"/>
      <path class="cls-4" d="M98.25,115.63c-4-3.76-.61-21.55-4.02-23.99-4.53-3.24-7.74,8.22-8.03,10.96-1.07,10.1,4.98,23.76,4.09,34.02-.42,4.77-7.43,6.08-6.15,13.95.84,5.16,9.57,10.67,12.11,3.06-1.34,9.38-3.4,23.91-5.99,32.63-.8,2.69-2.99.95-4.01,1.37-1.48-7.21,6.14-13.6,3.77-20.69-2.93-8.78-12.03.65-12.77.66-7.82.02-6.41-48.92-6.89-55.07-.28-3.51.4-6.55-3.14-8.88l-6.49,17.44c.82,11.39-.25,28.66,1.64,39.42,1.16,6.62,9.05,14.29,7.88,23.12-2.7-3.05-9.1-16.74-9.89-21.11-2.56-14.2-2.17-70.88,3.89-82.89-.25,3.24-.69,10.79,3.02,11.98,9.39,3.02,5.48-14.75,12.01-17.97,4.48-2.02,2.98,11.06,9.74,9.86,7.8-1.38,3.28-12.71,3.24-17.88,5.97,14.22,8.18,34.79,6,50ZM78.27,83.63c-2.57,20.97-5.71,41.78-4.11,63.09.86,11.41,3.86,11.32,7.13.95,5.04-15.98,3.29-40.35,1.01-57.09-.41-3-.27-6.16-4.03-6.95Z"/>
      <path class="cls-1" d="M86.25,187.63c-8.1,3.31-9.99,2.79-16-4,1.18-8.83-6.71-16.5-7.88-23.12-1.89-10.76-.83-28.03-1.64-39.42l6.49-17.44c3.53,2.32,2.86,5.36,3.14,8.88.49,6.15-.92,55.09,6.89,55.07.74,0,9.84-9.43,12.77-.66,2.37,7.09-5.25,13.49-3.77,20.69Z"/>
      <path class="cls-1" d="M66.25,77.63c8.51-17.07,5.21-16.32,8-33,1.64-9.79,7.88-1.22,12.65-1.46,2.78-.14,11.36-5.32,13.33-3.51.68.63-.54,5.07.03,5.98-7.43,7.81-8.08,9.29-8,20,.04,5.17,4.57,16.5-3.24,17.88-6.76,1.19-5.25-11.88-9.74-9.86-6.53,3.21-2.62,20.98-12.01,17.97-3.71-1.19-3.26-8.74-3.02-11.98.39-.77,1.67-1.35,2-2Z"/>
      <path class="cls-3" d="M162.25,53.63c-7.55,16.02-8.48,30.94-12.99,47.99l-8.53-31.47c-7.11-9.06,18.9-36.88,23.51-32.51-1.1,5.32-1.46,10.59-1.99,15.99Z"/>
      <path class="cls-1" d="M96.25,153.63c-2.54,7.61-11.28,2.11-12.11-3.06-1.28-7.88,5.74-9.18,6.15-13.95.89-10.26-5.16-23.92-4.09-34.02.29-2.74,3.5-14.19,8.03-10.96,3.41,2.44.02,20.23,4.02,23.99.84,13.07-.23,25.59-2,38Z"/>
      <path class="cls-6" d="M233.25,57.67c8,.12,7.66,61.19,7.07,69.03-.36,4.84-5.96,38.91-9.07,38.89-16.27-9.77-7.49-108.06,2-107.92Z"/>
      <path class="cls-1" d="M218.24,137.63c2.1,8.13,4.96,21.07,8.86,28.15,4.34,7.87,14.66,7.78,8.88,17.59-14,8.95-25-31.96-23.82-40.67.46-3.42,2.39-5.67,6.07-5.07Z"/>
      <path class="cls-1" d="M65.28,25.64c3.3-.68,12.28,8.67,5.94,9.99-7.06,1.47-12.08-8.73-5.94-9.99Z"/>
      <path class="cls-8" d="M176.27,171.63c-.53-.5-5.08-12.03-5.5-13.53-5.29-18.65-6.28-62.15-2.36-81.33,1.21-5.93,5.31-10.98,5.86-17.14,3.75,1.1,4.82,6.19,5.49,9.48,3.83,18.89,8.11,61.3,6.33,79.34-.28,2.87-4.9,27.81-9.82,23.18Z"/>
      <path class="cls-5" d="M130.25,150.63c-.3,2.41-1.85,11.11-5.99,9.01-5.26-19.42.28-40.07,2.01-60.01.62-.63,3.98,2.59,3.98,3,0,14.52,1.69,34.32,0,48Z"/>
      <path class="cls-2" d="M78.27,83.63c3.76.79,3.62,3.95,4.03,6.95,2.28,16.73,4.03,41.11-1.01,57.09-3.27,10.37-6.27,10.46-7.13-.95-1.6-21.31,1.54-42.12,4.11-63.09Z"/>
    </g>
  </g>
</svg>