<?xml version="1.0" encoding="UTF-8"?>
<svg id="Calque_2" data-name="Calque 2" xmlns="http://www.w3.org/2000/svg" viewBox="0 0 93.21 97.8">
  <defs>
    <style>
      .cls-1 {
        fill: #a9d5e9;
      }

      .cls-2 {
        fill: #0f6eb0;
      }
    </style>
  </defs>
  <g id="Calque_1-2" data-name="Calque 1">
    <g>
      <path class="cls-2" d="M87.83,67.38c-6.97,14.65-23.08,26.8-39.15,29.97-9.64,1.9-22.3-2.41-30.06-8.11C-2.97,73.38-3.91,53.85,6.28,30.79,12.57,16.58,20.96,7.4,36.23,2.73c21.5-6.57,38.01-1.6,48.79,18.09,9.28,16.95,11.31,28.7,2.81,46.55ZM52.66,82.2c-10.17.35-22.27-2.09-30.12-8.89-2.81-2.44-2.67-6.82-5.85-7.12.55,14.2,14.11,20.58,26.95,20.04,2.16-.09,9.06-.75,9.02-4.03Z"/>
      <path class="cls-1" d="M52.66,82.2c.04,3.28-6.86,3.94-9.02,4.03-12.84.54-26.4-5.84-26.95-20.04,3.18.3,3.04,4.68,5.85,7.12,7.84,6.8,19.94,9.25,30.12,8.89Z"/>
    </g>
  </g>
</svg>