<?xml version="1.0" encoding="UTF-8"?>
<svg id="Calque_2" data-name="Calque 2" xmlns="http://www.w3.org/2000/svg" viewBox="0 0 398.06 130.94">
  <defs>
    <style>
      .cls-1 {
        fill: #fae7de;
      }

      .cls-2 {
        fill: #df8d75;
      }

      .cls-3 {
        fill: #fbede3;
      }

      .cls-4 {
        fill: #e05233;
      }

      .cls-5 {
        fill: #fbf8f5;
      }

      .cls-6 {
        fill: #f7d5c6;
      }

      .cls-7 {
        fill: #e49e8b;
      }
    </style>
  </defs>
  <g id="Calque_1-2" data-name="Calque 1">
    <g>
      <path class="cls-4" d="M87.84,125.27c-9,6.23-19.32,9.26-27.73-1.27-17.9-22.39,17.93-80.59,37.52-95.99-2.37-19.4-19.26-15.86-32.4-8.34-21.45,12.29-41.6,39.08-49.78,62.22-1.71,4.83-4.8,24.37-5.81,25.18C4.22,111.42-.28,104.51.01,98.52,1.79,61.82,51.28-9.34,93.72,4.38c4.81,1.55,13.53,11.23,15.01,10.98,3.3-.55,5.11-3.36,7.78-4.54,6.19-2.72,9.54-6.09,15.55-8.31,16.97-6.26,39.79-1.17,43.79,18.75,14.05-7.59,39.87-17.64,51.93-2.87,1.91,2.34,1.57,4.16,2.04,4.87,1.61,2.45.66,7.57,6.91,7.9,6.94.36,17.12-10.07,29.96-7.85s19.76,22.96,33.13,5.96c22.96-3.8,37.39,6.05,44.03,28,1.59,1.19,30.14-13.28,37.21-13.91,12.34-1.1,25.67,6.75,9.55,13.7-11.22,4.84-39.57,7.62-44.27,19.73-2.89,7.44-1.55,14.56-6.84,23.16-13.27,21.58-36.64,10.2-26.73-12.62,3.11-7.15,16.7-19.57,16.91-22.92.66-11.02-7.07-22.91-18.84-23.31-27.9-.94-16.49,22.71-22.42,41.78-4.84,15.57-18.18,35.99-36.73,31.51-26.78-6.47-.73-48.13,10.15-60.1,2.94-3.23,11.04-7.43,11.6-10.25,3.36-17.04-27.7-11.71-32.64-.72-2.17,4.82.04,24.58-1.53,32.4-3.08,15.37-27.79,57.08-47.34,42.44-14.44-10.82,11.34-55.14,19.12-66.66,5.6-8.29,18.07-12.8,4.88-25.31-6.46-6.12-30.35,4.79-33.56,9.63-2.92,4.39-.04,16.24-.71,22.24-2.18,19.26-14.47,47.81-29.78,60.27-9.4,7.65-15.08,9.44-24.11.02-15.88-16.57,7.07-54.28,19.04-69.09,5.56-6.89,17.83-13.13,16.68-22.43-2.81-22.79-30.08-14.15-42.66-3.56-8.43,7.09-1.62,14.73-.99,26.02-3.83,3.44-1.26,9.88-2.39,14.6-.85,3.56-6.37,25.57-6.93,26.87-1.06,2.48-4.02,2.56-4.16,2.9-.54,1.29,2.79,4.36-.51,6.7-1.73,1.23-5.8-1.49-7.08.75-1.76,3.08-.64,9.26-2.29,13.75-.74,2.01-8.09,6.29-8.63,10.43ZM103.83,41.28l-16.81,18.17c-10.44,17.27-22.99,36.83-17.16,57.82,3.51,2.98,12.82-7.44,15-9.98,14.97-17.45,20.81-43.5,18.97-66.01ZM135.85,109.26c1.81,2.14,9.75-6.39,11.04-7.94,11.12-13.26,15.92-33.23,18.93-50.05-10.05,4.65-36.09,50.74-29.97,57.99ZM205.8,103.25c9.76-13.8,19.66-25.55,18.02-43.98-8.82,6.46-21.68,32.98-22.01,42.97-.06,1.85,2.36.94,3.99,1.01ZM255.86,101.27c10.46-9.43,19.45-23.52,17.96-38-9.57,10.18-20.28,23.28-17.96,38Z"/>
      <path class="cls-7" d="M299.84,29.27c-13.37,17-20.3-3.75-33.13-5.96s-23.02,8.21-29.96,7.85c-6.25-.32-5.3-5.44-6.91-7.9,8.81,9.21,14.32-2.09,23.54-3.62,5-.83,19.21.88,23.53,3.58,3.11,1.95,7.22,9.19,10.23,9.75.98.18,8.92-3.07,12.71-3.7Z"/>
      <path class="cls-2" d="M87.84,125.27c.54-4.15,7.89-8.43,8.63-10.43,1.65-4.49.53-10.68,2.29-13.75,1.28-2.24,5.35.48,7.08-.75,3.3-2.34-.03-5.42.51-6.7.14-.34,3.1-.42,4.16-2.9.56-1.3,6.07-23.31,6.93-26.87,1.13-4.72-1.44-11.15,2.39-14.6,1.41,25.5-11.03,61.48-32,76Z"/>
      <path class="cls-5" d="M103.83,41.28c1.85,22.52-3.99,48.56-18.97,66.01-2.18,2.54-11.49,12.96-15,9.98-5.82-20.99,6.73-40.55,17.16-57.82l16.81-18.17Z"/>
      <path class="cls-3" d="M135.85,109.26c-6.12-7.25,19.91-53.34,29.97-57.99-3.01,16.82-7.81,36.79-18.93,50.05-1.3,1.55-9.24,10.08-11.04,7.94Z"/>
      <path class="cls-1" d="M205.8,103.25c-1.63-.08-4.05.84-3.99-1.01.33-9.99,13.19-36.51,22.01-42.97,1.64,18.44-8.26,30.19-18.02,43.98Z"/>
      <path class="cls-6" d="M255.86,101.27c-2.32-14.72,8.39-27.81,17.96-38,1.49,14.48-7.5,28.56-17.96,38Z"/>
    </g>
  </g>
</svg>