<?xml version="1.0" encoding="UTF-8"?>
<svg id="Calque_2" data-name="Calque 2" xmlns="http://www.w3.org/2000/svg" viewBox="0 0 215.93 217.19">
  <defs>
    <style>
      .cls-1 {
        fill: #e8b179;
      }

      .cls-2 {
        fill: #ea8f3e;
      }

      .cls-3 {
        fill: #fdf0d8;
      }

      .cls-4 {
        fill: #f6c891;
      }
    </style>
  </defs>
  <g id="Calque_1-2" data-name="Calque 1">
    <g>
      <path class="cls-2" d="M161.31,194.92C53.93,270.09-51.68,139.02,27.76,38.35,77.92-25.22,198.1-8.16,214.07,77.69c8.82,47.38-14.56,90.49-52.76,117.23ZM184.59,146.17C249.99,30.11,100.96-38.33,39.72,58.32c-19.05,30.07-26.23,95.38,3.87,119.85,59.77,48.59,149.39-41.83,115.8-105.8-16.09-30.63-55.72-30.15-77.78-6.18-17.44,18.95-27.49,59.43-2.03,75.99,22.43,14.59,51.06-22.24,38.18-38.18-2.5-3.09-19.5-12.85-.2-11.97,17.15.78,23.5,23.73,17.53,37.63-1.21,2.81-14.67,18.57-17.49,20.51-11.02,7.6-27.75,7.65-39.64,1.63-29.59-14.99-34.32-48.77-21.83-77.1,11.47-26,40.79-41.75,69.24-38.3,17.93,2.18,43.47,21.5,51.22,37.76l3.99,19.99-6.99-3.96c-10.38,13.36,5.66,4.56,6.99,5.97l-2,32c-12.31-3.92-5.48,3.41-6.01,8.92-.86,8.89-8.86,23.75-15.11,30.93-2.99,3.43-9.01,4.91-10.87,10.14-9.56,7.67-13.49,13.43-26,18-5.59,2.04-17.12,4.7-23.22,5.78-5.31.94-18.32-2.9-16.78,4.22h29c2.79,0,17.62-6.45,21-8,27.66-12.67,39.67-26.57,54-52Z"/>
      <path class="cls-3" d="M178.59,138.17c-.25,3.29.16,6.7.01,9.99l5.99-1.99c-14.33,25.43-26.34,39.33-54,52l-12,1.98,2-3.98c12.51-4.57,16.44-10.33,26-18,3.82-3.07,8.74-4.21,13.67-9.33,8.53-8.86,12.46-20.16,18.33-30.67Z"/>
      <path class="cls-1" d="M178.59,138.17c-5.87,10.51-9.8,21.81-18.33,30.67-4.93,5.12-9.85,6.26-13.67,9.33,1.86-5.23,7.88-6.7,10.87-10.14,6.25-7.18,14.26-22.05,15.11-30.93.53-5.51-6.29-12.84,6.01-8.92l2-32c-1.33-1.42-17.37,7.38-6.99-5.97l6.99,3.96-3.99-19.99c14.09,29.58,4.05,37.3,2,64Z"/>
      <path class="cls-4" d="M120.59,196.17l-2,3.98,12-1.98c-3.38,1.55-18.21,8-21,8h-29c-1.53-7.11,11.47-3.28,16.78-4.22,6.1-1.08,17.62-3.74,23.22-5.78Z"/>
    </g>
  </g>
</svg>