<?xml version="1.0" encoding="UTF-8"?>
<svg id="Calque_2" data-name="Calque 2" xmlns="http://www.w3.org/2000/svg" viewBox="0 0 463.57 150.55">
  <defs>
    <style>
      .cls-1 {
        fill: #de775b;
      }

      .cls-2 {
        fill: #efb19e;
      }

      .cls-3 {
        fill: #e6b2a0;
      }

      .cls-4 {
        fill: #e69f87;
      }

      .cls-5 {
        fill: #e17f65;
      }

      .cls-6 {
        fill: #e3502b;
      }

      .cls-7 {
        fill: #ecb39f;
      }

      .cls-8 {
        fill: #e17e64;
      }

      .cls-9 {
        fill: #e24925;
      }

      .cls-10 {
        fill: #e27a5c;
      }
    </style>
  </defs>
  <g id="Calque_1-2" data-name="Calque 1">
    <g>
      <path class="cls-9" d="M119.9,110.49c1.37,3.12.04,10.45,5.98,12l4.02-18c12.78-31.74,22.86-65.01,35.79-96.76,12.44-6.75,15.83.49,21.29,10.68,14.85,27.69,28.04,62.57,42.92,92.08.82,1.64.06,4.57,3,5.96,2.91-1.44,2.19-4.22,3-5.96,3.6-7.78,7.96-14.56,12-22h2l10,2c-.41,1.64,2.47,5.51,1.69,8.57-.23.89-8.13,14.82-8.8,15.44-2.38,2.2-5.95,1.86-7.86,4.02-5.36,6.04-.02,24.33-15.62,19.65-6.13-1.84-5.46-9.73-7.56-14.11s-7.62-12.78-9.73-17.09c-5.67-11.59-10.31-21.55-12.15-33.07l-11.96-13.4c-4.01-8.64-8.94-16.95-12.02-26-.81-.61-2.22,1.1-2.94,2.03-2.98,3.87-17.43,43.45-20.4,51.61-3.57,9.81-16.11,55.65-20.75,59.26-11.15,8.67-19.48-13.89-23.36-22.43-13.32-29.37-26.47-61.77-36.53-92.47-.71-2.17-.11-4.38-3-5.96-2.53.04-5.19,10.87-5,13.96-17.93,33.7-32.4,70.38-51.98,103.01-4.13,1.8-9.06,2.16-11.92-1.98,16.29-31.39,27.01-65.79,42.48-97.46,3.18-6.5,21.79-40.34,26.56-41.54,2.03-.51,9.14,5.13,10.47,7.35,7.52,12.55,15.16,43.01,21.42,58.58,5.71,14.23,12.84,28.02,18.97,42.03ZM251.89,104.51h-3.98s0,5.99,0,5.99c2.89-.67,4.59-3.23,3.97-5.99Z"/>
      <path class="cls-6" d="M281.9,30.49c.66-1.51-.48-3.88,1.85-7.08,3.8-5.2,14.97-10.37,19.29-3.05l43.86,88.09L384.87,2.47c12.67-5.74,18.73-1.11,24.02,10.04,14.39,30.28,27.1,64.68,41.01,95.99-1.19,7.09,5.43,13,5.67,19.58.22,6.05-6.1,6.3.32,12.4-5.94.54-8.18-3.82-11.01-7.97l-1.99,4.02-5-4.03c.94-16.74-9.29-29.44-15.33-42.66-2.01-4.39,1.38-8.02-6.67-9.34-.8-1.97-2.65-4.7-4-8-1.71-5.17,5.61-2.62,4.03-6.99-.66-1.82-3.95-.45-4.19-2.2-.39-2.74,2.53-6.4,2.25-9.52-.08-.85-9.61-7.25-4.1-15.29l-5.97,1.99c6.78-11.4-9.93-18.89-12.01-8.93-.48,2.27.37,4.97,0,6.94-3.92,21.35-12.64,39.8-20,60-8.22,4.17-7.91,14.91-10.17,22.45-.48,1.6-3.44,1.55-3.76,2.95-1,4.33.49,10.01-.06,14.6-22.86,4.23-14.2-10.93-19.17-21.84-1.1-2.42-4.36-4.95-6.08-8.14-1.47-2.75-1.42-7.72-1.78-8.15-2.49-2.99-6.75,1.04-8.98-2.9l5.97-1.97c-2.75-3.18-5.33-16.21-9.98-13-.72.5,6.27,9.44-1.98,7.99-4.46-13.9-9.02-27.09-14.17-40.5-.7-1.83-3.98-1.45-3.94-2.53.15-4.11,9.25-9.13.1-12.98,2,8.32-4.29,4.78-6.23,7.23-1.13,1.43-.94,4.95-1.79,6.78-4.06,8.7-6.37,15.84-12,24-.23.33-2.46,1.67-3.76,3.21s-1.57,5.86-2.53,6.48c-2.28,1.46-8.67-.49-9.71.32-.68.52,1.47,3.75,1.16,5.08-.55,2.34-3.1,2.69-3.15,2.91l-10-2c2.31-12.41,11.45-7.34,11.98-8,.99-1.22-2.05-5.21-2.05-6.85,0-1.11,3.39-.81,3.96-2.6,5.44-17.09,11.18-24.77,18.1-40.54Z"/>
      <path class="cls-10" d="M289.9,48.49c.85-1.82.66-5.34,1.79-6.78,1.94-2.45,8.22,1.09,6.23-7.23,9.15,3.86.05,8.88-.1,12.98-.04,1.08,3.23.7,3.94,2.53,5.15,13.41,9.7,26.6,14.17,40.5,8.26,1.46,1.26-7.49,1.98-7.99,4.65-3.21,7.23,9.82,9.98,13l-5.97,1.97c2.23,3.93,6.48-.1,8.98,2.9.35.42.3,5.4,1.78,8.15,1.71,3.19,4.97,5.72,6.08,8.14,4.97,10.91-3.69,26.07,19.17,21.84.54-4.6-.95-10.28.06-14.6.32-1.4,3.28-1.36,3.76-2.95,2.26-7.54,1.95-18.28,10.17-22.45-4.97,13.65-9.54,27.91-12.9,42.09-9.64,5.07-16.27,1.98-21.51-6.68-15.79-26.08-27-57.82-42.64-83.45-1.97-3.23.7-5.86-4.94-1.96Z"/>
      <path class="cls-5" d="M187.9,60.49l11.96,13.4c1.84,11.52,6.48,21.48,12.15,33.07,2.11,4.32,7.58,12.62,9.73,17.09s1.43,12.27,7.56,14.11c15.6,4.69,10.27-13.61,15.62-19.65,1.91-2.16,5.48-1.81,7.86-4.02.67-.62,8.58-14.55,8.8-15.44.78-3.06-2.1-6.93-1.69-8.57.06-.23,2.61-.58,3.15-2.91.31-1.33-1.84-4.55-1.16-5.08,1.04-.8,7.43,1.14,9.71-.32.97-.62,1.18-4.88,2.53-6.48s3.53-2.88,3.76-3.21l-36.41,67.57c-10.23,1.37-14.22,2.31-19.98-6.18-12.37-18.23-23.95-52.57-33.61-73.38Z"/>
      <path class="cls-8" d="M391.9,38.49c.36-1.97-.48-4.67,0-6.94,2.09-9.96,18.79-2.47,12.01,8.93l5.97-1.99c-5.51,8.04,4.02,14.43,4.1,15.29.28,3.11-2.64,6.78-2.25,9.52.25,1.75,3.53.38,4.19,2.2,1.58,4.37-5.74,1.82-4.03,6.99-5.35-13.07-9.82-26.52-14.02-40l-5.98,6Z"/>
      <path class="cls-1" d="M461.9,140.49c-3.58,8.17-8.74,6.53-16,8-2.27-2.34-6.27-10.58-8-14v-2l5,4.03,1.99-4.02c2.83,4.16,5.06,8.51,11.01,7.97-6.43-6.1-.1-6.35-.32-12.4-.24-6.58-6.87-12.49-5.67-19.58,4.98,11.22,10.15,19.19,12,32Z"/>
      <path class="cls-5" d="M281.9,30.49c-6.92,15.78-12.67,23.46-18.1,40.54-.57,1.79-3.95,1.49-3.96,2.6,0,1.64,3.03,5.63,2.05,6.85-.53.66-9.68-4.4-11.98,8h-2c10.55-19.44,19.63-41.07,34-58Z"/>
      <path class="cls-8" d="M415.9,80.49c8.05,1.33,4.66,4.96,6.67,9.34,6.04,13.21,16.28,25.92,15.33,42.66v2c-8.22-16.26-15.01-36.75-22-54Z"/>
      <path class="cls-7" d="M71.9,32.49l-3.97-2c.14,4.08-2.31,6.76-4.03,10-.19-3.09,2.47-13.92,5-13.96,2.89,1.58,2.29,3.79,3,5.96Z"/>
      <path class="cls-3" d="M445.9,148.49c7.26-1.47,12.42.17,16-8,.05.36,2.76,1.16,1.17,3.88-2.93,4.99-12.77,8.65-17.17,4.12Z"/>
      <path class="cls-4" d="M235.9,110.49c-.81,1.74-.09,4.52-3,5.96-2.94-1.39-2.18-4.32-3-5.96h6Z"/>
      <path class="cls-2" d="M129.9,104.49l-4.02,18c-5.94-1.55-4.61-8.88-5.98-12,4.69,12.9,6.39,2.96,10-6Z"/>
      <path class="cls-5" d="M251.89,104.51c.62,2.76-1.08,5.32-3.97,5.99v-5.99s3.97,0,3.97,0Z"/>
    </g>
  </g>
</svg>