<?xml version="1.0" encoding="UTF-8"?>
<svg id="Calque_2" data-name="Calque 2" xmlns="http://www.w3.org/2000/svg" viewBox="0 0 203.72 185.86">
  <defs>
    <style>
      .cls-1 {
        fill: #41a063;
      }
    </style>
  </defs>
  <g id="Calque_1-2" data-name="Calque 1">
    <path class="cls-1" d="M181.49,150.64c-32.39,33.52-94.62,48.01-135.11,21.52C-32.36,120.65,32.21.86,121.76,32.77c57.41,20.46,57.83,106.1-4.74,114.4-26.54,3.52-54.64-8.03-59.41-36.22-3.09-18.27,6.16-29.09,20.7-38.49,24.88-16.07,57.62,5.27,44.01,28.01-6.75,11.29-31.8,15.4-30.12-3.14,24.38,13.61,27.9-26.49.33-18.66-31.29,8.88-23.09,60.82,14.6,58.65,39-2.25,52.16-37.16,36.14-70.08-24.58-50.53-105.67-29-116.18,23.98-15.05,75.88,63.18,105.34,121.73,69.75,100.33-60.99-20.79-211.25-117.58-123.58-5.97,5.41-24.2,30.6-26.98,31.01-6.18.92-4.19-9.29-2.96-12.97,1.79-5.34,15.33-21.78,19.89-26.1,92.3-87.34,238.52,40.3,160.28,121.28Z"/>
  </g>
</svg>