<?xml version="1.0" encoding="UTF-8"?>
<svg id="Calque_2" data-name="Calque 2" xmlns="http://www.w3.org/2000/svg" viewBox="0 0 180.38 187.33">
  <defs>
    <style>
      .cls-1 {
        fill: #f09271;
      }

      .cls-2 {
        fill: #e07c63;
      }

      .cls-3 {
        fill: #e6411d;
      }

      .cls-4 {
        fill: #ea7555;
      }

      .cls-5 {
        fill: #d3806c;
      }
    </style>
  </defs>
  <g id="Calque_1-2" data-name="Calque 1">
    <g>
      <path class="cls-3" d="M8.27,91.36c6.33-4.28,18.89-11.33,25.93-15.07,20.57-10.94,26.96-2.69,30.05-29.95,1.07-9.45-.22-32.02,2.35-39.65.56-1.67,6.28-5.92,7.82-6.41,10.95-3.43,27.36,26.49,31.86,35.09,1.27,2.43.93,6.2,4.97,7.61,12.85-8.1,27.45-12.37,41.43-17.81,1.46-.57,1.58-3.4,3.02-3.74,6.81-1.59,24.66,2.02,12.48,6.95l4.11,10.97-6.03.02.03,9.99c-3.78,6.35-24.05,37.32-23.92,41.03,4.24,16.2,39.6,51.3,37.25,66.09-.69,4.35-10.24,5.23-13.84,4.51-13.17-2.63-33.78-16.68-47.85-20.26-4.08-1.04-8.03-1.98-12.3-1.47-6.74,9.28-25.17,42.54-33.77,46.64-7.01,3.33-11.55.64-15.05-5.77,2.6-10.6.04-22.81.58-33.06.16-3.14,4.49-18.81,4.04-19.71-2.88-5.86-38.57-14.82-47.14-17.99-8.3-6.98-12.47-7.28-6-18ZM92.25,49.35c-5.06-34.49-13.15-16.6-9.96,5.99,4.76-3.19.89-10.89,9.96-5.99ZM62.26,103.37c-19.27-.44-3.35,11.55-.01,2.96v-2.96Z"/>
      <path class="cls-2" d="M106.27,35.36c3.4,2.45,6.16,2.18,10.02,1.14,10.75-2.9,45.99-22.68,54.1-20.32.7.2,10,7.66,10,8.31-.01,2.05-8.56,18.41-10.42,21.64-1.07,1.86-3.36,2.67-3.69,3.23l-.03-9.99,6.03-.02-4.11-10.97c12.18-4.93-5.66-8.54-12.48-6.95-1.43.33-1.56,3.17-3.02,3.74-13.98,5.43-28.59,9.71-41.43,17.81-4.04-1.41-3.7-5.19-4.97-7.61Z"/>
      <path class="cls-5" d="M14.27,109.36c-11.78-4.36-22.06-7.15-6-18-6.47,10.72-2.3,11.02,6,18Z"/>
      <path class="cls-4" d="M92.25,49.35c-9.07-4.9-5.2,2.8-9.96,5.99-3.19-22.58,4.9-40.48,9.96-5.99Z"/>
      <path class="cls-1" d="M62.26,103.37v2.96c-3.35,8.59-19.27-3.4,0-2.96Z"/>
    </g>
  </g>
</svg>