<?xml version="1.0" encoding="UTF-8"?>
<svg id="Calque_2" data-name="Calque 2" xmlns="http://www.w3.org/2000/svg" viewBox="0 0 132.32 249.89">
  <defs>
    <style>
      .cls-1 {
        fill: #fdeee3;
      }

      .cls-2 {
        fill: #de5133;
      }

      .cls-3 {
        fill: #fbf8f5;
      }
    </style>
  </defs>
  <g id="Calque_1-2" data-name="Calque 1">
    <g>
      <path class="cls-2" d="M20.77,247.37c-1.01-1.17-3.1-10.42-2.44-11.39,14.56-3.57,83-10.11,88.97-22.08,2.25-4.52-1.21-15.68-4.34-16.16-3.91-.61-18.43,6.41-24.19,7.64-16.18,3.47-63.27,9.93-74.54-2.44-17.99-19.74,26.59-28.24,38.97-29.13,8.14-.59,19.69-.45,27.82.34,20.54,1.99,30.53,17.17,44.11-6.41,6.39-11.1,6.53-17.14.9-28.6-10.2-20.76-13.03-6.35-23.92,1.58-19.75,14.36-43.04,18.41-66.27,10.62-10.22-3.42-18.57-9.8-21.14-20.86C-.13,109.65,28.82,97.95,45.49,96.09c19.24-2.15,32.74,3.52,50.79,7.77-1.89-27.93-44.94-26.34-54.03-38.94-17.51-24.28,33.2-35.71,31.6-51.71-.17-1.69-8.09-14.57-.83-13.09,12.42,2.52,11.41,14.79,7.42,24.91-4.01,10.17-30.29,24.63-28.1,31.7.79,2.55,38.05,16.22,46.76,25.34,11.61,12.17,7.65,23.46,12.22,33.78,1.19,2.69,8,7.44,10.65,11.35,10.03,14.76,13.43,27.16,7.3,44.66-2.75,7.87-15.04,17.61-15.02,20.99.01,2.39,5.28,8.45,6.39,13.84,2.41,11.69-2.3,18.85-12.25,24.3-15.03,8.24-62.02,18.64-79.15,18.9-2.32.04-7.01-.84-8.47-2.52ZM49.81,108.24c-10.22,1.12-39.42,13.25-29.39,26.49,9.24,12.19,66.66.09,69.76-13.99,1.58-7.17-34.67-13.13-40.37-12.5ZM76.26,187.9c-15.65-1.7-37.13-2.85-51.99,3.08-3.22,1.28-4.88-.19-3.99,4.89,15.94-.09,35.08-.25,50.39-4.61,2.07-.59,6.06-.46,5.59-3.36Z"/>
      <path class="cls-3" d="M49.81,108.24c5.71-.63,41.95,5.33,40.37,12.5-3.1,14.07-60.52,26.18-69.76,13.99-10.04-13.24,19.17-25.36,29.39-26.49Z"/>
      <path class="cls-1" d="M76.26,187.9c.47,2.9-3.53,2.77-5.59,3.36-15.31,4.36-34.45,4.52-50.39,4.61-.89-5.08.77-3.61,3.99-4.89,14.86-5.93,36.34-4.77,51.99-3.08Z"/>
    </g>
  </g>
</svg>