<?xml version="1.0" encoding="UTF-8"?>
<svg id="Calque_2" data-name="Calque 2" xmlns="http://www.w3.org/2000/svg" viewBox="0 0 192.93 204.3">
  <defs>
    <style>
      .cls-1 {
        fill: #79c3e1;
      }

      .cls-2 {
        fill: #1271b3;
      }

      .cls-3 {
        fill: #46b3e4;
      }

      .cls-4 {
        fill: #8fcbdd;
      }
    </style>
  </defs>
  <g id="Calque_1-2" data-name="Calque 1">
    <g>
      <path class="cls-3" d="M25.81,31.87c9.18-1.9,15.38-11.48,23.44-15.56,5.42-2.74,14.44-5,20.54-6.47l-3.98-3.96c6.23,2.31,11.01-3.45,15.14-4.03,1.64-.23,14.2,1.61,14.7,2.15.69.75-.13,5.86.59,8.34,6,20.48,2.66,62.84,3.47,86.6.61,18.03,3,34.91,4.09,52.92.46,7.58,1.19,48.98-1.87,51.12-4.75,3.32-13.18-.68-18.13-1.12-10.81-4.84-32.88-8.93-41.13-18.03-3.94-4.35-.06-7.12-.88-7.96-.47-.49-3.77,1.41-6.07.74-9.01-2.64-18.82-24.46-25.93-30.75C-4.01,109.29-3.86,82.2,14.29,47.35c3.14-6.02,7.63-10.7,11.52-15.48Z"/>
      <path class="cls-2" d="M183.22,76.47c12.57,11.32,12.42,31.7,2.58,44.38-22.74,29.32-62.91,8.14-55.53-27.54,4.77-23.06,36.85-31.34,52.95-16.84Z"/>
      <path class="cls-1" d="M103.81,151.87c-1.09-18.01-3.48-34.89-4.09-52.92-.8-23.76,2.53-66.12-3.47-86.6-.73-2.48.09-7.59-.59-8.34-.5-.55-13.05-2.39-14.7-2.15-4.13.58-8.92,6.34-15.14,4.03l3.98,3.96c-6.1,1.46-15.12,3.72-20.54,6.47-8.07,4.08-14.26,13.66-23.44,15.56,10.34-12.69,21.17-21.35,37.65-27.35,7.8-2.84,29.59-8.22,35.37-.67,6.36,8.31,2.59,54.59,2.9,67.14l2.17,27.8-.09,53.08Z"/>
      <path class="cls-4" d="M9.81,145.87c7.1,6.29,16.92,28.12,25.93,30.75,2.29.67,5.59-1.23,6.07-.74.82.84-3.06,3.62.88,7.96,8.24,9.1,30.32,13.19,41.13,18.03-37.6-3.34-60.43-20.07-74-56Z"/>
    </g>
  </g>
</svg>