<?xml version="1.0" encoding="UTF-8"?>
<svg id="Calque_2" data-name="Calque 2" xmlns="http://www.w3.org/2000/svg" viewBox="0 0 297.42 293.43">
  <defs>
    <style>
      .cls-1 {
        fill: #85a57e;
      }
    </style>
  </defs>
  <g id="Calque_1-2" data-name="Calque 1">
    <path class="cls-1" d="M265.56,56.26c30.64,25.58,40.58,74.78,23.66,110.99-11.24,24.05-28.92,34.73-42.85,53.15-4.86,6.43-7.12,16.42-12.29,23.71-12.56,17.7-45.02,38.92-66.07,43.93-85.81,20.4-160.89-17.19-159.6-111.58.24-17.58-1.83-15.92-3.84-30.2C-4.94,78.62,73.79,41.21,130.92,49.91c2.67.41,5.32,2.96,8.62,3.45,16.56,2.41,46.63-22.55,66.86-15.95C154.64-4.02,70.02.4,27.52,53.55L.42,95.42c-3.04-18.65,11.07-38.52,22.9-52.07C67.75-7.6,146.36-12.07,203.1,21.72c5.7,3.4,11.55,10.96,17.86,14.14,15.49,7.81,28.87,7.26,44.6,20.4ZM236.38,107.42c3.51-14.11-8.96-59.52-23.41-63.63-11.24-3.2-40.59,6.61-51.21,12-8.78,4.45-19.3,16.4-29.34,15.64-5.94,7.98,18.94.19,21,.02,26.16-2.13,55.33,2.79,74.06,21.85l8.9,14.12ZM247.59,54.27c-1.79-1.08-19.65-11.84-17.17-3.88.81,2.6,4.63,6.19,6.02,9.99,10.14,27.8,5.86,36.2,7.92,62.04.56,6.99,4.56,14.73,5.75,22.29,2.66,16.99,1.09,31.38,2.29,47.74.22,2.98-1.55,5.79,2.98,4.96,17.45-18.5,33.94-46.9,33.13-73.04s-18.57-56.58-40.91-70.1ZM133.4,55.43c-9.21-1.37-23.97,0-34,0-14,0-48.68,16.73-59.96,26.04-17.6,14.54-36.13,43.04-25.01,66.57,3.97,8.4,9.57-8.23,10.77-9.83,15.22-20.22,35.23-33.96,57.8-45.18,9.41-4.68,22.88-7.53,30.89-12.9s15.43-16.99,24.5-21.71c.29-.55-4.48-2.91-4.99-2.99ZM201.3,192.31c14.05-14.54,33.26-47.25,32.38-67.58-.61-14.24-19.89-33.68-32.71-38.88-21.79-8.84-63.18-5.31-84.38,4.78-14.76,7.02-38.47,41.59-42.84,57.16-8.93,31.85,2.28,56.68,29.69,73.6,31.36,19.35,75.21-5.63,97.86-29.07ZM92.4,99.45c-2.87-2.56-37.77,21.24-42.02,24.96-7.01,6.13-27.57,31.58-27.87,40.01-.19,5.33,19.04,28.09,23.78,32.12,8.77,7.46,25.11,13.96,35.08,20.93l-16.76-25.63c-4.23-16.1-4.33-32.11,1.32-47.88,5.65-15.75,19.29-29.66,26.48-44.5ZM237.81,212.87c7.43-9.34,5.9-49.31,4.03-61.89-.3-2.01-.58-7.97-3.42-7.53-8.68,37.52-45.09,74.6-80.25,88.75-1.88.76-21.2,3.19-15.76,7.22.76.56,16.41,1.82,18.78,1.81,17.31-.08,39.26-5.34,54.58-13.44,3.58-1.89,20.29-12.71,22.05-14.93ZM41.57,202.26c-7.85-6.51-13.73-13-20.67-20.36-.99-1.04-1.58-5.88-3.53-.51-1.68,4.62-1.43,11.96-.79,16.88,1.87,14.41,10.61,33.92,19.01,44.97,17.8,23.41,45.14,38.49,73.75,40.26,41.99,2.59,85.32-7.63,113.86-40.28,4.27-4.89,7.5-17.31,1.25-11.74-.23.2.45,2.68-.56,3.38-1.24.87-24.87,12.27-26.39,12.73-49.35,14.98-117.92-13.85-155.93-45.33Z"/>
  </g>
</svg>