<?xml version="1.0" encoding="UTF-8"?>
<svg id="Calque_2" data-name="Calque 2" xmlns="http://www.w3.org/2000/svg" viewBox="0 0 483.05 185.73">
  <defs>
    <style>
      .cls-1 {
        fill: #edb468;
      }

      .cls-2 {
        fill: #85a57e;
      }

      .cls-3 {
        fill: #51514a;
      }
    </style>
  </defs>
  <g id="Calque_1-2" data-name="Calque 1">
    <g>
      <path class="cls-3" d="M27.19,171.54c2.52-.29,5.27.62,7.78-.2,2.02-11.01,34.72-85.21,39.4-85.94,9.08-1.43,13.18,16.31,17.22,22.75,13.65,21.77,29.68,42.54,37.62,67.4l48.95-88.01c3.03-3.07,9.1-3.1,12.09-.04,6.7,15.37,14.8,30.27,23.32,44.67,4.13,6.98,24.59,41.73,28.65,43.36,3.64,1.46,3.05-2.33,3.92-3.92,4.97-9.04,10.42-19.05,14.84-27.67,6.69-13.05,13.17-33.24,20.57-45.02s11.04,2.97,13.99,7.29c8.41,12.3,18.18,23.66,24.83,37.16l20.82,26.18c-.88,1.25,2.51,5.57-6,4-19.73-20.73-29.67-42.46-45.54-65.4-.93-1.35-1.32-5.81-4.43-2.6-.79.82-6,17.96-7.63,21.39-3.52,7.43-27.62,55.92-30.39,57.64s-5.12,1.31-7.97-.03c-12.41-5.83-34.35-51.48-42.28-65.31-3.97-6.92-11.35-14.86-11.77-23.69l-49.92,89.08c-2.6,1.62-5.46,1.34-8.1-.02-3.4-1.76-16.66-20.86-18.78-25.24-8-16.5-12.52-28.91-22.22-45.78-4.65-8.08-5.98-22.33-13.35-11.43-14.35,21.21-22.34,50.42-35.61,73.39l-6,2c-2.78-.72-4.92-.97-8-2v-4c1.31-.19,2.7.15,4,0Z"/>
      <path class="cls-3" d="M193.19,15.54c15.29,18.41,21.78,41.98,32.63,60.46,3.86,6.58,7.26,14.74,13.34,19.53,9.35-22.84,18.38-49.47,29.7-71.32,2.38-4.59,11.72-25.04,18.23-20.59,11.73,21.54,22.08,43.9,33.34,65.67,4.81,9.29,12.65,19.6,16.76,28.24,1.03,2.17,1.09,5.59,2,8-.51.44,1.1,4.17-.99,3.99-3.55-3.78-7.76-6.96-10.68-11.32-11.39-17-29.68-51.76-38.33-70.67-1.42-3.11-1.28-10.86-4.99-13.99l-11.01,21.99c-11.43,18.32-16.5,45.28-26.89,64.1-1.3,2.36-2.13,5.97-5.75,5.68-10.29-.82-32.18-45.04-37.07-55.06-5.15-10.58-9.7-21.88-14.28-32.72.92-.26,2.4-2.09,4-2Z"/>
      <path class="cls-3" d="M471.19,121.54c1.4,5.31.26,14.01,8,14,.36.99-.32,2.85,0,4h-6c-21.28-38.54-36.84-81.62-58-120-1.47-2.66-1-7.75-5-9.96-12.59,12.37-21.06,27.75-31,41.96-8.96,12.82-17.42,26.39-28,38,.56-2.19-.52-5.71,0-8,2.59-11.41,27.74-46.21,36.05-56.95,2.72-3.51,17.31-21.91,19.44-23.02,13.08-6.83,13.99,10.37,18.09,17.39,18.21,31.15,37.13,67.33,46.42,102.58Z"/>
      <path class="cls-3" d="M75.19,9.54c.37-.11,2.52-3.27,3.98-2,.49.43,1.39,7.51,2.02,8-.65,3.92.08,4.65,4,4,.35.43,6.06.6,9.73,5.28,5.82,7.41,21.09,43.69,26.83,55.23s2.2,26.48,14.25,9.32c15.17-21.59,28.16-47.32,41.18-69.82,1.27-.17,2.83.26,4,0-.5,6.19-3.87,12.88-6.57,18.43-7.17,14.69-17.97,35.91-26.6,49.4-1.75,2.74-12.48,18.82-13.34,19.63-11.35,10.59-17.1-16.99-21.16-24.79-10.99-21.1-26.8-43.35-36.33-64.67-1.01-2.26-1.13-5.54-2-8Z"/>
      <path class="cls-3" d="M439.19,141.54c2.41,4.99,4.41,10.68,6.03,16,1.25.93,8.58-5.53,9.97-6,2.36-.79,7.46.75,10,0,.55,1.86,2.31,1.99,4,2,1.16,5.13-2.65,3.91-5.79,5.11-6.11,2.33-18.34,9.12-23.39,5.07l-37.82-76.14-21.34,34.68-5.66,5.28h-6c6.54-10.26,13.21-21.47,19.93-31.51,4.95-7.41,7-23.51,18.14-13.54,7.57,6.78,26.29,47.36,31.94,59.05Z"/>
      <path class="cls-2" d="M75.19,9.54c.87,2.46.99,5.74,2,8-3.46,2.72-4.56,7.25-8,10-.34.27-6.77-2.7-2,4-.73.8-1.32,1.31-2,2-9.97,10.21-16.86,23.43-23.72,37.28-10.16,20.54-22.13,46.76-29.8,68.2-1.82,5.09-6.65,17.25-4.48,20.52,4.84,7.31,15.79,4.04,20,12-1.3.15-2.69-.19-4,0v4c-1.69-.56-4.49.42-7.85-1.07-1.35-.6-14.84-10.1-15.26-10.94-.46-.93,1.05-16.32,1.57-18.52C6.44,124.94,46.72,43.85,58.85,24.2c5.84-9.46,5.56-11.49,16.34-14.66Z"/>
      <path class="cls-2" d="M375.19,127.54l-3.95,9.03c-8.72,9.13-18.24,32.91-26.65,40.34s-7.97-1.86-9.41-3.37c8.51,1.57,5.12-2.75,6-4,9.29-13.26,19.3-28.35,28-42h6Z"/>
      <path class="cls-2" d="M351.19,89.54c-3.17,12.49-4.81,9.87-12,16-.91-2.41-.97-5.83-2-8l14-16c-.52,2.29.56,5.81,0,8Z"/>
      <path class="cls-2" d="M479.19,139.54c.21.76,3.42,2.67,3.77,5.34,1.02,7.76-7.66,8.69-13.77,8.66-1.69,0-3.45-.14-4-2,.18-.05.88-2.07,2.33-2.82,5.31-2.71,6.83.35,5.67-9.18h6Z"/>
      <path class="cls-2" d="M193.19,15.54c-1.6-.09-3.08,1.74-4,2-2.39.68-5.56,1.46-8,2-1.17.26-2.73-.17-4,0,1.26-2.18-.12-10.04,5.32-11.79,8.87-2.86,8.49,5.17,10.68,7.79Z"/>
      <path class="cls-2" d="M479.19,135.54c-7.74,0-6.6-8.69-8-14,5.37,2.66,6.17,8.99,8,14Z"/>
      <path class="cls-2" d="M81.19,15.54c.58.45,3.48-.52,4,0s-.45,3.44,0,4c-3.92.65-4.65-.08-4-4Z"/>
      <path class="cls-1" d="M77.19,17.54c9.53,21.32,25.34,43.57,36.33,64.67,4.06,7.8,9.81,35.38,21.16,24.79.87-.81,11.59-16.89,13.34-19.63,8.63-13.49,19.43-34.72,26.6-49.4,2.71-5.54,6.07-12.24,6.57-18.43,2.44-.54,5.61-1.32,8-2,4.58,10.84,9.13,22.14,14.28,32.72,4.88,10.02,26.77,54.25,37.07,55.06,3.63.29,4.45-3.32,5.75-5.68,10.4-18.82,15.47-45.77,26.89-64.1,5.09-8.16,4.77-9.25,16-8,8.65,18.91,26.94,53.66,38.33,70.67,2.92,4.36,7.13,7.54,10.68,11.32,2.09.18.48-3.55.99-3.99,7.19-6.13,8.83-3.51,12-16,10.58-11.61,19.04-25.18,28-38,1.71,4.42,12.85-6.11,13.33-6.68,2.1-2.55,7.59-16.78,9.7-17.31l8.95,5.99,4.02-14c21.16,38.38,36.72,81.46,58,120,1.16,9.54-.36,6.48-5.67,9.18-1.46.74-2.15,2.76-2.33,2.82-2.54.75-7.64-.79-10,0-2.28-3.67-7.68-20.52-10-10.98-1.49,6.11-2.51,2.77-6,.98-5.65-11.69-24.37-52.27-31.94-59.05-11.13-9.97-13.18,6.13-18.14,13.54-6.71,10.05-13.38,21.26-19.93,31.51-8.7,13.65-18.71,28.74-28,42l-20.82-26.18c-6.65-13.5-16.42-24.86-24.83-37.16-2.95-4.32-6.47-19.26-13.99-7.29s-13.88,31.96-20.57,45.02c-4.42,8.62-9.87,18.63-14.84,27.67-.87,1.59-.28,5.38-3.92,3.92-4.06-1.63-24.52-36.39-28.65-43.36-8.52-14.39-16.63-29.3-23.32-44.67-2.99-3.06-9.06-3.04-12.09.04l-48.95,88.01c-7.94-24.85-23.98-45.63-37.62-67.4-4.04-6.44-8.14-24.18-17.22-22.75-4.68.74-37.39,74.94-39.4,85.94-2.51.82-5.26-.09-7.78.2-4.21-7.96-15.16-4.69-20-12,4.12-3,4.44-7.74,6-12,2.18-1.47,3.04-3.7,4-6,7.15-17.05,13.89-34.56,21.65-51.35,8.72-18.89,20.82-36.37,26.35-56.65.68-.69,1.27-1.2,2-2,.41-.45-.17-3.43,2-4,3.44-2.75,4.54-7.28,8-10Z"/>
      <path class="cls-3" d="M65.19,33.54c-5.53,20.28-17.63,37.76-26.35,56.65-7.75,16.79-14.5,34.3-21.65,51.35-3.71.88-3.1,3.53-4,6-1.56,4.26-1.88,9-6,12-2.17-3.27,2.66-15.43,4.48-20.52,7.67-21.45,19.64-47.66,29.8-68.2,6.86-13.86,13.75-27.08,23.72-37.28Z"/>
      <path class="cls-3" d="M69.19,27.54c-2.17.57-1.59,3.55-2,4-4.77-6.7,1.66-3.73,2-4Z"/>
      <path class="cls-2" d="M13.19,147.54c.9-2.47.29-5.12,4-6-.96,2.3-1.82,4.53-4,6Z"/>
    </g>
  </g>
</svg>