<?xml version="1.0" encoding="UTF-8"?>
<svg id="Calque_2" data-name="Calque 2" xmlns="http://www.w3.org/2000/svg" viewBox="0 0 187.9 185.28">
  <defs>
    <style>
      .cls-1 {
        fill: #4f87b9;
      }

      .cls-2 {
        fill: #7cbfdd;
      }
    </style>
  </defs>
  <g id="Calque_1-2" data-name="Calque 1">
    <g>
      <path class="cls-1" d="M175.65,31.75l-6,.02c-.79.64,2.1,2.88,2,3.98-.82,8.67-41.82,49.01-41.51,53.02,14.21,14.15,30.31,26.84,44.54,40.88,2.27,2.24,15.17,13.91,12.97,16.07-8.15-2.06-10.49,9.46-12.54,11.37-1.92,1.8-5.66,1.25-9.51,5.61-2.73,3.09-5.6,12.41-6.2,12.79-12.04,7.65-50.02-39.55-60.76-45.72-9.54,6.44-44.28,55.2-51.58,55.48-8.89.34-6.57-5.74-9.46-8.4-2.05-1.88-8.87-3.85-12.91-7.16-3.44-2.82-14.33-11.78-14.48-15.19-.59-13.4,33.87-47.15,45.42-55.79L12.35,63.05c-1.59-5.18-10.2-9.85-11.77-13.38-4.67-10.51,20.19-29.75,26.22-38.03,4.3-.38,17.66,10.84,22.45,13.95,1.9,1.23,5.47.82,7.11,1.97,1.77,1.24,1.83,5.64,4.12,8.32,3.77,4.42,22.24,16.77,28.07,15.92C100.27,50.1,131.47-2.13,142.35.07c1.6.32,22.78,16.43,25.08,18.9,2.84,3.05,7.75,8.67,8.21,12.79ZM131.65,19.75c-8.65,5.89-12.73,15.29-19.92,23.03-2.74,2.95-21.22,21.12-23.12,21.1-4.45-.05-3.8-4.68-6.36-6.23-4.8-2.92-10.84-4.09-17.23-8.28-9.82-6.44-24.92-26.32-33.38-27.62-4.32-.67-4.84.32-8,2-4.87,2.59-8.49,9.09-12,14-1.7,2.37-4.28,4.39-5.76,7.01,1.09,2.57,4.13,3.43,5.76,4.99,15.9,15.17,32.33,31.45,52.12,41.11.44,4.03-4.68,15.15-7.26,18.75-6.26,8.78-21.72,24.95-29.8,34.27-2.7,3.11-9.92,4.68-8.69,10.56,1.1,5.24,14.02,10.69,18.4,13.61,3.49,2.33,2.68,8.38,9.88,5.4l34.05-38.99c20.33-19.11,20.45-11.61,39.73,3.29,8.15,9.18,18.13,20.96,30.09,26.47,9.51,4.38,9.17-5.39,15.46-12.92,2.37-2.84,8.55-4.32,7.88-8.31-8.76-11.94-52.34-42.66-51.69-56.3.27-5.66,40.39-47.8,45.53-56.27l.22-4.58c-7.6.37-16.75-11.66-21.92-12.09v-2c-.4-.95-1.28-1.38-2-2-.58-.5-.17-3.12-3.94-1.98l-8.06,11.98Z"/>
      <path class="cls-2" d="M175.65,31.75c.42,3.75-.09,4.5-4,4,.1-1.1-2.79-3.34-2-3.98l6-.02Z"/>
      <path class="cls-2" d="M145.65,13.75c5.17.43,14.32,12.47,21.92,12.09l-.22,4.58c-5.14,8.48-45.26,50.62-45.53,56.27-.65,13.64,42.93,44.36,51.69,56.3.67,3.99-5.51,5.47-7.88,8.31-6.29,7.53-5.96,17.3-15.46,12.92-11.95-5.51-21.94-17.29-30.09-26.47-19.28-14.9-19.4-22.4-39.73-3.29l-34.05,38.99c-7.21,2.98-6.39-3.07-9.88-5.4-4.38-2.92-17.3-8.38-18.4-13.61-1.23-5.88,5.99-7.45,8.69-10.56,8.08-9.32,23.53-25.49,29.8-34.27,2.57-3.6,7.7-14.72,7.26-18.75-19.79-9.66-36.22-25.93-52.12-41.11,3.27-2.01,3.21-10.11,0-12,3.51-4.91,7.13-11.41,12-14l5.03,5.98h2.96s.01-7.98.01-7.98c8.46,1.3,23.55,21.18,33.38,27.62,6.38,4.19,12.43,5.36,17.23,8.28,2.56,1.56,1.92,6.19,6.36,6.23,1.9.02,20.38-18.16,23.12-21.1,7.19-7.74,11.27-17.14,19.92-23.03,3.48-2.37,9.87-6.34,14-6Z"/>
      <path class="cls-2" d="M145.65,11.75l-2-2c.72.62,1.6,1.05,2,2Z"/>
    </g>
  </g>
</svg>