<?xml version="1.0" encoding="UTF-8"?>
<svg id="Calque_2" data-name="Calque 2" xmlns="http://www.w3.org/2000/svg" viewBox="0 0 234.4 226.31">
  <defs>
    <style>
      .cls-1 {
        fill: #edb468;
      }
    </style>
  </defs>
  <g id="Calque_1-2" data-name="Calque 1">
    <path class="cls-1" d="M205.81,53.93h1.95c-1.1-4.3,2.73-5.67,6.14-3.1,2.13,1.61,2.68,9.96,4.4,13.6,5.95,12.56,13.47,18.77,15.33,34.68,8.54,73.2-55.11,132.56-126.82,126.82-12.01-.96-23.92-3.04-35.49-4.32-8.18-.91-21.78-8.62-28.48-13.7C-7.99,169.34-10.44,94.95,19,42.16c7.32-13.13,21.5-35.59,39.47-29.88,11.48,3.65-5.67,13.2-7.76,15.59-36.97,42.37-42.04,106.49-3.95,150.1,14.53,16.63,15.5,11.25,33.87,14.13,20.47,3.22,33.92,7.07,55.69,3.37,56.61-9.62,88.17-61.35,69.55-116.61C193.69,42.76,126.71,7.94,92.76,29.92c-29.43,19.06-42.04,65.43-36.5,98.55,4.08,24.44,39.41,34.63,60.61,33.55,41.54-2.13,75.83-44.65,44.87-81.03-20.3-23.85-62.42-13.82-64.1,17.91-1.47,27.67,25.23,42.86,36.16,12.09-.84-4.3-14.29-1.3-15.64-8.34-2.06-10.72,21.39-13.01,29.38,2.55,19.23,37.45-47.11,56.86-64.15,18.15-2.53-5.75-7.07-22.62-7.43-28.71-1.24-21.22,32.86-40.65,51.04-42.47,25.05-2.5,54.32,15.86,60.28,41.28,19.06,81.25-113.66,130.09-145.57,33.57-8.65-26.15-7.44-49.7,6.7-73.46C64.92,25.81,91.81,3.5,124.99.16c14.45-1.46,47.52,6.91,56.75,18.83,2.38,3.08,1.71,7.03,3.18,8.82,6.34,7.72,19.07,16.53,20.89,26.12ZM179.77,33.94c4.51-4.4-27.71-23.22-33.98-19.98-.57,7.65,7.68,4.99,11.89,7.09,2.08,1.04,20.35,14.59,22.09,12.89ZM182.78,33.95v2c1.3-.67,1.3-1.33,0-2Z"/>
  </g>
</svg>