<?xml version="1.0" encoding="UTF-8"?>
<svg id="Calque_2" data-name="Calque 2" xmlns="http://www.w3.org/2000/svg" viewBox="0 0 199.97 205.44">
  <defs>
    <style>
      .cls-1 {
        fill: #edb468;
      }

      .cls-2 {
        fill: #85a57e;
      }

      .cls-3 {
        fill: #51514a;
      }
    </style>
  </defs>
  <g id="Calque_1-2" data-name="Calque 1">
    <g>
      <path class="cls-3" d="M24.22,35.44c23.52,2.69,43.48,22.01,66.73,28.17L120.69,1.9c9.48-7.92,46.91,10.85,47.05,20.07.22,14.23-31.87,63.75-29.42,67.3,18.36,9.91,38.86,20.25,54.66,33.39,2.19,1.82,7.71.93,6.91,5.31-3.68,9.27-10.22,39.82-22.6,39.58-1.26-.02-1.09-3.51-2.41-4.14-4.12-1.98-8.95-2.08-13.41-4.23-8.38-4.04-25.88-12.69-29.26-19.74-.25-.52.34-1.61-1-1.96l-1,1.96-17.72-1.71c-5.23,8.9-27.3,64.16-33.5,65.24-5.08.88-15.27-3.76-20.76,2.47-.42-12.6-23.36-15.91-22.03-28.82l33.97-67.08c-6.9-2.55-15.11-5.92-21.44-9.54-2.42-1.39-2.62-3.77-3.95-4.55-7.47-4.37-42.38-21.06-44.54-27.07-1.28-3.9,2.56-2.28,4-4.36,2.11-3.04,4.15-7.28,5.96-10.58.76-1.38,1.32-2.6,2-4,2.2-4.49,0-8.59,8-10,.58-.1,1.4-.06,2,0-1.33,7.59-14.62,22.61-10.21,29.07l68.18,40.07c-9.59,24.48-26.92,46.72-34.13,71.6l33.05,13.33,31.33-67.83c5.52-3.51,13.55,5.72,16.31,6.96,1.35.61,3.62-.22,6.09.94,7.14,3.35,44.96,24.75,49.22,21.7-.76-5.84,13.19-24.24,12.14-25.81l-65.84-35.31c-.98-2.92.45-5.56,1.38-8.2,3.47-9.81,22.92-48.94,28.75-57.25,2.89-4.12,6.34-3.84,7.71-7.26-7.08,1.04-31.44-17-35.83-13.89l-32.19,67.85c-3.3,2.92-66.69-29.11-73.97-35.99-.07-1.32.11-2.68,0-4Z"/>
      <path class="cls-2" d="M20.22,39.44c-1.67-7.72,3.26-13.1,4-4,.11,1.32-.07,2.68,0,4-.66-.05-1.34.06-2,0-.6-.06-1.42-.1-2,0Z"/>
      <path class="cls-2" d="M12.22,49.44c-.68,1.4-1.24,2.62-2,4l-1.98-1.02.09-2.88,3.89-.1Z"/>
      <path class="cls-1" d="M132.22,139.44h-2l1-1.96c1.34.35.75,1.44,1,1.96Z"/>
      <path class="cls-1" d="M24.22,39.44c7.28,6.88,70.67,38.91,73.97,35.99L130.38,7.57c4.39-3.12,28.75,14.93,35.83,13.89-1.37,3.42-4.82,3.14-7.71,7.26-5.83,8.31-25.28,47.44-28.75,57.25-.93,2.64-2.36,5.27-1.38,8.2l65.84,35.31c1.05,1.57-12.9,19.97-12.14,25.81-4.26,3.05-42.09-18.35-49.22-21.7-2.47-1.16-4.74-.33-6.09-.94-2.77-1.24-10.8-10.47-16.31-6.96l-31.33,67.83-33.05-13.33c7.21-24.88,24.53-47.13,34.13-71.6L12.01,68.51c-4.41-6.46,8.88-21.48,10.21-29.07.66.06,1.34-.05,2,0Z"/>
    </g>
  </g>
</svg>