<?xml version="1.0" encoding="UTF-8"?>
<svg id="Calque_2" data-name="Calque 2" xmlns="http://www.w3.org/2000/svg" viewBox="0 0 207.73 214.17">
  <defs>
    <style>
      .cls-1 {
        fill: #85a57e;
      }

      .cls-2 {
        fill: #51514a;
      }

      .cls-3 {
        fill: #4f87b9;
      }

      .cls-4 {
        fill: #7cbfdd;
      }
    </style>
  </defs>
  <g id="Calque_1-2" data-name="Calque 1">
    <g>
      <path class="cls-2" d="M203.7,145.94c-4.67,10.48-9.73,33.48-24.79,31.44l-63.2-35.43c.22,3.33-.3,6.34-1.57,9.43-2.93,7.16-30.32,61.78-33.77,62.65-7.9,2.01-45.71-18.39-46.81-23.46-2.34-10.76,34.41-59.63,34.29-75.5C58.7,109.11,3.28,79.33.63,73.93c-4.4-8.95,15.73-36.34,20.28-45.84l74.77,41.85c2.31-12.35,11.76-22.91,17.56-33.47,7.14-13,9-27.19,23.47-36.47,8.15,12.08,39.21,12.77,36.6,30.51-.37,2.48-11.68,25.81-13.88,30.16-1.56,3.08-5.27,5.04-7.23,8.77s-11,22.89-10.32,25.19c7.61,6.95,17.52,10.37,26.3,15.42,14.64,8.42,17.28,9.7,29.52,21.9.23,1.91-.34,4.23,0,6-1.99.72-1.55,2.5-2,4-2.67-1-2.69-3.85-5.4-5.52-3.07-1.89-8.05-2.88-10.6-4.48-2.04-1.28-4.66-3.91-8-6-3.09-1.93-6.55-3.05-8-4-10.83-7.12-23.97-15.7-32.08-25.05,3.02-15.75,12.51-28.89,18.08-44.95,5.68-2.53,5.86-9.43,8-14,1.91-4.08,8.34-9.05,5.12-14.03-2.71-4.18-23.96-13.7-29.79-8.13-7.45,6.53-29.16,63.61-32.7,64.28-8.64,1.65-11.07-4.39-15.12-6.75-14.42-8.39-28.1-18.99-43.51-25.38l-15.25-9.88c-4.12-1.42-2.31,3.45-2.75,3.88-.22.22-2.82-.46-4.1,1.36-1.4,1.99-1.05,5.1-1.9,6.64-1.12,2.03-3.69,9.5-4,10-.94,1.5-3.2-4-4,8-.02.24-1.96,1.14-1.68,2.66.86,4.68,13.15,7.92,17.68,9.34,10.69,7.37,22.57,13.19,34,20,6.32,3.77,12.29,9.67,20,12,.26.83.05,2.82,0,4-8.02,7.87-12.23,21.45-16,32-5.55,10.21-11.25,20.21-16.43,30.66-1.22,2.45-1.32,7.06-1.57,7.34-.46.51-4.18-1.1-3.99.99,5.91,5.19,12.54,9.09,19.61,12.47,2.22,1.06,5.29.09,6.38.54,1.37.57,2.67,1.35,4,2,1.16.57,1.84,5.58,5.96,3.99l4.04-11.99c13.99-19.37,18.03-45.49,36-60h4c18.13,8.06,37.71,25.95,56,32,1.79.59,3.52,2.58,5.81,1.91,3.48-9.22,9.3-16.29,12.19-25.91.94.35,2.77-.24,4,0,.75,1.38,2.89,2.7,4,4Z"/>
      <path class="cls-1" d="M203.7,145.94c-1.11-1.3-3.25-2.62-4-4-.62-1.14-1.8-2.96-2-4-.34-1.77.23-4.09,0-6,1.26,1.26,8.32,1.91,9.78,7.42,1.36,5.1-3.43,5.79-3.78,6.58Z"/>
      <path class="cls-3" d="M157.7,37.94c-8.01-.16-6.3,9.11-8,14-5.57,16.06-15.06,29.2-18.08,44.95,8.11,9.35,21.25,17.93,32.08,25.05l2.02,7.99c3.31.69,4.71-1.11,5.98-3.99,3.34,2.09,5.96,4.72,8,6l-2.99,4.01c5.98-2.55,12.95,3.17,13.1,8.9.03,1.04-2.8,1.02-3.3,1.89-1.03,1.78-.64,4.26-2.04,5.37-3.04,2.41-13.85,1.84-2.73,6.83l-4.03,6.99c-18.29-6.05-37.87-23.94-56-32,2.37.14,2.24-1.84,1.99-3.99-7.72-1.9-5.39,3.5-5.99,3.99-17.97,14.51-22.01,40.63-36,60-2.99,4.14-3.82,9.89-10,8-1.33-.65-2.63-1.43-4-2l-5.99-4.01c5.4-10.32-5.3-7.18-4.03-15.98-4.6,1.33-5.15,11.95-11.98,5.99.25-.28.35-4.89,1.57-7.34,5.18-10.45,10.88-20.45,16.43-30.66,2.57-4.72,6.19-6.83,7.58-9.34,1.96-3.53,8.27-18.9,8.42-22.66.05-1.18.26-3.17,0-4-1.55-4.97-14.31-12.51-20-12-11.43-6.81-23.31-12.63-34-20-5.5-3.79-10.89-7.69-16-12,.8-12,3.06-6.5,4-8,3.29.35,6.1-.16,8-3.05l-4-6.95c.85-1.54.49-4.65,1.9-6.64,1.28-1.82,3.89-1.15,4.1-1.36,5.57,2.31,12.68,3.8,18,6,15.41,6.39,29.09,16.99,43.51,25.38,4.05,2.36,6.47,8.4,15.12,6.75,3.54-.68,25.25-57.75,32.7-64.28,5.83-5.58,27.08,3.95,29.79,8.13,3.22,4.98-3.21,9.95-5.12,14.03ZM145.68,39.93l2.01-9.97c-1.16-2.59-4.9,7.25-3.96,9.97h1.96ZM125.7,61.95h-3.98s0,7.98,0,7.98h1.95s2.02-7.98,2.02-7.98ZM57.7,71.92c-1.73-4.48-7.57-6.22-12-5.96,1.73,4.48,7.57,6.22,12,5.96ZM79.7,83.97c-.26-.32-7.59-2.4-7.98-2.02-4.78,4.67,13.44,8.72,7.98,2.02ZM121.69,123.95c-2.18-2.18-6.16,1.8-3.98,3.98s6.16-1.8,3.98-3.98Z"/>
      <path class="cls-4" d="M179.7,131.94c2.56,1.6,7.53,2.58,10.6,4.48,2.7,1.67,2.73,4.52,5.4,5.52.45-1.5.01-3.28,2-4,.2,1.04,1.38,2.86,2,4-1.23-.24-3.06.35-4,0-2.88,9.62-8.71,16.68-12.19,25.91-2.29.67-4.02-1.31-5.81-1.91l4.03-6.99c-11.12-4.98-.31-4.41,2.73-6.83,1.4-1.11,1.01-3.59,2.04-5.37.51-.87,3.33-.86,3.3-1.89-.15-5.73-7.12-11.45-13.1-8.9l2.99-4.01Z"/>
      <path class="cls-4" d="M45.7,185.94c6.83,5.96,7.38-4.66,11.98-5.99-1.27,8.8,9.43,5.66,4.03,15.98l5.99,4.01c-1.09-.45-4.16.52-6.38-.54-7.07-3.38-13.7-7.27-19.61-12.47-.18-2.1,3.53-.48,3.99-.99Z"/>
      <path class="cls-4" d="M79.7,115.94c-.15,3.76-6.45,19.13-8.42,22.66-1.39,2.51-5.02,4.62-7.58,9.34,3.77-10.55,7.98-24.13,16-32Z"/>
      <path class="cls-4" d="M157.7,37.94c-2.14,4.57-2.32,11.47-8,14,1.7-4.89-.01-14.16,8-14Z"/>
      <path class="cls-4" d="M41.7,47.94c-5.32-2.2-12.43-3.69-18-6,.44-.44-1.37-5.3,2.75-3.88l15.25,9.88Z"/>
      <path class="cls-4" d="M13.7,59.94c.31-.5,2.88-7.97,4-10l4,6.95c-1.9,2.89-4.71,3.4-8,3.05Z"/>
      <path class="cls-4" d="M171.7,125.94c-1.27,2.88-2.66,4.68-5.98,3.99l-2.02-7.99c1.45.95,4.91,2.07,8,4Z"/>
      <path class="cls-4" d="M25.7,79.94c-4.52-1.41-16.82-4.66-17.68-9.34-.28-1.52,1.66-2.42,1.68-2.66,5.11,4.31,10.5,8.21,16,12Z"/>
      <path class="cls-4" d="M59.7,99.94c5.69-.51,18.45,7.03,20,12-7.71-2.33-13.68-8.23-20-12Z"/>
      <path class="cls-4" d="M117.7,133.94c.6-.49-1.73-5.89,5.99-3.99.25,2.15.38,4.13-1.99,3.99h-4Z"/>
      <path class="cls-4" d="M81.7,193.94l-4.04,11.99c-4.12,1.59-4.8-3.42-5.96-3.99,6.18,1.89,7.01-3.86,10-8Z"/>
      <path class="cls-4" d="M57.7,71.92c-4.43.26-10.27-1.48-12-5.96,4.43-.26,10.27,1.48,12,5.96Z"/>
      <path class="cls-4" d="M79.7,83.97c5.46,6.7-12.76,2.65-7.98-2.02.39-.38,7.72,1.7,7.98,2.02Z"/>
      <polygon class="cls-4" points="125.7 61.95 123.68 69.92 121.72 69.93 121.71 61.95 125.7 61.95"/>
      <path class="cls-4" d="M121.69,123.95c2.18,2.18-1.8,6.16-3.98,3.98s1.8-6.16,3.98-3.98Z"/>
      <path class="cls-4" d="M145.68,39.93h-1.96c-.94-2.72,2.81-12.56,3.96-9.97l-2.01,9.97Z"/>
    </g>
  </g>
</svg>