<?xml version="1.0" encoding="UTF-8"?>
<svg id="Calque_2" data-name="Calque 2" xmlns="http://www.w3.org/2000/svg" viewBox="0 0 193.32 191.26">
  <defs>
    <style>
      .cls-1 {
        fill: #85a57e;
      }

      .cls-2 {
        fill: #51514a;
      }

      .cls-3 {
        fill: #7cbfdd;
      }
    </style>
  </defs>
  <g id="Calque_1-2" data-name="Calque 1">
    <g>
      <path class="cls-1" d="M45.83,9.27l-4,2c-4.06-2.12-3.12-7.46-8.93-6.08l-3.07,6.06c4.6-.55,7.83.31,12,2.02,5.53,2.27,8.18,6.43,12,10l-1.96.99c2.1,2.65,4.35,4.9,7.96,5.01,8.53,8.37,18.8,17.85,26.81,26.19,3.11,3.24,5.51,11.94,9.84,11.61,19.25-15.76,37-33.04,55.35-49.8l12-2c.65.69,1.37,1.26,2,2-2.44,6.84,4.96,6.59,5.99,9.02,1.98,4.64-4.38,1.23-3.98,4.96l9.99,8.02c-14.42,13.84-27.11,31.41-40.55,45.43-9.31,9.71-20.01,4.94-2.55,22.63,10.54,10.68,17.53,18.08,28.08,29.97,3.32,3.75,14.36,11.42,14.83,12.26,4.27,7.57-19.79,23.54-21.92,29.6l-2.78.03-12.16-9.86-41.43-43.51c-11.81-3.67-7.95,2.35-12.38,7.57-12.8,15.09-34.01,30.55-46.23,45.79-1.86,2.32-5.51,6.06-.91,8.1-.49.35,2.06,7.93-7.36,1.26-.88-.62-.47-3.16-.64-3.26,11.33-.35-5.56-10.49-7.05-11.95-2.89-2.82-17.27-16.09-16.8-18.78l55.94-60.28c0-4.26-33.75-32.5-38.09-43-.45-1.08.87-4.05-.32-5.63-2.58-3.43-13.4-1.36-11.68-16.37.79-6.86,9.89-11.65,13.99-17.01-.79-1.66-6.61-1.33-7.99-.99C24.41-.76,33.62-3.33,43.8,4.37c1.86,1.4,1.72,4.64,2.03,4.89Z"/>
      <path class="cls-2" d="M45.83,9.27c.81.67,4.88.71,6.04,2.87l45.02,45.09L157.32,1.62c5.69-1.18,25.49,18.66,29.53,23.63,8.7,10.72,8.85,12.32-.94,23.09l-50.06,45.95,48.46,51.49,1.53,7.47-6.02.02c4.81,6.87-1.11,13.5-5.92,18.61-1.7,1.8-4.5,1.15-5.34,1.98-5.73,5.73-10.88,17.53-20.67,12.23l-53.03-50.82c-12.87,17.2-29.48,30.65-45.18,44.86-2.05,1.86-2.96,5.52-4.48,6.61-1.78,1.28-4.89.18-5.37.51-4.6-2.04-.95-5.78.91-8.1,12.22-15.25,33.43-30.7,46.23-45.79,4.43-5.22.56-11.23,12.38-7.57l41.43,43.51,12.16,9.86,2.78-.03c2.13-6.05,26.19-22.02,21.92-29.6-.47-.84-11.51-8.52-14.83-12.26-10.54-11.89-17.54-19.28-28.08-29.97-17.45-17.69-6.76-12.92,2.55-22.63,13.44-14.02,26.13-31.59,40.55-45.43,2.22-2.13,7.43-.59,5.96-4.95-1.2-3.59-9.38-7.58-11.9-10.19-1.32-1.36-5.26-5.93-6.06-6.87-.63-.74-1.35-1.31-2-2-2.12-2.25-.62-7.43-4.95-5.97-2.59.87-5.16,6.25-7.05,7.97-18.34,16.75-36.1,34.04-55.35,49.8-4.33.34-6.73-8.37-9.84-11.61-8.01-8.34-18.28-17.82-26.81-26.19-1.99-1.95-4-4.13-6-6-3.82-3.57-6.47-7.73-12-10v-2l4-2Z"/>
      <path class="cls-2" d="M7.83,35.27c6.41,4.39,10.55,14.46,18,16,4.34,10.5,38.09,38.74,38.09,43L7.97,154.54c-.47,2.69,13.91,15.96,16.8,18.78,1.49,1.46,18.39,11.59,7.05,11.95-.78-.48-4.11.16-6.97-2-7.67-5.8-24.73-20.63-22.73-30.53,1.63-8.06,24.78-27.07,31.76-34.42,6.18-6.5,10.48-16.13,19.67-19.31l.38-2.69c-15.54-19.71-34.23-36.48-48.1-57.05.56-1.36,1.5-2.62,2-4Z"/>
      <path class="cls-2" d="M19.83,11.27c1.38-.34,7.2-.67,7.99.99-4.1,5.36-13.2,10.15-13.99,17.01-1.23-.23-3.05.35-4,0-1.28-.47-2.81-2.96-4-4,3.56-4.63,7.53-12.4,14-14Z"/>
      <path class="cls-1" d="M5.83,25.27c1.19,1.04,2.72,3.53,4,4-1.27,1.79-1.3,4.07-2,6-.5,1.38-1.44,2.64-2,4-2.23-3.31-9.13-3.51-3.93-12.52,1.29-2.24,3.8-1.31,3.93-1.48Z"/>
      <path class="cls-3" d="M165.83,17.27c.8.94,4.74,5.5,6.06,6.87,2.52,2.61,10.7,6.6,11.9,10.19,1.46,4.36-3.75,2.82-5.96,4.95l-9.99-8.02c-.4-3.73,5.96-.32,3.98-4.96-1.03-2.42-8.43-2.18-5.99-9.02Z"/>
      <path class="cls-3" d="M13.83,29.27c-1.72,15.01,9.11,12.95,11.68,16.37,1.19,1.58-.13,4.55.32,5.63-7.45-1.54-11.59-11.61-18-16,.7-1.93.73-4.21,2-6,.95.35,2.77-.23,4,0Z"/>
      <path class="cls-3" d="M41.83,13.27c-4.17-1.71-7.4-2.57-12-2.02l3.07-6.06c5.81-1.39,4.87,3.95,8.93,6.08v2Z"/>
      <path class="cls-3" d="M151.83,17.27c1.88-1.72,4.46-7.1,7.05-7.97,4.34-1.46,2.83,3.72,4.95,5.97l-12,2Z"/>
      <path class="cls-3" d="M59.83,29.27c-3.61-.12-5.86-2.36-7.96-5.01l1.96-.99c2,1.87,4.01,4.05,6,6Z"/>
    </g>
  </g>
</svg>