<?xml version="1.0" encoding="UTF-8"?>
<svg id="Calque_2" data-name="Calque 2" xmlns="http://www.w3.org/2000/svg" viewBox="0 0 130.71 357">
  <defs>
    <style>
      .cls-1 {
        fill: #85a57e;
      }

      .cls-2 {
        fill: #51514a;
      }
    </style>
  </defs>
  <g id="Calque_1-2" data-name="Calque 1">
    <g>
      <path class="cls-2" d="M122.08,1.06c.57.55-.26,3.71.8,4.97s3.57,1.84,4.15,2.89c2.82,5.13,5.34,16.77,2.27,21.87-2.52,4.18-42.5,17.59-50.08,21.91-5.98,3.41-31.96,25.62-35.05,30.93-13.57,23.34,38.89,38.44,52.86,45.36,14.74,7.29,32.3,23.06,33.13,40.92.4,8.53-13.32,30.46-19.97,35.76-19.22,15.33-40.53,17.5-61.12,26.89-2.32,1.06-3.63-.95-2.79,4.15l78.48,44c2.41,1.9,7.1,9.66,5.44,11.96-.21.28-4.67.92-6.6,2.34-15.75,11.65-71.7,56.77-85.31,60.79-2.1.62-4.49,1.54-6.67,1.08-1.9-.4-21.69-28.49-20.58-32.21,2.7-9.09,36.19-27.53,46.02-31.76,2.11-.39,1.53-3.4.94-4.88-2.69-6.79-41.39-26.9-48.58-35.46-28.46-52.65,33.23-57.14,64.66-77.01,7.58-4.79,9.05-11.2.9-16.54-16.29-10.66-44.68-10.36-58.82-27.17C-28.37,78.87,28.05,27.75,77.2,8.67c6.86-2.66,40.61-11.73,44.88-7.61ZM102.28,10.76h-7.99s0,3.97,0,3.97c3.73.52,6.92,0,7.99-3.97ZM92.27,14.76h-5.98v1.96h5.98v-1.96ZM115.28,20.74v2c1.3-.67,1.3-1.33,0-2ZM28.26,128.77c-10.89-2.09-10.38-11.77-13.6-19.41-1.21-2.86-3.49-9.57-6.36-10.61-2.9,7.42,4.53,10.94,5.32,12.6,1.45,3.07.92,6.62,2.89,10.15.69,1.24,10.16,13.33,11.75,7.26ZM30.26,106.73v-5.98h-1.96v5.98h1.96ZM106.27,148.75c-4.88-1.3-3.91,2.13-5.99,5.97h5.99s0-5.97,0-5.97ZM122.27,160.75h-3.98v5.98h3.98v-5.98ZM113.3,170.78c-3.58,3.3-5.75,9.15-6.04,13.92,4.42-3.16,5.99-8.76,6.04-13.92ZM122.27,288.76h-5.98v1.96h5.98v-1.96ZM40.27,344.75c-2.18-2.18-6.16,1.8-3.98,3.98s6.16-1.8,3.98-3.98Z"/>
      <path class="cls-1" d="M28.26,128.77c-1.6,6.07-11.06-6.02-11.75-7.26-1.97-3.53-1.44-7.08-2.89-10.15-.79-1.67-8.22-5.18-5.32-12.6,2.87,1.04,5.15,7.74,6.36,10.61,3.22,7.63,2.71,17.32,13.6,19.41Z"/>
      <path class="cls-1" d="M102.28,10.76c-1.07,3.98-4.26,4.49-7.99,3.97v-3.98s7.99,0,7.99,0Z"/>
      <path class="cls-1" d="M106.27,148.75v5.98s-5.99,0-5.99,0c2.08-3.84,1.11-7.27,5.99-5.97Z"/>
      <path class="cls-1" d="M113.3,170.78c-.05,5.16-1.62,10.76-6.04,13.92.29-4.77,2.45-10.62,6.04-13.92Z"/>
      <rect class="cls-1" x="118.29" y="160.75" width="3.98" height="5.98"/>
      <path class="cls-1" d="M40.27,344.75c2.18,2.18-1.8,6.16-3.98,3.98s1.8-6.16,3.98-3.98Z"/>
      <rect class="cls-1" x="116.29" y="288.76" width="5.98" height="1.96"/>
      <rect class="cls-1" x="28.3" y="100.75" width="1.96" height="5.98"/>
      <rect class="cls-1" x="86.29" y="14.76" width="5.98" height="1.96"/>
      <path class="cls-1" d="M115.28,20.74c1.3.67,1.3,1.33,0,2v-2Z"/>
    </g>
  </g>
</svg>