<?xml version="1.0" encoding="UTF-8"?>
<svg id="Calque_2" data-name="Calque 2" xmlns="http://www.w3.org/2000/svg" viewBox="0 0 244.95 231.77">
  <defs>
    <style>
      .cls-1 {
        fill: #edb468;
      }
    </style>
  </defs>
  <g id="Calque_1-2" data-name="Calque 1">
    <path class="cls-1" d="M96.12.04c1.08,5.46-1.36,3.43-4.04,4.85C45.87,29.36,8.89,87.85,23.52,141.63c27.9,102.55,168.89,97.2,200.02.82,19.88-61.54-23.41-132.15-91.43-117.43-49.63,10.75-81.72,54.26-69.39,105.41,9.9,41.06,51.4,51.23,87.44,36.64,2.58-1.04,22.52-12.75,24.03-14.41,5.11-5.59,14.76-28.1,15.71-35.85,3.84-31.3-9.03-44.65-39.29-48.26-18.2-2.17-39.99,7.6-44.04,26.94-3.73,17.8,19.66,48.72,34.45,28.45,13.63-18.67-6.05-19.28-6.89-22.93-2.17-9.4,20.22-4.89,26.41,7.59,13.09,26.4-26.17,47.43-49.81,37.81-43.55-17.74-34.61-74.49,3.98-92.78,24.6-11.66,46.02-8.97,66.36,8.45,64.28,55.05,10.6,141.79-67.66,137.26-9.49-.55-48.4-20.74-52.73-27.86-1.16-1.91-.37-5.42-1.64-7.28-9.36-13.65-14.01-18.69-14.98-37.08-1.68-31.7,12.5-76.85,36.25-97.89C112.97.28,177.61-8.66,209.15,26.01c34.33,37.73,50.35,114.05,18.95,156.99-20.19,27.6-39.32,31.81-70.42,39.58-26.44,6.6-43.25,12.63-72,6.91C39.81,220.36-.03,166.98,0,121.03.03,85.3,20.45,41.21,49.16,20.06,61.47,10.99,80.59-.75,96.12.04Z"/>
  </g>
</svg>