<?xml version="1.0" encoding="UTF-8"?>
<svg id="Calque_2" data-name="Calque 2" xmlns="http://www.w3.org/2000/svg" viewBox="0 0 167.89 177.53">
  <defs>
    <style>
      .cls-1 {
        fill: #85a57e;
      }

      .cls-2 {
        fill: #51514a;
      }

      .cls-3 {
        fill: #7cbfdd;
      }
    </style>
  </defs>
  <g id="Calque_1-2" data-name="Calque 1">
    <g>
      <path class="cls-1" d="M148.15,17.65l-1.98,8,5.98-4c.66.57,5.45.4,6.01,3.07.74,3.56-8.69,10,0,12.93-1.58.91-2.77,1.34-4,2-.6.32-3.09-.58-5.4.57-4.37,2.16-40.67,45.96-40.57,50.48.12,5.3,46.34,48.47,53.97,55.96-5.7,1.87-18.58,16.84-22.94,16.96-8.05.22-33.64-32.83-39.96-40.1-1.89-2.18-5.65-3.06-6.58-4.51-1.12-1.75-.22-5.03-.52-5.36-.48-.52-9.87,2.18-11.83,3.25-5.94,3.24-10.56,15.63-14.12,19.79-2.78,3.25-8.34,5.75-12.09,9.91-3.39,3.76-13.49,18.41-16.47,19.7-7.63,3.31-5.5-2.66-8.84-4.77-3.62-2.28-12.16-2.45-16.35-6.19l2.83-9.59c5.5-6.37,46.96-51.47,46.96-55.09,0-2.65-6.81-9.59-9.07-11.16s-4.78.34-4.9.12c-.68-1.25.51-5.18-1.11-7.91-1.14-1.94-5.15-2.8-7-5.04-7.65-9.26-15.85-17.28-23.97-26.03l-4.02,5.03c-2.8-3.42-3.58-4.61-6-8h3.99s-1.99-5.02-1.99-5.02l-1-.94-3,3.96c-.75-1.23-4.73-1.1-4.08-6.8.13-1.16,7.55-5.04,7.7-5.49.5-1.55-2.36-4.56-1.61-5.7.81-1.22,3.77,1.98,3.99,1.99l.98,3.98c3.91-.77,10.05-8.21,13.02-7.98,1.94.15,10.21,3.04,12,4,.79.43,1.33,1.55,2,2,1.33,6.22,6.47,6.73,8,8,6.81,5.68,23.98,25.17,30,26,10.16,24.56,32.61-16.76,40.95-26.05,5.07-5.65,11.27-9.35,17.05-15.95,1.12,4.35,5.13,1.13,6-2,1.25,1.42,5.7,3.96,8,6Z"/>
      <path class="cls-2" d="M12.15,45.65l4.02-5.03c8.13,8.75,16.33,16.77,23.97,26.03,1.85,2.24,5.86,3.1,7,5.04,1.61,2.74.43,6.67,1.11,7.91.12.22,2.6-1.73,4.9-.12s9.07,8.51,9.07,11.16c0,3.62-41.46,48.72-46.96,55.09l-2.83,9.59c4.19,3.74,12.74,3.9,16.35,6.19,3.34,2.11,1.21,8.08,8.84,4.77,2.98-1.29,13.08-15.95,16.47-19.7,3.75-4.16,9.31-6.66,12.09-9.91,3.56-4.15,8.18-16.54,14.12-19.79,1.96-1.07,11.35-3.77,11.83-3.25.3.33-.6,3.6.52,5.36.93,1.45,4.69,2.34,6.58,4.51,6.32,7.28,31.92,40.33,39.96,40.1,4.36-.12,17.23-15.09,22.94-16.96-7.63-7.5-53.84-50.67-53.97-55.96-.1-4.51,36.2-48.32,40.57-50.48,2.32-1.14,4.8-.25,5.4-.57.57,7.78-6.75,9.36-9.34,12.66-8.65,11.03-17.01,23.1-26.71,33.86-1.05,1.17-2.36,1.7-3.93,1.5v1.93c3.17.35,6.56,4.07,8.63,6.29,15.52,16.65,32.58,32.12,45.1,51.11l-22.13,26.21c-.77.63-1.67.6-2.61.66-15.09,1-43.98-40.34-56.13-50.17l-52.01,53.81c-12.03-8.37-39.02-16.66-28.6-34.63l45.6-52.52c-12.14-16.03-27.11-29.17-39.86-44.73Z"/>
      <path class="cls-2" d="M76.15,55.65c3.92.54,7.63.31,11.14-1.86,3.11-1.93,18.9-24.76,23.84-30.17,4.34-4.74,21.49-22.59,26.33-23.4,9.48-1.58,7.93,5.63,10.05,7.51,4.03,3.56,18.07,10.61,19.8,13.93,2.28,4.36-5.1,13.67-9.15,15.99-8.68-2.93.75-9.37,0-12.93-.56-2.67-5.35-2.5-6.01-3.07-1.13-.98-2.41-2.59-4-4-2.3-2.04-6.75-4.58-8-6-.54-.61,1.11-4.12-.99-3.99-2.32,1.5-3.4,4.15-5.01,5.99-5.77,6.6-11.98,10.3-17.05,15.95-8.34,9.29-30.79,50.61-40.95,26.05-6.02-.83-23.19-20.32-30-26-1.72-3.7-4.74-5.81-8-8-.67-.45-1.21-1.57-2-2-.99-5.17-6.24-5.09-4-12,11.93,7.77,38.92,35.72,44,48Z"/>
      <path class="cls-2" d="M24.15,15.65c-2.97-.23-9.11,7.21-13.02,7.98l-.98-3.98c2.56.09,4.83-5.98,7-8.05s5.31-2.57,7-3.95l1.61,1.25-1.61,6.75Z"/>
      <path class="cls-3" d="M32.15,7.65c-2.24,6.91,3.01,6.83,4,12-1.79-.96-10.06-3.85-12-4l1.61-6.75-1.61-1.25c1.74-1.41-3.97-7.79,8,0Z"/>
      <path class="cls-2" d="M4.15,35.65l3-3.96,1,.94,1.99,5.01h-3.99c-.49-.68-1.52-1.2-2-1.99Z"/>
      <path class="cls-3" d="M140.15,11.65c-.87,3.13-4.88,6.35-6,2,1.61-1.84,2.69-4.49,5.01-5.99,2.1-.13.45,3.38.99,3.99Z"/>
      <path class="cls-3" d="M46.15,29.65c-1.53-1.27-6.67-1.78-8-8,3.26,2.19,6.28,4.3,8,8Z"/>
    </g>
  </g>
</svg>