<?xml version="1.0" encoding="UTF-8"?>
<svg id="Calque_2" data-name="Calque 2" xmlns="http://www.w3.org/2000/svg" viewBox="0 0 209.19 213.12">
  <defs>
    <style>
      .cls-1 {
        fill: #85a57e;
      }

      .cls-2 {
        fill: #51514a;
      }

      .cls-3 {
        fill: #4f87b9;
      }

      .cls-4 {
        fill: #7cbfdd;
      }
    </style>
  </defs>
  <g id="Calque_1-2" data-name="Calque 1">
    <g>
      <path class="cls-2" d="M140.93,2.93l2,8c-1.33-.08-2.67.05-4,0C90.57-3.21,35.3,23.29,14.93,68.93c-1.23,2.76-1.26,3.84-2,6-5.55,16.18-7.09,23.18-5.97,40.97,1.69,26.87,15.21,46.97,27.97,69.03-.94-.4-2.95.38-4,0-9.56-3.44-14.93-15.06-18.99-24.01C-29.91,68.75,44.32-17.08,140.93,2.93Z"/>
      <path class="cls-2" d="M186.93,34.93c26.88,39.91,32.4,97.06-.11,136.41-21.36,25.85-68.89,43.85-101.89,41.59v-6c2.2,0,5.03.53,6-2,10.86,1.25,6.55.13,15.2-1.81,27.49-6.17,73.12-19.97,82.8-50.19,2.83-.89,4.15-3.04,4-6v-2c5.41-7.33,6.69-15.41,8-24,3.43-22.45-4.84-66.85-18-86h4Z"/>
      <path class="cls-1" d="M34.93,184.93c6.03,2.54,9,5.5,14,8,1.41.7,3.39,2.7,6,4,.52.26,1.43-.25,2,0,.87,2.88,3.06,4,6,4,.61.18,1.38-.16,2,0,5.11,5.4,13.08,5.98,20,6v6c-18.29-1.25-45.34-10.91-54-28,1.05.38,3.06-.4,4,0Z"/>
      <path class="cls-1" d="M186.93,34.93h-4c-1.12-1.62-7.79-6.11-10-8-8.42-7.19-18.49-15.34-30-16l-2-8c22.34,4.63,33.92,14.06,46,32Z"/>
      <path class="cls-3" d="M138.93,10.93c12.8,3.74,22.51,9.99,34,16,2.21,1.89,8.88,6.38,10,8,13.16,19.15,21.43,63.55,18,86l-9.76,19.55,1.76,4.45v2c-6.64-1.18-2.92,2.63-4,6-9.68,30.22-55.31,44.02-82.8,50.19-8.66,1.94-4.34,3.06-15.2,1.81-7.65-.88-18.83-2.13-26-4-.62-.16-1.39.18-2,0-.35-.1-3.58-2.96-6-4-.57-.25-1.48.26-2,0l-6-4c-5-2.5-7.97-5.46-14-8-12.76-22.07-26.28-42.16-27.97-69.03-1.12-17.79.42-24.79,5.97-40.97l3.95-5.02-1.95-.98C35.3,23.29,90.57-3.21,138.93,10.93ZM122.92,20.95c-7.93-1.71-5.38,2.9-8.01,7.96,5.3,1.26,11.54,4.66,14.02-1.96l-9.99-3.03,3.98-2.97ZM142.92,28.94l-7.98.98c2.16,3.08,4.29,3.48,7.98,3v-3.98ZM114.93,36.93c-3.83-.15-13.84,1.42-15.98,4.04-5.5,6.71,7.38,1.99,7.98,1.96l-1.14,10.04c-5.12-.26-9.89-.39-14.92.9-3.47.89-20.93,10.62-23.94,13.06,2.2-7.12-8.79-2.12-9.46-1.44-.96.96-4.88,11.11-6.86,14.21-1.44,2.26-4.77,2.87-5.22,3.66-.57,1.01-4.28,19.57-4.6,22.42-1.06,9.55,1.42,26.41,4.73,35.54,4.74,13.09,13.49,14.02,21.4,23.61,1.21,1.47,1.69,5.5,2.17,5.82.41.28,7.98-1.73,9.83-1.82,14.14-.7,16.69.34,30-6,6.68-3.18,10.38-4.94,18-8l-1.56,5.04,1.56.96c-.35.16-1.25,2.58-3.35,3.57-4.76,2.25-12.14,1.02-14.65,6.41,13.41-.22,23.44-6.21,32-15.98,10-11.41,26.62-36.15,27.97-51.02,2.91-32.08-11.36-58.98-43.97-64.98l2-3.98-11.98-2.01-.02,4ZM150.92,32.94l-5.98.98c1.82,2.12,3.03,3.65,5.98,3v-3.98ZM164.86,39.12c-1.26-1.87-18.29-5.94-10,4.95,1.61,2.11,9.91,8.76,12.06,6.85,1.55-1.37-2.46-5.13-3.02-7.05-.35-1.22,1.46-4,.96-4.75ZM84.91,44.93c-1.8-1.61-11.46,4.66-11.99,7.97,2.25,1.28,15.57-4.78,11.99-7.97ZM32.91,92.92v-3.98h-1.96v3.98h1.96ZM30.92,96.94h-3.98v7.98h3.98v-7.98ZM60.92,178.92c-2.96-10.1-11.93-17.02-21.95-19.01.65,3.33,20.07,20.91,21.95,19.01ZM40.92,174.91c.82-9.94-11.63-3.22-7.98,0h7.98ZM142.64,180.54c1.13-2.02-2.05-5.12-1.75-7.61l-17.17,3.62-12.78,14.36c7.91-.17,17.15-2.67,23-7.98l2.96,3.98c-.85-4.17,5.3-5.58,5.75-6.38Z"/>
      <path class="cls-4" d="M142.93,10.93c11.51.66,21.58,8.81,30,16-11.49-6.01-21.2-12.26-34-16,1.33.05,2.67-.08,4,0Z"/>
      <path class="cls-4" d="M12.93,74.93c.74-2.16.77-3.24,2-6l1.95.98-3.95,5.02Z"/>
      <path class="cls-4" d="M200.93,120.93c-1.31,8.59-2.59,16.67-8,24l-1.76-4.45,9.76-19.55Z"/>
      <path class="cls-4" d="M90.93,204.93c-.97,2.53-3.8,2.01-6,2-6.92-.02-14.89-.6-20-6,7.17,1.87,18.35,3.12,26,4Z"/>
      <path class="cls-4" d="M192.93,146.93c.15,2.96-1.17,5.11-4,6,1.08-3.37-2.64-7.18,4-6Z"/>
      <path class="cls-4" d="M62.93,200.93c-2.94,0-5.13-1.12-6-4,2.42,1.04,5.65,3.9,6,4Z"/>
      <path class="cls-4" d="M54.93,196.93c-2.61-1.3-4.59-3.3-6-4l6,4Z"/>
      <path class="cls-2" d="M114.93,36.93c1.05.04,7.67,1.57,10,2,32.61,6,46.87,32.91,43.97,64.98-1.35,14.86-17.97,39.61-27.97,51.02-4.37,2.66-9.41,3.86-14,6l-1.56-.96,1.56-5.04c.63-.25,1.25-1.61,2-2,6.47-3.34,2.35-2.21,4-4,16.04-17.41,28.45-32.92,27.85-58.68-.5-21.52-17.16-44.49-39.85-45.32-.53-1.95-2.31-1.86-4-2-3.1-.25-6.86-.17-10,0-.6.03-13.48,4.75-7.98-1.96,2.15-2.62,12.16-4.19,15.98-4.04Z"/>
      <path class="cls-2" d="M66.93,164.93c-7.92-9.58-16.66-10.52-21.4-23.61-3.31-9.14-5.79-25.99-4.73-35.54.32-2.85,4.03-21.42,4.6-22.42.44-.78,3.77-1.4,5.22-3.66,1.98-3.1,5.9-13.25,6.86-14.21.67-.67,11.66-5.68,9.46,1.44-10.11,8.2-18.83,37.96-18.16,50.99.93,18.05,7.54,32.85,24.18,40,11.18,4.81,24.06,8.68,35.98,5.01-13.31,6.34-15.86,5.3-30,6l-12-4Z"/>
      <path class="cls-4" d="M142.64,180.54c-.45.8-6.6,2.21-5.75,6.38l-2.96-3.98c-5.85,5.32-15.09,7.81-23,7.98l12.78-14.36,17.17-3.62c-.3,2.49,2.89,5.59,1.75,7.61Z"/>
      <path class="cls-4" d="M60.92,178.92c-1.87,1.9-21.3-15.68-21.95-19.01,10.02,1.99,18.99,8.91,21.95,19.01Z"/>
      <path class="cls-4" d="M164.86,39.12c.5.74-1.32,3.53-.96,4.75.56,1.92,4.57,5.67,3.02,7.05-2.15,1.91-10.46-4.73-12.06-6.85-8.29-10.88,8.74-6.82,10-4.95Z"/>
      <path class="cls-4" d="M140.93,154.93c-8.56,9.77-18.59,15.76-32,15.98,2.51-5.39,9.89-4.15,14.65-6.41,2.1-.99,3-3.41,3.35-3.57,4.59-2.14,9.63-3.34,14-6Z"/>
      <path class="cls-4" d="M122.92,20.95l-3.98,2.97,9.99,3.03c-2.48,6.62-8.72,3.22-14.02,1.96,2.62-5.06.08-9.67,8.01-7.96Z"/>
      <path class="cls-4" d="M84.91,44.93c3.58,3.19-9.74,9.25-11.99,7.97.53-3.31,10.18-9.58,11.99-7.97Z"/>
      <path class="cls-4" d="M114.93,36.93l.02-4,11.98,2.01-2,3.98c-2.33-.43-8.95-1.96-10-2Z"/>
      <path class="cls-4" d="M78.93,168.93c-1.85.09-9.41,2.1-9.83,1.82-.48-.32-.96-4.36-2.17-5.82l12,4Z"/>
      <path class="cls-4" d="M40.92,174.91h-7.98c-3.65-3.22,8.8-9.94,7.98,0Z"/>
      <rect class="cls-4" x="26.94" y="96.94" width="3.98" height="7.98"/>
      <path class="cls-4" d="M142.92,28.94v3.98c-3.69.48-5.82.08-7.98-3l7.98-.98Z"/>
      <path class="cls-4" d="M150.92,32.94v3.98c-2.95.65-4.16-.88-5.98-3l5.98-.98Z"/>
      <rect class="cls-4" x="30.95" y="88.94" width="1.96" height="3.98"/>
      <path class="cls-3" d="M132.93,148.93c-1.65,1.79,2.47.66-4,4v-4s4,0,4,0Z"/>
      <path class="cls-3" d="M120.93,44.93c-.88-.03-4.81,5.94-4-2,1.69.14,3.47.05,4,2Z"/>
    </g>
  </g>
</svg>