<?xml version="1.0" encoding="UTF-8"?>
<svg id="Calque_2" data-name="Calque 2" xmlns="http://www.w3.org/2000/svg" viewBox="0 0 262.31 150.52">
  <defs>
    <style>
      .cls-1 {
        fill: #edb468;
      }

      .cls-2 {
        fill: #85a57e;
      }

      .cls-3 {
        fill: #51514a;
      }
    </style>
  </defs>
  <g id="Calque_1-2" data-name="Calque 1">
    <g>
      <path class="cls-3" d="M181.71,138.71c-6.24,5.19-17.4,7.92-25.55,9.45C69.95,164.39,1.41,94.38,0,10.99c2.31-3.69,28.72-2.01,34.69-2.3,54.02-2.63,112.22-1.35,165.86-6.15,9.76-.87,36.85-3.92,45.79-1.83,1.5.35,1.2,3.61,2.74,3.96,7.44,1.69,10.96-4.21,12.43,7.18,1.67,13.02.83,28.06-3.39,40.33-.93,2.72-4.3,4.21-4.4,4.51.45-.45-.31-2.05-1-2-2.18.15.06,2.94,1,2-.78,2.26-.06,5.12-2,10h-4s0-4,0-4c1.26-2.36,6.05-26.1,6-30,2.81-2.78,5.18-20.57,3.99-21.99-6.21,2.12-11.62,1.88-17.99,1.99-55.16.98-109.94,2.7-164.93,4.07-22.37.56-44.72-1.37-67.08-.08,3.03,37.93,23.22,78.22,53.05,101.96,39.99,31.83,110.01,27,148.79-5.12,9.57-7.93,15.7-20.33,24.17-26.83,1.91-1.47,2.75,3.29,4-4,.11-.66-.15-1.39,0-2,6.51-1.19,3.39,3.07,2,8-4.85,17.24-13.58,21.37-26,32l-31.57,14.5c-1.05.97-.2,3.31-.43,3.5Z"/>
      <path class="cls-2" d="M247.71,62.71v4s4,0,4,0c-2.38,5.99-4.5,21.56-12,22,1.39-4.93,4.51-9.19-2-8,2.87-11.67,7.52-13.34,10-18Z"/>
      <path class="cls-2" d="M213.71,120.71c-5.42,4.64-12.52,12.69-18.62,15.33-3.96,1.71-9.09,1.91-13.38,2.67.23-.19-.62-2.53.43-3.5l31.57-14.5Z"/>
      <path class="cls-1" d="M239.71,12.71c.05,9.83,8.01,3.15,9.71,4.15,3.13,1.83,4.24,12.08,4.29,15.85s-4.74,27.64-6,30c-2.48,4.66-7.13,6.33-10,18-.15.61.11,1.34,0,2-3.58-.73-4.56.49-4,4-8.47,6.51-14.6,18.9-24.17,26.83-38.78,32.13-108.8,36.96-148.79,5.12C30.93,94.92,10.73,54.63,7.7,16.7c22.36-1.29,44.71.64,67.08.08,54.99-1.37,109.76-3.1,164.93-4.07Z"/>
      <path class="cls-2" d="M237.71,82.71c-1.25,7.29-2.09,2.53-4,4-.56-3.51.42-4.73,4-4Z"/>
      <path class="cls-2" d="M253.71,56.71c-.94.94-3.18-1.85-1-2,.69-.05,1.45,1.55,1,2Z"/>
    </g>
  </g>
</svg>