<?xml version="1.0" encoding="UTF-8"?>
<svg id="Calque_2" data-name="Calque 2" xmlns="http://www.w3.org/2000/svg" viewBox="0 0 248.94 259.35">
  <defs>
    <style>
      .cls-1 {
        fill: #edb468;
      }
    </style>
  </defs>
  <g id="Calque_1-2" data-name="Calque 1">
    <path class="cls-1" d="M168.63,14.83c-.81.97-20.23-3.99-24.93-4.1-47.64-1.09-93.88,27.09-113.81,70.35-19.44,42.19-12.52,105.42,25.75,135.75,42.44,33.63,90.12,31.99,134.82,2.83,63.37-41.34,49.3-144-20.7-168.95C104.42,27.43,24.2,102.11,73.77,164.71c42.28,53.39,130.41,25.46,106.79-48.79-9.37-29.45-46.3-44.16-68.79-18.96-15.13,16.95-9.42,49.93,19.45,43.44,16-3.6,6.46-16.67,7.54-22.46,1.48-7.92,14.19,1.16,15.49,10.43,4.36,31.1-32.1,40.2-52.9,19.75-17.99-17.68-17.88-35.9-4.79-56.37,44.09-68.93,148.44,26.68,92.89,90.89-19.07,22.04-44.64,30.98-73.79,28.17-64.05-6.16-88.56-99.12-54.75-146.73,4.82-6.78,26.33-26.4,33.66-28.33,58.6-15.47,109.73-9.29,140.44,47.72,48.89,90.77-39.02,196.32-136.45,172.45C-35.55,223.07-31.93,36.1,104.14,3.34c14.59-3.51,48.44-5.99,61.16,1.83,3.08,1.9,5.06,7.58,3.32,9.66Z"/>
  </g>
</svg>