<?xml version="1.0" encoding="UTF-8"?>
<svg id="Calque_2" data-name="Calque 2" xmlns="http://www.w3.org/2000/svg" viewBox="0 0 121.07 464.35">
  <defs>
    <style>
      .cls-1 {
        fill: #edb468;
      }

      .cls-2 {
        fill: #85a57e;
      }

      .cls-3 {
        fill: #51514a;
      }
    </style>
  </defs>
  <g id="Calque_1-2" data-name="Calque 1">
    <g>
      <path class="cls-1" d="M94.01,4.07c1.55,2.37,4.86,17.68,6,22l-4,6c-10.14,3.7-26.81,8.8-35.41,13.59-2.93,1.63-17.11,12.69-16.7,15.32,1.92,12.28,37.17,18.18,47.62,24.63,4.38,2.7,15.12,16.06,17.3,20.65,12.7,26.71,1.68,57.56-23.04,72.6-10.43,6.34-36.82,11.54-35.99,26.22.93,16.31,48.45,24.74,56.68,47.52,1.72,4.75.41,10.04,3.53,13.48-1.55,7.29-.89,14.78-6,22-.37.52-7.38,6.67-8.98,8.01-15.35,12.87-53.19,21.23-61.12,34.88-15.31,26.33,45.22,36.2,59.27,42.84.66.31,6.55,3.98,6.83,4.27.47.51,6.91,11.22,7.12,11.88,1.27,3.89,1.35,10.03.88,14.12-1.83,16.02-17.8,25.23-30.66,32.34-18.97,10.51-40.11,16.97-61.27,21.61-.65-6.93-7.51-18.65-1.19-24.08,4.62-3.97,33.5-10.92,42.6-15.32,2.59-1.25,2.57-3.79,3.92-4.55,5.32-3,22.85-5.42,13.97-15.42-12.1-13.64-50.99-19.86-62.21-36.76-11-16.57-7.49-34.54,3.95-49.7,7.05-9.34,19.01-14.38,28.87-20.13,4.64-2.71,9.33-5.23,14-8,3.24-1.92,7.52-2.23,10.71-4.29,6.68-4.31,13.23-15.46,10-23.17-3.43-8.18-44.68-21.32-54.64-33.52-14.38-17.62-10.28-35.61,6.98-48.97,17.39-13.46,31.8-12.59,48.95-32.05,1.34-1.52,4.94-2.56,5.99-5.13.72-3.2-3.8-4.42-3.99-4.87-.24-.57.24-1.43,0-2,6.74,1.38,4.09-5.1,2-10C73.93,91.67-.23,91.4,21.92,46.98,31.26,28.28,65.88,14.32,84.62,7.58c3.19-1.15,6.4-.74,5.39-5.51.61.11,3.85,1.77,4,2Z"/>
      <path class="cls-3" d="M42.01,288.07l4,4c-9.86,5.75-21.82,10.79-28.87,20.13-11.44,15.15-14.95,33.13-3.95,49.7,11.21,16.9,50.1,23.12,62.21,36.76,8.88,10.01-8.65,12.43-13.97,15.42-1.35.76-1.33,3.3-3.92,4.55-9.1,4.4-37.98,11.35-42.6,15.32-6.32,5.43.54,17.15,1.19,24.08,21.16-4.65,42.3-11.11,61.27-21.61,12.85-7.12,28.82-16.32,30.66-32.34h6c-1.14,6.94-.87,11.39-5.09,17.91-10.88,16.78-72.44,44.33-91.97,42.26-11.43-1.21-15.38-28.2-10.1-34.34s54.22-19.76,57.08-23.93c5.88-8.57-28.11-19.59-33.94-22.86-40.17-22.53-39.44-64.85-1-89.06,4.08-2.57,9.13-3.88,13.03-5.98Z"/>
      <path class="cls-3" d="M94.01,4.07c-.76-6.21,1.77-4.37,3.73-.73,3.76,6.97,12.27,24.77,6.5,31.86-3.69,4.54-39.09,15.3-46.77,19.33-3.05,1.6-5.17,4.05-7.43,6.54,19.18,12.97,42.79,11.81,57.96,32,25.33,33.72,11.47,71.07-21.35,92.65-8.82,5.8-17.43,7.79-25.75,12.24-17.43,9.34,20.87,19.43,27.85,24.44,5.11,3.66,13.12,12.58,19.25,17.66l6,12c-.02,1.98-.11,4.02,0,6-1.2,1.98-3.59,6.08-4,8-3.12-3.44-1.81-8.73-3.53-13.48-8.24-22.78-55.76-31.21-56.68-47.52-.83-14.68,25.56-19.88,35.99-26.22,24.72-15.03,35.74-45.88,23.04-72.6-2.18-4.59-12.92-17.95-17.3-20.65-10.46-6.44-45.7-12.34-47.62-24.63-.41-2.63,13.77-13.69,16.7-15.32,8.6-4.79,25.27-9.89,35.41-13.59,1.35-.49,4.21.37,6,0,1.29-3.17-1.71-4.9-2-5.99-1.14-4.32-4.45-19.63-6-22Z"/>
      <path class="cls-3" d="M90.01,2.07c1.01,4.76-2.21,4.36-5.39,5.51-18.74,6.74-53.37,20.7-62.7,39.4C-.23,91.4,73.93,91.67,86.01,120.07h-6c-14.49-23.15-71.41-19.11-70.08-58.94C10.81,34.8,53.57,8.87,75.95,3.01c4.01-1.05,10.09-1.67,14.07-.94Z"/>
      <path class="cls-3" d="M78.01,142.07c1.24-.21,2.71.14,4,0-17.15,19.46-31.56,18.59-48.95,32.05-17.26,13.36-21.36,31.35-6.98,48.97,9.96,12.2,51.21,25.34,54.64,33.52,3.23,7.71-3.32,18.86-10,23.17-3.19,2.06-7.48,2.37-10.71,4.29,1.13-1.85,1.68-3.87,2-6,.1-.65-.13-1.37,0-2,7.95-3.22,19.81-7.78,13.1-18.15-1.73-2.67-5.89-1.24-7.1-1.85-14.43-7.39-48.17-24.42-54.13-38.88-7.18-17.44-1.55-33.91,12.08-46.16,3.26-2.93,49.09-28.46,52.04-28.96Z"/>
      <path class="cls-3" d="M104.01,288.07l2,4c-6.9,8.49-14.56,16.03-25.57,21.43-11.36,5.58-58.93,17.56-33.13,36.27,17.26,12.51,37.68,9.64,56.7,26.3l-4,2c-.27-.3-6.16-3.96-6.83-4.27-14.05-6.64-74.58-16.51-59.27-42.84,7.93-13.64,45.77-22,61.12-34.88,1.6-1.34,8.61-7.49,8.98-8.01Z"/>
      <path class="cls-2" d="M114.01,404.07h-6c.47-4.09.39-10.23-.88-14.12-.22-.66-6.65-11.37-7.12-11.88l4-2c12.45,10.91,12.68,11.67,10,28Z"/>
      <path class="cls-2" d="M106.01,292.07l-2-4c5.11-7.22,4.45-14.71,6-22,.41-1.92,2.8-6.02,4-8,.02.34,2.03,2.22,2.07,4.83.31,18.02.13,16.62-10.07,29.17Z"/>
      <path class="cls-1" d="M68.01,256.07c1.2.62,5.37-.82,7.1,1.85,6.71,10.37-5.15,14.92-13.1,18.15,1.55-7.34,4.23-12.91,6-20Z"/>
      <path class="cls-2" d="M62.01,278.07c-.32,2.13-.87,4.15-2,6-4.67,2.77-9.36,5.29-14,8l-4-4c6.55-3.53,12.72-9.6,20-10Z"/>
      <path class="cls-2" d="M82.01,142.07c-1.29.14-2.76-.21-4,0,.52-4.04,2-8.28,6-10,.19.45,4.7,1.66,3.99,4.87-1.05,2.58-4.65,3.61-5.99,5.13Z"/>
      <path class="cls-2" d="M86.01,120.07c2.09,4.9,4.74,11.38-2,10-1.29-3.09-2.39-7.43-4-10h6Z"/>
      <path class="cls-2" d="M108.01,240.07c.3.25,2.34-.78,3.55.49.6.63.25,3.12,1.23,4.67.58.93,3.11.85,3.35,2.2.46,2.56-2.13,4.33-2.13,4.63l-6-12Z"/>
    </g>
  </g>
</svg>