<?xml version="1.0" encoding="UTF-8"?>
<svg id="Calque_2" data-name="Calque 2" xmlns="http://www.w3.org/2000/svg" viewBox="0 0 180.96 181.59">
  <defs>
    <style>
      .cls-1 {
        fill: #edb468;
      }

      .cls-2 {
        fill: #85a57e;
      }

      .cls-3 {
        fill: #51514a;
      }
    </style>
  </defs>
  <g id="Calque_1-2" data-name="Calque 1">
    <g>
      <path class="cls-3" d="M48.32,167.49C22.49,162.88,3.14,130.86.57,106.25-7.22,31.96,66.82-20.77,134.84,7.97c26.16,11.05,42.44,36.93,45.23,64.77,4.91,48.92-10.23,78.14-53.76,98.76-3.18-2.11-6.63-.18-10,0,17.42-12.06,36.61-22.03,47.65-41.35,18.28-31.97,10.1-93.8-25.11-112.2C79.11-13.26,8.32,29.14,6.23,96.43c-.79,25.38,20.09,55.31,42.1,67.06.01,1.33-.02,2.67,0,4Z"/>
      <path class="cls-2" d="M116.32,171.49c3.37-.18,6.82-2.11,10,0-23.63,11.19-42.55,14.11-68.5,3.49-5.23-2.14-9.41-1.88-9.5-7.49-.02-1.33.01-2.67,0-4,23.66,12.63,42.63,9.35,68,8Z"/>
      <path class="cls-1" d="M116.32,171.49c-25.37,1.35-44.34,4.63-68-8C26.31,151.75,5.43,121.81,6.23,96.43,8.32,29.14,79.11-13.26,138.86,17.95c35.21,18.39,43.39,80.22,25.11,112.2-11.04,19.32-30.24,29.29-47.65,41.35ZM125.67,68.15c-.95-1.39-3.94-1.83-5.38-3.54-1.95-2.3-1.69-5.82-4.08-8-1.13-1.02-11.78-5.82-13.74-6.26-18.14-4.09-31.57,1.26-43.17,15.12-29.23,34.96,13.51,77.53,52.54,64.7,11.35-12.76,26.08-26.13,22.02-45.23-.47-2.19-6.72-14.64-8.19-16.8Z"/>
      <path class="cls-3" d="M125.67,68.15c1.47,2.15,7.73,14.61,8.19,16.8,4.07,19.1-10.66,32.47-22.02,45.23-39.03,12.83-81.77-29.74-52.54-64.7,11.59-13.86,25.02-19.21,43.17-15.12,1.96.44,12.61,5.24,13.74,6.26,2.39,2.18,2.14,5.69,4.08,8,1.44,1.71,4.43,2.15,5.38,3.54ZM115.64,118.81c22.22-18.38,5.34-63.32-22.76-62.89-3.9.06-4.84,4.28-7.94,5.2-3.92,1.16-9.52-.71-12.21.8-.71.4-9.09,11.36-10.07,12.91-18.6,29.78,25.18,66.98,52.98,43.98Z"/>
    </g>
  </g>
</svg>