<?xml version="1.0" encoding="UTF-8"?>
<svg id="Calque_2" data-name="Calque 2" xmlns="http://www.w3.org/2000/svg" viewBox="0 0 302.47 278.51">
  <defs>
    <style>
      .cls-1 {
        fill: #85a57e;
      }
    </style>
  </defs>
  <g id="Calque_1-2" data-name="Calque 1">
    <path class="cls-1" d="M240.1,191.37c-21.29,19.52-44.11,36.32-66.83,54.17,21.74.5,55.6-11.53,72.94-25.06,6.67-5.2,22.45-27.11,24.15-27.85,2.27-.99,5.49-1.27,4.68,2.65-5.79,28.25-50.19,50.08-75.76,56.27-27.68,6.7-36.99,6.3-64.63,17.37-36.12,14.47-76.99,16.15-100.26-20.52-4.68-7.38-6.55-17.45-10.31-23.69-3.1-5.14-10.08-9.14-13.7-14.3-26.8-38.32,3.86-107.45,28.84-140.83C63.56,37.05,82.79,27.95,120.19,14.46c150.67-54.35,254.76,53.25,119.91,176.91ZM258.62,161.89c1.85-1.61,16.86-24.21,19.03-27.97,19.34-33.59,26.71-70.94-5.45-99.32-29.21-25.78-75.87-29.7-112.92-24.04-.47,3.48,4.54,1.89,6.96,1.98,5.63.22,11.31-.34,16.92.14l.13,5.85c3.54.86,1.31-3.43,1.99-3.97,2.04-1.59,5.32,2.87,7.5,3.47,32.57,8.9,49.84,15.14,68.13,45.87,19.84,33.34,5.39,67.02-7.6,99.66.79,1.18,4.8-1.21,5.32-1.67ZM263.24,102.52c3.42-30.44-25.65-63.57-52.9-74.07-51.74-19.95-93.45-13.7-127.85,30.23-1.3,1.65-13.69,19.01-6.25,15.83,10.57-9.62,23.53-21.1,35.93-28.08,8.65-4.87,39.41-18.91,48.09-19.91,25.94-2.99,44.07,6.68,66.99,16.03l-3.98,2.97c11.46,9.61,20.29,19.14,28.02,31.99l11.96,25.01ZM94.71,36.16c.23-.18,2.59-4.72,1.57-5.59-33.74,17.66-57.62,49.33-71.99,83.99-11.94,28.81-26.36,70-2.02,95.96-.74-37.83,11.05-78.27,27.91-112.07,10.4-20.85,28.07-49.57,44.53-62.29ZM206.51,43.33c-14.08-7.13-24.91-10.85-41.24-8.78l22.05,4.92c4.62,3.06,13.96,4.68,14.96,11.02-17.16-10.63-33.46-8.43-52.29-6.13-2.4.29-4.46-1.48-5.82-1.53-1.04-.04-.51,2.97-2.34,3.6-9,3.09-11.37,1.99-19.66,10.01-29.86,28.91-69.51,128.33-45.71,165.9,10,15.79,32.28,4.21,46.71-.9,18.18-6.44,42.58-17.26,59.47-26.53,21.71-11.91,75.15-50.25,74.68-77.27-.51-29.22-26.25-61.87-50.81-74.3ZM98.42,71.7c2.5-3.49,6.93-7.17,7.86-11.13-11.73,8.88-23.47,17.6-33.05,28.94-14.63,17.33-32.59,57.22-35.41,80.58-3.35,27.77,1.48,61.71,35.43,61.45-14.7-19.33-15.2-44.38-11.44-67.47,4.4-27,21.03-70.58,36.61-92.38ZM250.26,148.53v2c1.3-.67,1.3-1.33,0-2ZM248.26,152.53v2c1.3-.67,1.3-1.33,0-2ZM246.26,156.53v2c1.3-.67,1.3-1.33,0-2ZM242.26,160.53v2c1.3-.67,1.3-1.33,0-2ZM241.25,164.54c-14.07,3.45-21.82,16.71-32.49,24.49-28.61,20.85-72.87,37.35-106.56,47.46-2.86.86-3.53-1.25-2.95,4.02,43.11,4.6,94.39-15.68,123.07-47.92,2.59-2.91,9.97-11.49,11.87-14.09,1.2-1.65,7.96-13.06,7.06-13.97ZM29.28,208.53c-.8,9.39,2.61,13.06,11,15.96-1.27-5.82-5.87-12.92-11-15.96ZM137.26,256.55l-20.1-.92-81.85-24.13c4.92,17.5,23.91,35.04,41.85,38.13,20.3,3.5,43.6-.56,60.11-13.09ZM169.26,238.55c-12.19.08-24.66,4.45-35.99,8.97,12.48,8.85,26.51-.68,35.99-8.97Z"/>
  </g>
</svg>