<?xml version="1.0" encoding="UTF-8"?>
<svg id="Calque_2" data-name="Calque 2" xmlns="http://www.w3.org/2000/svg" viewBox="0 0 432.25 174.14">
  <defs>
    <style>
      .cls-1 {
        fill: #85a57e;
      }

      .cls-2 {
        fill: #51514a;
      }

      .cls-3 {
        fill: #4f87b9;
      }

      .cls-4 {
        fill: #7cbfdd;
      }
    </style>
  </defs>
  <g id="Calque_1-2" data-name="Calque 1">
    <g>
      <path class="cls-2" d="M16.5,153.61l17.8,1.86c4.1-9.42,37.08-77.02,41.43-77.75,7.67-1.28,19.09,31.24,22.41,37.25,9.32,16.88,21.23,32.51,28.38,50.63l15.19-27.77,35.79-52.19c2.68-2.58,8.47-3.53,11.19-.72l47.83,76.69,45-77.99c2.59-.65,9.36,9.1,10.67,11.31,9.17,15.42,16.04,34.7,25.55,50.47,1.65,2.74,4.72,9.24,8.74,8.23,2.58-9.53,33.37-72.49,37.32-73.79,2.25-.74,4.71-.53,6.76.72,12.37,21.5,16.16,46.5,25.94,69.06h-6c-.91-2.04-3.55-4.47-4.98-7.99-6.57-16.23-11.51-33.4-17.04-50-1.31-1.02-3.6,3.37-4.37,4.6-12.27,19.6-22.08,45.45-33.5,65.97-4.08,3.53-6.98,5.22-10.76.98-14.41-16.15-26.28-47.69-35.38-67.56-.43-.32-5.33,2.25-6.09,3.38-4.1,6.1-8.77,22.76-12.78,30.71-2.76,5.48-22.01,42.91-24.39,43.69-2.73.9-5.79.57-7.69-1.81-8.45-10.33-42.5-74.85-50.04-77.96-3.42-1.41-2.71,1.43-3.39,2.56-7.71,12.62-15.52,25.13-23.58,37.42-6.66,10.15-13.67,19.44-20,30-3.87,6.44-1.99,13.05-13.59,9.56l-44.44-83.55c-4.62-1.29-4.82,2.96-6.62,6.24-12.01,21.86-22.05,45.34-33.62,67.45-8.6,2.27-15.29-3.09-21.72-5.71,0-1.33,0-2.67,0-4Z"/>
      <path class="cls-2" d="M430.5,139.61l-4.02,1,4.02,1c.73,5.36,3.52,3.21,0,12-.22-1.86-2.5-2.21-4-2L378.49,11.61c-2.59-2.57-8.38,7.59-9.61,9.38-11.59,16.98-23.24,35.33-34.32,52.11-6.15,9.31-2.52,19.21-17.53,11.97-12.01-17.73-20.09-50.48-32.4-66.21-1.52-1.94-1.65-1.59-4.09-1.23-8.36,9.98-37.01,78.48-42.38,81.6-7.59,4.4-4.82-3.98-5.65-5.61,8.4-2.58,4.64-4.02,6-8,4.67-13.63,11.1-26.55,17.66-39.34,3.79-7.39,19.1-36.83,24.34-39.67,6.05-3.28,7.42,2.37,10.7,7.3,12.92,19.43,18.89,44.36,32.3,63.67L368.52,6.63c8.5-11.38,11.05-6.8,16.04,3.94,13.43,28.94,40.49,99.14,45.95,129.05Z"/>
      <path class="cls-2" d="M4.5,133.61c14.7-39.44,40.51-75.81,60.36-112.63,3.38-6.28,1.55-13.68,9.73-16.25,8.99-2.82,12.62,5.34,17.19,12.6,14.1,22.36,21.38,51.21,34.76,74.26L178.76,5.91c2.87-1.15,4.61-.34,6.74,1.71,3.92,3.78,11.29,20.39,15,25.99,1.67,2.24-.12,7.1,0,8-7.85-5.97-11.2-16.37-16.05-24.68-1.57-2.69-1.85-1.88-4.01-.38-1.25.86-14.64,20.68-16.33,23.67-6.48,11.39-10.49,23.83-16.57,35.43-5.27,10.06-11.13,20.89-17.06,30.54-1.42,2.31-2.28,2.12-4.74,1.17-11.68-4.54-36.88-76.71-44.79-91.21-1.26-2.3.1-3.38-4.43-2.54L6.5,141.61c-.85-2.4-3.21-4.4-2-8Z"/>
      <path class="cls-1" d="M238.5,85.61c-1.36,3.98,2.4,5.42-6,8-.12-.23-2.64.65-4.66-2.44-8.72-13.3-12.53-27.29-20.44-39.45-2.78-4.27-5.63-.26-6.89-10.11-.12-.9,1.67-5.76,0-8,10.21,15.38,20.53,34.78,31.52,49.48,2.18,2.91,2.3,6.02,6.48,2.52Z"/>
      <path class="cls-1" d="M396.5,149.61c2.03,4.68,6.17,8.37,6.02,13.99,3.06.35,1.34-2.91,4.43-4.64,3.79-2.11,15.43-6.76,19.54-7.35,1.5-.21,3.78.14,4,2-.47,1.18,1.09,2.06-1.49,3.95-3.51,2.57-23.5,10.47-27.45,10.08-9.74-.96-8.86-13.09-11.06-18.02h6Z"/>
      <path class="cls-3" d="M6.5,141.61c.42,1.17-.83,4.05.33,5.56,2.67,3.47,9.64-1.18,9.67,6.44,0,1.33,0,2.67,0,4-1.39-.56-4.59.8-7.91-1.1-.49-.28-7.6-7.65-7.77-8.19-2.73-8.39,2.06-10.36,3.68-14.72-1.21,3.6,1.15,5.6,2,8Z"/>
      <path class="cls-1" d="M430.5,139.61c.12.64-.09,1.35,0,2l-4.02-1,4.02-1Z"/>
      <path class="cls-4" d="M232.5,93.61c.83,1.63-1.94,10.01,5.65,5.61,5.37-3.11,34.03-71.61,42.38-81.6,2.45-.36,2.57-.71,4.09,1.23,12.31,15.73,20.39,48.48,32.4,66.21,15,7.24,11.37-2.66,17.53-11.97,11.09-16.78,22.73-35.13,34.32-52.11,1.22-1.79,7.01-11.95,9.61-9.38l48.02,140c-4.11.59-15.76,5.25-19.54,7.35-3.09,1.72-1.37,4.98-4.43,4.64.15-5.62-3.99-9.3-6.02-13.99-9.79-22.56-13.58-47.56-25.94-69.06-2.05-1.25-4.51-1.46-6.76-.72-3.95,1.3-34.74,64.26-37.32,73.79-4.02,1.02-7.09-5.49-8.74-8.23-9.5-15.77-16.38-35.04-25.55-50.47-1.31-2.21-8.08-11.96-10.67-11.31l-45,77.99-47.83-76.69c-2.72-2.81-8.5-1.86-11.19.72l-35.79,52.19-15.19,27.77c-7.15-18.12-19.06-33.75-28.38-50.63-3.32-6.01-14.75-38.53-22.41-37.25-4.34.72-37.33,68.33-41.43,77.75l-17.8-1.86c-.03-7.62-7-2.97-9.67-6.44-1.16-1.51.09-4.38-.33-5.56L76.54,13.62c4.53-.84,3.17.24,4.43,2.54,7.9,14.49,33.11,86.67,44.79,91.21,2.46.96,3.32,1.14,4.74-1.17,5.93-9.65,11.79-20.48,17.06-30.54,6.08-11.61,10.09-24.04,16.57-35.43,1.7-2.99,15.08-22.8,16.33-23.67,2.16-1.5,2.44-2.3,4.01.38,4.85,8.31,8.19,18.7,16.05,24.68,1.27,9.85,4.11,5.84,6.89,10.11,7.91,12.16,11.73,26.15,20.44,39.45,2.02,3.09,4.55,2.2,4.66,2.44Z"/>
    </g>
  </g>
</svg>