<?xml version="1.0" encoding="UTF-8"?>
<svg id="Calque_2" data-name="Calque 2" xmlns="http://www.w3.org/2000/svg" viewBox="0 0 224.29 220.34">
  <defs>
    <style>
      .cls-1 {
        fill: #edb468;
      }

      .cls-2 {
        fill: #85a57e;
      }

      .cls-3 {
        fill: #51514a;
      }
    </style>
  </defs>
  <g id="Calque_1-2" data-name="Calque 1">
    <g>
      <path class="cls-3" d="M168.69,7.41l-2,4c-8.42-3.54-42.75-8.39-50.68-5.68-3.21,1.1-3.86,6.98-10.18,9.82-14.2,6.38-23.36-.32-39.19,6.81C23.25,41.92-.76,89.29,8.77,136.15c11.85,58.27,58.64,85.1,116.02,76.37,69.16-10.53,114.71-96.33,81.9-159.1h6c11.79,26.77,15.57,57.3,6.73,85.81-17.29,55.8-77.39,87.07-133.71,80.17C18.19,211.12-10.1,149.78,3.2,86.92S110.87-17.26,168.69,7.41Z"/>
      <path class="cls-2" d="M212.69,53.41h-6c-5.83-11.15-28.67-37.24-40-42l2-4c20.69,8.82,35.06,25.71,44,46Z"/>
      <path class="cls-1" d="M166.69,11.41c11.33,4.76,34.17,30.85,40,42,32.81,62.77-12.74,148.57-81.9,159.1-57.38,8.74-104.17-18.1-116.02-76.37C-.76,89.29,23.25,41.92,66.64,22.36c15.82-7.13,24.99-.43,39.19-6.81,6.32-2.84,6.97-8.72,10.18-9.82,7.92-2.71,42.26,2.14,50.68,5.68ZM146.69,45.41c-6.09-3.54-6.36-5.57-14.93-6.12-21.64-1.4-59.26,9.44-74.11,26.09-6.05,6.77-14.7,26.82-14.5,35.5.08,3.29,4.22,5.58,3.52,6.51-.17.23-3.35-.58-3.9,1.27-.35,1.19.26,22.87.68,24.81.29,1.33,5.04,13.13,5.6,13.61,1.47,1.27,4.61-.15,5.63.33,3.84,1.8,4.16,4.48,6,6-7.81,11.13,11.82,22.09,20,24,3.93.92,1.81.12,4,0,1.3-.07,2.92.25,4,0-4,4.23,3.38,3.9,6,4,.66.03,1.34.04,2,0,1.31-.07,2.87.24,4,0,.95-.2,1.72-1.06,2-2,1.04.26,2.71-.05,4,0h2c48.68.46,85.54-39.6,70-88-5.92-18.43-14.6-35.89-32-46Z"/>
      <path class="cls-3" d="M178.69,91.41c15.54,48.4-21.32,88.46-70,88-.67,0-1.34.03-2,0-1.29-.05-2.96.26-4,0-.14-.03-.24-2.51-1.98-2l-.02,4c-1.13.24-2.69-.07-4,0l-1-1.96-1,1.96c-2.62-.1-10,.23-6-4,.33-.35,2.85.28,4-.02.3-4.78-3-.22-4,.02-1.08.25-2.7-.07-4,0l-2.98-1.99-1.02,1.99c-8.18-1.91-27.81-12.87-20-24,5.56,4.58,11.99,11.99,18.2,14.8,28.41,12.88,81.7-1.41,92.75-32.85,3.65-10.4,6.6-33.76,3.05-43.95h4Z"/>
      <path class="cls-3" d="M146.69,45.41l-2,4c-2.26-1.13-16.71-4.56-18.64-4.14s-1.79,4.87-4.59,5.85c-11.84,4.13-23.53-2.02-42.51,7.55-33.43,16.87-34.39,56.88-24.26,88.74-1.03-.48-4.17.93-5.63-.33-.56-.48-5.31-12.28-5.6-13.61-.42-1.95-1.03-23.62-.68-24.81.55-1.85,3.72-1.04,3.9-1.27.7-.92-3.44-3.22-3.52-6.51-.2-8.67,8.45-28.72,14.5-35.5,14.85-16.64,52.47-27.49,74.11-26.09,8.57.55,8.84,2.59,14.93,6.12Z"/>
      <path class="cls-2" d="M178.69,91.41h-4c-2.77-7.94-22.68-38.34-30-42l2-4c17.4,10.11,26.08,27.57,32,46Z"/>
      <path class="cls-2" d="M84.69,177.41c-2.19.12-.07.92-4,0l1.02-1.99,2.98,1.99Z"/>
      <path class="cls-2" d="M102.69,179.41c-.28.94-1.05,1.8-2,2l.02-4c1.74-.51,1.84,1.96,1.98,2Z"/>
      <path class="cls-2" d="M96.69,181.41c-.66.04-1.34.03-2,0l1-1.96,1,1.96Z"/>
      <path class="cls-2" d="M106.69,179.41c.66.03,1.33,0,2,0h-2Z"/>
      <path class="cls-2" d="M88.69,177.41c1-.23,4.29-4.8,4-.02-1.14.3-3.67-.33-4,.02Z"/>
    </g>
  </g>
</svg>