<?xml version="1.0" encoding="UTF-8"?>
<svg id="Calque_2" data-name="Calque 2" xmlns="http://www.w3.org/2000/svg" viewBox="0 0 203.81 206.89">
  <defs>
    <style>
      .cls-1 {
        fill: #edb468;
      }

      .cls-2 {
        fill: #85a57e;
      }

      .cls-3 {
        fill: #51514a;
      }
    </style>
  </defs>
  <g id="Calque_1-2" data-name="Calque 1">
    <g>
      <path class="cls-3" d="M179.74,174.01c-40.53,42.54-130.55,47.99-162.37-8.63C-16.88,104.41-1.67,21.36,73.63,4.9,127.96-6.98,170.9.12,193.14,55.62c13.19,32.91,15.01,65.2.6,96.4h-6c11.65-37.37,10.16-69.16-5.57-105.43C169.57,17.51,125.32-1.94,95.26,8.53c-3.26,1.14-4.68,4.93-8.61,5.55-4.63.73-8.85-1.9-13.39-1.56C35.5,15.34,6.27,61.7,7.67,97.09c2.49,63.06,41.13,112.58,108.57,100.41,20.17-3.64,47.89-13.53,61.51-29.49l2,6Z"/>
      <path class="cls-2" d="M193.74,152.01c-5.43,11.76-4.17,11.68-14,22l-2-6c1.49-1.75,4.53-7.45,6-10h4c.26-1.29-.25-2.87,0-4,.15-.66-.18-1.42,0-2h6Z"/>
      <path class="cls-1" d="M187.74,152.01c-.18.58.15,1.34,0,2-5.94-1.27-3.25,2.71-4,4-1.47,2.55-4.51,8.25-6,10-13.62,15.96-41.34,25.85-61.51,29.49C48.8,209.67,10.15,160.15,7.67,97.09,6.27,61.7,35.5,15.34,73.27,12.52c4.54-.34,8.76,2.29,13.39,1.56,3.92-.62,5.34-4.41,8.61-5.55,30.06-10.47,74.31,8.98,86.92,38.05,15.73,36.27,17.22,68.07,5.57,105.43ZM51.74,78.01c-6.21,14.53-7.68,19.96-5.79,36.79,7.28,64.87,95.86,65.14,112.42,8.85,12.07-41.02-14.64-71.05-54.63-75.63-12.1-1.39-22.51-2.51-32.67,4.33-11.65,7.84-14.34,13.99-19.33,25.67Z"/>
      <path class="cls-3" d="M187.74,154.01c-.25,1.13.25,2.71,0,4h-4c.75-1.29-1.94-5.26,4-4Z"/>
      <path class="cls-3" d="M103.74,48.01c40,4.58,66.71,34.62,54.63,75.63-16.57,56.29-105.14,56.03-112.42-8.85-1.89-16.82-.42-22.26,5.79-36.79l4,4c-18.56,57.78,44.61,102.2,84.01,58.44,31.24-34.69,8.62-81.97-36.01-86.44v-6Z"/>
      <path class="cls-2" d="M103.74,48.01v6c-15.45-1.55-28.68,2.18-39.1,13.9-1.37,1.55-8.49,12.81-8.9,14.1l-4-4c4.99-11.67,7.68-17.82,19.33-25.67,10.16-6.84,20.57-5.72,32.67-4.33Z"/>
    </g>
  </g>
</svg>