<?xml version="1.0" encoding="UTF-8"?>
<svg id="Calque_2" data-name="Calque 2" xmlns="http://www.w3.org/2000/svg" viewBox="0 0 438.15 268.16">
  <defs>
    <style>
      .cls-1 {
        fill: #edb468;
      }

      .cls-2 {
        fill: #85a57e;
      }

      .cls-3 {
        fill: #51514a;
      }

      .cls-4 {
        fill: #7cbfdd;
      }
    </style>
  </defs>
  <g id="Calque_1-2" data-name="Calque 1">
    <g>
      <path class="cls-4" d="M136,30c6.33-10.56,13.34-19.85,20-30,4.19,1.91.68,6.17-.26,8.74-3.5,9.59-7.01,24.5-19.74,21.26Z"/>
      <g>
        <path class="cls-1" d="M432,108c1.81.32,4.06-.23,5.99.01.84,2.29-1.95,3.75-1.99,3.99l-4,2v-6Z"/>
        <path class="cls-1" d="M10,226l71.01-121.99,50.01,92.01c2.01-.01,8.03-6.58,9.59-8.53,9.86-12.35,48.9-82.45,56.42-85.47,3.99-.81,2.44.89,3.41,2.53,5.33,9.06,11.89,20.17,16.65,29.36,3.3,6.36,21.24,49.7,23.98,50.17,6.05,1.05,12.37-9.67,15.74-14.26,15.58-21.2,23.52-47.44,40.21-67.8l53.98,84.02,6.67-5.36,40.3-75.77c8.05-5.01,24.71,11.17,34.03,9.1-20.01,36.06-40.52,72.75-61.22,107.78-2.55,4.32-14.8,25.54-18.01,26.12-6.99,1.25-16.09-21.82-19.11-26.57-10.62-16.67-22.2-32.83-32.79-49.46l-9.76,6.24-52.12,79.84c-9.91-8.84-39.23-88.55-44.02-90.01-2.81-.86-3.49.55-4.97,1.45-1.74,1.07-13.61,16.9-15.69,19.91-14.26,20.7-27.35,46.07-38.35,68.67l-51-85.98-9.81,10.17c-12.95,10.44-30.28,69.41-39.19,74.94C30.58,260.47,8.5,242.35,0,244c0-1.25,1.94-3.07,2-4,5.37.85,8.12-9.65,8-14Z"/>
        <path class="cls-3" d="M194,92c.99.63,5.55-1.42,8.95,2.03,2.72,2.76,3.67,11.31,5.32,14.28,7.33,13.23,16.19,25.56,23.16,39.26,4.04,7.94,8.83,17.69,10.59,26.42,3.89.84,3.83-1.21,5.45-3.53,8.33-11.99,17.36-29.93,24.88-43.12,4.82-8.46,10.95-25.65,15.84-32.16,2.1-2.8,8.69-5.97,11.83-4.32,18.77,26.31,33.41,56.71,50.02,85.12l44.85-80.13c6.24-4.14,21.54,4.36,28.63,7.55,3.66,1.65-.23,3.05,8.49,4.59v6c-9.32,2.07-25.98-14.11-34.03-9.1l-40.3,75.77-6.67,5.36-53.98-84.02c-16.69,20.36-24.63,46.6-40.21,67.8-3.38,4.59-9.7,15.32-15.74,14.26-2.74-.48-20.69-43.82-23.98-50.17-4.76-9.19-11.32-20.3-16.65-29.36-.97-1.64.58-3.34-3.41-2.53-7.52,3.02-46.56,73.12-56.42,85.47-1.56,1.96-7.58,8.52-9.59,8.53l-50.01-92.01L10,226c0-.22-2.78-1.93-2-4,4.16-8.6,6.75-17.66,10.92-26.08,17.2-34.81,38.29-67.95,57.24-101.78,4.46-.71,9.06,1.38,11.57,5.14l44.26,85.75,10.01-15.02c4-1.72,5.48-5.96,6-10,6.3-6.71,7.7-13.92,12-20,11.25-15.89,25.26-30.32,34-48Z"/>
        <path class="cls-3" d="M436,112c-7,42.83-52.4,98.24-73.1,137.9-4.29,8.23-.98,17.08-14.6,13.78l-48.32-81.67c-13.96,17.07-24.41,36.85-35.05,55.92-1.23,2.2-4.49,3.69-5.79,6.21-6.86,13.26-.88,23.29-24,24.02-.57-.07-2.5-4.77-3.13-6.16-12.67-28.03-27.71-54.84-38.03-83.99l-3.97,1.99-51.16,86.23-8.53,1.52-45.33-83.74c-3.29-.78-11.58,13.54-13.31,16.66-5.48,9.85-25.49,59.38-31.67,62.41-5.33,2.62-11.71-1.38-16.69-3.37C17.51,257.39,0,249.95,0,244c8.5-1.65,30.58,16.47,35.98,13.12,8.91-5.53,26.23-64.5,39.19-74.94l9.81-10.17,51,85.98c10.99-22.61,24.09-47.97,38.35-68.67,2.07-3.01,13.95-18.85,15.69-19.91,1.48-.91,2.16-2.31,4.97-1.45,4.79,1.46,34.11,81.17,44.02,90.01l52.12-79.84,9.76-6.24c10.59,16.63,22.17,32.79,32.79,49.46,3.02,4.75,12.12,27.82,19.11,26.57,3.2-.57,15.45-21.79,18.01-26.12,20.7-35.04,41.2-71.73,61.22-107.78l4-2Z"/>
        <path class="cls-1" d="M190,180l3.97-1.99c10.31,29.15,25.35,55.96,38.03,83.99-9.62-3.53-16.27-19.17-20.75-28.25-8.23-16.67-15.79-36.15-21.25-53.75Z"/>
        <path class="cls-1" d="M160,140c-.64-17.03,10.95-28.49,20.93-40.13,2.82-3.29,4.8-11.93,12.03-11.98,1.72-.01.87,3.99,1.04,4.1-8.74,17.68-22.75,32.11-34,48Z"/>
        <path class="cls-2" d="M10,226c.12,4.35-2.63,14.85-8,14,.01-.24-2.8.17-1.68-4.48,1.48-6.17,6.08-10.22,7.68-13.52-.78,2.07,1.99,3.78,2,4Z"/>
        <path class="cls-1" d="M148,160c-.52,4.04-2,8.28-6,10-1.68-9.18,5.09-9.03,6-10Z"/>
      </g>
    </g>
  </g>
</svg>