<?xml version="1.0" encoding="UTF-8"?>
<svg id="Calque_2" data-name="Calque 2" xmlns="http://www.w3.org/2000/svg" viewBox="0 0 261.76 174.83">
  <defs>
    <style>
      .cls-1 {
        fill: #51514a;
      }

      .cls-2 {
        fill: #4f87b9;
      }

      .cls-3 {
        fill: #7cbfdd;
      }
    </style>
  </defs>
  <g id="Calque_1-2" data-name="Calque 1">
    <g>
      <path class="cls-2" d="M248.16,148.27c.03,7.29,2.51,4.59-3.33,4.93-7.93.47-12.48-.53-20.67,3.07-3.77-7.35-6.58-12.37-10-20l9.96,5.02c-2.68-4.31-5.99-10.83-9.96-5.02-5.67-12.66-12.42-26.92-16-40-2.29-8.35-1.8-14.81-5.19-20.74-1.26-2.2-.66-5.05-.82-5.26-3.03-3.96-4.11,3.75-5.37,4.03-2.11.47-4.47-.15-6.63-.02,4.44,8.17-1.79,8.6-3.6,13.41-.63,1.68-.04,3.67-.39,4.58-8.32,21.98-22.23,43.32-34,64-1.31-.1-2.7.15-4,0-1.43-.17-2.7-.22-3.99-.99-5.78-3.45-37.79-54.09-42.01-63.01-2.42-5.11.87-10.89-8-8-3.56,1.16-4.15.76-6.93,4.04-4.65,5.48-31.55,59.97-33.03,67.07.57,1.63,3.68.53,3.95.9,1.73,2.27-1.53,11.31-5.26,11.84-2.29.33-4.68-3.49-7.82-3.82-8.4-.89-16.66-2.05-25.35-6.09-2.69-1.25-3.51-7.59-9.57-5.95-1.22-1.02,5.21-9.07,6-9.98,8.95-10.23,15.44-20.38,22.56-32.53,12.64-21.6,23.11-47.34,37.44-67.47,4.83-6.78,9.96-12.31,16-18,14.24,19.52,24.65,40.86,38.74,60.26,24.66,33.99,16.88,11.54,33.15-4.95,2.03-2.06,3.75-1.05,4.11-1.31,2.91,11.29,16.4-4.58,13.98-12-6.48.71-5.44,6.14-8.04,8.93-1.58,1.7-4.31,1.92-5.94,3.07-1.2-4.66,9.04-21.69,11.98-27.02s24.4-40.92,27.02-40.94c5.68,9.55,9.17,20.53,13.08,30.88,11.51,30.45,31.79,76.8,37.92,107.08ZM200.12,34.31c-4.39-2.87-5.13,4.78-3.96,5.95.8.8,8.73-3.06,6.05,7.02-.67,2.51-7.93-1.61-6.07,4.98l6.04,1.01-4.01,2.98c10.58,2.81,9.4-5.49,7.14-14.2-.12-.45-4.79-7.48-5.18-7.73ZM172.16,86.25l-3.98-3.98v3.99s3.98,0,3.98,0ZM116.15,94.28c-2.18-2.18-6.16,1.8-3.98,3.98s6.16-1.8,3.98-3.98ZM122.15,108.26c.62-2.76-1.08-5.32-3.97-5.99v5.99s3.97,0,3.97,0ZM42.15,148.28c-6.56-1.26-2.97,3.23-3.94,6.58-.77,2.65-4.84.07-4.04,3.39,7.55,1.2,8.75-3.42,7.98-9.97Z"/>
      <path class="cls-1" d="M6.16,142.27c.79-8.35,5.54-18.29,9.25-25.75,9.99-20.08,23.28-43.87,34.41-63.59,8.43-14.94,18.29-29.37,26.58-44.41,3.67-1.34,5.38.44,7.81,2.72,9.78,9.17,32.37,49.99,41.61,64.38,1.7,2.65,8.29,20.37,12.33,16.65.22-.2.07-3.74,1.19-5.74,9.8-17.46,21.71-34.32,32.1-50.97,4.41-7.06,14.63-29.07,19.73-33.27,3.08-2.54,5.97-2.45,9.68-2.12,13.33,28.84,25.02,58.5,36.49,88.15,2.87,7.41,4.84,17.96,9.4,28.37,3.65,8.34,15.76,25.79,14.99,34.09-1.21,13.1-33.42,26.84-42.76,19.66l-28.83-78.17c-4.51-3.51-29.22,51.09-31.63,55.34-3.11,5.48-16.6,31.82-24.17,26.52l-51.17-79.82c-15.11,18.61-17.98,43.42-35,61.96-.28-.36-3.39.74-3.95-.9,1.48-7.1,28.38-61.58,33.03-67.07,2.78-3.27,3.37-2.87,6.93-4.04l8,8c4.22,8.91,36.24,59.55,42.01,63.01,1.29.77,2.56.83,3.99.99l.02,8c4.69-.48,3.02-6.32,3.98-8,11.77-20.68,25.68-42.02,34-64,3.9-4.32,10.73-4.68,12.99-9.99l9.01,13.99c3.58,13.08,10.33,27.34,16,40,3.42,7.63,6.23,12.65,10,20,.62,1.22-.67,5.36,1.87,7.16,4.77,3.37,18.32-6.29,23.89-7.37,2.12-3.26-1.47-6.32-1.76-7.79-6.13-30.28-26.41-76.63-37.92-107.08-3.91-10.35-7.4-21.33-13.08-30.88-2.61.02-23.97,35.4-27.02,40.94s-13.18,22.36-11.98,27.02c-.37.26-2.08-.75-4.11,1.31-16.27,16.5-8.49,38.94-33.15,4.95-14.08-19.41-24.49-40.74-38.74-60.26-.69-.94-1.11-9.03-5.02-4.02l-10.98,22.02c-14.34,20.13-24.8,45.87-37.44,67.47-7.11,12.15-13.61,22.3-22.56,32.53Z"/>
      <path class="cls-3" d="M176.16,92.27c.35-.92-.25-2.9.39-4.58,1.81-4.81,8.04-5.23,3.6-13.41,2.16-.13,4.52.49,6.63.02,1.26-.28,2.34-7.99,5.37-4.03.16.21-.44,3.06.82,5.26,3.39,5.92,2.91,12.38,5.19,20.74l-9.01-13.99c-2.26,5.32-9.09,5.67-12.99,9.99Z"/>
      <path class="cls-3" d="M248.16,148.27c.3,1.47,3.89,4.52,1.76,7.79-5.57,1.08-19.12,10.74-23.89,7.37-2.54-1.8-1.25-5.94-1.87-7.16,8.19-3.6,12.74-2.6,20.67-3.07,5.84-.35,3.36,2.36,3.33-4.93Z"/>
      <path class="cls-3" d="M200.12,34.31c.39.25,5.07,7.28,5.18,7.73,2.27,8.72,3.44,17.02-7.14,14.2l4.01-2.98-6.04-1.01c-1.86-6.59,5.4-2.47,6.07-4.98,2.68-10.08-5.25-6.22-6.05-7.02-1.17-1.17-.43-8.82,3.96-5.95Z"/>
      <path class="cls-3" d="M158.16,78.27c1.63-1.15,4.36-1.37,5.94-3.07,2.6-2.8,1.56-8.22,8.04-8.93,2.43,7.42-11.07,23.29-13.98,12Z"/>
      <path class="cls-3" d="M82.16,24.27c-6.04,5.69-11.17,11.22-16,18l10.98-22.02c3.91-5.01,4.33,3.08,5.02,4.02Z"/>
      <path class="cls-3" d="M92.16,92.27l-8-8c8.87-2.89,5.58,2.89,8,8Z"/>
      <path class="cls-3" d="M42.15,148.28c.77,6.55-.43,11.17-7.98,9.97-.81-3.33,3.27-.74,4.04-3.39.97-3.35-2.61-7.84,3.94-6.58Z"/>
      <path class="cls-3" d="M214.16,136.27c3.97-5.8,7.28.71,9.96,5.02l-9.96-5.02Z"/>
      <path class="cls-3" d="M142.16,156.27c-.96,1.68.71,7.52-3.98,8l-.02-8c1.3.15,2.69-.1,4,0Z"/>
      <path class="cls-3" d="M122.15,108.26h-3.98s0-5.99,0-5.99c2.89.67,4.59,3.23,3.97,5.99Z"/>
      <path class="cls-3" d="M116.15,94.28c2.18,2.18-1.8,6.16-3.98,3.98s1.8-6.16,3.98-3.98Z"/>
      <polygon class="cls-3" points="172.16 86.25 168.17 86.26 168.18 82.27 172.16 86.25"/>
    </g>
  </g>
</svg>