<?xml version="1.0" encoding="UTF-8"?>
<svg id="Calque_2" data-name="Calque 2" xmlns="http://www.w3.org/2000/svg" viewBox="0 0 199.78 220.8">
  <defs>
    <style>
      .cls-1 {
        fill: #85a57e;
      }

      .cls-2 {
        fill: #51514a;
      }

      .cls-3 {
        fill: #7cbfdd;
      }
    </style>
  </defs>
  <g id="Calque_1-2" data-name="Calque 1">
    <g>
      <path class="cls-1" d="M171.08,22.17c-10.7-6.27-9.43,1.66-10,2-.87.53-4.35-.38-6,.02l4,4.99c-8.28,2.38-1.24,4.54,4.01,4.99,1.32.11,2.68-.08,4,0-.89,2.35,1.43,7.83-3.07,9.99-7.68-3.22-12.45-6.24-20.93-7.99l-3.33-8.09c-8.37.72-17.54-.73-25.75,0-33.35,3.01-62.04,33.88-76.92,62.08-8.2,15.53-14.38,31.83-9.98,49.99,4.07-.99,1.49-9.67,1.87-13.09.5-4.53.69-6.93,6.11-6.9.12,14.16,2.37,16.35,8,28-.61,2.16-2.13,11.78-2.02,12.8.21,1.95,4.14,1.71,5.16,3.17,1.42,2.03-1.2,4.95-.78,5.73.49.92,15.28,12.01,17.64,10.27-5.9-5.54-1.95-7.47-2-7.98,2.48.7,4.1,2.44,6,4,14.8,12.15,21.57,12.86,40,10,20.96-3.26,38.51-7.64,51.13-25.87,9.42-13.62,12.25-38.27,4.97-53.22-1.5-3.08-12.71-19.06-15.05-20.95-8.59-6.94-26.72-7.68-36.9-4.81-2.44.69-21.07,12.16-21.69,13.29-1.85,3.31-1.98,19.6.1,23.26.42.74,3.32.06,3.45.31,2.34,4.2,2.95,11.13,6.89,14.11,4.57,3.46,16.07,3.13,17.11,3.89.22.16-.65,4.03.99,4.06,7.87.14,6.3-10.17,7.46-14.6.77-2.92,2.93-4.73,3.5-6.52,1.93-6.02-12.38-1.42-13.94-2.95-.2-14.5,16.89-12.29,22.42-1.42,8.83,17.33,2.54,30.02-15.04,35.82-14.12,4.67-21.65,4.09-33.39-4.39-1.96-1.41-3.85-5.68-8-6-8.15-9.05-8.48-13.43-10.08-25.01-.51-3.71,2.55-8.11-3.92-6.99,4.81-37.86,51.01-63.9,86.04-51.04,52.45,19.26,62.46,103.25,20.96,137.03C118.59,239.32,28.94,227.83,6.52,153.73-9.94,99.35,4.2,48.58,55.39,21.48,75.79,10.67,109.26-1.55,132.09.16c8.47.63,38.35,9.24,40.77,17.54.82,2.82-1.72,4.04-1.77,4.47ZM171.07,94.16c3.27-4.72-7.34-16.89-9.98-13.98-2.12,2.34,6.15,10.07,1.98,13.98h8ZM179.07,148.18c-9.42-2.94-11.39,8.09-11.98,15.98l10.56-9.94,1.42-6.04ZM153.07,176.18c-7.21-6.43-8.35,13.06-.98,4,1.05-1.29,1.5-3.53.98-4ZM111.04,212.18c7.65-17.23-18.22-8.53-11.97-2.02l11.97,2.02Z"/>
      <path class="cls-2" d="M37.08,90.17c14.88-28.2,43.57-59.07,76.92-62.08,8.21-.74,17.38.72,25.75,0l3.33,8.09c-54.77-11.34-116.45,45.14-98.1,101.1,11.01,33.58,41.34,44.81,74.17,37.96,33.66-7.02,47.89-26.76,38.57-60.72-10.42-37.98-61.67-38.18-64.65,3.65-.14-.25-3.03.43-3.45-.31-2.07-3.65-1.95-19.94-.1-23.26.63-1.13,19.26-12.6,21.69-13.29,10.19-2.87,28.31-2.13,36.9,4.81,2.34,1.89,13.55,17.87,15.05,20.95,7.28,14.95,4.45,39.6-4.97,53.22-12.61,18.23-30.17,22.62-51.13,25.87-7.09-1.98-14.46-1.07-22.06-2.95-6.34-1.57-11.89-4.85-17.94-7.05-1.9-1.56-3.52-3.3-6-4-.14-1.52-13.61-14.92-18-24-5.63-11.65-7.88-13.84-8-28-.09-10.46,2.65-19.63,2-30Z"/>
      <path class="cls-2" d="M117.08,136.17c11.59-16.16-4.43-12.13-7.13-15.86-5.71-7.88,3.78-18.84,12.28-20.07,29.2-4.22,33.06,40.94,10.38,54.56-26.22,15.74-65.27-3.2-67.57-33.88-.23-3.02,1.28-2.91,4.02-2.8-5.97-5.89-2.4-6.6-1.98-9.96,6.47-1.12,3.4,3.28,3.92,6.99,1.6,11.58,1.93,15.96,10.08,25.01,2.51,2.79,3.86,5.01,8,6,11.74,8.48,19.27,9.05,33.39,4.39,17.57-5.8,23.87-18.49,15.04-35.82-5.54-10.87-22.63-13.07-22.42,1.42,1.56,1.53,15.88-3.07,13.94,2.95-.57,1.78-2.73,3.59-3.5,6.52-1.16,4.43.41,14.74-7.46,14.6-1.64-.03-.77-3.89-.99-4.06Z"/>
      <path class="cls-2" d="M171.08,22.17c-.98,8-2.13,7.03-4,12-1.32-.08-2.68.11-4,0l-2-10c.57-.34-.7-8.27,10-2Z"/>
      <path class="cls-3" d="M35.08,120.17c-5.42-.03-5.6,2.37-6.11,6.9-.38,3.42,2.2,12.1-1.87,13.09-4.41-18.15,1.78-34.46,9.98-49.99.65,10.37-2.09,19.54-2,30Z"/>
      <path class="cls-3" d="M43.08,148.17c4.39,9.08,17.86,22.48,18,24,.05.51-3.9,2.44,2,7.98-2.37,1.74-17.15-9.35-17.64-10.27-.42-.78,2.2-3.7.78-5.73-1.02-1.46-4.95-1.22-5.16-3.17-.11-1.02,1.4-10.65,2.02-12.8Z"/>
      <path class="cls-3" d="M107.08,186.17c-18.43,2.86-25.2,2.15-40-10,6.04,2.2,11.6,5.48,17.94,7.05,7.61,1.88,14.97.97,22.06,2.95Z"/>
      <path class="cls-3" d="M179.07,148.18l-1.42,6.04-10.56,9.94c.59-7.89,2.56-18.92,11.98-15.98Z"/>
      <path class="cls-3" d="M171.07,94.16h-8c4.18-3.91-4.1-11.64-1.98-13.98,2.64-2.91,13.24,9.26,9.98,13.98Z"/>
      <path class="cls-3" d="M161.08,24.17l2,10c-5.24-.45-12.29-2.61-4.01-4.99l-4-4.99c1.66-.4,5.13.51,6-.02Z"/>
      <path class="cls-3" d="M153.07,176.18c.52.47.07,2.71-.98,4-7.37,9.06-6.23-10.42.98-4Z"/>
      <path class="cls-3" d="M89.08,146.17c-4.14-.99-5.49-3.21-8-6,4.15.32,6.04,4.59,8,6Z"/>
    </g>
  </g>
</svg>