<?xml version="1.0" encoding="UTF-8"?>
<svg id="Calque_2" data-name="Calque 2" xmlns="http://www.w3.org/2000/svg" viewBox="0 0 209.73 114.43">
  <defs>
    <style>
      .cls-1 {
        fill: #85a57e;
      }

      .cls-2 {
        fill: #51514a;
      }

      .cls-3 {
        fill: #7cbfdd;
      }
    </style>
  </defs>
  <g id="Calque_1-2" data-name="Calque 1">
    <g>
      <path class="cls-1" d="M192.08,53.82l-4,4c-1.9-4.08-7.46-8.65-8.03-13.98l-1.35,10.68,15.37,23.3c2.29,7.9,5.81,15.52,5.99,23.99L6.07,105.82c-2.04-1.96,7.03-37.2,9.06-41.95,8.15-19.02,19.8-31.92,37.18-42.82C78.31,4.73,94.35,6.97,123.11,7.88c3.77.12,8.15,1.72,6.97-4.06,31.46,9.36,47.15,20.88,62,50ZM130.04,21.9c-.4-.46-9.89-1.88-11.95-2.07-.87,4.83,5.95,7.14,9.24,7.77,4.59.88,3.14-5.2,2.71-5.7ZM122.07,53.85c-2.47-2.54-13.62-3.26-11.98,3.96,1.64.34,16.9,1.11,11.98-3.96ZM136.07,81.83c-2.17-1.1-25.3.85-19.99,5.97,2.65,2.56,20.92,2.94,19.99-5.97ZM112.07,83.84h-3.98v1.96h3.98v-1.96Z"/>
      <path class="cls-2" d="M130.08,3.82c1.18,5.78-3.2,4.18-6.97,4.06-28.76-.91-44.8-3.15-70.8,13.17-17.38,10.91-29.03,23.8-37.18,42.82-2.04,4.75-11.11,39.99-9.06,41.95l194-4.01c-.18-8.47-3.7-16.09-5.99-23.99-1.92-6.63-3.02-13.62-6-20l4-4c8.98,17.6,9.96,23.84,14.16,42.83.81,3.68,4.91,6.1,2.98,9.22-4.62,7.5-30.12,2.56-38.19,3.01-37.16,2.09-74.2,2.07-112.03,2.85-11.01.23-47.89,5.78-55.64.26-7.23-5.15-.96-35.95,1.77-44.13C21.81,17.84,80.99-10.8,130.08,3.82Z"/>
      <path class="cls-3" d="M136.07,81.83c.93,8.91-17.34,8.52-19.99,5.97-5.31-5.12,17.82-7.07,19.99-5.97Z"/>
      <path class="cls-3" d="M130.04,21.9c.43.5,1.88,6.57-2.71,5.7-3.29-.63-10.11-2.94-9.24-7.77,2.05.19,11.55,1.61,11.95,2.07Z"/>
      <path class="cls-3" d="M122.07,53.85c4.92,5.07-10.34,4.3-11.98,3.96-1.64-7.21,9.52-6.5,11.98-3.96Z"/>
      <rect class="cls-3" x="108.09" y="83.84" width="3.98" height="1.96"/>
    </g>
  </g>
</svg>