<?xml version="1.0" encoding="UTF-8"?>
<svg id="Calque_2" data-name="Calque 2" xmlns="http://www.w3.org/2000/svg" viewBox="0 0 271.29 159.17">
  <defs>
    <style>
      .cls-1 {
        fill: #51514a;
      }

      .cls-2 {
        fill: #4f87b9;
      }

      .cls-3 {
        fill: #7cbfdd;
      }
    </style>
  </defs>
  <g id="Calque_1-2" data-name="Calque 1">
    <g>
      <path class="cls-1" d="M1.49,142.94c-.53-2.25-1.56-2.72-1.48-6.34C1.32,75.71,44.47,18.34,104.17,4.63,148.26-5.5,183.35.29,218.43,29c31.11,25.46,39.9,41.96,47.27,80.73,2.78,14.63,13.72,34.21-5.66,38.75-36.07,8.45-85.28.84-123.63,2.37-29.83,1.19-60.2,6.29-89.84,8.16-11.45.72-31.7-.95-41.08-8.08,3.63-4.06,9.18-3.51,14-4,66.3-6.77,141.11-4.58,209.1-7.96,4.95-.25,31.98-2.68,32.9-4.06-8.81-27.42-9.28-53.76-27.99-76.99-8.08-10.03-22.46-23.89-34-29-.6-.27-1.74.31-2,0-.31-.37.59-3.2-.88-4.07C136.94-10.42,49.39,19.49,22.52,82.98c-4.41,10.42-12.27,31.27-13.04,41.96-.22,3.1-.98,8.44,2,10,.05.66-.07,1.34,0,2l-10,6Z"/>
      <path class="cls-3" d="M11.49,136.94c.03.25,2.66,4.11,2.99,4l4.99-4,.02,10c-4.82.49-10.37-.06-14,4-4.82-3.66-2.86-3.15-4-8l10-6Z"/>
      <path class="cls-2" d="M197.49,28.94l-1.99.99c.21,2.08,4.12,1.62,3.99-.99,11.54,5.11,25.92,18.96,34,29,18.71,23.22,19.18,49.57,27.99,76.99-.92,1.38-27.95,3.81-32.9,4.06-67.99,3.38-142.8,1.19-209.1,7.96l-.02-10-4.99,4c-.33.11-2.97-3.75-2.99-4-.07-.66.05-1.34,0-2-.04-.57,4.72-6.58-2-10,.76-10.7,8.62-31.54,13.04-41.96C49.39,19.49,136.94-10.42,196.61,24.87c1.47.87.57,3.7.88,4.07ZM147.5,32.93c1-.95-.32-7.37-2.94-7.71s-18.65,5.39-25.08,1.72v5.98s6.01.01,6.01.01c2.28,5.68-5.74,2.63-3.98,6.96,2.91,7.17,14.99,5.12,17.55.57,1.29-2.29-.15-6.94.42-7.54.72-.75,7.29.69,8.02,0ZM186.49,28.94v2c1.3-.67,1.3-1.33,0-2ZM196.95,33.43c-2.09-.89-7.3,2.21-10.44-.51-3.93,3.92,4.58,4.95,5.98,10.01l2.97-3.98c-1.77,10.01,4.67,4.53,10.75,5.93,2.33.54-.04,4.92,3.26,4.04-.6-12.17-4.63-9.1-10.4-12.18-1.81-.97-1.75-3.16-2.12-3.32ZM157.47,38.95l-9.98,2.98c2.39,3.38,6.17,3.3,9.98,3v-5.98ZM79.71,46.59c-.76-.7.66-4.25-1.21-3.64l-7,9.98c5,.71,19.07-2.19,13.98-7.99-.76-.87-4.86,2.48-5.77,1.65ZM127.48,48.95h-5.98v3.98h5.98v-3.98ZM199.49,52.96c-.35-.37-9.63-2.38-9.99-2.01-4.79,4.85,15.86,8.38,9.99,2.01ZM171.47,54.95c-13.35,6.84-24.36-4.37-36.56-1.59-1.26.29-21.86,13.35-21.42,14.57,3.76,10.29,10.81-4.52,11.43-4.97,1.32-.97,11.62-4.88,12.56-4.01l-7.99,17.97,20.62-9.99c7.48-12.52,7.66,8.38,19.36,6.01-.22-2.81.58-6,.03-8.68-.43-2.07-5.94,0-4-5.31l5.97,1.99v-5.99ZM84.78,74.23c3.82-3.93,6.42-10.43,10.67-14.31-2.83.06-8.32,1.57-10.55,2.94-6.81,4.18-11.35,12.21-16.12,17.51-.79.87-4.12.04-5.44,1.79-4.12,5.47-2.18,9.61,4.12,10.78l.04-8.01,3.97,2.02,2.04-10,2.97,3.98c1.96-3.12,6.1-4.43,8.3-6.7ZM187.01,61.49c-2.57-1.1-16.79-1.29-11.53,3.43.28.25,5.16.22,7.43,1.54,5.36,3.1,8.32,4.22,13.06,6.61,2.61,1.32.11,5.36,5.5,3.87.59-12.87-5.17-8.3-11.56-11.35-2.29-1.09-2.38-3.86-2.91-4.09ZM157.49,70.96c-13.15-4.01-5.36,1.49-9.16,4.19-2.9,2.06-8.44.86-11.31,1.86-2.06.72-2.71,4.47-6.04,6.39-10.49,6.05-19.53,2.97-21.5,17.54l5.99,6-9.97-3.99c-5.37,18.7,4.2,9.11,13.13,8.15,9.65-1.04,26.55,2.71,28.83-10.15-8.73,3.19-11.06-2.83-13.55-3.82-1-.4-15.05-1.65-10.43-6.18,3.62-3.54,4.04,3.76,5.21,4.04,4.03.96,7.52.4,6.84-4.01,6.33,5.33,9.63,5.23,15.9-.02,2.43,12.31,3.83-1.13,6.01-3.01,4.96-4.28,15.65.5,19.24,4.79,3.56,4.26,1.09,9.06,4.77,10.19.68-3.61,2.83-5.96,1.1-9.91-.43-.99-15.43-12.11-17.15-13.01-1.52-.79-15.08-1.92-10.67-5.08,1.12-.8,4.16,1.19,2.75-3.97ZM235.49,72.94c-.29-.27.27-8.25-3.99-3.99s3.67,3.75,3.99,3.99c.47.36.86,5.32,1.83,7.08,4.99,9.01,8.66,5.2,4.74-3.08-1.47-3.1-6.29-3.74-6.57-4ZM189.49,80.92c-.44-1.71-3.86-5.54-5.03-5.96-5.82-2.08-2.6,8.35,5.03,5.96ZM117.47,80.95c-.51-.5-16.86,2.32-11.98,5.98,3.49,2.03,15.85-2.19,11.98-5.98ZM197.48,82.96h-7.98v1.96h7.98v-1.96ZM53.48,86.95c-10.48.3-6.58,4.69-8.45,10.44-.67,2.07-5.16,5.79-3.53,7.54,3.25,3.47,13-16.98,11.98-17.98ZM85.49,86.96h-3.99s0,3.98,0,3.98l3.98-3.98ZM198.49,86.94v2c1.3-.67,1.3-1.33,0-2ZM205.48,88.95c-2.18-2.18-6.16,1.8-3.98,3.98s6.16-1.8,3.98-3.98ZM31.52,111c.23-.31,3.7-.16,4.92-2.02,1.95-2.96,1.44-10.17,3.03-14.03-3.69,0-5.88,8.9-6.54,9.45-1.37,1.17-4.48-.38-5.5,1.84-2.34,5.07-1.72,16.81-1.93,22.69,8.53-6.29,3.15-12.91,17.97-10.01,1.53-8.29-6.44-.6-10-2.93-1.57-1.02-2.9-3.75-1.95-5ZM209.48,94.95c-2.76-.62-5.32,1.08-5.99,3.97h5.99s0-3.97,0-3.97ZM225.49,104.95l-15.99-4.01c-1.33,11.61,4.4,10.82,13.05,8.04,2.77-.89,3.56,1.26,2.94-4.03ZM59.48,104.95c-2.73-2.61-10.64,7.12-7.98,9.98s9.82-8.22,7.98-9.98ZM167.48,106.96c-3.85.09-12.66-.75-13.98,3.96,3.85-.09,12.66.75,13.98-3.96ZM177.47,108.97l-7.97-2.02v3.98s7.98,0,7.98,0v-1.95ZM67.48,108.95c-3.78-.64-6.63,2.34-5.98,5.98h5.98s0-5.98,0-5.98ZM227.48,122.93c1.68-4.69-10.31-11.65-11.98-9.98.31,7.16,4.61,11.38,11.98,9.98ZM231.48,112.95c-2.18-2.18-6.16,1.8-3.98,3.98,2.18,2.18,6.16-1.8,3.98-3.98ZM53.48,128.95l-12.89.09-15.09,7.89c4.39-1.56,11.71,2.17,14.78,1.58,4.1-.79,4.65-6.85,5.44-7.38,1.02-.7,9.52,5.82,7.77-2.18Z"/>
      <path class="cls-3" d="M11.49,134.94c-2.98-1.56-2.22-6.9-2-10,6.72,3.42,1.96,9.43,2,10Z"/>
      <path class="cls-3" d="M199.49,28.94c.13,2.61-3.79,3.07-3.99.99l1.99-.99c.26.31,1.4-.27,2,0Z"/>
      <path class="cls-3" d="M157.49,70.96c1.41,5.17-1.63,3.17-2.75,3.97-4.42,3.16,9.15,4.29,10.67,5.08,1.72.9,16.72,12.02,17.15,13.01,1.73,3.95-.43,6.3-1.1,9.91-3.68-1.13-1.21-5.93-4.77-10.19-3.59-4.29-14.27-9.07-19.24-4.79-2.18,1.88-3.58,15.32-6.01,3.01-6.26,5.25-9.57,5.35-15.9.02.69,4.4-2.81,4.96-6.84,4.01-1.17-.28-1.59-7.58-5.21-4.04-4.62,4.53,9.43,5.78,10.43,6.18,2.49,1,4.82,7.01,13.55,3.82-2.28,12.86-19.19,9.11-28.83,10.15-8.94.96-18.51,10.55-13.13-8.15l9.97,3.99-5.99-6c1.98-14.56,11.02-11.49,21.5-17.54,3.34-1.92,3.98-5.68,6.04-6.39,2.86-1,8.41.2,11.31-1.86,3.8-2.7-3.99-8.2,9.16-4.19Z"/>
      <path class="cls-3" d="M171.47,54.95v5.99s-5.97-1.99-5.97-1.99c-1.94,5.3,3.58,3.24,4,5.31.55,2.68-.26,5.87-.03,8.68-11.7,2.38-11.88-18.52-19.36-6.01l-20.62,9.99,7.99-17.97c-.93-.88-11.23,3.04-12.56,4.01-.62.45-7.67,15.26-11.43,4.97-.44-1.22,20.16-14.28,21.42-14.57,12.2-2.78,23.21,8.43,36.56,1.59Z"/>
      <path class="cls-3" d="M147.5,32.93c-.73.69-7.31-.74-8.02,0-.56.59.88,5.24-.42,7.54-2.57,4.55-14.65,6.6-17.55-.57-1.76-4.33,6.27-1.28,3.98-6.96h-6s0-6,0-6c6.43,3.67,22.36-2.07,25.08-1.72s3.95,6.75,2.94,7.71Z"/>
      <path class="cls-3" d="M84.78,74.23c-2.2,2.27-6.34,3.58-8.3,6.7l-2.97-3.98-2.04,10-3.97-2.02-.04,8.01c-6.3-1.17-8.24-5.3-4.12-10.78,1.32-1.76,4.65-.92,5.44-1.79,4.77-5.31,9.3-13.33,16.12-17.51,2.23-1.37,7.71-2.87,10.55-2.94-4.24,3.88-6.85,10.38-10.67,14.31Z"/>
      <path class="cls-3" d="M31.52,111c-.95,1.25.39,3.98,1.95,5,3.56,2.33,11.53-5.36,10,2.93-14.82-2.9-9.44,3.72-17.97,10.01.21-5.88-.41-17.63,1.93-22.69,1.02-2.22,4.13-.68,5.5-1.84.65-.55,2.85-9.44,6.54-9.45-1.59,3.85-1.08,11.07-3.03,14.03-1.22,1.85-4.69,1.71-4.92,2.02Z"/>
      <path class="cls-3" d="M187.01,61.49c.53.23.62,3,2.91,4.09,6.39,3.05,12.15-1.52,11.56,11.35-5.4,1.5-2.89-2.55-5.5-3.87-4.75-2.39-7.7-3.51-13.06-6.61-2.27-1.31-7.14-1.28-7.43-1.54-5.26-4.72,8.96-4.53,11.53-3.43Z"/>
      <path class="cls-3" d="M196.95,33.43c.36.15.3,2.35,2.12,3.32,5.77,3.08,9.8.01,10.4,12.18-3.29.88-.93-3.5-3.26-4.04-6.07-1.4-12.52,4.07-10.75-5.93l-2.97,3.98c-1.4-5.06-9.91-6.09-5.98-10.01,3.14,2.71,8.35-.38,10.44.51Z"/>
      <path class="cls-3" d="M53.48,128.95c1.75,7.99-6.75,1.48-7.77,2.18-.78.54-1.34,6.6-5.44,7.38-3.07.59-10.39-3.14-14.78-1.58l15.09-7.89,12.89-.09Z"/>
      <path class="cls-3" d="M225.49,104.95c.62,5.29-.17,3.14-2.94,4.03-8.64,2.78-14.38,3.57-13.05-8.04l15.99,4.01Z"/>
      <path class="cls-3" d="M53.48,86.95c1.02,1-8.73,21.45-11.98,17.98-1.64-1.75,2.85-5.47,3.53-7.54,1.87-5.76-2.02-10.15,8.45-10.44Z"/>
      <path class="cls-3" d="M79.71,46.59c.9.83,5.01-2.51,5.77-1.65,5.09,5.8-8.98,8.7-13.98,7.99l7-9.98c1.87-.61.45,2.94,1.21,3.64Z"/>
      <path class="cls-3" d="M227.48,122.93c-7.37,1.4-11.67-2.82-11.98-9.98,1.67-1.67,13.66,5.29,11.98,9.98Z"/>
      <path class="cls-3" d="M235.49,72.94c-.32-.24-8.21.23-3.99-3.99s3.7,3.72,3.99,3.99,5.1.9,6.57,4c3.92,8.28.25,12.09-4.74,3.08-.98-1.76-1.36-6.72-1.83-7.08Z"/>
      <path class="cls-3" d="M59.48,104.95c1.84,1.76-5.29,12.87-7.98,9.98s5.25-12.59,7.98-9.98Z"/>
      <path class="cls-3" d="M117.47,80.95c3.88,3.79-8.49,8.01-11.98,5.98-4.89-3.66,11.47-6.48,11.98-5.98Z"/>
      <path class="cls-3" d="M157.47,38.95v5.98c-3.8.3-7.59.38-9.98-3l9.98-2.98Z"/>
      <path class="cls-3" d="M167.48,106.96c-1.32,4.71-10.13,3.86-13.98,3.96,1.32-4.71,10.13-3.86,13.98-3.96Z"/>
      <path class="cls-3" d="M199.49,52.96c5.87,6.36-14.78,2.83-9.99-2.01.36-.36,9.64,1.64,9.99,2.01Z"/>
      <path class="cls-3" d="M189.49,80.92c-7.62,2.39-10.85-8.04-5.03-5.96,1.17.42,4.59,4.25,5.03,5.96Z"/>
      <path class="cls-3" d="M67.48,108.95v5.98s-5.98,0-5.98,0c-.65-3.64,2.2-6.62,5.98-5.98Z"/>
      <rect class="cls-3" x="121.5" y="48.95" width="5.98" height="3.98"/>
      <polygon class="cls-3" points="177.47 108.97 177.48 110.92 169.5 110.93 169.5 106.95 177.47 108.97"/>
      <path class="cls-3" d="M209.48,94.95v3.98s-5.99,0-5.99,0c.67-2.89,3.23-4.59,5.99-3.97Z"/>
      <path class="cls-3" d="M231.48,112.95c2.18,2.18-1.8,6.16-3.98,3.98-2.18-2.18,1.8-6.16,3.98-3.98Z"/>
      <path class="cls-3" d="M205.48,88.95c2.18,2.18-1.8,6.16-3.98,3.98s1.8-6.16,3.98-3.98Z"/>
      <rect class="cls-3" x="189.5" y="82.96" width="7.98" height="1.96"/>
      <polygon class="cls-3" points="85.49 86.96 81.51 90.94 81.5 86.95 85.49 86.96"/>
      <path class="cls-3" d="M186.49,28.94c1.3.67,1.3,1.33,0,2v-2Z"/>
      <path class="cls-3" d="M198.49,86.94c1.3.67,1.3,1.33,0,2v-2Z"/>
    </g>
  </g>
</svg>