<?xml version="1.0" encoding="UTF-8"?>
<svg id="Calque_2" data-name="Calque 2" xmlns="http://www.w3.org/2000/svg" viewBox="0 0 293.84 267.03">
  <defs>
    <style>
      .cls-1 {
        fill: #7cbfdd;
      }
    </style>
  </defs>
  <g id="Calque_1-2" data-name="Calque 1">
    <path class="cls-1" d="M151.01,243.27c-4.28-.26-8.69.45-12.97-.05-24.32-2.82-75.43-19.2-92.32-36.68-20.06-20.75-25.83-68.44-18.13-95.71,9.15-32.4,43.72-80.93,78.58-85.4,11.39-1.46,26.41,3.06,35.68,1.84,7.27-.95,18.45-5.65,28.37-5.82,70.14-1.23,133.91,49.66,122.22,124.25-8.43,53.83-53.8,71.78-97.47,90.52-47.36,20.32-101.26,47.99-150.68,16.75C6.74,229.23-4.02,187.21,1.26,144.5,8,89.9,45.97,26.66,99.01,6.26c14.7-5.65,44.52-12.64,53.02,4.95C96.52-8.44,37.59,53.36,20.05,101.3c-26.18,71.57-7.67,166.29,85.92,157.92,12.98-1.16,35.31-7.31,45.03-15.95ZM219.02,213.24c3.87,3.29,24.9-10.82,28.94-14.04,54.6-43.47,44.69-119.88-14.31-153.59-13.14-7.51-53.62-20.33-67.3-16.01-13.94,4.41,10.5,8.55,13.46,9.84,5.29,2.31,7.67,6.67,11.34,8.66,15.1,8.16,30.42,9.09,45.94,22.02,39.65,33.04,32.46,74.82,4.74,112.96l-22.82,30.16ZM47.01,115.25c.57-.81-2.62-5.55-1.05-9.86,4.2-11.48,34.6-42.84,45.24-50.86l33.8-21.26c-26.92-2.86-46.99,12.37-62.86,32.11-25.35,31.56-41.19,84.78-20.82,122.55,1.33,2.46,12.88,18.12,15.68,15.3,1.58-1.59-19.48-31.73-18.15-40.79.33-2.27,5.05.17,4.15-3.18l-6.12-1.17c-1.79-12.93-2.29-27.8,4.49-39.56,2.05-3.56,5.45-3.02,5.64-3.29-1.15,3.19-3.73,15.2-4.11,18.89-.69,6.73-1.36,19.79,3.13,25.07-1.58-7.43.09-14.93,1.57-22.37,1.32-6.68,7.02-19.02,7.39-22.7.2-1.97-.69-8.98-3.95-8.87,2.49,5.62-3.77,9.31-4.02,9.99ZM165,41.28c-.77-.76-19.17-5.95-20.74-5.92-8.3.16-21.93,7.17-27.25,13.87,14.26-1.74,31.67-7.14,45.48-4.41,4.01.79,3.4-2.66,2.51-3.54ZM152.68,51.75c-71.68,2.78-135.96,102.58-75.48,156.31,25.48,22.63,69.2,1.51,93.65-13.97,46.01-29.12,80.1-73.85,35.19-122.87-15.27-16.66-30.64-20.36-53.36-19.48ZM199.84,216.1c19-15.21,50.45-58.39,54.37-82.18,4.69-28.48-12.9-53.63-38.23-64.62,7.29,15.55,20.23,28.01,21.05,47.05,1.91,44.66-55.59,88.49-92.97,102.97-5.44,2.11-24.08,5.12-25.07,5.95-3.34,2.83.76,3.49,2.78,4.21,25.09,8.93,57.95,2.72,78.06-13.37ZM61,205.26h-3.99s2.02,5.98,2.02,5.98h1.96s0-5.98,0-5.98Z"/>
  </g>
</svg>