<?xml version="1.0" encoding="UTF-8"?>
<svg id="Calque_2" data-name="Calque 2" xmlns="http://www.w3.org/2000/svg" viewBox="0 0 231.62 222.33">
  <defs>
    <style>
      .cls-1 {
        fill: #edb468;
      }
    </style>
  </defs>
  <g id="Calque_1-2" data-name="Calque 1">
    <path class="cls-1" d="M66.16,42.45c-6.8,4.88-16.73,16.25-21.54,23.44-27.18,40.63-24.79,119.34,32.71,130.95,36.78,7.42,62.05-11.79,76.46-43.78,8.81-19.55,9.98-23.19.03-42.71-8.91-17.48-20.51-28.4-41.48-28.69-28.29-.39-53.72,38.66-26.96,61.11,16.36,13.72,31.97-10.97,20.68-14.68-7.06-2.32-12.33.81-12.77-11.44-.79-22.36,38.25-14,42.01,10.19,7.43,47.88-76.6,58.3-81.95-.04-7.27-79.37,104.43-88.23,123.53-17.52,18.51,68.55-41.88,120.3-108.22,112.22C15.87,215.06-8.75,134.69,2.8,90.08,21.99,16.01,118.24-26.95,183.27,18.89c40.13,28.28,55.55,81.91,45.25,128.91-3.15,14.36-21.45,60.59-36.55,63.62-7.43,1.49-14.36-8.06-14.37-14.7,0-7.35,16.7-26.41,20.26-35.58,15.49-39.91,6.93-110.06-37.06-127.78-29.18-11.75-68.66-9.56-94.65,9.09Z"/>
  </g>
</svg>