<?xml version="1.0" encoding="UTF-8"?>
<svg id="Calque_2" data-name="Calque 2" xmlns="http://www.w3.org/2000/svg" viewBox="0 0 292.04 179.95">
  <defs>
    <style>
      .cls-1 {
        fill: #85a57e;
      }

      .cls-2 {
        fill: #51514a;
      }
    </style>
  </defs>
  <g id="Calque_1-2" data-name="Calque 1">
    <g>
      <path class="cls-2" d="M276.41,11.81c-7.46,3.54-2.9,13.46-3.98,19.99,7.8-4.04-3.25-11.96,7.98-13.99.13.17,2.7-.38,4.04,1.4,12.99,17.17,6.99,12.45-.82,24.82-3.51,5.56-8.58,15.41-10.31,21.69-8.44,30.65,7.06,106.68-39.91,112.08-48.43,5.56-38.38-52.56-50.4-83.61-11.53-29.79-18.07,27.79-19.55,33.67-7.39,29.32-15.82,57.95-53.15,51.04-7.96-1.47-16.81-5.72-21.9-12.1-13.72-17.19-16.47-68.17-28.13-75.88-14.31-9.47-21.02,12.79-23.75,24-2.53,10.35-1.32,49.49-5.08,52.92-4.98,4.54-27.52-.85-30.07-6.01-1.98-4.02-1.38-23.3-.95-29,.73-9.71,5.95-42.88,8.96-51.04,4.6-12.46,27.08-36.75,40.46-39.53,47.54-9.86,42.25,55.87,58.13,80.97,3.47,5.48,7.45,9.03,14.41,8.58,8.98-22.61,4.06-57.65,17.11-77.91,9.83-15.27,34.13-26.53,51.46-17.64,3.56,1.82,14.55,17.52,16.28,21.72,7.21,17.59,3.22,45.79,14.22,59.78,9.98,12.68,14.4-23.98,14.93-28.97,2.49-23.8,1.02-49,12.27-71.73,1.89-3.81,11.57-16.26,15.04-16.93,7.02-1.37,10.08,8.74,12.71,11.69ZM174.4,49.8v-2.96s-5.97-5.03-5.97-5.03v7.99s5.97,0,5.97,0ZM184.12,42.13c-.72-.62-7.06-1.2-7.7.67,3.15,3.73,4.68,7.86,9.97,9.01.43-.53-1.9-9.36-2.27-9.68ZM173.41,55.81v2c1.3-.67,1.3-1.33,0-2ZM196.4,61.81c.2.23,4.91,1.3,5.97,1.02l-4.97-7.01c-1.76.07-1.2,5.76-1,5.99ZM37.43,59.85c-1.67,1.64-4.75,5.5-4.04,7.92,1.67-1.64,4.75-5.5,4.04-7.92ZM154.39,71.8l3.04-11.95-5.05,10.93,2,1.01ZM66.4,61.82h-5.98v3.98h5.98v-3.98ZM30.39,75.8l1.04-5.95c-2.16,1.77-3.66,3.02-3,5.95h1.96ZM142.39,113.8v-5.98h-1.96v5.98h1.96ZM232.4,129.83h-7.98s0,3.97,0,3.97l7.97-2.02v-1.95ZM140.4,163.8l-.98-7.98c-3.08,2.16-3.48,4.29-3,7.98h3.98ZM224.4,163.8c.65-3.64-2.2-6.62-5.98-5.98v5.98s5.98,0,5.98,0ZM230.4,165.82c-2.18-2.18-6.16,1.8-3.98,3.98s6.16-1.8,3.98-3.98Z"/>
      <path class="cls-1" d="M280.41,17.81c-11.23,2.03-.18,9.95-7.98,13.99,1.08-6.53-3.48-16.45,3.98-19.99,2.69,3.01,2.81,4.45,4,6Z"/>
      <path class="cls-1" d="M184.12,42.13c.38.32,2.7,9.15,2.27,9.68-5.29-1.15-6.82-5.28-9.97-9.01.64-1.88,6.97-1.29,7.7-.67Z"/>
      <polygon class="cls-1" points="174.4 49.8 168.42 49.81 168.43 41.81 174.39 46.84 174.4 49.8"/>
      <path class="cls-1" d="M224.4,163.8h-5.98s0-5.98,0-5.98c3.78-.64,6.63,2.34,5.98,5.98Z"/>
      <path class="cls-1" d="M140.4,163.8h-3.98c-.48-3.69-.08-5.82,3-7.98l.98,7.98Z"/>
      <rect class="cls-1" x="60.42" y="61.82" width="5.98" height="3.98"/>
      <polygon class="cls-1" points="232.4 129.83 232.4 131.79 224.42 133.8 224.42 129.82 232.4 129.83"/>
      <path class="cls-1" d="M196.4,61.81c-.2-.23-.76-5.92,1-5.99l4.97,7.01c-1.05.28-5.77-.79-5.97-1.02Z"/>
      <path class="cls-1" d="M230.4,165.82c2.18,2.18-1.8,6.16-3.98,3.98s1.8-6.16,3.98-3.98Z"/>
      <rect class="cls-1" x="140.43" y="107.82" width="1.96" height="5.98"/>
      <polygon class="cls-1" points="154.39 71.8 152.38 70.79 157.43 59.85 154.39 71.8"/>
      <path class="cls-1" d="M30.39,75.8h-1.96c-.66-2.93.84-4.18,3-5.95l-1.04,5.95Z"/>
      <path class="cls-1" d="M37.43,59.85c.71,2.42-2.37,6.27-4.04,7.92-.71-2.42,2.37-6.27,4.04-7.92Z"/>
      <path class="cls-1" d="M173.41,55.81c1.3.67,1.3,1.33,0,2v-2Z"/>
    </g>
  </g>
</svg>