<?xml version="1.0" encoding="UTF-8"?>
<svg id="Calque_2" data-name="Calque 2" xmlns="http://www.w3.org/2000/svg" viewBox="0 0 431.95 162.85">
  <defs>
    <style>
      .cls-1 {
        fill: #85a57e;
      }

      .cls-2 {
        fill: #51514a;
      }

      .cls-3 {
        fill: #7cbfdd;
      }
    </style>
  </defs>
  <g id="Calque_1-2" data-name="Calque 1">
    <g>
      <path class="cls-1" d="M188.79,66.48c-8.21-.62-4.91-.22-5.94,4.97-1.66,8.37-3.84,14.81,7.94,15.03,1.2,5.66,1.05,9.44,8,8,4.54,1.42,7.12,14.36,10.91,14,6.72-.64,12.69-10.28,15.09-16,2.19,1.21,6.3,3.76,8.01.7,1.09-1.95,6.2-16.55,7.48-20.23,1.51-4.38,2.83-8.2,4.05-11.44,2.29-6.1.16-10.06,7.49-17,9.91-9.37,39.88-8.78,50.94-1,8.16,5.74,15.79,33.68,23.94,43.53,3.87,4.68,20.59,4.95,25.25,1.59,5.32-3.84,9.6-21.6,8.85-28.15l5.99-3.01-3.99-.99c.74-.61,1.12-3.1,2-4,2.78-2.84,7.72-6.39,9.02-9.96-3.89.48-9.49,7.29-11.02,7.96-1.19.52-4.3-.36-6,0,1.03-2.03.44-4.79,2.58-7.41,3.26-3.99,10.94-6.52,15.42-8.59-.84,6.16,2.12,4.08,6.02,3.03,6.46-1.74,13.55-5.18,20.52-4.59,1.57.13,19,5.23,20.12,5.89,5.06,2.98.61,22.61-1.57,25.76-2.52,3.64-13.1,1.24-17.99,2.02-11.21,1.8-12.96,15.38-17.1,23.89-5.87,4.63-7.81,8.8-10,16-7.24,7.96-15.27,16.44-28,20,.77.53,2.1,3.57,4,4-.71.33-2.1,3.95-5.91,5.07-4.03,1.18-11.77-.05-16.09-1.07v-6c5.82.19,12.43-.44,18-2-3.32-2.29-6.07-4.23-11.15-4.11-5.96.13-6.34,3.94-6.85,4.11-1.63.57-7.74.35-9.51-.53-7.11-3.55-20.88-30.67-28.49-37.47-.52-.7-1.22-1.77-2-2-.58-.17-1.33.14-2,0,1.32-8.4-3.37-8.36-8-2-1.35,1.85-1.33,2.78-2,4-3.53,6.4-9.34,7.09-12,10-3.77-1.62-3.91-3.97-6.48.54-7.44,13-11.83,39.31-23.7,48.28-10.74,8.12-39.09,9.89-52.01,6.3-5.34-1.48-3.42-4.77-3.81-5.12l2.02-1.04c-2.61-6.5-4.16-10.74-12.02-8.96-13.78-21.21-7.69-33.18-7.94-54.9-.03-3.01-4.08-25.48-5.09-27.08-1.65-2.63-11.27-5.28-14.46-5.53-20.82-1.62-17.75,19.65-21.42,33.6-5.39,20.45-10.61,43.94-27.05,58.95-7.42,6.78-18.11,10.67-26.05,16.95-.66.01-1.34.03-2,0-.32-8.56-13.37-6.71-20.12-8.95-2.11-.7-3.06-2.67-3.88-3.05,1.27-5.66-4.21-4.49-8-6-1.33-2.55.13-6.11-6-6C9.93,118.18,9.1,95.57,6.62,71.47l2.17-36.99c10.97-2.95,16.6-.02,26,4-2.09,6.18-2.43,12.59-2.08,19.08s2.05,24.56,3.36,30.45c1.75,7.87,9.1,14.96,9.25,23.93,4.47,2.86,8.13,5.32,13.46,6.53.59.13,1.32-.07,2,0-5.56,10.83-12.11,1.07-20.03,3.03l2.04,10.98c5.49,1.93,3.4-3.35,4.09-3.85,4.15-2.93,3.64,2.97,5.23,3.88,3.26,1.88,8.06,2.45,11.66,3.98,8.1-1.07-4.19-2.63-3.02-7.02.16-.62,7.4-3.16,4.04-11,17.44-3.32,20.26-14.35,26-30,1-2.74,4.92-6.89,0-10,1.49-17.72,13-56.45,30-64,6.03-2.68,17.21-2.57,22-8,32.84,2.29,40.67,32.97,46,60ZM320.78,98.47c.62-2.76-1.08-5.32-3.97-5.99v5.99s3.97,0,3.97,0ZM354.78,106.47c-.03-7.33-5.95-7.33-5.98,0h5.98ZM342.79,108.5c-.6-.56-15.38-4.56-15.99-4.01-4.99,4.43,12.14,7.33,13.47,7.55,4.08.66,3.51-2.62,2.52-3.54ZM212.78,114.49c-4.39-.37-9.74-.61-9.98,4.96l4.96,3.02c2.47-2.53,5.78-4.22,5.02-7.98ZM214.8,132.47c2.37,2.36,7.94-3.97,5.97-7.99-2.64.45-7.66,6.3-5.97,7.99Z"/>
      <path class="cls-2" d="M168.79,138.48c4.06,6.25,4.5,5.08,10,10,.39.35-1.53,3.63,3.81,5.12,12.92,3.59,41.27,1.82,52.01-6.3,11.87-8.97,16.26-35.28,23.7-48.28,2.58-4.5,2.72-2.16,6.48-.54-1.31,1.43-8.95,30.16-12.25,36.75-11.87,23.75-31.16,29.3-56.72,27.21-31.03-2.54-42.64-28.83-45-56.99-1.07-12.73,6.89-51.77-12.63-47.05-7.74,1.87-15.63,49.83-19.31,59.16-8.02,20.35-27.36,40.46-49.56,44.46-1.58.29-2.37-1.55-2.53-1.54,7.94-6.28,18.62-10.18,26.05-16.95,16.44-15.02,21.66-38.5,27.05-58.95,3.67-13.95.6-35.22,21.42-33.6,3.2.25,12.81,2.89,14.46,5.53,1,1.6,5.05,24.08,5.09,27.08.25,21.72-5.84,33.69,7.94,54.9Z"/>
      <path class="cls-2" d="M198.79,94.48c-6.95,1.44-6.8-2.34-8-8s-.87-14.27-2-20c-5.33-27.03-13.16-57.71-46-60-6.9-.48-21.83-.09-22,8-17,7.55-28.51,46.28-30,64-.28,3.29.19,6.69,0,10-5.74,15.65-8.56,26.68-26,30-.62.12-1.35-.03-2,0l15.59-21.41C87.74,56.41,93.02-6.06,149.8.47c39.35,4.53,50.83,61.58,48.99,94.01Z"/>
      <path class="cls-2" d="M356.79,50.48c1.7-.36,4.81.52,6,0l2,2c-.88.9-1.26,3.39-2,4-.51.42-3.41-.55-3.99.03-1.39,1.38,1.97,3.75,1.99,3.97.75,6.55-3.53,24.32-8.85,28.15-4.66,3.36-21.38,3.09-25.25-1.59-8.15-9.85-15.78-37.79-23.94-43.53-11.06-7.78-41.03-8.37-50.94,1-7.34,6.94-5.2,10.9-7.49,17-1.21,3.23-2.53,7.06-4.05,11.44-1.27,3.68-6.39,18.29-7.48,20.23-1.71,3.06-5.82.51-8.01-.7,2.3-5.5,3.97-17.47,6.68-24.32,7.1-17.96,11.74-32.38,33.21-36.79,13.3-2.73,36.29.2,46.85,9.39,8.52,7.42,16.79,42.27,26.32,43.84,14.37,2.37,11.77-17.05,14.29-25.78,1.23-4.25,3.29-5.62,4.65-8.32Z"/>
      <path class="cls-2" d="M374.79,34.48c18.37-8.5,33.59-10.32,52.54.44,11.24,6.39-1.46,30.42-2.63,41.51-18.24-3.26-18.09-9.83-27.92,6.6-4.07,6.8-1.1,2.83-3.26,11-4.01,15.19-12.54,15.42-21.24,22.5-3.53,2.87-10.13,11.23-13.61,12.92-3.08,1.49-6.78.53-7.88,1.03-1.9-.43-3.23-3.47-4-4,12.73-3.56,20.76-12.04,28-20s5.71-7.17,10-16,5.89-22.09,17.1-23.89c4.89-.78,15.47,1.62,17.99-2.02,2.18-3.16,6.64-22.79,1.57-25.76-1.12-.66-18.55-5.76-20.12-5.89-6.98-.59-14.07,2.84-20.52,4.59-3.9,1.05-6.86,3.13-6.02-3.03Z"/>
      <path class="cls-2" d="M8.79,34.48l-2.17,36.99c2.48,24.1,3.31,46.71,20.17,65.01,1.7,1.84-2.03,2.81,6,6,.3.57-.61,2.5.29,3.64,1.18,1.49,5.75,1.46,7.71,2.36.81.37,1.77,2.35,3.88,3.05,6.76,2.24,19.81.39,20.12,8.95-42.03-1.7-57.9-28.35-63.5-67.5-3.14-21.91.01-37.04,3.54-58.5,1.27-.35,2.91.27,3.96,0Z"/>
      <path class="cls-2" d="M34.79,38.48c1.2.51,4.27-.41,6,0-.46,15.11-1.26,35.74,2.5,50.49.81,3.18,7.09,18.93,8.59,21.43,2.26,3.76,7.87,2.77,6.9,8.07-5.34-1.21-9-3.68-13.46-6.53-.15-8.97-7.5-16.06-9.25-23.93-1.31-5.9-3.01-23.9-3.36-30.45s-.02-12.9,2.08-19.08Z"/>
      <path class="cls-2" d="M286.79,86.48c.67.14,1.42-.17,2,0l2,2c7.61,6.8,21.38,33.92,28.49,37.47,1.77.88,7.88,1.1,9.51.53v8c-8.86-2.08-17.61-6.37-24.07-12.93-10.37-10.52-11.98-30.17-27.93-33.07.67-1.22.65-2.15,2-4,1.42,3.32,5.65,1.52,8,2Z"/>
      <path class="cls-3" d="M64.79,118.48c3.36,7.84-3.87,10.38-4.04,11-1.16,4.39,11.13,5.95,3.02,7.02-3.59-1.52-8.39-2.1-11.66-3.98-1.58-.91-1.08-6.82-5.23-3.88-.7.49,1.4,5.78-4.09,3.85l-2.04-10.98c7.92-1.95,14.47,7.8,20.03-3.03.64.06,1.36.03,2,0s1.38.12,2,0Z"/>
      <path class="cls-3" d="M188.79,66.48c1.13,5.73.8,14.35,2,20-11.78-.22-9.59-6.67-7.94-15.03,1.03-5.19-2.27-5.59,5.94-4.97Z"/>
      <path class="cls-3" d="M142.79,6.48c-4.79,5.43-15.97,5.32-22,8,.17-8.09,15.1-8.48,22-8Z"/>
      <path class="cls-3" d="M342.79,108.5c.99.92,1.56,4.2-2.52,3.54-1.33-.22-18.46-3.12-13.47-7.55.62-.55,15.39,3.45,15.99,4.01Z"/>
      <path class="cls-3" d="M168.79,138.48c7.86-1.78,9.41,2.46,12.02,8.96l-2.02,1.04c-5.5-4.92-5.94-3.75-10-10Z"/>
      <path class="cls-3" d="M212.78,114.49c.77,3.76-2.55,5.45-5.02,7.98l-4.96-3.02c.24-5.57,5.59-5.32,9.98-4.96Z"/>
      <path class="cls-3" d="M278.79,84.48c4.63-6.36,9.32-6.4,8,2-2.35-.48-6.58,1.32-8-2Z"/>
      <path class="cls-3" d="M374.79,106.48c2.19-7.2,4.13-11.37,10-16-4.29,8.83-2.91,8.21-10,16Z"/>
      <path class="cls-3" d="M32.79,142.48c3.79,1.51,9.27.34,8,6-1.95-.9-6.53-.87-7.71-2.36-.9-1.14,0-3.07-.29-3.64-8.03-3.19-4.3-4.16-6-6,6.13-.11,4.67,3.45,6,6Z"/>
      <path class="cls-3" d="M214.8,132.47c-1.69-1.69,3.33-7.54,5.97-7.99,1.97,4.02-3.6,10.35-5.97,7.99Z"/>
      <path class="cls-3" d="M362.79,56.48l3.99.99-5.99,3.01c-.03-.22-3.38-2.59-1.99-3.97.58-.58,3.48.4,3.99-.03Z"/>
      <path class="cls-3" d="M320.78,98.47h-3.98s0-5.99,0-5.99c2.89.67,4.59,3.23,3.97,5.99Z"/>
      <path class="cls-3" d="M362.79,50.48c1.54-.67,7.13-7.48,11.02-7.96-1.31,3.57-6.24,7.12-9.02,9.96l-2-2Z"/>
      <path class="cls-3" d="M290.79,88.48l-2-2c.78.23,1.48,1.3,2,2Z"/>
    </g>
  </g>
</svg>