<?xml version="1.0" encoding="UTF-8"?>
<svg id="Calque_2" data-name="Calque 2" xmlns="http://www.w3.org/2000/svg" viewBox="0 0 609.87 209.83">
  <defs>
    <style>
      .cls-1 {
        fill: #edb468;
      }

      .cls-2 {
        fill: #85a57e;
      }

      .cls-3 {
        fill: #51514a;
      }
    </style>
  </defs>
  <g id="Calque_1-2" data-name="Calque 1">
    <g>
      <path class="cls-1" d="M10.17,56.03c7.72-4.33,20.04-17.46,27.15-12.15l42.69,74.93,5,1.08L154.14,18.03c12.26,31.52,21.73,72.99,39.54,101.43.95,1.52-.47,3.27,3.47,2.63,8.54-1.39,11.76-15.48,15.73-21.36,8.55-12.65,17.74-26.36,25.82-39.11,9.78-15.43,18.87-31.32,29.29-46.36l5.09-1.17,57.33,115.63,6.7.32,75-104.01c11.39,20.16,18.22,42.44,27.67,63.36,2.96,6.56,7.54,12.76,10.36,18.64,3.83,7.97,4.35,13.14,10,22,.67,1.06.43,5.42,3.02,5.99,5.64,1.26,7.07-9.8,8.87-13.1,14.68-26.75,31.71-55.88,48.13-80.42,2.24-3.35,12.92-21.71,14.01-22.46,1.25-.86,4.14.21,4.88,2.07,23.67,46.87,40,97.4,60.31,145.89,2.03,7.62-21.67,17.14-25.89,15.82-4.88-1.53-5.84-13.41-7.82-18.32-8.34-20.68-18.08-48.93-28.1-67.9-1.33-2.51-4.88-10.42-8.39-9.58l-67.22,107.81c-.73.47-5.24.43-5.67.08-1.09-.88-9.18-21.79-11.35-25.68-7.55-13.53-15.32-27.48-23.19-40.81-2.78-4.72-14.28-25.3-16.57-27.42-2.04-1.88-3.34-2.09-6.04-2.14l-31.85,40.29c-6.83,10.59-13.63,22.87-21.18,32.82-2.83,3.73-12.7,16.96-15.01,18.99-1.97,1.73-2.93,2.66-5.89,2.15l-61.35-109.76-6.68-.42-60.2,97.97-6.57-3.14-40.2-83.42c-1.85-3.27-8.33-1.07-10.11,1.63l-61.94,97.05c-.27-.27-2.63.52-3.52-.47-1.43-1.58-.06-4.4-.48-5.53,3.86,3.29,5.61,1.83,3.62-2.62-7.37-16.49-25.16-37.34-34.39-53.61-7.38-13-28-63.82-33.23-69.77v-6Z"/>
      <path class="cls-3" d="M462.17,122.03c5.47,1.22,3.68-2.96,5.03-5.87,16.96-36.57,40.4-70.56,65.09-101.58,2.53-3.18.75-11.58,8.84-4.51,4.85,4.24,15.39,27.89,18.75,35.24,18.33,39.99,33.03,83.5,49.97,124.23.75,6.9-23.38,19.89-29.62,21.53-26.16,6.87-20.42-27.16-31.13-42.99l-20.91-46.05c-17.41,38.71-42.54,73.49-67.39,107.79l-7.54-3.9-51.12-93.89-4.86,2.11c-16.5,22.38-32.28,48.81-50.09,69.91-5.09,6.03-15.71,19.8-23.58,17.68-14.57-3.93-51.1-85.16-60.85-101.21-.26-2.36-1.16-3.26-3.57-2.51-3.22,1-28.5,51.09-33.38,58.66-3.15,4.88-26.67,38.38-28.98,39.15-5.71,1.89-9.54-2.94-12.36-7.1-7.19-10.64-18.43-36.83-24.32-49.68-5.55-12.11-9.64-24.88-15-37.03-17.43,32.94-40.06,62.59-60.04,93.98-8.13,6.42-6.48-1.49-6.96-1.96l61.94-97.05c1.77-2.7,8.26-4.89,10.11-1.63l40.2,83.42,6.57,3.14,60.2-97.97,6.68.42,61.35,109.76c2.96.52,3.92-.41,5.89-2.15,2.3-2.03,12.18-15.26,15.01-18.99,7.55-9.95,14.35-22.23,21.18-32.82l31.85-40.29c2.7.05,4,.25,6.04,2.14,2.3,2.12,13.79,22.7,16.57,27.42,7.86,13.33,15.64,27.29,23.19,40.81,2.17,3.89,10.25,24.8,11.35,25.68.43.34,4.95.38,5.67-.08l67.22-107.81c3.51-.84,7.07,7.07,8.39,9.58,10.03,18.96,19.76,47.22,28.1,67.9,1.98,4.91,2.94,16.79,7.82,18.32,4.21,1.32,27.91-8.2,25.89-15.82-20.32-48.5-36.64-99.02-60.31-145.89-.75-1.87-3.63-2.93-4.88-2.07-1.09.75-11.77,19.11-14.01,22.46-16.42,24.55-33.45,53.68-48.13,80.42-1.81,3.29-3.24,14.35-8.87,13.1-2.6-.58-2.35-4.94-3.02-5.99,1.5-2.43,2.12-5.15,2-8Z"/>
      <path class="cls-3" d="M74.17,188.03c-.72-1.96-5.56-2.21-7.79-5.22-18.22-24.58-44.5-71.2-56.57-99.42C8,79.18-.39,57.86.01,55.33c.23-1.42,5.32-3.05,7.26-5.16,2.88-3.13,6.18-9.45,8.97-11.07,3.76-2.18,20.26-6.41,23.95-4.13l42.96,73.04L149.5,7.91c10.79-2.3,12.96,14.21,16.26,21.53,5.07,11.25,6.23,17.27,10.3,27.7,6.83,17.51,15.79,34.66,20.13,52.9L269.19,0c9.95-.1,22.65,40.43,29.53,46.56l35.47,75.46c19.59-25.07,34.5-54.15,53.16-79.81,2.6-3.58,20.33-25.72,21.98-26.24,2.09-.66,3.37-.21,5,1.35s12.99,20.96,14.92,24.64c11.21,21.33,17.67,44.16,26.92,66.08h-6c-2.82-5.88-7.4-12.08-10.36-18.64-9.45-20.92-16.27-43.2-27.67-63.36l-75,104.01-6.7-.32-57.33-115.63-5.09,1.17c-10.42,15.03-19.51,30.93-29.29,46.36-8.09,12.75-17.27,26.46-25.82,39.11-3.98,5.88-7.19,19.97-15.73,21.36-3.95.64-2.52-1.11-3.47-2.63-17.81-28.44-27.28-69.9-39.54-101.43l-69.12,101.85-5-1.08L37.32,43.88c-7.12-5.32-19.43,7.81-27.15,12.15-1.06.6-3.32-1.2-4.01,1.01-2.17,6.92,3.68,4.61,4.01,4.99,5.23,5.96,25.85,56.77,33.23,69.77,9.23,16.27,27.03,37.11,34.39,53.61,1.99,4.45.24,5.9-3.62,2.62Z"/>
      <path class="cls-2" d="M456.17,108.03c2.28,5.39,5.67,5.96,6,14,.12,2.85-.5,5.57-2,8-5.65-8.86-6.17-14.03-10-22h6Z"/>
    </g>
  </g>
</svg>