<?xml version="1.0" encoding="UTF-8"?>
<svg id="Calque_2" data-name="Calque 2" xmlns="http://www.w3.org/2000/svg" viewBox="0 0 474.3 170.08">
  <defs>
    <style>
      .cls-1 {
        fill: #85a57e;
      }

      .cls-2 {
        fill: #51514a;
      }

      .cls-3 {
        fill: #7cbfdd;
      }
    </style>
  </defs>
  <g id="Calque_1-2" data-name="Calque 1">
    <g>
      <path class="cls-1" d="M82.12,8.2c8.76,13.72,32.97,90.44,45.32,93.8,2.36.64,4.25.31,5.69-1.8,6.52-9.87,45.18-84.95,50.05-85.98,3.47-.73,6.16,5.89,7.76,8.16,13.16,18.71,23.96,40.24,35.18,59.82,1.87,3.26,1.97,3.28,4,6,2.74,3.68,6.54,9.16,11.04,4.03l33.13-66.44,8.84-11.55,35,67.96c-1.27,7.22.64,9.59,7.99,10,.3-1.23-.36-3.17.01-4,9.88-22.24,24.24-42.89,36-64,2.57,5.62,5.48-3.39,10-4,9.62,16.17,14.52,34.96,23.65,51.35,7.5,13.46,9.58,14.92,17.95,1.24,11.68-19.08,23.46-41.39,30.42-62.6,4.86-.87,8.09,2.54,11.98,4-.94,7.18,4.86,10.41,6,18-16.78,35.46-35.63,70.6-52,106l-10,6c-10.68-18.88-16.98-40.57-27.25-59.76-2.58-4.82-6.77-11.88-12.95-6.99-10.73,21.77-19.41,45.11-33.8,64.75h-6c-9.59-13.19-12.35-23.96-20-38-3.77-10.56-9.4-18.18-10.02-29.99-4.14-1.43-4.92,3.44-5.98,3.99-.89.46-4.64-.95-5.67.26-.85,1-.24,5.14-1.47,7.54-7.66,14.88-16,29.46-22.78,43.7-4.14,8.69-11.06,16.22-12.1,26.51-3.76.78-4.82-1.92-6.81-4.17-13.52-15.29-26.01-41.01-38.47-57.62-3.6-4.8-10.64-10.05-13.77-16.21-3.4-.84-22.78,25.45-25.79,30.12-8.51,13.19-16.42,29.78-25.13,43.87-3.89.63-6.51.5-6.04-3.98l-1.96,1.98c-6.61-10.39-12.18-21.18-18-32,1.38-10.17-6-11.43-8.6-20.36-2.68-9.16-.62-18.06-11.4-21.64-.49-1.66.14-3.85-2.01-5.15l-1.99,1.15c-3.81-3.42-9.87,6.64-11.64,9.37-13.83,21.4-25.4,45.69-36.36,68.63-10.41-1.83-17.32-2.37-12.01-13.99-2.24-2.43-10.23,6.99-7.99,9.99-3.11-1.56-6.99,3.57-5.91-4.89,1.41-11.05,39.5-75.67,47.89-90.13,7.9-13.63,19.75-27.9,24.02-42.98.62.16,1.36-.12,2,0ZM130.11,108.21c-2.18-2.18-6.16,1.8-3.98,3.98s6.16-1.8,3.98-3.98ZM250.11,124.21l-3.98-.02-1.03,11.97c3.46-2.98,5.43-7.38,5.01-11.95Z"/>
      <path class="cls-2" d="M82.12,8.2c.49-.79-1.44-5.73,2.97-3.98s31.58,61.42,35.41,70.6c1.92,4.61,3.4,23.28,10.13,12.84C148.83,59.42,162.02,27.87,181.13.15c4.93-1.54,10.53,9.18,13.05,12.99,14.77,22.27,25.61,47.08,40.94,69.02,8.29-8.19,37.99-78.95,42.39-80.03,1.9-.47,5.44-.29,7.26.4,8.64,3.31,30.03,62.29,40.37,71.65,5.72-9.68,35.48-68,41.51-70.65,1.86-.82,3.49-1.75,5.49-.48,5.72,3.61,27.4,59.15,32.01,69.13L442.29.3c7.02,3.35,30.52,8.01,31.89,14.89,1.55,7.79-11.7,37.17-15.72,46.34-12.08,27.59-35.29,77.57-52.34,100.66l-1.38-1.25c3.2-7.63-2.95-4.26-8.62-6.75-13.81-21.79-21.06-43.89-30.03-67.99l-36.18,70.77c-7.5,9.57-12.21-1.74-15.86-7.73-11.5-18.87-19.18-40.79-31.89-59.04-10.18,21.21-19.83,43.24-30.96,64.06-2.06,3.85-7.67,16.49-11.81,15.77-1.72-.3-17.62-18.83-20.08-22.04-12.38-16.2-23.98-37.58-34.77-55.23-.95-1.56.65-3.39-3.39-2.56l-46.03,75.96-9.73,1.8-46.26-85.8-39.27,72.3c-3.53,3.76-3.89,6.44-9.73,5.72.35-1.54-.5-5.31,0-6,.33-.45,1.07,2.13,4-4,10.96-22.95,22.54-47.23,36.36-68.63,1.76-2.73,7.82-12.78,11.64-9.37,1.71,1.53-3.59,1.48,4,4,5.23,17.61,11.52,26.25,20,42,5.82,10.82,11.39,21.61,18,32,1.62,2.54,2.24,6,5.01,7.99,1.75-.97,1.81-4.08,2.99-5.99,8.71-14.09,16.62-30.68,25.13-43.87,3.02-4.68,22.39-30.96,25.79-30.12,3.13,6.16,10.17,11.41,13.77,16.21,12.46,16.6,24.94,42.32,38.47,57.62,1.99,2.25,3.05,4.95,6.81,4.17,1.05-10.29,7.97-17.82,12.1-26.51,6.78-14.24,15.12-28.82,22.78-43.7,1.23-2.4.62-6.53,1.47-7.54,1.03-1.21,4.78.21,5.67-.26,4.01,9.42,11.15,17.1,16,26,7.65,14.04,10.41,24.81,20,38,.73,1,.22,4.82,3,5.96,2.78-1.14,2.28-4.97,3-5.96,14.39-19.64,23.07-42.98,33.8-64.75,6.17-4.89,10.37,2.17,12.95,6.99,10.27,19.19,16.57,40.88,27.25,59.76,1.52,2.69,1.04,8.95,5.98,10,.28-4.34,2.28-12.24,4.02-16,16.37-35.4,35.22-70.54,52-106,2.22-4.7,5.5-7.34,5.75-12.84-.94-3.68-8.66-3.99-11.75-5.16-3.89-1.47-7.13-4.87-11.98-4-6.96,21.21-18.74,43.52-30.42,62.6-8.37,13.68-10.45,12.22-17.95-1.24-9.13-16.39-14.02-35.18-23.65-51.35-1.62-2.73-2.29-7.06-5.98-8,.11,4.5-1.93,8.25-4.02,12-11.76,21.11-26.12,41.76-36,64-4.07.17-5.66-3.28-8-6l-35-67.96-8.84,11.55-33.13,66.44c-4.5,5.13-8.3-.36-11.04-4.03l-4-6c-11.23-19.58-22.02-41.11-35.18-59.82-1.6-2.27-4.29-8.9-7.76-8.16-4.87,1.03-43.53,76.11-50.05,85.98-1.44,2.11-3.33,2.44-5.69,1.8-12.35-3.37-36.55-80.09-45.32-93.8Z"/>
      <path class="cls-2" d="M80.12,8.2c-4.27,15.08-16.11,29.35-24.02,42.98-8.39,14.46-46.48,79.08-47.89,90.13-1.08,8.46,2.8,3.33,5.91,4.89,3.39,1.7,7.11,6.83,12,8v4c-10.43-3.01-30.78-8.19-25.16-22.13C24.43,98.39,40.33,50.77,68.12,16.2c2.16-2.69,7.34-4.69,8-10,.16.15,3.78,1.94,4,2Z"/>
      <path class="cls-1" d="M396.12,154.2c5.67,2.49,11.82-.88,8.62,6.75l1.38,1.25c-.45.61.51,3.57,0,3.99-1.83,1.52-8.11-5.08-9.58-7.32-.91-1.4,0-4.03-.41-4.67Z"/>
      <path class="cls-1" d="M76.12,6.2c-.66,5.31-5.84,7.31-8,10l-1.94-1.1c.85-5.53,5.14-9.3,8.95-12.9,2.1-.18.47,3.5.99,3.99Z"/>
      <path class="cls-1" d="M30.12,154.2c-.5.69.35,4.46,0,6-1.1-.13-2.7-1.63-4-2v-4c1.13.27,2.72-.18,4,0Z"/>
      <path class="cls-3" d="M14.12,146.2c-2.23-3,5.75-12.41,7.99-9.99-5.31,11.62,1.6,12.15,12.01,13.99-2.93,6.13-3.67,3.55-4,4-1.28-.18-2.87.27-4,0-4.89-1.17-8.61-6.3-12-8Z"/>
      <path class="cls-3" d="M86.12,76.2c10.77,3.58,8.72,12.48,11.4,21.64,2.61,8.93,9.99,10.19,8.6,20.36-8.48-15.75-14.77-24.39-20-42-7.59-2.52-2.29-2.47-4-4l1.99-1.15c2.16,1.3,1.52,3.49,2.01,5.15Z"/>
      <path class="cls-3" d="M456.12,14.2c3.09,1.17,10.81,1.48,11.75,5.16-.25,5.51-3.53,8.14-5.75,12.84-1.14-7.59-6.94-10.82-6-18Z"/>
      <path class="cls-3" d="M410.12,138.2c-1.74,3.76-3.74,11.66-4.02,16-4.94-1.05-4.46-7.31-5.98-10l10-6Z"/>
      <path class="cls-3" d="M284.12,78.2c1.06-.55,1.84-5.42,5.98-3.99.62,11.81,6.25,19.43,10.02,29.99-4.85-8.9-11.99-16.58-16-26Z"/>
      <path class="cls-3" d="M372.12,20.2c-4.52.61-7.43,9.62-10,4,2.09-3.75,4.13-7.5,4.02-12,3.69.94,4.36,5.27,5.98,8Z"/>
      <path class="cls-3" d="M130.11,108.21c2.18,2.18-1.8,6.16-3.98,3.98s1.8-6.16,3.98-3.98Z"/>
    </g>
  </g>
</svg>