<?xml version="1.0" encoding="UTF-8"?>
<svg id="Calque_2" data-name="Calque 2" xmlns="http://www.w3.org/2000/svg" viewBox="0 0 332.84 358.54">
  <defs>
    <style>
      .cls-1 {
        fill: #4f87b9;
      }

      .cls-2 {
        fill: #7cbfdd;
      }
    </style>
  </defs>
  <g id="Calque_1-2" data-name="Calque 1">
    <g>
      <path class="cls-1" d="M40.67,117.99c6.11-11.98,31.36-42.3,41.97-51.03,33.42-27.46,78.17-28.23,118.46-16.41,11.26,3.3,21.41,10.3,33.35,11.71.9.84-.11,3.03.21,3.73l-1.96,1,1.96,1c.82.42,6.08,0,8,0,.88,3.79,3.55,3.1,6,4,5.69,2.1,17.17,6.1,22,10,.23.18-.45,3.59.98,4.06,6.4,2.09,7.88-5.29,1.02-4.06v-4l4.02-1-4.02-1c-4.44-6.89-7.91-19.7-12-26l1.23-1.56,6.77,1.56c10.78,17.77,10.86,26.73,18,44,.3.72-.64,2.7.31,3.68s3.05,0,3.69.32c1.33.64,2.65,1.34,4,2-1.41,9.6,2.71,4.49,6,6,3.8,1.74,4.43,4.85,6,6-2.25-1.65-6.9-3.44-8,0-.85-.94-5.97-.39-8-6-.23-.63.4-11.22-3.99-5.99-1.7,2.03,1.96,5.68,1.99,5.99.13,1.26.05,2.71,0,4l-6-2c-.1-.25-2.29-.76-2.83-2.17-3.15-8.24-2.59-9.93-10.5-15.5-34.93-24.61-118.97-51.13-158.65-31.22-2.81,1.41-5.04-.49-4.01,4.88,16.93-4.25,30.85-8.28,48.34-3.34,6.84,1.93,15.46,8.19,21.66,10.33,31.37,10.81,56.15,14.21,79.98,41.02-1.19,5.8,1.07,6.44,6,8,4.74,8.07,5,12.64,8,20,.68,1.66,1.54,2.88,3.01,3.96,1.29-.36.77-1.32.99-1.96,2.16-6.2,2.62-15.51,4-22,.03-.14,1.69-.46,2-2,.5-2.51-.83-5.74,2-8v4s4,0,4,0c-1.85,23.6-9.64,59.8-16.61,82.39-3.16,10.26-13.19,24.3-14.95,33.05-2.69,13.35-.8,30.66-6.43,44.55,4.11,3.72,33.76-22.38,38.04-26.94,32.38-34.47,48.33-82.29,19.95-125.05l2-8c.68.63,1.31,1.45,2,2-.47,4.08,2.22,4.31,4,6,34.34,32.59,14.43,94.27-13.95,125.05-19.2,20.84-39.08,28.22-58.1,43.9-7.69,6.34-12.3,17.22-18.93,25.07-35.95,42.65-100.04,58.27-146.25,23.17-6.44-4.89-15.76-18.29-19.99-20.99-3.73-2.38-9.35-2.17-13.57-4.43C-9.15,285.39-5.69,224.27,10.67,175.99c.68-1.99,2.91-5.17,4-8,.28-.73,1.77-1.39,2-2l6,2c-7.03,20.68-15.84,53.32-13.75,74.76,2.74,28.13,16.74,53.02,42.77,65.2-8-17.44-17.57-36.33-19.02-55.96-.06-.76,5.85-4.87-2-4-3.4-9.32-2.13-19.81-8.04-28.97l4.01,2.96c3.04-26.04,1.1-51.64,10.05-76.96-2-3.47-3.83.93-4.03.97-1.14.24-2.7-.11-3.99-.01-.65-2.32,1.78-4.55,1.99-5.99.28-1.87-.42-4.42,0-6,6.83.04,6.22-5.75,8-10,.41-.98-.42-3.13,0-4l2-2ZM216.67,233.99c-14.48,12.98-24.92,24.59-44.17,34.83C26.58,346.41,33.8,101.25,138.18,72.48c2.8-.77,16.02-.85,5.71-4.7-16.32-6.1-45.93,4.58-59.66,14.31-41.06,29.09-56.47,117.57-39.55,161.91,1.09,2.87-2.69,7.3,4,6,.79,1.2,1.21,3.05,2,4-.57,1.95-2.3,1.86-4,2-1.29.11-2.71.07-4,0-.63-3.13.47-7.08-3.98-8v8c1.31.11,2.65-.07,3.98,0,3.69,18.34,8.23,34.3,18.23,50.34,4.11,6.6,20.71,8.99,28.81,9.62,13.94,1.09,40.47-.5,53.95-3.98,2.77-.71,6.23.07,7.01-3.97-33.64-1.33-82.55-19.06-102-48.02h8c26.53,24.31,76.53,45.64,112.88,35.88,33.47-8.98,53.65-44.7,76.09-67.91,1.61-3.55,1.7-13.98,1.03-17.97-.22-1.33-3.3-4.15-4-8-6.76-37.29-16.01-66.7-40.01-96.99-19.28-24.34-42.96-32.11-72.58-20.59-67.81,26.37-95.82,209.7,7.08,189.07,21.51-4.31,58.92-29.15,75.5-43.48v4s4,0,4,0ZM254.67,121.99c-8.02-12.3-32.85-27.92-45.55-33.86-1.83-.86-12.28-4.45-12.43-.17,5.35,1.11,9.56,6.11,13.01,10,13.26,14.93,26.87,39.4,33.93,58.07,3.39,8.96,5.92,20.38,7.06,29.95,2.96-1.87,6.58-7.53,8.37-10.6,10.61-18.21,9.63-31.95-2.39-49.39-.09-1.67-1.16-2.71-2-4ZM261.67,185.99v2c1.3-.67,1.3-1.33,0-2ZM256.65,207.99l4.01-18c-4.4.15-12.8,19.21-4.01,18ZM184.67,295.99c-2.67,2.44-5.84,5.11-8,7.98,12.19-2.33,45.35-11.26,53.89-19.09,7.55-6.93,12.19-30.67,13.13-40.85-14.7,17.98-30.59,38.01-51.02,49.96-5.7-4.24-5.43-.35-8,2ZM219.67,297.99v2c1.3-.67,1.3-1.33,0-2ZM218.66,302c-46.65,15.13-94.45,26.3-143.98,20.98,37.37,35.93,96.29,32.6,132.05-3.93,1.62-1.66,13.39-15.69,11.93-17.05Z"/>
      <path class="cls-1" d="M16.67,97.99c5.22-19.8,26.27-49.17,43-62C111.76-3.92,192.7-15.35,246.67,25.99l-8,2c-.39-.33-4.05.11-5.98-.93C166.01-9.06,74.26,16.73,33.84,80.16c-6.02,9.45-8.87,20.54-13.17,27.83-.16.27-1.89-.27-2,0-.06.13-1.24,1.09-2,2-1.9,2.28.09,1.58,0,2-.66,2.98-1.62,7.14-2,10h-6c.32-1.85-.39-4.28,0-6,5.02,1.92,5.08-7.04,6-12,.23-1.23-.22-2.76,0-4,.85-.37,1.77-1.12,2-2Z"/>
      <path class="cls-2" d="M10.67,175.99c-6.75-3.37,1.75-7.11,2-8h2c-1.09,2.83-3.32,6.01-4,8Z"/>
      <path class="cls-2" d="M14.67,121.99c-1.56,11.69.17,38.41-2,46-9.05.44-3.92-9.1-4-12.84-.03-1.39-3.83-.28-4.22-4.05-.99-9.7,2.69-20.2,4.22-29.11h6Z"/>
      <path class="cls-2" d="M246.67,25.99c12.41,9.51,13.81,10.5,22,24l-6.77-1.56-1.23,1.56c-6.15-9.49-13.01-12.85-21.66-18.39-1-.64-.1-3.41-.34-3.61l8-2Z"/>
      <path class="cls-2" d="M306.67,111.99c.74.54,1.32,1.37,2,2l-2,8c-.37-.55-7.49-9.43-8-10,1.1-3.44,5.75-1.65,8,0Z"/>
      <path class="cls-2" d="M14.67,103.99c-.92,4.96-.98,13.92-6,12,1.06-4.71.12-13.57,6-12Z"/>
      <path class="cls-2" d="M300.67,105.99c-3.29-1.51-7.41,3.6-6-6,2.82,1.37,6.03.02,6,6Z"/>
      <path class="cls-2" d="M310.67,115.99c.92.74,5.72-2.16,4,6-1.78-1.69-4.47-1.92-4-6Z"/>
      <path class="cls-2" d="M286.67,93.99h4s0,4,0,4c-.64-.31-2.76.64-3.69-.32s-.01-2.96-.31-3.68Z"/>
      <path class="cls-2" d="M14.67,99.99c.16-.91,1.09-1.73,2-2-.23.88-1.15,1.63-2,2Z"/>
      <path class="cls-2" d="M242.67,201.99c.7,3.85,3.78,6.67,4,8-8.24-2.13-5.58,4.45-8.57,7.44-5.54,5.55-15.86,11.57-21.43,16.56h-4s0-4,0-4c.28-.24.71-4.13,2.85-6.06,8.5-7.67,16.95-16.94,27.15-21.94Z"/>
      <path class="cls-2" d="M30.67,139.99c-.21,1.43-2.65,3.66-1.99,5.99,1.29-.09,2.85.26,3.99.01-.81,4.6-4.13,7.87-6,12l-8,.02c1.58,3.31,1.74,7.14,6,5.98-.52,1.37-1.53,2.62-2,4l-6-2c2.26-6.04,2.48-27.18,14-26Z"/>
      <path class="cls-2" d="M256.65,207.99c-8.79,1.21-.39-17.85,4.01-18l-4.01,18Z"/>
      <path class="cls-2" d="M38.67,123.99c-1.78,4.25-1.17,10.04-8,10,1.29-4.8,1.77-9.94,8-10Z"/>
      <path class="cls-2" d="M50.67,253.99c.3.37,5.25,5.31,6,6h-8c-.82-1.23-2.14-2.09-2-4,1.7-.14,3.43-.05,4-2Z"/>
      <path class="cls-2" d="M288.67,109.99c-.07,1.87-1.97,3.56-2,4h-4s0-4,0-4v-2l6,2Z"/>
      <path class="cls-2" d="M248.67,71.99c-2.45-.9-5.12-.21-6-4,.96,0,5.23-5.36,6,4Z"/>
      <path class="cls-2" d="M42.67,255.99c-1.33-.07-2.67.11-3.99,0v-8c4.47.92,3.37,4.87,3.99,8Z"/>
      <path class="cls-2" d="M288.67,105.99c-.03-.31-3.69-3.96-1.99-5.99,4.39-5.23,3.76,5.36,3.99,5.99h-2Z"/>
      <path class="cls-2" d="M192.67,293.99c-2.85,1.67-4.18,2.91-8,2,2.57-2.35,2.3-6.24,8-2Z"/>
      <path class="cls-2" d="M272.67,81.99c6.87-1.23,5.38,6.15-1.02,4.06-1.44-.47-.76-3.87-.98-4.06h2Z"/>
      <path class="cls-2" d="M48.67,249.99c-6.69,1.3-2.91-3.13-4-6,3.83.58,3.06,4.58,4,6Z"/>
      <path class="cls-2" d="M262.67,119.99c-4.93-1.56-7.19-2.2-6-8,3.04,3.42,3.55,3.83,6,8Z"/>
      <path class="cls-2" d="M30.67,247.99c7.85-.87,1.94,3.24,2,4-1.8-.88-1.49-2.61-2-4Z"/>
      <polygon class="cls-2" points="272.67 75.99 276.7 76.99 272.67 77.99 272.67 75.99"/>
      <path class="cls-2" d="M256.67,125.99c-.72-1.04-2.5-1.68-2-4,.84,1.29,1.91,2.33,2,4Z"/>
      <path class="cls-2" d="M38.67,119.99c.71-1.47,1.94-1.87,2-2l-2,2Z"/>
      <path class="cls-2" d="M278.67,119.99l2-2c-.31,1.54-1.97,1.86-2,2Z"/>
      <path class="cls-2" d="M274.67,141.99c-.22.64.3,1.6-.99,1.96-1.47-1.08-2.33-2.3-3.01-3.96l4,2Z"/>
      <path class="cls-2" d="M234.67,67.99l-1.96-1,1.96-1c.27.57-.31,1.84,0,2Z"/>
      <path class="cls-2" d="M261.67,185.99c1.3.67,1.3,1.33,0,2v-2Z"/>
      <path class="cls-2" d="M18.67,107.99c.11-.27,1.84.27,2,0l-1,1.96-1-1.96Z"/>
      <path class="cls-2" d="M16.67,111.99c.09-.42-1.9.28,0-2v2Z"/>
      <path class="cls-1" d="M26.67,157.99c-.69,1.53-1.26,4.04-2,6-4.26,1.16-4.42-2.67-6-5.98l8-.02Z"/>
      <path class="cls-1" d="M20.65,207.99c-4.52-1.2-4.27-6.25-3.96-9.99,1.16-2.47,4.98,7.21,3.96,9.99Z"/>
    </g>
  </g>
</svg>