<?xml version="1.0" encoding="UTF-8"?>
<svg id="Calque_2" data-name="Calque 2" xmlns="http://www.w3.org/2000/svg" viewBox="0 0 152.85 416.49">
  <defs>
    <style>
      .cls-1 {
        fill: #85a57e;
      }

      .cls-2 {
        fill: #51514a;
      }

      .cls-3 {
        fill: #7cbfdd;
      }
    </style>
  </defs>
  <g id="Calque_1-2" data-name="Calque 1">
    <g>
      <path class="cls-1" d="M130.63,356.36c-.06,1.33.09,2.68,0,4-.85-.46-3.64.46-4,0-.57-.73.4-6.14,0-8,2.2,1.45,3.15,3.4,4,4Z"/>
      <path class="cls-1" d="M18.63,28.36c1.96-8.84,6.75-16.05,10.99-23.99,2.01,2.05,4.28,3.9,6.89,5.12,23.42,10.96,48.46,32.22,70.25,47.73,14.71,10.48,41.54,17.28,31.06,41.29l-60.34,39.72c-2.47,11.15-12.99,8.23-20.71,15.27-2.19,2-9.84,13.37-10.13,15.96-.8,7.18,6.02,10.86,11.07,14.89,11.37,9.09,28.09,15.31,40.43,23.38,10.2,11.3,26.96,14.57,36.49,26.62l-.02,18c-9.15-9.19-13.62,2.8-11.98,12-13.88,12.85-31.09,26.54-45.05,39.95-5.53,5.31-11.9,9.5-7.94,18.03,1.06,2.27,35.08,26.2,40.36,29.65,5.39,3.52,11.75,5.59,16.63,8.37.64.37,2.69,5.25,3.98,4,.1-1.32-.07-2.67.02-4,4.31,2.33,15.46,7.95,15.53,12.54.07,4.28-4.86,20.76-7.12,24.87-3.13,5.69-9.41,7.98-10.41,14.59-.52-.35-4.65,1.8-7.9.96-5.93-1.52-5.68-6.7-6.1-6.96l4.03-3.03c-27.08-16.39-49.63-37.34-74.06-55.89-9.81-7.45-27.25-12.57-31.2-27.05-.92-3.37,6.92-12.36,9.9-15.35,15.9-15.94,40.62-29.23,57.35-45.66,5.78-5.67,14.65-13.12,6.5-21.12-17.3-11.52-36.78-20.04-54.25-31.18-4.73-3.01-18.81-11.3-21.23-14.77-6.1-8.78-6.17-36.24,8.96-37.96-2.55,15.85,7.74,3.8,2-4,1.95-3.06,11.51-10.9,15.05-13.95,9.37-8.06,52.81-37.89,55.57-44.5.82-1.98,1.68-4.46,1.49-6.56-.58-6.33-68.76-43.11-76.11-52.99l1.99-2.98-1.99-1.02ZM118.62,374.38c-.59-.58-15.36-4.56-15.98-4.02-6.71,5.77,23.9,11.74,15.98,4.02Z"/>
      <path class="cls-2" d="M130.63,360.36c-.09,1.32.08,2.68-.02,4-1.29,1.25-3.34-3.63-3.98-4,.36.46,3.15-.46,4,0Z"/>
      <path class="cls-2" d="M114.63,406.36c-20.21-12.48-39.59-23.2-58.96-38.04-9.33-7.15-34.54-25.59-40.91-33.09-1.03-1.21-9.63-15.42-9.86-16.35-.8-3.26,11.44-17.2,14.73-20.5,7.79-7.81,63.01-46.96,62.95-51.01-18.78-16.22-42.37-25.55-62.58-39.38C-.94,193.63-1.06,187.82.68,161.77c11.99-11.9,23.91-24.56,36.99-35.37,13-10.74,31.78-21.05,43.93-32.07,2.22-2.01,4.77-3.6,5.1-6.98L10.67,37.33c-6.54-8.1.25-9.71,1.72-12.62C14.12,21.29,23.8,1.42,24.95.69c1.99-1.25,9.51-.58,12.2.16,7.63,2.09,46.4,28.5,55.34,34.64,10.65,7.31,23.96,16.28,33.97,24.03,14.07,10.88,22.81,16.1,20.12,35.68-.61,4.45-2.99,7.12-5.88,10.23-13.06,14.07-50.08,32.3-67.86,46.14-10.42,8.11-26.65,15.51-10.72,26.73,14.76,10.4,75.79,39.3,82.04,51.5,3.5,6.83,2.4,21.02-1.44,27.64l-66.09,57.95c-1.23,4.93,8.3,7.07,10.46,8.96,14.34,12.51,23.76,17.58,39.54,28,.4,1.86-.57,7.27,0,8-4.88-2.78-11.24-4.85-16.63-8.37-5.28-3.45-39.3-27.38-40.36-29.65-3.96-8.53,2.41-12.71,7.94-18.03,13.96-13.41,31.17-27.1,45.05-39.95,9.58-8.87,25.27-13.21,12-30-9.53-12.06-26.29-15.32-36.49-26.62-12.33-8.06-29.06-14.28-40.43-23.38-5.05-4.04-11.87-7.71-11.07-14.89.29-2.59,7.94-13.97,10.13-15.96,7.72-7.04,18.24-4.12,20.71-15.27l60.34-39.72c10.48-24.01-16.35-30.82-31.06-41.29-21.79-15.52-46.83-36.77-70.25-47.73-2.61-1.22-4.89-3.08-6.89-5.12-4.24,7.94-9.03,15.15-10.99,23.99-.18.83-3.6,2.06,0,4,7.35,9.89,75.53,46.66,76.11,52.99.19,2.11-.67,4.59-1.49,6.56-2.75,6.61-46.2,36.44-55.57,44.5-3.54,3.05-13.1,10.89-15.05,13.95-.96,1.5-1.6,1.49-2,4-15.13,1.72-15.06,29.18-8.96,37.96,2.41,3.47,16.5,11.76,21.23,14.77,17.48,11.13,36.96,19.65,54.25,31.18,8.15,8-.72,15.45-6.5,21.12-16.74,16.43-41.45,29.72-57.35,45.66-2.98,2.99-10.82,11.98-9.9,15.35,3.95,14.47,21.39,19.6,31.2,27.05,24.43,18.55,46.98,39.5,74.06,55.89l-4.03,3.03Z"/>
      <path class="cls-2" d="M130.63,356.36c5.68,3.99,23.05,10.99,22.19,19.03-.4,3.73-3.44,2.99-3.53,3.4-3.03,13.76-.01,11.56-8.4,25.25-2.07,3.38-1.01,11.39-9.27,12.41-4.41.55-2.65-3.87-2.98-4.09,1-6.61,7.28-8.9,10.41-14.59,2.26-4.11,7.18-20.59,7.12-24.87-.07-4.59-11.22-10.21-15.53-12.54.09-1.32-.06-2.67,0-4Z"/>
      <path class="cls-3" d="M118.62,374.38c7.92,7.72-22.69,1.74-15.98-4.02.63-.54,15.39,3.45,15.98,4.02Z"/>
      <path class="cls-3" d="M22.63,150.36c5.74,7.8-4.55,19.85-2,4,.4-2.51,1.04-2.5,2-4Z"/>
    </g>
  </g>
</svg>