<?xml version="1.0" encoding="UTF-8"?>
<svg id="Calque_2" data-name="Calque 2" xmlns="http://www.w3.org/2000/svg" viewBox="0 0 254.59 148.85">
  <defs>
    <style>
      .cls-1 {
        fill: #85a57e;
      }

      .cls-2 {
        fill: #51514a;
      }

      .cls-3 {
        fill: #4f87b9;
      }

      .cls-4 {
        fill: #7cbfdd;
      }
    </style>
  </defs>
  <g id="Calque_1-2" data-name="Calque 1">
    <g>
      <path class="cls-4" d="M14.32,93.03C50.42-24.36,221.81-18.29,243.77,112.59c.63,3.75,3.28,19.78.6,21.55-25.57.96-51.43.02-77.13.81s-54.12,2.89-80.92,4.08c-20.95.93-54.3-.79-72.87,2.12-3.9.61-7.4,2.04-9.13,5.88-1.18-.24-2.71.23-4,0-.16-1.99.12-4.01,0-6,.77-.43,1.44-1.8,2-2,.78-.29,2.93.7,3.72-.26,1.2-1.45-.14-5.68.28-7.74,1.59-7.85,2.21-16.47,4-24,.88-3.69,2.81-10.14,4-14ZM160.31,111.03c-3.47.12-22.39,1.41-15.98,7.99.8.82,21.7-1,15.98-7.99Z"/>
      <path class="cls-2" d="M240.32,75.03c1.01,3.07-.38,7.8,4,10,.01,1.32-.1,2.69,0,4,.65,8.09,3.13,14,5.44,21.67,1.01,3.37-1.34,7.55,4.56,6.33.41,4.02.31,9.91,0,14-5.43-1.53-2.89,5.93-6,10-7.3,1.11-20.79,2.39-28,2-21.78-1.19-43.54-3.87-65.38-.27-3.74.62-7.78-1.67-6.62,4.27-3.33.02-6.67-.02-10,0-15.78-10.99-34.91,1.78-52-8,26.79-1.19,54.18-3.26,80.92-4.08s51.55.15,77.13-.81c2.68-1.77.03-17.8-.6-21.55C221.81-18.29,50.42-24.36,14.32,93.03c-7.47-4.12-11.24,16.61-4,14-1.79,7.53-2.41,16.15-4,24H2.32c1.27,2.81,2.12,5.43,0,8-.56.2-1.23,1.57-2,2C-9.3-10.42,198.6-51.44,240.32,75.03Z"/>
      <path class="cls-1" d="M86.32,139.03c17.09,9.78,36.22-2.99,52,8-24.17.12-48.7-.23-73.04-.17-20.03.05-40.08,4.33-60.96.17,1.73-3.84,5.23-5.27,9.13-5.88,18.57-2.91,51.92-1.19,72.87-2.12Z"/>
      <path class="cls-1" d="M220.32,143.03c-4.52,10.75-16.32,2.48-25.01,2.42-14.61-.11-31.57,1.47-46.99,1.58-1.17-5.94,2.87-3.65,6.62-4.27,21.84-3.6,43.6-.92,65.38.27Z"/>
      <path class="cls-1" d="M244.32,89.03c5.92-1.21,3.51,2.96,4.53,6.36,2.16,7.19,4.7,14.09,5.47,21.64-5.9,1.21-3.55-2.97-4.56-6.33-2.31-7.67-4.79-13.57-5.44-21.67Z"/>
      <path class="cls-3" d="M14.32,93.03c-1.19,3.86-3.12,10.31-4,14-7.24,2.61-3.47-18.12,4-14Z"/>
      <path class="cls-3" d="M6.32,131.03c-.42,2.06.92,6.29-.28,7.74-.79.96-2.94-.03-3.72.26,2.12-2.57,1.26-5.19,0-7.99h4.01Z"/>
    </g>
  </g>
</svg>