<?xml version="1.0" encoding="UTF-8"?>
<svg id="Calque_2" data-name="Calque 2" xmlns="http://www.w3.org/2000/svg" viewBox="0 0 290.75 261.29">
  <defs>
    <style>
      .cls-1 {
        fill: #4f87b9;
      }

      .cls-2 {
        fill: #7cbfdd;
      }
    </style>
  </defs>
  <g id="Calque_1-2" data-name="Calque 1">
    <g>
      <path class="cls-1" d="M178.67,2.2v4s4,0,4,0c.58.5,4.41-.4,6,0,5.79,1.45,9.46,1.11,14,2,.64.13,1.37-.14,2,0l2,2c3.17.79,3.95.45,8,2l2,2c4.21,1.73,3.44-.47,10,4,4.64,3.16,4.3,2.22,8,4,33.04,15.9,58.04,48.8,55.96,86.98-3,55.14-82.96,107.66-131.94,120.04-41.2,10.41-67.85,3.06-108.01-7.01-2.93,2.56,14.22,13.73,16.15,14.83,45.74,25.89,113.02,17.39,156.46-9.22,4.33-2.65,19.15-17.67,23.37-13.61,7.12,6.83-32.49,29.62-37.2,31.78-46.65,21.41-122.94,23.11-162.81-12.77-10.36-9.33-38.02-52.74-41.89-66.12-11.83-40.94-1.34-93.68,27.9-124.9l2-2c.33-.32-.33-1.71,0-2l4-2c.91-.43,1.66-1.93,2-2,1.2-.24,2.83,3.08,3.96,1.02l-1.96-5.02c.42-.32,1.59.32,2,0l2-2c.65-.68,1.29-1.38,2-2h6.01s0,4,0,4C22.08,55.08,2.16,119.65,13.29,158.6c.59,2.07.46,6.06,3.36,5.59.71-37.38,15.4-71.92,42.76-97.19,4.19-3.87,11.14-6.76,15.67-10.9,17.07-15.64,33.35-36.42,55.57-43.92.51-3.42-4.77-2.14-6.95-1.96-12.35,1.02-23.2,3.15-35.04,5.98-.1.02-.48-.32-2,0-1.66.35-5.29-.5-6,0l2-8c.65-.09,1.35.11,2,0,18.11-3.05,41.16-3.14,60-4,1.99-.09,4.01.1,6,0,.66-.03,1.34.04,2,0,2.65-.14,5.36.18,8,0,.55-.04,1.54-1.98,2-2,5.26-.23,8.51.8,16,0ZM130.67,22.2c-7.26,2.88-20.45,4.83-21.02,13.96,7.48-2.98,17.56-7.95,25.02-9.96,15.98-4.29,33.8-5.17,50.06-1.06,10.81,2.73,26.06,14.12,21.93,27.05-6.03.71-4.65-6.09-8.94-10.04-24.73-22.8-86.14-2.7-109.07,17.03-3.12,2.69-17.41,17.79-17.97,19.03v-3.99c-3.7-.48-5.83-.08-7.99,3l7.99.99c-2.35,5.16.92,1.92-4,8-7.43-1.88-4.95,3.01-8,6l2.03-10.98-3.99-1.01c-9.11,15.65-20.77,29.27-25.93,47.09-7.38,25.47-10.85,78.25,23.85,83.91-5.25-6.04-13.68-18.48-15.76-26.28-3.01-11.34-1.7-23.34-.2-34.74h3.99c-.88-7.78-4.48-7.44,4.01-10-7.81,31.98,6.26,77.46,45.02,78.16,71.43,1.29,178.86-76.66,150.53-156.71-2.99-8.45-8.68-11.77-11.55-19.45.47.2,7.97.02,10,2,47.32,67.57-21.1,142.21-82.54,168.47l-43.45,13.51c43.96,1.54,86.99-19.1,120.02-46.95,40.67-34.29,67.26-76,28.8-124.85-9.16-11.64-24.06-21.18-36.83-28.17-1.01-.56-1.59-5.07-6.89-4.13-1.58.28-2.21,5.86-5.11,6.13-2.07-1.5-40.74-13.58-44.98-14.01-16.84-1.72-24.73,2.34-39.02,8.01ZM216.66,18.21h-5.98v3.98h5.98v-3.98Z"/>
      <path class="cls-2" d="M82.67,8.2l-2,8c-.14.1.42,3.01-.51,3.39-8.04,3.29-18.18,5.03-25.49,10.61v-4s-6,0-6,0c.22-.19-.64-2.51.48-3.47,5.43-4.62,26.11-13.49,33.52-14.53Z"/>
      <path class="cls-2" d="M144.67,4.2c-18.84.86-41.89.95-60,4,4.85-3.67,13.31-5.03,19.24-5.76,7.54-.92,20.31-2.18,27.75-2.4,4.68-.13,10.01-.18,13.01,4.16Z"/>
      <path class="cls-2" d="M202.67,8.2c-4.54-.89-8.21-.55-14-2l1.02-4.03c4.46,1.82,11.11,1.11,12.98,6.03Z"/>
      <path class="cls-2" d="M226.67,18.2h8.01s-.01,4-.01,4c-3.7-1.78-3.36-.84-8-4Z"/>
      <path class="cls-2" d="M178.67,2.2c6.74-.72,3.04,3.17,4,4h-4s0-4,0-4Z"/>
      <path class="cls-2" d="M40.67,34.2c-.01-1.92.51-2.85,2-4l1.96,5.02c-1.13,2.06-2.75-1.26-3.96-1.02Z"/>
      <path class="cls-2" d="M38.67,36.2l-4,2c2.46-2.12,2.59-1.33,4-2Z"/>
      <path class="cls-2" d="M206.67,10.2l-2-2c1.45.32,1.86,1.97,2,2Z"/>
      <path class="cls-2" d="M152.67,4.2c-.66.04-1.34-.03-2,0l1-1.96,1,1.96Z"/>
      <path class="cls-2" d="M216.67,14.2l-2-2c.82.31,1.45,1.77,2,2Z"/>
      <path class="cls-2" d="M44.67,30.2c.68-.54,1.38-1.35,2-2l-2,2Z"/>
      <path class="cls-2" d="M160.67,4.2l2-2c-.46.02-1.45,1.96-2,2Z"/>
      <path class="cls-2" d="M32.67,42.2c.64-.69,1.32-1.35,2-2l-2,2Z"/>
      <path class="cls-2" d="M66.67,86.2c-1.82,2.25-18.9,49.49-20,54-8.49,2.56-4.89,2.22-4.01,9.99h-3.99c1.81-13.84,8.41-47.05,16.61-57.45.71-.9,3.12-.27,3.39-.53,3.05-2.99.57-7.88,8-6Z"/>
      <path class="cls-2" d="M226.67,26.2c4.48,1.73,7.56,10.85,8.56,11.57,7.95,5.76,2.09,1.63,5.44,6.43-2.03-1.98-9.53-1.8-10-2-9.67-4.16-12.19-11.24-16-14,2.91-.26,3.53-5.85,5.11-6.13,5.29-.94,5.87,3.57,6.89,4.13Z"/>
      <path class="cls-2" d="M130.67,22.2l4,4c-7.47,2-17.54,6.98-25.02,9.96.57-9.13,13.76-11.08,21.02-13.96Z"/>
      <path class="cls-2" d="M70.67,78.2l-7.99-.99c2.16-3.08,4.29-3.48,7.98-3v3.99Z"/>
      <rect class="cls-2" x="210.68" y="18.21" width="5.98" height="3.98"/>
      <path class="cls-2" d="M88.67,16.2h-2c1.52-.32,1.9.02,2,0Z"/>
    </g>
  </g>
</svg>