<?xml version="1.0" encoding="UTF-8"?>
<svg id="Calque_2" data-name="Calque 2" xmlns="http://www.w3.org/2000/svg" viewBox="0 0 381.51 196.82">
  <defs>
    <style>
      .cls-1 {
        fill: #edb468;
      }

      .cls-2 {
        fill: #85a57e;
      }

      .cls-3 {
        fill: #51514a;
      }
    </style>
  </defs>
  <g id="Calque_1-2" data-name="Calque 1">
    <g>
      <path class="cls-3" d="M137.31,120.68c5.12.13,5.91-3.74,7.75-7.26,11.16-21.3,17.23-50.27,26.75-73.24,9.19-22.18,21.09-55.75,51.07-32.07,17.84,14.08,26.69,65.77,34.29,87.7,1.22,3.53,7.27,18.42,10.33,10.09,5.48-14.9,8.35-32.36,14.26-47.75,7.24-18.84,26.37-71.32,52.62-47.56,5.56,5.03,27.77,26.39,30.94,31.06,5.26,7.77,8.56,22.35,15.62,30.48,3.87,5.51-13.97,25.23-17.08,26.16-18.76,5.61-26.47-22.24-34.57-33.61.97-1.86-2.44-7.48,4-6,8.64,10.63,11.32,22.35,21.05,32.01,1.96.53,19.25-13,18.69-16.64l-46.48-60.57c-10.94-7.96-19.63,8.55-24.3,17.17-9.4,17.33-12.22,31.68-18.43,49.57-2.95,8.5-11.08,37.51-17.07,40.93-6.66,3.81-4.77.28-7.46-6.47-10.75-26.86-17.78-54.46-28.14-80.85-5.22-13.31-16.3-31.55-33.86-23.15-.88.42-6.6,5.92-7.2,6.81-17.56,26.19-22.23,74.43-37.3,99.69-3.04,5.1-7.3,6.24-9.5,9.5-9.45,1.4-4.53-2.34-6-6Z"/>
      <path class="cls-3" d="M315.31,70.68l6,2c-10.21,31.83-10.76,69.27-25.04,99.96-16.95,36.43-48.59,29.32-60.49-5.43l-28.49-86.52c-2.36-.32-3.11,3.57-3.98,4-1.07.53-4.34-.36-6,0,2.95-8.51-.11-28.58,14.84-11.84l33.41,98.59c17.1,29.64,36.36,17.22,46.13-9.38,10.18-27.69,12.54-60.78,23.62-91.38Z"/>
      <path class="cls-3" d="M31.31,178.68c12.51-8.94,13.25-27.48,18.6-40.4,9.36-22.58,20.84-44.16,28.41-67.59-.06,4.72,4.92,2.2,5.96,3.85,1.33,2.12,6.14,15.23,7.39,18.78,8.04,22.83,11.41,44.57,21.64,67.36,7.22,16.06,8.82,26.31,30,26,.65,0,1.36.09,2,0,5.2-.7,14.17-6.62,17.33-10.67,2.42-3.11,8.95-18.75,10.67-23.33l4,2c-2.36,5.13-2.67,14.84-7.27,21.52-.68.98-13.94,14.79-14.83,15.38-3.82,2.51-10.34,3.38-14.9,3.26-33.96-.86-43.53-56.27-52.42-81.74-3.48-9.96-4.96-8.91-6.61-21.42-1.53-11.51-4.9,3.77-5.34,4.53-5.16,8.78-14.52,29.85-18.43,40.06-3.67,9.57-7.7,35.63-14.76,41.86-2.52,2.22-6.11,1.69-7.43,2.56-1.5.17-3.4-1.93-4-2Z"/>
      <path class="cls-3" d="M13.31,178.68c-7.56-.68-14.43-.03-13.16-10.07,7.04-22.66,17.5-44.59,25.21-66.88,7.37-21.3,22.79-88.6,42.48-97.51,22.03-9.97,31.25,8.55,38.25,26.68,1.52,3.92,1.22,8.14,3.22,11.79.44.8,1.31,1.41,2,2,.39,2.47-.42,5.57,0,8,1.16,6.71,2.7,21.76,4.14,26.51.17.55,11.22,10.34,1.86,9.49-4.94-14.46-22.21-71.09-32-78-.82-.58-.98-1.72-3.01-2.03-20.39-3.17-31.54,36.33-36.42,51.61-2.09,6.55-4.39,13.45-4.58,20.42-11.78,28.22-22.29,56.98-33.69,85.37l9.69,12.63c-1.31-.12-2.69.12-4,0Z"/>
      <path class="cls-2" d="M203.31,84.68c-6.49,22.16-12.68,44.21-21.58,65.51-1.06,2.55-4.21,4.05-4.42,4.49l-4-2c.5-1.33-.34-4.25,0-6,3.03-4.54,4.91-9.5,8-14,.38-.56,5.53.12,7.16-9.93.99-6.13-1.22-7.64-1.16-8.07,1.81-13.41,6.41-19.67,10-30,1.66-.36,4.93.53,6,0Z"/>
      <path class="cls-2" d="M111.31,52.68c5.36-1.14,3.94,2.68,4.93,5.97,6.91,22.81,12.2,39.87,21.07,62.03,1.47,3.66-3.45,7.4,6,6-1.36,2.02-1.28,4.11-2,6h-4c-10.31-18.91-12.96-23.4-20-44,9.36.85-1.69-8.94-1.86-9.49-1.44-4.74-2.98-19.8-4.14-26.51Z"/>
      <path class="cls-2" d="M315.31,70.68c1.35-3.72,2.58-12.43,3.9-14.71,1.83-3.16,7.25,1.52,5.04-5.25,7.9,1.46,6.3,4.57,9.06,7.96-6.44-1.48-3.03,4.14-4,6-.28.54-6.03,1.87-8,8l-6-2Z"/>
      <path class="cls-2" d="M17.31,178.68c4.52.41,9.58-.52,14,0,.6.07,2.5,2.17,4,2-.58.39.42,7.1-10.81,5.98-2.65-.26-12.64-3.26-11.19-7.98,1.31.12,2.69-.12,4,0Z"/>
      <path class="cls-2" d="M111.31,44.68c-.69-.59-1.56-1.2-2-2,.96.22,1.85,1.06,2,2Z"/>
      <path class="cls-1" d="M85.31,10.68c9.79,6.91,27.06,63.54,32,78,7.04,20.6,9.69,25.09,20,44,.49.9-1.11,4.15,1.02,4.01,4.83.99,2.2-1.97,2.98-4.01.72-1.89.64-3.98,2-6,2.2-3.27,6.46-4.4,9.5-9.5,15.07-25.26,19.74-73.5,37.3-99.69.6-.89,6.32-6.38,7.2-6.81,2.72,3.69,8.65,1.24,12.62,2.38,2.85.82,14.92,20.99,16.88,25.12,11.83,24.92,13.05,55.62,32.5,76.5,2.7,6.74.8,10.27,7.46,6.47,5.99-3.42,14.12-32.44,17.07-40.93,6.21-17.88,9.04-32.23,18.43-49.57,4.67-8.62,13.36-25.13,24.3-17.17l46.48,60.57c.56,3.64-16.73,17.17-18.69,16.64-9.73-9.65-12.41-21.38-21.05-32.01-2.76-3.4-1.16-6.5-9.06-7.96,2.22,6.76-3.21,2.08-5.04,5.25-1.32,2.28-2.55,11-3.9,14.71-11.09,30.6-13.45,63.68-23.62,91.38-9.77,26.6-29.03,39.02-46.13,9.38l-33.41-98.59c-14.95-16.74-11.89,3.33-14.84,11.84-3.59,10.33-8.19,16.59-10,30-4.62,4.62-6.06,11.66-6,18-3.09,4.5-4.97,9.46-8,14-2.11,3.16-2.57,6.44-4.02,8.55-6.88,10-18.87,19.31-23.98,31.45-.64.09-1.35,0-2,0l-13.91-7.09-16.09-18.91c-10.24-22.79-13.6-44.53-21.64-67.36-1.25-3.56-6.06-16.66-7.39-18.78-1.03-1.65-6.02.87-5.96-3.85-7.57,23.44-19.05,45.02-28.41,67.59-5.35,12.92-6.09,31.45-18.6,40.4-4.42-.52-9.48.41-14,0l-9.69-12.63c11.4-28.39,21.91-57.15,33.69-85.37,8.87-21.26,17.64-52.83,35-66.01,2.8-2.13,5.38-3.75,9-3.99Z"/>
      <path class="cls-3" d="M187.31,114.68c-.06.43,2.16,1.94,1.16,8.07-1.63,10.05-6.78,9.37-7.16,9.93-.06-6.34,1.38-13.38,6-18Z"/>
    </g>
  </g>
</svg>