<?xml version="1.0" encoding="UTF-8"?>
<svg id="Calque_2" data-name="Calque 2" xmlns="http://www.w3.org/2000/svg" viewBox="0 0 303.77 276.3">
  <defs>
    <style>
      .cls-1 {
        fill: #4f87b9;
      }

      .cls-2 {
        fill: #7cbfdd;
      }
    </style>
  </defs>
  <g id="Calque_1-2" data-name="Calque 1">
    <g>
      <path class="cls-1" d="M205.62,60.24c4.9,7.13,13.6,5.8,20,8,.59.2,1.39-.19,2,0-.77,6.7,5.68,4.82,7.62,6.31.51.39,1.49,7.92,4.4,11.67,1.97,2.53.96-7.92,5.97-1.98,1.83,2.34,6.02,2.69,8.1,4.89,24.09,25.52,13.93,60.24,11.92,91.11,14.16-12.22,20.11-33.49,27.98-50,.2.93,4.81,6.48,6,8-.6,1.75-1.69,3.09-2,4-.89,2.66-2.79,6.85-4,10-12,31.24-35.49,59.24-58.03,84.42-21.83,24.38-44.83,37.79-78.99,39.55-30.77,1.58-109.19-16.51-132.91-35.03C2.68,224.77-2.95,198.35,1.34,173.15c3.65-21.45,11.97-30.24,12.29-52.91,7.98,1.42,1.07-5.27,2-5.98,4.09-3.13,7.02,11.28,10.02,4.9.37-.79-.41-2.14-.03-2.92,3.91-7.92,14.91-23.13,22-28,1.45-.99,5.91-1.73,7.98-4-.1,1.96.25,4.05.02,6-1.22.81-6.08,1.88-7.34,4.65-1.09,2.4-.37,4.78-.66,5.35-6.9,13.93-20.89,28.01-20.03,42.94.74,12.75,22.45,71.19,30.03,81.06.58.76,1.22,1.44,2,2,.6.43,2.79,1.35,4,2-1.19,6,2.45,3.21,4,4,23.41,11.88,31.5,23.6,61.02,22,19.96-1.08-2.65-4.96-5.45-6.16-1.86-.8-1.95-3.32-4.06-4.42-36.53-18.99-45.06-34.78-51.51-75.41l1.99-2.98-1.99-1.02c-.27-1.89.21-4.06,0-6-.3-2.76-2.23-9.57-4-12-.02-4.63-.22-9.38,0-14l1.99-2.98-1.99-1.02c.06-1.33-.09-2.68,0-4l2-2c.09-1.23.15-2.8,0-4l2-4c2.26-1.2-.28-8.04,0-10,9.08.46,3.94,5.28,4.35,9.06.2,1.83,1.65,2.78,1.65,2.94-.02,6.74-1.84,12.32-2.09,18.93-.08,2.21-1.25,7.6,2.07,7.06,1.45-5.38,5.18-12.16,8.37-16.64,6.92-9.7,20.4-22.34,30.73-29.27,8.41-5.65,18.59-8.49,25.96-16.05l.94,3.95c6.76-1.65,13.13-1.71,20.02-1.98v6c-26.92,1.35-41.8,19.12-48.03,43.99-7.26-1.29,7.44-25.22-.94-21.96-19.09,7.41-34.44,43.72-27.48,63.42,24.79,70.25,183.67,31.74,131.99-58.08-1.37-2.38-1.21-6.91-1.54-7.37l4-2c.18.24,3.57.06,4.82,2.1,47.25,77.25-45.64,135.45-117.28,101.36-7.96-3.79-11.64-10.96-19.53-13.45,15.56,48.91,74.65,54.23,116.55,35.55,51.61-23.02,79.76-110.56,30.15-147.27-29.81-22.06-96.44-18.62-128.68-3.26-2.23,1.06-15.42,8.28-16.03,8.97h-6s0-6,0-6c.67-.71,1.28-1.34,2-2,3.96.16,6.16-1.95,6-6,.47-.3,1.82.32,2,0,2.94-.01,5.13-1.12,6-4,35.24-18.57,69.26-19.15,108-12ZM52.91,226.94c-1.13-1.44-3.62-1.96-4.95-3.95-13.76-20.63-22.48-45.14-29.33-68.74-30.5,55.78,14.52,97.49,68.98,101-10.24-6.46-23.7-12.97-32.03-22.05-1.4-1.53-1.37-4.6-2.67-6.25ZM264.62,182.24v2c1.3-.67,1.3-1.33,0-2ZM140.62,264.24c9.99.13,20,0,30,0,7.46,0,48.91-20.66,48.96-27-6.08-7.23-5.84-.15-6.43.15-25.95,13.08-51.87,23.52-81.52,24.87.15,4.62,7.27,1.96,8.99,1.98Z"/>
      <path class="cls-1" d="M213.62,6.24c.24,1.22-.36,3.1,0,4-29.79-4.37-57.37,1.14-83.7,15.37-2.63,1.42-5.43-1.04-4.29,4.62,10.25.47,20.71-.63,30.97.03,33.58,2.17,74,3.55,104.08,19.92,8.93,4.86,16.58,10.64,20.94,20.06l2,2c.12.6,0,1.37,0,2-.02,3.39-2.01,5.68-2,6-19.81-16.81-41.47-29.03-67.51-33.49-20.46-3.5-85.79-7.56-105.02-4.04-9.02,1.65-24.71,16.63-31.47,23.53-.66.67-1.34,1.32-2,2s-1.35,1.32-2,2l-3.91,1.94-4.09-5.94c3.94-4.37,6.83-9.76,10.9-14.14.97-1.05,12.19-7.03,6.09-7.87-7.16-.98-16.32,2.27-22.99,5.01-27.53,11.33-39.52,33.58-38,63-3.17-3.88-3.39-9.07-8-8,.19-2.63-.31-5.4,0-8l6-.02-4-3.98c.72-3.83,1.48-17.27,2-18.02.24-.34,2.82.23,4,.02,7.41-1.31,6.02-9.93,8.34-13.6,1.22-1.93,12.07-1.81,9.66-10.4,7.25-5.3,17.12-12.53,25.93-15.07,8.29-2.38,31.76-1.84,35.66-3.51.74-.32,7.93-8.69,11.9-10.94C143.98,3.21,179.31-7.46,213.62,6.24Z"/>
      <path class="cls-2" d="M283.62,74.24c6.42-1.29,4.82.76,7.05,3.9,13.89,19.58,16.49,37.94,8.95,60.1-1.19-1.52-5.8-7.07-6-8-1.15-5.22.31-13.17-.9-20.1-1.67-9.6-10.99-24.26-11.1-29.9,0-.32,1.98-2.61,2-6Z"/>
      <path class="cls-2" d="M13.62,104.24c4.61-1.07,4.83,4.12,8,8,1.18,1.45,2.71,2.65,4,4-.39.78.4,2.13.03,2.92-3,6.38-5.93-8.03-10.02-4.9-.93.71,5.97,7.4-2,5.98.08-5.67-.42-10.21,0-16Z"/>
      <path class="cls-2" d="M39.62,50.24c2.41,8.59-8.44,8.47-9.66,10.4-2.32,3.67-.93,12.29-8.34,13.6.36-8.47,6.5-16.7,12.95-22.13,1.72-1.45,4.28-1.3,5.05-1.87Z"/>
      <path class="cls-2" d="M293.62,152.24c1.21-3.15,3.11-7.34,4-10,2.07,5.28,3.38,9.74-4,10Z"/>
      <path class="cls-2" d="M15.62,92.24l4,3.98-6,.02c.24-2,1.89-3.4,2-4Z"/>
      <path class="cls-2" d="M283.62,72.24l-2-2c.09.2,1.72.62,2,2Z"/>
      <path class="cls-2" d="M217.62,106.24l-4,2c-.16-.22-3.49-.38-4.98-1.93-14.7-15.35-27.62-19.14-49.02-18.07v-6c13.66-.55,9.62,1.23,19.55,3.46,12.37,2.78,27.63,2.36,36.55,13.53,2.11,2.65,1.55,6.54,1.9,7.01Z"/>
      <path class="cls-2" d="M81.62,84.24v6s6,0,6,0c-.48.53-7.31,10.68-7.82,11.61-2.29,4.11-2.3,10.72-6.18,14.39,0-.17-1.45-1.11-1.65-2.94-.41-3.78,4.73-8.6-4.35-9.06.66-4.6,6.94-14.95,9.9-18.65,1.58-1.98,3.91-1.15,4.1-1.35Z"/>
      <path class="cls-2" d="M65.62,66.24l4.09,5.94,3.91-1.94c-7.31,7.67-8.9,13.96-18,20-.55,4.63-2.48,10.12-8,10,.28-.57-.44-2.95.66-5.35,1.26-2.77,6.12-3.84,7.34-4.65.23-1.95-.12-4.04-.02-6-2.07,2.27-6.53,3.01-7.98,4-.39-5.68,6.22-7.56,8-10l.02,3.99h1.96c.27-2.15.39-4.13-1.98-3.99,5.11-6.99,4.96-6.41,10-12Z"/>
      <path class="cls-2" d="M205.62,60.24c.2.04.99-1.7,3.94-1.25,3.15.48,18.28,5.54,16.06,9.25-6.4-2.2-15.1-.87-20-8Z"/>
      <path class="cls-2" d="M227.62,68.24c2.18.68,14.75,7.7,15.49,8.54,1.39,1.58,1.06,5.61,2.51,7.46-5.01-5.93-4,4.52-5.97,1.98-2.92-3.75-3.89-11.28-4.4-11.67-1.94-1.5-8.39.39-7.62-6.31Z"/>
      <path class="cls-2" d="M67.62,158.24c-8.3-3.77-3.98-8.82-4-12,1.77,2.43,3.7,9.24,4,12Z"/>
      <path class="cls-2" d="M89.62,76.24c.16,4.05-2.04,6.16-6,6,1.8-1.67-.58-1.83,6-6Z"/>
      <path class="cls-2" d="M97.62,72.24c-.87,2.88-3.06,3.99-6,4,4.03-7.29,1.71-1.74,6-4Z"/>
      <path class="cls-2" d="M67.62,114.24l-2,4c-.03-.22-3.31-2.61-1.99-3.99.43-.45,3.14.44,3.99-.01Z"/>
      <path class="cls-2" d="M63.62,132.24c.03-.7-.08-2.25,0-4l1.99,1.02-1.99,2.98Z"/>
      <path class="cls-2" d="M67.62,168.24c-.52-3.28.04-3.76,0-4l1.99,1.02-1.99,2.98Z"/>
      <path class="cls-2" d="M63.62,228.24c1.39.74,5.21-1.74,4,4-1.55-.79-5.19,2-4-4Z"/>
      <path class="cls-2" d="M59.62,226.24c-.78-.56-1.42-1.24-2-2l2,2Z"/>
      <path class="cls-2" d="M63.62,124.24c.09-1.23,1.99-1.86,2-2l-2,2Z"/>
      <path class="cls-2" d="M75.62,68.24c.66-.68,1.34-1.33,2-2l-2,2Z"/>
      <path class="cls-1" d="M55.62,78.24c2.37-.14,2.25,1.84,1.98,3.99h-1.96s-.02-3.99-.02-3.99Z"/>
    </g>
  </g>
</svg>