<?xml version="1.0" encoding="UTF-8"?>
<svg id="Calque_2" data-name="Calque 2" xmlns="http://www.w3.org/2000/svg" viewBox="0 0 236.37 237.64">
  <defs>
    <style>
      .cls-1 {
        fill: #85a57e;
      }

      .cls-2 {
        fill: #7cbfdd;
      }
    </style>
  </defs>
  <g id="Calque_1-2" data-name="Calque 1">
    <g>
      <path class="cls-1" d="M128.33,1.85c2.92,3.11-.61,3.43-2.76,4.19-10.96,3.89-24.74,5.1-36.01,9.99C46.38,34.75,15.68,88.8,20.36,134.8c.36,3.59,5.66,26.61,6.53,28.64.12.27,2.98.87,4.1,2.84,22.91,40.31,78.33,58.23,121.79,42.98,77.17-27.08,91.22-139.4,9.54-166.52-3.45-1.14-18.05-4.51-22.95-5.01-24.91-2.55-60.99,24.3-69.11,47.02-14.85,41.54,16.86,91.83,64.19,82.19,11.92-2.43,20.97-10.84,31.36-15.62,5.15-16.25,9.47-36.3-.62-51.37-10.83-16.18-31.91-21.28-47.36-8.18-6.61,5.61-13.7,24.92-7.05,31.58,2.38,2.38,20.1,4.14,22.7.59,1.42-1.94-4.18-27.7,8.84-11.12,16.79,21.37-20.39,44.68-43.03,25.03-32.84-28.5,15.15-90.73,56.85-66.85,67.43,38.63,16.86,138.07-52.4,114.4-52.08-17.8-70.74-77.97-41.35-123.99,3.68-5.76,21.04-22.87,27.3-27.22,45.47-31.57,100.6-14.88,132.58,26.68,15.82,20.57,17.2,71.02,9.61,95.51-7.51,24.26-41.29,59.52-65.1,68.91-40.67,16.04-77.92,18.16-117.08-3.86C.4,193.69-14.63,102.98,15.52,58,29.82,36.68,64.15,7.11,89.46,1.94c6.03-1.23,35.56-3.62,38.87-.09ZM32.33,191.83c-2.18-2.18-6.16,1.8-3.98,3.98s6.16-1.8,3.98-3.98ZM33.32,197.86c-1.98,1.39,1.08,2.75,2.04,3.92,1.99-1.31-.93-2.65-2.04-3.92ZM42.33,203.84h-3.98v1.96h3.98v-1.96Z"/>
      <path class="cls-2" d="M32.33,191.83c2.18,2.18-1.8,6.16-3.98,3.98s1.8-6.16,3.98-3.98Z"/>
      <rect class="cls-2" x="38.35" y="203.84" width="3.98" height="1.96"/>
      <path class="cls-2" d="M33.32,197.86c1.11,1.27,4.03,2.61,2.04,3.92-.96-1.17-4.02-2.53-2.04-3.92Z"/>
    </g>
  </g>
</svg>