<?xml version="1.0" encoding="UTF-8"?>
<svg id="Calque_2" data-name="Calque 2" xmlns="http://www.w3.org/2000/svg" viewBox="0 0 354.36 212.1">
  <defs>
    <style>
      .cls-1 {
        fill: #edb468;
      }
    </style>
  </defs>
  <g id="Calque_1-2" data-name="Calque 1">
    <path class="cls-1" d="M179.53,160.52c-2.38,2.8-10.54,4.17-6.37,10.71,4.88,7.65,25.19,12.02,34.03,12.13,12.75.16,49.18-11.72,57-21.17,6.06-7.32-3.86-20.15-3.95-30-.1-10.39,5.22-28.35,10.35-37.61,5.64-10.2,17.05-18.39,28.6-19.54,6.43-.64,13,2.85,17.06,7.71,13.98,16.73,1.03,37.61-8,53.49-2.48,4.36-15.58,19.17-13.15,23.03,20.86,13.82,39.29-9.02,59.13-10.04.93.66-3.56,12.97-5.24,14.14s-5.48.86-7.44,2.23c-2.48,1.75-3.31,4.79-4.82,5.65-9.36,5.35-22.87,7.06-33.54,5.97-7.14-.73-19.72-7.33-25.54-5.72-4.01,1.11-11.02,11.01-16.56,13.49-19.65,8.77-49.58,16.93-70.54,10.89-5.8-1.67-27.24-14.61-31.02-14.31-1.33.11-19.01,12.09-22.6,14.37-1.7,1.08-2.53,4.2-6.54,6.43-26.53,14.72-59.63,13.84-80.17-10.15-2.53-2.96-4.14-9.9-7.3-10.82-5.08-1.48-39.34,15.42-42.67-3.22-1.88-10.52,7.57-.83,14.83-.86,4.14-.01,24.35-5.27,26.32-8.04.96-1.36-3.61-26.18-3.24-33.15,1.38-25.91,19.56-86.41,51.07-87.07,23.65-.49,22.81,20.56,20.49,38.64-4.05,31.5-30.07,59.06-50.56,81.59-1.69,17.21,17.73,30.88,34,30.01,9.89-.53,55.6-23.55,54.75-32.72-.33-3.49-7.95-14.78-9.78-20.26-12.97-38.76-.61-105.79,30.01-134.2,31.41-29.15,58.8-.91,61.91,34.4,3.94,44.65-23.13,81.84-50.5,114.01ZM195.71,13.61c-37.03,7.33-61.52,111.1-34.44,139.6,33-24.68,59.51-76.9,52.48-118.53-1.59-9.43-7.23-23.21-18.04-21.07ZM52.22,128.21c-1.08,9.04.78,19.74,0,29,6.43.84,10.96-5.66,15.03-9.97,14.48-15.34,34.13-47.93,35.12-69.04,1.03-21.81-13.14-23.54-26.2-8.03-11.14,13.23-21.92,41.07-23.95,58.05ZM278.23,143.2c4.78,5.65,20.4-25.1,21.4-27.58,1.73-4.27,9.95-24.73,3.47-26.38-21.58,4.68-26.53,34.97-24.87,53.96Z"/>
  </g>
</svg>