<?xml version="1.0" encoding="UTF-8"?>
<svg id="Calque_2" data-name="Calque 2" xmlns="http://www.w3.org/2000/svg" viewBox="0 0 247.54 138.7">
  <defs>
    <style>
      .cls-1 {
        fill: #edb468;
      }

      .cls-2 {
        fill: #85a57e;
      }

      .cls-3 {
        fill: #51514a;
      }
    </style>
  </defs>
  <g id="Calque_1-2" data-name="Calque 1">
    <g>
      <path class="cls-3" d="M122.71,8.18C152.9,5.78,192.45-.23,221.7,0c27.19.22,27.4,8.12,24.77,32.92-1.53,14.38-11.74,37.87-18.85,49.14-39.14,62.04-129.18,76.61-183.95,26.15C23.34,89.5-4.83,43.53.71,15.17c1.47-7.52,6.86-4.1,12-4.99-.34,1.53.5,5.32,0,6-.13.17-3.46-.8-4.03,1.31-3.7,13.84,8.08,42.05,15.3,54.42,29.06,49.82,89.98,74.48,144.48,51.02,44.4-19.11,69.02-63.76,72.26-110.75l-188.01,2c22.61-3.42,46.84-4.16,70-6Z"/>
      <path class="cls-2" d="M122.71,8.18c-23.16,1.84-47.39,2.58-70,6-.26.04-1.8,1.76-4.79,2.12-10.78,1.31-24.09-1.19-35.21-.12.5-.68-.34-4.47,0-6,27.03-4.7,70.45-4.33,99.03-4.03,3.38.04,8.89-1.28,10.97,2.03Z"/>
      <path class="cls-1" d="M52.71,14.18l188.01-2c-3.24,46.98-27.86,91.64-72.26,110.75-54.5,23.46-115.42-1.2-144.48-51.02-7.21-12.37-19-40.58-15.3-54.42.57-2.12,3.9-1.14,4.03-1.31,11.12-1.07,24.43,1.43,35.21.12,2.99-.36,4.53-2.08,4.79-2.12Z"/>
    </g>
  </g>
</svg>