<?xml version="1.0" encoding="UTF-8"?>
<svg id="Calque_1" xmlns="http://www.w3.org/2000/svg" version="1.1" viewBox="0 0 1024 590">
  <!-- Generator: Adobe Illustrator 29.8.2, SVG Export Plug-In . SVG Version: 2.1.1 Build 3)  -->
  <defs>
    <style>
      .st0 {
        fill: #f2f2f2;
      }

      .st1 {
        fill: #8b8b8b;
      }

      .st2 {
        fill: #848484;
      }

      .st3 {
        fill: #f3f3f3;
      }

      .st4 {
        fill: #888;
      }

      .st5 {
        fill: #8a8a8a;
      }

      .st6 {
        fill: #858585;
      }

      .st7 {
        fill: #8c8c8c;
      }

      .st8 {
        fill: #8e8e8e;
      }

      .st9 {
        fill: #f4f4f4;
      }

      .st10 {
        fill: #868686;
      }

      .st11 {
        fill: #bfbfbf;
      }

      .st12 {
        fill: #898989;
      }

      .st13 {
        fill: #878787;
      }

      .st14 {
        fill: #8d8d8d;
      }
    </style>
  </defs>
  <path d="M850,70l2.25-.4c25.33,38.26,51.54,11.63,53.59,25.48-4.87,12.78,14.2,9.32,7.56-1.83,1.55-4.88,4.62-3.44,6.6.75,5.56,10.08,11.18,15.46,21,21l1.49,2.44c-3.64,17.68,5.69,32.02,21.75,38.83l-.42,3.04c-24.28,13.21-33.27,43.86-11.38,63.96-8.97,26.3-11.78,38.19,2.76,63.69-28.18,8.47-50.24,33.79-38.75,64.23l-.72,2.02c-39.81,3.01-79.81,29.89-89.78,69.74-26.24-2.17-50.47,8.42-70.75,23.86-21.8.5-37.68,16.82-42.7,37.29l-2.51,1.89c-35.78,6.28-31.43,38.14-42,28-20-24.73-41.19-4.06-65-1-10.5-2.97-19.35.08-26.52,7.98h-1.46c-16.25-26.75-54.97-24.85-70.52,2-10.05-16.1-33.39-13.02-49-7.9-18.18-16.97-45.18-18.04-60,3.92-9.97-19.48-31.06-30.21-52.49-22.99-4.72-23.07-20.64-37.81-41.11-46.98-1.5-20.96-19.61-37.25-40.63-36.29-9.03-7.57-27.11-4.76-31.27-5.73l-.83-4.67c7.06-17.33-18.65-21.89-17.69-2.4-8.99,12.33,1.56,6.61-20.28,6.86-6.27-10.06-15.56-17.24-25.21-23.78l-1.47-3.11c4.03-17.36-1.21-32.71-7.83-48.04.53-2.09.89-4.18.23-6.32,18.85-34.31,13.35-68.1-5.93-100.53,2.96-7.05,5.57-14.45,7-22l2.17-2.34c34.02-5.88,57.14-38.52,47.7-72.33,1.49-9.65,6.17-19.31,5.14-29.32,8.27-.16,16.35-3.2,22.99-8.01l2.92-.43c13.89,9.26,31.42,7,41.85-5.99,15.22-3.21,22.99-5.9,31.73-19.57,6.74,9.02,21.58,10.73,30.84,4.82,1.72-1.1,4.52-5.02,6.02-4.76,14.05,19.32,38.62,22.18,59.32,12.58,10.47,8.91,23.86,8.22,33.54-1.43,5.86-1.83,12.64-3.2,18.11-6.38,1.78-1.19,5.71-6.17,7.15-5.84,12.47,24.5,49.64,26.2,63.01,2.01,10.49,20.31,26.94,28.04,49.56,26.22,15.83,9.22,34.14,4.45,44.85-9.79,33.49,16.2,73.57,16.75,105.06-4.52,10.04,7.44,18.99,6.65,29.41.21,14.86-.17,26.31-4.73,30.64-20.12,17.6,12.89,38.73,20.93,59.99,12Z"/>
  <path class="st5" d="M166,383c-11.77-7.99-23.73-14.29-37.96-17.04-.6-2.33,1.9-10.09,3.45-12.71,5.05-2.31,23.7-20.62,23.13-24.97-.95-7.17-25.49-20.39-33.5-18.68-7.54-7.22-16.71-17.08-26.43-21.77-2.95-1.59-7.21-.77-5.56-5.2,25.48-10.79,51.22-30.94,61.88-57.63,25.82,29.29,23.52,71.58,6.94,104.5,7.44,18.07,13.06,32.52,8.06,53.5Z"/>
  <path class="st12" d="M941,115c6.43,3.63,12.27,6.93,20,7-4.14,19.14,1.11,41.29,23,45.01-7.16,11.17-5.72,22.03,1,32.98-14.31,3.86-26.29,13.92-33,27.01-17.15-18.3-19.82-43.61-.01-61.51,1.26-1.1,11.62-7.65,11.01-8.47-18.12-5.64-26.62-23.91-22-42.01Z"/>
  <path class="st5" d="M158,203c2.8-14.71,1.96-27.32-.92-41.91,23.5-3.36,45.62-19.05,52.92-42.09-1.62,9.75,2.24,17.08,2.02,26.46-.72,29.85-25.11,53.86-54.02,57.54Z"/>
  <path class="st5" d="M954,284c1.42,2.17,4.21,5.44,6.13,7.32s6.72,3.42,5.91,6.13c-18.12,12.42-23.51,36.94-18.04,57.55-12.4-3.18-25.38-2.17-37.99-1,1.31-.3,2.9-1.78,5-1.01-11.84-30.96,7.07-56.34,36.03-66.51,1.6-.56,3.55.21,2.97-2.48Z"/>
  <path class="st4" d="M304,451c-15.24-4.68-19.42-1.01-32.72,1.77-4.72.19-44.61-3.94-46.28-8.76l49.96-.05c3.76-18.88-71.5-2.36-68.45-19.96,8.78-.41,17.27,2.26,25.95-.04,9.98-.66,40.78,5.19,25.54-12.96,24.17-2.96,45.47,15.77,46,40Z"/>
  <path class="st1" d="M850,70c3.1-1.16,10.97-6.35,11.91-6.56,10.28,4.44,17.83,5.42,28.46-.31,8.47,13.44,13.21,16.39,26.41,22.09,1.12,1.12,2.19,6.9,3.23,8.77-1.88-2.15-3.84-1.6-6-2,.04,2.26-7.26,1.66-9,1-5.52-1.81-11.33,1.2-17.48,1-17.29-.72-28.03-10.69-37.52-24Z"/>
  <path class="st13" d="M759,445c-12.53,11.32-20.32,28-21.01,45-8.99-4.68-18.03-5.78-27.99-4,5.35-24.15,23.05-42.41,49-41Z"/>
  <path class="st11" d="M130,356c1.53-17.05-2.52-36.24-13-50,5.35,3.05,11.94,2.1,18.23,4.27,5.31,1.84,20.17,12.41,21.32,17.64s-20.02,26.82-26.55,28.09Z"/>
  <path class="st13" d="M628,83c-4.65,1.87-6.33,6.88-10.66,9.84-16.4,10.6-28.32,5.37-44.34-.84,15.2-1.23,28.57-10.48,35.5-23.98,5.93,5.81,12.16,11.11,19.5,14.98Z"/>
  <path class="st12" d="M286,83c-14.02,15.04-32,21.21-50,8,8.16-5.91,14.12-14.32,17.01-24,8.6,11.09,18.49,17.1,32.99,16Z"/>
  <path class="st5" d="M450,74c-7.1,3.06-6.94,4.87-12.31,8.19-11.01,6.81-22.54,3.92-31.69-4.19,6.11-3.38,11.33-8.43,15.5-13.98,7.12,8.66,17.57,11.91,28.5,9.98Z"/>
  <path class="st7" d="M727,79c5.32-3.72,9.96-8.4,14.54-12.98,9.22,8.37,15.93,12.45,29.46,10.98-12.14.82-19.49,10.96-32.27,7.77-4.33-.88-7.34-5.48-11.73-5.77Z"/>
  <path class="st14" d="M630,505c-6.06,3.63-12.57,7.96-15.02,14.99-4.2-1.69-6.86-5.54-11.98-6.99,8.81-5.48,17.32-6.04,27-8Z"/>
  <path class="st8" d="M489,512c-11.71-.9-21.93.18-29.5,9.98-2.78-2.12-4.19-5.51-6.5-7.98,10.28-5.75,25.08-4.28,36-2Z"/>
  <path class="st6" d="M230,407c-2.53-2.08-1.15-6.9-7.55-7.94-7.41-1.2-9.96.84-14.45,5.94,4.1-6.85-1.03-13.6,7.3-18.2,6.58-3.64,13.79-1.02,16.48,5.91,2.55,6.55-.88,8.16-1.78,14.29Z"/>
  <path class="st9" d="M816.6,373.16c6.36-2.22,13.38,3.2,12.74,9.85-.84,8.62-13.54,14.16-19.39,6.51-4.87-5.81-.14-14.43,6.46-16.3l.19-.06Z"/>
  <path class="st0" d="M913.67,92.24c4.16,2.62,4.33,9.52-.16,11.96-3.62,2.23-8.66.57-10.24-3.32-2.84-6.28,4.5-12.55,10.24-8.74l.16.11Z"/>
  <path class="st3" d="M926.92,319.35c5.11,6-4.12,13.4-9.41,8.68-5.06-5.47,4.12-13.32,9.28-8.8l.13.12Z"/>
  <g>
    <path class="st13" d="M215.25,76.5c.65-.23,2.09.14,3.32.29,15.61,2.45,19.66-10.09,16.47-23.16-.35-1.84-1.6-8.13,1.82-4.34,15.34,17.37,1.27,44.93-20.64,29.43-.98-.84-1.76-1.79-1.08-2.18l.11-.04Z"/>
    <path class="st13" d="M306.79,489.6c-13.53-9.97-28.98-6.92-44.45-3.52-1.81.19-1.58-.71-.55-1.86,2.51-2.59,6.02-5.52,9.42-7.07,12.42-5.9,33.58-3.68,35.63,12.41l-.05.04Z"/>
    <path class="st1" d="M971.59,123.25c-.88,14.57,4.61,28.23,19.81,31.75,1.88.8.04,1.44-1.36,1.67-3.41.46-7.31.78-10.6.05-13.44-3.04-18.28-20.28-10.53-31.54.63-.89,1.39-2.87,2.6-2.02l.08.1Z"/>
    <path class="st1" d="M658.99,515.99c-13.63-2.67-21.8,6.25-26.01,18-10.93-14.05,17.21-37,26.01-18Z"/>
    <path class="st13" d="M449.89,546.81c-.28.26-1.04-.23-2.13-1.15-15.35-14.84-38.45-10.85-55.8-.96-2.76,1.07-2.11-.7-.81-2.59,13.97-18.65,46.3-23.82,57.36.06.6,1.15,1.83,3.97,1.42,4.61l-.03.04Z"/>
    <path class="st4" d="M182,498.04c-.55.49-1.77.22-3.52-.59-1.93-.89-4.84-2.63-7.15-3.81-6.25-3.31-13.13-4.72-20.13-4.3-3.87.19-7.72,1.18-11.33,2.5-1.94.5-7.87,3.51-8.28.8.23-2.8,3.53-6.31,5.92-8.3,11.25-9.2,29.4-6.67,39.55,4.18,1.89,2.14,6.18,7.06,4.97,9.48l-.04.04Z"/>
    <path class="st10" d="M817.2,435.47c-30.86,5.09-54.92,32.69-56.42,64.05-.44,4.27-1.58-.91-1.92-2.39-9.71-41.85,42.75-81.54,79.33-62.28-.62.71-2.33.46-3.35.54-5.89-.04-11.82-.72-17.44.04l-.2.03Z"/>
    <path class="st2" d="M965.61,419.56c-40.56,5.99-51.26,35.49-48.06,72.68.05.84.02,1.38-.16,1.32-19-37.55,3.56-82.04,48.23-74.03v.04Z"/>
    <path class="st4" d="M108.69,365.06c-.56-.43.24-3.08.41-4.19,5.45-24.35-8.63-48.57-33.35-53.51-1.83-.62-2.96-1.26-1.79-2,30.1-5.97,53.73,31.03,37.67,56.25-.56,1.03-2.34,3.63-2.9,3.47l-.04-.02Z"/>
    <path class="st6" d="M43.01,241.99c-.27-1.67,2.44-1.09,3.52-1.03,26,1.61,43.38.9,63.99-16.93,22.71-19.65,28.31-45.73,24.48-74.54-.28-2.11.77-1.84,1.51-.5,6.13,11.26,5.08,32.05,2.2,44.22-10.2,42.96-55.15,62.97-95.7,48.78Z"/>
  </g>
</svg>