<svg xmlns="http://www.w3.org/2000/svg" viewBox="0 0 1920 1080" preserveAspectRatio="xMidYMid slice">
    <path d="M358.06598019113585,254.6440101844728 C338.9832377608346,272.39313675474716 296.47620932837015,261.24695670082656 283.3240522871609,293.75315850632023 C270.17189524595165,326.2593603118139 286.37460959599747,402.41794397672186 258.1203789241926,446.7133830539899 C229.86614825238775,491.00882213125794 157.15497255873214,503.4411166208862 150.35294799287988,518.848034403175 C143.5509234270276,534.2549521854638 202.65804998897866,552.6364932604133 221.61850715713507,582.2917639030608 C240.57896432529148,611.9470345457082 219.39275209965325,652.8760347560539 226.8330602667147,672.6773511357746 C234.27336843377617,692.4786675154954 270.3401969935373,691.1523000645913 297.22952724604,701.3573932384627 C324.1188574985427,711.5624864123341 341.8306894437869,733.2990402109809 347.63687397197657,751.7647399643994 C353.4430585001662,770.2304397178178 347.3435956113012,785.4252854260078 361.5423489308556,800.4339023204759 C375.74110225041,815.442519214944 410.23807177838376,830.2649072956904 451.9279361635696,832.5903131628838 C493.61780054875544,834.9157190300773 542.5005597911534,824.7441426837179 573.6008420537613,841.2812350121833 C604.7011243163693,857.8183273406487 618.0189295991873,901.0640883439389 637.913663738577,916.0231629161582 C657.8083978779667,930.9822374883775 684.2800608739282,917.6546256295255 699.6192088686029,925.5831769503876 C714.9583568632776,933.5117282712497 719.1649898566658,962.6964427718257 735.2519884507304,962.954140902375 C751.3389870447951,963.2118390329243 779.3063512395364,934.5425207934471 801.302994505406,936.0122831695468 C823.2996377712756,937.4820455456464 839.3255601082734,969.0908885373229 856.0558021559923,971.6450627516743 C872.7860442037112,974.1992369660258 890.220605962151,947.698742403052 903.8558723271392,947.310481573636 C917.4911386921274,946.92222074422 927.3271096636638,972.6461936483618 943.8341128339164,969.0377861968848 C960.341116004169,965.4293787454078 983.5191513731374,932.4885909383123 1009.016026703662,931.6668222448972 C1034.5129020341865,930.845053551482 1062.3286173262666,962.1423039717474 1080.281585867917,967.2996018270248 C1098.2345544095676,972.4568996823023 1106.3247762007886,951.4742449725917 1115.914365450045,951.6559424982858 C1125.5039546993012,951.8376400239798 1136.592911406593,973.1836897850783 1150.6780528472425,967.2996018270248 C1164.763194287892,961.4155138689714 1181.8445204618993,928.3012881917659 1201.085399573179,930.7977300599672 C1220.3262786844589,933.2941719281685 1241.726710733011,971.4012813417763 1261.921852518275,966.4305096420948 C1282.116994303539,961.4597379424132 1301.1068458255152,913.4110851294421 1322.7583054633708,907.3322410668588 C1344.4097651012264,901.2533970042756 1368.7228328549618,937.1443616920801 1383.5947584084668,921.237716025738 C1398.4666839619717,905.3310703593959 1403.897467315246,837.6268143389073 1436.6093816891932,815.2084694642849 C1469.3212960631404,792.7901245896626 1529.3143414577605,815.6576908609067 1557.4131953944552,793.4811648410364 C1585.51204933115,771.3046388211661 1581.7167118099192,704.0840205101814 1624.3332936340607,676.1537198754943 C1666.9498754582023,648.2234192408072 1755.9783766277164,659.5834362824174 1784.24625566117,652.6882308823859 C1812.5141346946234,645.7930254823544 1780.0213915920162,620.6425976406811 1779.90079473652,599.6736076016595 C1779.780197881024,578.7046175626378 1812.0317472726383,561.9170653262682 1809.4499290241383,539.5671920919048 C1806.8681107756383,517.2173188575413 1769.4529248870235,489.30512462518413 1774.6862416269405,454.5352127183594 C1779.9195583668575,419.76530081153464 1827.8013777353065,378.13767123024223 1844.2136164213357,358.06598019113585 C1860.625855107365,337.99428915202947 1845.5685131109747,339.47853665510917 1843.344524236406,333.73139901309753 C1841.1205353618373,327.9842613710859 1851.72989960909,315.005738583983 1844.2136164213357,303.31317254054954 C1836.6973332335815,291.6206064971161 1811.0554026108207,281.2139971973523 1804.2353759145583,265.0731164036322 C1797.415349218296,248.93223560991208 1809.4172264485317,227.0570833222358 1800.7590071748386,214.66576967769555 C1792.1007879011456,202.2744560331553 1762.7824721235233,199.36698103175115 1746.8752917091824,187.72391194486735 C1730.9681112948415,176.08084285798355 1728.4720662437815,155.7021796856201 1720.802526161284,146.00748706823015 C1713.1329860787866,136.3127944508402 1700.2899509648514,137.3020723884237 1692.991576243526,130.3638277394912 C1685.6932015222005,123.42558309055869 1683.9394871934844,108.55981585511017 1675.6097325449273,106.02924656145284 C1667.2799778963702,103.4986772677955 1652.374182927972,113.30330591592936 1642.5842295175894,112.11289185596245 C1632.7942761072068,110.92247779599553 1628.1201642548394,98.73702102792788 1613.0350952299714,102.55287782173308 C1597.9500262051033,106.36873461553827 1572.4540000077347,126.18590497121633 1548.7222735451555,122.54199807512174 C1524.9905470825763,118.89809117902715 1503.0231203547864,91.79310703115989 1484.40945186034,93.86195597243368 C1465.7957833658934,95.93080491370746 1450.5358731047904,127.17348694412229 1440.085750428913,127.7565511847014 C1429.6356277530354,128.3396154252805 1423.9952926623835,98.26306187602391 1391.4165880728362,106.8983387463828 C1358.837883483289,115.5336156167417 1299.3208093948465,162.8807229067161 1251.4927462991157,164.25842295175892 C1203.6646832033848,165.63612299680173 1167.5256311003657,121.04441579691299 1138.5107622582234,119.06562933540198 C1109.4958934160811,117.08684287389097 1087.6052078348155,157.7209771507577 1063.7688343542484,157.3056854723194 C1039.9324608736813,156.8903937938811 1014.1503994938125,115.4256761601377 992.5032751899932,111.2437996710325 C970.856150886174,107.06192318192731 953.3439636584042,140.1628878374603 933.4050066147572,140.7929339586505 C913.4660495711103,141.42298007984073 891.1003227115863,109.58210766668819 874.3067380395211,106.02924656145284 C857.5131533674559,102.47638545621749 846.2917108828494,127.2115356588993 832.590313162884,126.88745899977144 C818.8889154429185,126.56338234064359 802.7075624875938,101.18007881970604 787.397519546527,105.16015437652293 C772.0874766054601,109.14022993333981 757.6487436786508,142.48368456791113 731.7756197110107,144.26930269837027 C705.9024957433705,146.0549208288294 668.5949807348994,116.28270245517642 648.3427699577363,110.37470748610257 C628.0905591805732,104.46671251702871 624.8936526347181,122.42294095253402 617.0554513002585,122.54199807512174 C609.2172499657988,122.66105519770946 596.7377538427347,104.9429410073796 581.4226717181308,109.50561530117264 C566.1075895935269,114.06828959496568 547.9569214673829,140.9117523728816 527.5389562524745,140.7929339586505 C507.12099103756594,140.6741155444194 484.4357287338927,113.59301593804126 471.9170564169582,115.58926059568222 C459.3983841000237,117.58550525332318 457.0463017698279,148.65909417498324 441.4988299444102,158.17477765724934 C425.9513581189925,167.69046113951543 397.20849679835294,155.6482391823876 385.0078379239641,172.94934480105834 C372.8071790495752,190.25045041972908 377.1487226214371,236.89488361419842 358.06598019113585,254.6440101844728 Z" fill="white"/>
</svg>
