<?xml version="1.0" encoding="UTF-8"?>
<svg id="Calque_1" xmlns="http://www.w3.org/2000/svg" version="1.1" viewBox="0 0 1024 590">
  <!-- Generator: Adobe Illustrator 29.8.2, SVG Export Plug-In . SVG Version: 2.1.1 Build 3)  -->
  <defs>
    <style>
      .st0 {
        fill: #8b8b8b;
      }

      .st1 {
        fill: #848484;
      }

      .st2 {
        fill: #888;
      }

      .st3 {
        fill: #858585;
      }

      .st4 {
        fill: #868686;
      }

      .st5 {
        fill: #878787;
      }
    </style>
  </defs>
  <path class="st5" d="M215.25,76.5c.65-.23,2.09.14,3.32.29,15.61,2.45,19.66-10.09,16.47-23.16-.35-1.84-1.6-8.13,1.82-4.34,15.34,17.37,1.27,44.93-20.64,29.43-.98-.84-1.76-1.79-1.08-2.18l.11-.04Z"/>
  <path class="st5" d="M306.79,489.6c-13.53-9.97-28.98-6.92-44.45-3.52-1.81.19-1.58-.71-.55-1.86,2.51-2.59,6.02-5.52,9.42-7.07,12.42-5.9,33.58-3.68,35.63,12.41l-.05.04Z"/>
  <path class="st0" d="M971.59,123.25c-.88,14.57,4.61,28.23,19.81,31.75,1.88.8.04,1.44-1.36,1.67-3.41.46-7.31.78-10.6.05-13.44-3.04-18.28-20.28-10.53-31.54.63-.89,1.39-2.87,2.6-2.02l.08.1Z"/>
  <path class="st0" d="M658.99,515.99c-13.63-2.67-21.8,6.25-26.01,18-10.93-14.05,17.21-37,26.01-18Z"/>
  <path class="st5" d="M449.89,546.81c-.28.26-1.04-.23-2.13-1.15-15.35-14.84-38.45-10.85-55.8-.96-2.76,1.07-2.11-.7-.81-2.59,13.97-18.65,46.3-23.82,57.36.06.6,1.15,1.83,3.97,1.42,4.61l-.03.04Z"/>
  <path class="st2" d="M182,498.04c-.55.49-1.77.22-3.52-.59-1.93-.89-4.84-2.63-7.15-3.81-6.25-3.31-13.13-4.72-20.13-4.3-3.87.19-7.72,1.18-11.33,2.5-1.94.5-7.87,3.51-8.28.8.23-2.8,3.53-6.31,5.92-8.3,11.25-9.2,29.4-6.67,39.55,4.18,1.89,2.14,6.18,7.06,4.97,9.48l-.04.04Z"/>
  <path class="st4" d="M817.2,435.47c-30.86,5.09-54.92,32.69-56.42,64.05-.44,4.27-1.58-.91-1.92-2.39-9.71-41.85,42.75-81.54,79.33-62.28-.62.71-2.33.46-3.35.54-5.89-.04-11.82-.72-17.44.04l-.2.03Z"/>
  <path class="st1" d="M965.61,419.56c-40.56,5.99-51.26,35.49-48.06,72.68.05.84.02,1.38-.16,1.32-19-37.55,3.56-82.04,48.23-74.03v.04Z"/>
  <path class="st2" d="M108.69,365.06c-.56-.43.24-3.08.41-4.19,5.45-24.35-8.63-48.57-33.35-53.51-1.83-.62-2.96-1.26-1.79-2,30.1-5.97,53.73,31.03,37.67,56.25-.56,1.03-2.34,3.63-2.9,3.47l-.04-.02Z"/>
  <path class="st3" d="M43.01,241.99c-.27-1.67,2.44-1.09,3.52-1.03,26,1.61,43.38.9,63.99-16.93,22.71-19.65,28.31-45.73,24.48-74.54-.28-2.11.77-1.84,1.51-.5,6.13,11.26,5.08,32.05,2.2,44.22-10.2,42.96-55.15,62.97-95.7,48.78Z"/>
</svg>