<?xml version="1.0" encoding="UTF-8"?>
<svg id="Calque_2" data-name="Calque 2" xmlns="http://www.w3.org/2000/svg" viewBox="0 0 225.21 266.68">
  <defs>
    <style>
      .cls-1 {
        fill: #52bcbc;
      }
    </style>
  </defs>
  <g id="Calque_1-2" data-name="Calque 1">
    <path class="cls-1" d="M166.38,25.53c41.86,34.53,66.32,74.79,56.77,131.29-19.21,113.66-159.59,156.08-214.1,44.83-.26-.53-3.47-9.26-3.73-10.11-8.53-27.16-5.62-46.69.51-74.04C16.46,70.04,40.96-.69,100.77,4.09c1.02.08-.03-3.86,3.78-4.03,23.45-1.03,44.83,11.45,61.83,25.47ZM137.63,20.28c-.55-3.27-3.84-3.67-6.4-4.58-21.25-7.5-56.3-1.32-72.22,14.97-1.71,1.75-4.4,1.66-3.36,5.62,14.38,1.54,7.66-2.16,9.03-4.06,3.49-4.85,21.77-4.43,27.52-6.03,7.9-2.2,20.32-6.42,30.72-7.22,4.25-.33,9.89,2.48,14.71,1.29ZM143.62,20.32h-3.98v1.96h3.98v-1.96ZM189.61,106.3c-1.97-21.7-26.35-57.2-45.34-67.64-17.88-9.83-34.23-5.85-52.62-.34l20.86,2.1c23.2,6.5,46.76,19.35,61.12,38.88,6.16,8.39,9.32,19.12,15.98,27ZM51.63,54.3c-.45.41-11.85,4.13-7.99,7.99s7.37-7.16,7.99-7.99c.37-.49,6,1.68,3.98-6-3.49-.07-3.35,5.44-3.98,6ZM70.32,60.99c-15.61,14.03-26.02,57.57-22.22,77.84,11.35,60.54,98.57,98.57,131.61,36.54,12.59-23.65,4.08-57.42-8.38-79.77-16.73-30.01-70.02-62.47-101-34.61ZM210.38,107.71c-3.46-4.85-7.15-21.03-7.73-27.37l-4.64,2.83c2.08,13.4,10.52,25.43,9.63,39.12,8.34,1.34,1.87-7.64,1.88-10.88l4.1-1.14c.85-3.08-2.47-1.49-3.24-2.56ZM36.63,86.3v2c1.3-.67,1.3-1.33,0-2ZM35.62,90.31c-2.85-3.28-3.6,1.29-4.57,2.52-6.84,8.68-14.07,24.56-4.4,33.45,7.27-.93-3.17-12.54,4.99-12.94l-4.01-7.02,8.01-.03-3.97-2.95c2.29-2.28,2.04-5.71,5.95-5.07.94-3.46-3.03-1.21-3.83-2.09-.63-.69,2.62-4.98,1.84-5.87ZM72.94,195c-1.76-1.44-4.83-1.15-7.36-3.61-14.98-14.58-29.2-46-27.97-67.08-2.84-.44-3.13,5.55-3.41,7.55-4.38,31.59,15.14,73.56,42.46,90.41,20.43,12.6,38.03,11.02,60.98,8.02l-2.02-3.97c10.01,1.54,15.21-6.8,21.97-13.04-30.31,5.5-55.2,5.04-80.71-13.31-2-1.44-2.51-3.79-3.94-4.96ZM18.44,171.69l-4.84-27.38c-3.5-.46-1.87,4.53-1.98,6.97-3.1,69.66,71.43,130.54,135.99,94.02-1.83-2.32-5.46.99-8.5.64-3.41-.4-6.82-3.35-8.58-3.6-.92-.13.02,3.77-3.77,4.18-33.15,3.57-83.08-19.93-98.15-50.19-2.77-5.55-8.89-20.34-10.17-24.62ZM201.62,166.31c-2.18-2.18-6.16,1.8-3.98,3.98s6.16-1.8,3.98-3.98ZM197.62,174.31l-9.39,10.52c-.54,4.81-3.32,13.29-5.71,17.3-2.23,3.73-7.41,5.16-6.89,10.16,6.12,6.29,23.37-33.05,21.98-37.98Z"/>
  </g>
</svg>