<?xml version="1.0" encoding="UTF-8"?>
<svg id="Calque_2" data-name="Calque 2" xmlns="http://www.w3.org/2000/svg" viewBox="0 0 91.84 110.41">
  <defs>
    <style>
      .cls-1 {
        fill: #52bcbc;
      }
    </style>
  </defs>
  <g id="Calque_1-2" data-name="Calque 1">
    <g>
      <path class="cls-1" d="M63.24,21.23c4.76-5.3,14.68-6.04,20.9-3.14,13.71,6.42,9.23,39.83-14.38,36.44-16.21-2.33-15.07-23.78-6.52-33.3Z"/>
      <path class="cls-1" d="M30.03,65.17c7.7,9.28,2.68,32.41-13.94,31.02-25.58-2.14-17.21-38.2,1.23-37,2.52.16,11.22,4.18,12.71,5.99Z"/>
      <path class="cls-1" d="M11.11,32.13c-5.49-4.71-2.62-24.77,4.07-28.94,24.85-15.47,36.91,30.35,8.36,31.5-2.56.1-10.83-1.18-12.44-2.56Z"/>
      <path class="cls-1" d="M83.97,83.24c10.54,11.53-.54,27.44-14.41,27.16-15.85-.32-23.48-34.16,4.05-31.96,3.18.25,8.25,2.5,10.35,4.8Z"/>
    </g>
  </g>
</svg>