<?xml version="1.0" encoding="UTF-8"?>
<svg id="Calque_2" data-name="Calque 2" xmlns="http://www.w3.org/2000/svg" viewBox="0 0 309.92 144.32">
  <defs>
    <style>
      .cls-1 {
        fill: #52bcbc;
      }
    </style>
  </defs>
  <g id="Calque_1-2" data-name="Calque 1">
    <path class="cls-1" d="M173.38,121.27c-9.06,7.17-22.6,14.64-34.42,14.59-9.32-.04-33.29-11.97-35.63-11.57-5.82.99-22.41,17.88-36.31,19.63C33.7,148.12,7.14,118.82.85,87.99c-3.03-14.86,2.57-51.26,8.73-65.51C12.18,16.46,21.14-.31,28.73,2.03c7.97,2.46-1.39,12.06-3.15,16.45-11.25,28.1-16.36,67.8,3.34,93.44,19.41,25.26,40.02,21.6,62.93,2.67-4.29-12.22-13.38-25.17-15.4-38.19-3-19.29-.42-42.75,9.14-59.9,6.57-11.79,18.73-21.7,32.23-13.46,18.69,11.4,15.96,51,11.92,69.61-1.87,8.6-13.9,31.59-13.67,36.32.53,10.85,24.95,11.61,33.69,7.7,3.13-1.4,17.06-11.54,17.87-14.19,3.04-9.89-4.95-20.47-6.71-28.54-3.78-17.41-.58-68.09,27.58-59.67,14.69,4.39,16.95,29.57,15.27,42.44-1.21,9.26-12.47,33.93-11.85,40.12.79,7.9,21.93,15.42,29.56,13.75,23.88-5.24,10.36-20.17,8.69-33.92-1.49-12.29.64-21.41,8.67-30.88,12.93-15.26,31.5-2.33,31.17,15.02-.07,3.45-1.76,16.35-2.6,19.56-1.18,4.54-6.75,10-7.45,14.71-1.89,12.66,20.63,16.27,30.52,14.34,4.82-.94,19.02-11.17,19.41,1.43.57,18.42-36.66,15.58-48.53,10.64-6.38-2.65-9.32-8.67-16.3-7.66-4.43.64-8.84,7.92-16,10.19-11.89,3.77-27.29,1.06-38.6-3.63-3.36-1.39-5.89-6.56-9.51-6.58-5.11-.03-5.35,5.71-7.59,7.48ZM117.49,67.5c.72-1.68.54-32.16-.04-36.11-4.26-28.86-19.47-16.73-24.57,4.38-5.3,21.91-3.11,48.49,12.11,66.09,1.75-8.05,6.26-15.72,8.54-23.47,1.95-6.65,2.18-6.69,3.97-10.89ZM177.97,36.87c-1.91,9.07,0,31.14,0,42,0,.84,3.17,4.38,5.03,1.03,3.33-5.98,8.39-45.9,2.95-50.02-3.51-1.1-7.52,4.81-7.98,6.99ZM253.96,53.88c-13.24,1.02-9.24,21.96-4.98,29.98l4.98-29.98Z"/>
  </g>
</svg>