<?xml version="1.0" encoding="UTF-8"?>
<svg id="Calque_2" data-name="Calque 2" xmlns="http://www.w3.org/2000/svg" viewBox="0 0 168.29 396.83">
  <defs>
    <style>
      .cls-1 {
        fill: #eda354;
      }
    </style>
  </defs>
  <g id="Calque_1-2" data-name="Calque 1">
    <path class="cls-1" d="M126.65,72.95c.75.13,12.88,5.22,14.07,5.93,2.74,1.66,12.82,13.18,13.83,16.15,8.31,24.27-16.8,36.2-37.48,31.5-3.76-.86-27.56-16.75-30.81-20.18-2.99-3.15-2.04-10.91-9.15-9.1-1.54.39-14.05,9.07-15.49,10.67-9.15,10.17-13.19,34.74-11.93,48.02,2.04,21.53,9.71,9.31,19.97,6.02,21.1-6.75,42.98-4.52,60.01,9.97,24.81,21.11,8.61,43.62-19.28,46.73-12.82,1.43-26.79-3.35-38.09-9.36-5.14-2.73-19.51-15.12-23.24-14.15-13.49,11.47-27.56,32.96-29.38,50.82-.97,9.46-.72,38.47,13.46,31.46,8.33-4.12,13.69-13.22,25.42-16.58,23.48-6.73,63.34,8.33,53.19,37.2-8.66,24.61-46.47,25.55-66.9,16.71-6.35-2.75-12.69-13.83-18.23-7.85-1.13,1.22-9.96,28.26-10.47,31.51-1.93,12.21.3,26.95,8.64,36.4,4.23,4.8,17.74,10.67,18.65,13.41,5.27,15.93-20.7,6.15-27.78-.84-21.5-21.21-18-54.43-6.38-79.84,2.17-4.74,8.15-7.86,8.43-13.78.23-5-7.74-14.24-10.09-19.77-11.03-25.99.77-52.65,15.28-74.82,2.77-4.24,15.92-17.45,16.48-19.63.66-2.62-7.65-27.32-7.83-35.57-.47-20.75,13.99-43.73,29.12-57.03,3.7-3.25,11.86-5.25,13.98-10.02,2.25-5.08.3-11.1,1.5-16.5,5.12-23.09,23.94-47.06,46.15-55.85,12.86-5.09,36.95-9.19,44.33,6.42,8.1,17.13-15.35,2.36-19.87,2.21-23.06-.79-57.34,35.72-55.08,59.74,10.66,1.28,24.89-1.75,35,0ZM135.04,91.57c-8.22-7.31-40.43-7.46-41.44-1.54-1.52,8.87,25.57,23.91,33.36,24.33,13.87.76,18.76-13.29,8.09-22.79ZM65.67,180.99c-5.86,8.46,25.12,20.5,31.45,21.47,44.57,6.83,30.03-30.34-1.96-28.98-3.26.14-28.63,6.26-29.49,7.51ZM95.06,296.39c8.76-10.61-3.99-21.79-14.55-23.32-17.81-2.59-28.1,9.99-42.85,15.91,7.76,18.16,45.56,21.77,57.41,7.41Z"/>
  </g>
</svg>