<?xml version="1.0" encoding="UTF-8"?>
<svg id="Calque_2" data-name="Calque 2" xmlns="http://www.w3.org/2000/svg" viewBox="0 0 250.85 128.92">
  <defs>
    <style>
      .cls-1 {
        fill: #eda354;
      }
    </style>
  </defs>
  <g id="Calque_1-2" data-name="Calque 1">
    <path class="cls-1" d="M244.64,122.63c-31.56,2.96-63.12,1.46-94.76,2.24-37.43.91-75.85,1.24-114,2.01-6.52.13-32.38,6.27-34.94-3.34-4.18-15.66,6.65-54.14,15.2-68.4C53.37-7,163.87-20.2,212.9,34c13.13,14.51,34.06,51.55,37.65,70.48,1.6,8.41-3.62,10.81-5.92,18.15ZM10.96,116.94c29,2.28,34.08-7.44,2.01-10l-2.01,10ZM44.94,110.96l-5.98.98c1.82,2.12,3.03,3.65,5.98,3v-3.98Z"/>
  </g>
</svg>