<?xml version="1.0" encoding="UTF-8"?>
<svg id="Calque_2" data-name="Calque 2" xmlns="http://www.w3.org/2000/svg" viewBox="0 0 137.05 223.21">
  <defs>
    <style>
      .cls-1 {
        fill: #52bcbc;
      }
    </style>
  </defs>
  <g id="Calque_1-2" data-name="Calque 1">
    <path class="cls-1" d="M136.74,221.98c-1.41,2.25-30.04.83-34.75.23-29.49-3.8-75.36-27.56-89.38-54.62C-21.84,101.15,18.64,35.32,81.6,7.86c12.5-5.45,45.98-16.18,49.24,3.5,5.78,34.85,1.26,71,6.21,105.79l-.32,104.84ZM118.96,12.23h-7.98c.66,13.69,9.4,16.47,7.98,0ZM94.64,174.57c-.27-.45-5.74-2.57-6.46-2.49-1.55.17-1.54,3.76-3.25,5.03-2.24,1.66-6.48-.36-5.94,3.09,5.12-1.03,18.18,13.08,21.98,10.01,3.76-3.04-4.98-4.84-5.71-7.27-.78-2.58.48-6.57-.61-8.37Z"/>
  </g>
</svg>