<?xml version="1.0" encoding="UTF-8"?>
<svg id="Calque_2" data-name="Calque 2" xmlns="http://www.w3.org/2000/svg" viewBox="0 0 219.56 230.98">
  <defs>
    <style>
      .cls-1 {
        fill: #eda354;
      }
    </style>
  </defs>
  <g id="Calque_1-2" data-name="Calque 1">
    <path class="cls-1" d="M193.7,36.56c24.17,25.51,32.95,58.26,19.67,92.19-2.93,7.5-8.72,12.57-11.86,22.14-6.4,19.49-4.69,35.56-19.51,52.54-26.56,30.43-71.11,35.69-105.75,15.57-6.74-3.92-12.5-11.35-18.65-15.35-21.97-14.3-40.22-18.16-51.04-44.96C.46,143.64-1.68,122.76,1.39,106.78c3.96-20.57,40.13-73.32,56.58-87.42C98.54-15.43,159.59.56,193.7,36.56ZM198.9,117.31c3.44-3.33,2.92-35.86,1.52-42.49C190.95,30.08,124.92,1.61,84.83,20.22c-3.54,1.64-22.94,15.87-23.89,18.12-2.72,6.45,13.23-2.12,15.46-2.55,8.95-1.72,24.54-3.25,33.51-2.45,37.29,3.33,69.43,48.54,84.49,79.58.54,1.12.67,8.09,4.49,4.38ZM96.85,87.2c5.15-7.53-15.01-7.66-22.85,4.18-3.52,5.31-7.95,26.73-2.92,29.82,7.47,4.6,5.4-6.11,6.73-10,.31-.89,8.54-15.6,9.15-16.44,1.86-2.58,9.54-7.05,9.89-7.57ZM148.23,96.02c-2.36-2.86-9.86-7.1-11.06-1.56-1.13,5.21,3.82,21.8-.84,29.25l-15.38,27.59c18.35-5.39,41.01-38.62,27.29-55.29ZM108.5,95.81c-10.2-4.46-23.21,22.82-21.56,31.49,13.34.28,27.37-11.01,26.18-25.02-.1-1.13-4.25-6.32-4.62-6.48ZM174.9,97.32c-4.06-3.97-5.81,9.65-5.83,11.3-.1,7.22,3.24,14.77,3.44,21.7.24,7.87-2.43,20.74-3.58,28.97l11.95-11.04c8.85-8.94,6.58-18.46,3.46-29.36-.75-2.62-8.6-20.76-9.44-21.58ZM160.92,129.32c-5.18-1.2-3.49,1.53-5.15,3.78-15.13,20.48-17.12,19.02-37.29,32.32-.98.64-5.17,4.42-5.54,5.87,22.41,4.25,48.16-19.68,47.98-41.97ZM68.33,163.86c-1.32-1.13-4.74-.95-6.35-2.51l-27.04-24.03c.58,14.68,9.28,35.12,25.52,37.65,8.39,1.31,13.55-6.27,7.87-11.11ZM184.92,165.32c-8.64,3.01-12.81,11.05-20.98,16-12.81,7.77-43.46,20.54-58.03,21.54-7.81.54-19.05-2.85-26.97-.56,37.83,31.07,98.05,13.18,105.98-36.98ZM118.93,185.33c-18.13-2.17-34.87-2.15-53.04-.03-2.83.33-5.7,1.11-2.95,3.98,3.2,3.34,52.8,6.18,55.99-3.95Z"/>
  </g>
</svg>