<?xml version="1.0" encoding="UTF-8"?>
<svg id="Calque_2" data-name="Calque 2" xmlns="http://www.w3.org/2000/svg" viewBox="0 0 426.48 143.34">
  <defs>
    <style>
      .cls-1 {
        fill: #52bcbc;
      }
    </style>
  </defs>
  <g id="Calque_1-2" data-name="Calque 1">
    <path class="cls-1" d="M252.7,20.21c1.43-2.22,10.28-11.11,12.7-12.28,10.61-5.14,28.06-3.12,34.43,7.18,3.26,5.28,11.67,28.29,2.13,28.39v1.95c11.27.21-5.36,12.19,3.89,12.87-4,9.96-6.81,22.17-13.04,31.03-4.4,6.26-18.32,16.84-20.79,23.23-.92,2.38,6.62,7.03,8.12,7.7,28.68,12.96,57.29-7.03,65.66-34.59-18.55-5.5-26.34-36.02-9.3-46.67,24.51-15.32,33.4,15.35,31.45,34.47,6.39,6.21,41.51-22.01,47.2-28.04,34.71,8.68-20.09,38.74-32.84,43.39-4.27,1.56-20.84,4.18-21.92,5.09s-8.98,18.38-13.42,23.57c-18.44,21.56-44.1,29.7-70.76,18.72-4.8-1.98-15.65-10.78-17.23-10.77-1.71,0-23.62,13.5-30.53,15.54-23.23,6.86-42.93-2.13-61.51-15.49-28.2,20.28-65.53,26.67-91.97.44-18.05,13.06-32.08,19.29-55.14,14.65-8.88-1.79-12.73-7.12-19.81-11.19,1.77-12.42,12-2.52,17.93-.94,19.55,5.19,31.52-1.15,47.97-11.05-1.54-7.07-7.63-12.09-9.77-19.12-5.6-18.4-1.07-52.59,18.01-61.59,29.35-13.85,42.59,27.05,31.28,49.27l-21.47,33.48c17.87,10,33.43,14.09,53.33,6.38,3.31-1.28,14.78-7.2,16.62-9.36,6.09-7.14-1.49-9.64-3.51-14.44-3.14-7.48-8.76-22.14-10.25-29.74-4.38-22.33,3.89-61.1,27.4-70.19,19.15-7.41,37.57,5.96,41.92,24.85,3.88,16.83-3.03,44.86-11.13,59.94-3.22,6-21.44,25.72-20.35,29.46,1.19,4.08,28.27,12.52,33.51,12.66,6.96.18,34.25-10.79,36.24-16.87,1.86-5.68-4.02-10.86-5.27-16.17-5.88-24.82-3.87-53.78,10.25-75.74ZM170.74,98.35c18.02-15.4,33.12-54.28,21.59-76.28-14.07-26.86-36.18,3.13-38.4,22.39-1.15,9.93,2.58,56.74,15,57.04,1.49-.15.79-2.29,1.81-3.16ZM259.96,101.47c14.67-13.49,28.17-31.15,32.08-51.04,6.93-35.18-20.57-43.93-32.67-8.52-6.64,19.42-8.19,40.5.58,59.55ZM73.95,107.47c4.31,4.05,18.98-22.56,20.31-26.67,1.44-4.42,4.37-18.16,3.71-22.23-.38-2.33-7.58-12.37-9.35-12.9-11.82-3.53-20.81,16.03-22.2,25.27-2.21,14.74,2.24,23.72,7.53,36.53ZM353.92,73.46c-.24-11.15,3.83-25.65-11.98-24-.69,10.53-1.11,22.81,11.98,24Z"/>
  </g>
</svg>