<?xml version="1.0" encoding="UTF-8"?>
<svg id="Calque_2" data-name="Calque 2" xmlns="http://www.w3.org/2000/svg" viewBox="0 0 499.05 165.04">
  <defs>
    <style>
      .cls-1 {
        fill: #52bcbc;
      }
    </style>
  </defs>
  <g id="Calque_1-2" data-name="Calque 1">
    <path class="cls-1" d="M362.87,124.1c16.84,8.26,25.97,11.13,43.82,3.13,23.11-10.35,4.51-21.53,2.26-40.19-.67-5.52-.89-13.97.23-19.32.33-1.59,10.58-23.51,11.48-24.52,1.54-1.74,17.29-10.73,19.16-10.92,6.05-.62,20.36,6.87,24.04,11.86,9.43,12.8,5.11,37-2.35,49.91-3.78,6.55-21.18,22.06-17.88,28.23,3.87,7.25,20.51,7.03,27.66,5.55,5.13-1.07,24.08-14.1,27.29-4.31,5.07,15.44-32.1,19.76-42.38,18.27-6.95-1-26.66-11.29-28.17-11.16-2.51.22-16.23,9.78-22.2,11.75-12.77,4.21-24.04,5.2-36.89.68-5.27-1.86-16.09-10.6-19.2-10.7-3.59-.12-21.96,13.77-28.5,15.44-20.1,5.14-43.9-9.58-61.64-17.56-16.38,16.2-38.37,32.56-63.32,27.48-13.58-2.77-16.8-10.51-25.65-16.32-11.23-7.36-19.05,8.04-29.43,14.35-15.85,9.63-27.03,11.84-44.91,6.36-.64-.2-10.3-4.16-11.6-4.76-16.37-7.56-23.41-18.75-30.14-34.95-2.16-1.52-30.24,19.79-47.16,14.23-22.14-7.28,12.06-8.47,16.77-9.92,4.35-1.33,21.86-12.83,23.54-16.46,3.35-7.23-2.3-18.89-2.94-27-2.26-28.34,13-92.19,52.55-80.55,12.64,3.72,11.75,33.89,8.89,44.06-1.97,7-14.36,30.83-18.65,37.35-12.94,19.67-33.52,21.89-12.77,47.12,11.03,13.41,26.25,22.18,43.97,18.07,7.88-1.83,31.98-15.8,35.05-23.07.97-2.3-13.45-37.42-14.79-47.21-3.24-23.72,7.41-77.66,38.82-76.44,13.13.51,30.9,24.65,30.91,36.69.03,23.38-6.79,42.07-17.62,62.41-5.84,10.97-21.7,21.25-8.26,31.48,17.51,13.33,36.26,9.73,53.36-2.38,22.93-16.23,5.34-18.18-.92-36.06-9.09-25.92-6.33-60.03,10.46-82.41,13.54-18.07,39.91-16.77,46.42,7.52,4.96,18.49,2.75,49.08-4.05,66.85-2.1,5.47-17.52,28.22-17.18,30.31.65,4.01,20.99,13.97,25.24,14.84,9.16,1.89,35.38-.54,38.28-10.97,1.12-4.01-7.81-23.07-9.67-29.84-5.72-20.77-5.87-48.81,10.86-64.81,14.35-13.72,36.46-11.82,48.78,3.36,10.48,12.91,7.14,45.5.67,60.09-3.15,7.09-25.99,29.23-22.23,34.45ZM58.74,96.26c4.76,4.95,22.59-22.27,24.83-26.15,5.25-9.1,15.32-32.99,14.83-42.96-1.36-28.27-24.12-12.06-32.04,3.76-10.24,20.47-9.55,43.21-7.63,65.35ZM262.64,104.21c1.28-.86,12.08-24.84,13.08-27.95,4.68-14.61,8.69-44.74-.09-57.87-4.44-6.64-8.61-4.03-13.89-.11-16.03,11.89-20.03,43.4-16.02,62.02,1,4.65,10.37,28.34,16.93,23.91ZM168.69,112.26c13.35-24.01,30.69-50.93,23.1-80.05-1.23-4.73-8.95-15.46-14.13-16-20.98-2.18-26.25,48.48-24.4,62.55.6,4.55,9.05,37.95,15.43,33.5ZM354.2,30.62c-23.51,4.86-20.87,58.83-9.22,74.39,5.8,7.75,13.05-2.37,17.8-7.69,10.29-11.52,19.24-37,13.41-51.53-3.49-8.69-11.94-17.26-22-15.17ZM428.74,106.28c19.19-.55,37.95-51.64,16.55-57.67-24.4-6.88-21.91,44.52-16.55,57.67Z"/>
  </g>
</svg>