<?xml version="1.0" encoding="UTF-8"?>
<svg id="Calque_2" data-name="Calque 2" xmlns="http://www.w3.org/2000/svg" viewBox="0 0 150.94 189.03">
  <defs>
    <style>
      .cls-1 {
        fill: #52bcbc;
      }
    </style>
  </defs>
  <g id="Calque_1-2" data-name="Calque 1">
    <path class="cls-1" d="M139.6,1.56l-3.82,15.81c14.35.28,18.62,1.62,12.36,15.38-5.71,12.54-48.13,55.68-48.32,61.58s26.11,33.04,31.24,39.77c1.28,1.67,1.29,4.45,2.68,6.24,5.84,7.54,20.41,17.71,15.04,29.01-5.14,10.81-11.79-5.03-15.95-3.97-1.87.48-7.23,13.96-15.03,9.09-2.53-1.58-22.23-31.72-28.07-38.03-4.81-5.2-13.79-18.06-20.04-10.13l-25.81,38.18c-11.38,1.25-19.86,21.35-26.17,23.99-8.76,3.66-12.54-11.58-11.91-17.91.16-1.6,7.73-20.72,8.98-23.17,4.75-9.32,14.51-21.79,21.04-30.4,5.16-6.79,17.53-13.79,16.04-24.48-.5-3.6-26.83-29.39-32.06-36.15-4.42-5.72-14.91-20.11-18.08-25.92-3.97-7.25-.88-9.63,7.16-9.27,4.71.21.93,5.84,6.88,4.2-.06-20.42,12.93-14.83,23.31-3.19,9.01,10.09,19.27,29.23,29.65,39.24,1.58,1.53,3.15,4.27,5.77,3.81,3.3-.58,33.12-37.9,38.16-43.97,6.63-7.99,13.6-26.76,26.94-19.7Z"/>
  </g>
</svg>