<?xml version="1.0" encoding="UTF-8"?>
<svg id="Calque_2" data-name="Calque 2" xmlns="http://www.w3.org/2000/svg" viewBox="0 0 204.22 242.85">
  <defs>
    <style>
      .cls-1 {
        fill: #eda354;
      }
    </style>
  </defs>
  <g id="Calque_1-2" data-name="Calque 1">
    <path class="cls-1" d="M64.81,118.51c6.03-5.76,16.39-7.44,21.48.25,4.18,6.3-4.31,10.24-5.75,16.47-6.76,29.24,39.85,29.59,45.09-.9,7.16-41.62-30.16-59.51-65.95-47.96-29.7,9.58-40.67,63.63-28.7,89.57,8.68,18.79,27.55,34.55,48.35,37.65,47.01,7.01,71.95-7.31,88.22-51.34,13.17-35.65,13.96-61.68-3.08-95.81-16.62-33.29-67.91-49.75-103.33-46.6-8.92.79-30.08,10.05-35.05,7-9.52-5.85.91-12.47,6.6-15.45,56.14-29.38,143.03.4,162.87,61.96,15.77,48.92,12.05,97.92-28.46,132.46-30.43,25.96-65.74,48.74-106.37,30.37C25.35,220.19-1.1,184.57.04,144.73,1.41,96.51,45.3,49.75,96.22,60.71c15.51,3.34,47.65,32.58,49.31,48.36.47,4.51-.85,28.36-1.6,33.58-2.31,16.27-25.13,36.52-40.94,39.04-21.26,3.39-49.64-13.35-49-36.79.16-5.86,6.6-22.35,10.81-26.39Z"/>
  </g>
</svg>