<?xml version="1.0" encoding="UTF-8"?>
<svg id="Calque_2" data-name="Calque 2" xmlns="http://www.w3.org/2000/svg" viewBox="0 0 71.38 267.85">
  <defs>
    <style>
      .cls-1 {
        fill: #eda354;
      }
    </style>
  </defs>
  <g id="Calque_1-2" data-name="Calque 1">
    <g>
      <path class="cls-1" d="M17.92,256.56c-6.31-6.93-5.89-24.86-4.58-34.16,3.94-28.11,60.27-23.78,57.97,15.93-1.77,30.55-34.72,38.71-53.38,18.22Z"/>
      <path class="cls-1" d="M58.57,154.64c-10.76,12.71-26.41,13.6-39.4,3.68-36.34-27.75,6.48-76.04,37.05-45.05,8.91,9.03,10.22,32.08,2.35,41.37Z"/>
      <path class="cls-1" d="M11.81,58.66c-.56-.39-7.56-9.68-8.14-10.85C-12.74,14.67,29.95-21.22,52.05,15.43c10.17,16.86,8.39,31.56-8.93,42.74-8.03,5.19-23.64,5.81-31.31.49Z"/>
    </g>
  </g>
</svg>