<?xml version="1.0" encoding="UTF-8"?>
<svg id="Calque_2" data-name="Calque 2" xmlns="http://www.w3.org/2000/svg" viewBox="0 0 200.8 111.87">
  <defs>
    <style>
      .cls-1 {
        fill: #52bcbc;
      }
    </style>
  </defs>
  <g id="Calque_1-2" data-name="Calque 1">
    <path class="cls-1" d="M4.27,109.52c-10.55-6.2,1.16-46.69,6.2-56.14C37.49,2.71,131.26-21.23,173.02,23.78c12.94,13.95,32.83,56.12,26.59,74.75-1.83,5.47-20.72,7-26.59,7.41-24.5,1.71-51.11-1.62-76.06-.06-24.88,1.55-50.31,7.32-75.76,5.71-2.64-.17-16.2-1.63-16.94-2.06ZM157.17,28.7c-32.21-24.75-71.61-19.08-103.86-.49C28.77,42.35,11.73,68.94,11.96,97.85c22.53-8.12,47.69-3.06,71.08-3.92,29.93-1.1,60-4.44,89.91-6.26,5.95-.36,13.09,6.28,13.09-4.72,0-13.92-17.7-45.66-28.87-54.25Z"/>
  </g>
</svg>