<?xml version="1.0" encoding="UTF-8"?>
<svg id="Calque_2" data-name="Calque 2" xmlns="http://www.w3.org/2000/svg" viewBox="0 0 205.17 197.52">
  <defs>
    <style>
      .cls-1 {
        fill: #52bcbc;
      }
    </style>
  </defs>
  <g id="Calque_1-2" data-name="Calque 1">
    <path class="cls-1" d="M184.09,152.96c-32.6,39.02-86.33,61.53-132.17,28.84C-4.45,141.6-21.91,76.55,34.91,26.77c92.57-81.1,221.32,39.85,149.18,126.18ZM144.17,133.06c18.41-21.32,26.18-62.72-.58-80.92-9.05-6.15-38.85-12.65-49.51-12.2-32.83,1.37-49.85,67.59-34.05,91.77,19.79,30.31,62.14,26.83,84.14,1.36ZM98.92,165.82c-12.66,0-22.08-8.22-33.95-11.04,4.74,8.89,17.27,12.56,26.91,13.09,2.2.12,7.56,1.31,7.04-2.04Z"/>
  </g>
</svg>