<?xml version="1.0" encoding="UTF-8"?>
<svg id="Calque_2" data-name="Calque 2" xmlns="http://www.w3.org/2000/svg" viewBox="0 0 519.83 189.82">
  <defs>
    <style>
      .cls-1 {
        fill: #52bcbc;
      }
    </style>
  </defs>
  <g id="Calque_1-2" data-name="Calque 1">
    <path class="cls-1" d="M439.55,54.29l-44.95,98.07c-1.92,3.24-12.38,18.84-14.41,19.59-10.22,3.79-7.68-2.66-9.82-5.4-14.05-18-29.57-43.38-40.5-63.6-2.75-5.09-11.19-34.57-18.32-28.66l-43.12,105.89c-12.3,13.35-18.45-10.05-27.34-16.4l-41.08-84.91c-4.12-8.24-4.43,1.43-6.05,4.78-8.25,17.06-16.76,34.12-24.81,51.25-5.39,11.47-17.44,48.33-27.63,54.49-1.84,1.11-6.64-.17-8.38-1.19-2.24-1.31-22.3-39.74-25.02-45.5-5.81-12.31-9.36-25.61-14.53-37.47-2.94-6.75-14.09-33.17-17.15-36.85-1.93-2.32-2.84-2.49-5.87-2.18L15.24,183c-16.02,15.18-9.33-3.6-10.26-9.44-.37-2.33-3.81-4.67-4.68-7.24-2.23-6.66,8.35-19.88,11.54-26.71,15.28-32.67,30.12-70.56,48.9-101.1,2.8-4.56,9.33-13.87,15.47-12.05,21.48,35.21,39.1,73.49,59.51,109.63l5.75.18c9.96-29.52,22.02-58.7,37.01-86.02,1.93-3.51,13.76-24.23,15-25,3.56-2.22,9.53-1.5,12.15,1.94,6.74,12.44,14.49,24.42,20.99,37,2.41,4.67,27.59,64.3,30.88,62.09,13.9-28.27,25.61-58.39,41.24-85.78,1.89-3.31,13.98-23.06,15.2-23.76,2.37-1.37,10.89-1.12,12.68,1.45l45.88,102.08c19.29-35.68,36.59-72.96,59.37-106.64,4.63-6.84,11.12-18.67,20.62-11.31,3.17,11.68,13.47,21.62,18.5,31.48,10.3,20.19,46.76,102.99,48.53,121.47.61,6.4,1.16,16.01-7.37,16.69-10.89.88-43.84-60.6-49.41-71.91-5.88-11.94-11.09-31.86-17.7-42.3-1.57-2.48-1.86-4.22-5.5-3.48Z"/>
  </g>
</svg>