<?xml version="1.0" encoding="UTF-8"?>
<svg id="Calque_2" data-name="Calque 2" xmlns="http://www.w3.org/2000/svg" viewBox="0 0 256.72 267.43">
  <defs>
    <style>
      .cls-1 {
        fill: #52bcbc;
      }
    </style>
  </defs>
  <g id="Calque_1-2" data-name="Calque 1">
    <path class="cls-1" d="M92.17,76.78c-23.18,20.85-33.08,53.89-24.14,83.72,11.25,37.52,40.55,57.71,79.84,46.98,16.09-4.39,42.34-26.3,45.12-42.88,2.12-12.67-2.53-34.71-9.86-45.19-12.38-17.7-37.37-22.79-56.2-12.87-19.1,10.07-22.9,46.73,4.03,49.17,9.18.83,16.74-9.48,17.76-9.68,18-3.48,1.51,20.38-12.46,22-24.87,2.88-46.53-24.44-40.31-48.47,1.94-7.49,21.29-25.71,28.45-29.55,25.92-13.92,53.67.98,69.9,22.23,52.03,68.12-51.63,146.44-112.66,94.66-62.92-53.38-27.97-153.07,51.24-163.94,65.23-8.96,120.38,37.73,123.83,103.12.19,3.55-.77,18.93-1.15,23.08-3.97,42.74-41.6,77.56-81.01,90.98-50.07,17.05-97.61,3.23-138.95-31.14C-44.46,151.78,20.92,3.69,128.58.01c7.99-.27,38.1,4.2,37.03,15.04-.9,9.06-11.87.2-19.37-.74C86.89,6.85,29.67,62.34,17.94,117.55c-24.49,115.28,122.57,180.43,197.5,99.5,25.34-27.36,30.02-57.47,21.03-92.99-8.06-31.85-19.35-47.69-50.49-59.51-33.63-12.77-65.88-12.9-93.82,12.23Z"/>
  </g>
</svg>