<?xml version="1.0" encoding="UTF-8"?>
<svg id="Calque_2" data-name="Calque 2" xmlns="http://www.w3.org/2000/svg" viewBox="0 0 142.25 372.04">
  <defs>
    <style>
      .cls-1 {
        fill: #52bcbc;
      }
    </style>
  </defs>
  <g id="Calque_1-2" data-name="Calque 1">
    <path class="cls-1" d="M138.05,9.07c-.22.31-3.63-.05-3.88,1.42,6.18,29.63,3.18,59.87,4.06,89.88,2.48,83.88,7.08,168.45,1.03,252.85-8.45,4.02-2.01,13.58-3.74,16.13-4.99,7.36-57.74-2.47-67.23-5.04-7.12-1.93-36.22-13.63-38.64-19.5s-2.29-16.83.87-22.33c.42-.73,10.82-11.27,11.86-12.07,4.5-3.48,15.75-7.84,17.91-10.14,9.33-9.95-11.71-8.06-18.04-9.92-8.24-2.43-22.39-13.32-23.89-22.2-4.63-27.38,28.93-36.9,46.63-47.18,5.84-3.39,15.21-9.43,3.86-13.22s-26.18-5.46-37.41-8.59c-31.55-8.82-29.61-38.85-1.82-51.57,7.52-3.44,43.22-10.55,44.7-12.33,6.47-7.77-18.72-9.79-23.61-11.37-14.59-4.69-36.91-11.64-46.03-23.88-24.04-32.26,51.97-24.61,57.63-30.76,2.34-2.55-.25-3.53-2.49-4.47-12.69-5.3-23.42-3.44-36.51-13.5C-11.9,24.21,40.35,12.72,62.25,8.22,77,5.18,107.37.22,121.65,0c4.48-.07,19.91,3.98,16.4,9.07ZM67.32,67.29v2c1.3-.67,1.3-1.33,0-2ZM90.29,99.28c7.05-14.65,3.77-18.95-11.99-17.05-5.3,3.29,9.87,18.63,11.99,17.05ZM78.31,231.3c-3.51-3.16-27.56,10.75-23.98,13.98,3.11,2.81,10.87-5.06,13.48-5.63,5.02-1.1,7.61,4.84,10.5-8.35ZM86.31,301.3c-3.95-4.01-12.91,5.6-13.99,9.97.9.67,13.3-1.66,13.75-2.21.58-.71.51-7.48.24-7.76ZM128.3,359.28l-4-20c-5.11.49-3.23,9.05-4.07,9.91-1.45,1.48-17.58-2.6-19.91,3.1,7.39,9.18,17.68-.98,27.97,6.99Z"/>
  </g>
</svg>