<?xml version="1.0" encoding="UTF-8"?>
<svg id="Calque_2" data-name="Calque 2" xmlns="http://www.w3.org/2000/svg" viewBox="0 0 223.22 229.68">
  <defs>
    <style>
      .cls-1 {
        fill: #52bcbc;
      }
    </style>
  </defs>
  <g id="Calque_1-2" data-name="Calque 1">
    <path class="cls-1" d="M174.47,18.97c20.88,15.63,48.36,55.78,48.74,82.4.99,70.28-60.25,131.75-130.75,128.16-9.26-.47-28.52-2.23-27.36-14.19,1.3-13.39,18.84-1.95,27.07-1.11,78.75,8.08,143.84-89.37,97.59-157.47-25.76-37.93-54.55-46.7-99.02-35.9C55.61,29.39,16.94,74.34,17.16,111.25c.41,68.63,88.44,94.71,129.94,41.96,12.76-16.22,19.79-37.98,14.68-58.58-14.54-58.55-102.43-42.29-106.5,14.91-1.6,22.57,17.67,41.04,40.42,36.25,13.34-2.81,21.12-13.54,27.5-24.09.88-1.45,3.84-1.21,3.91-2.64.7-15.71-11.84-34.96-28.66-24.5-16.79,10.44.88,17.96-1.31,31.68-20.61-2.91-28.85-23.49-14.06-39.06,36.25-38.16,85.83,33.36,34.71,64.71-41.53,25.47-84.87-8.16-78.12-54.12,9.17-62.44,123.28-78.73,137.26-2.3,15.92,87.02-91.55,130.42-152.8,74.71C-11.45,137.83-5.58,73.81,28.02,42.13c4.36-4.11,7.3-7.18,11.07-10.84C74.68-3.29,133.33-11.82,174.47,18.97Z"/>
  </g>
</svg>