<?xml version="1.0" encoding="UTF-8"?>
<svg id="Calque_2" data-name="Calque 2" xmlns="http://www.w3.org/2000/svg" viewBox="0 0 159.39 401.7">
  <defs>
    <style>
      .cls-1 {
        fill: #eda354;
      }
    </style>
  </defs>
  <g id="Calque_1-2" data-name="Calque 1">
    <path class="cls-1" d="M142.07,31.62c-10.61,2.28-8.12-4.81-12.04-8.96-4.79-5.07-27.72-9.16-34.96-9.22-21.14-.18-73.14,17.03-76.86,41.3-2.05,13.4,9.71,44.31,26.28,40.39,4.97-1.18,15.98-8.53,19.03-9.14,3.24-.65,6.56,1.96,9.42,1.52,14.78-2.27,25.4-7.79,41.62-1.37,25.39,10.05,25.34,35.35-.51,44.46s-54.86-1.99-76.69-14.77c-9.54,8.6-23.66,19.75-20.91,34.29,1.51,8,23.03,30.45,30.79,31.52,5.15.71,31.46-10.65,42.08-11.77,9.05-.95,30.93-1.52,39.3.21,15.48,3.19,30.99,23.07,14.11,35.2-17.83,12.81-57.11,12.59-77.47,6.16-5.36-1.69-12.84-8.82-17.77-7.55-1.68.43-17.53,16.2-19.41,18.74-12.03,16.37-5.38,33.1,8.01,45.97,16.33,15.7,25.85-4.85,44.34-9.62,6.22-1.6,24.63-5.36,30.62-5.51,20.33-.52,60.58,12.42,44.71,38.86-13.33,22.2-63.57,20.01-85.29,13.9-18.36-5.17-19.99-16.52-35.26,3.53-13.74,18.04-15.61,37.91-.02,55.75,18.3,20.94,68.77,24.7,93.43,15.66,8.98-3.29,14.94-10.19,23.42-11.54,7.53,14.33-12.34,25.55-24.33,28.63-39.34,10.1-105.21-1-117.09-46.2-7.36-28.01,7.61-43.04,21.38-65.24-30.98-25.18-38.5-56.87-7.96-86.31,2.56-2.47,6.91-2.12,6.12-5.89-.51-3.53-15.06-13.54-18.96-19.12-18.19-26.04-13.97-50.3,10.73-69.15C-23.59,56.61,13.78,12.85,69.28,1.81c22.1-4.4,77.18-2.97,72.79,29.81ZM54.08,105.63c7.53,11.97,64.13,18.52,64.07,2.97-.06-17.08-54.11-8.52-64.07-2.97ZM134.07,187.62c-17.9-3.03-37.64-3.99-55.03,1.96-2.23.76-7.25,1.12-6.95,4,12.56,4.67,27.56,5.2,40.95,3.99,2.33-.21,26.47-4.1,21.03-9.95ZM66.07,287.59c1.35,1.45,34.14,6.11,38.99,5.99,8.03-.2,53-5.03,34.96-18.93-12.15-9.36-42.28-5.1-56.28-.4-4.46,1.5-22.4,8.26-17.66,13.33Z"/>
  </g>
</svg>