<?xml version="1.0" encoding="UTF-8"?>
<svg id="Calque_2" data-name="Calque 2" xmlns="http://www.w3.org/2000/svg" viewBox="0 0 353.11 117.41">
  <defs>
    <style>
      .cls-1 {
        fill: #eda354;
      }
    </style>
  </defs>
  <g id="Calque_1-2" data-name="Calque 1">
    <path class="cls-1" d="M352.49,1.97c3.93,4.58-12.05,42.49-14.43,50.22-2.96,9.6-9.45,48.36-18.77,51.21-4.25,1.3-10.11,1.23-13.6-1.63-5.46-4.47-16.06-39.66-22.63-49.36-1.74-2.56-2.27-5.46-6.38-4.6l-19.1,59.89c-2.84,5.04-7.58,4.97-12.43,2.63-6.58-3.17-24.57-48.78-30.95-59.06-1.55-2.5-1.9-4.21-5.52-3.46l-19.88,66.62c-4.12,3.36-13.06,4.55-16.28,0l-27.46-68.03-4.38-4.59-25.03,73.99c-1.22-7.2-8.14-2.44-10.87-4.12-1.21-.75-.37-7.36-1.28-9.67-2.16-5.49-6.03-11.43-8.33-17.71-4.67-12.73-8.09-26.06-13.52-38.48-5.58,7.6-16.36,63.9-19.25,65.73-1.18.74-10.7.7-11.51.01-2.55-2.17-18.99-55.68-20.24-63.76-5.13-.79-3.11.46-4.18,2.82-5.35,11.83-12.01,51.46-16.79,57.21-1.84,2.22-8.17,2.81-9.01,1.99-3.1-3.04,5.39-35.97,6.97-42.03,3.1-11.92,9.41-35.48,14.03-45.97,2.83-6.42,3.48-7.2,9.68-3.71,13.16,7.41,12.28,43.5,24.35,55.68l19.47-55.45c3.09-2.23,7.53-3.63,10.65-.74l24.88,68.2c3.24-.35,3-3.04,3.75-5.22,5.96-17.22,11.14-34.73,17.98-50.42,4.09-9.38,1.59-16.41,15.75-8.86,4.83,2.58,11.87,25.07,15.12,32.51,3.76,8.61,7.89,18.55,12.93,27.41,1.24,2.18-.23,3.46,4.42,2.58,4.53-11.79,16.4-58.8,25.62-63.96,8.59-4.81,12.73.51,15.42,7.99,1.32,3.67,2.09,10.24,4.56,15.35,4.08,8.44,10.9,15.34,13.4,24.63,1.62,2.2,5.69,2.69,7.97,2.06,2.96-.81,13.68-49.55,20.17-57.94,4.7-6.08,13.65-3.52,17.74,2.02l23.25,51.78,5.86.07,19.98-59.05c.53-8.15,15.28-7.81,17.87-4.79Z"/>
  </g>
</svg>