<?xml version="1.0" encoding="UTF-8"?>
<svg id="Calque_2" data-name="Calque 2" xmlns="http://www.w3.org/2000/svg" viewBox="0 0 324.91 120.34">
  <defs>
    <style>
      .cls-1 {
        fill: #52bcbc;
      }
    </style>
  </defs>
  <g id="Calque_1-2" data-name="Calque 1">
    <path class="cls-1" d="M229.78,89.44c1.48-.62,17.93-22.73,19.38-25.55,6.17-12.1,9.59-31.98,18.27-43.73,17.11-23.19,45.57-17.63,54.3,9.43,2.78,8.61,7.5,27.24-5.41,26.44-1.37-7.99-11.92-33.25-18.04-37.05-3.29-2.04-6.33-.83-9.48.56-16.7,7.38-23.38,45.56-32.83,61.17-10.87,17.95-25.5,29.7-46.78,19.42-7.59-3.67-10.21-10.89-17.63-13.95-16.62,14.97-33.81,33.23-57.72,21.72-1.71-.82-2.52-3.85-5.1-5.24-12.59-6.75-13.65,2.32-24.35,4.5-14.6,2.97-31.46-4.61-43.07-13.16-9.57,13.97-32.49,28.22-50.1,26.15-2.41-.28-10.73-3.58-11.03-5.22-2.03-11.19,12.12-4.74,17.11-4.71,14.47.08,23.92-17.36,36.7-22.5-6.39-25.53-18.22-50.24,1.44-73.53,23.27-27.57,34.13,20.69,30.37,40.37-1.37,7.19-14.61,25.99-13.35,30.16,3.45,11.45,39.01,13.01,41.43.03.48-2.59-4.42-13.54-5.07-18.23-2.03-14.69.54-33.85,8.66-46.3,6.79-10.42,20.41-22.48,29.51-7.97,2.9,4.62,9.55,25.63,8.96,30.24-.81,6.32-6.17,15.69-7.89,22.31l-15.75,24.22c13.59,20.69,53.92-8.07,53.72-24-.05-4.27-3.35-7.85-3.6-12.13-.55-9.37,1.73-25.98,4.92-34.8,13.1-36.23,45.5-12.5,33.06,23.06-2.25,6.44-18.14,30.02-18.14,31.85.01,8.7,17.88,20.47,27.52,16.46ZM198.27,54c5.61-13.44,19.02-27.95,7.03-41.94-7.95,9.8-9.44,22.74-8.99,34.99.09,2.41-1.51,7.43,1.97,6.96ZM122.3,74.03c7.13,7.31,18.93-27.14,19.56-31.52,1.47-10.28-3.51-16.92-5.59-26.48-19.48,13.66-17.02,37.22-13.97,58ZM64.27,74c6.14-15.27,14.87-33.9,7.49-50.45-3.66-8.22-8.56-6.42-11.62,1.31-4.73,11.94-4.15,26.97-.87,39.17.69,2.58,1.91,9.6,5,9.96Z"/>
  </g>
</svg>