<?xml version="1.0" encoding="UTF-8"?>
<svg id="Calque_2" data-name="Calque 2" xmlns="http://www.w3.org/2000/svg" viewBox="0 0 215.9 237.27">
  <defs>
    <style>
      .cls-1 {
        fill: #52bcbc;
      }
    </style>
  </defs>
  <g id="Calque_1-2" data-name="Calque 1">
    <path class="cls-1" d="M106.75,2.49c1.51,2.1-1.12,4.57-3.44,5.53-8.73,3.6-24.56,5.53-32.93,10.55-9.56,5.73-32.62,31.69-38.9,41.62C2.41,106.16,4.08,177.77,50.1,212.12c65.44,48.85,167.51-47.18,149.29-117.29-4.44-17.09-30.78-31.49-47.57-32.48-38.74-2.28-94.38,47.68-62.1,82.15,15.6,16.66,44.46,4.75,38.66-14.62-3.1-10.36-18.7-2.74-19.61-3.41-.61-.45-2.27-13.66-2.15-15,2.89-32.79,46.26-34.17,61.96-7.41,22.94,39.1-18.84,95.1-59.02,100.36-11.96,1.56-36.95-5.86-47.32-12.01-25.02-14.83-34.85-57.73-27.31-84.44,1.68-5.96,8.28-28.24,11.79-34.17.78-1.31,3.18-.8,7.67-8.65C77.31,25.09,122.58,3.17,169.18,12.87c12.49,2.6,17.1,9.08,26.24,14.9,3.57,2.27,9.68,1.58,14.38,6.66,3.97,4.3,5.19,10.33,4.96,16.02-10.54,2.09-13.55-7.36-19.01-11.97-9.32-7.88-35.73-13.45-47.98-13.61-79.34-1.03-141.51,135.41-62.94,164.54,38.07,14.11,86.56-35.42,72.6-74.6-3.85-10.8-14.53-20.51-26.63-15.3-15.83,13.74-4.28,8.49,4.74,17.18,31.22,30.06-27.16,68.21-58.08,35.08-6.2-6.65-14.81-27.21-12.72-35.97.37-1.54,3.29-1.34,3.47-1.71.47-.92-1.64-4.43-.73-7.68,12.74-45.7,72.3-70.61,114-47.67,16.97,9.33,23.07,16.66,29.46,34.16.62,1.7,3.45,1.61,3.76,2.97,2.91,12.95.1,31.08-3.86,43.68-16.62,52.89-75.66,105.34-134.96,96.8-3.99-.57-28.98-10.63-31.18-12.88-1.87-1.92-1.41-5.82-2.35-6.58-1.3-1.06-5.1-.02-7.49-1.54-2.63-1.66-19.68-22.53-21.22-24.94-1.25-1.95,1.05-4.56.61-5.59-.15-.37-3.11-.35-4.11-2.8C-15.23,120.08,7.97,40.65,68.98,9.69c6.71-3.41,32.43-14.62,37.77-7.2Z"/>
  </g>
</svg>