<?xml version="1.0" encoding="UTF-8"?>
<svg id="Calque_2" data-name="Calque 2" xmlns="http://www.w3.org/2000/svg" viewBox="0 0 206.12 278.52">
  <defs>
    <style>
      .cls-1 {
        fill: #52bcbc;
      }
    </style>
  </defs>
  <g id="Calque_1-2" data-name="Calque 1">
    <path class="cls-1" d="M141.49,13.52c.68.39,11.02,7.49,12.42,8.53,62.09,46.22,76.73,207.45.05,249.73-31.45,17.34-82.06-.34-92.98-34.79-2.48-7.84-.56-27.48-3.93-32.08-1.85-2.52-6.86-2.41-9.68-4.31-18-12.1-31.1-28.56-26.03-51.45,9.3-41.99,57.03-65.26,97.53-56.04,48.8,11.1,69.86,69.8,32.13,105.73-23.02,21.93-43.02,19.43-72.95,16.05-.86,9.31,1.25,18.8,6.33,26.69,13.67,21.22,46.34,31.03,68.35,17,58.54-37.3,41.74-171.88.37-217.72C120.43,4.63,37.83,5.01,15.72,51.53c-3.38,7.11-3.27,23.67-11.71,18.43-13.85-8.6,11.97-41.06,20.1-47.99C55.39-4.65,106.13-6.6,141.49,13.52ZM150.1,174.89c5.54-2.68,6.02-11.5,6.12-16.97.95-55.8-79.48-70.29-109-28.9-15.1,21.17-12.58,54.52,16.85,57.87,2.18-17.4,22.35-41.52,39.18-45.83,27.24-6.98,43.37,6.61,46.86,33.82ZM78.07,196.88c20.54,2.31,33.82,12.55,51.96-3.04,16.16-13.89-2.98-58.19-30.65-36.65-5.84,4.54-25.42,35.35-21.3,39.7Z"/>
  </g>
</svg>