<?xml version="1.0" encoding="UTF-8"?>
<svg id="Calque_2" data-name="Calque 2" xmlns="http://www.w3.org/2000/svg" viewBox="0 0 195.93 173.66">
  <defs>
    <style>
      .cls-1 {
        fill: #eda354;
      }
    </style>
  </defs>
  <g id="Calque_1-2" data-name="Calque 1">
    <path class="cls-1" d="M173.19,148.58c-9.86,10.58-30.43,22.44-44.72,24.29-13.62,1.76-23.82-1.69-35.34-1.51-26.66.41-46.46,8.76-70.96-9.05-27-19.62-27.3-58.67-11.78-85.52C19.76,60.54,57.1,18.18,73.38,9.77,110.04-9.15,155.48-.85,175.5,36.95c4.46,8.42,4.56,17.17,7.49,24.51,2.58,6.45,8.18,11.81,10.47,19.53,7.52,25.46-2.99,49.02-20.28,67.58ZM153.35,28.11c-6.88-8.2-25.98-14.73-36.4-13.73-1.75.17-25.96,8.02-26.92,9.07-8.49,9.14,30.14,4.02,32.73,4.21,13.81,1,23.88,10.56,32.25,11.81,6.1.91-.29-9.72-1.66-11.35ZM159.03,41.43v2c1.3-.67,1.3-1.33,0-2ZM142.01,53.43l-9.98-9.98c1.29,5.16,5.5,7.73,9.98,9.98ZM108.01,111.42c5.5-3.78,2.59-43.61-14.03-39.19-20.36,5.42,5.16,45.29,14.03,39.19ZM49.22,146.24c-7.22-7-14.55-19.39-18.2-28.8-1.72-4.43-6.01-28.07-7.99-27.97-8.47,9.61-11.8,29.85-7.89,41.85,1.76,5.41,18.49,24.04,23.45,26.55,9.08,4.6,21.55,3.47,31.44,3.54-7.69-6.1-13.57-8.15-20.81-15.17Z"/>
  </g>
</svg>