<?xml version="1.0" encoding="UTF-8"?>
<svg id="Calque_2" data-name="Calque 2" xmlns="http://www.w3.org/2000/svg" viewBox="0 0 146.42 201.88">
  <defs>
    <style>
      .cls-1 {
        fill: #eda354;
      }
    </style>
  </defs>
  <g id="Calque_1-2" data-name="Calque 1">
    <path class="cls-1" d="M137.07,52.08c-.36.4-5.07-1.79-8.03-1.16-4.8,1.03-19.94,6.16-26.03,8.07-22.26,6.96-43.95,26.9-43.17,51.76,1.35,42.97,71.72,21.71,83.4,38.16,3.55,5,3.99,40.53,2.05,48.36-10.77,8.43-22.46,2.76-33.12,2.71-39.65-.16-74.91,1.53-99.96-36.04C-17.23,119.8,9.98,36.71,57.7,15.68,65.73,12.14,114.19-.17,121.98,0c22.24.49,21.67,19.02,19.2,37.16-.2,1.47-3.6,14.34-4.11,14.92Z"/>
  </g>
</svg>