<?xml version="1.0" encoding="UTF-8"?>
<svg id="Calque_2" data-name="Calque 2" xmlns="http://www.w3.org/2000/svg" viewBox="0 0 254.19 93.34">
  <defs>
    <style>
      .cls-1 {
        fill: #52bcbc;
      }
    </style>
  </defs>
  <g id="Calque_1-2" data-name="Calque 1">
    <path class="cls-1" d="M175.43,57.13c-1.04,1.67-5.46,1.33-5.5,5.56-.04,5.65,8.1,9.38,13.07,9.2,24.12-.89,30.81-51.82,48.59-59.63,3.91-1.72,20.6-6.2,22.27-1.29,2.94,8.69-14.49,13.8-20.82,20.73-10.57,11.57-13.05,31.15-24.13,43.87-13.12,15.06-28.97,13.59-45.5,4.19-1.66-.94-.86-4.12-2.37-4.08-3.48.09-16.73,11.45-22.21,13.84-10.25,4.47-19.81,5.4-30.28.79-2.13-.94-2.31-3.36-4.16-4.34-16.78-8.94-12.41.46-20.15,2.87-4.03,1.26-22.87,3.18-27.08,2.79-12.41-1.17-20.36-17.45-22.18-17.9S9.31,93.49.07,87.72c-.93-12.5,7.02-9.03,15.41-13.58,3.04-1.65,11.81-8.09,13.15-10.9,3.04-6.42-3.06-27.07.43-37.5,10.11-30.17,44.11-29.69,31.97,7.96-2.35,7.28-17.03,29.26-17.04,31.03-.03,8.98,18.25,16.11,26.91,14.92,2.41-.33,16.39-7.36,16.9-8.24.74-1.27-4.92-23.3-4.97-29.02-.08-9.02,2.12-22.11,7.22-29.67,4.83-7.18,17.06-15.55,25.61-10.56,2.11,1.23,12.26,20.66,12.53,24.61.7,10.39-8.28,31.38-14.99,39.13-4.19,4.85-12.46,2.97-3.02,10.7,13.2,10.82,29.64-1.32,40.02-10.32.55-16.02-5.69-32.07.47-48.95,6.67-18.28,32.09-26.48,35.21-2.42,1.28,9.91-5.26,33.83-10.45,42.21ZM54.05,13.74c-12.19-2.28-19.56,31.68-15.98,35.98,4.45.93,4.43-2.27,6.08-4.9,3.15-5.05,13.81-26.81,9.9-31.08ZM103.66,59.3c.73-.4,8.11-12.57,8.79-14.19,3.17-7.53,6.99-30.34-5.33-31.28-9.84-.75-13.01,19.8-13.12,27-.03,2.29,1.39,18.24,2.07,18.91.27.27,6.16.34,7.58-.45ZM174.06,13.73c-1.76-1.73-13.77,3.1-14.1,5.35-.26,1.79,1.56,4.7,1.38,7.29-.52,7.43-2.9,13.62.75,21.35l11.44-19.51.52-14.48Z"/>
  </g>
</svg>