<?xml version="1.0" encoding="UTF-8"?>
<svg id="Calque_2" data-name="Calque 2" xmlns="http://www.w3.org/2000/svg" viewBox="0 0 253.92 225.43">
  <defs>
    <style>
      .cls-1 {
        fill: #52bcbc;
      }
    </style>
  </defs>
  <g id="Calque_1-2" data-name="Calque 1">
    <path class="cls-1" d="M162.06,211.52c-4.64,2.1-12.58,8.97-20.09,10.87C72.03,240.09-21.64,178.09,4.48,100.89c7.19-21.24,19.83-40.59,36.94-55.06C62.47,28.02,117.13,3.32,144.46.87c32.36-2.91,53.25.75,77.93,22.03,14.24,12.28,12.57,21.76,18.66,37.34,7.88,20.14,14.8,24.5,12.37,49.6-5.05,52.01-48.73,82.41-91.36,101.68ZM210.17,26.09c-8.22-6.03-11.15-10.83-23.09-13.88-26.76-6.83-52.19-3.53-77.62,6.66l61.33,5.63c16.85,5.76,34.09,11.44,49.49,20.59,2.35,1.39,3.14,5.45,4.17,5.8,10.62,3.66-1.13-16.67-2.91-18.64s-7.75-3.52-11.37-6.17ZM105.43,28.86c-11.78,3.23-23.97,5.53-34.44,12.13-1.46.92-1.88,2.19-1.58,3.84h-1.95c2.03-9.08-10.43,3.32-12.82,6.23-1.43,1.74-.87,5.12-1.34,5.71-.26.33-4.38-2.56-8.42-.07-.86.53-11.58,13.43-13.1,15.49-14.38,19.58-23.33,42.68-20.12,67.43.81,6.27,4.46,20.8,11.73,20.25-1.65-6.11-4.13-15.96-4.12-22.02.04-19.58,9.67-39.75,20.12-55.52,5.35-8.08,14.65-20.84,23.05-27.47,10.42-8.23,26.51-15.62,38.6-21.49,2.71-1.32,5.51,1.28,4.38-4.51ZM203.43,72.84c-.98-14.25-23.73-30.91-37-32.01-22.06-1.84-76.17,20.63-91.03,37.54-23.76,27.03-29.71,75.94,6.7,94.83,33.08,17.16,96.73-15.64,117.34-43.35,15.11-20.31,5.3-44.76-14.13-57.86-15.16-10.23-20.76-3.25-32.31-5.57-1.29-.26-10.41-4.66-7.56-7.55,5.19-5.25,35.94-.55,43.43,3.55,6.18,3.38,6.64,10.92,14.56,10.42ZM218.73,146.14c24.79-25.33,11.91-73.33-12.31-95.25-.42,4.99,5.85,9.48,7.28,12.78,13.43,30.88,5.91,57.55-4.22,88.2,2.44-.11,7.65-4.1,9.24-5.74ZM239.42,88.84c-.4-9.54-3.22-19.98-11-25.95l11,25.95ZM204.44,74.85v2c1.3-.67,1.3-1.33,0-2ZM52.46,90.89l-2.98,2.98c-.04,2.1,5-1.19,2.98-2.98ZM65.44,174.83c-13.32-12.11-20.89-30.81-20.04-48.87.32-6.76,3.16-15.41,3.79-22.37.2-2.24,1.86-7.18-1.73-6.72-13.75,27.8-24.02,73,17.97,77.96ZM196.74,158.19c2.84-4.15,5.16-10.28,5.72-15.29l-14.37,13.61-40.65,24.33c10.57-2,26.07-4.4,35.4-9.58,2.59-1.44,12.4-10.88,13.9-13.07ZM207.43,168.86c-1.05-1.03-21.78,9.94-19.98,15.98,2.96,2.81,23.04-12.98,19.98-15.98ZM54.6,181.74c-2.24-1.18-12.27-7.81-13.15-6.88-2.26,2.39,2.84,8.03,4.74,9.17,11.66,6.98,38.74,15.74,52.28,16.79,16.65,1.29,38.19-.81,52.96-8.97-14.17-.62-28.49,2.26-42.83.85-12.86-1.27-44.38-5.9-54.01-10.95ZM185.43,186.87c-2.93-.66-4.18.84-5.95,3l5.95-1.04v-1.96ZM176.44,190.85v2c1.3-.67,1.3-1.33,0-2ZM127.43,210.87c-20.37,1.37-40.26-3.64-59.98-8,1.47,3.47,8.98,5.39,12.41,6.56,11.34,3.87,30.52,7.72,42.01,4.84,2.01-.5,6.02-.57,5.55-3.4Z"/>
  </g>
</svg>