<?xml version="1.0" encoding="UTF-8"?>
<svg id="Calque_2" data-name="Calque 2" xmlns="http://www.w3.org/2000/svg" viewBox="0 0 112.39 148.12">
  <defs>
    <style>
      .cls-1 {
        fill: #eda354;
      }
    </style>
  </defs>
  <g id="Calque_1-2" data-name="Calque 1">
    <path class="cls-1" d="M101.42,133.74c-1.23.83-15.32,2.55-17.66,1.4-3.35-1.65-24.17-34.06-28.88-33.02-5.02,6.16-12.53,12.87-17.15,18.93-4.28,5.61-14.65,27.05-21,27.07-7.78.03-9.6-18.05-15.08-23.17,1.69-23.56,17.12-37.8,30.15-55.9C26.09,55.29,1.59,36.3.09,22.54c-1.31-12,12.18-3.74,16.37-4.33,1.91-.27,2.43-5.77,5.27-7.31,7.6-4.14,24.22,20.86,29.07,25.1,7.49,6.54,12.91-8.5,17.93-13.96C73.15,17.23,89.73.37,94.92.04c14.15-.9,2.56,15.79,3.13,18.73.73,3.78,11.04,7.74,8.91,15.35s-25.49,25.22-24.79,32.63c.77,8.16,36.45,35.04,29.27,50.01-7.65,2.05-8.56,16.02-10.01,16.99Z"/>
  </g>
</svg>