<?xml version="1.0" encoding="UTF-8"?>
<svg id="Calque_2" data-name="Calque 2" xmlns="http://www.w3.org/2000/svg" viewBox="0 0 195.25 194.97">
  <defs>
    <style>
      .cls-1 {
        fill: #eda354;
      }
    </style>
  </defs>
  <g id="Calque_1-2" data-name="Calque 1">
    <path class="cls-1" d="M27.34,33.52C37.64,23.61,69.77,2.47,83.58.77c44.53-5.5,106.38,18.79,111.02,69.09,6.14,66.49-31.5,122-100.88,125.05-34.67,1.52-71.65-22.45-86.74-53.43C-8.13,110.45,2.48,57.42,27.34,33.52ZM82.63,16.84c-3.49-.53-6.23.39-9.43,1.56-2.04.74-10.05,4.6-8.56,8.41,7.26,1.22,13.62-4.91,17.99-9.97ZM69.25,156.19c8.06,6.64,40,12.5,49.97,10.2,4.87-1.12,12.21-8.64,15.46-12.52,20.26-24.21,29.37-85.01,4.05-108.14-4.76-4.35-22.89-13.29-29.05-13.05-13.42.52-28.93,26.48-34.49,27.87-4.45,1.11-9.05-3.07-12.56-.87-4.33,2.72-15.06,30.14-15.83,36.3-2.66,21.16,5.82,46.51,22.45,60.21Z"/>
  </g>
</svg>