<?xml version="1.0" encoding="UTF-8"?>
<svg id="Calque_2" data-name="Calque 2" xmlns="http://www.w3.org/2000/svg" viewBox="0 0 145.89 259.34">
  <defs>
    <style>
      .cls-1 {
        fill: #52bcbc;
      }
    </style>
  </defs>
  <g id="Calque_1-2" data-name="Calque 1">
    <path class="cls-1" d="M140.8,256.52c-31.29,8.78-76.72-3.63-98.68-27.63C-13.02,168.66-17.04,85.77,48.08,30.82,68.83,13.31,111.16-7.6,138.25,2.76c2.57,34.75,5.07,69.82,6.13,104.77,1.07,35.17,2.29,75.19.83,110.42-.5,12.18-3.32,26.25-4.42,38.56ZM123.14,14.86c-4.05-.49-7.75.38-11.64,1.37-15.95,4.09-26.59,10.41-38.23,19.72C32.75,68.4,15.98,108.33,26.02,160.98c7.7,40.37,31.59,56.1,68.09,69.91,4.79,1.82,24.4,8.33,28.02,8.06,10.01-.77,3.13-23.94,2.92-31-1.88-64.27-.04-128.83-1.92-193.09Z"/>
  </g>
</svg>