<?xml version="1.0" encoding="UTF-8"?>
<svg id="Calque_2" data-name="Calque 2" xmlns="http://www.w3.org/2000/svg" viewBox="0 0 91.34 255.97">
  <defs>
    <style>
      .cls-1 {
        fill: #eda354;
      }
    </style>
  </defs>
  <g id="Calque_1-2" data-name="Calque 1">
    <path class="cls-1" d="M25.16,68.17c15.18-4.62,27.3-12.39,44.81-9.81,30.54,4.5,22.53,34.43-6.35,39.38-13.27,2.27-32.06-6.02-35.11-5.26-3.52.88-12.23,13.49-13.05,17.2-2.19,9.94,9.07,38.79,21.12,33.24,2.68-1.23,3.02-4.64,5.84-6.27,11.95-6.91,33.03-4.76,44.2,2.86s-.67,27.81-11.08,30.35c-3.91.95-7.5-1.1-9.48-.65-3.8.86-6.78,4.72-11.98,4.76-11.26.09-17.01-15.46-26.53-.26-8.82,14.09-12.14,31.61-3.79,46.85,3.6,6.57,27.07,28.1,23.25,33.59-2.52,3.62-13.81,1.19-17.77-1.08C12.31,243.35-1.13,212.45,1.27,193.38c1.51-12.03,17.98-34.26,17.86-38.25-.06-1.94-9.8-10.43-12.41-15.54-8.21-16.08-9.51-31.16-.45-47.19,2.16-3.83,8.88-6.93,8.85-11.15s-10.88-15.74-9.9-29.74C6.97,26.57,41.78-1.3,66.11.05c8.64.48,13.49,9.95,3.88,12.08-3.31.74-6.78.11-10.57,1.43-22.26,7.72-43.8,29.01-34.26,54.61ZM73.1,74.23c-2.88-2.95-29.68.1-28,6.96,2.28,9.31,35.43.64,28-6.96ZM79.08,148.24c-9.13-2.96-20.87-3.31-29.43,1.51-9.64,5.43,13.78,8.98,18.26,8.43s11.61-4.57,11.17-9.95Z"/>
  </g>
</svg>