<?xml version="1.0" encoding="UTF-8"?>
<svg id="Calque_2" data-name="Calque 2" xmlns="http://www.w3.org/2000/svg" viewBox="0 0 219.66 225.47">
  <defs>
    <style>
      .cls-1 {
        fill: #eda354;
      }
    </style>
  </defs>
  <g id="Calque_1-2" data-name="Calque 1">
    <path class="cls-1" d="M158.11,10.14c48.27,23.8,71.8,84.92,57.32,136.9-10.73,38.53-60.47,80.81-101.61,78.33C44.39,221.16-.51,152.41,36.02,89.62c25.88-44.48,90.22-59.3,123.64-16.08,20.92,27.05,16.2,67.57-11.87,87.85-34.43,24.88-85.36,2.12-78.86-42.86.78-5.39,11.75-19.55,15.96-22.04,10.3-6.11,30.23-3.65,35.95,7.76,4.33,8.63,5.8,22.19-7.03,21.23-9.87-.74-.68-12.5-4.91-15.15-8.35-5.24-19.04,4.98-21.15,13.02-8.38,31.86,23.72,42.69,46.88,26.89,42.37-28.91,7.72-98.89-45.28-83.28-57.61,16.97-64.43,94.58-17.21,128.1,53.74,38.13,123.86-15.24,130.08-73.2,2.43-22.64-12.61-62.02-27.48-79.4C140.51,2.4,68.76,10.82,34.78,46.96c-6.44,6.85-21.81,35.38-26.02,37.41-11.31,5.43-9.23-8.39-7.02-17.02C16.92,8,106.79-15.17,158.11,10.14Z"/>
  </g>
</svg>