<?xml version="1.0" encoding="UTF-8"?>
<svg id="Calque_2" data-name="Calque 2" xmlns="http://www.w3.org/2000/svg" viewBox="0 0 261.9 255.97">
  <defs>
    <style>
      .cls-1 {
        fill: #52bcbc;
      }
    </style>
  </defs>
  <g id="Calque_1-2" data-name="Calque 1">
    <path class="cls-1" d="M106.77.37c16.97-1.27,33.24.05,43.29,15.49,10.66,16.38-15.9,11.32-28.83,14.95-48.84,13.7-91.14,88.84-85.83,137.74,2.26,20.84,11.78,29.69,29.97,38.01,6.48,2.97,17.84,6.54,24.8,6.79,72.27,2.54,138.79-67.79,141.03-138.66.47-14.8-23.71-59.4-14.16-66.05,16.72-11.64,36.69,33.7,39.55,44.7,25.11,96.53-41.73,196.36-142.35,202.49-49.63,3.02-103.9-43.21-112.6-91.54C-9.59,101.85,37.73,5.52,106.77.37Z"/>
  </g>
</svg>