<?xml version="1.0" encoding="UTF-8"?>
<svg id="Calque_2" data-name="Calque 2" xmlns="http://www.w3.org/2000/svg" viewBox="0 0 210.41 212.71">
  <defs>
    <style>
      .cls-1 {
        fill: #52bcbc;
      }
    </style>
  </defs>
  <g id="Calque_1-2" data-name="Calque 1">
    <path class="cls-1" d="M207.43,92.62c7.23,17.47.08,43.76-8.42,62.1-20.73,44.78-76.96,71.32-124.03,51.13C24.62,184.26-16.85,128.11,6.85,72.15,15.86,50.87,54.62,11.14,76.42,3.72c49.53-16.85,116.08,26.16,129.45,75.24,1.3,4.78-.03,9.81,1.56,13.65ZM134.01,49.85c-13.48-10.72-20.15-15.27-37.66-10.19-18.92,5.49-28.24,15-34.54,33.46-14.76,43.24-4.21,124.29,58.77,100.77,52.41-19.57,54.02-91.76,13.43-124.04ZM50.77,75.05l-3.98-3.98-1.98,5.02,5.96-1.04ZM190.75,71.07c-.8-.86-4.26-1.57-3.56,2.54.94,5.48,5.3,16.88,5.45,20.59.04.9-3.4.62-3.81,2.13-.53,1.93,1.46,12.74.82,16.98-.45,2.97-5.73,22.57-6.89,24.78-11.24,21.41-43.21,52.58-67.56,56.42-2.57.41-23.61-.88-18.43,4.54,6.09,6.36,36.41-.66,44.74-4.22,39.94-17.09,59.53-55.6,55.01-98.5-.33-3.13-4.89-24.3-5.77-25.25ZM46.12,86.68c.33-.65,1.64-.97.7-2.57l-4.02-5.03c-13.02,25-11.97,62.39,9.96,81.99.98-6-4.23-8.02-6-13.1-2.09-5.98-5.52-26.08-5.77-32.04-.04-.96,3.63-.66,3.9-2.11,1.71-9.14-4.9-15.2,1.24-27.14Z"/>
  </g>
</svg>