<?xml version="1.0" encoding="UTF-8"?>
<svg id="Calque_2" data-name="Calque 2" xmlns="http://www.w3.org/2000/svg" viewBox="0 0 222.34 220.52">
  <defs>
    <style>
      .cls-1 {
        fill: #eda354;
      }

      .cls-2 {
        fill: #52bcbc;
      }
    </style>
  </defs>
  <g id="Calque_1-2" data-name="Calque 1">
    <g>
      <path class="cls-1" d="M55.54,68.85c16.31-20.85,45.01-38.37,72.19-36.74,18.85,1.13,55.81,17.79,60.14,37.84,3.37,15.58,3.85,34-.99,49.25-11.42,36.03-42.48,66.04-81.16,68.84-79.55,5.75-92.17-65.5-50.18-119.19ZM118.73,90.07c-5.91,7.38-11.55,21.86-13.85,31.12-.66,2.64-4.71,16.9.87,16.84,2.88-.03,15.06-42.11,12.98-47.96Z"/>
      <path class="cls-2" d="M180.08,10.78c52.66,26.43,49.15,91.56,27.02,138.63-4.36,9.28-25.52,36.12-34.46,39.72-2.56,1.03-5.7-1.32-5.87-1.08-.58.84.91,5.26-.41,7.62-.84,1.5-26.29,16.38-29.55,17.45C61.18,237.79-9.68,199.85,1.09,113.4c1.03-8.29,2.99-20.52,5.79-28.22,2.35-6.47,13.94-28.99,17.92-34.07,1.92-2.45,20.18-20.32,21.54-20.97,5.24-2.53,15.61-4.12,21.47-8.03,17.7,9.23-1.91,12.65-9.53,18.03-41.13,29.02-63.69,135.99-6.62,158.02,79.93,30.86,167.16-49.98,152.19-132.19-7.24-39.8-54.42-50.8-89.08-46.81-10.56-10.09-.72-15.88,9.9-18.19,15.68-3.41,41.1,2.62,55.41,9.8Z"/>
    </g>
  </g>
</svg>