<?xml version="1.0" encoding="UTF-8"?>
<svg id="Calque_2" data-name="Calque 2" xmlns="http://www.w3.org/2000/svg" viewBox="0 0 330.54 117.55">
  <defs>
    <style>
      .cls-1 {
        fill: #eda354;
      }
    </style>
  </defs>
  <g id="Calque_1-2" data-name="Calque 1">
    <path class="cls-1" d="M328.09,12.32c3.21,2.32,3.57,10.29-.74,13.38-7.92,5.68-13.4,1.72-19.27,2.72-7.08,1.21-33.33,8.21-36.62,13.51,1.31,15.65,7.45,28.35,2.85,44.74-9.66,34.47-54.25,20.66-44.8-20.8,2.16-9.47,17.77-24.82,16.8-28.57-4.58-17.76-50.18-11.96-53.48,2.01-.58,2.47,5.76,26.43,5.78,33.49,0,4.15-1.69,19.51-2.53,23.64-2.61,12.91-20.4,24.61-32.66,17.55-15.84-9.12-15.35-33.97-10.99-49.21,2.11-7.36,18.22-31.72,17.87-33.59-1.24-6.69-18.38-16.78-24.87-17.21-8.29-.55-38.99,10.55-40.6,19.2-.29,1.54,11.46,21.57,12.79,28.61,3.69,19.59-2.12,53.56-26.68,55.7-9.16.8-21.19-8.63-23.48-17.54-3.14-12.18-2.26-30.54,1.63-42.5,1.95-5.98,13.57-21.06,13.36-22.35-1.45-8.84-21.29-6.38-27.87-4.15-26.86,9.13-42.84,35.25-44.07,62.94C-2.64,96.46-.25,83,1.06,73.41,5.75,39.07,42.95,10.5,77.42,16.02c5.66.91,10.73,6.49,16.05,5.94,2.86-.29,16.81-12.82,22.6-15.54,18.33-8.62,37.24-9.34,54.34,2.6,3.65,2.55,8.27,9.69,11.58,10.58,7.22,1.95,21.32-7.82,30.07-9.19,11.46-1.79,26.83.13,36.98,5.99,4.47,2.58,8.42,9.25,12.61,9.59,4.92.4,14.9-7.64,20.31-9.68,9.57-3.62,38-9.87,46.13-3.99ZM93.54,43.94c-10.12,9.92-22.49,48.64-9.86,57.81,22.79,16.55,28.48-49.15,9.86-57.81ZM180.53,49.89c-6.09-5.84-15.23,18.76-15.86,23.13-3.98,27.62,13.13,42.21,17.7,7.71.56-4.26-.18-29.24-1.84-30.84ZM258.53,53.91c-13.85.3-20.82,37.89-8.79,39.91,11.06,1.86,11.81-32.88,8.79-39.91Z"/>
  </g>
</svg>