<?xml version="1.0" encoding="UTF-8"?>
<svg id="Calque_2" data-name="Calque 2" xmlns="http://www.w3.org/2000/svg" viewBox="0 0 123.35 133.6">
  <defs>
    <style>
      .cls-1 {
        fill: #52bcbc;
      }
    </style>
  </defs>
  <g id="Calque_1-2" data-name="Calque 1">
    <path class="cls-1" d="M82.14,17.42c1.08-.89,17.61-9.74,18.88-10.12,17.57-5.23,9.75,10.64,10.51,11.44.5.52,10.78,1.23,11.78,7.36,1.27,7.83-31.44,34.98-37.64,41.98-.86,5.18,34.86,33.53,26.97,44.79-2.12,3.02-14.53,5.38-15.07,5.99-.82.92,6.02,18.48-12.62,14.02-2.7-.65-24.08-35.98-26.41-36.05-12.85,8.97-19.38,22.2-35.48,26.68-8.32,2.32-13.17-5.31-9.54-12.7-19.6,5.65-14.45-3.97-6-15.03,2.5-3.28,6.08-6.68,9.29-10.69s18.77-19.59,18.75-23.26L13.88,23.27c-2.81-11.32,6.12-9.68,7.22-10.79,1.29-1.31.79-10.23,2.67-11.44,12.87-8.3,33.49,35.87,40.8,35.27,6.89-3.54,12.7-14.88,17.57-18.9Z"/>
  </g>
</svg>