<?xml version="1.0" encoding="UTF-8"?>
<svg id="Calque_2" data-name="Calque 2" xmlns="http://www.w3.org/2000/svg" viewBox="0 0 72.76 258.23">
  <defs>
    <style>
      .cls-1 {
        fill: #eda354;
      }
    </style>
  </defs>
  <g id="Calque_1-2" data-name="Calque 1">
    <path class="cls-1" d="M72.21,2.23c.04,4.41-1.87,8.32-2.02,12.8-1.49,42.66,1.99,90.82,2.17,134.17.11,26.69.66,53.44-.08,79.94-.2,7.16,3.04,28.43-5.03,29.08-7.43.6-39.71-20.39-50.39-21.69-13.67-11.56-22.88-15.93-9.6-32.43,8.86-11.01,18.35-15.45,30.47-21.58,8.14-4.11-10.5-11.31-14.46-14.4S1.54,149.55.69,146.71c-5.67-18.95,25.14-45.03,37.57-57.61,1.11-2.31-7.35-7.36-9.35-8.63-11.8-7.53-23.83-7.63-26.53-25.48C-.78,34.05,21.37,26.11,36.19,17.03c3.95-2.42,9.15-2.8,12.65-4.94,7.34-4.49,10.64-17.19,23.37-9.87Z"/>
  </g>
</svg>