<?xml version="1.0" encoding="UTF-8"?>
<svg id="Calque_2" data-name="Calque 2" xmlns="http://www.w3.org/2000/svg" viewBox="0 0 185.2 205.27">
  <defs>
    <style>
      .cls-1 {
        fill: #eda354;
      }
    </style>
  </defs>
  <g id="Calque_1-2" data-name="Calque 1">
    <path class="cls-1" d="M88.05.91c23.71-4.02,42.74,5.61,57.55,23.5,11.31,13.66,37.28,62.31,38.96,79.04,2.89,28.87-3.76,46.22-22.04,67.92-29.77,35.34-80.96,49.37-114.75,10.87-4.92-5.61-6.84-13.34-11.19-18.81-3.91-4.91-9.55-6.92-13.08-10.92-27.98-31.74-34.15-88.75-.93-119.08C28.75,27.78,80.24,2.23,88.05.91ZM132.56,24.46c-.6-.61-13.59-6.92-15.41-7.61-11.6-4.39-22.44-5.86-34.58-2.4,2.69,13.36,20.69,9.05,30.79,10.19,1.26.14,26.88,7.58,19.2-.18ZM30.56,132.42c.46-17.02-3.55-33.84-1.96-50.96,1.21-12.99,7.43-25.96,8.99-38.99-20.26,14.15-26.05,42.68-20.07,66,.56,2.2,9.13,28.61,13.03,23.95ZM138.56,66.42c-2.21-12.95-17.69-20.96-29.99-19.97,7.89,10.06,17.26,17.43,29.99,19.97ZM139.57,68.43v2c1.3-.67,1.3-1.33,0-2ZM142.55,78.42v-5.98h-1.96v5.98h1.96ZM142.56,82.44c-5.58-.98-3.35,1.2-4.5,4.39-3.24,8.94-3.19,18.49-5.48,27.59,5.67,1.03,3.28-1.35,4.5-4.39,3.36-8.39,5.26-18.52,5.48-27.59ZM106.33,106.17c3.27-2.67,2.99-23.42-4.73-21.73-5.03,1.1-2.51,17.75-3.02,22,2.18-.38,6.48.77,7.75-.27ZM86.57,118.43v-29c0-6.94-18.15-2.11-18.11,12,.03,9.33,8.17,18.93,18.11,17ZM157.88,153.78c3.72-5.18,11.64-22.3,12.52-28.52.86-6.12,2.29-21.45-3.81-24.82.17,23.01-23.17,64.12-44.02,72.99-15.21,6.47-36.3,2.73-52.97,3.12-14.38.33,6.72,10.93,12.1,11.77,7.09,1.11,26.06.88,33.02-.74,9.34-2.17,37.27-25.58,43.17-33.79ZM31.57,134.43v2c1.3-.67,1.3-1.33,0-2Z"/>
  </g>
</svg>