<?xml version="1.0" encoding="UTF-8"?>
<svg id="Calque_2" data-name="Calque 2" xmlns="http://www.w3.org/2000/svg" viewBox="0 0 124.71 291.74">
  <defs>
    <style>
      .cls-1 {
        fill: #52bcbc;
      }
    </style>
  </defs>
  <g id="Calque_1-2" data-name="Calque 1">
    <path class="cls-1" d="M116.77,9.04c1.81,2.09,3.46,10.75-.55,11.51-1.72.32-10.31-4.87-14.08-5.89C68.22,5.45,6.63,37.34,15.69,77.13c.58,2.55,6.79,12.68,8.86,13.3,3.06.9,21.75-13,28.35-15.24,13.95-4.74,40.56-7.8,53.77-1.05,22.41,11.47,24.33,35.33,3.58,50.4-16.17,11.74-42.81,7.74-60.4.42-7.69-3.2-19.51-16.1-26.37-7.18-12.29,15.98-7.79,35.38,3.01,50.54,2.58,3.62,14.52,15.37,18.14,15.91,1.8.27,19.67-11.21,24.6-12.72,12.92-3.96,40.09-4.9,45.13,10.92,11.05,34.64-39.81,34.94-60.66,24.73-3.35-1.64-1.66-6.26-5.41-4.61-9.82,4.33-12.69,29.71-9.48,39.45,5.82,17.71,42.57,29.23,39.61,44.68-.54,2.83-3.09,5.4-6.08,5.02-1.93-.24-30.34-17.63-33.23-20.03-13.17-10.9-20.36-37.29-17.71-54.01.97-6.14,10.22-18.27,9.56-21.83s-13.87-11.42-16.6-15.33C7.57,170.82-1.27,146,.15,134.44c1.2-9.73,15.23-31.85,15.23-34.81,0-.9-3.44-1.41-4.76-3.55-12.98-20.91-13.2-36.15.26-56.93C27.57,13.37,65.73-4.38,96.31.95c2.41.42,19.74,7.26,20.46,8.09ZM78.78,84.96c-6,.82-41.12,11.77-39.51,18.56,1.32,5.56,38.93,14.65,45.3,14.89,12.31.45,36-10.66,24.7-24.89-5.75-7.24-21.59-9.77-30.49-8.56ZM101.13,186.69c-4.3-6.67-35.52-2.88-39.87,5.83,5.87.04,12,3.06,17.62,3.56s27.82-.73,22.25-9.38Z"/>
  </g>
</svg>