<?xml version="1.0" encoding="UTF-8"?>
<svg id="Calque_2" data-name="Calque 2" xmlns="http://www.w3.org/2000/svg" viewBox="0 0 130.75 182.65">
  <defs>
    <style>
      .cls-1 {
        fill: #91a9b3;
      }

      .cls-2 {
        fill: #ddb762;
      }

      .cls-3 {
        fill: #537ea0;
      }

      .cls-4 {
        fill: #b7cfd7;
      }

      .cls-5 {
        fill: #3b5051;
      }

      .cls-6 {
        fill: #4a3d2c;
      }
    </style>
  </defs>
  <g id="Calque_1-2" data-name="Calque 1">
    <g>
      <path class="cls-5" d="M24.09,18.01c18.66,19.88,26.71,3.56,29.86-17.14l22.15-.87c-.75,10.06-.41,27.88,8.04,34.96,3.12,2.62,9.04,2.38,10.94,5.06,12.58,41.29,68.78,99.18,7.76,129.74-40.44,19.67-90.76,22.3-98.75-31.75h4c5.97,33.15,24.84,41.39,56.79,37.79,42.76-4.82,70.42-26.15,54.19-71.77-3.12-8.77-24.37-54.34-28.83-60.67-2.91-4.13-18.55-7.14-16.17-19.35-9.36,10.13-17.9-2.39-20.72-1.89-2.28.41-4.71,5.67-7.28,6.85-6.43,2.95-14.77,1.53-19.95-2.96.28,11.16-6.02,12.56-16.02,12.02,6.26,8.43-5.55,21.89-5.8,26.86-.35,6.99,1.75,20.23,1.8,29.12H2.09c-.08-9.26-2.37-23.7-1.93-30.9.34-5.59,6.08-9.73,6.11-18.09S-.9,26.29.09,20.01h2c7.11,15.65,25.72,21.97,18-2,.61.4,2.84-.26,4,0ZM66.09,20.01c7.13-4.73,6.49-7.51,6.01-16.01h-16.02c.03,7.5.79,22.12,10.01,16.01h-3.99s0-5.99,0-5.99h3.98s.01,5.99.01,5.99Z"/>
      <path class="cls-1" d="M20.09,18.01c8.81,25.43-14.56,16.36-18,0,6.21-.05,14.35-8.75,18,0ZM18.08,28c.64-3.78-2.34-6.63-5.98-5.98v5.98s5.98,0,5.98,0Z"/>
      <path class="cls-6" d="M6.09,94.01c.09,15.25-.72,28.88,2,44h-4c-2.3-15.6-1.87-28.33-2-44h4Z"/>
      <path class="cls-3" d="M2.09,20.01H.09c.27-1.73.98-1.41,2-2v2Z"/>
      <path class="cls-4" d="M6.09,94.01c-.05-8.89-2.16-22.13-1.8-29.12.25-4.97,12.06-18.43,5.8-26.86,10,.54,16.3-.85,16.02-12.02,5.18,4.49,13.53,5.91,19.95,2.96,2.57-1.18,5-6.44,7.28-6.85,2.82-.5,11.36,12.01,20.72,1.89-2.38,12.21,13.26,15.22,16.17,19.35,4.46,6.33,25.71,51.91,28.83,60.67,16.23,45.62-11.43,66.94-54.19,71.77-31.95,3.6-50.81-4.64-56.79-37.79-2.72-15.12-1.91-28.75-2-44ZM52.09,68.01c-2.74-2.71-1.2-15.22-.31-19.36,1.4-6.56-12.95,1.68-14.8,7.23-8.18,24.59,21.94,35.81,31.25,21.26,9.91-15.49-10.86-3.92-16.13-9.14Z"/>
      <path class="cls-1" d="M66.09,20.01c-9.21,6.11-9.98-8.51-10.01-16h16.02c.48,8.49,1.12,11.27-6.01,16v-5.99s-3.99,0-3.99,0v5.98s3.99.01,3.99.01Z"/>
      <path class="cls-5" d="M18.08,28h-5.98s0-5.98,0-5.98c3.64-.65,6.62,2.2,5.98,5.98Z"/>
      <path class="cls-6" d="M52.09,68.01c5.28,5.22,26.05-6.35,16.13,9.14-9.31,14.55-39.43,3.33-31.25-21.26,1.85-5.55,16.2-13.79,14.8-7.23-.88,4.14-2.43,16.65.31,19.36-1.57-1.48-3.24-1.78-4.49-4.44-.87-1.85-1.17-13.68-5.48-9.55-2.85,2.73-2.43,14.78.18,18.8,3.9,6.01,18.47,10.05,21.79,1.21-6.05-.3-8.2-2.45-12-6.02Z"/>
      <path class="cls-2" d="M52.09,68.01c3.8,3.58,5.95,5.73,12,6.02-3.32,8.84-17.89,4.8-21.79-1.21-2.61-4.02-3.03-16.07-.18-18.8,4.31-4.13,4.61,7.7,5.48,9.55,1.25,2.66,2.92,2.96,4.49,4.44Z"/>
    </g>
  </g>
</svg>