<?xml version="1.0" encoding="UTF-8"?>
<svg id="Calque_2" data-name="Calque 2" xmlns="http://www.w3.org/2000/svg" viewBox="0 0 84.99 98.56">
  <defs>
    <style>
      .cls-1 {
        fill: #537ea0;
      }

      .cls-2 {
        fill: #3b5051;
      }
    </style>
  </defs>
  <g id="Calque_1-2" data-name="Calque 1">
    <g>
      <path class="cls-1" d="M51.02,69.11c19.23-21.77,48.05,11.68,26.07,25.07s-41.84-7.21-26.07-25.07Z"/>
      <path class="cls-2" d="M27.89,39.02c8.34,7.83,6.01,31.57-8.67,33.43-31.61,2.1-21.03-50.35,8.67-33.43Z"/>
      <path class="cls-2" d="M54.39,6.49c2.02-10.18,18.42-6.79,23.72-.72,18.16,20.79-9.47,42.17-26.75,28.75-9.36-7.27-9.86-24.59,1.03-28.03,5.92,19.19-10.15,29.16,19.99,25.99-4.75-9.68,2.02-10.49,2.13-11.22-1.78-17.52-1.92-17.99-20.12-14.77ZM78.37,28.48v-3.98h-1.96v3.98h1.96Z"/>
      <path class="cls-1" d="M54.39,6.49c18.25-3.23,18.34-2.72,20.12,14.77-.11.73-6.88,1.54-2.13,11.22-30.14,3.17-14.07-6.8-19.99-25.99.57-.18,1.33.14,2,0Z"/>
      <rect class="cls-1" x="76.42" y="24.5" width="1.96" height="3.98"/>
    </g>
  </g>
</svg>