<?xml version="1.0" encoding="UTF-8"?>
<svg id="Calque_2" data-name="Calque 2" xmlns="http://www.w3.org/2000/svg" viewBox="0 0 164.33 172.35">
  <defs>
    <style>
      .cls-1 {
        fill: #8f625d;
      }

      .cls-2 {
        fill: #b7cfd7;
      }

      .cls-3 {
        fill: #c5503d;
      }

      .cls-4 {
        fill: #f7f7f0;
      }

      .cls-5 {
        fill: #3b5051;
      }

      .cls-6 {
        fill: #4a3d2c;
      }

      .cls-7 {
        fill: #a78a6a;
      }
    </style>
  </defs>
  <g id="Calque_1-2" data-name="Calque 1">
    <g>
      <path class="cls-5" d="M32.17,154.52c4.75-19.57,37.76-20.33,54.06-36.94,13.58-12.54,58.5-59.39,66.8-73.2,7.4-12.29,7.39-25.57-4.77-34.95-14.26-11.01-25.07-1.38-36.12,8.07-13.33,11.4-66.69,69.79-72.34,83.66-4.62,11.4-3.74,24.4-13.63,33.37-.68-.41-1.24-1.49-2-2,6.29-8.01,8.56-30.55,15.18-41.82C58.02,65.97,96.25,23.03,119.16,4.51c19.75-12.85,47.79,3.53,44.97,26.83-12.69,30.72-50.9,65.15-73.91,90.24-14.16,14.02-23.86,13.54-40.12,21.88-6.09,3.12-10.9,8.97-17.93,11.07Z"/>
      <path class="cls-6" d="M94.17,60.52c.64.13,1.35-.1,2,0-8.26,18.98-44.03,43.65-45.98,60l49.98-46c4.04-7.5-2.09-5.58-2.14-7.22-.04-1.19,2.18-2.45,2.14-2.78h6c-1.11,4.01,2.07,7.82,1.99,11.99-.91.93-6.78-2.74-7.99-1.99.33,7.34-10.21,3.69-3.99,13.98-13.89-2.61-10.18,9.62-12.02,12.04-.21.28-3.08-2.68-7.02-.25-6.74,4.15-2.48,9.7-2.98,10.21-.64.66-3.77-2.22-7.05-.19-10.57,6.91-31.51,32.63-38.9,43.22l3.96-1.02c-2.41,8.63-20.96,28.98-30.15,15.14-8.16-11.05,10.7-22.55,16.15-29.14-1.65,7.16,7.65.84,6,8-12.33-5.54-26.05,23.81-12.92,20.1,9.83-1.07,10.32-13.44,14.92-20.1,5.09-7.38,22.68-12.67,19.01-23.99-6.26,4.07-10.93,16.9-19.01,11.99,5.54-4.95,31.7-29.71,31.79-34.66-.31-1.67-4.81-4.49-3.79-5.32,10.12,3.32,14.84-2.38,10-12,.57-.51,9.37,4.77,13.08-4.11,1.03-2.46-1.36-5.72-1.11-5.89.84-.57,5.19.93,7.58-.44,4.16-2.38,4.06-10.11.44-13.55,4.7-1.38,5.45,6.04,10,1.98Z"/>
      <path class="cls-1" d="M26.17,134.52c8.08,4.91,12.75-7.92,19.01-11.99,3.67,11.32-13.92,16.61-19.01,23.99h-2c1.65-7.16-7.65-.84-6-8,2.5-3.02,5.71-5.63,6-6,.76.51,1.32,1.59,2,2ZM25.17,138.52v2c1.3-.67,1.3-1.33,0-2Z"/>
      <path class="cls-2" d="M28.17,132.52c8.02-9.4,7.25-20.63,11.63-31.37,5.65-13.86,59.01-72.26,72.34-83.66,11.05-9.44,21.86-19.08,36.12-8.07,36.81,26.17-44.76,86.63-62.03,108.16-15.59,14.39-41.67,18.27-52.06,30.93h-2c4.87-8.31,27.37-33.52,34.95-38.2,3.28-2.03,6.4.85,7.05.19.5-.51-3.76-6.06,2.98-10.21,3.95-2.43,6.81.53,7.02.25,1.84-2.42-1.87-14.66,12.02-12.04-6.22-10.3,4.32-6.64,3.99-13.98,1.21-.75,7.08,2.92,7.99,1.99.52-2.75-1.98-5.7-1.99-7.99,4.22-7.75,13.39-3.46,13.99-4.01,4.17-3.83-7.43-3.75-3.99-7.99,12.15-1.13-1.2-12.25,15.99-6.01-5.78-10.92,9.21-12.65,9.78-22.96.64-11.54-15.81-6.81-19.24-2.49s-1.1,16.72-13.56,9.51c1.43,5.27.27,10.48-5.01,13.09-4.4,2.17-6.87-4.28-7.94-3.13-3.8,4.07,5.88,3.43,3.96,6.96l-5.98,9.04c-4.56,4.06-5.29-3.36-10-1.98,3.62,3.44,3.72,11.17-.44,13.55-2.4,1.37-6.74-.13-7.58.44-.25.17,2.14,3.43,1.11,5.89-3.72,8.88-12.51,3.61-13.08,4.11,4.84,9.62.12,15.32-10,12-1.02.83,3.48,3.65,3.79,5.32.66,3.55-24.75,28.78-29.79,32.66Z"/>
      <path class="cls-7" d="M34.17,148.52c-.44.54-.89,2.52-2,4l-3.96,1.02c1.05-1.75,2.98-3.35,3.96-5.02h2Z"/>
      <path class="cls-3" d="M24.17,146.52h2c-4.6,6.66-5.1,19.03-14.92,20.1-3.54.38-5.31,1.14-5.14-3.13.34-8.73,8.55-20.04,18.07-16.97Z"/>
      <path class="cls-6" d="M25.17,138.52c1.3.67,1.3,1.33,0,2v-2Z"/>
      <path class="cls-5" d="M94.17,60.52l5.98-9.04c1.92-3.53-7.75-2.89-3.96-6.96,1.07-1.14,3.54,5.3,7.94,3.13,5.28-2.6,6.44-7.82,5.01-13.09,12.46,7.21,10.15-5.24,13.56-9.51s19.89-9.05,19.24,2.49c-.58,10.31-15.56,12.04-9.78,22.96-17.19-6.24-3.84,4.88-15.99,6.01-3.44,4.25,8.16,4.17,3.99,7.99-.59.54-9.77-3.74-13.99,4.01-2.01-7.97,7.63-10.76,10-12,.4-.45.47-3.29,1.94-4.98,3.3-3.77,23.86-23.29,20.05-27.01-7.56-7.38-33.81,31.49-39.99,35.99-.93-.18-2.87.14-4,0Z"/>
      <path class="cls-1" d="M100.17,64.52c.03.33-2.19,1.59-2.14,2.78.06,1.63,6.19-.28,2.14,7.22l-49.98,46c2.01-16.43,37.73-41.02,45.98-60,.72.11,1.67-.23,2,0,.18.13,1.95,3.55,2,4Z"/>
      <path class="cls-4" d="M98.17,60.52c6.18-4.49,32.43-43.37,39.99-35.99,3.82,3.73-16.75,23.24-20.05,27.01-1.47,1.69-1.54,4.53-1.94,4.98-1.05,1.16-8.37,1.97-10,8h-6c-.05-.45-1.82-3.87-2-4Z"/>
    </g>
  </g>
</svg>