<?xml version="1.0" encoding="UTF-8"?>
<svg id="Calque_2" data-name="Calque 2" xmlns="http://www.w3.org/2000/svg" viewBox="0 0 126.1 203.41">
  <defs>
    <style>
      .cls-1 {
        fill: #8aa25d;
      }

      .cls-2 {
        fill: #91a9b3;
      }

      .cls-3 {
        fill: #537ea0;
      }

      .cls-4 {
        fill: #f7f7f0;
      }

      .cls-5 {
        fill: #3b5051;
      }

      .cls-6 {
        fill: #4a3d2c;
      }
    </style>
  </defs>
  <g id="Calque_1-2" data-name="Calque 1">
    <g>
      <g>
        <path class="cls-5" d="M32.4,94.22c17-.2,40.66,3.86,57.69,6.3,6.7,33.44,1.61,67.51,2.11,101.5-2.05,2.33-28.36,1.51-31.82-.78-8.45-14.32-4.56-40.51-8.98-57.04-1.47-.01-7.78,24.93-9,28.02-1.84,4.67-10.25,24.73-13.35,25.75-6.82,2.25-21.01-6.07-28.77-6.9-2.21-12.92,8.83-52.58,13.12-66.84,1.64-5.46,6.57-23.45,8.82-26.8,1.69-2.51,4.56-.71,6.17-1.2-.64,7.86-.35,4.93,4.83,6.07,18.12,3.99,36.93,4.61,55.16,7.92,5.87-12.26-61.51-4.6-55.99-15.99ZM20.4,120.22c-1.92,8.17-3.6,15.93-6,24-1.67,5.6-5.44,11.09-4,18-4.03,12.17-1.5,13.98-2,24-.01.24-2.5.45-2,1.97l8,.03c3.75,2.21,8.84,7.02,14.14,3.14,6.05-6.39,12.7-51.82,25.84-53.13,2.38,1.71,6.91,50.85,6.02,57.91,9.01,3.29,18.6,1.86,28.01,2.09l-.22-83.8c-20.76-3.31-43.34-7.81-63.87-9.4-3.1,4.52-2.74,10.19-3.91,15.2Z"/>
        <path class="cls-3" d="M32.4,94.22c-5.5,11.4,61.85,3.72,55.99,15.99-18.23-3.3-37.03-3.93-55.16-7.92-5.18-1.14-5.47,1.79-4.83-6.07.96-.29,2.18-1.97,4-2Z"/>
        <path class="cls-4" d="M54.4,172.22h-12c1.22-3.09,7.53-28.03,9-28.02,2.36,8.98,1.83,18.95,3,28.02Z"/>
        <path class="cls-3" d="M34.4,106.22c17.91,2.01,36.02,5.13,53.79,8.21l.22,83.8c-9.41-.24-19,1.2-28.01-2.09.89-7.06-3.64-56.2-6.02-57.91-13.28,1.51-19.71,46.61-25.84,53.13-8.39,5.64-12.77-6.14-20.14-5.14.5-10.02-2.03-11.83,2-24,.08-.23,2.81-.52,3.62-3.29,1.3-4.46.01-10.03.38-14.71,4.34-13.93,4.36-31.63,20-38Z"/>
        <path class="cls-2" d="M34.4,106.22c-5.99,2.93-11.12,7.83-14,14,1.17-5,.81-10.68,3.91-15.2,1.62-1.25,7.31.88,10.09,1.2Z"/>
        <path class="cls-2" d="M10.4,162.22c-1.44-6.91,2.33-12.4,4-18-.62,5.23,2.56,16.36-4,18Z"/>
        <path class="cls-2" d="M14.4,188.22l-8-.03c-.5-1.53,1.99-1.73,2-1.97,3.12-.86,4.07.86,6,2Z"/>
      </g>
      <g>
        <path class="cls-6" d="M98.4,52.22c-1.55,9.8,2.9,33.16-1.84,40.67-5.71,9.03-57.41-5.53-68.69-5.14-12.48-4.59,2.17-36.52.51-47.53-11.79,10.89-23.64-15.73-21.72-22.58S39.68-.72,47.44.04c10.37,1,6.07,13.34,20.46,15.73,19.17,3.19,9.77-14.91,29.61-7.64,5.63,2.06,27.51,20.37,28.5,25.59,1.09,5.73-7.34,14.71-11.61,18.5h-2c-.05-5.06,5.19-9.91,6-14,.41-2.06.46-5.6-.54-7.47-.77-1.44-18.92-17.65-20.84-18.06-13.31-2.82-8.75,2.58-15.09,6.01-6.58,3.56-16.18,3.61-22.59-.45-10.44-6.6-.55-14.36-20-12.08-10,1.17-9.97,5.6-14.53,7.87-2.02,1-13.45,2.93-14.42,4.21,4.91,13.78,7.27,22.81,24,17.98l-7.75,42.84c.53,2.12,2.8,2.59,4.57,3.35,6.5,2.78,43.74,8.45,52.78,9.36,2.26.23,4.4,1.12,6.53-.39,3.27-2.37,2.12-33.7,5.88-41.16.77.45,1.4,1.74,2,2Z"/>
        <path class="cls-5" d="M102.4,46.22c1.92,5.38,6.78,6.54,12,6-6.45,5.74-7.58,3.67-16,0-.6-.26-1.23-1.55-2-2,.77-1.53,1.53-3,3.03-3.98l2.97-.02Z"/>
        <path class="cls-1" d="M96.4,50.22c-3.75,7.46-2.61,38.79-5.88,41.16-2.14,1.51-4.28.62-6.53.39-9.04-.91-46.28-6.58-52.78-9.36-1.77-.76-4.04-1.23-4.57-3.35l7.75-42.84c-16.73,4.84-19.1-4.2-24-17.98.98-1.28,12.4-3.21,14.42-4.21,4.56-2.27,4.54-6.69,14.53-7.87,19.45-2.28,9.57,5.48,20,12.08,6.41,4.06,16.01,4.01,22.59.45,6.34-3.43,1.78-8.83,15.09-6.01,1.92.41,20.07,16.62,20.84,18.06,1,1.87.95,5.41.54,7.47-2.7,4.97-10.03,5.42-10.04,9.98l-5.96-1.98-2.97.02c-1.5.99-2.26,2.45-3.03,3.98Z"/>
        <path class="cls-2" d="M112.4,52.22c-4.72.52-8.25-1.62-10-6l5.96,1.98c0-4.56,7.33-5,10.04-9.98-.81,4.09-6.05,8.94-6,14Z"/>
      </g>
    </g>
  </g>
</svg>