<?xml version="1.0" encoding="UTF-8"?>
<svg id="Calque_2" data-name="Calque 2" xmlns="http://www.w3.org/2000/svg" viewBox="0 0 173.57 167.62">
  <defs>
    <style>
      .cls-1 {
        fill: #704834;
      }

      .cls-2 {
        fill: #8f625d;
      }

      .cls-3 {
        fill: #f7f7f0;
      }

      .cls-4 {
        fill: #4a3d2c;
      }

      .cls-5 {
        fill: #a78a6a;
      }
    </style>
  </defs>
  <g id="Calque_1-2" data-name="Calque 1">
    <g>
      <path class="cls-3" d="M129.82,23.53c7.12,5.64,20.4,19.41,24,28,2.05,4.37,1.06,14.12,6.99,17.96,11.85-6.63,5.77-7.41,3.01-15.96-1.34-4.15,1.42-7.46-4-12-.29-2.12-.83-4.19-2-6,3.46-4.29,14.84,4.47,15.7,7.43.36,1.22-1.58,23.9-2.02,25.25-2.84,8.82-16.29,1.34-19.47,3.54-1.71,1.18,0,9.42-6.22,7.78-5.95-15.46-6.98-15.64-18-26-1.39-10.15-29.28-20.03-38-16-7.97.43-19.34-2.6-24,6-23.8,4.32-29.42,44.61-16.91,63.91,18.63,28.72,68.4,18.01,62.42-18.43-4.82-29.37-42.25-22.96-37.35-6.72,2.66,8.83,9.08-.97,10.73-.95,24.36.34,12.39,40.97-14.8,25.1-14.57-8.5-16.92-29.57-8.09-42.91,4.83-6.07,10.52-9.32,18-10,7.73-1.73,2.44-2.82,4-4,3.67-2.78,18.9,4.18,24,4,3.31,6.09,8.99,5.55,12,8,1.1.89,2.85,4.4,4,6,1.38,1.93,1.05,7.02,6,8,.15,2.83-.44,5.88,2,8-.23,3.37-.11,8.8,2,12-2.63,31.31-19.6,41.92-48,48-19.15.31-42.1-9.71-54-25-1.16-1.52-7.73-12.12-8-13-1.88-6.06-1.12-30.66-2-32C31.72,23.03,84.61-2.91,129.82,23.53Z"/>
      <path class="cls-1" d="M117.82,5.53c-1.18,3.65-2.74,5.55,1.01,7.99l2.99-5.99c7.39,3.05,9.14,3.17,16,8-.07,1.32.11,2.68,0,4h-7.99s-.01,4-.01,4c-45.23-26.44-98.1-.49-108,50-11.22,1.02,3.66-17.66-6-22C24,7.25,79.07-9.83,117.82,5.53Z"/>
      <path class="cls-1" d="M145.82,79.53c.4,1.04-.44,3.61,0,4l2,4c2.22,17.07-3.93,29.76-12,44-2.94.9-9.34.62-11.54,2.48-1.6,1.36-1.22,5.25-2.94,7.02-3.63,3.75-16.01,2.1-9.52,10.5-2.89,1.39-3.41,2.59-8,4v-3.99c-4.5.17-11.24.5-10,5.99-9.37,1.39-9.45,1.13-18,0,3.42-1.01,5.3-4.21,7.8-5.77,3.43-2.14,6.21,2.42,2.2-8.23,28.4-6.07,45.4-16.74,48-48,1.09-1.09,6.29,2.36,3.99-9.99l-5.99,1.99c0-1.1-.19-3.83,0-4,.6-.53,12.01-.72-2-6-.19-3.26.13-6.69,0-10.01h-6c-1.15-1.59-2.9-5.1-4-5.99l8-8c11.02,10.36,12.05,10.54,18,26Z"/>
      <path class="cls-1" d="M23.82,105.53c9.37,21.6,34.67,36.76,58,38-5.5,2.24-20.75,5.03-22,10-2.94-1.02-8.35-1.2-10-2-1.4-.68-18.88-12.95-20-14-2.53-2.39-7.42-13.38-8-14,5.27-12.41-2.02-6.24-3.78-8.12-1.63-1.73-1.84-13.31,5.78-9.88Z"/>
      <path class="cls-3" d="M21.82,33.53c-10.36,29.27-23.87,59.6-4.18,88.79,1.65,2.35,3.92.93,4.18,1.21.58.62,5.47,11.61,8,14,1.12,1.05,18.6,13.32,20,14-12.34,9.94-17.84-12.19-20-14-.26-.22-3.73.05-5.73-1.18-19.28-11.74-11.89-11.98-16.86-31.23C5.04,96.66-.61,87.03.05,76.42c.21-3.39,4.43-7.55,5.31-12.35,1.16-6.3-1.02-15.75,1.43-20.57.42-.82,11.55-11.91,15.03-9.97Z"/>
      <path class="cls-3" d="M63.82,155.53c27.4,6.81,43.05.82,66-14-1.06,18.83-36.58,32.96-51.58,22.58-6.16-1.69-13.54,1.07-14.42-8.58Z"/>
      <path class="cls-2" d="M141.82,17.53c5.09,5.39,17.29,16.03,18,24-6.96,1.35-2.08-4.15-5-6.08-6.59-1.22-7.96-.19-7,6.08-1.71-2.46-15.79-16.64-18-18,9.93.6,7.52.59,8-8,1.15.81,3,1.17,4,2Z"/>
      <path class="cls-2" d="M85.82,143.53c4.01,10.65,1.23,6.09-2.2,8.23-2.5,1.56-4.38,4.76-7.8,5.77-5.23-.73-11.58-.98-16-4,.27-1.19.87-2.49,2.05-2.93,8.01-2.58,15.01-7.2,23.95-7.07Z"/>
      <path class="cls-2" d="M135.82,131.53c-4.39,11.12-13.95,15.13-24,20-6.5-8.4,5.88-6.75,9.52-10.5,1.72-1.78,1.34-5.67,2.94-7.02,2.2-1.86,8.6-1.57,11.54-2.48Z"/>
      <path class="cls-1" d="M89.82,37.53c5.99,1.67,20.26,8.11,18,16-5.1.18-20.33-6.78-24-4h-3.99s0,4,0,4c-4.62,1.03-7.68.96-12,4l-4.02-6.02c-8.4,3.24-11.43,6.78-1.98,12.02-8.83,13.34-6.48,34.41,8.09,42.91,27.19,15.87,39.17-24.76,14.8-25.1-1.65-.02-8.07,9.77-10.73.95-4.9-16.24,32.53-22.65,37.35,6.72,5.98,36.44-43.79,47.15-62.42,18.43-12.52-19.3-6.9-59.59,16.91-63.91,4.98-.9,16.93,1.99,16-6,2.45-.03,5.83-.39,8,0Z"/>
      <path class="cls-2" d="M15.82,51.53c7.75,5.08.12,13.89,1.94,20.69.57,2.1,3.94,1.14,4.06,1.31.88,1.34.12,25.94,2,32-7.62-3.43-7.41,8.15-5.78,9.88,1.76,1.88,9.05-4.29,3.78,8.12-.27-.28-2.53,1.14-4.18-1.21-15.96-22.68-10.1-47.88-1.82-70.79Z"/>
      <path class="cls-2" d="M127.82,53.53l-8,8c-3.01-2.45-8.69-1.91-12-8-.38-.71.78-3.32-.57-5.39-2.57-3.93-12.92-9.8-17.43-10.61,8.66-4.04,36.64,5.85,38,16Z"/>
      <path class="cls-1" d="M147.82,41.53c-.96-6.28.41-7.3,7-6.08,1.8.33.37,4.41,1.35,5.7.89,1.16,3.32.11,3.65.39,5.42,4.54,2.66,7.85,4,12l-10-2c-.42-.9-5.28-8.97-6-10Z"/>
      <path class="cls-5" d="M163.82,53.53c2.76,8.55,8.85,9.34-3.01,15.96-5.93-3.84-4.94-13.6-6.99-17.96l10,2Z"/>
      <path class="cls-2" d="M61.82,63.53c-9.45-5.24-6.42-8.77,1.98-12.02l4.02,6.02c-.35.24-5.77,5.65-6,6Z"/>
      <path class="cls-2" d="M81.82,37.53c.93,7.99-11.02,5.1-16,6,3.25-6.48,9.84-5.92,16-6Z"/>
      <path class="cls-2" d="M131.82,87.53l5.99-1.99c2.3,12.35-2.9,8.9-3.99,9.99-1.45-2.46-2.02-5.16-2-8Z"/>
      <path class="cls-2" d="M123.82,67.53h6c.28,2.59-.35,5.46,0,8-4.95-.98-4.62-6.07-6-8Z"/>
      <path class="cls-2" d="M129.82,77.53c14.01,5.28,2.6,5.47,2,6-1.97-1.68-1.81-3.7-2-6Z"/>
      <path class="cls-5" d="M83.82,49.53c-1.56,1.18,3.73,2.27-4,4v-3.99s4,0,4,0Z"/>
      <path class="cls-4" d="M137.82,19.53c-.52,6.26-.66,3.78-8,4v-3.99s8-.01,8-.01Z"/>
      <path class="cls-2" d="M121.82,7.53l-2.99,5.99c-3.75-2.44-2.19-4.34-1.01-7.99,1.75.61,2.81,1.51,4,2Z"/>
      <path class="cls-2" d="M93.82,157.53c-1.24-5.49,5.5-5.82,9.99-5.99v3.99c-4.22,1.3-5.85,1.39-9.99,2Z"/>
    </g>
  </g>
</svg>