<?xml version="1.0" encoding="UTF-8"?>
<svg id="Calque_2" data-name="Calque 2" xmlns="http://www.w3.org/2000/svg" viewBox="0 0 128.6 140.71">
  <defs>
    <style>
      .cls-1 {
        fill: #704834;
      }

      .cls-2 {
        fill: #8f625d;
      }

      .cls-3 {
        fill: #c5503d;
      }

      .cls-4 {
        fill: #cb844b;
      }

      .cls-5 {
        fill: #cfae8a;
      }

      .cls-6 {
        fill: #4a3d2c;
      }

      .cls-7 {
        fill: #a78a6a;
      }
    </style>
  </defs>
  <g id="Calque_1-2" data-name="Calque 1">
    <g>
      <path class="cls-6" d="M111.47,52.5c4.51,9.97,17.23,32.93,15.96,42.82-.6,4.7-5.33,11.56-7.09,17.06-1.62,5.06.4,10.39-2.72,15.28-3.62,5.65-18.32,12.25-25.15,12.86-16.1,1.44-14.4-4.85-25.2-10.81-12.06-6.66-16.92-1.19-23.25-18.75-4.46-12.37-7.82-29.65-10.56-42.46-7.38-2.44-7.28,8.67-14.65,7.59-2.92-.43-17.44-12.24-18.54-15.48-2.6-7.63,13.77-30.96,20.19-36.09,13.14-10.5,24.74-5.94,38.39-11.61,7.16-2.98,12.08-10.62,18.03-11.97,15.6-3.53,38.12,3.72,51.71,11.57l-5.27,29.86-15.86-1.85c2.15-2.28,5.26-2,8-4,4.62-3.38,7.8-15.54,5.1-20.02-1.81-3-22.29-8.8-27.1-9.98-8.48-3.12-14.3-4.82-18,6-6.16-1.73-14.77,3.81-20,8-4.69.63-10.9-1.22-14,4v2c-20.52-6.96-26.71,15.92-35.18,30.11l12.41,13.76c3.63.68,11.08-10.02,16.74-7.87,0,0,14.97,50.04,14.97,50.04,3.31,4.38,21.41-1.97,31.05,11.95,5.97,8.62,3.46,15.55,20.02,7.02,13.15-6.34-1.04-14.51,11.98-29.02-2.08,3.86-1.91,15.2-1.98,19.99l5.56-17.41c1.15-2.91,6.79-6.24,3.43-8.57-.93,2.22-6.52,5.09-7.01,5.99,12.83-20.96-5.61-28.43-4-50h2ZM81.45,130.54c-10.34-2.81-7.5-14.17-25.97-12.02,1.16,4.17,8.22,3.14,11.8,5.17,4.42,2.51,9.31,7.35,13.2,10.8,1.71.26,1.18-3.71.97-3.95Z"/>
      <path class="cls-1" d="M115.47,36.5c-2.74,2-5.85,1.72-8,4l-1.96.99c4.36,2.89,4.29,7.32,5.96,11.01h-2c-.27-.87-9.86-14.37-7.99-15.99h13.99Z"/>
      <path class="cls-3" d="M115.47,36.5h-13.99c-1.87,1.63,7.72,15.13,7.99,16,.8,2.59-.45,7.77.9,12.08,6.05,19.29,12.83,18.15,3.1,37.92-1.89,3.84-4.71,4.17-6,12l-4.01,8-10.06-1.15-1.95,9.14-1.97-6.98-8.01.99c-9.64-13.92-27.74-7.57-31.05-11.95l-14.97-50.04c-5.66-2.16-13.11,8.54-16.74,7.87l-12.41-13.76C15.29,40.2,25.08,13.76,46.42,30.46c8.05,1.51,22-.48,27.12-7.43,2.38-3.22,3.54-12.11,5.84-13.62,3.79-2.49,11.03,1.27,14.09-2.91,4.81,1.18,25.29,6.99,27.1,9.98,2.7,4.48-.48,16.64-5.1,20.02ZM63.45,62.48l6.01-21.97-7.56,15.42,1.55,6.55Z"/>
      <path class="cls-4" d="M107.47,114.5c-1.37,8.32,3.89,11.92-5.98,17.02-16.55,8.54-14.05,1.6-20.02-7.02l8.01-.99,1.97,6.98,1.95-9.14,10.06,1.15,4.01-8Z"/>
      <path class="cls-1" d="M93.47,6.5c-3.06,4.18-10.3.42-14.09,2.91-2.3,1.51-3.47,10.4-5.84,13.62-5.19,7.17-27.39,12.33-32.06,3.47v-2c10.23,3.85,13.36,2.45,22-2,4.59-.47,7.75-4.42,10-8,3.07-1.7,3.27-7.91,7.46-9.9,6.47-1.36,8.27.85,12.54,1.9Z"/>
      <path class="cls-2" d="M55.47,20.5c3.44-.46,6.58-1.59,10-1.98l-2,3.98c-8.64,4.45-11.77,5.85-22,2,3.1-5.22,9.31-3.37,14-4Z"/>
      <path class="cls-2" d="M113.47,102.5c.49-.9,6.08-3.77,7.01-5.99,3.36,2.33-2.27,5.66-3.43,8.57l-5.56,17.41c.07-4.79-.1-16.13,1.98-19.99Z"/>
      <path class="cls-7" d="M73.47,12.5l-1.96,1,1.96,1c-2.25,3.57-5.42,7.54-10,8l2-3.98c-3.42.4-6.55,1.52-10,1.98,4.28-3.16,13.16-9.75,18-8Z"/>
      <path class="cls-2" d="M81.45,130.54c.21.24.74,4.21-.97,3.95-3.89-3.45-8.78-8.29-13.2-10.8-3.58-2.03-10.64-1.01-11.8-5.17,18.51-2.13,15.6,9.19,25.97,12.02Z"/>
      <path class="cls-3" d="M75.47,12.5c-.62.71-1.38,1.31-2,2l-1.96-1,1.96-1h2Z"/>
      <polygon class="cls-5" points="63.45 62.48 61.9 55.93 69.45 40.51 63.45 62.48"/>
    </g>
  </g>
</svg>