<?xml version="1.0" encoding="UTF-8"?>
<svg id="Calque_2" data-name="Calque 2" xmlns="http://www.w3.org/2000/svg" viewBox="0 0 90.21 167.07">
  <defs>
    <style>
      .cls-1 {
        fill: #704834;
      }

      .cls-2 {
        fill: #ddb762;
      }

      .cls-3 {
        fill: #e8b93e;
      }

      .cls-4 {
        fill: #c5503d;
      }

      .cls-5 {
        fill: #cb844b;
      }

      .cls-6 {
        fill: #cfae8a;
      }

      .cls-7 {
        fill: #4a3d2c;
      }

      .cls-8 {
        fill: #a78a6a;
      }
    </style>
  </defs>
  <g id="Calque_1-2" data-name="Calque 1">
    <g>
      <path class="cls-7" d="M82.19,10.8l-4,4C58.41,8.63,37.44,6.95,17.22,2.77l-1.04,6.02c21.82-.2,42.92,9.13,64.02,12.01v2L14.19,12.79c1.65,29.44-3.84,58.78-6,88.01-.04,6.9,0,13.81-.1,20.73.21.8,4.87,2.83,6.1,3.27v4c-7.71-3.11-10.1,11.3-6,16,6.8,1.33,10.06-4.62,16.78-4.02,7.21.64,24.06,25.66,25.19.74-.17-8.78-5.18-2.7-3.97-10.72,2.59.02,5.23.42,7.77-.21,10.04-29.16,13.37-59.5,26.23-87.79h2c-3.99,33.26-17.41,65.64-27.44,97.55-6.03,18.46,1.33,29.25-25.35,26.23-23.56-6.54-34.38-2.89-27.21-31.77,3.5-1.05,1.51-5.34,2-8,1.18.38,2.07-1.19,2-2-2.18-24.16.46-39.49,1.98-63.02,1.31-20.16.07-40.98,4.23-60.76,5.12-4.37,60.29,6.6,69.79,9.78ZM32.18,146.83c-1.69-1.74-13.37-3.89-13.99,1.95,1.95,1.74,19.58,3.83,13.99-1.95ZM46.19,156.82l-39.99-6.01c-.94,5.16.91,3.54,3.97,4.92,7.96,3.58,30.01,9.26,36.02,1.09Z"/>
      <path class="cls-1" d="M82.19,42.8h-2c1.98-7.25,5.92-14.22,0-20v-2c1.92.26,4.05-.09,6,0,1.43-5.34-3.57-4.61-8-5.99l4-4c14.51-2.54,5.25,20.76,3.48,28.56-.62,2.28-3.42,3.2-3.48,3.44Z"/>
      <path class="cls-1" d="M4.19,126.8c.11-.92,1.07-1.77,2-2,.07.81-.82,2.38-2,2Z"/>
      <path class="cls-1" d="M2.19,134.8c.25-.87,1.17-1.6,2-2-.16.95-1.04,1.76-2,2Z"/>
      <path class="cls-2" d="M80.19,22.8c9.06,9.81-5.39,29.46-8,40,.59-1.12,3.69-21.71,4.03-25,.55-5.33-7.5,1.46-4.02-3.98,1.11-1.74,9.47-3.79,5.99-7-1.96-1.8-50.13-8.59-52.65-7.74-4.84,1.64-6.53,24.87-5.48,28.65.66,2.37,5.17.5,6.13,1.06-1.86,6.71,11.96,3.38,16,2,3.64-1.08,4.82,2.04,4-6,2.53,3.14,1.74,7.22,4,9.08,5.36,2.54,5.38-2.06,7.99,4.92.93,2.99.66,7.87,2,12,.44,1.36-1.08,3.36,1.01,4.01,6.46,2.01,4.25-1.76,4.99-4.01,3.06-9.28,5.74-7.5,6-8-6.43,22.43-10.63,45.66-18.23,67.79-5.54,1.18-13.76-.45-17.77-1.79v-2c3.25.31,11.94.67,14.13-.87,5.68-3.99,3.78-26.45,5.86-33.11-5.26-2.16-3.44,4.07-5.1,4.1-1.06.02-8.46-1.65-10.89-2.11v-7.99c-4.29-.57-4.43-.15-4,3.99-4.79-4.1-10.44-4.69-16.49-1.96-4.43,2-4.52,20.1-3.15,24.6,1.54,5.04,8.58,3.57,7.64,9.37-12-3.38-15.06-6.73-16-20l1.96-1-1.96-1c2.16-29.23,7.65-58.56,6-88.01l66,10.01ZM50.19,78.8c18.94-16.38-15.23-35.07-22.97-15.97-2.59,6.4.41,15.2-6.99,20.99,4,1.5,5.35-6.9,7.1-7.16,7.85-1.17,9.62,13.59,22.86,2.14ZM22.18,62.81h-5.98v3.98h5.98v-3.98ZM52.21,82.81c-.66,2.93.84,4.18,3,5.95l-1.04-5.95h-1.96Z"/>
      <path class="cls-5" d="M46.19,134.8c.8,1.39,4.24.83,3.97,6.72-1.13,24.92-17.98-.1-25.19-.74-6.72-.59-9.99,5.35-16.78,4.02-2.15-27.17,23.22-4.93,38-10Z"/>
      <path class="cls-2" d="M78.19,14.8c4.44,1.38,9.44.66,8,5.99-23.43-.12-46.07-12.66-70.02-12l1.04-6.02c20.22,4.19,41.19,5.86,60.97,12.03Z"/>
      <path class="cls-8" d="M46.19,156.82c-6.01,8.16-28.06,2.49-36.02-1.09-3.06-1.37-4.91.24-3.97-4.92l39.99,6.01Z"/>
      <path class="cls-1" d="M36.19,128.8c3.12.49,4.51,1.96,10,2,.26,1.17-.39,3.32,0,4-8.91,3.48-25.72-5.22-32-4v-6c6.67,2.42,15.12,2.91,22,4Z"/>
      <path class="cls-6" d="M8.19,106.8c4.24,12.97,4.11,11.83,16,16,3.34,1.17,8.63,3.68,12,4v2c-8.83-1.53-20.83-1.54-28.1-7.27.12-4.9-.02-9.84.1-14.73Z"/>
      <path class="cls-5" d="M32.18,146.83c5.59,5.77-12.03,3.69-13.99,1.95.62-5.83,12.3-3.69,13.99-1.95Z"/>
      <path class="cls-6" d="M14.19,128.8v2c-3.96.77-8.06,9.73-6,14-4.1-4.7-1.71-19.11,6-16Z"/>
      <path class="cls-1" d="M8.19,102.8c.03-.67-.03-1.33,0-2l1.96,1-1.96,1Z"/>
      <path class="cls-3" d="M26.19,48.8c-.95-.56-5.47,1.31-6.13-1.06-1.05-3.79.64-27.02,5.48-28.65,2.52-.85,50.69,5.93,52.65,7.74,3.48,3.21-4.88,5.25-5.99,7-3.48,5.45,4.57-1.35,4.02,3.98-.34,3.29-3.44,23.88-4.03,25-.26.5-2.94-1.28-6,8h-6c-1.34-4.13-1.07-9.01-2-12,3.69-.08,6.73-1.98,5.99-5.99l-7.99,1.99c-9.26.46-5.91-3.19-10-10,.4-2.49-2.18-1.95-3.99-1.99v7.99c-3.88,1.15-7.9,2.27-12.01,2v-5.99s-2.98,0-2.98,0l-1.02,1.98Z"/>
      <path class="cls-3" d="M24.19,122.8c.95-5.8-6.1-4.33-7.64-9.37-1.37-4.5-1.29-22.6,3.15-24.6,6.05-2.73,11.7-2.14,16.49,1.96,1.06.91-2.85,2.69,4,4,2.42.46,9.82,2.13,10.89,2.11,1.66-.03-.16-6.26,5.1-4.1-4.04,27.05,4.09,43.28-31.99,29.99Z"/>
      <path class="cls-1" d="M50.19,78.8c12.03-32.47-33.08-20.86-17.04-1.95,2.45,2.42,16,2.83,17.04,1.95-13.24,11.45-15.01-3.31-22.86-2.14-1.75.26-3.1,8.66-7.1,7.16,7.4-5.79,4.39-14.59,6.99-20.99,7.74-19.1,41.91-.41,22.97,15.97Z"/>
      <path class="cls-1" d="M56.19,54.8l7.99-1.99c.74,4.01-2.3,5.91-5.99,5.99-.07-.21-1.81-3.89-2-4Z"/>
      <path class="cls-1" d="M46.19,44.8c.82,8.04-.36,4.92-4,6v-7.99c1.83.04,4.39-.51,4,1.99Z"/>
      <path class="cls-4" d="M36.19,90.8c-.43-4.13-.29-4.56,3.99-3.99v7.99c-6.84-1.31-2.93-3.09-3.99-4Z"/>
      <path class="cls-1" d="M26.19,48.8l1.02-1.98h2.97s.01,5.98.01,5.98c-6.28-.41-3.32-3.6-4-4Z"/>
      <path class="cls-1" d="M66.19,70.8c-.74,2.25,1.47,6.02-4.99,4.01-2.09-.65-.57-2.65-1.01-4.01h6Z"/>
      <rect class="cls-1" x="16.2" y="62.81" width="5.98" height="3.98"/>
      <path class="cls-1" d="M52.21,82.81h1.96l1.04,5.95c-2.16-1.77-3.66-3.02-3-5.95Z"/>
      <path class="cls-5" d="M50.19,78.8c-1.04.88-14.59.47-17.04-1.95-16.04-18.91,29.07-30.51,17.04,1.95Z"/>
    </g>
  </g>
</svg>