<?xml version="1.0" encoding="UTF-8"?>
<svg id="Calque_2" data-name="Calque 2" xmlns="http://www.w3.org/2000/svg" viewBox="0 0 206.54 186.98">
  <defs>
    <style>
      .cls-1 {
        fill: #91a9b3;
      }

      .cls-2 {
        fill: #8f625d;
      }

      .cls-3 {
        fill: #b7cfd7;
      }

      .cls-4 {
        fill: #f7f7f0;
      }

      .cls-5 {
        fill: #3b5051;
      }

      .cls-6 {
        fill: #a78a6a;
      }
    </style>
  </defs>
  <g id="Calque_1-2" data-name="Calque 1">
    <g>
      <path class="cls-5" d="M190.24,83.9c.34,10.75,3.02,3.3,12,8,.15,2.12,6.12,5.54,3.74,12.67-1.5,4.5-8.61,4.3-9.43,5.64-1.04,1.69-.09,7.06-.82,10.15-3.53,16.51-9.41,38.82-25.34,45.74-2.55,3.7,11.07,11.65,3.01,17.96-9.92,7.77-16.37-9.08-22.13-10.19-11.66-2.24-39.42-.12-53.03.03v-4c50.82,1.13,89.89,2.07,93.99-59.99-59.03,9.46-118.83,4.39-177.99,0,11.86,34.24,14.24,56.14,56,59.98v4c-3.99.18-8.89-.78-12.61.38-4.84,1.5-9.63,17.36-19.12,11.35-6.15-3.9,1.76-15.4,1.59-16.48-22.98-16.89-20.21-37.48-30.24-57.86-3.14-5.52-11.12-4.31-9.69-14.27,8.85-24.51,94.35,6.02,121.15-3.03,0,0,54.92-4.08,54.92-4.08V22.9c0-7.42-13.76-12.65-19.16-5.03,16.9,48.1-7.96,29.04-36.84,16.03.57-1.53-1.02-5.19.44-7.51,4.1-6.55,18.17-8.76,23.54-11.51,5.68-2.91,8.76-15.49,22.85-14.86,32.88,1.47,22.44,60.86,23.17,83.88ZM180.25,89.89c13.41,5.16,4.68-75.79.95-77.94-6.96-9.82-31.43-8.92-30.94,5.95,44.32-35.11,30.36,49.7,29.99,71.99ZM158.23,37.89c-.34-17.3-13.91-22.5-27.97-13.95-1.76,2.13,4.52,7.28,5.59,7.76,2.1.95,21.55,6.99,22.38,6.19ZM128.23,29.92h-3.98v1.96h3.98v-1.96ZM131.24,31.9v2c1.3-.67,1.3-1.33,0-2ZM146.22,37.93l-9.97-4.02v3.97s8.95,2.07,8.95,2.07l1.02-2.01ZM13.79,92.29c-6.83.9-14.97,7.09-6.12,11.18,11.63,5.36,40.23,3.64,53.64,4.36,40.32,2.16,91.77,5.53,131.43-2.4,12.64-2.53,12.18-10,.59-11.61-33.13-1.69-75.77,10.01-110.19,6.17-18.06-.84-54.44-9.67-69.36-7.69ZM165.8,170.37c-12.81-7.43-5.25,12.95,4.42,9.53,1-1-3.82-9.18-4.42-9.53Z"/>
      <path class="cls-4" d="M140.24,43.9c-.11,7.67-11.44,3.43-10.02,14.98l8.02,1.03c.05-2.66.01-5.34,0-8.01,3.17,1.34,6.77,1.24,10,2-10.72,11.9,2.56,19.33,4,4,.87.55,5.28-.68,5.94.05.86.95-1.63,10.51-2.93,11.97-2.94,3.31-13,2.05-15.02,3.98v-5.99s-6,1.99-6,1.99c1.77-10.56-9.7-9.05-16-6-.03-1.35-1.41-6.99-2-8,6.17-.09,8.3-6.78,7.99-11.99-.6-.59-9.71,1.56-9.99,1.99-.62.96.44,6.06,0,8-.86-.7-5.18,2.43-4.12-5.1.64-4.56,3.91-2.55,4.12-2.9.37-.62,5.75-11.32,6-12,7.07,2.29,13.17,7.25,20,10Z"/>
      <path class="cls-2" d="M84.24,169.9c4.64.23,9.35-.1,14,0v4c-8.6.1-18.73-.42-28,0v-4c4.42.47,9.43-.22,14,0Z"/>
      <path class="cls-2" d="M114.24,45.9c.28-.43,9.39-2.58,9.99-1.99.32,5.21-1.82,11.9-7.99,11.99-.13-.22-1.58-1.66-2-2,.44-1.94-.62-7.04,0-8Z"/>
      <path class="cls-2" d="M148.24,53.9c6.69,1.57,3.11,3.45,4,4-1.44,15.33-14.72,7.9-4-4Z"/>
      <path class="cls-2" d="M138.24,47.9c-.02,4,.06,8.02,0,12.01l-8.02-1.03c-.43-8.46,3.61-8.13,8.02-10.98Z"/>
      <path class="cls-6" d="M134.24,69.9l5.99-1.99v5.99c-.46.45-.42,4.96-2.99,5.99-8.92,3.58-3.28-6.78-3-9.99Z"/>
      <path class="cls-6" d="M124.24,61.9c.2,3.67.81,10.42-3.01,11.99-8.78,3.6-2.91-6.59-2.99-9.99,1.78-.93,3.98-1.99,6-2Z"/>
      <path class="cls-3" d="M44.24,111.9c1.75,10.17,26.14,6.89,32,2,39.09,1.31,77.22,3.16,115.99-3.99-9.65,79.43-51.6,51.95-107.99,59.99-50.7.94-56.17-16.68-70-59.98,10.12,2.9,19.92,1.38,30,1.98Z"/>
      <path class="cls-3" d="M13.79,92.29c14.93-1.97,51.3,6.86,69.36,7.7,34.38,3.84,77.11-7.87,110.19-6.18,11.58,1.61,12.05,9.08-.59,11.61-39.66,7.94-91.11,4.56-131.43,2.4-13.41-.72-42.01,1.01-53.64-4.36-8.86-4.08-.71-10.27,6.12-11.18Z"/>
      <path class="cls-3" d="M180.25,89.89c.36-22.2,14.33-107.15-29.99-71.99-.5-14.87,23.98-15.78,30.93-5.95,3.68,1.85,12.5,83.09-.94,77.94Z"/>
      <path class="cls-3" d="M158.23,37.89c-.83.81-20.28-5.24-22.38-6.19-1.07-.48-7.36-5.64-5.59-7.76,14.06-8.54,27.63-3.35,27.97,13.95Z"/>
      <path class="cls-4" d="M76.24,113.9c-5.86,4.89-30.25,8.17-32-2,10.69.63,21.18,1.57,32,2Z"/>
      <path class="cls-4" d="M124.24,169.9c-13.28.4-26.72-.04-40,0,11.62-3.36,28.54-3.34,40,0Z"/>
      <path class="cls-3" d="M165.8,170.37c.6.35,5.43,8.53,4.42,9.53-9.67,3.43-17.23-16.96-4.42-9.53Z"/>
      <polygon class="cls-1" points="146.22 37.93 145.21 39.94 136.24 37.87 136.26 33.9 146.22 37.93"/>
      <rect class="cls-1" x="124.25" y="29.92" width="3.98" height="1.96"/>
      <path class="cls-1" d="M131.24,31.9c1.3.67,1.3,1.33,0,2v-2Z"/>
    </g>
  </g>
</svg>