<?xml version="1.0" encoding="UTF-8"?>
<svg id="Calque_2" data-name="Calque 2" xmlns="http://www.w3.org/2000/svg" viewBox="0 0 184.97 135.67">
  <defs>
    <style>
      .cls-1 {
        fill: #704834;
      }

      .cls-2 {
        fill: #8f625d;
      }

      .cls-3 {
        fill: #cfae8a;
      }

      .cls-4 {
        fill: #4a3d2c;
      }

      .cls-5 {
        fill: #a78a6a;
      }
    </style>
  </defs>
  <g id="Calque_1-2" data-name="Calque 1">
    <g>
      <path class="cls-4" d="M9.13,84.47C-20.75,72.26,29.89-13.77,58.12,8.35c4.18.03,15.44-6.82,22.18-7.71,25.18-3.95,36.36,12.17,55.77,2.02,19.26-.47,48.5,43.93,48.9,61.02.33,13.99-16.21,32.39-29.82,20.79,7.99,67.45-130.7,68.39-126.04,2-10.35,5.75-12.04,3.63-19.98-2,.82.55,10.63.17,12.64-.4,3.62-1.03,3.83-4.3,5.36-5.6,5.23.89,4.86-4.09,6-8,6.07-13.09,5.9-23.79,10-36,2.05-6.1,12.36-20.31,12.02-24.98C34.56,1.79,21.09,30.5,13.13,44.47c-10.24,4.36-8.99,36.66-4,40ZM137.13,28.47c5.9,16.09,6.82,36.76,19.23,49.76,19.93,14.45,25.66-12.2,19.74-27.76-4.5-11.83-26.09-43.14-39.98-42.19-11.95.82-4.42,7.18-.99,14.18C119.52.86,69.8-1.22,54.26,20.6c-8.76,12.3-8.44,29.76-12.1,43.9-4.6,17.81-17.01,33.77,2.25,51.68,20.42,18.99,85.39,18.54,101.13-8.3,18.14-29.25-13.02-46.57-8.42-79.42Z"/>
      <path class="cls-3" d="M135.13,22.47c3.59,9.9,1.16,21.83,4.96,32.04,5.4,20.68,19.71,29.07,5.46,53.37-15.74,26.84-80.71,27.29-101.13,8.3-19.25-17.91-6.85-33.87-2.25-51.68,3.66-14.15,3.34-31.6,12.1-43.9C69.8-1.22,119.52.86,135.13,22.47ZM131.13,76.47c2.35-2.29,6.55-.19,7.62-9.55,2.97-25.96-39.17-44.42-40.73-8.5-.67,15.46,15.68,29.25,30.72,22.71,3.25-1.41,2.1-4.38,2.39-4.66ZM59.4,68.19c3.05,4.78,13.15.63,10.91-7.77-3.65-13.67-15.33.82-10.91,7.77ZM113.12,102.48c-1.42-1.4-12.36,8.77-17.13,2.12-5.76-8.02,6.35-10.53,8.17-14.1,8.19-16.12-20.89-17.54-26.84-6.66-1.35,5.37,8.21,13.46,13.82,12.66-4.28,22.39-19.18,4.83-19.99,5.97-3.39,4.8,6.42,10.17,10.99,10.21,6.13.06,8.29-5.71,9.94-5.75,1.27-.03,5.73,5.07,13.97,3.51,3.14-.59,9.45-5.61,7.06-7.96Z"/>
      <path class="cls-2" d="M137.13,28.47c-.41-8.27-15.81-19.25-1.01-20.18,13.89-.96,35.48,30.36,39.98,42.19,5.92,15.56.19,42.2-19.74,27.76-12.43-13.05-13.31-33.64-19.23-49.76Z"/>
      <path class="cls-1" d="M15.13,40.47c8.31,2.37,13.03-31.98,14.02-4,6.15-1.81,8.5-11.79,13.98-2-5.21,13.47-3.03,31.32-16,42-2.77-8.28-9.53-15.02-10.02-23.99l-7.97,3.98,3.99-11.99c0-1.86.69-2.8,2-4Z"/>
      <path class="cls-2" d="M13.13,44.47l-3.99,11.99,7.97-3.98c.11,9.7,9.2,16.65,10.02,25.99-1.52,1.31-1.74,4.58-5.36,5.6-2.02.57-11.83.94-12.64.4-4.99-3.34-6.24-35.64,4-40Z"/>
      <path class="cls-2" d="M15.13,40.47C24,27.31,35.01,2.05,55.14,9.48c.34,4.68-9.97,18.88-12.02,24.98-5.48-9.79-7.83.19-13.98,2-1-27.98-5.7,6.35-14.02,4Z"/>
      <path class="cls-5" d="M33.13,70.47c-1.13,3.9-.79,8.91-6,8v-2l6-6Z"/>
      <path class="cls-4" d="M113.12,102.48c2.39,2.35-3.93,7.37-7.06,7.96-8.25,1.56-12.7-3.54-13.97-3.51-1.65.04-3.82,5.8-9.94,5.75-4.57-.04-14.38-5.41-10.99-10.21.81-1.15,15.72,16.42,19.99-5.97-5.61.8-15.17-7.28-13.82-12.66,5.94-10.87,35.02-9.45,26.84,6.66-1.81,3.57-13.92,6.08-8.17,14.1,4.77,6.65,15.7-3.52,17.13-2.12Z"/>
      <path class="cls-4" d="M59.4,68.19c-4.42-6.94,7.26-21.44,10.91-7.77,2.24,8.4-7.87,12.55-10.91,7.77Z"/>
      <path class="cls-4" d="M131.13,76.47c8.8-8.78-1.33-47.37-22.8-33.79-7.96,5.04-6.36,28-.66,33.23,3.23,2.97,20.63,3.38,23.46.55-.29.28.86,3.24-2.39,4.66-15.05,6.54-31.4-7.25-30.72-22.71,1.56-35.92,43.7-17.46,40.73,8.5-1.07,9.37-5.27,7.27-7.62,9.55Z"/>
      <path class="cls-2" d="M131.13,76.47c-2.83,2.82-20.23,2.41-23.46-.55-5.7-5.23-7.3-28.2.66-33.23,21.47-13.58,31.6,25,22.8,33.79ZM113.14,56.46c.16,2.89-.52,6.17,0,8.98,2.76,14.71,21.46-10.57,0-8.98Z"/>
      <path class="cls-4" d="M113.14,56.46c21.47-1.59,2.76,23.68,0,8.98-.53-2.8.15-6.08,0-8.98Z"/>
    </g>
  </g>
</svg>