<?xml version="1.0" encoding="UTF-8"?>
<svg id="Calque_2" data-name="Calque 2" xmlns="http://www.w3.org/2000/svg" viewBox="0 0 118.2 234.02">
  <defs>
    <style>
      .cls-1 {
        fill: #8aa25d;
      }

      .cls-2 {
        fill: #704834;
      }

      .cls-3 {
        fill: #8f625d;
      }

      .cls-4 {
        fill: #ddb762;
      }

      .cls-5 {
        fill: #537ea0;
      }

      .cls-6 {
        fill: #b7cfd7;
      }

      .cls-7 {
        fill: #c5503d;
      }

      .cls-8 {
        fill: #f7f7f0;
      }

      .cls-9 {
        fill: #3b5051;
      }

      .cls-10 {
        fill: #4a3d2c;
      }

      .cls-11 {
        fill: #a78a6a;
      }
    </style>
  </defs>
  <g id="Calque_1-2" data-name="Calque 1">
    <g>
      <path class="cls-9" d="M74.25,149.9c1.33.01,2.67-.04,4,.02l-2,11.98c.3,3.21,5.26,2.91,6,0,2.77-4.88,10.27.75,10-8,.28.47,1.83.89,2,2-3.45,4.8-7.89,10.9-14,12.04l10,12.89c-5.53,7.2-11.3,5.73-18,7.08l-2.01-14-21.98,2.01c-1.14,3.04,1.84,6.21,1.99,7.99-2.6-1.39-5.33-2.7-7.98-4v11.99c6.45.98,8.51-1.98,7.98-7.99,3.19,1.71,7.14,1.18,6,6-4.57,1.24-10.02,8.97-18,6.01v-12c-4.36-2.84-16.37,9.99-13.99,11.98h12c.23,3.47.39,17.19-3.27,18.1-8.77,2.18-5.9-2.65-6.74-4.08,6.28-.68,5.47-3.9,5.99-9.99l-9.98,2.01c-.48,3.54,2.47,5.39,3.99,7.98-2.61.28-5.38-.23-8,0-.61,7.37,2.63,13.34,5.13,19.87,1.22,3.2,2.13,4.74-2.1,4.1-9.41-3.81-6.02-25.02-7.02-25.99-2.75-2.66-20.53,7.31-11.93-17.92,5.57-2.16,10.51,4.67,14.74,4.09,1.19-.16,10.89-17.44,17.17-16.19.8-1.14-21.32-12.49-.05-19.18,12.45-3.92,9.12,12.18,10.06,13.22.63.7,17.48-1.68,18.66-1.98,2.3-.57,1.08-3.81,1.33-4.03.26-.24,2.17.33,3.3-.69,1.05-.95.45-3.06.7-3.31,2.24-2.2,5.29,1.96,6-8,.09-1.32-.06-2.67,0-4ZM40.25,161.91l-9.99,5c10.57,13.7,9.23,6.67,9.99-5ZM84.24,181.86c-3.53-13.23-12.11-8.29-9.98,4.03l9.98-4.03ZM20.24,199.91c-2.18-2.18-6.16,1.8-3.98,3.98s6.16-1.8,3.98-3.98Z"/>
      <path class="cls-2" d="M94.25,139.9c-2.68-.52-5.17-1.93-7.95-2l-2.03,10c6.88-1.73,11.07.04,9.99-7.99,1.21.24,2.72-.16,4,0,0,.84-1.97,3.09-2.03,4.96l2,1.03c-.93-3.12,3.84-7.11,4.03-7.99-1.73,7.98,12.26,2.23,14.01,3.99,1.69,22.06-5.52,18.42-22.01,14.01-.17-1.11-1.72-1.53-2-2-.35-.59.5-2.7-.09-3.88l-7.91,1.88c-9.47.75-1.26-15.22.12-19.88,5.87-1.01,9.13,2.34,9.88,7.88Z"/>
      <path class="cls-8" d="M50.25,183.9c-.16-1.78-3.13-4.95-1.99-7.99l21.98-2.01,2.01,14c-4.8.97-12.32,1-16,2,1.14-4.82-2.81-4.29-6-6Z"/>
      <path class="cls-3" d="M74.25,149.9c-.06,1.33.09,2.68,0,4-2.9-1.21-13.52,3.9-12,6l6,2c.14,3.31-.84,4.09-4,4-1.35-1.2-1.57-5.61-2-6-.53-.48-9.08,1.04-1.02-6.02,4.19-3.67,7.71-4.04,13.02-3.98Z"/>
      <path class="cls-6" d="M84.25,151.9l7.91-1.88c.76,9.61-.79,8.84-7.91,9.88-.43-1.92.62-7.09,0-8Z"/>
      <path class="cls-6" d="M82.25,161.9c-.74,2.91-5.7,3.21-6,0,1.95-.18,4.11.27,6,0Z"/>
      <g>
        <path class="cls-10" d="M28.25,65.9C27.73,59.17,51.72,1.18,55.56.06c5.63-1.63,51.61,28.95,60.86,32.71,4.54,4.42-.98,8.32-1.46,12.45-3.37,29.19-6.92,51.87-12.47,79.93-.83,4.21.49,9.2-.24,12.74-.18.88-4.96,4.87-4.03,7.99l-2-1.03c11.76-26.46-32.14-33.78-39.97-54.96,13.67,4.11,25.91,24.88,35.99,23.99l-18.97-60.01-2.01-1.93c-13.08,7.67-28.89,10.04-43.01,13.95ZM110.25,31.92c-.28-.25-4.98-.28-7.37-1.59-14.34-7.87-28.29-16.57-42.61-24.43l15.12,41.88c9.82-4.31,22.75-6.93,32.02-11.7,1.48-.76,6.49-.83,2.84-4.16ZM54.26,17.92l-1.99-6.01-16,47.99c5.61-2.85,32.48-7.88,33.72-13.2l-9.75-30.81-5.97,2.04ZM112.24,39.91c-2.44-2.16-34.82,9.46-35.67,13.17l19.7,60.8,1.99-6.02,3.97,2.05c1.18-23.63,5.08-46.97,10.01-70Z"/>
        <path class="cls-9" d="M36.25,63.9c-6.9,6.52,22.61,19.24,24,28-4.01-2.74-5.41-1.29-11.04-3.88-3.69-2.37-20.68-18.41-20.96-22.12,2.44-1.91,5.26-1.52,8-2Z"/>
        <path class="cls-1" d="M36.25,63.9c11.77-2.07,24.4-6.43,35.01-11.95l2.01,1.93,18.97,60.01c-10.66.42-20.29-17.54-31.99-21.99-1.43-8.82-30.86-21.43-24-28Z"/>
        <path class="cls-5" d="M112.24,39.91c-4.93,23.02-8.83,46.37-10.01,70l-3.97-2.05-1.99,6.02-19.7-60.8c.85-3.71,33.23-15.33,35.67-13.17Z"/>
        <path class="cls-4" d="M110.25,31.92c3.64,3.33-1.36,3.4-2.84,4.16-9.27,4.76-22.2,7.39-32.02,11.7L60.27,5.9c14.32,7.86,28.27,16.56,42.61,24.43,2.39,1.31,7.09,1.34,7.37,1.59Z"/>
        <path class="cls-7" d="M54.26,17.92l5.97-2.04,9.75,30.81c-1.24,5.33-28.1,10.35-33.72,13.2L52.27,11.91l1.99,6.01Z"/>
      </g>
      <path class="cls-11" d="M84.24,181.86l-9.98,4.03c-2.14-12.32,6.45-17.26,9.98-4.03Z"/>
      <path class="cls-5" d="M40.25,161.91c-.77,11.68.57,18.71-9.99,5l9.99-5Z"/>
      <path class="cls-5" d="M50.25,183.9c.53,6.01-1.53,8.97-7.99,7.99v-11.99c2.66,1.3,5.39,2.61,7.99,4Z"/>
      <path class="cls-11" d="M26.25,209.9c-1.52-2.59-4.47-4.43-3.99-7.98l9.98-2.01c-.52,6.09.29,9.31-5.99,9.99Z"/>
      <path class="cls-11" d="M74.25,153.9c-.71,9.96-3.76,5.8-6,8l-6-2c-1.52-2.1,9.1-7.21,12-6Z"/>
      <path class="cls-3" d="M20.24,199.91c2.18,2.18-1.8,6.16-3.98,3.98s1.8-6.16,3.98-3.98Z"/>
      <path class="cls-3" d="M94.25,139.9c1.08,8.03-3.11,6.27-9.99,7.99l2.03-10c2.78.07,5.27,1.48,7.95,2Z"/>
    </g>
  </g>
</svg>