<?xml version="1.0" encoding="UTF-8"?>
<svg id="Calque_2" data-name="Calque 2" xmlns="http://www.w3.org/2000/svg" viewBox="0 0 225.14 187.25">
  <defs>
    <style>
      .cls-1 {
        fill: #8aa25d;
      }

      .cls-2 {
        fill: #704834;
      }

      .cls-3 {
        fill: #8f625d;
      }

      .cls-4 {
        fill: #ddb762;
      }

      .cls-5 {
        fill: #537ea0;
      }

      .cls-6 {
        fill: #e8b93e;
      }

      .cls-7 {
        fill: #b7cfd7;
      }

      .cls-8 {
        fill: #c5503d;
      }

      .cls-9 {
        fill: #cb844b;
      }

      .cls-10 {
        fill: #f7f7f0;
      }

      .cls-11 {
        fill: #3b5051;
      }

      .cls-12 {
        fill: #4a3d2c;
      }
    </style>
  </defs>
  <g id="Calque_1-2" data-name="Calque 1">
    <g>
      <path class="cls-11" d="M49.83,122.94l9.99,2.01c1.07-27.78,13.27-67.62,45.18-71.84,9.36-2.05,33.39.92,34.83,11.83,6.02,5.86,4.77,2.89,10,12-1.42-3.12-6.37-5.63-8.76-8.22-11.13-20.19-47.86-15.07-61.26,1.2-6.35,7.38-20.08,45.82-15.03,53.08,2,2.88,6.16,2.9,8.1,0,6.4-77.94,80.79-67.91,72.95,3.93,3-.17,7.69.83,10.12-.86,5.46-3.78-3.08-42.46-6.13-49.12,10.72,10.29,10.96,34.29,12.28,48.73l7.72,1.27c-4.04,12.08-3.87,6.22-15.03,3.85-16.1-1.07-10.22,10.1-13.34,13.78-1.15,1.35-8.54,1.35-9.63,2.37-.88.82-2.95,10.05-1.16,12.13,2.84,3.95,13.17.53,14.96,2.08,1.1.95-.24,9.03,6.68,12.31,10.02,4.75,13.85-3.17,20.4-2.55,4.53.42,6.97,6.15,13.9,5.95,14.48-.43,11.68-12.49,13.23-13.91.88-.8,14.68,9.39,18.69-.52,5.16-12.74-6.12-10.9-6.71-11.49-1.11-1.12,6.25-13.97-6-15.99-.16-1.52,1.9-3.34,2-4,10.65,1.22,8.35,9.89,11.11,15.88,2.03,4.39,7.26,4.91,6.01,12.14-2.63,15.21-21.34,10.7-22.97,12.23,1.08,9.24-8.55,7.69-14.15,9.74-5.72,2.61-12.68-5.19-15.01-5.32-3.81-.22-16.87,7.5-24.99,1.32-.94-1.56-5.96-9.25-6.46-9.54-4.12-2.32-10.11,2.13-14.01-6.98-5.51-12.88,1.56-10.36,4.47-13.48,16.22-15.42,13.99-46.68.05-63.05-32.83-36.12-67.84,27.65-45.54,56.54,1.68,2.03,8.41,2.21,10.49,6.5,2.88,5.93,1.8,14.46-4.22,17.79-5.43,3-11.15,2.97-16.78,8.22-.48.45.22,4.59-3.21,5.72-14.36,2.74-15.04-5.59-29.92,2.2-18.53,2.69-19.35-9.27-22.29-9.95-10.66-2.46-22.21,2.46-20.19-16.45,7.32-7.92,3.99-23.02,17.6-23.51,4.24-.15,5.3,3.3,12,0-.24.51.21,1.37,0,2l-4,2c-22.47-2.65-12.91,13.84-14.16,15.72-1.13,1.69-15.48,5.48-2.56,14.09,7,4.66,12.33-3.55,14.7-1.81,2.59,1.9-.37,13.72,13.26,13.86,8.59.09,11.01-7.11,14.06-7.65,1.29-.23,17.54,11.38,24.71,3.8,1.01-1.07,1.2-8.85,2.27-9.73,1.51-1.23,11.75.78,14.79-4.23,6.22-10.26-9.77-12.77-10.73-14.37-1.19-1.98.51-6.4-1.33-9.65-3.1-5.48-12.5-6.78-18.29-4.37-3.93,1.64-1.53,5.74-6.67,4.33-.8-3.74-5.36-9.68-8.04-11.99h2Z"/>
      <path class="cls-2" d="M101.83.94c77-10.5,115.63,68.62,104,134-2.99-.49-7.45.7-10,0-.33-3.73-3.27-4.17-4-8-5.91-1.06-11.68-3.14-18-2-2.8-22.86-4.62-46.37-18-66v-2h2l12,22c-.17,6.45,4.97,20.22,6,28,.58,4.36-.42,9.51-.01,14.01h12.02c1.85-17.48-3.61-34.5-10.01-50.01-2.51-11.95-4.88-20.66-16-28-.43-1.25-1.75-5.8-2-6-39.91-23.7-68.29-21.39-104,10,19.36-33.34,80.52-41.93,104-10,16.2,7.87,13.64,19.69,24,32,.02,8.23,5.81,23.74,7.08,33.93.89,7.2-1.32,15.56.92,24.07,3.97.71,7.76,2.64,11.99,2-.76-33.64-5.15-70-27.99-96C156.05,11.86,134.53,1.76,105.83,4.94l-4-4Z"/>
      <path class="cls-12" d="M101.83.94l4,4c-5.29.32-11.69.47-16,4C40.61,17.41,15.37,84.51,21.83,128.94c10.16,2.54,5.19-10.77,22-8-4.55,3.29-10.52,5.45-14,10-6.7,3.3-7.76-.15-12,0C10.67,74.03,38.34,7.14,101.83.94Z"/>
      <path class="cls-1" d="M49.83,122.94c.91-112.76,123.85-115.05,124,2-.64.12-3.64,1.61-4,2l-7.72-1.27c-1.31-14.4-1.56-38.46-12.27-48.73-5.23-9.11-3.98-6.14-10-12-1.47-10.92-25.43-13.87-34.83-11.83-31.91,4.22-44.1,44.06-45.18,71.84l-9.99-2.01Z"/>
      <path class="cls-5" d="M149.83,76.94c3.04,6.67,11.59,45.34,6.13,49.12-2.43,1.69-7.13.69-10.12.86,7.82-71.94-66.59-81.77-72.94-3.93-1.94,2.9-6.11,2.88-8.11,0-5.04-7.26,8.68-45.69,15.03-53.08,13.39-16.27,50.14-21.38,61.26-1.2,2.39,2.59,7.33,5.1,8.76,8.22Z"/>
      <path class="cls-12" d="M129.83,36.94c9.18,2.93,24.22,11.76,26,22C107.15,5.21,43.74,63.72,49.83,122.94h-2c-.67-.58-1.79-1.93-2-2-1.47-45.17,33.54-99.14,84-84Z"/>
      <path class="cls-8" d="M137.83,6.94c8.47,1.25,59.15,32.85,34,40-4.57-6.84-8.51-6.9-12-10-23.51-31.93-84.61-23.34-104,10-20.94,16.48-24.89,50.7-24,76-2.14,1.34-3.5,8.15-10,6C15.35,84.56,40.66,17.36,89.83,8.94c15.99-1.58,33.18,3.91,48-2Z"/>
      <path class="cls-8" d="M183.83,68.94c0-2.17,3.65-8.09,2.02-11.99,16.69,12.76,17.22,51.63,17.97,71.99-4.23.64-8.02-1.3-11.99-2-2.24-8.51-.03-16.87-.92-24.07-1.27-10.19-7.06-25.7-7.08-33.93Z"/>
      <path class="cls-9" d="M193.83,64.94l-7.98-7.99c1.63,3.9-2.03,9.82-2.02,11.99-5.77-5.51-7.98-15.98-12-22,9.84-3.23,7.8-5.92,4-14,10.22,11.34,12.89,17.48,18,32Z"/>
      <path class="cls-9" d="M105.83,4.94c9.77-.59,22.5-.22,32,2-14.82,5.91-32.01.42-48,2,4.31-3.53,10.71-3.68,16-4Z"/>
      <g>
        <path class="cls-10" d="M187.83,180.94c1.46,9.51-33.97,6.1-37.58,3.58-1.76-1.27-1.4-5.89-2.42-7.58,8.12,6.18,21.18-1.54,24.99-1.32,2.33.14,9.29,7.93,15.01,5.32Z"/>
        <path class="cls-7" d="M191.83,126.94c.59,2.23,1.2,2.53,2,4-1.53,11.74,24.6-7.66,18,19.99.58.59,11.87-1.25,6.71,11.49-4.01,9.91-17.82-.28-18.69.52-1.56,1.42,1.25,13.47-13.23,13.91-6.93.21-9.38-5.52-13.9-5.95-6.55-.61-10.38,7.3-20.4,2.55-6.92-3.28-5.58-11.36-6.68-12.31-1.78-1.55-12.12,1.87-14.96-2.08-1.79-2.08.28-11.31,1.16-12.13,1.09-1.02,8.49-1.02,9.63-2.37,3.12-3.68-2.76-14.84,13.34-13.78,4.24.28,8.97,3.76,10.04,3.68,3.69-.27,4.14-6.61,4.98-7.54,6.52-4.72,15.05-1.11,22,0Z"/>
        <path class="cls-11" d="M195.83,134.94c-2.27-.62-2.19-2.03-2-4,.62,1.13,2.26,2.07,2,4Z"/>
      </g>
      <path class="cls-4" d="M155.83,36.94c-6.77-3.22-13.57-5.4-21.08-5.98-6.56-.5-4.99.35-4.92,5.98-50.48-15.14-85.46,38.83-84,84-2.58,0-7.57-.51-10,0-4-2.05-1.35-6.98-1.02-9.98,2.56-22.99,7.61-41.79,19.02-62.02,28.23-27.59,68.94-40.8,102-12Z"/>
      <path class="cls-2" d="M53.83,48.94c-11.41,20.23-16.46,39.03-19.02,62.02-.33,3-2.98,7.93,1.02,9.98-.22.05-3.59,1.75-4,2-.73-24.05,2.59-57.82,22-74Z"/>
      <g>
        <path class="cls-7" d="M47.83,122.94c2.67,2.31,7.24,8.25,8.04,11.99,5.14,1.41,2.73-2.69,6.67-4.33,5.8-2.41,15.19-1.11,18.29,4.37,1.84,3.25.15,7.67,1.33,9.65.96,1.6,16.95,4.11,10.73,14.37-3.04,5.01-13.28,3-14.79,4.23-1.08.88-1.26,8.66-2.27,9.73-7.17,7.58-23.42-4.03-24.71-3.8-3.05.54-5.47,7.74-14.06,7.65-13.63-.14-10.66-11.95-13.26-13.86-2.37-1.74-7.7,6.47-14.7,1.81-12.92-8.61,1.44-12.39,2.56-14.09,1.25-1.88-8.3-18.37,14.16-15.72,5.46,5.32,3.71.43,4-4,3.63-4.31,9.35-6.87,14-10,2.07-.34,2.43.35,4,2Z"/>
        <path class="cls-3" d="M29.83,130.94c.49-1.04,1.42-1.37,2-2-.61.65-1.23,1.62-2,2Z"/>
        <path class="cls-3" d="M29.83,132.94c-.37,1.09.4,3.59-.01,3.99-1.29,1.25-3.76-1.96-3.99-1.99l4-2Z"/>
      </g>
      <path class="cls-6" d="M155.83,36.94c.93.44,3.43-.46,4,0,.25.2,1.57,4.75,2,6,2.95,8.59,2.36,8.79-4,14h-2c-4.56-8.75-16.64-17.46-26-20-.07-5.62-1.64-6.48,4.92-5.98,7.51.58,14.31,2.76,21.08,5.98Z"/>
      <path class="cls-4" d="M177.83,70.94l-5.99-2c1.86,3.51-1.98,8.92-2.01,10l-12-22c6.36-5.21,6.95-5.41,4-14,11.11,7.34,13.48,16.05,16,28Z"/>
      <path class="cls-4" d="M177.83,72.94c8.39,14.31,10.94,31.57,10.01,48.01h-12.02c-.41-4.5.59-9.65.01-14.01,7.06.26,5.48,1.2,6-4.9.77-8.99-2.17-20.09-4-29.1Z"/>
      <path class="cls-6" d="M177.83,70.94c.85,9.79,5.1,21.34,4,31.1-.52,6.1,1.06,5.16-6,4.9-1.03-7.78-6.17-21.55-6-28,.03-1.08,3.86-6.49,2.01-10l5.99,2Z"/>
    </g>
  </g>
</svg>