<?xml version="1.0" encoding="UTF-8"?>
<svg id="Calque_2" data-name="Calque 2" xmlns="http://www.w3.org/2000/svg" viewBox="0 0 119.84 201.27">
  <defs>
    <style>
      .cls-1 {
        fill: #704834;
      }

      .cls-2 {
        fill: #8f625d;
      }

      .cls-3 {
        fill: #537ea0;
      }

      .cls-4 {
        fill: #f7f7f0;
      }

      .cls-5 {
        fill: #cfae8a;
      }

      .cls-6 {
        fill: #3b5051;
      }

      .cls-7 {
        fill: #4a3d2c;
      }

      .cls-8 {
        fill: #a78a6a;
      }
    </style>
  </defs>
  <g id="Calque_1-2" data-name="Calque 1">
    <g>
      <path class="cls-7" d="M108.66,78.47c-7.07,8.11-17.43,13.85-28,16-2.05.42-7.23-.61-8.01,0-.45.35.39,2.96.01,4-5.77-7.58-15.23-7.03-24.06-10.95-6.11-2.57-3.61,1.1-3.94,4.95-1.03-.32-2.75.21-4,0-11.86-24.97-26.31-50.77-4-74h2c-1.96,8.78,8.52,7.65,8,14-5.97.57-10-7.6-13.98-.98-1.4,9.5,6.48,3.95,9.98,8.98-.46.45-.55,3.23-2,4-1.95-1.24-7.4-1.61-9.98-4-4.22,5.89,7.23,17.38,11.98,20-1.93-1.23-11-7.07-11.99-5.99,3.98,29.2,42.6,46.89,65.97,26.96-18.2-4.15-39.5-9.27-53.98-20.97,3.39,3.24,85.65,29.64,58,6,3.33-.05,6.68.06,10.01,0,1.31-15.29-.89-6.09-10.01-12.01l2-4c3.33-.13,6.69.13,10.01,0C116.68,12.83,77.16-1.39,46.66,10.47c44.85-36.43,96.29,30.96,62,68Z"/>
      <path class="cls-7" d="M48.66,100.47c-6.58,9.91-12.71,42.76-18.98,50.02-3.53,4.09-20.35.77-24.2,17.88-7.54,33.52,47.84,38.2,43.1,1.28-1.07-8.35-8.33-10.92-8.04-16l16.13-51.18c1.81.33,3.61,1.96,4,2,1.44,13.66-16.26,40.42-16.08,50.84,27.65,23.27-8.08,61.61-34.91,39.15-19.07-14.75-8.06-47.85,16.66-46.31l18.33-47.68c2.43-2.33,3.55-.05,4,0Z"/>
      <path class="cls-6" d="M44.66,92.47c6.18,1.92,22.81,14.58,24,2,1.34.74,2.64,2.96,4,4-3.68,12.06-14.81,3.27-24,2-.45-.05-1.57-2.32-4,0,.15-3.39-3.06-5.65-4-8,1.25.21,2.97-.32,4,0Z"/>
      <path class="cls-6" d="M46.66,10.47h2c-2.78,19.08,49.32,31.53,64,30,.17,1.24.02,2.71,0,4-18.93-.23-41.27-5.1-56.71-16.38-7.38-6.28-6.51-12.16-19.29-9.62,5.03-5.79,4.84-4.5,10-8Z"/>
      <path class="cls-5" d="M112.66,40.47c-14.58,1.54-66.78-10.89-64-30,26.32-10.59,59.83-1.1,64,30Z"/>
      <path class="cls-5" d="M42.66,60.47c14.54,11.73,35.76,16.81,53.98,20.97-23.37,19.92-61.99,2.24-65.97-26.96.99-1.08,10.06,4.76,11.99,5.99Z"/>
      <path class="cls-3" d="M40.66,44.47c3.89,3.11.18,3.14,3.26,6.15,10.37,7.19,30.15,13.61,42.74,13.85,2.74,4.01,9.71,1.37,14,2,27.58,23.6-54.42-2.69-58-6-4.75-2.62-16.2-14.11-11.98-20,2.58,2.39,8.03,2.76,9.98,4Z"/>
      <path class="cls-3" d="M38.66,18.47c10.64-2.94,11.1,5.1,17.29,9.62,15.44,11.28,37.78,16.15,56.71,16.38-.03,2,.07,4.01.01,6-25.66,3.39-43.71-8.55-66.01-18,.52-6.35-9.96-5.22-8-14Z"/>
      <path class="cls-1" d="M92.66,50.47v2c-4.92-.97-10.84,10.76-4,12-8.52.66-46.37-7.75-46-18l13.99,3.99c2.68-10.29-6.07-17.67-13.99-9.99-.77-.4-1.52-1.88-2-2-.7-3.32,1.51-4.46,4-6,15.54,3.18,31.54,16.45,48,18ZM58.66,44.47c1.66,8.77,8.94,13.95,17.15,15.87,5.32,1.24,1.79-6.5.43-8.52-2.73-4.03-3.99-2.38-5.59-3.35-3.17-1.64-6.4-3.56-10-4l-1-1.96-1,1.96Z"/>
      <path class="cls-3" d="M68.66,94.47c-1.19,12.58-17.82-.08-24-2,.33-3.85-2.17-7.52,3.94-4.95,6.94,2.93,14.26,3.74,20.06,6.95Z"/>
      <path class="cls-5" d="M42.66,40.47c7.92-7.68,16.67-.3,13.99,9.99-2-.81-15.37-3.45-15.99-5.99,1.45-.77,1.54-3.55,2-4Z"/>
      <path class="cls-2" d="M100.66,54.47c1.89.46,3.07,1.71,4,2l-2,10c-2,0-4,.04-6,0,.39-1.22-1.77-10.6-2-12,1.61.45,4.28-.41,6,0Z"/>
      <path class="cls-5" d="M44.66,32.47c-2.49,1.54-4.7,2.68-4,6-4.5-1.16-8.97.57-7.98-6.98,3.71-5.64,6.48-.67,11.98.98Z"/>
      <path class="cls-5" d="M104.66,56.47c6.22,1.91,6.92-3.38,6.01,10.01-2.66.09-5.34-.09-8.01,0l2-10Z"/>
      <path class="cls-6" d="M102.66,50.47l-2,4c-3.54-.47-8.96,1.86-8-4,2.89.37,6.94.12,10,0Z"/>
      <path class="cls-8" d="M56.66,102.47l-16.13,51.18c-.28,5.08,6.97,7.65,8.04,16,4.74,36.91-50.64,32.23-43.1-1.28,3.85-17.11,20.67-13.79,24.2-17.88,6.27-7.26,12.4-40.1,18.98-50.02,3.38.39,5.57,1.56,8,2ZM34.66,166.47c1.51-11.92-34.32-1.36-18.04,17.04,14.3,16.66,34.88-13.78,18.04-17.04Z"/>
      <path class="cls-7" d="M96.66,64.47v2c-3.21-.08-8.31,1.21-10-2,3.33,0,6.67,0,10,0Z"/>
      <path class="cls-5" d="M66.66,46.47l-2,3.98h4.99s1.01-1.98,1.01-1.98c1.59.97,2.86-.67,5.59,3.35,10.65,18.65-18.2,2.86-17.59-7.35,2.89-.36,5.5.86,8,2Z"/>
      <path class="cls-5" d="M92.66,52.47c.04,1.37.85,1.68,2,2l2,10c-2.67.01-5.33-.02-8,0-6.84-1.24-.92-12.97,4-12Z"/>
      <path class="cls-8" d="M70.66,48.47l-1.01,1.97h-4.99s2-3.97,2-3.97c1.24.45,2.86,1.3,4,2Z"/>
      <polygon class="cls-2" points="60.66 44.47 58.66 44.47 59.66 42.51 60.66 44.47"/>
      <path class="cls-7" d="M34.66,166.47c16.84,3.27-3.75,33.7-18.04,17.04-16.28-18.42,19.55-28.95,18.04-17.04-8.06-8.05-24.04,6.14-15.04,14.02,10.83,9.49,21.95-7.13,15.04-14.02Z"/>
      <path class="cls-4" d="M34.66,166.47c6.91,6.9-4.21,23.51-15.04,14.02-9-7.88,6.98-22.07,15.04-14.02Z"/>
    </g>
  </g>
</svg>