<?xml version="1.0" encoding="UTF-8"?>
<svg id="Calque_2" data-name="Calque 2" xmlns="http://www.w3.org/2000/svg" viewBox="0 0 73.08 181.86">
  <defs>
    <style>
      .cls-1 {
        fill: #91a9b3;
      }

      .cls-2 {
        fill: #537ea0;
      }

      .cls-3 {
        fill: #b7cfd7;
      }

      .cls-4 {
        fill: #3b5051;
      }
    </style>
  </defs>
  <g id="Calque_1-2" data-name="Calque 1">
    <g>
      <path class="cls-4" d="M41.02,0c23.54.27,11.08,18.94,12.79,30.07.85,5.5,9.98,13.62,12.76,19.28,9.34,19,.73,31.08.8,49.21,3.31,32.49,20.88,84.55-28.96,83.06C-16.19,185.69,2.61,133.37,5.26,100.27c.48-16.2-7.9-29.07-1.28-47.27,2.7-7.43,13.96-17.61,15.11-23,1.27-5.91-8.35-17.45-.65-26.54C19.88,1.77,37.34-.04,41.02,0ZM49.46,7.47c-5.97,1.09-25.83-2.85-27.85,3.22-4.69,14.03,24.94,11.78,27.63,8.58,1.22-1.45-.29-8.97.23-11.8ZM7.45,73.48h49c1.52,0,5.86-3.28,8.98-2.02,2.89-14.6-10.97-24.82-14.93-34.06-4.29-10.02,2.82-12.29-16.06-12.03-13.89.19-7.9,2-12.19,9.92-6.78,12.5-17.96,21.47-14.8,38.2ZM9.45,115.48c-1.28,11.38-8.66,47.65,2.08,54.92,8.5,5.76,53.92,7.24,53.92-9.92v-37c-13.2,2.29-29.4,7.73-42,2,7.74-3.43,19.14-3.69,28-4,2.04-.09,10.7,3.49,11.99-3.47.89-4.82-2.2-13.09-2.14-19.56.06-7.09,3.06-13.78,2.14-20.96-18.5,4.35-37.35,1.02-55.99.01,4.94,13.44,3.51,24.6,2,37.98Z"/>
      <path class="cls-3" d="M9.45,115.48l1.61,1.38c-.75,13.24,3,7.29,12.39,8.62,12.61,5.73,28.78.3,42-2v37c0,17.16-45.42,15.68-53.92,9.92-10.74-7.27-3.36-43.55-2.08-54.92Z"/>
      <path class="cls-2" d="M9.45,115.48c1.51-13.38,2.95-24.54-2-37.98,18.64,1.01,37.49,4.34,55.99-.01.91,7.18-2.08,13.87-2.14,20.96.36,12.32,8.76,27.86-9.84,23.03l1-6.02-3,6.02c-8.23.51-18.92.74-26,4-9.39-1.33-13.14,4.62-12.39-8.62l-1.61-1.38Z"/>
      <path class="cls-3" d="M7.45,73.48c-3.16-16.73,8.02-25.69,14.8-38.2,4.3-7.92-1.7-9.72,12.19-9.92,18.89-.27,11.77,2.01,16.06,12.03,3.96,9.24,17.81,19.47,14.93,34.06-3.13-1.25-7.47,2.02-8.98,2.02H7.45Z"/>
      <path class="cls-2" d="M49.46,7.47c-.52,2.83.99,10.35-.23,11.8-2.68,3.2-32.31,5.45-27.63-8.58,2.03-6.07,21.88-2.13,27.85-3.22Z"/>
      <path class="cls-1" d="M51.45,121.48c-.67.03-1.34-.04-2,0l3-6.02-1,6.02Z"/>
    </g>
  </g>
</svg>