<?xml version="1.0" encoding="UTF-8"?>
<svg id="Calque_2" data-name="Calque 2" xmlns="http://www.w3.org/2000/svg" viewBox="0 0 104.64 130.6">
  <defs>
    <style>
      .cls-1 {
        fill: #ddb762;
      }

      .cls-2 {
        fill: #537ea0;
      }

      .cls-3 {
        fill: #f7f7f0;
      }

      .cls-4 {
        fill: #3b5051;
      }

      .cls-5 {
        fill: #4a3d2c;
      }
    </style>
  </defs>
  <g id="Calque_1-2" data-name="Calque 1">
    <g>
      <path class="cls-4" d="M37.97,73.95c-.7-.65-1.32-1.35-2-2,.67.11,1.39,1.75,2,2Z"/>
      <path class="cls-4" d="M41.97,75.95c-.46-.41-2.46-.57-4-2,1.69.68,2.65,1.34,4,2Z"/>
      <path class="cls-4" d="M47.97,39.95c-.48.64-.83,2.42-2,4-3.89-6.51-24.26-11.82-29.98-9.03-13.75,6.7,14.01,31.35,19.98,37.03-30.14-3.39,20.02,35.9,21.9,16.19-5.67-.79-8.29-5.15-11.9-8.19,10.09-.32,48.54,26.23,51.89,7.09.47-9.18-19.18-31.56-23.89-23.09,1.79-3.76,2.08-4.99,6-6,33.46,21.83,30.92,53.78-14,36.02,8.63,12.34-9.73,33.75-21.09,35.88-38.68,7.24-62.99-39.87-27.96-62.02,2.52-1.6,11.84-2.43,5.65-5.85s-8.95-2.64-12.39-11.22c-11.85-29.47,23.34-23.32,37.79-10.81ZM51.97,107.95c-4.8,25.22-56.85,7.25-37.2-24.22,3.09-6.07,10.66-5.6,9.19-13.77-44.5,15.58-4,76.69,30.05,49.03,7.89-6.41,12.8-14.59,8.94-25.06l-10.98,14.02c.77-1.35.99-7.66,2.01-9.99-10.08,4.14-25.54-14.81-29.25-15.54-13.58-2.68-13.03,20-2.68,28.45,8.4,6.85,24.37,6.86,29.92-2.92Z"/>
      <path class="cls-4" d="M43.97,77.95c-.7-.63-1.3-1.38-2-2,.78.38,1.38,1.72,2,2Z"/>
      <path class="cls-4" d="M45.97,79.95c-.74-.62-1.3-1.38-2-2,.73.34,1.33,1.69,2,2Z"/>
      <path class="cls-5" d="M95.97,7.95c26.32,31.32-15.65,31.36-16,50-.21.27-2.77.61-4,2-5.72.99-4.62-2.45-3.14-6.13,4-9.93,14.53-10.45,20.23-17.78,16.21-20.85-13.52-40.61-27.14-25.15-7.68,8.72-3.48,36.23-21.95,41.05-.15-1.3.1-2.69,0-4,1.03-2.4,3.28-6.16,4-8,.23-.31,3.7.49,5.59-3.34,4.99-10.07-1.49-21.83,10.88-31.2,10.83-8.19,22.08-6.9,31.53,2.53Z"/>
      <path class="cls-2" d="M35.97,71.95c1.18,1.8,4.84,3.77,6,4,5.18,4.37,8.44,10.67,15.9,12.19-1.87,19.71-52.05-19.58-21.9-16.19Z"/>
      <path class="cls-2" d="M45.97,43.95c-2.11,6.96-9.53,6.74-5.02,16.02,1.36,2.77,19.12,13.12,22.49,13.63,5.97.92,11.51-3.75,10.53-9.66,4.71-8.46,24.35,13.91,23.88,23.09-3.38,19.14-41.75-7.41-51.88-7.09-1.35-1.18-2.53-2.76-4-4-2.11-1-4.36-2.14-6-4-5.96-5.68-33.72-30.34-19.98-37.03,5.72-2.79,26.08,2.53,29.98,9.03Z"/>
      <path class="cls-3" d="M51.97,107.95c-5.55,9.78-21.52,9.77-29.92,2.92-10.36-8.44-10.9-31.13,2.68-28.45,3.71.73,19.17,19.68,29.25,15.54-1.02,2.33-1.24,8.63-2.01,9.99Z"/>
      <path class="cls-2" d="M51.97,107.95l10.98-14.02c3.86,10.47-1.05,18.65-8.94,25.06-34.06,27.66-74.55-33.45-30.05-49.03,1.48,8.18-6.09,7.7-9.19,13.77-19.64,31.47,32.4,49.43,37.2,24.22Z"/>
      <path class="cls-1" d="M43.97,51.95c18.46-4.83,14.27-32.34,21.95-41.05,13.62-15.46,43.36,4.3,27.14,25.15-5.7,7.33-16.23,7.84-20.23,17.78-1.48,3.68-2.58,7.11,3.14,6.13-.88.99-1.23,3.27-2,4-.53.5-5.51-1.41-4,4-9.5,2.14-24.75-5.54-26-16Z"/>
      <path class="cls-4" d="M43.97,51.95c1.96,12.85,19.03,17.91,30,16-2.51,3.84-5.61,6.4-10.53,5.66-3.37-.51-21.13-10.87-22.49-13.63-4.13-8.39,1.57-9.23,3.02-12.02.1,1.31-.15,2.7,0,4Z"/>
      <path class="cls-5" d="M73.97,63.95c-.45.82.46,3.29,0,4-1.27.18-2.84-.26-4,0-1.51-5.41,3.47-3.5,4-4Z"/>
    </g>
  </g>
</svg>