<?xml version="1.0" encoding="UTF-8"?>
<svg id="Calque_2" data-name="Calque 2" xmlns="http://www.w3.org/2000/svg" viewBox="0 0 93.37 171.23">
  <defs>
    <style>
      .cls-1 {
        fill: #704834;
      }

      .cls-2 {
        fill: #8f625d;
      }

      .cls-3 {
        fill: #b7cfd7;
      }

      .cls-4 {
        fill: #cfae8a;
      }

      .cls-5 {
        fill: #3b5051;
      }

      .cls-6 {
        fill: #4a3d2c;
      }

      .cls-7 {
        fill: #a78a6a;
      }
    </style>
  </defs>
  <g id="Calque_1-2" data-name="Calque 1">
    <g>
      <path class="cls-6" d="M15.98,4.31c.35-.3-1.59-6.15,4.7-3.72,11.11,4.31,5.01,28.59,9.33,37.73,71.51-20.23,66.2,67.85,60.08,113.09-3.97,13.73-13.52,17.51-27.12,18.88-13.97,1.4-41.93,2.75-50.98-7.98l2-2c6.35,6.66,15.74,3.53,23.03,3.82,11.48.45,39.07,3.83,45.87-7.91,9.2-15.88,5.07-81.61-3.36-98.46-13.26-26.49-61.49-21.61-70.58,8.52-5.27,17.48-3.82,68.04,1.03,86.03l-2,2c-11.13-29.97-10.71-75.85,1.88-105.12C12.57,39.45,3.92,4.17,15.98,4.31c1.71,13.9-3.15,28.86.99,41.99l8.66-7.16c-2.21-2.87-3.02-42.46-9.65-34.83Z"/>
      <path class="cls-5" d="M13.98,160.31l-2,2c-4.24-5.03-2.19-3.58-4-8l2-2c.12.43,3.69,7.68,4,8Z"/>
      <path class="cls-3" d="M13.98,160.31c-11.35-20.17-9.73-72.52-5.03-94.03,9.09-30.13,57.33-35.01,70.59-8.52,8.43,16.85,12.56,82.58,3.36,98.46-6.8,11.74-34.39,8.36-45.87,7.91-7.3-.29-16.69,2.84-23.03-3.82ZM18.47,60.81c-3.5,4.03-1.33,32.56,2.65,35.36,6.06,4.26,50.06,3.84,53.88-3.82,2.86-5.72,1.31-29.98-4.17-33.89-5.65-4.04-48.5-2.11-52.37,2.36ZM75.7,106.58c-3.8-6.08-25.08-.14-17.85,10.34,6.04,8.77,24.01-.5,17.85-10.34ZM18.16,108.49c-5.95,8.88,14.1,18.4,17.5,6.43,3.6-12.69-15.95-8.74-17.5-6.43ZM49.97,120.32c-2.18-2.18-6.16,1.8-3.98,3.98s6.16-1.8,3.98-3.98ZM41.97,122.32c-3.64-.65-6.62,2.2-5.98,5.98h5.98s0-5.98,0-5.98ZM59.97,124.32h-3.98v5.98h3.98v-5.98ZM33.97,128.32c-6.81-1.35-4.05,12.39-5.98,15.98,6.75,1.22,4.91-12.37,5.98-15.98ZM65.98,132.31c-1.18.24-2.7-.18-3.99,0-1.56,4.88,3,4.63,1.99,7.99-3.55,1.25-3.07,6.81-4,8-.15.2-2.24-.32-3.31.7-2.24,4.59,1.94,3.14-4.69,3.3-1.58.58-3.16,1.74-4,2-1.79.55-5.47-1.22-6.01,1.02-1.55,6.45,4.91,1.14,6.01.98,2.64-.08,5.35.07,8,0,10.42-1.45,5.81-3.98,8-6,4.02-3.73,16.85,1.14,17.99,0v-20c-.57-.57-13.46,1.48-15.99,2ZM43.97,134.32c-2.18-2.18-6.16,1.8-3.98,3.98s6.16-1.8,3.98-3.98ZM53.97,134.32c-2.18-2.18-6.16,1.8-3.98,3.98s6.16-1.8,3.98-3.98ZM55.97,140.32c-2.01-2.04-8.03,3.9-5.98,5.98s8.03-3.9,5.98-5.98ZM43.97,142.32h-3.98s0,5.99,0,5.99c2.89-.67,4.59-3.23,3.97-5.99ZM37.97,154.3c2.05-2.07-3.97-8.02-5.98-5.98s3.97,8.02,5.98,5.98Z"/>
      <path class="cls-7" d="M15.98,4.31c6.63-7.63,7.44,31.97,9.65,34.83l-8.66,7.16c-4.14-13.13.73-28.09-.99-41.99Z"/>
      <path class="cls-5" d="M18.47,60.81c3.87-4.47,46.72-6.4,52.37-2.36,5.48,3.91,7.02,28.18,4.17,33.89-3.83,7.66-47.82,8.09-53.88,3.82-3.98-2.8-6.15-31.32-2.65-35.36ZM21.98,62.31v30c16.16,3.29,33.36,1.04,49.12-1.87,1.64-2.35-.04-26.64-2.34-28.34-4.68-3.46-38,2.64-46.78.21Z"/>
      <path class="cls-4" d="M65.98,132.31c2.53-.52,15.42-2.57,15.99-2v20c-1.14,1.14-13.97-3.73-17.99,0-2.19,2.02,2.42,4.56-8,6v-4c-.28-3.16.95-4.18,4-4l1.02,1.98,2.98.02c3.48-6.47-.51-7.43,0-12l2-6Z"/>
      <path class="cls-1" d="M75.7,106.58c6.16,9.84-11.81,19.11-17.85,10.34-7.23-10.48,14.05-16.42,17.85-10.34ZM65.1,108.43c-1.12.35-2.1,2.06-3.11,2.91,1.2,7.92,7.83,4.39,11.95-.03-2.02-3.05-5.27-3.98-8.84-2.88Z"/>
      <path class="cls-6" d="M18.16,108.49c1.55-2.31,21.1-6.26,17.5,6.43-3.4,11.97-23.44,2.45-17.5-6.43ZM31.97,110.32h-9.98c-.87,10.37,14.01,3.55,9.98,0Z"/>
      <path class="cls-1" d="M33.97,128.32c-1.07,3.61.77,17.2-5.98,15.98,1.93-3.59-.83-17.33,5.98-15.98Z"/>
      <path class="cls-2" d="M63.98,150.31l-2.98-.02-1.02-1.98c.93-1.19.45-6.75,4-8,.64,3.04,2.92,4.54,0,10Z"/>
      <path class="cls-1" d="M41.97,122.32v5.98s-5.98,0-5.98,0c-.64-3.78,2.34-6.63,5.98-5.98Z"/>
      <path class="cls-2" d="M37.97,154.3c-2.01,2.04-8.03-3.9-5.98-5.98s8.03,3.9,5.98,5.98Z"/>
      <path class="cls-2" d="M55.97,140.32c2.05,2.07-3.97,8.02-5.98,5.98s3.97-8.02,5.98-5.98Z"/>
      <path class="cls-1" d="M65.98,132.31l-2,6c-.32-.98-3.46-2.55-1.99-5.99,1.28-.18,2.81.23,3.99,0Z"/>
      <rect class="cls-2" x="55.99" y="124.32" width="3.98" height="5.98"/>
      <path class="cls-6" d="M47.98,154.31v2c-1.1.16-7.57,5.47-6.01-.98.54-2.24,4.22-.47,6.01-1.02Z"/>
      <path class="cls-1" d="M43.97,142.32c.62,2.76-1.08,5.32-3.97,5.99v-5.99s3.97,0,3.97,0Z"/>
      <path class="cls-1" d="M55.98,152.31v4c-1.28.18-2.73-.2-4,0v-4c1.07-.39,3.35.43,4,0Z"/>
      <path class="cls-4" d="M51.98,152.31v4c-1.27.2-2.73-.19-4,0v-2c.84-.26,2.42-1.42,4-2Z"/>
      <path class="cls-2" d="M53.97,134.32c2.18,2.18-1.8,6.16-3.98,3.98s1.8-6.16,3.98-3.98Z"/>
      <path class="cls-2" d="M43.97,134.32c2.18,2.18-1.8,6.16-3.98,3.98s1.8-6.16,3.98-3.98Z"/>
      <path class="cls-2" d="M49.97,120.32c2.18,2.18-1.8,6.16-3.98,3.98s1.8-6.16,3.98-3.98Z"/>
      <path class="cls-3" d="M21.98,62.31c8.78,2.43,42.1-3.66,46.78-.21,2.3,1.7,3.98,25.99,2.34,28.34-15.76,2.91-32.96,5.15-49.12,1.87v-30Z"/>
      <path class="cls-4" d="M65.1,108.43c3.57-1.1,6.82-.17,8.84,2.88-4.12,4.42-10.75,7.95-11.95.03,1.01-.85,1.99-2.57,3.11-2.91Z"/>
      <path class="cls-7" d="M31.97,110.32c4.03,3.55-10.85,10.37-9.98,0h9.98Z"/>
    </g>
  </g>
</svg>