<?xml version="1.0" encoding="UTF-8"?>
<svg id="Calque_2" data-name="Calque 2" xmlns="http://www.w3.org/2000/svg" viewBox="0 0 139.86 194.72">
  <defs>
    <style>
      .cls-1 {
        fill: #8aa25d;
      }

      .cls-2 {
        fill: #8f625d;
      }

      .cls-3 {
        fill: #cfae8a;
      }

      .cls-4 {
        fill: #3b5051;
      }

      .cls-5 {
        fill: #4a3d2c;
      }
    </style>
  </defs>
  <g id="Calque_1-2" data-name="Calque 1">
    <g>
      <path class="cls-5" d="M48.18,174.79c.46-4.73,4.51-7.13,5.57-11.44,2.4-9.72,1.67-22.47,4.41-32.56-17.11,9.91-34.61-.64-34.33-19.66-3.33-4.07-19.68-2.69-23.19-19.8-3.4-16.54,8-19.52,9.23-25.83s-11.57-14.93.27-29.75c8.34-10.43,22.17-7.77,23.85-9.15.59-.48,2.2-10.7,4.49-14.5,8.08-13.43,29.62-15.9,41.63-6.23,10.03,14.11,7.33,7.51,22.82,7.01,13.26,1.2,22.97,14.65,22.68,27.36-.09,3.87-3.82,7.12-3.31,9.38s15.72,8.9,17.49,22.74c.89,9.56-6.58,26.22-17.32,26.73,1.14,22.45-11.74,40.48-40.28,29.74l4.01,43.99c9.69-9.98,10.32,3.62,13.34,4.15,2.73.48,6.35-1.7,9.46-1.54,5.59.29,10.42,13.09,19.18,11.41.33,7-5.38,5.66-10,5.98-.46-10.12-12.77-1.5-10.01-12l-13.89,3.93-3.1-7.89-7.98,4.06c-2.24-7.74-6.12-5.14-5.03,1.92h-10.95s-2.02-6.02-2.02-6.02c-3.13,2.53-5.61,7.5-9.99,8.02-5.31.63-1.65-3.41-3.56-5.45-3.95-2.05-3.74,1.89-3.47-4.58ZM58.18,90.79c7.99,5.43,7.2-37.77,15.99-31.99,3.17,5.66-.03,31.66,5,31.94,2.84.16,12.81-12.66,19-9.94-3.97,15.68-20.57,25.8-15.76,43.77,20.06,7.67,43.75-5.28,31.76-27.76,25.7-3.23,27.66-36.18,4.23-42.26-2.05-2.79,8.75-24.31-7.44-33.55-10.22-5.84-20.6.98-25.47-.43-2.15-.62-5.75-7.88-9.43-10.67-12.24-9.28-28.86-5.38-34.95,8.81-1.33,3.09-.16,9.42-2.78,11.22-3.27,2.23-11-.66-19.14,4.86-19.7,13.36-2.09,22.83-2.84,30.96-.53,5.71-15.53,7.67-10.02,25.88,2.22,7.35,14.03,17.08,21.85,13.15-1.45,5.25.91,8.32,2.02,12.01.93,4.25.95,8.81,6,8,3.83,2.47,2.48,5.01,11.03,4.16,31.69-3.16-10.19-45.12-9.03-51.12,2.45-12.76,18.87,12.21,20.01,12.96-2.61-1.38-5.33-2.71-7.98-4,.82,6.93,6.58,11.41,8.93,18.05,7.79,21.96,1.86,50.34-4.94,71.94l15.94-3.95,1.04,5.95c1.84-6.89,10.46-7.5,10.98-8.01-3.94-21.69-8.61-52.35,2.01-73.97-13.84,6.86-11.6-14.45-12.01-24-4.82,1.51-6.06,17.23-5.99,22-5.43,1.99-6.79-3.37-7.99-4.01ZM47.18,82.79v2c1.3-.67,1.3-1.33,0-2ZM85.18,92.79v2c1.3-.67,1.3-1.33,0-2Z"/>
      <path class="cls-1" d="M48.18,178.79c7.94-1.12.35,6.91,7.02,6.03,4.37-.52,6.85-5.5,9.99-8.02l2.02,6.03h10.95c-1.09-7.08,2.79-9.68,5.03-1.94l7.98-4.06,3.1,7.89,13.89-3.93c-2.76,10.51,9.55,1.89,10.01,12-26.35-3.6-54.39-2.02-80.98,0-5.9.68-12.08,4.98-15.02-2.01,4.92-2.21,4.29-5.2,4-10,4.5,4.47,13.35-2.41,13.95-2,1.26.87,3.14,14.37,8.05,0Z"/>
      <path class="cls-4" d="M24.18,176.79c.62-2.16-1.7-4.97,3.04-4.06,6.88,1.33,4.42,8.57,9.98-1.94,6.44,1.31,2.38,8.72,10.98,4-.09.97-.16,3.82,0,4-4.91,14.37-6.78.88-8.05,0-.6-.42-9.45,6.46-13.95,2-.1-1.69-.09-3.44-2-4Z"/>
      <path class="cls-5" d="M26.18,180.79c.29,4.8.92,7.79-4,10-.55-.37-7.06.84-3.92-3.93.11-.17,2.9.42,3.86-1.55,1.11-2.27,1.3-5.84,2.06-8.52,1.91.56,1.9,2.31,2,4Z"/>
      <path class="cls-1" d="M30.18,116.79c-1.1-3.69-3.46-6.76-2.02-12.01-7.82,3.93-19.62-5.8-21.85-13.15-5.5-18.21,9.49-20.17,10.02-25.88.76-8.12-16.85-17.6,2.84-30.96,8.14-5.52,15.87-2.63,19.14-4.86,2.63-1.79,1.46-8.13,2.78-11.22C47.2,4.53,63.82.62,76.06,9.9c3.67,2.79,7.27,10.05,9.43,10.67,4.88,1.41,15.26-5.41,25.47.43,16.18,9.24,5.38,30.76,7.44,33.55,23.34,6.02,21.55,39.04-4.23,42.26,11.99,22.48-11.7,35.43-31.76,27.76-4.81-17.97,11.79-28.09,15.76-43.77-6.19-2.72-16.16,10.1-19,9.94-5.03-.28-1.83-26.28-5-31.94-8.83-5.71-7.95,37.37-15.99,31.99-1.14-.75-17.55-25.72-20.01-12.96-1.15,6,40.72,47.96,9.03,51.12-8.55.85-7.19-1.69-11.03-4.16.4-4.26.39-9.91-4.98-9.99l-1.02,1.99Z"/>
      <path class="cls-2" d="M58.18,90.79c1.2.64,2.56,5.99,7.99,4.01-.07-4.76,1.16-20.47,5.99-22,.41,9.54-1.84,30.85,12.01,24-10.62,21.59-5.95,52.32-2.01,73.97-.53.52-9.15,1.12-10.99,8.01l-1.04-5.95-15.94,3.95c6.81-21.6,12.74-49.98,4.94-71.94-2.35-6.63-8.12-11.12-8.93-18.05,2.65,1.29,5.37,2.61,7.98,4Z"/>
      <path class="cls-3" d="M36.18,124.79c-5.05.8-5.07-3.74-6-8l1.02-1.99c5.37.08,5.38,5.73,4.98,9.99Z"/>
      <path class="cls-2" d="M47.18,82.79c1.3.67,1.3,1.33,0,2v-2Z"/>
      <path class="cls-2" d="M85.18,92.79c1.3.67,1.3,1.33,0,2v-2Z"/>
    </g>
  </g>
</svg>