<?xml version="1.0" encoding="UTF-8"?>
<svg id="Calque_2" data-name="Calque 2" xmlns="http://www.w3.org/2000/svg" viewBox="0 0 167.94 163.96">
  <defs>
    <style>
      .cls-1 {
        fill: #704834;
      }

      .cls-2 {
        fill: #8f625d;
      }

      .cls-3 {
        fill: #b7cfd7;
      }

      .cls-4 {
        fill: #cb844b;
      }

      .cls-5 {
        fill: #cfae8a;
      }

      .cls-6 {
        fill: #4a3d2c;
      }

      .cls-7 {
        fill: #a78a6a;
      }
    </style>
  </defs>
  <g id="Calque_1-2" data-name="Calque 1">
    <g>
      <path class="cls-6" d="M100.46,67.31c-8.3-12.99,16.76,8.27,20,10,.84.5,3.68,2.39,3.98,2,1.12-3.73-1.67-3.4-1.98-4-.66-1.27-1.23-2.97-2-4,2.12-.12,4.41,1.75,6,2,4.17,13.39,2.13,7.91-4,10-2.96-5.29-8.57-4.52-12-6-2.37-2.8-3.29-8.26-10-10Z"/>
      <path class="cls-6" d="M78.46,47.31c-5.92,10.75-13.97,18.14-18,30-2.32,2.29-6.16,5.57-8,8-.32.42.32,1.57,0,2l-2,2c-1.56,1.08-3.26,4.23-4,6C35.61,108.04-.49,137.37,7.44,155.33c5.43,9.04,11.58-.24,13.65-1.35,2.95-1.59,5.69-.26,9.47-3.57,13.47-8.67,24.32-64.05,45.9-55.1,5.65,2.2,13.15,10.15,19.96,11.02-3.96-6.96-9.85-13.01-17.96-15.02-2.68-4.23-2.7-4.08,2-4,3.74,3.18,9.18,2.16,12,6,1.22,3.36,3.19,3.43,6,4,1.23,1.54,1.1,7.18,6,8-.48,22.34-24.64-8.41-34.58-5.73-14.07,3.54-31.92,79.06-62.52,61.82-24.7-13.91,19.96-51.63,29.04-63.15,13.7-17.37,26.44-35.76,40.06-52.94,1.99-.42,1.86,1.98,2,2Z"/>
      <path class="cls-6" d="M98.46,67.31c3.34,8.3,5.63,7.26,12,10,2.53,2.99,8.4,5.18,6,8-1.08,1.27-14.29-10.78-18-9.98,2.68,3.28,10.74,9.69,14.24,11.08,3.04,1.21,3.34-1.04,3.76-1.1,1.29-.16,2.87.26,4,0,1.77,9-3.57,4.82-6,6l-25.99-15.99,23.99,19.99c-1.29,1.84-2.65,4.04-4,6l-2.66-.05c-1.78-5.72-5.6-3.08-7.34-3.95-1.86-2.83-4.79-4.87-8-6-2.9-2.58-4.64-7.13-10-8l-2.01-1.97c1.21-.32,3.35.36,4.01-.03,3.75,2.49,8.07,4.02,12,6,1.45,1.44,9.96,11.94,11.98,10,3.61-3.47-10.59-9.3-11.98-10-3.05-3.02-4.64-6.91-10-8,2.62-5.9-1.23-5.5,8-10,1.94-.94,3.76-1.96,6-2Z"/>
      <path class="cls-1" d="M130.46,17.31c1.91-.39,3.89-2.48,6.64-2.05.83.13,10.46,8.23,13.36,10.05l-2,2c-1.9-1.48-9.94-7.55-11.04-7.98-3.42-1.32-4.03,2.7-2.95,3.94.92,1.05,22.62,13.75,23.98,14.04,2.05,4.21,1.58,3.96,0,8-12.18-.04-18.85-13.28-30-15.98,5.82,5.5,11.65,12.59,19.48,14.6,1.09,1.03.42,6.47,4.52,7.38-1.58,1.79-2.11,2.39-4,4-4.77.84-4.77-4.56-7.52-6.02-1.29-.68-3.8.41-4.48.02-3.95-2.25-8.09-4.29-11.01-7.99l-1.01,5.99-7.98-3.98,2,3.98v2l-3.99.99c1.41,3.64,6.59,3.89,7.99,5.01,4.81,3.86,7.82,10.15,14,12-1.81,4.93,4.07,6.77-8,6l-23.02-17.96c3.5,8.23,13.74,10.67,17.02,19.96l-2,2c-3.3-1.77-28.1-22.87-20-10-2.79-.37-5.58.68-8,2-.94-7.74,3.56-8.57,10.01-8.02-5.93-10.79,3.4-8.14,8.1-12.87,7.8-6.4,8.51-24.5,15.89-23.12,1.97.16,4.05-.23,6,0l18.98,14.02c2.66-1.03-2.35-4.12-3.19-4.81-3.51-2.89-9.68-7.9-13.79-9.21-3.98-2.05-4.41-3.7-4-8ZM128.45,33.32c-2.18-2.18-6.16,1.8-3.98,3.98s6.16-1.8,3.98-3.98ZM140.46,45.29c-.24-2.04-9.53-8.44-9.98-7.98-2.98,3.09,7.98,8.56,9.98,7.98ZM110.46,53.33c-1.16.9,5.87,6.24,7.96,5-2.55-2.46-4.17-5.81-7.96-5Z"/>
      <path class="cls-6" d="M158.46,37.31c-2.18-4.48-6.24-7.07-10-10l2-2c3.05,1.92,5.4,6.23,10,6l1.99-2.99c-15.96-13.35-26.77-32.3-49.99-17.01l-2-2c22.3-33.36,80.07,34.07,48,28Z"/>
      <path class="cls-1" d="M110.46,9.31l2,2c-10.24,6.55-16.89,17.15-24,26-2.61,3.25-8.39,5.88-8,10-3.69.82-.8-2.1-4-2,13.09-16.51,16.22-23.11,34-36Z"/>
      <path class="cls-6" d="M128.46,51.31c1.57,3.97.92,6.04,8,5.98-.96-3.52-5.13-4.55-8-5.98-.51-1.29-3.31-3.89-.98-4.02,6.04,1.38,10.67,7.65,14.98,12.02-.14,2.88,1.57,7.1-4,6-5.71-6.92-15.28-8.38-20-16v-2c3.24,1.18,6.95,2.48,10,4Z"/>
      <path class="cls-3" d="M136.46,49.31c8.84-1.94,4.85,6.47,12,6,1.09,5.47-3.21,3.91-6,4-2.14-2.4-5.61-6.16-8-8l2-2Z"/>
      <path class="cls-3" d="M138.46,65.31c-.45.44-1.95,1.87-2,2-6.18-1.85-9.19-8.14-14-12h2c4.5,3.16,10.24,5.36,14,10Z"/>
      <path class="cls-3" d="M158.46,45.31c-3.03,7.78-4.84,4.69-6,6-4.1-.91-3.43-6.35-4.52-7.38-7.84-2.01-13.66-9.1-19.48-14.6,11.15,2.7,17.82,15.94,30,15.98Z"/>
      <path class="cls-3" d="M98.46,97.31c1.75.87,5.57-1.77,7.34,3.95l2.66.05c-2.87,4.18-3.81,3.71-4,4-4.9-.82-4.77-6.46-6-8Z"/>
      <path class="cls-3" d="M98.46,97.31c-2.82-.58-4.77-.64-6-4h2c2.35,1.61,2.41,2.01,4,4Z"/>
      <path class="cls-3" d="M122.46,83.31c-.52,2.41-3.7,2.08-6,2,2.4-2.82-3.47-5.01-6-8,3.43,1.48,9.04.71,12,6Z"/>
      <path class="cls-3" d="M110.46,77.31c-6.37-2.74-8.66-1.7-12-10,7.14-.63,9.85,7.21,12,10Z"/>
      <path class="cls-3" d="M112.46,95.31l-23.99-19.99,25.99,15.99c-.2.1-.78,2.26-2,4Z"/>
      <path class="cls-3" d="M120.46,71.31c-5.07-6.84-11.83-8.75-15.02-15.96l23.02,17.96c-2.81.62-4.96-1.94-8-2Z"/>
      <path class="cls-4" d="M88.46,41.31c8.16-7.38,17.64-18.68,24.41-27.55,11-3.53,6.46,4.39,7.6,5.55.37.38,8.08-1.6,9.99-2v2c-3.56.81-3.09,4.72-4,6-7.38-1.37-8.11,16.77-15.89,23.12-4.7,4.72-14.04,2.08-8.1,12.87-6.45-.55-10.95.28-10.01,8.02-9.23,4.5-5.38,4.1-8,10-2.21,2.88-2.64,1.85-6.01,2.03l2.01,1.97c-.03,6.11,1.05,3.1-3.7,4.26-.86.75,1.69,3.03,1.7,3.74.01.93-1.61,2.81-2,4-25.41-9.72-30.97,58.52-55.37,58.67-2.07,1.11-8.21,10.39-13.65,1.35-9.14-21.86,38.63-52.28,45.02-70.02,10.41-1.06,6.39-3.27,8-8,4.03-11.86,12.08-19.25,18-30,2.94.9,7.44-4.08,10-6Z"/>
      <path class="cls-7" d="M76.46,95.31c.39-1.19,2.01-3.07,2-4,8.11,2.01,14,8.06,17.96,15.02-6.81-.87-14.31-8.83-19.96-11.02Z"/>
      <path class="cls-5" d="M90.46,91.31c-2.99-1.32-7.09-1.62-10-4,.33-.31-.22-2.88,0-4,5.36.87,7.1,5.42,10,8Z"/>
      <path class="cls-5" d="M94.46,93.31h-2c-.7-.63-1.3-1.38-2-2,1.64.72,2.26.81,4,2Z"/>
      <path class="cls-7" d="M60.46,77.31c-1.61,4.73,2.41,6.94-8,8,1.84-2.43,5.68-5.71,8-8Z"/>
      <path class="cls-7" d="M46.46,95.31l2-4c-.32.41-.44,2.13-2,4Z"/>
      <path class="cls-7" d="M50.46,89.31l2-2c-.59.8-1.5,1.34-2,2Z"/>
      <path class="cls-7" d="M40.46,101.31l4-4c-1.47,1.71-3.03,2.89-4,4Z"/>
      <path class="cls-5" d="M148.46,27.31c3.76,2.93,7.82,5.52,10,10-1.36-.28-23.07-12.99-23.98-14.04-1.08-1.24-.47-5.26,2.95-3.94,1.09.42,9.13,6.49,11.04,7.98Z"/>
      <path class="cls-5" d="M128.46,51.31c2.87,1.43,7.03,2.46,8,5.98-7.08.06-6.43-2.01-8-5.98Z"/>
      <path class="cls-5" d="M136.46,49.31l-2,2c-2.57-2.7-11.43-7.5-6,0-3.05-1.52-6.76-2.82-10-4l-2-3.98,7.98,3.98,1.01-5.99c2.92,3.7,7.06,5.74,11.01,7.99Z"/>
      <path class="cls-7" d="M134.46,25.31c1.49-.02,21.45,12.85,16.98,14.02l-18.98-14.02c.7.08,1.47-.17,2,0Z"/>
      <path class="cls-2" d="M130.46,19.31c-.7,3.32,1.51,4.46,4,6-2.53-.16-5.4.08-8,0,.91-1.28.44-5.19,4-6Z"/>
      <path class="cls-5" d="M118.46,49.31c1.49,2.41,3.71,4.4,6,6h-2c-1.4-1.12-6.58-1.37-7.99-5.01l3.99-.99Z"/>
      <path class="cls-7" d="M110.46,53.33c3.79-.81,5.41,2.54,7.96,5-2.09,1.24-9.12-4.1-7.96-5Z"/>
      <path class="cls-7" d="M128.45,33.32c2.18,2.18-1.8,6.16-3.98,3.98s1.8-6.16,3.98-3.98Z"/>
      <path class="cls-7" d="M140.46,45.29c-2,.58-12.96-4.89-9.98-7.98.44-.46,9.74,5.94,9.98,7.98Z"/>
      <path class="cls-7" d="M122.46,75.31c.31.6,3.1.27,1.98,4-.3.39-3.14-1.5-3.98-2l2-2Z"/>
      <path class="cls-2" d="M160.46,27.31v4c-4.6.23-6.95-4.08-10-6s-12.53-9.93-13.36-10.05c-2.75-.43-4.73,1.66-6.64,2.05s-9.63,2.38-9.99,2c-1.13-1.16,3.4-9.09-7.6-5.55-6.78,8.87-16.25,20.18-24.41,27.55v-4c22.34-32.26,44.09-45.5,72-10Z"/>
      <path class="cls-1" d="M160.46,31.31v-4c.13.13,1.7-.21,1.99,1.01l-1.99,2.99Z"/>
      <path class="cls-7" d="M94.46,87.31c1.39.7,15.59,6.53,11.98,10-2.02,1.94-10.53-8.56-11.98-10Z"/>
      <path class="cls-7" d="M94.46,87.31c-3.93-1.98-8.25-3.51-12-6,.12-.07,1.94-1.87,2-2,5.36,1.09,6.95,4.98,10,8Z"/>
      <path class="cls-7" d="M116.46,85.31c-3.33,5.15-14.98-7.07-18-9.98,3.71-.8,16.91,11.25,18,9.98Z"/>
      <path class="cls-5" d="M88.46,41.31c-1.44,1.3-6.81,5.71-8,6-.39-4.12,5.39-6.75,8-10v4Z"/>
    </g>
  </g>
</svg>