<?xml version="1.0" encoding="UTF-8"?>
<svg id="Calque_2" data-name="Calque 2" xmlns="http://www.w3.org/2000/svg" viewBox="0 0 272.99 211.12">
  <defs>
    <style>
      .cls-1 {
        fill: #704834;
      }

      .cls-2 {
        fill: #8f625d;
      }

      .cls-3 {
        fill: #b7cfd7;
      }

      .cls-4 {
        fill: #f7f7f0;
      }

      .cls-5 {
        fill: #cfae8a;
      }

      .cls-6 {
        fill: #3b5051;
      }

      .cls-7 {
        fill: #4a3d2c;
      }

      .cls-8 {
        fill: #a78a6a;
      }
    </style>
  </defs>
  <g id="Calque_1-2" data-name="Calque 1">
    <g>
      <path class="cls-7" d="M112.88,46.77c45.31.12,90.7-.1,136.01.01,5.02-13.67-9.58-27.07-4.96-37.97,6.26-14.75,33.02-9,28.55,10.52-5.84,12.87-9.12,4.65-5.51,20.35-.46,49.33,5.56,103.71,1.15,151.75-1.14,12.47.12,18.88-13.25,17.34v-2c22.62,6.03.44-151.29,8.18-175.14.73-3.84-3.88-2.14-4.2-3.86-.18-.95,12.18-4.18,9.22-15.03-5.47-20.05-33.45.57-15.06,16.92l-.14,175.11h-2c-2.57-8.31-1.82-17.4-1.99-26.01l-221.71.36c-.94,1.13-.1,2.58-.3,3.65l-1.8,1.01,1.8.99c-.16,1.98.14,4.02,0,6h-4c1.13-39.37-2.06-78.64-2-118h4c-.37,17.93-.11,36.07,0,54,.07,3.3-.99,17.72,1.15,18.03,0,0,16.86-.02,16.86-.02.58-22.71-1.04-45.75-2.01-68.01h4c0,22.64,0,45.37,0,68.01h7.98c.09-9.31-.08-18.7,0-28.01h4c-.72,9.35,2.03,19.14-2,27.98,10.66.03,21.36.06,32.01.03,2.57-22.57-4.38-55.19,1.99-76.01.26,15.71-.29,31.5-.14,47.23.03,3.59,2.14,6.41,2.14,6.77.01.89-1.65,2.8-2,4l1.15,18.03,22.86-.02c.08-27.32-.05-54.7-.01-82.02-12.64,1.4-25.19,2.43-38,2.01-15.64-.35-32.49,1.3-48-2,.01-.67,0-1.33,0-2l222.01-2.01v-7.98s-126.01,0-126.01,0l-1-1.96-1,1.96c-2.67,0-5.33,0-8,0v-4ZM116.88,120.77c-2.85.46.39,22.25,0,24.01h5.98c.03-13.31,0-26.7,0-40.01.02-11.45-1.7-25.36,2-36,4.95,15.91.5,36.91,1.99,54.01h22.01v-58.01c-7.9-.48-16.13.67-24,0-2.32-.2-6.34-3.38-9.99-2-1.09,19.45.98,38.74,1.99,58ZM186.88,122.77v-57c0-3.79-15.57-3.63-18.99-2.99-8.53,1.61-3.08,8.47-2.91,14.9.39,15-.48,30.11-.11,45.09h22.01ZM196.88,62.77c-2.67.06-5.35-.08-8.01-.01-1.33,27.51,3.23,54.53,2.02,82.02,8.67,1.61,5.72-2.95,5.99-10.01,2.47-.96,2.1-3.81,2-6-.85-19.38-2-38.39-2-58h4c0,17.31,0,34.7-.01,52.01h18.02c-.02-15.98-.01-32.03-.01-48.01l4-2c0,23.98,0,48.04,0,72.01,8.77.74,17.66-1.91,25.99,1.99-.39-27.93,1.47-56.2-1.13-84.03l-14.85.04,1.99,60c2.66.02,5.34,0,8.01-.01v4c-6.85-3.02-8.15-.59-8,6h-4c-.32-23.75.01-46.54,0-70.01-11.31.03-22.7-.22-34.01.01ZM152.88,106.77c.05,8.86-1.72,29.14,0,36,.23,2.83,4.05,2.12,6,2,1.53-.4,1.6-.4,2-2,2.34-21.77-1.06-54.91,0-78.01h-7.98c.03,13.97-.08,28.03,0,42.01ZM148.89,126.76h-22.02v18.02h22.02v-18.02ZM186.89,126.76h-22.02v18.02h22.02v-18.02ZM218.89,126.76h-18.02v18.02h18.02v-18.02ZM208.88,172.77c11.01,5.45,27.08-3.29,40.01,0,1.36-8.49-4.62-16.21-.01-23.99l-222.01-.03c1.53,19.82-7.64,24.83,14.92,26.11,21.66,1.22,43.93-.51,65.09-2.1,34.14-1.12,68.47,3.9,102,0Z"/>
      <path class="cls-8" d="M22.88,26.77c-5.93,58.67,2.29,118.87.01,178.01h-12.02c-.17-6.64.33-13.43,0-20.01h-4c3.05-35.89,1.73-65.94,2-102l2-2c.21-12.79,2.03-42.35-.97-53.01-1.19-4.22-5.58-3.37-4.69-11.43C6.18,7.79,14.25,1.47,21.71,6.93c7.27,5.31,1.16,14.11,1.18,19.85ZM17.88,26.77v2c1.3-.67,1.3-1.33,0-2Z"/>
      <path class="cls-7" d="M22.88,26.77c-.01-5.73,6.1-14.53-1.18-19.85-7.46-5.45-15.53.86-16.48,9.4-.89,8.06,3.5,7.21,4.69,11.43,3,10.67,1.18,40.22.97,53.01,0,.14-1.98.6-2,2-.45,35.47,1.35,64.71-2,100-3.31-2.08-2-7.59-2.03-10.97.5-46.2-3.17-94.24,2.11-139.94-.84-6.08-12.03-12.25-4.18-25.69C13.6-12.33,48.14,15.59,22.88,26.77Z"/>
      <path class="cls-7" d="M106.88,46.77v4c-23.96.08-48.04-.3-72,0v-4c23.45,1.1,48.36-.08,72,0Z"/>
      <path class="cls-1" d="M10.88,188.77c.51,5.23-.37,10.75-.01,16.01h12.02c.1-4.65-.14-9.36-.01-14.01h4c-.5,7.13,2.86,18.37-7.11,20.01-14.41,2.36-12.73-7.75-12.89-18.01l4-4Z"/>
      <path class="cls-1" d="M22.88,32.77c.14,3.15,3.77,9.22,1.99,14.01,3.32.13,6.69-.17,10.01-.01v4c-3.33.04-6.69-.07-10.01,0-1.92,3.41,2.01,9.18,2.01,9.99.39,3.39-1.73,5.65-2,12h-4c.02-12.81-1.7-27.94,2-40Z"/>
      <path class="cls-7" d="M6.88,184.77h4c.18,1.32-.12,2.69,0,4l-4,4c-.04-2.6-.23-5.44,0-8Z"/>
      <path class="cls-1" d="M112.88,46.77v4c-2,0-4,0-6,0v-4c2,0,4,0,6,0Z"/>
      <path class="cls-2" d="M254.88,206.77v2c-4.51.44-4.26.07-4-4h2l2,2Z"/>
      <path class="cls-1" d="M26.88,184.77l-1.8-.99,1.8-1.01c-.12.63.05,1.34,0,2Z"/>
      <path class="cls-8" d="M106.88,172.77c-21.16,1.58-43.43,3.32-65.09,2.1-22.57-1.27-13.39-6.28-14.92-26.11l222.01.03c-4.61,7.78,1.38,15.5.01,23.99-12.93-3.29-28.99,5.45-40.01,0-9.57-1.47-24.25-5.28-33.12-6.17-6.49-.65-3.73,6.07-10.87,4.15-1.23-2.44,8.6-2.42,3.98-5.97-5.85-4.5-15.1,5.19-19.02,5.96-12.21,2.4-30.43,1.09-42.97,2.03Z"/>
      <path class="cls-8" d="M252.88,204.77l.14-175.11c-18.39-16.35,9.58-36.97,15.06-16.92,2.96,10.85-9.39,14.08-9.22,15.03.32,1.72,4.93.02,4.2,3.86-7.74,24.19,14.46,180.99-8.17,175.14l-2-2Z"/>
      <path class="cls-8" d="M34.88,50.77c55.58-.18,157.23.12,214.01,0v7.98s-222.01,2.01-222.01,2.01c0-.81-3.93-6.58-2.01-9.99,3.32-.07,6.68.04,10.01,0Z"/>
      <path class="cls-4" d="M88.88,64.77c8.36-.11,15.78-1.41,24-2.01-.19,19.97.27,40.04,0,60.01h-22c0-.35-2.11-3.18-2.14-6.77-.11-17.1.39-34.18.14-51.23Z"/>
      <path class="cls-4" d="M186.88,122.77h-22.01c-.37-14.97.5-30.08.11-45.08-.17-6.44-5.62-13.29,2.91-14.9,3.42-.65,18.99-.8,18.99,2.99v57Z"/>
      <path class="cls-4" d="M124.88,64.77c7.87.67,16.1-.48,24,0v58h-22.01c-.61-18.87,1.63-40.24-1.99-58Z"/>
      <path class="cls-4" d="M74.88,64.77v58.01s-18-.01-18-.01c.22-19.43-.37-38.67-2-58,6.17-.02,14.17.05,20,0Z"/>
      <path class="cls-4" d="M218.88,62.77c0,19.87,0,40.17.01,60.01h-18.02c.02-19.94,0-40.06.01-60.01,5.92-.2,12.08-.2,18,0Z"/>
      <path class="cls-4" d="M40.88,64.77c-.61,19.55,2.06,38,2,58h-18c.63-18.89-2.42-42.04,2-60,4.72.74,9.19,1.69,14,2Z"/>
      <path class="cls-4" d="M242.88,122.77c-2.67,0-5.35.03-8.01.01l-1.99-60,14.85-.04c2.01,19.8,1.28,40.13,1.15,60.03-2,0-4,0-6,0Z"/>
      <path class="cls-8" d="M88.88,64.77c-5.2,22.83-.24,55.51-1.99,80.01-2.66.07-5.34-.07-8.01-.01l-2-80c4-.03,8,.05,12,0Z"/>
      <path class="cls-8" d="M54.88,64.77c-4.36,25.82-1.21,53.67-2.01,80.01h-7.98c-.02-26.56,0-53.43,0-80.01,3.33-.04,6.67.01,10,0Z"/>
      <path class="cls-8" d="M222.88,62.77c2.67.06,5.35-.08,8.01-.01-.12,27.33-.17,54.43,0,82.01-2.67-.05-5.35.07-8.01.01.02-27.27,0-54.73,0-82.01Z"/>
      <path class="cls-8" d="M196.88,62.77c-.22,22.16.98,44.07,2,66-6.46,4.26,4.46,19.09-7.99,16.01,1.21-27.49-3.35-54.51-2.02-82.02,2.66-.07,5.34.07,8.01.01Z"/>
      <path class="cls-3" d="M112.88,126.77c-.13,5.98.1,12.03.01,18.01l-22.86.02-1.15-18.03h24Z"/>
      <path class="cls-2" d="M124.88,64.77c.22,1.25-.32,2.97,0,4-3.7,10.64-1.98,24.55-2,36-4.44,2.22-.62,14.16-2,16.02l-4-.02c-1.01-19.27-3.08-38.55-1.99-58,3.65-1.37,7.67,1.81,9.99,2Z"/>
      <rect class="cls-3" x="126.87" y="126.76" width="22.02" height="18.02"/>
      <rect class="cls-3" x="164.87" y="126.76" width="22.02" height="18.02"/>
      <path class="cls-1" d="M78.88,144.77c-1.33.03-2.67-.04-4,0v-18.01s-18,.01-18,.01c.02-1.33-.01-2.67,0-4h18.01s-.01-58-.01-58c.67,0,1.33,0,2,0l2,80Z"/>
      <path class="cls-5" d="M106.88,172.77c12.55-.94,30.76.38,42.97-2.03,3.91-.77,13.17-10.46,19.02-5.96,4.62,3.55-5.21,3.53-3.98,5.97,7.14,1.92,4.37-4.8,10.87-4.15,8.87.9,23.55,4.7,33.12,6.17-33.53,3.9-67.87-1.12-102,0Z"/>
      <path class="cls-5" d="M160.88,96.77c.08,10.57,2.03,37.9,0,46l-2,2c-.74.2-3.26.2-4,0l-2-2c-1.72-6.86.05-27.14,0-36l4,.02v-10.04s4,.02,4,.02Z"/>
      <path class="cls-3" d="M56.88,126.77h18.01s-.01,18-.01,18c-6.63.21-13.36-.14-20-.02,3.05-5.73,1.92-11.87,2-17.98Z"/>
      <path class="cls-3" d="M42.88,126.77c-.13,5.98.1,12.03.01,18.01-20.47-.71-18.46,5.29-18.01-18.01h18Z"/>
      <rect class="cls-3" x="200.87" y="126.76" width="18.02" height="18.02"/>
      <path class="cls-8" d="M152.88,106.77c-.07-13.97.04-28.03,0-42.01h7.98c.08,10.64-.07,21.37,0,32.01l-4-.02v10.04s-4-.02-4-.02Z"/>
      <path class="cls-3" d="M242.88,126.77c1.89.27,4.05-.18,6,0-.07,6.65.07,13.35-.02,20-4.66-2.88-9.18-1.61-13.98-2,1.14-6.51-4.28-24.26,8-18Z"/>
      <path class="cls-8" d="M122.88,104.77c-.02,13.31.02,26.7,0,40.01h-5.98c.39-1.86-2.87-23.48,0-24.01l4,.02c1.39-1.85-2.43-13.79,2-16.02Z"/>
      <path class="cls-1" d="M56.88,116.77h-4c.16-16.25-1.79-34.42,2-50,1.8,16.67,2,33.23,2,50Z"/>
      <path class="cls-6" d="M112.88,122.77c-.02,1.33.03,2.67,0,4h-24c.35-1.2,2.01-3.11,2-4h22Z"/>
      <path class="cls-6" d="M42.88,122.77c-.02,1.33.03,2.67,0,4h-18c-.03-1.33.02-2.67,0-4h18Z"/>
      <path class="cls-1" d="M44.88,64.77v12h-4c-.04-4,.03-8,0-12,1.31.09,2.68.01,4,0Z"/>
      <path class="cls-1" d="M234.88,132.77c-.35,3.94.24,8.04,0,12-1.31-.11-2.68.02-4,0,0-4,0-8,0-12h4Z"/>
      <path class="cls-1" d="M222.88,62.77v10l-4,2v-12c1.33.05,2.67-.03,4,0Z"/>
      <path class="cls-2" d="M200.88,62.77v8h-4v-8c1.33-.03,2.67.05,4,0Z"/>
      <path class="cls-6" d="M248.88,122.77c0,1.33.01,2.67,0,4-1.95-.18-4.11.27-6,0v-4c2,0,4,0,6,0Z"/>
      <path class="cls-1" d="M196.88,134.77c.08-2.2-.61-5.04,2-6,.1,2.19.47,5.04-2,6Z"/>
      <path class="cls-1" d="M128.88,172.77h2c-.56-.01-1.4,0-2,0Z"/>
      <path class="cls-1" d="M122.88,50.77c-.67,0-1.33,0-2,0l1-1.96,1,1.96Z"/>
      <path class="cls-8" d="M154.88,144.77c-1.53-.4-1.6-.4-2-2l2,2Z"/>
      <path class="cls-8" d="M158.88,144.77l2-2c-.4,1.6-.47,1.6-2,2Z"/>
      <path class="cls-7" d="M17.88,26.77c1.3.67,1.3,1.33,0,2v-2Z"/>
      <path class="cls-1" d="M8.88,82.77c.02-1.4,2-1.86,2-2l-2,2Z"/>
    </g>
  </g>
</svg>