<?xml version="1.0" encoding="UTF-8"?>
<svg id="Calque_2" data-name="Calque 2" xmlns="http://www.w3.org/2000/svg" viewBox="0 0 147.95 158.71">
  <defs>
    <style>
      .cls-1 {
        fill: #8aa25d;
      }

      .cls-2 {
        fill: #8f625d;
      }

      .cls-3 {
        fill: #cfae8a;
      }

      .cls-4 {
        fill: #4a3d2c;
      }

      .cls-5 {
        fill: #a78a6a;
      }
    </style>
  </defs>
  <g id="Calque_1-2" data-name="Calque 1">
    <g>
      <path class="cls-4" d="M144.1,42.47h-4c.02-.22-2.74-2.07-2.01-3.99l6.03-.03-2.89-14.11c-1.8-2.64-8.06-2.07-11.13-1.87-4.38-16.35-27.91-4.78-36,2,4.92-12.4,22.58-15.49,34-12.02-26.21-22.01-57.33,15.64-65.56,39.46-3.31,9.58-3.56,24.71-7.59,32.41-7.72,14.77-53.24,41.69-50.47,60.7,1.31,8.98,10.02,8.85,17.11,5.92,13.79-5.7,34.15-43.94,45.42-56.6,3.62-4.07,10.02-2.83,6.1-9.88-18.97-13.38,2.54-50.54,18.99-58-12.45,10.57-36.78,46.74-13.02,56.02,3.61-6.01-5.4-8.26-6.97-12,1.42.44,10.59,4.72,11.99,3.98-.39,5.48,2.3,10.55,2.01,16.01,4.78-1.75,16.35-2.52,19.99-4.01v2c-1.34.67-2.41,3.64-7.51,5.46-12.44,4.44-23.39-4.41-33,6.48-11.04,12.5-17.74,34.45-32.4,48.15-24.56,22.96-45.44,3.65-24.75-24.75,10.99-15.09,33.75-27.69,41.29-42.71,5.35-10.66,4.67-22.63,9.4-34.6,8.76-27.98,57.09-70.18,75.86-29.93,2.57,2.56,8.64,3.37,10.12,5.87.57.96,2.89,13.68,2.83,15.24-.13,3.88-3.67,4.32-3.86,4.78Z"/>
      <path class="cls-2" d="M144.1,42.47c-10.32,25.54-12.3,33.19-38,46v-2c1.97-.81,22.01-18.35,22.99-20.01,1.95-3.28.16-8.66,1.29-9.82.69-.7,4.36.47,5.3-.45.51-.5,4.35-12.91,4.41-13.71h4Z"/>
      <path class="cls-3" d="M130.1,22.47c-7.46.48-12.15,4.76-19.02-3.96l3.04,6.91c-10.26,2.2-6.79,13.39-16.01,9.04.59,17.34-4.24,11.09-8,17.99,11.59.84,10.39-11.14,12.43-13.55,11.61-2.17,10.99-15.61,26.31-12.41,2.03.29,1.41-2.63,1.25-4.02,3.07-.2,9.34-.77,11.13,1.87l2.89,14.11-6.03.03c-.72,1.91,2.03,3.77,2.01,3.99-.06.8-3.89,13.21-4.41,13.71-.94.92-4.62-.25-5.3.45-1.13,1.16.65,6.53-1.29,9.82-.99,1.66-21.03,19.2-22.99,20.01-3.63,1.49-15.21,2.26-19.99,4.01-1.16-12.71-3.99-13.96,1.34-27.62.97-2.4,7.96-2.98,4.65-6.37-.51-.53-11.4-1.21-13.02-5.98,1.16,5.09,11.88,16.32-.94,12.94l3.96,11.02-9.99-3.98c1.57,3.74,10.58,5.99,6.97,12-24.63-10.15,2.08-47.19,15.02-58.02,8.09-6.79,31.62-18.35,36-2ZM106.1,26.45l-3.98-3.98v3.99s3.98,0,3.98,0ZM124.09,32.48c-2.18-2.18-6.16,1.8-3.98,3.98s6.16-1.8,3.98-3.98ZM134.09,32.48c-2.18-2.18-6.16,1.8-3.98,3.98s6.16-1.8,3.98-3.98ZM92.09,38.49h-3.98v1.96h3.98v-1.96ZM93.1,42.47v2c1.3-.67,1.3-1.33,0-2ZM114.09,58.48c-2.18-2.18-6.16,1.8-3.98,3.98s6.16-1.8,3.98-3.98ZM96.1,82.45l-3.98-3.98v3.99s3.98,0,3.98,0Z"/>
      <path class="cls-1" d="M92.1,26.47c-16.43,7.45-37.97,44.62-18.99,58,3.92,7.05-2.48,5.8-6.1,9.88-11.27,12.67-31.63,50.9-45.42,56.6-7.09,2.93-15.81,3.06-17.11-5.92-2.77-19.01,42.75-45.93,50.47-60.7,4.03-7.7,4.28-22.83,7.59-32.41,8.22-23.82,39.34-61.47,65.56-39.46-11.42-3.47-29.08-.38-34,12.02-.71.54-1.31,1.38-2,2Z"/>
      <path class="cls-2" d="M82.1,74.47l-3.96-11.02c12.82,3.38,2.1-7.85.94-12.94,1.62,4.77,12.51,5.45,13.02,5.98,3.31,3.4-3.68,3.98-4.65,6.37-.46,1.12-3.31,11-3.35,11.61h-2Z"/>
      <path class="cls-2" d="M130.1,22.47c.16,1.39.78,4.31-1.25,4.02-15.34-3.19-14.68,10.24-26.31,12.42-2.04,2.41-.84,14.38-12.44,13.55,3.78-6.91,8.59-.69,8-17.99,9.21,4.35,5.74-6.84,16.01-9.04l-3.04-6.91c6.87,8.72,11.56,4.44,19.02,3.96Z"/>
      <path class="cls-2" d="M124.09,32.48c2.18,2.18-1.8,6.16-3.98,3.98s1.8-6.16,3.98-3.98Z"/>
      <path class="cls-5" d="M134.09,32.48c2.18,2.18-1.8,6.16-3.98,3.98s1.8-6.16,3.98-3.98Z"/>
      <path class="cls-5" d="M114.09,58.48c2.18,2.18-1.8,6.16-3.98,3.98s1.8-6.16,3.98-3.98Z"/>
      <polygon class="cls-2" points="106.1 26.45 102.11 26.46 102.12 22.47 106.1 26.45"/>
      <polygon class="cls-2" points="96.1 82.45 92.11 82.46 92.12 78.47 96.1 82.45"/>
      <rect class="cls-2" x="88.11" y="38.49" width="3.98" height="1.96"/>
      <path class="cls-2" d="M93.1,42.47c1.3.67,1.3,1.33,0,2v-2Z"/>
    </g>
  </g>
</svg>