<?xml version="1.0" encoding="UTF-8"?>
<svg id="Calque_2" data-name="Calque 2" xmlns="http://www.w3.org/2000/svg" viewBox="0 0 156.07 142.3">
  <defs>
    <style>
      .cls-1 {
        fill: #704834;
      }

      .cls-2 {
        fill: #c5503d;
      }

      .cls-3 {
        fill: #f7f7f0;
      }

      .cls-4 {
        fill: #3b5051;
      }

      .cls-5 {
        fill: #4a3d2c;
      }

      .cls-6 {
        fill: #a78a6a;
      }
    </style>
  </defs>
  <g id="Calque_1-2" data-name="Calque 1">
    <g>
      <path class="cls-5" d="M91.91,10.52c.17.21,2.86-.71,4.16,1.24,1.44,2.16,1.23,7.83,2.05,8.54,5.34,4.62,31.08-11.68,41.52,7.49,4.16,7.64,14.99,57.57,16.06,67.93,2.24,21.75-5.59,22.5-23.76,27.82-22.98,6.73-55.75,13.1-79.58,16.42-10.27,1.43-26.99,5.22-35.23-1.67C8.91,131.42-3.53,58.5.94,48.55s31.67-10.8,32.96-12.04c1.49-1.43-3.58-18.32,4.95-26.05C44.79,5.09,79.14-2.74,85.49.96c.5.29,4.86,7.66,6.43,9.56-13.83-12.23-62.6-.66-53.99,24.01h5.98c.13-2.66-.1-5.35,0-8.01h2c1.9,1.3,3.1,5.13,5.17,5.63,4.89,1.18,27.48-6.21,34.83-5.63.93,1.41,2.87,2.61,4,4-27.95,5.4-56.08,11.45-83.71,18.28-1.39,12.32,7.94,83.05,17.04,87.4,6.73,2.33,73.11-11.43,85.09-14.26,11.98-2.83,42.77-6.24,41.5-20.13-7.53-14.4-9.96-66.37-17.71-76.04-3.28-4.09-30.06,1.57-36.2,2.75.95-2.65-1.65-4.71-2-6-.82-3.02-1-9.95-2-12Z"/>
      <path class="cls-3" d="M95.91,28.52c6.15-1.18,32.92-6.84,36.2-2.75,7.75,9.67,10.18,61.64,17.71,76.04,1.28,13.89-29.51,17.3-41.5,20.13-11.98,2.83-78.37,16.59-85.09,14.26-8.85-4.7-12.29-47.75-15-59.01-1.26-9.37-3.28-18.85-2.04-28.39,29.45-7.95,60.36-12.51,89.71-20.28ZM81.91,110.52c29.42,2.34-7-22.83,26.03-25,4.13-3.27-1.24-15.67-2.3-20.74l-19.85-1.15c-5.83-11.6,1.35-17.14-14.68-14.91s-10.08,8.98-9.26,21.72l-17.74,4.25c-.59,22.43,3.09,24.15,23.79,19.81,1.13,9.88,1.3,28.63,14.01,16.01Z"/>
      <path class="cls-3" d="M85.91,26.52c-7.35-.58-29.94,6.81-34.83,5.63-2.07-.5-3.27-4.33-5.17-5.63-1.11-4.85,6.34-6.51,9.46-7.53,4.95-1.62,14.87-4.59,19.66-4.58,8.02.03,7.46,6.9,10.88,12.1Z"/>
      <path class="cls-6" d="M43.91,26.52c-.11,2.66.13,5.35,0,8.01h-5.98C30.12,10.11,70.36,3.22,86.47,6.59c8.31,4.22,5.54,7.74,7.44,15.93-9.04,6.91-4.83-7.55-11.99-11-5.93-2.85-31.7,2.87-36.77,6.8-2.46,1.91-1.14,5.63-1.24,8.2Z"/>
      <path class="cls-4" d="M43.91,26.52c.11-2.57-1.22-6.29,1.24-8.2,5.07-3.93,30.84-9.65,36.77-6.8,7.16,3.45,2.95,17.9,11.99,11,.35,1.29,2.95,3.35,2,6-1.66.32-3.72,1.56-6,2-7.38-4.33-4.95-15.87-14.88-16.1-4.67.42-31.52,4.98-29.12,12.1h-2Z"/>
      <path class="cls-5" d="M57.91,96.52c-15.86,1.07-13.22-8.87-13.8-21.82l17.74-4.25c-.82-12.75-7.36-19.41,9.26-21.72s8.86,3.31,14.68,14.91l19.85,1.15c1.06,5.07,6.43,17.47,2.3,20.74-33.02,2.16,3.37,27.35-26.03,25v-2c12.18-2.8,6.79-14.17,2-21.98,14.37-2.25,26.22-.31,15.7-17.71l-15.77.86c-6.3-4.39,1.5-24.6-19.94-15.14l1.8,19.76c-2.79.64-14.65,3.15-15.49,4.48-3.22,5.07-.78,14.21,7.71,13.72v4Z"/>
      <path class="cls-1" d="M81.91,108.52v2c-12.72,12.64-12.88-6.17-14.01-16.01-3.47-.6-6.95,1.81-9.99,2.01v-4c3.57-.21,8.45-3.82,12.13-1.17,4.12,2.97.47,19.52,11.87,17.17Z"/>
      <path class="cls-2" d="M57.91,92.52c-8.49.49-10.93-8.65-7.71-13.72.84-1.33,12.71-3.84,15.49-4.48l-1.8-19.76c21.45-9.46,13.65,10.75,19.94,15.14l15.77-.86c10.52,17.4-1.33,15.46-15.7,17.71,4.79,7.8,10.18,19.18-2,21.98-11.4,2.36-7.75-14.2-11.87-17.17-3.67-2.65-8.56.96-12.13,1.17Z"/>
    </g>
  </g>
</svg>