<?xml version="1.0" encoding="UTF-8"?>
<svg id="Calque_2" data-name="Calque 2" xmlns="http://www.w3.org/2000/svg" viewBox="0 0 109.62 173.57">
  <defs>
    <style>
      .cls-1 {
        fill: #91a9b3;
      }

      .cls-2 {
        fill: #704834;
      }

      .cls-3 {
        fill: #8f625d;
      }

      .cls-4 {
        fill: #537ea0;
      }

      .cls-5 {
        fill: #b7cfd7;
      }

      .cls-6 {
        fill: #f7f7f0;
      }

      .cls-7 {
        fill: #cfae8a;
      }

      .cls-8 {
        fill: #3b5051;
      }

      .cls-9 {
        fill: #a78a6a;
      }
    </style>
  </defs>
  <g id="Calque_1-2" data-name="Calque 1">
    <g>
      <path class="cls-8" d="M7.94,67.33c8.33-1.15,47.88-13.58,49.71-21.37.22-.96-1.32-12.12-1.78-12.56-4.87-4.7-41.05,18.03-49.7,18.13-1.66,5.51,1.1,10.76,1.77,15.79C3.2,67.98-.17,58.57,0,54.23c.16-3.89,4.16-4.98,4.84-6.8.38-1.03.19-6.16,1.1-10.1h4c-.42,2.64-1.45,9.27,2.94,7.96,7.71-2.51,26.23-11.76,31.06-17.96,2.06,2.1,8.37,1.25,12.14,4.87,5.62,5.39,4.19,16.56,4.78,17.26,22.02,4.81,20.82,25.19,27.03,42.93,5.97,16.05,25.06,35.95,21.23,53.05-2.66,11.92-29.19,25.58-40.66,27.41-37.22,5.93-33.95-25.69-44.74-50.29-5.47-12.46-17.67-23.14-17.87-38.33-.1-7.61,3.3-7.86,2.09-16.89ZM57.44,53.64c-6.58,1.31-20.23,9.69-27.5,12.69-6.13,2.53-14.19-.12-17.11,8.88-5.72,17.62,9.46,32.44,16.08,48.15,3.94,9.35,9.13,33.62,14.14,39.86,10.72,13.37,52.03-2.38,58.63-15.15,8.14-15.76-7.38-29.52-13.16-42.32-7.5-14.04-12.01-54.24-31.07-52.12Z"/>
      <path class="cls-2" d="M43.94,27.33c-.6.72-1.39,1.29-2,2-3.07-5.35-14.83-5.63-17.56-8.44-3.23-3.34-.85-14.89-9.08-15.14-12.31-.38-1.11,16.48-1.31,20.39-.17,3.22-3.38,6.95-4.05,11.19h-4c.78-3.39,3.68-9.61,3.63-10.67-.31-6.06-10.71-10.93-2.58-21.3,12.33-15.73,18.55,7.77,22,11.92,4.19,4.55,15.37,1.74,14.95,10.05Z"/>
      <path class="cls-5" d="M57.44,53.64c19.06-2.14,23.57,38.09,31.07,52.12,5.79,12.8,21.31,26.56,13.16,42.32-6.6,12.77-47.91,28.52-58.63,15.15-5-6.24-10.2-30.52-14.14-39.86-6.62-15.71-21.8-30.53-16.08-48.15,2.92-9,10.98-6.35,17.11-8.88,7.27-3,20.91-11.38,27.5-12.69ZM19.94,89.33c-2.19,9.92,7.67,18.15,10.99,26.01,3.74,8.83,12.78,41.01,19.07,44.92,10.53,6.55,13.17.11,19.89-1.98,46.15-6.96,16.71-40.07,6.14-66.04-6.36-3.76-11.73,2.29-17.2,2.99-5.86.75-12.11-.71-17.8.21-3.95.63-6.5,4.91-12.03,3.98l-3.07-10.08c21.36-2.98-.37-11.97-6,0Z"/>
      <path class="cls-1" d="M7.94,67.33c-.67-5.04-3.43-10.28-1.77-15.79,8.66-.1,44.83-22.83,49.7-18.13.46.44,2.01,11.6,1.78,12.56-1.83,7.79-41.38,20.21-49.71,21.37Z"/>
      <path class="cls-7" d="M9.94,37.33c.67-4.24,3.88-7.97,4.05-11.19.21-3.91-11-20.78,1.31-20.39,8.23.25,5.85,11.8,9.08,15.14,2.72,2.82,14.49,3.09,17.56,8.44-4,4.63-22.93,14.12-29.06,15.96-4.39,1.31-3.36-5.31-2.94-7.96Z"/>
      <path class="cls-6" d="M25.94,89.33l3.07,10.08c5.53.93,8.08-3.35,12.03-3.98,5.69-.91,11.93.55,17.8-.21,5.47-.7,10.84-6.75,17.2-2.99,10.57,25.98,40.01,59.08-6.14,66.04-6.72,2.09-9.36,8.53-19.89,1.98-6.29-3.91-15.33-36.09-19.07-44.92-3.32-7.85-13.19-16.08-10.99-26.01,1.91-.23,4.24.35,6,0ZM45.93,103.34l-13.98,7.97c5.33.43,14.1-.96,13.98-7.97ZM43.93,117.34c-2.76-.62-5.32,1.08-5.99,3.97h5.99s0-3.97,0-3.97ZM53.93,125.34c-3.73,1.29-15.24,1.85-13.97,7.98,4.67-1.44,14.38-.85,13.97-7.98ZM53.93,139.34c-1.06-1.03-11.46,2.58-7.98,5.98,1.06,1.03,11.46-2.58,7.98-5.98ZM61.93,149.34c-1.32-1.22-13.85,2.07-9.98,5.98.5.5,14.09-2.16,9.98-5.98Z"/>
      <path class="cls-4" d="M19.94,89.33c1.72-7.79,19.91-7.26,14-2.02-3.15,1.3-10.05,2.46-14,2.02Z"/>
      <path class="cls-3" d="M53.93,125.34c.4,7.13-9.31,6.54-13.97,7.98-1.27-6.13,10.24-6.69,13.97-7.98Z"/>
      <path class="cls-3" d="M45.93,103.34c.12,7.01-8.65,8.4-13.98,7.97l13.98-7.97Z"/>
      <path class="cls-3" d="M61.93,149.34c4.12,3.82-9.48,6.49-9.98,5.98-3.87-3.91,8.66-7.2,9.98-5.98Z"/>
      <path class="cls-3" d="M53.93,139.34c3.48,3.4-6.92,7.02-7.98,5.98-3.48-3.4,6.92-7.02,7.98-5.98Z"/>
      <path class="cls-9" d="M43.93,117.34v3.98s-5.99,0-5.99,0c.67-2.89,3.23-4.59,5.99-3.97Z"/>
    </g>
  </g>
</svg>