<?xml version="1.0" encoding="UTF-8"?>
<svg id="Calque_2" data-name="Calque 2" xmlns="http://www.w3.org/2000/svg" viewBox="0 0 141.9 121.87">
  <defs>
    <style>
      .cls-1 {
        fill: #91a9b3;
      }

      .cls-2 {
        fill: #537ea0;
      }

      .cls-3 {
        fill: #b7cfd7;
      }

      .cls-4 {
        fill: #f7f7f0;
      }

      .cls-5 {
        fill: #3b5051;
      }

      .cls-6 {
        fill: #4a3d2c;
      }
    </style>
  </defs>
  <g id="Calque_1-2" data-name="Calque 1">
    <g>
      <path class="cls-5" d="M135.6,80.03C104.73,162.18-20.3,111.17,2.84,31.83L118.87.09c7.82-1.03,7.79,6.7,10.69,10.45,6.09,7.77,14.96,18.36,10.04,29.49-4.08-.15-8.14.81-12,2v-2c12.92-3.75,7.47-14.13,2.02-23.16-2.64-1.65-25.12,7.45-30.02,9.16l-2-2c5.56-6.57,21.95-6.28,27.07-11.93,2.07-3.19-1.69-7.11-4.32-7.6-3.84.46-48.24,11.1-50.75,15.53-11.49,3.2-27.74,4.57-38.62,8.01-2.43.77-1.07,3.72-1.38,3.99-10.15,1.62-28.12-4.53-24.01,12.01,8.14,2.49,17.68-3.35,24.01-4.01,15.55-1.6,22.84,7.54,17.66,22.68-1.89,5.54-10.85,4.56-11.69,5.34-.28.26,2.01,4.32,2.02,5.98,0,.31-1.84,1.55-1.73,3.05.79,10.05,5.08,5.56,7.73,6.95,14.85,5.2,23.16,19.88,29.94,33.19,2.44,1.96,4.66-.99,6.06-1.19,6.37-.91,11.9-1.68,18-4,5.36-2.2,13.31-2.99,8-10-.26-11.14-1.98-25.14,6-34,.48,1.88-.89,5.02,2,6-4.7,10.36-4.51,18.73-3.99,29.99,7.57.64,20.19-21.57,23.99-25.99l2,2ZM41.51,44.13c-12.31-1.16-23.49,5.99-35.87,5.94-1.74,32.64,18.33,14.76,37.81,11.81l-1.94-17.76ZM33.59,68.04c-7.65,4.05-27.44,1.13-19.66,13.69l17.8-.57,1.86-13.12ZM65.59,116.02c-3.99-20.58-27.94-33.58-47.99-27.97,12.33,14.35,28.53,25.98,47.99,27.97Z"/>
      <path class="cls-6" d="M99.6,26.03c-3.2,1.11-4.69-2.6-3.85,4.8,1.29,20.05,19.19,11.6,31.85,9.2v2c-3.98,1.22-7.68,3.73-12,4.03,1.26,5.06,3.1,10.83,8.75,9.96,10.84-1.66,15.66-4.7,13.25-15.99h2c2.45,20.09,4.96,19.46-4,40l-2-2c1.74-4.37,2.12-16.51,3.99-21.99-9.48.21-20.5,10.29-23.99,17.99-3.23-1.38-1.5-5.48-2-8,1.84-.76,3.37-2.06,4-4,5.46-16.86-15.88-11.85-19.82-17.18-6.13-8.28-5.47-14.85,1.82-20.82l2,2Z"/>
      <path class="cls-1" d="M99.6,26.03c4.91-1.71,27.39-10.81,30.02-9.16,5.45,9.03,10.9,19.41-2.02,23.16-12.68,2.4-30.56,10.85-31.85-9.2-.83-7.4.65-3.69,3.85-4.8Z"/>
      <path class="cls-1" d="M41.51,44.13l1.94,17.76c-19.48,2.95-39.55,20.83-37.81-11.81,12.38.04,23.56-7.11,35.87-5.94Z"/>
      <path class="cls-3" d="M113.6,74.03c3.49-7.7,14.51-17.78,23.99-17.99-1.87,5.48-2.25,17.62-3.99,21.99-3.84,4.47-16.36,26.58-23.99,25.99-.52-11.26-.71-19.63,3.99-29.99Z"/>
      <path class="cls-3" d="M65.59,116.02c-19.45-1.99-35.66-13.62-47.99-27.97,20.05-5.61,44,7.39,47.99,27.97Z"/>
      <path class="cls-3" d="M103.6,20.03c.23-1.11-.36-3.65,0-4,.45-.43,3.57.49,3.99,0,4.96-5.9-12.12-3.24-13.99,2.01-6.43,1.61-17.99,8.75-22,0,2.94-1.64,46.27-13.99,48.75-13.53,16.11,9.02-10.06,12.95-16.75,15.53ZM116.6,10.03v2c1.3-.67,1.3-1.33,0-2ZM112.6,12.03v2c1.3-.67,1.3-1.33,0-2Z"/>
      <path class="cls-3" d="M79.6,116.03c-1.4.2-3.63,3.15-6.06,1.19-5.25-9.94-12.23-23.26-21.94-29.19-1.22-5.53,3.27-4.89,6.59-3.6,6.96,2.69,19.79,23.44,21.41,31.6Z"/>
      <path class="cls-3" d="M69.6,20.03c-1.04,1.73-1.03,5.81-2,8-6.02,2.55-34.6.1-32,8-1.11.28-2.73-.19-4,0,.1-1.69.26-4.1-2-4,.31-.27-1.05-3.22,1.38-3.99,10.88-3.44,27.13-4.81,38.62-8.01Z"/>
      <path class="cls-4" d="M137.6,40.03c2.41,11.29-2.41,14.33-13.25,15.99-5.65.87-7.48-4.91-8.75-9.96,7.58-1.24,14.1-6.03,22-6.03Z"/>
      <path class="cls-4" d="M33.59,68.04l-1.86,13.12-17.8.57c-7.78-12.56,12.01-9.64,19.66-13.69Z"/>
      <path class="cls-3" d="M27.6,32.03c.44,1.42,2.45,6.53,2,8-6.33.65-15.87,6.5-24.01,4.01-3.88-15.91,11.82-10.5,22.01-12.01ZM23.59,36.05c-3.85.09-12.66-.75-13.98,3.96,3.85-.09,12.66.75,13.98-3.96Z"/>
      <path class="cls-3" d="M105.6,102.03c5.28,7-2.59,7.81-8,10-.81-6.61.54-10.93,8-10Z"/>
      <path class="cls-1" d="M81.6,22.03c-2.98.98-6.86,4.43-14,6,1.41-3.34.52-8.25,4-10,1.33,4.49,6.17,4.35,10,4Z"/>
      <path class="cls-3" d="M37.6,74.03c5.76-1.26,5.46,5.71,6,10-2.65-1.39-6.94,3.1-7.73-6.95-.12-1.5,1.73-2.73,1.73-3.05Z"/>
      <path class="cls-1" d="M31.6,36.03c-.08,1.36-.54,2.23-2,2l-2-6c.72-.11,1.74.22,2,0,2.26-.1,2.1,2.31,2,4Z"/>
      <path class="cls-3" d="M115.6,62.03c-.63,1.94-2.16,3.24-4,4-.04-.22-2.91-1.32-1.99-3.99h5.99Z"/>
      <path class="cls-1" d="M99.6,82.03c.99-5.13-1.73-11.26,5.98-14,2.47,5.64-5.5,12.54-5.98,14Z"/>
      <path class="cls-1" d="M51.6,30.03c1.79,5.44-8.94,4.21-16,6-1.82-6.03,10.67-5.18,16-6Z"/>
      <path class="cls-3" d="M99.6,82.03c-1.94,5.89,5.78,17.52-1.99,15.99-1.63-6.24,1.06-11.21,1.99-15.99Z"/>
      <path class="cls-1" d="M93.6,18.03c1.87-5.25,18.95-7.9,13.99-2.01-.42.5-3.54-.43-3.99,0-2.95,1.44-7.34,1.07-10,2Z"/>
      <path class="cls-2" d="M116.6,10.03c1.3.67,1.3,1.33,0,2v-2Z"/>
      <path class="cls-2" d="M112.6,12.03c1.3.67,1.3,1.33,0,2v-2Z"/>
      <path class="cls-2" d="M23.59,36.05c-1.32,4.71-10.13,3.86-13.98,3.96,1.32-4.71,10.13-3.86,13.98-3.96Z"/>
    </g>
  </g>
</svg>