<?xml version="1.0" encoding="UTF-8"?>
<svg id="Calque_2" data-name="Calque 2" xmlns="http://www.w3.org/2000/svg" viewBox="0 0 161.25 144.58">
  <defs>
    <style>
      .cls-1 {
        fill: #704834;
      }

      .cls-2 {
        fill: #ddb762;
      }

      .cls-3 {
        fill: #e8b93e;
      }

      .cls-4 {
        fill: #cb844b;
      }

      .cls-5 {
        fill: #4a3d2c;
      }
    </style>
  </defs>
  <g id="Calque_1-2" data-name="Calque 1">
    <g>
      <path class="cls-5" d="M91.32,45.99c-.78,6.57-4.65,8.97-8,13.98,15.55-.41,32.05,10.79,45.01,2.03,7.51-4.95,10.33-16.32,21.96-14.09,19.07,13.5,12.31,77.33-12.98,82.08l-2-2c6.35-4.49,13.85-11.66,14-20,4.08-2.65,4.17-7.66,4-12,5.28-6.67.85-40.45-4.21-43.78s-11.52,10.39-16.77,13.79c-11.67,6.78-40.16,4.3-51.01-4.01-2.85-9.29,4.91-9.4,4-16,4.49-1.33,4.35-6.17,4-10,.37,2.72,2.68,4.3,2,10Z"/>
      <path class="cls-1" d="M135.32,127.99l2,2c-8.96,19.62-91.88,19.95-100-2,25.32,12.54,74.18,16.07,98,0Z"/>
      <path class="cls-1" d="M81.32,9.99c14.09,3.33,12.2,24.32,12,36h-2c.68-5.7-1.63-7.28-2-10,0-9.14-2.49-18.57-8-26-1.41-.43-9.59-2.28-12-2-9.04-8.68-22.59-2.96-30,4-10.98,10.22-7.52,8.87-6,22-5.56-2.67-10.34-.93-16,0v-4C29.88,28.04,25.93,2.03,54.36,0c7.22.13,26.73.33,26.95,9.99Z"/>
      <path class="cls-5" d="M17.32,29.99v4c-4.2.62-4.7,2.32-8,2,.72-7.25-5.76-5.76-4,2,6.33,9.41,16.55,13.65,28,12-.06-1.76,2.02-3.78,2-4h2c-.09,1.32.17,2.67-.01,3.98-1.31.22-2.69-.12-3.99.02.14,3.73,1.34,6.58,2,10-.67.62-1.52,1.22-2,2-4.3-9.86-23.03-7.02-28.13-13.4-1.67-2.09-6.23-13.99-4.97-16.56,3.59-7.33,11.41-1.16,17.1-2.04Z"/>
      <path class="cls-5" d="M33.32,69.99c-6.86,11.7-10.08,15.39-10,30-3.93,3.03-.37,4.53,0,6,3.06,16.03,10.04,14.64,16,26-5.9,1.55-5.02-1.42-7.29-3.68-17.65-16.66-18.43-45.31-.71-62.32l2,4Z"/>
      <path class="cls-1" d="M33.32,69.99l-2-4c1.23-1.98,1.83-4.66,4-6,3.92,2.99.85,7.34-2,10Z"/>
      <path class="cls-3" d="M69.32,7.99c.66.04,1.35-.08,2,0,14.54,11.77,15.11,22.1,14,40-10.49,1.03-8.66,10.8-2,16,7.56,8.88-7.71,13.44-4,17.98,1.08,1.32,28.88,6.8,33.24,7.82,3.43.8,5.04.17,6.76,4.2-.28.55,0,2.84,0,4-14.35,8.03-28.89,7.37-44.76,9.51l-9.24-9.51c-5.91-1.28-4.5,4.32-3.1,8.09,3.72,10.01,23.04,16.22,33,16.98,16.56,1.27,40.37-26.45,35.06-41-.44-1.22-2.85-1.75-2.97-2.07-1-2.8.32-6.53,1.89-9.09,3.27-2.83,12.77-15.56,18.08-12.91,8.45,15.63,6.03,25.05,6.03,42h-4c-.2,3.32.27,6.81,0,10-7.19-.21-14.11,15.9-16.53,17.48-18.31,7.78-50.4,10.66-70.07,6.11-4.97-1.14-6.67-5.36-9.47-6.53-5.38-2.24-14.41-1.31-19.82-6.18-5.79-5.22-6.94-23.95-5.63-31.41,1.59-9.09,12.83-21.77,13.18-24.89.57-5.06-3.5-25.05.29-27.6,2.96-1.99,8.25.31,10.04-4.98.17-.5-.07-1.3,0-2,5.26,1.41,4.91-3.69,4.08-6.72-1.41-5.15-12.22-2.38-15.49,1.29-2.28,2.56-1.13,7.47-4.57,7.42l3.98-19.99c6.26-5.04,21.57-3.77,30-4Z"/>
      <path class="cls-2" d="M83.32,63.99c11.75,5.08,37.89,9.21,49.01,2.01,5.25-3.4,11.68-17.14,16.77-13.79s9.5,37.11,4.21,43.78c.06-5.02.6-18.59-.08-22.88-.16-1.03-5.32-14.59-5.94-15.11-.87-.73-4.43.06-6.01,1.03-4.38,4.57-16.85,13.25-13.96,20.97-17.71,4.83-29.21-3.52-45.99-3.98l27.21,9.86,18.77-1.87c3.1,2.8-7.67,9.36-7.99,9.99-1.72-4.04-3.33-3.41-6.76-4.2-4.37-1.01-32.16-6.49-33.24-7.82-3.71-4.54,11.56-9.1,4-17.98Z"/>
      <path class="cls-2" d="M81.32,9.99c.51.37,5.51,9.77,5.96,11.04,1.17,6.19,5.48,22.74-1.96,24.96,1.26-17.57-.2-26.43-14-38,1.61.2,9.59,1.7,10,2Z"/>
      <path class="cls-2" d="M39.32,11.99l-3.98,19.99c3.43.05,2.29-4.86,4.57-7.42,3.27-3.67,14.08-6.44,15.49-1.29.83,3.03,1.18,8.13-4.08,6.72.26-2.61-.15-5.37-.01-7.99-10.88-1.22-11.14,10.91.01,9.99-1.8,5.29-7.08,2.99-10.04,4.98-3.78,2.55.28,22.54-.29,27.6-.35,3.13-11.59,15.81-13.18,24.89-1.31,7.46-.16,26.19,5.63,31.41,5.41,4.87,14.44,3.94,19.82,6.18,2.8,1.17,4.5,5.39,9.47,6.53,19.61,4.54,51.84,1.69,70.07-6.11,2.42-1.58,9.33-17.69,16.53-17.48-15.2,38.97-80.88,31.92-112,18-19.05-14-17.39-39.67-4-58,2.88-2.74,5.93-6.92,2-10-.66-3.42-1.86-6.27-2-10,1.3-.14,2.68.2,3.99-.02-.32-4.85,2-12.03-3.99-13.98-.48-13.33-5.9-13.78,6-24Z"/>
      <path class="cls-2" d="M85.32,47.99c-.73,4.93-6.55,5.67-4,14-5.73-6.02-4.62-12.98,4-14Z"/>
      <path class="cls-2" d="M153.32,99.99c-.2,3.16-1.22,6.16-4,8,.42-2.4-.35-5.45,0-8.01h4Z"/>
      <path class="cls-4" d="M33.32,33.99c-.26,4.06,1.59,7.45,2,12,.02.22-2.06,2.24-2,4-9.95,1.04-20.54-1.04-26-10h5.99s0-2.98,0-2.98l-1.98-1.02c6.31-2.35,15.1-5.1,22-2Z"/>
      <path class="cls-2" d="M69.32,7.99c-9.62-.64-18.59.7-28,2,7.88-5.22,19.54-10.3,28-2Z"/>
      <path class="cls-1" d="M11.32,35.99l1.98,1.02v2.97s-5.98.01-5.98.01c-.39-.63-1.83-1.25-2-2,2.02-.9,3.68-2.39,6-2Z"/>
      <path class="cls-4" d="M5.32,37.99c-1.76-7.76,4.72-9.25,4-2-1.37.54-2.63,1.43-4,2Z"/>
      <path class="cls-1" d="M23.32,105.99c-.37-1.47-3.93-2.97,0-6,.01,2,0,4,0,6Z"/>
      <path class="cls-1" d="M127.32,79.99c14.29,11.66-16.22,45.11-32.1,43.07-9.96-.76-29.28-6.97-33-16.98-1.41-3.78-2.81-9.38,3.1-8.09-2.48,20.55,37.69,21.91,47.99,13.97.97-2.94-7.73-1.44-3.98-5.95.33-.4,7.71-1.4,10.02-3.05,4.04-2.88-.02-4.67-.02-4.98,0-1.16-.28-3.45,0-4,.32-.63,11.09-7.18,7.99-9.99l-18.77,1.87-27.21-9.86c16.78.46,28.28,8.81,45.99,3.98Z"/>
      <path class="cls-2" d="M119.32,97.99c7.21,5.15-8.61,7.44-10,8.03-3.75,4.51,4.95,3.01,3.98,5.95-10.29,7.94-50.46,6.57-47.99-13.97l9.24,9.51c15.87-2.14,30.41-1.48,44.76-9.51Z"/>
      <path class="cls-5" d="M51.32,31.99c-11.15.92-10.89-11.21-.01-9.99-.07,3.25.19,6.8.01,9.99Z"/>
      <path class="cls-1" d="M37.32,45.99h-2c-.33-3.73-1.68-6.91-2-10,4.53,1.4,4.28,5.94,4,10Z"/>
    </g>
  </g>
</svg>