<?xml version="1.0" encoding="UTF-8"?>
<svg id="Calque_2" data-name="Calque 2" xmlns="http://www.w3.org/2000/svg" viewBox="0 0 105.48 168.33">
  <defs>
    <style>
      .cls-1 {
        fill: #704834;
      }

      .cls-2 {
        fill: #8f625d;
      }

      .cls-3 {
        fill: #ddb762;
      }

      .cls-4 {
        fill: #e8b93e;
      }

      .cls-5 {
        fill: #c5503d;
      }

      .cls-6 {
        fill: #cb844b;
      }

      .cls-7 {
        fill: #cfae8a;
      }

      .cls-8 {
        fill: #4a3d2c;
      }

      .cls-9 {
        fill: #a78a6a;
      }
    </style>
  </defs>
  <g id="Calque_1-2" data-name="Calque 1">
    <g>
      <path class="cls-1" d="M55.57,4.35v2L1.57,24.37l3,4.01c19.49-7.49,40.48-11.44,60.18-17.91,4.05-1.22,5.99-3.3,8.83-6.12,6.59,11.4,3.64,13.89,6,24h-2c-.84-4.03-4.6-15.88-8.86-15.97-6.2-.14-38.95,12.84-47.14,15.97-7.21,2.75-15.49.12-13.55,10.45,6.62,24.85,31.71,67.01,38.53,93.57,4.74,5.87,37.46-6.57,45.02-10.03-.19,1.97.12,4.02,0,6-10.59-.54-28.07,10.9-40.01,10.01l4.02,18c10.72,2.65,12.61-10.15,15.44-12.03.91-.61,10.58-4.74,8.55,2.02-3.4.48-9.74.7-8.98,6.02,11.17.28,16.71-8.67,26.98-10.02.07,1.33-.08,2.67,0,4-1.48,1.03-1.43,2.72-2,4-13.86,2.23-24.42,8.13-38,10.02,1.79,5.79,17.03,2.93,22,1.98v2c-1.19.32-3.14,2.68-5.75,3.14-25.94,4.52-19.38-9.76-26.85-27.54-12.84-30.56-30.57-63.43-41.79-94.21-2.29-6.29-9-21.09-2.24-25.53C15.9,13.43,40.59,4.67,55.57,4.35Z"/>
      <path class="cls-8" d="M79.57,164.35v-2c7.53-.66,13.51-4.99,16-12,5.24.8,5.11-1.99,2-4-.07-1.99.08-4.02,0-6-.03-.26,1.24.56,0-4s-1.18-7.75-6-8c2.02-20.65-9.05-76.68-14-100h2c9.88,39.83,13.46,82.46,25.91,121.09-.49,9.94-18.81,13-25.91,14.91Z"/>
      <path class="cls-2" d="M55.57,4.35c3.28-.66,5.51-5.34,15.1-4.16,5.09.63,2.13,2.83,2.9,4.16-.73.6-1.3,1.39-2,2h-16v-2Z"/>
      <path class="cls-3" d="M77.57,28.35c4.09,19.56,15.6,77.17,14,94-7.56,3.46-40.28,15.89-45.02,10.02-6.8-26.53-31.94-68.75-38.53-93.57-1.93-10.34,6.35-7.7,13.56-10.45-.46.28,1.02,6.52-8.02,4-1,.87,2,13.61,2.97,16.12.24.61,6.46,10.62,6.95,11.04,1.94,1.67,5.85-.79,8.09-1.17l4.98,4.02c2.9-.67-.98-3.71-.98-4.02-.02-1.73,9.47-7.57,10-12l3.01,7.99.99-5.99c4.56.2,9.62-.5,14,0l-1.99,5.99c4.36,1.05,3.87-1.07,5.99-3.99,1.7.77,6.2-1.54,4.05,5.02-.57,1.73-4.94-.3-4.04,2.96,3.03.31,8.94.59,9.81-3.14.8-3.46-7.78-35.1-13.12-36.62s-15.21,5.39-20.63,6.85c-4.79,1.3-21.12,2.35-22.07,2.93,8.19-3.13,40.94-16.11,47.14-15.97,4.27.1,8.02,11.95,8.86,15.97ZM45.57,62.35c-9.83-1.79-8.04,33.29,16,18,4.17-2.57,5.23.39,6.01-9.04,1-12.15-2.76-7.6-4.01-8.96-.26-.28.7-2.76-1.45-3.95-2.02-1.12-9.26-2.5-11.56-2.18-5.62.79-3.91,4.85-5,6.13ZM77.57,64.37h-5.99s0,3.97,0,3.97c2.76.62,5.32-1.08,5.99-3.97ZM73.57,84.35c-6.94,1.44-7.97-2.19-12,4-.79,1.22-2.16,2.09-2,4-5.03-6.32-6.88,2.23-8.58,3.37-2.68,1.81-8.86,1.29-9.53,3.92-2.5,9.8,7.75,17.11,8.13,26.7,11.37-5.46,24.11-.05,36.82-5.77,1.52-1.02-1.69-34.81-2.88-36.21-.58-.68-4.78.55-5.96-.02-1.75-.84-.48-8.23-5.99-5.99l1.99,5.99ZM45.55,94.34v-5.98h-1.96v5.98h1.96Z"/>
      <path class="cls-6" d="M91.57,128.35c6.53.1,5.95,8.97,6,14-8.41,1.13-7.89,5.22-18,4,2.03-6.76-7.64-2.63-8.55-2.02-2.83,1.88-4.72,14.68-15.44,12.03l-4.02-18c11.94.89,29.42-10.55,40.01-10.01Z"/>
      <path class="cls-7" d="M71.57,6.35C51.69,18.22,25.95,18.86,4.56,28.38l-3-4.01L55.57,6.35h16Z"/>
      <path class="cls-9" d="M97.57,146.35c3.12,2.01,3.23,4.8-2,4-1.63,5.02-4.19,6.32-8,10-7.21,1.81-25.39,7.33-30,.02,13.58-1.89,24.14-7.79,38-10.02.57-1.28.52-2.97,2-4Z"/>
      <path class="cls-9" d="M79.57,146.35c2.52-.36,5.41.24,8,0-5.32,2.71-10.01,6.08-16.98,6.02-.76-5.32,5.58-5.54,8.98-6.02Z"/>
      <path class="cls-1" d="M97.57,140.35v-4c1.24,4.56-.03,3.74,0,4Z"/>
      <path class="cls-1" d="M87.57,160.35l2-2c-.69.52-1.27,1.66-2,2Z"/>
      <path class="cls-4" d="M21.57,28.35c.95-.58,17.28-1.63,22.07-2.93,5.42-1.47,15.32-8.37,20.63-6.85s13.92,33.17,13.12,36.62c-.87,3.73-6.78,3.44-9.81,3.14-.89-3.26,3.48-1.23,4.04-2.96,2.15-6.56-2.35-4.25-4.05-5.02-6.2-5.02-15.41.72-22-4-.53,4.43-10.02,10.27-10,12-4.14-1.11-8.8,3-12.09,1.17-.49-.43-6.71-10.44-6.95-11.05-.97-2.5-3.97-15.25-2.97-16.12,9.04,2.51,7.55-3.72,8.02-4Z"/>
      <path class="cls-4" d="M73.57,84.35c1.19-.25,2.72.17,4,0,1.18.57,5.39-.66,5.96.02,1.19,1.4,4.4,35.19,2.88,36.21-12.71,5.72-25.45.3-36.82,5.77-.38-9.59-10.63-16.89-8.13-26.7.67-2.63,6.84-2.12,9.53-3.92,1.69-1.14,3.55-9.69,8.58-3.37.44.56-.51,3.57,0,3.99,4.29,3.58,5.31-4.68,1.99-7.99,4.03-6.19,5.06-2.56,12-4Z"/>
      <path class="cls-1" d="M45.57,62.35c1.09-1.28-.63-5.34,5-6.13,3.58.04,14.55.61,13,6.13,1.25,1.37,5-3.19,4.01,8.96-.77,9.42-1.84,6.46-6.01,9.04.38-.16,4.21-6.55,4.22-6.96.06-1.9-1.42-10.1-2.22-11.04-3.35-3.94-14.63-3.34-18,0-2.09,2.07-2.75,12-.19,15.2s13.18,4.05,16.19,2.8c-24.06,15.29-25.81-19.8-16-18Z"/>
      <path class="cls-6" d="M61.57,88.35c3.31,3.32,2.3,11.58-1.99,7.99-.51-.43.44-3.44,0-3.99-.16-1.91,1.21-2.78,2-4Z"/>
      <path class="cls-5" d="M49.57,48.35l-.99,5.99-3.01-7.99c1.37.09,3.19,1.96,4,2Z"/>
      <path class="cls-6" d="M67.57,50.35c-2.12,2.91-1.63,5.03-5.99,3.99l1.99-5.99c1.97.22,2.78,1.45,4,2Z"/>
      <path class="cls-5" d="M73.57,84.35l-1.99-5.99c5.51-2.24,4.24,5.15,5.99,5.99-1.28.17-2.81-.25-4,0Z"/>
      <path class="cls-1" d="M77.57,64.37c-.67,2.89-3.23,4.59-5.99,3.97v-3.98s5.99,0,5.99,0Z"/>
      <path class="cls-1" d="M35.57,58.35c0,.31,3.88,3.35.98,4.02l-4.98-4.02c1.24-.21,2.71.14,4,0Z"/>
      <rect class="cls-1" x="43.59" y="88.36" width="1.96" height="5.98"/>
      <path class="cls-6" d="M63.57,62.35c.8.94,2.29,9.14,2.22,11.04-.01.41-3.85,6.8-4.22,6.96-3.01,1.24-13.71.28-16.19-2.8s-1.9-13.13.19-15.2c3.37-3.34,14.65-3.94,18,0Z"/>
    </g>
  </g>
</svg>