<?xml version="1.0" encoding="UTF-8"?>
<svg id="Calque_2" data-name="Calque 2" xmlns="http://www.w3.org/2000/svg" viewBox="0 0 171.39 128.33">
  <defs>
    <style>
      .cls-1 {
        fill: #704834;
      }

      .cls-2 {
        fill: #8f625d;
      }

      .cls-3 {
        fill: #ddb762;
      }

      .cls-4 {
        fill: #c5503d;
      }

      .cls-5 {
        fill: #cb844b;
      }

      .cls-6 {
        fill: #f7f7f0;
      }

      .cls-7 {
        fill: #cfae8a;
      }

      .cls-8 {
        fill: #3b5051;
      }

      .cls-9 {
        fill: #4a3d2c;
      }

      .cls-10 {
        fill: #a78a6a;
      }
    </style>
  </defs>
  <g id="Calque_1-2" data-name="Calque 1">
    <g>
      <path class="cls-9" d="M123.24,15.59v2c-.25.16-2.8,2.93-4,4-5.92.13-10.21.48-16-2-9.35-.05-16.4-.57-26,0-15.09-.66-8.4,7.67-7.99,18.01,6.18,1.36,3.71-3.93,3.99-8.01,8.65,17.97-10.31,18-8,0-1.94-10.12-6.06-2.26-9.61-4.27-4.17-8.47-17.19-15.31-26.37-17.73-2.28,12.23-4.53,26.7,1.98,38-.31,1.14.32,2.89,0,4-.68.06-2.52,3.44-2,6,0,0-4.1,16.85-4.1,16.85-.02,2.34,3.01.69,4.1,1.15,4.52,1.87,8.94,3.94,13.99,4.02v1.96c-3.9-.26-8.14.44-11.99.02-1.24-.14-3.61-2.78-5.99-1.99-5.2,8.08,10.25,5.44,13.99,5.99v4c-3.19.97-7.45,1.12-9.99,2.99,2.48,5.13,14.07,1.1,13.99,5.01l-9.96,5c20.51,25.32,64.91,28.92,92.61,14.65,4.07-2.2,20.97-14.3,17.33-19.61l-7.97-3.03c6.98-5.91,8.15,3.52,11.99-7.01.39-1.08-.44-3.52,0-4,7.35,1.33,3.34-6.58,2-8,.29-11.98-2.21-21.2-2-32,.25-11.69,4.99-23.91,0-36,1.29.17,2.69-.11,4,0,5.72,13.73-.74,26.63.06,38.76.47,6.99,7.02,15.17,6.02,23.15l13.91.1c1.88,7.37-13.08,4.09-14.06,7.01-.32.95-.21,6.11.31,6.74,1.62,1.98,13.76-.56,11.75,6.22l-13.97-2c-6.02,44.32-73.07,50.64-106.05,35.04-10.02-4.79-15.02-13.88-23.98-19.02.57-14.15-2.12-9.49-15.99-10.02,3.12-5.62,13.02-1.54,12.12-10.96-.64-6.71-11.82-5.67-12.13-5.02l-2.99-4.01,15,.02c-1.87-8.67,3.9-17.33,4.07-25.1C21.71,4.31,15.83-12.78,58.52,19.19c1.93.38,18.2-5.14,23.74-5.56,14.87-1.12,27.16,4.77,40.98,1.96Z"/>
      <path class="cls-6" d="M9.24,75.59c.31-.65,11.49-1.7,12.13,5.02.9,9.42-9,5.34-12.12,10.96,12.65,1.34,16.03-5.33,15.99,8.02-4.87,1.84-8.38,6.67-14,6-8.83-10.49-15.94-8.73-7.38-23.5,1.1-.93,4.11-.05,4.95-.92,1.44-1.48.01-4.72.43-5.58Z"/>
      <path class="cls-1" d="M151.24,5.59c-1.31-.11-2.71.17-4,0-12.33-1.63-6.07,2.58-8,6-6.55-.87-11.11,2.64-16,6-2.37-7.58,28.57-27.13,28-12Z"/>
      <path class="cls-1" d="M139.24,11.59c1.31.08,2.64-.24,3.94.02-.3,8.4,5.06,16.82-1.94,23.98-2.55-6.82.81-10.42-.01-17.99l-9.95,3.01c3.19-2.75,5.01-6.02,7.96-9.02Z"/>
      <path class="cls-8" d="M153.24,93.59l11.99,7.99-13.99-1.99c.25-.44,1.08-3.92,2-6Z"/>
      <path class="cls-2" d="M25.24,101.59c-.74,4.23-2.68,6.22-7.5,7.47-9.48,2.45-5.38-1.78-6.5-3.47,5.62.67,9.13-4.16,14-6,0,.64.11,1.38,0,2Z"/>
      <path class="cls-5" d="M135.24,11.59l2,2c-1.56,2.74-3.73,4.84-5.96,7.02l9.95-3.01c.82,7.57-2.54,11.17.01,17.99,1.28,3.42.49,6.26,6,6-.22,10.4,2.02,18.38,2,30-13.14-1.4-22.72,7.42-4,6-.3,1.08.2,2.74,0,4h-11.99s0,3.99,0,3.99h13.99c-3.84,10.54-5.01,1.11-11.99,7.02l7.97,3.03c3.64,5.31-13.26,17.41-17.33,19.61-22.54,12.2-59.25,10.7-80.65-3.65,2.74-8.4-5.62-4.99-6.04-6.99-1.67-7.92,4.01-7.3,4.04-9.01.08-3.91-11.51.12-13.99-5.01,2.54-1.87,6.8-2.02,9.99-2.99,1.2-.36,4.11,1.02,4.01-1.02.65-4.34-.88-2.6-4.01-2.98-2.46-.3-5.4.04-8,0v-4c3.85.42,8.09-.28,11.99-.02v-1.96c-5.05-.08-9.47-2.15-13.99-4.02.23-6.63-.37-13.41,0-20,1.95-3.55,2.19-4.02,2-8,1.6-.34,4.86-6.33,4-12,10.77-1.63,19.12-7.13,30-4,.24,1.25-.33,2.98,0,4l-1.97,1.01,1.97.99c4.39,15.27,14.98,5.04,8-6,.04-.66,0-1.34,0-2h4s0-8,0-8c1.14-.24,2.69.12,4,0-1.19,8.87,1.84,38.89,14,20,22.07,3.09,12.83-4.03,18.55-15.52.58-.77,3.89-1.09,5.45-2.48,5.32-5.21,8.72-8.41,16-10ZM130.24,23.59v2c1.3-.67,1.3-1.33,0-2ZM58.26,61.61c-5.18,1.59-4.54,16.58,3.96,13.96,5.18-1.59,4.54-16.58-3.96-13.96ZM121.23,61.58c-7.22-.88-11.47.99-9.82,8.81,1.29,3.95,6.43,3.35,9.82,3.21v-12.01ZM93.24,83.59c1.34-1.7,7.85-1.02,5.98-4.97-2.17-4.6-18.03-4.58-19.96-.01-2.61,6.15,3.72,4.69,3.98,4.98,7.01,7.74-1.63,21.05-11.98,10,.96,15.94,10.95,6.42,17.07,6.04,7.47-.47,18.52,7.66,18.89-8.04-8.8,12.5-21.23,1.24-13.98-8Z"/>
      <path class="cls-3" d="M31.24,45.59c-6.51-11.31-4.26-25.77-1.98-38,9.16,2.4,22.22,9.27,26.38,17.73,3.55,2.01,7.67-5.85,9.61,4.28-10.88-3.13-19.23,2.37-30,4,.41-3.97-.91-9.29-.02-12.7.14-.53,9.92-4.93-2-4.32-4.1,3.01-2.2,17.22,2.02,21.02-.9,6.97-3.87,7.54-4,8ZM47.22,27.58c.81-3.79-2.54-5.4-5-7.95-.48,2.16,4.2,9.64,5,7.95Z"/>
      <path class="cls-1" d="M95.24,19.59c-.91,5.76,1.3,14.93,0,20-12.16,18.9-15.19-11.16-14-20,7.49-.69,6.98-.47,14,0Z"/>
      <path class="cls-7" d="M147.24,5.59c4.99,12.09.25,24.31,0,36-5.51.26-4.72-2.58-6-6,7.01-7.15,1.64-15.58,1.94-23.98-1.3-.26-2.64.06-3.94-.02,1.93-3.42-4.33-7.63,8-6Z"/>
      <path class="cls-7" d="M139.24,11.59c-.5.89-1.68,1.43-2,2l-2-2c1.13-.19,2.78-.08,4,0Z"/>
      <path class="cls-1" d="M103.24,19.59l.02,18,5.98-16c3.15.43,6.77-.3,10,0-14.93,3.14.89,22.88-20,18l2-20c.66.07,1.35-.09,2,0Z"/>
      <path class="cls-10" d="M101.24,19.59l-2,20c-1.1-.29-2.73.19-4,0,1.3-5.07-.91-14.24,0-20,1.97.13,4.05-.22,6,0Z"/>
      <path class="cls-2" d="M109.24,21.59l-5.98,16-.02-18c2.33.33,4.54,1.8,6,2Z"/>
      <path class="cls-2" d="M73.24,27.59c-.71,4.1,2.89,11.59-3.99,10.01.61-8.32-7.19-15.82,3.99-18.01v8Z"/>
      <path class="cls-1" d="M149.24,71.59c0,.67.03,1.34,0,2-1.87.71-3.45,2.02-4,4-18.72,1.42-9.14-7.4,4-6Z"/>
      <path class="cls-1" d="M145.24,81.59h2c-.44.48.39,2.92,0,4h-13.99s0-3.99,0-3.99h11.99Z"/>
      <path class="cls-3" d="M29.24,73.59c-1.1-.45-4.12,1.19-4.1-1.15l4.1-16.85c-.47,5.92.32,12.05,0,18Z"/>
      <path class="cls-7" d="M149.24,73.59c1.36,1.45,5.34,9.33-2,8h-2c-.42-3.49.28-6.86,4-8Z"/>
      <path class="cls-1" d="M77.24,19.59v8.01s-4-.01-4-.01v-8c1.23-.24,2.8.26,4,0Z"/>
      <path class="cls-10" d="M31.24,79.59v4c-3.47.25-9.76-1.49-5.99-5.99,2.38-.78,4.75,1.86,5.99,1.99Z"/>
      <path class="cls-3" d="M43.24,95.59c-.04,1.71-5.71,1.09-4.04,9.01.42,2,8.79-1.41,6.04,6.99-4.59-3.08-8.14-7.07-11.96-11l9.96-5Z"/>
      <path class="cls-4" d="M39.24,83.59c3.14.38,4.66-1.36,4.01,2.98.09,2.04-2.81.66-4.01,1.02v-4Z"/>
      <path class="cls-3" d="M29.24,53.59c.41-3.3,1.94-3.79,2-4l-2,4Z"/>
      <path class="cls-3" d="M65.24,35.59l-1.97-.99,1.97-1.01c.19.6-.18,1.38,0,2Z"/>
      <path class="cls-4" d="M29.24,83.59h2c-.47,0-.24.27-2,0Z"/>
      <path class="cls-9" d="M83.24,83.59c-.26-.29-6.59,1.17-3.98-4.98,1.94-4.57,17.79-4.59,19.96.01,1.87,3.95-4.64,3.27-5.98,4.97.21-.07,2.32-3.77,2-3.98l-10.99-.03-1.01,4.01c2.81-.55,7.8.78,10,0-7.25,9.24,5.18,20.5,13.98,8-.37,15.69-11.42,7.57-18.89,8.04-6.12.38-16.11,9.9-17.07-6.04,10.35,11.05,18.99-2.26,11.98-10Z"/>
      <path class="cls-9" d="M58.26,61.61c8.5-2.62,9.14,12.37,3.96,13.96-8.5,2.62-9.14-12.37-3.96-13.96Z"/>
      <path class="cls-9" d="M121.23,61.58v12.01c-3.39.14-8.54.74-9.82-3.21-1.65-7.82,2.61-9.69,9.82-8.81Z"/>
      <path class="cls-1" d="M35.24,37.59c-4.22-3.8-6.12-18.01-2.02-21.02,11.92-.61,2.13,3.79,2,4.32-.79,4.79.48,11.52.02,16.7Z"/>
      <path class="cls-1" d="M130.24,23.59c1.3.67,1.3,1.33,0,2v-2Z"/>
      <path class="cls-1" d="M47.22,27.58c-.8,1.69-5.48-5.79-5-7.95,2.46,2.55,5.8,4.16,5,7.95Z"/>
      <path class="cls-7" d="M83.24,83.59l1.01-4.01,10.99.03c-1.11,6.82-6.96,3.14-12,3.98Z"/>
    </g>
  </g>
</svg>