<?xml version="1.0" encoding="UTF-8"?>
<svg id="Calque_2" data-name="Calque 2" xmlns="http://www.w3.org/2000/svg" viewBox="0 0 150.18 149.94">
  <defs>
    <style>
      .cls-1 {
        fill: #704834;
      }

      .cls-2 {
        fill: #8f625d;
      }

      .cls-3 {
        fill: #ddb762;
      }

      .cls-4 {
        fill: #e8b93e;
      }

      .cls-5 {
        fill: #f7f7f0;
      }

      .cls-6 {
        fill: #cfae8a;
      }
    </style>
  </defs>
  <g id="Calque_1-2" data-name="Calque 1">
    <g>
      <path class="cls-1" d="M84.42,25.92c1.89.17,4.48-.4,6,0,.95.25,14.34,8.61,16,10,2.21,1.85,8.32,9.3,10,12,2.81,4.63,3.36,9.5,6,14,16.43,41.67-48.64,88.47-78,50,45.73,29.29,102.48-24.92,63.09-68.09C61.26.44,3.56,66.82,44.42,111.92c-19.45-7.22-21.48-41.14-14-58,.29-.69,5.57-9.48,6-10,3-3.61,13.8-12.01,18-14,8.93-4.35,20.26-5.15,30-4Z"/>
      <path class="cls-3" d="M26.42,71.92c-.42,13.62,3.41,35.46,18,40,3.31,2.91,10.01,10.51,14,12v2l-15.99,7.99c1.03-6.05-.24-9.09-2.01-13.99-1.77-4.91-1.79-7.17-8-6l2-3.98-16,1.96c-.21-1.57,8.46-11.81,4-13.98.51-7.61,2.52-4.1-2-12,1.94-7-9.01-3.78-11.96-9l11.96-7c1.97.7,3.74,2.07,6,2Z"/>
      <path class="cls-6" d="M128.42,81.92c.9.28,1.98,2.02,4,2-.73,3.64-2.75,8.37-2,12l-5.96.05,1.96,3.95c-8.72-2.39-6.31,5.82-8,10-2.93,2.71-3.57,5.45-4,10-6.95-5.43-13.12,3.75-18,8-3.46-1.3-8.23,2.02-10,2-6.1.3-7.81-.8-16,0-5.36,3.18-8.22,1.78-14,2,1.5-2.17,2.07-5.37,2-8,26.9,10.04,62.79-13.89,66-42,1.25.22,2.98-.32,4,0Z"/>
      <path class="cls-5" d="M96.42,127.92c.86.32,11.44,10.35,14,12-4.45-.04-19.34-2.78-19.99-2.02.15,10.19,1.73,6.86-10.01,12.02l6-20c1.77.02,6.54-3.3,10-2Z"/>
      <path class="cls-6" d="M44.42,21.92c-2.89,4.85-3.89,9.99,2.74,7.68,4.9-2.98.4-4.24,7.26-3.68.2,1.26-.14,2.7,0,4-4.2,1.99-15,10.39-18,14-2,0-4,0-6,0l-2-4c7.17-.19,7.52-5.54,8-6,8.98,1.16,1.11-11.26,2.01-15.99,4.22-1.5,4.56,3.13,5.99,3.99Z"/>
      <path class="cls-1" d="M132.42,83.92c-2.02.02-3.1-1.72-4-2l14-9.98c-5.05-.7-13.95-.76-14-8.02,23.19,5.45,32.64,10.95,4,20Z"/>
      <path class="cls-2" d="M28.42,39.92l2,4c-4.96,0-9.38.61-13.98-2-.86,4.37,4.02,6.69,5.98,10,5.06,8.56-1.44,5.25-2,6C5.06,37.72.37,34.29,28.42,39.92Z"/>
      <path class="cls-5" d="M66.42,9.92c-1.8,6.67-.85,5.18,0,10,.32,1.82-.22,4.08,0,6-1.3.18-10.53,3.3-12,4,.07-3.23.1-7.43-2-10,2.89-5.25,7.89-9.34,14-10Z"/>
      <path class="cls-2" d="M22.42,97.92c4.46,2.17-4.21,12.42-4,13.98l16-1.96-2,3.98-21.99,3.99c-1.65-1.5,8.38-18.77,11.99-19.99Z"/>
      <path class="cls-1" d="M118.42,35.92c7.27.05,14.4-3.28,21.99-1.99,1.82,1.6-10.16,21.36-15.99,19.99,2.92-4.34,5.26-9.49,8-13.98l-14-.02c.03-1.33-.02-2.67,0-4Z"/>
      <path class="cls-3" d="M128.42,63.92c.04,7.26,8.95,7.32,14,8.02l-14,9.98c-1.02-.32-2.75.22-4,0,.81-7.09-.36-13.21-2-20,2.19,0,4.17,1.54,6,2Z"/>
      <path class="cls-2" d="M82.42,21.92c-8.48-10.01-9.13-19.66-16-2-.85-4.82-1.8-3.33,0-10,5.15-19.13,10.04-6.52,15.02,3.98.97,2.04,5.01,6.81.98,8.02Z"/>
      <path class="cls-1" d="M70.42,129.92l6.02,14,5.98-14c1.32-.06,2.67-.01,4,0l-6,20c-9.63.65-8.66-10.94-14-18,.7-.14,2.17-1.76,4-2Z"/>
      <path class="cls-1" d="M42.42,13.92l4,2c5.2,7.14,6.64.03,8,10-1.16.26-3.4-.39-4,0-.71-3.73-4.32-2.99-6-4-1.43-.86-1.77-5.49-5.99-3.99-.9,4.72,6.97,17.16-2.01,15.99l-3.99-21.99c3.45-.67,6.96,1.95,9.99,1.99Z"/>
      <path class="cls-3" d="M82.42,21.92c.83.98,1.23,2.82,2,4-4.76-.42-13.47-.64-18,0-.22-1.92.32-4.18,0-6,6.87-17.66,7.52-8.01,16,2Z"/>
      <path class="cls-1" d="M20.42,69.92l-11.96,7c2.95,5.22,13.9,2,11.96,9L.37,78.91c-3.02-5.15,13.33-10.86,16.05-10.99s3.3,1.75,4,2Z"/>
      <path class="cls-1" d="M40.42,119.92c1.77,4.9,3.04,7.94,2.01,13.99l15.99-7.99c-.41,1.96-.77,4.41-2,6-1.58,2.03-16.68,11.48-17.99,9.99l1.99-21.99Z"/>
      <path class="cls-1" d="M114.42,119.92c-.03,6.74,2.99,13.14,2,20-1.98.11-4.01.02-6,0-2.56-1.65-13.14-11.68-14-12,.59-.74,1.3-1.36,2-2l13.99,7.99-1.99-15.99c.73-.1,2.87,1.65,4,2Z"/>
      <path class="cls-3" d="M118.42,39.92l14,.02c-3.83,6.08-6.21,13.41-12,17.98-1.26-3.61-1.84-6.53-4-10,3-1.39,1.94-5.37,2-8Z"/>
      <path class="cls-1" d="M130.42,95.92c.68,3.31,8.99,9.31,10.04,14.98,1.05,5.66-6.83,2.07-10.04,3.02-3.89-3.37-9.31-1.85-14-2,.17-.65,1.74-1.34,2-2l16-.02c-1.5-3.41-4.17-8.93-8-9.98l-1.96-3.95,5.96-.05Z"/>
      <path class="cls-6" d="M30.42,53.92c-2.57,6.01-3.67,11.47-4,18-2.26.07-4.03-1.3-6-2-.7-.25-1.3-2.13-4-2,1.11-2.36,2.82-8.41,4-10,.56-.75,7.06,2.56,2-6l8,2Z"/>
      <path class="cls-2" d="M100.42,17.92c.17-.13-.5-2.91,1.36-4.06,2.13-1.32,11.26-5.29,12.63-3.93l-1.99,21.99c-7.48,1.54-2.89-9.59-4.01-13.99-2.91-.95-3.66,1.88-3.99,1.99-1.09.37-3.15-.41-4,0v-2Z"/>
      <path class="cls-6" d="M104.42,19.92c.33-.11,1.07-2.94,3.99-1.99,1.12,4.39-3.46,15.54,4.01,13.99,1.26,1.33-3.06,3.93,6,4-.64,3.78,1.9,9.61-2,12-1.68-2.7-7.79-10.15-10-12-.63-5.01,2-12.55-2-16Z"/>
      <path class="cls-3" d="M104.42,19.92c4,3.45,1.37,10.99,2,16-1.66-1.39-15.05-9.75-16-10,.81-.4,1.75-1.15,2-2,4.85,1.86,6.87-3.46,8-4,.85-.41,2.91.37,4,0Z"/>
      <path class="cls-1" d="M100.42,17.92v2c-1.13.54-3.15,5.86-8,4,2.4-8.19,4.63-3.47,8-6Z"/>
      <path class="cls-4" d="M44.42,111.92C3.56,66.81,61.28.44,107.51,43.83c39.39,43.18-17.36,97.38-63.09,68.09Z"/>
      <path class="cls-3" d="M30.42,43.92c2,0,4,0,6,0-.43.52-5.71,9.31-6,10l-8-2c-1.96-3.31-6.84-5.63-5.98-10,4.6,2.61,9.02,1.99,13.98,2Z"/>
      <path class="cls-3" d="M110.42,117.92l1.99,15.99-13.99-7.99c3.47-3.17,7.11-7.32,12-8Z"/>
      <path class="cls-3" d="M126.42,99.92c3.83,1.05,6.5,6.57,8,9.98l-16,.02c1.69-4.18-.72-12.39,8-10Z"/>
      <path class="cls-3" d="M82.42,129.92l-5.98,14-6.02-14c6.26-.82,8.57.17,12,0Z"/>
      <path class="cls-3" d="M50.42,25.92c-3.54,6.99-12.26,5.52-6-4,1.68,1.01,5.29.27,6,4Z"/>
    </g>
  </g>
</svg>