<?xml version="1.0" encoding="UTF-8"?>
<svg id="Calque_2" data-name="Calque 2" xmlns="http://www.w3.org/2000/svg" viewBox="0 0 221.88 135.87">
  <defs>
    <style>
      .cls-1 {
        fill: #91a9b3;
      }

      .cls-2 {
        fill: #704834;
      }

      .cls-3 {
        fill: #8f625d;
      }

      .cls-4 {
        fill: #ddb762;
      }

      .cls-5 {
        fill: #537ea0;
      }

      .cls-6 {
        fill: #b7cfd7;
      }

      .cls-7 {
        fill: #c5503d;
      }

      .cls-8 {
        fill: #cb844b;
      }

      .cls-9 {
        fill: #cfae8a;
      }

      .cls-10 {
        fill: #4a3d2c;
      }
    </style>
  </defs>
  <g id="Calque_1-2" data-name="Calque 1">
    <g>
      <path class="cls-10" d="M138.05,115.18c-.25-3.33.13-8.55,0-12,10.15-24.09,47.27-22.2,48.08,5.92l22.7-.15c2.26-4.03,7.56-8.48,6.91-12.19-2.76-21.12-14.61-4.21-13.69-15.58h7.99c.44-13.81-9.79-16.34-7.99,0-7.72-3.08-1.95-11.93-1.99-17.99l-23.72-4.29C169.02,1.31,85.43-15.42,58.39,36.53c-2.62,4.79-6.05,18.49-9.15,20.85-8.19,6.22-24.66-.86-35.2,17.8-4.74,7.45-7.26,18.39,4,18v2c-6.79-.81-14.43-1.56-13.87,7.07.66,10.12,16.91,6.41,23.88,6.94.03-1.99,0-4-.01-6,1.25.21,2.96-.32,4,0,.67.21,1.28,2.78,3.89,1.18,7.6-4.65,9.96-19.82,26.94-19.07,14.35.63,18.59,8.85,23.17,19.89,1.16,2.8-2.32,3.37,4,4l2,6c-10,.74-3.99,2.21-9.08,9.92-12.24,19.71-45.06,10.35-47.02-11.84-1.78-1.6-32.13,9.06-35.54-7.57-2.08-10.14,4.37-11.64,6.72-18.43,2.76-7.98.19-12.45,6.93-21.07,11.16-14.29,28.92-8.73,33.53-13.47C57.71-4.9,141.17-20.12,170.82,31.4c2.52,5.02,6.21,19.92,8.15,21.85,3.56,3.54,20.63,1.49,30.76,13.24,5.38,6.23,13.61,29.28,11.92,37.22-3.59,16.93-23.58,7.27-31.11,10.91s-6.79,17.32-21.97,20.08c-14.98,2.72-28.39-3.86-30.53-19.52ZM65.76,116.88c8.41-5.34-4.8-18.41-10.85-9.85-5.17,7.31,5.21,13.43,10.85,9.85ZM159.26,105.36c-7.69,2.46-1.79,17.03,6.9,10.94,4.92-3.45,1.74-13.7-6.9-10.94Z"/>
      <path class="cls-2" d="M138.05,109.18c0,1.93-.25,4.18,0,6-15.04.8-31.1-1.1-46,0l-2-6c15.18,1.53,32.54-1.12,48,0Z"/>
      <path class="cls-7" d="M14.05,75.18c10.53-18.66,27.01-11.58,35.2-17.8,3.1-2.36,6.53-16.06,9.15-20.85C85.41-15.42,169.04,1.31,176.33,58.9l23.72,4.29c.04,6.04-5.72,14.92,1.99,17.99.3.42-.7,2.94.25,3.66,3.95,2.98,10.38-5.76,13.43,11.91.64,3.71-4.65,8.16-6.91,12.19l-22.7.15c-.82-28.13-37.92-30.01-48.08-5.92-7.44,8.27-12.58,2.54-21.34,2.75-9.73.24-21.12,3.86-30.66-.76-4.58-11.04-8.82-19.26-23.17-19.89-18.31-2.83-23.16,25.62-30.83,17.89,1.73-13.94-7.43-8.83-16-10l-2-18ZM62.05,59.18h45c6.31,0,7.06-37.01,2.53-41.52-15.31-15.23-54.54,21.78-47.53,41.52ZM123.05,59.18c5.32,1.49,24.63,0,32,0,1.15,0,6.09-3.58,6.7-5.34,3.83-11.2-12.91-31.97-23.22-36.13-4.25-1.71-19.32-4.8-20.55.81-1.53,7.01-2.23,38.62,5.07,40.66ZM104.05,65.19c-.7-.72-16.71-.37-13.99,5.98h14s-.01-5.98-.01-5.98ZM136.05,71.17c15.34,1.44,15.34-7.42,0-5.98v5.98Z"/>
      <path class="cls-4" d="M18.05,95.18c14.45,2.41,9.15.64,10.01,14-6.97-.53-23.22,3.18-23.88-6.94-.56-8.62,7.08-7.88,13.87-7.07Z"/>
      <path class="cls-1" d="M65.76,116.88c-5.64,3.58-16.02-2.54-10.85-9.85,6.05-8.56,19.26,4.51,10.85,9.85Z"/>
      <path class="cls-5" d="M159.26,105.36c8.64-2.76,11.82,7.49,6.9,10.94-8.69,6.09-14.59-8.48-6.9-10.94Z"/>
      <path class="cls-8" d="M138.05,109.18c-15.46-1.12-32.82,1.53-48,0-6.32-.63-2.84-1.2-4-4,9.54,4.61,20.93.99,30.66.76,8.75-.21,13.89,5.52,21.34-2.76v6Z"/>
      <path class="cls-3" d="M16.05,93.18c-9.74-1.78-5.91-11.07-2-18l2,18Z"/>
      <path class="cls-9" d="M202.05,81.18c-1.8-16.34,8.43-13.81,7.99,0h-7.99Z"/>
      <path class="cls-2" d="M32.05,103.18c-1.04-.32-2.75.21-4,0-.01-1.53.32-5.71,0-5.97-.4-.31-8.72-1.88-9.99-2.03v-2c8.45.96,15.42-3.14,14,10Z"/>
      <path class="cls-10" d="M62.05,59.18c-7.01-19.74,32.22-56.76,47.53-41.52,4.54,4.51,3.78,41.52-2.53,41.52h-45ZM106.05,55.18c3.58-21.39,8.65-48.73-21.39-30.39-10.61,6.48-17.65,17.94-18.61,30.39h40Z"/>
      <path class="cls-10" d="M123.05,59.18c-7.3-2.04-6.61-33.64-5.07-40.66,1.23-5.61,16.3-2.53,20.55-.81,11.37,4.68,35.88,34,16.52,41.47-7.37,0-26.68,1.49-32,0ZM122.05,19.18v33l3,3h30c9.56,0-4.6-22.66-7.93-26.07-6.43-6.56-15.73-10.81-25.07-9.93Z"/>
      <path class="cls-2" d="M104.05,65.19v5.98s-13.99,0-13.99,0c-2.72-6.35,13.29-6.7,13.99-5.98Z"/>
      <path class="cls-2" d="M136.05,71.17v-5.98c15.34-1.44,15.34,7.42,0,5.98Z"/>
      <path class="cls-6" d="M106.05,55.18h-40c.96-12.45,8-23.91,18.61-30.39,30.03-18.34,24.97,9,21.39,30.39Z"/>
      <path class="cls-6" d="M122.05,19.18c9.33-.88,18.64,3.37,25.07,9.93,3.33,3.41,17.5,26.07,7.93,26.07h-30l-3-3V19.18Z"/>
    </g>
  </g>
</svg>