<?xml version="1.0" encoding="UTF-8"?>
<svg id="Calque_2" data-name="Calque 2" xmlns="http://www.w3.org/2000/svg" viewBox="0 0 114.62 135.11">
  <defs>
    <style>
      .cls-1 {
        fill: #704834;
      }

      .cls-2 {
        fill: #ddb762;
      }
    </style>
  </defs>
  <g id="Calque_1-2" data-name="Calque 1">
    <g>
      <path class="cls-1" d="M76.69,1.2c4.48,4.67-11.09,12.48-13.3,14.7-22.71,22.89-18.44,67.01,9.87,83.7,15.98,12.74,56.76-1.8,35.22,20.38-20.14,19.7-55.23,18.86-78.44,4.84C-30.4,89.6,8.18-12.18,76.69,1.2ZM66.68,5.21C3.66,6.07-18.63,92.81,36.61,122.26c18.04,9.61,49.38,11.91,62.03-6.11C41.44,100.17,24.31,48.88,66.68,5.21Z"/>
      <path class="cls-2" d="M66.68,5.21c-42.4,43.74-25.2,94.95,31.97,110.94-12.65,18.02-43.99,15.72-62.03,6.11C-18.63,92.81,3.66,6.07,66.68,5.21Z"/>
    </g>
  </g>
</svg>