<?xml version="1.0" encoding="UTF-8"?>
<svg id="Calque_2" data-name="Calque 2" xmlns="http://www.w3.org/2000/svg" viewBox="0 0 119.43 155.45">
  <defs>
    <style>
      .cls-1 {
        fill: #91a9b3;
      }

      .cls-2 {
        fill: #537ea0;
      }

      .cls-3 {
        fill: #b7cfd7;
      }

      .cls-4 {
        fill: #3b5051;
      }
    </style>
  </defs>
  <g id="Calque_1-2" data-name="Calque 1">
    <g>
      <path class="cls-4" d="M44.31,74.33c22.9-13.62,10.01-35.33,19.63-53.37,17.82-33.85,69.83-26.29,51.73,19.73-9.03,22.96-18.5,18.2-35.49,26.51-11.26,5.51-30.98,63.23-47.51,78.49-22.29,20.58-41.04,6.23-28.8-20.79,6.8-15.01,28.94-36.82,40.44-50.56ZM63.65,77.62c14.85-22.85,39.32-12.57,48.94-41.99,12.49-38.21-28.67-40.84-44.57-10.58-7.04,13.39-2.56,19.72-5.29,32.71-1.15,5.45-7.11,12.16-7.07,12.89.13,2.54,9.6,2.12,8,6.98ZM9.62,125.64c-10.34,22.42-1.35,35.67,18,16,4.45-4.91,10.91-8.96,12-16,4.69-10.03,34.03-45.06,14.95-50.14-10.77.4-40.04,41.11-44.95,50.14Z"/>
      <path class="cls-3" d="M63.65,77.62c1.6-4.85-7.88-4.44-8-6.98-.04-.73,5.93-7.44,7.07-12.89,2.73-12.99-1.75-19.32,5.29-32.71,15.9-30.26,57.06-27.63,44.57,10.58-9.62,29.42-34.09,19.15-48.94,41.99ZM75.62,49.66c7.48,10.15,20.44.45,25.98-7.03,7.15-9.65,6.53-17.34,5.99-28.98-2.59,17.25-9.88,40.23-31.98,36.01Z"/>
      <path class="cls-2" d="M39.62,125.64c-2.18,3.13-5.85,5.36-6,10-.59.73-1.39,1.3-2,2h-4s0,4,0,4c-9.79,8.83-23.89,18.81-22-4l4,.02v-12.02c4.62-10.12,24.45-33.17,32.98-42.02,6.77-9.78,18.46-12.37,18.68,2.55-.79,5.2-17.57,33.6-21.66,39.47Z"/>
      <path class="cls-1" d="M9.62,125.64v12.02s-4-.02-4-.02c.25-3.02,2.61-8.94,4-12Z"/>
      <path class="cls-3" d="M31.62,137.64c-1.5,1.72-2.34,2.5-4,4v-4s4,0,4,0Z"/>
      <path class="cls-1" d="M33.62,135.64c.15-4.64,3.82-6.87,6-10-.27,4.47-3.48,6.9-6,10Z"/>
      <path class="cls-4" d="M75.62,49.66c22.1,4.23,29.39-18.77,31.98-36.01.54,11.64,1.16,19.33-5.99,28.98-5.55,7.49-18.51,17.18-25.98,7.03Z"/>
    </g>
  </g>
</svg>