<?xml version="1.0" encoding="UTF-8"?>
<svg id="Calque_2" data-name="Calque 2" xmlns="http://www.w3.org/2000/svg" viewBox="0 0 168.06 151.09">
  <defs>
    <style>
      .cls-1 {
        fill: #91a9b3;
      }

      .cls-2 {
        fill: #c5503d;
      }

      .cls-3 {
        fill: #f7f7f0;
      }

      .cls-4 {
        fill: #4a3d2c;
      }

      .cls-5 {
        fill: #a78a6a;
      }
    </style>
  </defs>
  <g id="Calque_1-2" data-name="Calque 1">
    <g>
      <path class="cls-4" d="M108.28,22.28c6.24,4.49,31.18-14.82,43.5,7.5,4.6,23.39,14.1,50.49,16.02,73.97s-6.54,22.64-25.74,27.77c-25.61,6.84-71.3,16.91-97.04,18.96-11.43.91-21.14,2.31-27.78-8.16C13.16,135.87.19,74.63,0,65.41c-.34-17.96,8.29-20.43,23.17-24.78,3.93-1.15,14.33-1.62,14.87-2.14.97-.94-2.4-17.8,5.12-25.87C51.27,3.93,84.84-3.87,95.48,2.1c9.66,5.43,11.38,19.16,12.81,20.18ZM78.06,8.5c-15.88,1.61-41.18.25-34.58,23.66.99,3.52-.63,5.2,4.57,4.33.58-5.04-1.79-13.39,1.95-17.05,1.05-1.03,25.69-8.76,28.06-8.94,3.43-.25,13.68,2.62,15.44,4.54,2.94,3.2-.1,13.58,8.59,8.44-.84-11.06-14.41-21.85-24.03-14.97ZM89.58,17c-5.42-5.35-44.47,1.02-35.51,17.5l38-6c.49-.46-1.4-10.43-2.49-11.5ZM159.58,118.04c1.79-1.71,2.3-5.48,1.98-7.96-8.55-19.68-7.33-76.04-22.97-85.27L8.26,50.7c-2.51,19.56,9.4,70.32,14.18,90.41,7.32,12.97,121.68-17.97,137.14-23.08Z"/>
      <path class="cls-3" d="M159.58,118.04c-15.11,5.03-129.82,36.05-137.14,23.08-4.77-20.02-16.74-70.96-14.18-90.42l130.33-25.9c15.67,9.29,14.42,65.61,22.97,85.27.31,2.49-.2,6.25-1.99,7.97ZM94.08,70.52c-5.42-4,3.29-34.35-29.87-12.85l3.85,18.84c-5.7-.96-18.09.78-19.71,7.37-.7,2.86,3.06,16.1,5.66,17.65,6.08,3.64,18.75-2.2,20.03-1.03,4.47,25.37,3.67,20.02,27.81,15.83l-1.81-21.82c15.13.92,20.95-2.37,17.13-18.14-4.54-18.75-19.88-3.48-23.1-5.85Z"/>
      <path class="cls-3" d="M89.58,17c1.09,1.07,2.98,11.04,2.49,11.5l-38,6c-8.96-16.48,30.09-22.84,35.51-17.5Z"/>
      <path class="cls-1" d="M78.06,8.5v2c-2.38.18-27.01,7.91-28.06,8.94-3.73,3.66-1.37,12.01-1.95,17.05-5.2.88-3.58-.8-4.57-4.33-6.61-23.41,18.7-22.06,34.58-23.66Z"/>
      <path class="cls-5" d="M78.06,8.5c9.62-6.88,23.19,3.92,24.03,14.97-8.69,5.15-5.65-5.24-8.59-8.44-1.76-1.92-12.01-4.79-15.44-4.54v-2Z"/>
      <path class="cls-4" d="M94.08,70.52c3.21,2.37,18.56-12.91,23.1,5.85,3.82,15.77-2,19.06-17.13,18.14l1.81,21.82c-24.26,4.23-23.31,9.5-27.81-15.83-1.29-1.17-13.95,4.67-20.03,1.03-2.6-1.55-6.36-14.79-5.66-17.65,1.62-6.59,14.01-8.33,19.71-7.37l-3.85-18.84c33.16-21.51,24.45,8.85,29.87,12.85ZM109.76,72.81c-4.11-2.57-12.32,3.6-17.7.79-7.08-3.7-2.57-21.61-16.74-16.86-7.5,2.51-.37,16.2-2.15,19.76-3.52,7.07-27.05,2.08-16.77,18.66,4.92,7.93,12.87-.32,18.36,1.49,6.36,2.09,3.18,24.41,21.16,15.74l1.04-19.96,17-7.13c.55-1.81-3.49-12.03-4.22-12.49Z"/>
      <path class="cls-2" d="M109.76,72.81c.73.45,4.77,10.68,4.22,12.49l-17,7.13-1.04,19.96c-17.98,8.67-14.81-13.65-21.16-15.74-5.5-1.81-13.44,6.44-18.36-1.49-10.29-16.57,13.25-11.58,16.77-18.66,1.77-3.56-5.35-17.25,2.15-19.76,14.17-4.74,9.67,13.17,16.74,16.86,5.38,2.81,13.6-3.37,17.7-.79Z"/>
    </g>
  </g>
</svg>