<?xml version="1.0" encoding="UTF-8"?>
<svg id="Calque_2" data-name="Calque 2" xmlns="http://www.w3.org/2000/svg" viewBox="0 0 93.34 115.98">
  <defs>
    <style>
      .cls-1 {
        fill: #8aa25d;
      }

      .cls-2 {
        fill: #ddb762;
      }

      .cls-3 {
        fill: #f7f7f0;
      }

      .cls-4 {
        fill: #cfae8a;
      }

      .cls-5 {
        fill: #3b5051;
      }

      .cls-6 {
        fill: #4a3d2c;
      }
    </style>
  </defs>
  <g id="Calque_1-2" data-name="Calque 1">
    <g>
      <path class="cls-6" d="M55.78,70.31c-1.2,1.33-2.36,1.6-4,2,1.49-.9,2.78-1.33,4-2Z"/>
      <path class="cls-6" d="M23.78,50.31c-2.65-8.2-12.72-8.78-17.4-14.58C-13.86-1.25,47.8-20.92,45.79,34.31c1.84,1.94,47.88-23.05,41.66,6.53-1.5,7.15-13.09,13.67-11.71,18.45.34,1.19,13.25,5.03,16.71,17.36,2.88,10.25-1,29.36-14.67,29.64,26.31-29.52-6.82-50.38-3.98-39.03,2.99,7.27,12.99,4.96,9.52,21.57-5.42,26-44.18,21.76-43.56-5.28l-3.97,2.74c-4.57-7.71-7.02-1.96-13.08-.09-7.91,1.23-21.51,1.21-22.67-9.28-.38-3.41,3.54-4.11,3.76-4.63,5.36,4.02-1.98,9.58,8.58,9.29,11.51.02,27.48-6.38,39.42-9.29-2.71,1.64-10.79,6.1-9.99,9.99l23.99-5.99c-6.12,4.66-10.49,11.44-20.01,10.01-1.42,14.22,16.67,21.11,27.06,12.04,11.68-10.18,6.29-30.86-5.05-24.05l-.02-10c-3.57,2.68-8.26,3.95-11.98,6,1.78-10.45,29.54-21.78,27.59-34.74-1.99-10.64-25.95-2.07-31.56,1.78-5.11,3.51,1.71,2.72,3.76,6.12,8.83,14.7-24.19,24.77-27.81,20.85-.61-.66.68-6.35.07-8.7-.57-2.2-3.86-1.1-4.06-1.31-.42-.46.36-2.88,0-4ZM15.78,36.31c3.12,3.48,10.44,5.94,12.53,10.46,4.29,9.26-4.19,17.19,11.52,12.59,21.63-6.32,7.56-13.4,3.52-21.63-3.57-7.27-2.31-16.36-5.57-23.43-11.6-25.07-47.44,3.61-22,22Z"/>
      <path class="cls-1" d="M77.78,106.31c-.26.41-1.98.88-2,2-19.25,8.95-37.18-2.01-40-22l3.97-2.74c-.62,27.05,38.14,31.28,43.56,5.28,3.46-16.61-6.53-14.3-9.52-21.57-2.9-11.34,30.32,9.42,3.98,39.03Z"/>
      <path class="cls-5" d="M35.78,86.31c2.82,20,20.76,30.95,40,22,0,.28,3.07,2.81,2.01,3.97-22.63,11.08-48.16-3.78-46.01-29.97.95.15,3.58,3.11,4,4Z"/>
      <path class="cls-5" d="M23.78,54.31c-7.97,4.32-15.03,11.12-18,20-.08-.42-1.62-1.23-2-2,4.9-11.62,6.54-16.6,20-22,.36,1.12-.42,3.54,0,4Z"/>
      <path class="cls-1" d="M67.78,74.31c.2,2.55-24.41,7.27-25.99,7.99,1.09-8.98,19.4-12.92,25.97-17.99l.02,10Z"/>
      <path class="cls-1" d="M55.78,70.31c-12.56,5.01-30.59,10.6-43.42,11.29-8.2-.01-5.71-2.47-6.58-7.29,2.97-8.88,10.03-15.68,18-20,7.06-1.76,2.95,7.81,3.99,10.02,3.61,3.92,36.63-6.15,27.81-20.85-2.04-3.4-8.87-2.62-3.76-6.12,5.61-3.85,29.57-12.42,31.56-1.78,1.9,13.03-25.78,24.23-27.59,34.74Z"/>
      <path class="cls-2" d="M37.78,14.31c3.27,7.06,2,16.16,5.57,23.43,4.04,8.23,18.11,15.3-3.52,21.63-15.71,4.6-7.23-3.33-11.52-12.59-2.09-4.52-9.42-6.98-12.53-10.46C5.67,25,9.59,5.56,24.26,8.78c4.25.93,9.07,4.36,13.52,5.53Z"/>
      <path class="cls-3" d="M67.78,74.31c11.35-6.81,16.73,13.87,5.05,24.05-10.4,9.07-28.48,2.18-27.06-12.04,10.32,1.38,15.49-6.62,22.01-12.01Z"/>
      <path class="cls-4" d="M37.78,14.31c-4.45-1.17-9.27-4.6-13.52-5.53-14.67-3.22-18.59,16.23-8.48,27.53C-9.66,17.91,26.19-10.76,37.78,14.31Z"/>
    </g>
  </g>
</svg>