<?xml version="1.0" encoding="UTF-8"?>
<svg id="Calque_2" data-name="Calque 2" xmlns="http://www.w3.org/2000/svg" viewBox="0 0 138.82 149.64">
  <defs>
    <style>
      .cls-1 {
        fill: #c5503d;
      }

      .cls-2 {
        fill: #cb844b;
      }
    </style>
  </defs>
  <g id="Calque_1-2" data-name="Calque 1">
    <g>
      <path class="cls-2" d="M66.62,149.46C-24.08,137.67-20.78,6.55,68.04,0c3.86.13,12.14,6.02,8.58,9.46-.49.48-9.6.24-13.64,1.37C23.91,21.68-.15,60.34,16.62,99.46c-4.2-4.05-5.48.21-5.56,3.54-.24,10.02,6.19,10.24,10.93,15.12,2.34,10.31,5.17,5.89,14.64,9.34,38.05,16.57,54.17,13.67,80-18,14.58-1.98,9.24-42.6,4-52,6.11,2.3,4.55-11.32,4.13-12.78-.37-1.27-10.43-2.72-10.13-9.22,35.82,23.43,29.41,75.3-3.06,99.94-10.56,8.01-23.56,7.11-34.94,14.06-3.18-.05-7.06.43-10,0Z"/>
      <path class="cls-2" d="M92.62,107.46c-2.4-.42-7.52-5.85-8-6v-2c20.42-4.95,6.29-38.81-10.02-29.02-6.48,3.89,1.33,17.38-7.23,18.89-9.03.5-6.12-14.75-6.75-19.87,26.4-37.9,69.65,19.07,32,38Z"/>
      <path class="cls-1" d="M114.62,35.46c-.29,6.5,9.76,7.94,10.13,9.22.42,1.46,1.98,15.08-4.13,12.78-3.14-6.31-19.05-19.01-26-20,1.66-4.92,7.95-3.7,12-6,3.17,1.41,4.88,1.96,8,4Z"/>
      <path class="cls-1" d="M16.62,99.46c4.57,10.67,13.33,18.8,20,28-9.48-3.46-12.3.96-14.64-9.34-4.73-4.88-11.17-5.1-10.93-15.12.08-3.33,1.36-7.59,5.56-3.54Z"/>
      <path class="cls-2" d="M106.62,31.46c-4.05,2.3-10.34,1.08-12,6-51.34-9.48-73.93,67.63-16,68-.67,4.37.17,6.06,4,8-6.68,2.32-7.76,4.33-16.04,3.2C-4.31,101.6,47.91-1.04,106.62,31.46Z"/>
      <path class="cls-1" d="M84.62,101.46c.48.15,5.6,5.58,8,6,1.46,5.1-6.14,4.89-10,6-5.61-2.21-4.87-7.62-2-12,1.29.14,3.03-.3,4,0Z"/>
    </g>
  </g>
</svg>