<?xml version="1.0" encoding="UTF-8"?>
<svg id="Calque_2" data-name="Calque 2" xmlns="http://www.w3.org/2000/svg" viewBox="0 0 87.01 118.55">
  <defs>
    <style>
      .cls-1 {
        fill: #91a9b3;
      }

      .cls-2 {
        fill: #704834;
      }

      .cls-3 {
        fill: #8f625d;
      }

      .cls-4 {
        fill: #ddb762;
      }

      .cls-5 {
        fill: #e8b93e;
      }

      .cls-6 {
        fill: #f7f7f0;
      }

      .cls-7 {
        fill: #cfae8a;
      }

      .cls-8 {
        fill: #3b5051;
      }

      .cls-9 {
        fill: #4a3d2c;
      }
    </style>
  </defs>
  <g id="Calque_1-2" data-name="Calque 1">
    <g>
      <path class="cls-9" d="M64.76,41.87c2.28,6.38,1.68,6.43,8,6,5.69-.8,12.5,3.4,13.96,9.05,1.23,6.11-1.65,51.44-4.27,55.65-12.46,11.11-57.11,3.97-72.15.77C-5.37,107.84.84,71.22,3.31,57.34c.73-9.42,8.11-9.82,15.44-13.47,3.77,2,4.67,3.09,10,0,4.4,3.59,27.65,3.61,30.72,4.17,1.8-.36,3.25-6.45,3.28-8.17.68.6,1.57,1.21,2,2ZM78.76,99.87c1.42-14.54,3.13-29.02,1.73-43.72-12.41-4.48-34.73-5.63-48.64-6.35-3.98-.12-22.23-.87-23.16,3.42-1.37,6.34-3.72,52.6-1.82,54.56,24.05,3.71,47.53,6.86,71.9,4.11.28-3.95-.39-8.08-.01-12.01Z"/>
      <path class="cls-8" d="M76.76,47.87c-1.08-.33-2.84.3-4,0,3.84-20.98-13.29-55.05-38-40-14.47,6.84-15.21,21.15-16,36-1.1.11-2.72,1.61-4,2-3.91-61.28,69-61.69,62,2Z"/>
      <path class="cls-4" d="M36.76,111.87c-10-.86-19.93-3-29.89-4.1-1.9-1.96.45-48.22,1.82-54.56.93-4.29,19.18-3.53,23.16-3.42,13.87.72,36.27,1.88,48.64,6.35,1.4,14.7-.31,29.18-1.73,43.72h-2c-7.79-21.66,13.68-48.02-25.99-43.99-.47,3.54,1.47,6.68,1.99,9.99-5.85-1.9-10.14-2.52-16,0,.31-.39-.89-2.67,1.21-4.2,26.77-8.3-25.96-10.13-27.32-2.58-2.69,9.57,4.71,17.53,4.23,21.67-.13,1.09-3.71.88-4.09,2.45-4.2,17.45,1.35,27.04,19.98,24.67l-.11-38.85c.28-2.39,3.58-.73,4.11-1.16,1.75,11.4,1.88,20.58,0,32h18.02c1.55-5.59-2.29-12.16-1.96-16.9.47-6.84,3.71-5.89,1.95-17.09,1.2.39,4-1.19,4.09,1.17,1.25,14.33-2.54,28.85-.09,42.83-6.28.04-15.39-1.66-20,2Z"/>
      <path class="cls-6" d="M62.76,39.87c-.03,1.72-1.48,7.81-3.28,8.17-3.13-.59-26.27-.55-30.72-4.17,4.11-15.84,2.04-30.03,22.97-25.95,7.68,1.5,11.17,14.96,11.03,21.95Z"/>
      <path class="cls-1" d="M34.76,7.87c1.06,4.31,6.39,3.82,10,4-15.92,5.69-19.87,18-20,34-3.5.02-5.69-2.03-6-2,.79-14.85,1.53-29.16,16-36Z"/>
      <path class="cls-1" d="M60.76,9.87c9.65,8.43,13.69,25.79,12,38-6.22.49-5.81.24-8-6,5.03-11.37-5.21-24.86-14-30,1.89-.03,8.86-.45,10-2Z"/>
      <path class="cls-7" d="M78.76,99.87c-.38,3.93.29,8.06.01,12.01-14.77,1.42-27.29,1.26-42.01-.01,4.61-3.66,13.72-1.96,20-2,5.65-.4,12.38.79,17.71-.3.99-.87,0-2.99.29-3.7.92-2.19,2.09-2.05,2-6h2Z"/>
      <path class="cls-8" d="M50.76,11.87c8.79,5.14,19.03,18.63,14,30-.43-.79-1.32-1.4-2-2,.14-6.99-3.35-20.45-11.03-21.95-20.93-4.08-18.86,10.11-22.97,25.95-.98-.03-3.06,1.99-4,2-.43-16.92,7.02-34.6,26-34Z"/>
      <path class="cls-3" d="M60.76,9.87c-3.45,2.55-25.52,4.17-26-2,9.89-4.68,17.06-5.82,26,2Z"/>
      <path class="cls-5" d="M34.76,67.87c-.53.43-3.83-1.23-4.11,1.16l.11,38.85c-18.63,2.37-24.19-7.22-19.98-24.67.38-1.57,3.96-1.36,4.09-2.45.48-4.13-6.91-12.09-4.23-21.67,1.43-7.56,54.07-5.72,27.32,2.58-2.99,3.01.71,3.66-3.21,6.2Z"/>
      <path class="cls-5" d="M52.76,65.87c-.52-3.31-2.46-6.45-1.99-9.99,39.67-4.03,18.2,22.34,25.99,43.99.09,3.95-1.08,3.81-2,6h-6.01s0,4,0,4c-3.96.06-8.02-.02-12,0-2.45-13.98,1.34-28.5.09-42.83-.09-2.37-2.89-.78-4.09-1.17Z"/>
      <path class="cls-9" d="M52.76,65.87c1.75,11.2-1.48,10.25-1.95,17.09-.33,4.74,3.51,11.31,1.96,16.91h-18.02c1.88-11.43,1.75-20.6,0-32.01,4.97-5.18,11.76-3.98,18-2ZM48.76,97.86c.85-4.96-1.79-9.67-1.53-14.5.24-4.52,8.48-19.87-5.26-15.32-5.77,1.91.78,22.97-3.21,29.81h10.01Z"/>
      <path class="cls-4" d="M74.76,105.87c.93,5.3-1.78,4.08-6,4v-4s6,0,6,0Z"/>
      <path class="cls-4" d="M64.76,109.87c-.67.03-1.33-.01-2,0h2Z"/>
      <path class="cls-2" d="M48.76,97.86h-10.01c3.99-6.84-2.56-27.9,3.21-29.81,13.74-4.55,5.51,10.79,5.26,15.32-.26,4.83,2.38,9.54,1.53,14.5Z"/>
    </g>
  </g>
</svg>