<?xml version="1.0" encoding="UTF-8"?>
<svg id="Calque_2" data-name="Calque 2" xmlns="http://www.w3.org/2000/svg" viewBox="0 0 179.16 200.42">
  <defs>
    <style>
      .cls-1 {
        fill: #91a9b3;
      }

      .cls-2 {
        fill: #704834;
      }

      .cls-3 {
        fill: #b7cfd7;
      }

      .cls-4 {
        fill: #c5503d;
      }

      .cls-5 {
        fill: #f7f7f0;
      }

      .cls-6 {
        fill: #3b5051;
      }

      .cls-7 {
        fill: #4a3d2c;
      }

      .cls-8 {
        fill: #a78a6a;
      }
    </style>
  </defs>
  <g id="Calque_1-2" data-name="Calque 1">
    <g>
      <path class="cls-7" d="M144.97,74.17c-2.5,14.57,1.09,36.24-13.53,46.01-10.8,5.8-28.19,11.53-40.47,9.99-1.03,0-3.09-2.01-4-2-10.34.05-20.42,1.9-30,2-1.34.07-6.31-4.23-7.99-1.01,12.02,8.28,15.38,11.31,21.99,23.01-2.13-2.13-6.22,1.76-3.99,3.99s6.11-1.86,3.99-3.99c.54.39,4.45-.28,7.02,1.9,4.07,3.91,18.66,21.45,16.98,6.1,55.39-7.53,29.78,65.64-3.78,30.78-4.2-7.34-.1-14.87-4.11-21.89-14.68-14.93-7.24-9.45-22.11-8.89l-1.13-4.14c-6.18.6-8.07,5.51-10.87,10.14-3.86.31-13.43-.41-13.99.01-5.62,5.19,14.27,3.93,5.99,9.99-5.69-4.34-8.6-.1-8,6-4.42-1.6-2.43-1.5-5.98-3.99l1.97,7.98-5.95-1.01c4.04,10.36,13.88,10.57,23.96,9.02-1.35,10.84-18.08,4.66-23.49.7-8.44-6.18-4.97-11.63-6.51-18.7,6.52-17.26,16.25-11.45,28.52-14.47,3.9-.96,18.35-11.19,15.44-15.45-1.75-1.94-16.99-10.64-19.96-14.07-3.55-4.14-12.53-5.87-18-8l2-2c13.05,4.35,75.69,2.81,90.07-.93,13.48-3.51,21.03-21.33,21.91-34.15.31-4.47,1.81-10.11-3.97-8.92v-2c2.33-.14,4.36.07,6-2h2ZM122.95,186.16c5.35-13.56-15.25-28.97-23.97-19.96-6.02,6.22,15.23,3.19,16,3.96v14.01c7.53-3.98,3.72-1.07,7.97,1.99ZM30.95,174.16v-3.98h-1.96v3.98h1.96ZM96.93,174.18c-5.39-4.56-5.82,13.07-.95,15.97-.41-4.98,5.1-6.57,5.08-7.04s-3.76-8.62-4.13-8.94ZM102.98,176.18c-4.57,4.57,8.25,12.63,9.98,4.96,1.11-4.9-8.68-6.25-9.98-4.96ZM118.96,188.18l-6.85,3.79-9.13-1.79v5.98c3.5.73,17.92-2.66,15.98-7.98Z"/>
      <path class="cls-7" d="M12.97,112.17C-7.43,84.1.28,61.42,8.8,31.49c1.19-1.88,7.16-3.45,10.23-6.26,3.57-3.27,14.79-17.53,15.92-18.08,4.69-2.29,12.68-.4,18.55-1.45,6.7-1.2,12.26-6.73,19.47-5.53v66c19.95.4,40.05-.54,60,0,1.83.05-.26,2,6,0,1.02-.32,2.75.22,4,0,.17,1.23,0,2.71,0,4-47.38,0-94.64,1.47-141.99,2.01-.47,5.27-.23,3.3,3,3.91,16.49,3.15,36.07,1.25,52.99,2.07-15.26,5.58-34.14-1.57-49.83,4.19-1.62,2.37,5.69,24.69,7.83,27.81l-2,2ZM42.97,14.17c-9.8-.77-8.62,2.66-14.9,10.1-3.12,2.96-14.62,8.55-11.01,13.79,1.52,2.21,32.7,15.36,37.91,18.11,1.15.61,4.75,6.62,7.96,5.02-.39-3.6-5.29-7.66-5.96-9.02-2.47-7.21-19.37-30.12-14-34l26,44V6.17c-8.65,2.79-17.37,5.11-26,8ZM4.97,68.17h58L10.99,38.17c1.21,11.12-1.52,20.14-6.02,30Z"/>
      <path class="cls-6" d="M146.97,70.17h-4c.11-2.7-.04-5.3-.01-7.99l-2.97-.03-1.02,4.01c-6.26,2-4.17.05-6,0,21.34-48.88,62.98-25.31,38.93-16.07-16.33-.79-21.48,3.91-24.93,20.07ZM174.97,44.15c-5.9-9.39-19.91-.32-25.96,5.04,8.48-2.79,16.65-6.49,25.96-5.04ZM148.96,52.18c-3.33-3.53-5.39,4.62-5.01,7.95,1.82-1.51,6.81-6.04,5.01-7.95Z"/>
      <path class="cls-5" d="M46.97,134.17c2.77,1.91,17.35,11.18,17.96,12.07,2.91,4.26-11.54,14.49-15.44,15.45-12.27,3.02-22-2.79-28.52,14.47-.15-.68-5.83-1.05-2.56-7.45,16.87-24.81,43.23,1.93,28.56-34.55Z"/>
      <path class="cls-6" d="M90.97,130.17c-.02,1.33.04,2.67,0,4-1.94.93-5.66.53-6,3.98,5.36.31,5.87,1.05,6-3.98,3.79-1.47,7.87-4.03,12-4l-18,17.06c-1.04,4.17,10.95,9.24,10,14.94l-17.58-10.52c-1.38-1.55-.01-4.79-.42-5.48,2.05,2.02,8.05-3.96,5.99-5.99s-8,4.01-5.99,5.99c-.66-1.12-19.09-10.33-20-16,7.58-1.65,8.88,6.35,12,8.99,9.48,5.64,12.57-5.11,18-10.99.91,0,2.97,2,4,2Z"/>
      <path class="cls-2" d="M28.97,122.17l-2,2c-7.58-3.52-8.91-5.41-14-12l2-2c.54.8,13.13,11.71,14,12Z"/>
      <path class="cls-5" d="M44.97,132.17h-6.01s0-4,0-4c4.34,1.94,3.94,2.68,6,4Z"/>
      <path class="cls-2" d="M146.97,70.17c-.43,1.74-1.91,3.49-2,4h-2v-4h4Z"/>
      <path class="cls-4" d="M136.97,78.17c5.78-1.19,4.28,4.45,3.97,8.92-.88,12.81-8.43,30.64-21.91,34.15-14.38,3.74-77.01,5.28-90.07.93-.87-.29-13.46-11.2-14-12-2.13-3.12-9.45-25.44-7.83-27.81,16.5-5.36,35.66.72,51.83-4.19,21.69,2.8,44.68,1.75,67.01,2.08,3.33.05,8.97,1.13,10.99-2.07Z"/>
      <path class="cls-8" d="M142.97,70.17v4c-1.64,2.07-3.67,1.86-6,2-17.54,1.05-35.48-.71-53.08-.09l-24.92,2.09h-2c-16.92-.82-36.5,1.07-52.99-2.07-3.23-.62-3.46,1.36-3-3.91,47.35-.54,94.61-2.01,141.99-2.01Z"/>
      <path class="cls-2" d="M136.97,76.17v2c-2.03,3.2-7.67,2.12-10.99,2.07-22.33-.33-45.32.72-67.01-2.07,25.19-3.47,52.88-1.16,78-2Z"/>
      <path class="cls-3" d="M86.97,128.17c-5.43,5.88-8.52,16.63-18,10.98-2.84-1.69-3.61-9.6-10-8.98,8.74-.43,18.45-1.9,28-2Z"/>
      <path class="cls-6" d="M122.95,186.16c-4.25-3.07-.44-5.97-7.96-1.99v-14.01c-.78-.77-22.03,2.26-16.01-3.96,8.73-9.01,29.32,6.4,23.97,19.96Z"/>
      <path class="cls-1" d="M56.97,130.17c.91,5.67,19.34,14.88,20,16-2.01-1.98,3.9-8.06,5.99-5.99s-3.94,8.01-5.99,5.99c.41.69-.97,3.93.42,5.48l17.58,10.52c.3,12.34-13.74-5.35-16.98-8.1-2.57-2.18-6.47-1.5-7.02-1.9,2.13,2.13-1.76,6.22-3.99,3.99s1.86-6.11,3.99-3.99c-6.65-11.76-9.97-14.72-21.99-23.01,1.68-3.22,6.65,1.08,7.99,1.01Z"/>
      <path class="cls-6" d="M96.93,174.18c.38.32,4.12,8.44,4.13,8.94s-5.5,2.06-5.08,7.04c-4.87-2.9-4.44-20.54.95-15.97Z"/>
      <path class="cls-3" d="M102.98,176.18c1.3-1.29,11.09.06,9.98,4.96-1.73,7.67-14.55-.39-9.98-4.96Z"/>
      <path class="cls-1" d="M52.97,166.17c2.8-4.63,4.69-9.55,10.87-10.14l1.13,4.14c-6.39,2.73-2.56,5.25-12,6Z"/>
      <path class="cls-6" d="M118.96,188.18c1.95,5.31-12.46,8.71-15.98,7.98v-5.98s9.13,1.79,9.13,1.79l6.85-3.79Z"/>
      <path class="cls-1" d="M100.97,130.17c-3.28,1.2-6.88,2.5-10,4-.13,5.03-.63,4.29-6,3.98.34-3.45,4.06-3.05,6-3.98.04-1.33-.02-2.67,0-4,1.89,0,9.47.05,10,0Z"/>
      <path class="cls-8" d="M4.97,68.17c4.5-9.86,7.23-18.88,6.02-30l51.98,30H4.97Z"/>
      <path class="cls-4" d="M42.97,14.17c.79,6.61-1.91,3.07-1.21,7.88,1.07,4.48,11.99,23.5,15.21,30.12l-2,4c-5.2-2.75-36.38-15.9-37.91-18.11-3.62-5.24,7.89-10.84,11.01-13.79,2.67-2.53,5.14-7.95,6.99-9.08,3.04-1.86,6.15-.43,7.91-1.02Z"/>
      <path class="cls-8" d="M42.97,14.17c8.63-2.89,17.35-5.21,26-8v56l-26-44c.3-1.08-.2-2.74,0-4Z"/>
      <path class="cls-8" d="M54.97,56.17l2-4c.67,1.37,5.56,5.42,5.96,9.02-3.2,1.59-6.81-4.42-7.96-5.02Z"/>
      <path class="cls-8" d="M138.97,66.17l1.02-4.01,2.97.03c.14,1.3-.17,2.71.01,3.99-1.25.22-2.98-.32-4,0Z"/>
      <path class="cls-3" d="M44.97,176.17c-1.66,8.05,0,8.9-8,6-.6-6.1,2.31-10.34,8-6Z"/>
      <path class="cls-7" d="M54.97,192.17c-.94.94-3.18-1.85-1-2,.69-.05,1.45,1.55,1,2Z"/>
      <path class="cls-6" d="M68.97,160.17c-1.4,4.23-8.85,7.8-9.7,11.39-1.41,5.93,6.73,13.54-4.3,20.61.45-.45-.31-2.05-1-2-2.18.15.06,2.94,1,2-8.86,5.26-24.28,3.79-27.96-7.02l5.95,1.01-1.97-7.98c3.56,2.48,1.56,2.38,5.98,3.99,8,2.9,6.34,2.05,8-6,.09-.41,3.35-1.65,1.15-4.08-1.09-1.19-11.64-2.49-7.14-5.91.56-.42,10.13.3,13.99-.01,10.31-.33,6.87-7.14,16-6Z"/>
      <rect class="cls-6" x="28.99" y="170.18" width="1.96" height="3.98"/>
      <path class="cls-8" d="M174.97,44.15c-9.31-1.45-17.47,2.24-25.96,5.04,6.05-5.36,20.06-14.43,25.96-5.04Z"/>
      <path class="cls-8" d="M148.96,52.18c1.8,1.91-3.19,6.44-5.01,7.95-.38-3.33,1.68-11.48,5.01-7.95Z"/>
    </g>
  </g>
</svg>