<?xml version="1.0" encoding="UTF-8"?>
<svg id="Calque_2" data-name="Calque 2" xmlns="http://www.w3.org/2000/svg" viewBox="0 0 196.16 125.89">
  <defs>
    <style>
      .cls-1 {
        fill: #537ea0;
      }

      .cls-2 {
        fill: #c5503d;
      }

      .cls-3 {
        fill: #cb844b;
      }

      .cls-4 {
        fill: #cfae8a;
      }

      .cls-5 {
        fill: #3b5051;
      }

      .cls-6 {
        fill: #4a3d2c;
      }

      .cls-7 {
        fill: #a78a6a;
      }
    </style>
  </defs>
  <g id="Calque_1-2" data-name="Calque 1">
    <g>
      <path class="cls-6" d="M168.19,74.27c-12.3,5.78-5.33,7.35-9.03,15.97-2.18,5.08-9.31,5.14-11.87,8.14-4.75,11.8-3.47,8.39-14.67,10.34-1.05.6-1.91,5.15-5.64,7.34-1.11.65-17.26,7.6-18.23,7.83-8.96,2.06-13.2-3.63-17.26-3.24-7.03.68-6,10.56-18.08,1.3-2.11-1.62-3.17-5.19-3.6-5.43-1.59-.86-4.83,2.27-7.64.9-2.61-1.28-3.5-6.4-6.1-8.05-10.24-3.2-8.78-.65-13.08-10.92-2.71-2.85-8.47-5.11-9.87-8.24-2.42-5.38,4.03-14.68-2.88-19.08-3.45-2.19-5.92,3.41-10.86,3.18-2.07-.1-19.14-8.28-19.36-9.33C-1.04,59.84,27.91.87,31.45.11c6.49-1.4,28.29,11.42,20.74,20.14,19.3,1.79,42.86-4.69,61.11-4.08,10.12.9,21.4,9.19,31.66,6.22.46-.13,2.62-5.29,5.23-8.13-.2,2.1.7,2.74,2,4,6.33,6.09.75,3.48,2.83,9.94,4.75,14.74,15.48,28.26,17.17,44.06-1.82.7-2.71,1.39-4,2ZM14.19,46.27c-1.19,2.24-10.74,15.01-10,15.97,5.01.08,9.15,4.74,13.53,5.74,8.16,1.86,9.21-11.8,10.47-17.71,1.87-.57,2.86.26,4.96-1.98,1.23-1.31,14.53-27.87,14.76-29.5.92-6.49-11.16-12.07-15.72-9.65-3.12,1.65-14.61,30.75-18,37.13ZM150.19,34.27c-.41-2.42.3-5.43-.01-7.99-24.11,10.39-53.97-27.83-83.99,23.97,22.72,4.07,22.87-19.93,45.51-6.49,12.37,7.34,28.66,24.45,40.49,30.51,4.42,2.26,13.95-3.81,14.17-5.27.78-5.08-12.16-29.27-16.17-34.73ZM94.19,102.27c6.29-7.68,25.05,16.81,31.94,7.9,4.92-7.41-22.03-12.58-18.92-21.92,9.16,1.95,17.65,11.29,25.59,14.49,6.15,2.47,10.03-2.96,8.47-6.51s-18.12-13.5-22.51-17.53c-2.15-1.98-5.57-2.09-4.56-6.42,3.61-3.38,25.87,16.76,29.45,17.7,26.36,1.03-5.11-18.32-11.63-24.54-3.53-2.79-27.56-20.39-29.29-20.87-10.51-2.9-21.36,18.05-36.53,10.69-9.54-4.63,3.3-20.92,7.96-26.04,2.22-2.44,6.17-1.91,6.03-4.93-9.85.75-19.15,4.4-28.85-.07l-21,40.89c7.66,10.42,10.62,5.85,18.66,7.18,3.07.51,5.15,3.25,8.31,3.87,4.13.81,12.41-.69,15.74,1.86,2.56,1.96.11,6.5,1.45,8.02,10.44-1.24,8.74,15.55,17.7,16.23l2.28,13.72,14.71,2.29c4.53-8.79-10.8-9.61-14.99-16.01ZM52.18,78.28c-4.32-5.7-16.36,1.28-16,8.94,4.67,9.19,17.99-6.3,16-8.94ZM65.6,80.56c-7.62.38-22.25,16.17-15.48,20.77,9.32,6.63,29.01-21.44,15.48-20.77ZM62.2,112.26c5.95,5.8,24.97-17.33,14.96-19.99-7.37-1.95-18.52,16.52-14.96,19.99ZM76.37,118.08c5.3,7.27,19.49-8.06,9.82-12.93-5.51-2.78-12.61,9.09-9.82,12.93Z"/>
      <path class="cls-5" d="M150.19,14.27c5.26-5.72,13.86-11.34,21.04-6.03l24.94,61.94c-8.13,1.01-21.43,14.31-27.97,4.09,3.97-3.49,19.59-3.94,21.72-8.94-6.77-12.12-10.93-30.17-17.62-41.66-1.16-2-5.15-2.03-5.7-4.56,4.46-15-9.1-6.47-14.4-.85-1.3-1.26-2.2-1.9-2-4Z"/>
      <path class="cls-4" d="M92.19,102.27c-8.96-.68-7.26-17.47-17.7-16.23-1.34-1.52,1.11-6.06-1.45-8.02-9.84-4.14-11.23,1.78-24.05-5.73-8.05-1.33-11,3.24-18.66-7.18l21-40.89c9.7,4.47,19,.82,28.85.07.14,3.03-3.81,2.49-6.03,4.93-4.65,5.11-17.49,21.41-7.96,26.04,15.17,7.36,26.02-13.58,36.53-10.69,1.73.48,25.76,18.07,29.29,20.87,6.49,6.21,38.01,25.57,11.63,24.54-3.58-.95-25.84-21.09-29.45-17.7-1.01,4.33,2.41,4.44,4.56,6.42,4.39,4.03,20.97,14.04,22.51,17.53s-2.32,8.98-8.47,6.51c-7.94-3.19-16.43-12.54-25.59-14.49-3.11,9.34,23.84,14.51,18.92,21.92-6.88,8.91-25.65-15.58-31.94-7.9-.66-.04-1.34.05-2,0Z"/>
      <path class="cls-7" d="M152.19,74.27c-11.83-6.06-28.12-23.17-40.49-30.51-22.64-13.44-22.79,10.56-45.51,6.49,30.08-51.85,59.92-13.55,83.99-23.97-.26,7.4.96,18.21,2.43,24.58,2.72,8.67,18.41,11.7-.42,23.41Z"/>
      <path class="cls-1" d="M152.19,18.27c5.32-5.63,18.86-14.16,14.4.85.56,2.53,4.54,2.56,5.7,4.56,6.69,11.48,10.85,29.54,17.62,41.66-.35,3.56-14.82,5.81-17.72,6.94-1.69-15.8-12.42-29.32-17.17-44.06-2.08-6.46,3.5-3.85-2.83-9.94Z"/>
      <path class="cls-2" d="M28.19,50.27c-2.88-7.07-8.14,18.66-15.99,11.99-1.93-1.79,7.39-12.67,1.99-15.99,3.4-6.38,14.89-35.47,18-37.13,4.56-2.42,16.64,3.16,15.72,9.65-.23,1.63-13.54,28.19-14.76,29.5-2.09,2.24-3.08,1.4-4.96,1.98Z"/>
      <path class="cls-7" d="M65.6,80.56c13.53-.67-6.16,27.4-15.48,20.77-6.76-4.6,7.86-20.4,15.48-20.77Z"/>
      <path class="cls-4" d="M62.2,112.26c-3.56-3.47,7.58-21.94,14.96-19.99,10.02,2.65-9,25.79-14.96,19.99Z"/>
      <path class="cls-3" d="M14.19,46.27c5.39,3.32-3.92,14.19-1.99,15.99,7.87,6.66,13.09-19.05,15.99-11.99-1.26,5.9-2.31,19.57-10.47,17.71-4.38-1-8.52-5.66-13.53-5.74-.74-.96,8.81-13.72,10-15.97Z"/>
      <path class="cls-4" d="M150.19,34.27c4.01,5.45,16.95,29.65,16.17,34.73-.22,1.46-9.75,7.53-14.17,5.27,18.83-11.71,3.14-14.74.42-23.41-1.09-3.47-1.59-11.75-2.42-16.59Z"/>
      <path class="cls-7" d="M94.19,102.27c4.19,6.4,19.52,7.22,14.99,16.01l-14.71-2.29-2.28-13.72c.66.05,1.34-.04,2,0Z"/>
      <path class="cls-7" d="M76.37,118.08c-2.79-3.83,4.31-15.7,9.82-12.93,9.67,4.87-4.52,20.2-9.82,12.93Z"/>
      <path class="cls-7" d="M52.18,78.28c2,2.64-11.33,18.13-16,8.94-.36-7.66,11.68-14.64,16-8.94Z"/>
    </g>
  </g>
</svg>