<?xml version="1.0" encoding="UTF-8"?>
<svg id="Calque_2" data-name="Calque 2" xmlns="http://www.w3.org/2000/svg" viewBox="0 0 121.1 124.68">
  <defs>
    <style>
      .cls-1 {
        fill: #e8b93e;
      }

      .cls-2 {
        fill: #cb844b;
      }
    </style>
  </defs>
  <g id="Calque_1-2" data-name="Calque 1">
    <g>
      <path class="cls-2" d="M1.01,96.07c-6.5-10.33,20.44-28.3,21.31-39.09.69-8.56-21.53-23.08-14.69-32.79,5.37-7.63,34.1,8.99,39.19,7.11,4.18-1.55,23.45-29.47,27.23-30.74,16.65-5.62,7.73,33.25,11.69,39.78s49.54,8.85,30.9,26.87c-9.13,8.82-23.89,3.39-30.93,15.17-.2,10.38.89,27.05-.94,36.95-1.06,5.72-5.54,6.1-10.58,4.62-7.86-2.31-16.71-32.76-26.85-35.35-3.53-.9-19.7,8.67-27.8,9.5-3.66.38-16.88.6-18.53-2.02ZM74.72,10.34c-3.4-2.76-3.65,1.57-4.53,2.54-25.27,30.43-14.31,23.75-50.41,15.41-.85,10.03-4.31,3.05-5.01,4.02-2.28,3.18,13.76,17.13,13.48,24.68-.39,10.23-18.85,23.55-19.49,35.33,7.41.34,17.11-1.72,21.26-7.86,18.55,1.28,22.21-4.59,33.65,11.96,2.43,3.51,3.12,9.93,5.89,12.1,17.04,13.3,8.63-24.69,10.12-28.09,5.61-12.83,29.28-10.3,35.07-22.06l-35.08-11.94c-2.72-8.37,1.95-30.44-4.96-36.07Z"/>
      <path class="cls-1" d="M74.72,10.34c6.91,5.62,2.24,27.7,4.96,36.07l35.08,11.94c-5.79,11.76-29.46,9.24-35.07,22.06-1.49,3.4,6.92,41.39-10.12,28.09-2.78-2.17-3.47-8.58-5.89-12.1-11.44-16.55-15.1-10.68-33.65-11.96-4.15,6.14-13.85,8.21-21.26,7.86.63-11.77,19.1-25.09,19.49-35.33.28-7.55-15.76-21.5-13.48-24.68.7-.97,4.16,6.01,5.01-4.02,36.21,8.39,25.14,14.97,50.41-15.41.87-.97,1.13-5.31,4.53-2.54Z"/>
    </g>
  </g>
</svg>