<?xml version="1.0" encoding="UTF-8"?>
<svg id="Calque_2" data-name="Calque 2" xmlns="http://www.w3.org/2000/svg" viewBox="0 0 231.94 163.55">
  <defs>
    <style>
      .cls-1 {
        fill: #ddb762;
      }

      .cls-2 {
        fill: #e8b93e;
      }

      .cls-3 {
        fill: #b7cfd7;
      }

      .cls-4 {
        fill: #3b5051;
      }

      .cls-5 {
        fill: #4a3d2c;
      }
    </style>
  </defs>
  <g id="Calque_1-2" data-name="Calque 1">
    <g>
      <g>
        <path class="cls-4" d="M77.35,98.63c13.32-35.78,60.65-49.94,78.03-10,18.19-15.73,49.96,1.08,45.95,24.01,34.22-6.27,44.9,44.21,5.02,49.99-19.64,2.1-43.65-.1-63.01,0v-4c23.2-7.63,88.44,13.08,81.45-28.52-3.68-15.75-22.77-9-27.58-12.35-4.39-3.06,3.89-23.45-17.73-28.27-15.51-3.45-25.39,7.52-27.11,7.13-11.39-36.58-57.65-36-67.03,6.01-3.05-.66-5.38-2.52-8-4Z"/>
        <path class="cls-5" d="M143.35,158.63v4c-21.33.1-44.97,1.29-66,0v-4c18.13,2.16,46.85.43,66,0Z"/>
        <path class="cls-4" d="M77.35,158.63v4c-21.99-1.35-30.38-8.61-28-32,2.1-.04,4.16-1.06,6-2-4.92,18.66,3.73,27.82,22,30Z"/>
        <path class="cls-3" d="M85.35,102.63c9.42-41.99,55.59-42.63,67.03-6.01,1.72.39,11.6-10.59,27.11-7.13,21.63,4.82,13.35,25.21,17.73,28.27,4.81,3.35,23.91-3.4,27.58,12.35,6.98,41.63-58.23,20.84-81.45,28.52-26.31-2.48-99.4,15.94-88-30,7.43-3.73,12.84-16.1,24-14,.86.14,3.75.17,4,0h3.99s-1.99-4-1.99-4c.53-2.27-.56-5.81,0-8Z"/>
        <path class="cls-4" d="M85.35,110.63l1.99,3.99h-3.99c.19-.11,1.95-3.77,2-3.99Z"/>
      </g>
      <g>
        <path class="cls-5" d="M49.35,130.63C-30.66,116.32-6.7-10.05,73.34.64c3.88,3.78-11.45,15.8-13.94,19.04-25.67,32.08-9.23,68.48,25.95,82.95-.39,4.23,1.1,8.14-2,12-.25.17-3.14.14-4,0-3.24-.52-.02-2.4-6,0-10.57,4.36-13.29,14.85-24,16ZM47.35,8.63c-2.57.67-3.49,1.82-4,2-5.94.8-11.17,2.47-12,8C-11.32,42.78.77,118.23,50.31,124.68c5.23-.58,5.85-5.72,9.04-8.04.86-.63,5.67-3.87,6-4,4.73-.91,18.77-.77,13.92-7.88-2.29-.96-9.22-2.01-11.92-4.12-20.85-15.41-27.89-36.68-24-62,4.62-10.9,8.37-21.13,17.98-29.03,2.53-6.03-12.21-1.43-13.98-.97Z"/>
        <path class="cls-2" d="M47.35,8.63c1.77-.46,16.51-5.05,13.98.97-9.62,7.9-13.36,18.13-17.98,29.03-1.96,4.63-5.55,6.15-6.03,15.08s7.91,36.03,14.58,40.37c3.1,1.58,14.91,6.01,19.45,8.54,2.13,15.1-8.76,5.78-12,14-3.19,2.33-3.81,7.46-9.04,8.04-4.44.49-17.56-5.67-21.63-8.38-11.9-7.92-18.45-19.95-21.33-33.67l1.97-26.59c15.28-4.18,11.33-4.46,14.63-17.82,1.04-3.39,7.08-7.12.12-8.11-4.91-8.43,5.9-4.34,7.3-5.48.42-.35-.32-4.41-.02-6,2.55-1.77,7.83-3.57,10-8,.54-.23,1.38.21,2,0l4-2Z"/>
        <path class="cls-1" d="M41.35,10.63c-2.17,4.43-7.45,6.23-10,8-.3,1.6.44,5.66.02,6-1.39,1.14-12.2-2.95-7.3,5.48,6.96.99.92,4.72-.12,8.11-3.3,13.35.65,13.64-14.63,17.82l-1.97,26.59c-5.94-28.3.76-47.81,24-64,1.09-5.81,4.05-5.4,10-8Z"/>
        <path class="cls-1" d="M67.35,100.63c-3.47-1.62-14.09-5.66-15.45-6.54-6.67-4.34-15.04-31.79-14.58-40.37s4.06-10.45,6.03-15.08c-3.89,25.32,3.15,46.59,24,62Z"/>
        <path class="cls-1" d="M71.35,102.63c1.71.78,7.52,1.51,7.92,2.12,4.57,7.07-7.14,6.1-11.92,7.88,4.66-2.06,4.56-5.29,4-10Z"/>
        <path class="cls-4" d="M79.35,114.63h-6c5.98-2.4,2.76-.52,6,0Z"/>
        <path class="cls-1" d="M47.35,8.63l-4,2c.51-.18,1.43-1.33,4-2Z"/>
        <path class="cls-1" d="M65.35,112.63c-.33.13-5.14,3.37-6,4,.97-2.82,3.05-3.98,6-4Z"/>
      </g>
    </g>
  </g>
</svg>