<?xml version="1.0" encoding="UTF-8"?>
<svg id="Calque_2" data-name="Calque 2" xmlns="http://www.w3.org/2000/svg" viewBox="0 0 120.44 115.88">
  <defs>
    <style>
      .cls-1 {
        fill: #537ea0;
      }

      .cls-2 {
        fill: #3b5051;
      }
    </style>
  </defs>
  <g id="Calque_1-2" data-name="Calque 1">
    <g>
      <path class="cls-2" d="M111.44,8.69c32.04,34.69-31.48,50.56-35.4,10.2-.56-21.71,23.63-20.27,35.4-10.2Z"/>
      <path class="cls-2" d="M112.15,77.98c-8.05,3.43-2.02,10.88,4,6,4.64,17.6-7.12,33.76-26.95,29.94-21.64-4.16-2.16-58.7,22.95-35.94Z"/>
      <path class="cls-2" d="M33.54,31.35c-6.37,4.61-19.67,1.89-21.34-6.41C7.45-15.37,68.69-2.11,33.54,31.35Z"/>
      <path class="cls-2" d="M54.15,103.98c-1.17,5.36,1.4,10.09-7.5,11.67-13,2.32-19.92-13.41-10.39-20.55,8.4-6.29,10.42-1.27,15.89.88-3.89,2.03-4.71,3.37-4,7.99h6Z"/>
      <path class="cls-2" d="M48.15,45.98c.22-.35,7.64-2.25,7.98-2.01l2.03,14h11.99c-.11,1.31.25,2.89,0,4-4.69,4.48-12.11,1.91-10,10-.82.21-2.06,1.89-4,2l-6.02-18-3.98,10c-3.3-3.35-1.69-9.54-1.98-14.01l3.97,2.03c.48-2.04-.63-6.98.02-8.01Z"/>
      <path class="cls-2" d="M8.15,57.98c3.54.23,6.61,1.15,9.99,2.03.83,3.38-2.81,1.25-3.56,2.21-.44.56,1.24,2.96.84,4.31-.7,2.36-3.2,4.3-3.25,6.45-.07,3.01,5.25,6.69,3.99,11-7.15,1.51-7.01-1.99-10-4v-8.01s-6,.01-6,.01c-.45-4.55.3-9.42,0-14.01,2.65.09,5.36-.16,8.01.01Z"/>
      <path class="cls-1" d="M70.15,57.98h-11.99s-2.03-14.01-2.03-14.01c-10.42,2.16-7.76.11-8,10.02l-3.97-2.03c.27,3.22-.46,6.9-.02,10.01-4.48-2.45-1.25-17.82,4-16,.53-.58-1.2-3.69,3.82-5.15,10.26-3.98,25.41,7.39,18.18,17.15Z"/>
      <path class="cls-1" d="M8.15,57.98c1.69-4.36,12.17,1.13,13.47,2.51,5.12,5.4,1.58,22-5.47,23.49,1.27-4.31-4.05-7.99-3.99-11,.05-2.15,2.55-4.09,3.25-6.45.4-1.35-1.28-3.74-.84-4.31.75-.96,4.4,1.17,3.56-2.21-3.37-.87-6.44-1.79-9.99-2.03Z"/>
      <path class="cls-1" d="M46.15,65.98l3.98-10,6.02,18c-7.8.43-7.7-2.45-10-8Z"/>
      <path class="cls-1" d="M70.15,61.98c-.55,5.24-2.97,11.41-10,10-2.11-8.09,5.31-5.52,10-10Z"/>
      <path class="cls-1" d="M52.15,95.98c.88.35,3.68-.41,3.99,0,1.33,1.8-1.6,6.19-1.99,7.99h-6c-.71-4.63.11-5.97,4-8Z"/>
      <path class="cls-1" d="M112.15,77.98c5.4-.87,3.94,2.26,4,6-6.02,4.88-12.05-2.57-4-6Z"/>
      <path class="cls-1" d="M.15,71.98h6s0,8,0,8c-4.31-2.9-5.08,1.33-6-8Z"/>
    </g>
  </g>
</svg>