<?xml version="1.0" encoding="UTF-8"?>
<svg id="Calque_2" data-name="Calque 2" xmlns="http://www.w3.org/2000/svg" viewBox="0 0 221.26 173.77">
  <defs>
    <style>
      .cls-1 {
        fill: #704834;
      }

      .cls-2 {
        fill: #8f625d;
      }

      .cls-3 {
        fill: #ddb762;
      }

      .cls-4 {
        fill: #537ea0;
      }

      .cls-5 {
        fill: #b7cfd7;
      }

      .cls-6 {
        fill: #f7f7f0;
      }

      .cls-7 {
        fill: #cfae8a;
      }

      .cls-8 {
        fill: #3b5051;
      }

      .cls-9 {
        fill: #4a3d2c;
      }

      .cls-10 {
        fill: #a78a6a;
      }
    </style>
  </defs>
  <g id="Calque_1-2" data-name="Calque 1">
    <g>
      <path class="cls-8" d="M151.31,38.21c-.1,2.38,2.02,5.12,2,6-5.45-4.18-9.84,1.88-12.65,1.64-3.1-.27-8.35-5.39-13.36-3.65l4-1.97.03-6.01c-13.2-3.25-8.87,5.06-13.36,8.14-5.98,4.1-19.93.88-20.67,4.9-.61,3.33,7.94,5.42.04,13.99-3.54,3.84-8.16,2.67-8.13,9.96.02,5.03,5.79,1.49,9.66,8.43,5.24,9.39-1.11,11.39-1.13,13.6-.04,6.22,15.23,2.83,20.14,4.96,2.65,1.15,1.68,8.7,6.36,9.24,10.41,1.21,5.42-7.64,8.34-9.35,3.49-2.05,13.5-3.84,13.72,2.12,10.98-7.19,3.04-8.89,3.43-14.65.71-10.28,11.08-8.94,11.71-14.34,1-8.55-8.38-5.74-9.97-10.27-1.44-4.14,1.74-10.1,1.83-14.73,9.01-1.04-.74,9.22,2.85,14.1,2.98,4.04,13.35,1.34,9.15,17.9-26.93,5.77,7.97,12.2-19.03,26.09-3.91.64-2.4-6.55-7.96-4.07-4.21,1.88-2.4,9.18-3.1,9.9-.58.6-14.84.51-16.69-.15-4.04-1.44-2.1-7.29-4.44-7.91-1.57-.42-15.6-1.67-18.79-1.86.17-3.16-1.88-6.3-1.78-9.09s3.06-4.24,2.86-7.02c-.44-6.08-9.38-4.11-10.83-6.15-2.81-23.73,3.92-13.32,9.64-20.96,1.08-3.67-4.41-7.98-.05-13.9,4.59-6.23,11.32-2.5,18.17-4.87,3.4-1.18,3.42,2.16,4-4,.1-1.07.24-3.26,0-4,4.44.56,10.83-1.1,14.75.25,4.72,1.62,1.85,14.53,19.25,7.75Z"/>
      <path class="cls-1" d="M207.31,36.21c-9.36.79-3.92,5.52-4,6-.4,2.44-.72,3.83-2,6-.44.75-3.79,1.79-4,4-4.06.69-4.47-2.71-6-4,9.95-3.88,3.52-6.05,7.03-11.97,1.23-2.08,6.5-3.19,6.98-5.06s-10.23-12.17-6.02-18.97c-7.87,6.03-14.2-5.85-15.08-6.04-5.66-1.23-3.91,3.74-9.23,4.82-3.51.71-7.81-1.02-9.7.16-2.72,1.7,1.06,7.91-1.79,11.87-2.11,2.93-8.09-1.67-6.22,6.19,9.38,3.86,3.37,8.95,4.99,15.01,2.08,3.22,6.63-.24,10.5,1.24,4.01,1.53,2.39,7.53,9.54,6.8.72-.07,3.09-9.04,9.01-4.06-7.34,2.86-2.51,2.21-5.88,6.67-1.41,1.87-4,1.15-4.12,1.33-7.12,1.92-7.41-5.43-10.04-7.09-2.32-1.46-7.6,2.36-12.01-1.88-5.47-5.26,6.85-17.1-5.95-15.03,1.07-8.77-4.17-13.81,8-12.02-2.66-5.43-3.02-7.44.88-12.14,5.23-6.31,7.17-1.44,11.85-1.74,1.46-.09,1.25-3.69,3.68-4.74,11.53-4.97,9.64,3.21,13.61,5.61,3.7,2.24,8.24-.68,11.89,4.23,2.75,3.7.06,7.22.67,9.51,1.63,6.14,7.83,2.62,3.42,15.28Z"/>
      <path class="cls-9" d="M89.31,24.21v4c-8.7.12-17.56-.79-26.2.9-6.56,1.28-5.96,5.33-9.57,6.25-10.03,2.57-18.55-1.3-26.02,10.1-8.46,12.9-3.66,5.11-13.59,13.39-6.21,5.19-9.8,17.3-8.62,25.37,1.33.08,2.66-.04,3.99-.01-5.72,5.98-1.35,15.97-6,18-3.52-9.98.49-12.14-.37-18.56-.66-4.99-4.39-4.27-2.32-12.99,3.92-16.51,11.73-13.79,19.79-22.33,6.76-7.16,3.54-10.67,16.3-15.71,23.4-9.25,28.57-8.52,52.59-8.4Z"/>
      <path class="cls-1" d="M197.31,54.21c1.06-.31,2.74.21,4,0-1.54,6.77,7.3,2.48,9.79,4.31,1.67,1.78,1.07,4.46,8.21,9.69,6.05,8.8-3.91,9.26-3.97,10.99-.02.76,8.77,7.36,1.14,13.21-3.91,3-9.48-.57-11.17,7.8-9.5,5.33-10.43-1.98-11.26-2.1-3.05-.42-6.89,3.19-11.35.27s-2.01-11.25-3.93-13.75c-.74-.96-3.34-.26-3.46-.43-1.74-2.55,4.22-20.54,6-24,9.68,2.44,9.5-4.1,16-6ZM206.91,60.5c-2.5-1.61-23.08,2.99-24.7,5.61s-.24,6.17-.94,8.71c-.53,1.91-3.62,1.29-3.78,1.53-2.55,3.84,4.56,4.95,5.95,7.22,2.02,3.32,1.04,10.55,4.91,12.61s1.89-5.66,5.94-3.97c9.02,10.69,6.34,2.94,11.69-1.35,1.71-1.37,9.04-2.45,9.02-5.64,0-.58-3.72-3.77-3.91-8.07-.17-3.76,3.97-2.87,4.26-3.96,1.55-5.72-2.81-4.91-6.09-7.96-1.21-1.13-1.44-4.15-2.36-4.74Z"/>
      <path class="cls-6" d="M153.31,32.21c12.8-2.07.47,9.77,5.95,15.03,4.41,4.24,9.7.42,12.01,1.88,2.63,1.65,2.92,9.01,10.04,7.09.71,5.61-8.22,23.12-6,28h-2c-.32-2.12-2.74-5.04-2.02-8-4.37-.74-2.32,2.77-5.98,2,4.19-16.56-6.17-13.85-9.15-17.9-3.59-4.88,6.16-15.14-2.85-14.1-.36-7.81-4.06-3.34,0-14Z"/>
      <path class="cls-9" d="M167.31,120.21c-7.33,2.5-4.92,10.04-6,12-7.21,13.02-20.79,21.44-36.01,20.01l4.09,16.89c.1,2.28-3.21.59-4.08,1.1.29-1.51-1.95-1.83-2-2-1.71-5.76-1.52-12.91-6-18v-2c8.85,1.08,21.11-1.58,28.74-6.34.67-.41,11.37-10,11.38-10.78.03-2.12-2.34-5.96-4.12-6.88v-2c5.1,1.71,13.26-8.01,14-2Z"/>
      <path class="cls-1" d="M153.31,122.21v2c-1.16-.6-17.54-4.37-18.64-4.14s-3.47,6.06-7.95,8.55c-12.78,7.62-22.38-2.38-19.41,11.58-9.35-9.91-3.28-13.11-17.72-7.74-4.38,6.91,13.98,16.01,18.63,21.83,5.46,6.83,1.84,18.89,15.09,13.91.05.17,2.29.49,2,2-17.44,10.34-14.51-4.05-21.98-14.49-1.07-1.5-16.87-18.02-18.02-18.62-3.27-1.71-9.28,2.33-13.29,2.42-12.05.28-28.9-3.23-30.71-17.3l4-2c1.02,9.92,13.47,13.94,23.01,14.17,10.21.24,19.05-4.65,28.15-6.01,8.27-1.23,27.58,1.01,34.36-4.62,2-1.66,1.99-7.15,2.51-7.55,1.72-1.32,16.82,5.72,19.96,6.01Z"/>
      <path class="cls-1" d="M117.31,148.21v2c-2.3-.63-2.87-2.27-4-4,1.13.5,3.78,1.97,4,2Z"/>
      <path class="cls-1" d="M113.31,146.21c-3.89-1.72-4.91.45-6-6,3.19,2.83,1.99-.14,6,6Z"/>
      <path class="cls-1" d="M167.31,78.21c.27-.07,1.23-2.91,3.98-2-.72,2.96,1.7,5.87,2.02,8,.61,4.06,2.38,21.73,1.99,24.82-.63,4.97-5.9,9.44-5.99,11.18h-2c.31-1.31-.9-2.28-2-2,4.24-5.83,10.2-13.87,2-18-.33-.5.19-2.77,0-4,8.04-1.88,4.39-12.29,0-18Z"/>
      <path class="cls-2" d="M117.31,30.21c-12.14-1.53-16-2.16-28-2v-4c6.33-4.46,25.07-2.49,28,6Z"/>
      <path class="cls-1" d="M27.31,116.21v2c-15.5-1.79-11.8-1.47-20-12,.71.86,18.91,9.77,20,10Z"/>
      <path class="cls-9" d="M41.31,114.21c.51.04,2.51,2.2,4,2-.18,1.11-.12,2.84,0,4l-4,2c-.12-.9.32-3.77.01-4-.97-.7-10.89.36-14.01,0v-2c4.47.95,9.6-2.36,14-2Z"/>
      <path class="cls-6" d="M201.31,48.21c7.38-.71,3.11,2.5,2,6-1.82.14-4.34-.2-6,0-.75-3.65,2.46-4.69,4-6Z"/>
      <path class="cls-6" d="M207.31,36.21c-.88,2.54-.42,5.1-4,6,.08-.48-5.36-5.21,4-6Z"/>
      <path class="cls-2" d="M7.31,106.21c-.85-1.09-1.59,2.84-4-4,.97-.18,1.88-1.06,2-2,2.58,1.11,1.54,5.44,2,6Z"/>
      <path class="cls-5" d="M203.31,58.21c-2.3-.53-2.18-2.13-2-4h2c-.32,1.02.22,2.75,0,4Z"/>
      <path class="cls-7" d="M117.31,30.21c.24.74.1,2.93,0,4l-5.99,2.02,1.99,1.98c-6.85,2.37-13.58-1.36-18.17,4.87s1.14,10.24.05,13.9-8.27,2.49-9.63,6.47c-.68,1.98-.81,13.36,0,14.49,1.45,2.04,10.39.07,10.83,6.15.2,2.78-2.76,4.33-2.86,7.02s1.95,5.93,1.78,9.09c-7.63-.45-6.08,2.38-10,8-9.24.59-3.85-.54-10.94-2.22-3.92.05-16.92,7.81-13.05,12.21,2.28,2.58,8.67-6.79,11.29-7.69,7.62-2.61,3.57,4.45,4.7,5.7,4.1,4.53,3.73-3.78,3.99-4,4.75-3.61,13.4-3.08,14-12,3.19.19,17.23,1.44,18.79,1.86,2.33.62.39,6.46,4.44,7.91,1.85.66,16.1.75,16.69.15.7-.72-1.11-8.02,3.1-9.9,5.56-2.48,4.05,4.71,7.96,4.07,27.5-13.82-9.52-21.69,21.03-26.09,4.39,5.71,8.04,16.12,0,18-5.17,1.21-6.43-1.97-8.03,6.98l8.03-2.98c8.21,4.14,2.23,12.18-2,18-3.98,1.02-6.35,4.53-12,4-3.15-.29-18.24-7.33-19.96-6.01.14,16.06-26.61,10.14-36.88,12.17-9.11,1.35-17.95,6.25-28.15,6.01-22.87.35-31.79-20.07-12.86-33.43-.03-1.76-1.96-2.29-2.15-2.74-1.97-4.61-1.96-4.53-7.02-7.96l3.02,9.96c-4,3.91-5.36,9.31-8,14-4.4-.36-9.53,2.95-14,2-1.09-.23-19.29-9.14-20-10-.46-.56.58-4.89-2-6,.82-6.37-.34-9.86,4-16,3.81.08,6.57-.18,9.98-2-4.69,11.99.68,20.91,14.01,19.99.84-7.69-8.84-1.01-11.58-9.4-2.42-7.41.49-6.48,2.28-8.65,4.49-5.43-8.51-8.69-14.69.06-1.33-.03-2.67.09-3.99.01-1.19-8.07,2.4-20.18,8.62-25.37,9.92-8.28,5.12-.49,13.59-13.39,7.47-11.4,15.99-7.53,26.02-10.1,3.61-.92,3.01-4.97,9.57-6.25,18.77-2.08,35.44-1.26,54.2,1.1ZM87.29,50.22c-1.49-7.63,8.76-13.63,1-20,.36,4.96-10.8,20.67-1,20ZM63.31,44.19c-2.71-6.59-10.85-3.85-15.71-1.69l-.27,15.7c7.88,2.26,2.21-12.24,3.98-14h12.01ZM43.3,50.22c-10.94-.92-17.21,8.04-15.98,17.98,6.98,1.56,2.4-5.69,4.94-10.03,2.79-4.77,12.3-1.02,11.03-7.95ZM81.3,52.22c-5.31-5.72-7.67,15.46-5.97,17.99,3.72-.55,6.63-17.28,5.97-17.99ZM73.3,54.23c-5.04-.92-18.74,3.4-17.97,9.98,3.3-1.39,5.11-4.81,8.49-6.49s9.29.04,9.48-3.48ZM63.48,90.05l-4.19-21.85c-6.47,5.92-13.86,3.83-21.99,3.99l.03,10.01c2.97-2.81,14.46-10.36,17.86-7.92.8.58,6.29,17.83,6.27,18.82-.02.75-8.08,1.82-4.13,5.09,2.08,1.73,31.35-8.77,25.98-13.98-1.4-1.36-15.06,9.2-19.82,5.84ZM111.3,118.2c6-5.49-18.22-13.48-19.99,1.99,5.99,1.9,8.17-4.67,11.04-5.96s4.82,7.75,8.95,3.97Z"/>
      <path class="cls-4" d="M153.31,46.21c-.09,4.64-3.27,10.59-1.83,14.73,1.58,4.53,10.96,1.72,9.97,10.27-.63,5.4-11,4.06-11.71,14.34-.4,5.76,7.55,7.46-3.43,14.65-.23-5.95-10.23-4.16-13.72-2.12-2.92,1.71,2.07,10.56-8.34,9.35-4.67-.54-3.71-8.09-6.36-9.24-4.91-2.12-20.18,1.26-20.14-4.96.01-2.21,6.37-4.2,1.13-13.6-3.87-6.95-9.64-3.41-9.66-8.43-.03-7.29,4.6-6.12,8.13-9.96,7.9-8.57-.65-10.67-.04-13.99.74-4.02,14.68-.81,20.67-4.9,4.49-3.07.16-11.39,13.36-8.14l-.03,6.01-4,1.97c5.01-1.73,10.26,3.39,13.36,3.65,2.82.24,7.2-5.83,12.65-1.64-.01.67.01,1.33,0,2ZM115.31,60.21c-16.73,4.43-3.26,36.53,16.75,25.73,18.27-9.61,8.48-38.68-13.54-31.45-3.4,1.12-2.73,5.28-3.21,5.71Z"/>
      <path class="cls-2" d="M117.31,34.21c-.58,6.16-.6,2.82-4,4l-1.99-1.98,5.99-2.02Z"/>
      <path class="cls-3" d="M191.31,48.21c-5.92-4.99-8.29,3.98-9.01,4.06-7.15.73-5.53-5.27-9.54-6.8-3.87-1.48-8.43,1.98-10.5-1.24-1.61-6.1,4.37-11.15-4.99-15.01-1.86-7.87,4.11-3.26,6.22-6.19,2.85-3.96-.93-10.18,1.79-11.87,1.89-1.18,6.19.56,9.7-.16,5.32-1.08,3.57-6.05,9.23-4.82.88.19,7.21,12.07,15.08,6.04-4.21,6.8,6.49,17.12,6.02,18.97s-5.75,2.98-6.98,5.06c-3.5,5.92,2.92,8.1-7.03,11.97ZM173.31,36.21c12.15,12.08,26.77-4.49,16.93-15.93s-30.18,2.75-16.93,15.93Z"/>
      <path class="cls-5" d="M191.31,48.21c1.53,1.29,1.94,4.69,6,4v2c-6.5,1.9-6.32,8.44-16,6,.45-.88-.46-3.34,0-4,.12-.18,2.71.54,4.12-1.33,3.37-4.46-1.46-3.81,5.88-6.67Z"/>
      <path class="cls-2" d="M206.91,60.5c.91.59,1.14,3.61,2.36,4.74,3.27,3.05,7.64,2.24,6.09,7.96-.3,1.09-4.43.2-4.26,3.96.19,4.31,3.91,7.49,3.91,8.07.02,3.19-7.32,4.27-9.02,5.64-5.36,4.3-2.67,12.05-11.69,1.35-4.05-1.69-2.01,6.07-5.94,3.97s-2.88-9.29-4.91-12.61c-1.38-2.27-8.5-3.37-5.95-7.22.16-.24,3.26.38,3.78-1.53.7-2.54-.66-6.11.94-8.71s22.2-7.22,24.7-5.61ZM191.31,74.21c-.28,10.8-1.01,13.52,11.9,13.94,5.43-13.97,1.57-21.23-13.89-19.93-.77,2.39,1.84,4.71,1.99,5.99Z"/>
      <path class="cls-10" d="M153.31,124.21c1.78.92,4.15,4.76,4.12,6.88-.01.78-10.71,10.37-11.38,10.78-9.01,4.85-23.12,9.65-32.74,4.34-4.01-6.14-2.81-3.17-6-6-2.97-13.97,6.57-3.95,19.41-11.58,4.49-2.49,6.91-8.34,7.95-8.55,1.1-.23,17.48,3.54,18.64,4.14Z"/>
      <path class="cls-10" d="M123.31,168.21c-13.24,4.99-9.63-7.08-15.09-13.91-4.66-5.82-23.02-14.92-18.63-21.83,14.46-5.38,8.36-2.18,17.72,7.74,1.09,6.45,2.11,4.28,6,6,1.13,1.73,1.7,3.37,4,4,4.48,5.09,4.29,12.24,6,18Z"/>
      <path class="cls-2" d="M167.31,96.21c.19,1.23-.33,3.5,0,4l-8.03,2.98c1.6-8.96,2.86-5.77,8.03-6.98Z"/>
      <path class="cls-1" d="M53.31,98.21c.19.45,2.12.98,2.15,2.74-5.28,3.11-9.16,9.02-10.15,15.26-1.49.2-3.49-1.96-4-2,3.33-5.85,4.74-13.72,12-16Z"/>
      <path class="cls-2" d="M63.48,90.05c4.76,3.36,18.41-7.2,19.82-5.84,5.37,5.21-23.9,15.71-25.98,13.98-3.94-3.28,4.11-4.34,4.13-5.09.02-.99-5.47-18.24-6.27-18.82-3.4-2.45-14.89,5.11-17.86,7.92l-.03-10.01c8.13-.16,15.52,1.93,21.99-3.99l4.19,21.85Z"/>
      <path class="cls-2" d="M9.31,84.21c6.18-8.75,19.18-5.49,14.69-.06-1.79,2.17-4.7,1.24-2.28,8.65,2.74,8.39,12.43,1.72,11.58,9.4-13.33.92-18.7-8-14.01-19.99-3.41,1.82-6.17,2.08-9.98,2Z"/>
      <path class="cls-2" d="M79.31,108.21l2,4c-.27.22.11,8.53-3.99,4-1.14-1.26,2.92-8.31-4.7-5.7-2.62.9-9.02,10.27-11.29,7.69-3.87-4.39,9.13-12.16,13.04-12.2,2.79-.03,4.05,2.01,4.94,2.21Z"/>
      <path class="cls-2" d="M63.31,44.19h-12.01c-1.77,1.77,3.9,16.27-3.98,14.01l.27-15.7c4.86-2.16,13.01-4.9,15.71,1.69Z"/>
      <path class="cls-10" d="M111.3,118.2c-4.13,3.78-6.13-5.24-8.95-3.97s-5.05,7.86-11.04,5.96c1.77-15.47,25.99-7.48,19.99-1.99Z"/>
      <path class="cls-2" d="M87.29,50.22c-9.79.67,1.36-15.04,1-20,7.76,6.38-2.5,12.37-1,20Z"/>
      <path class="cls-2" d="M81.3,52.22c.65.7-2.25,17.43-5.97,17.99-1.69-2.53.66-23.7,5.97-17.99Z"/>
      <path class="cls-2" d="M95.31,100.21c-.43,8.04-6.68,7.47-10,10v-2c3.92-5.62,2.37-8.45,10-8Z"/>
      <path class="cls-2" d="M43.3,50.22c1.26,6.93-8.24,3.18-11.03,7.95-2.54,4.34,2.04,11.59-4.94,10.03-1.23-9.94,5.04-18.9,15.98-17.98Z"/>
      <path class="cls-2" d="M49.31,100.21l-3.02-9.96c5.06,3.43,5.05,3.35,7.02,7.96-1.1.81-3.18,1.2-4,2Z"/>
      <path class="cls-1" d="M85.31,108.21v2c-1.11.85-3.01,1.18-4,2l-2-4c1.68.39,4.12-.27,6,0Z"/>
      <path class="cls-10" d="M73.3,54.23c-.2,3.53-6.1,1.79-9.48,3.48s-5.19,5.1-8.49,6.49c-.76-6.58,12.91-10.9,17.97-9.98Z"/>
      <path class="cls-9" d="M115.31,60.21c.47-.43-.19-4.6,3.21-5.71,22.02-7.23,31.81,21.83,13.54,31.45-20.02,10.8-33.47-21.31-16.75-25.73-12.68,31.24,28.86,30.14,20.96,4.03-3.11-6.86-16.15-9.63-20.96-4.03Z"/>
      <path class="cls-1" d="M173.31,36.21c7.7,3.5,21.52-4.01,14.18-13.17-8.71-10.87-22.08,9.58-14.18,13.17-13.26-13.18,7.49-26.88,16.93-15.93s-4.77,28.01-16.93,15.93Z"/>
      <path class="cls-1" d="M191.31,74.21c-.15-1.27-2.77-3.6-1.99-5.99,15.46-1.3,19.32,5.97,13.89,19.93-6.66-1.15-11.04.6-11.9-5.94l12.03-1.03c-.48-9.32-3.4-11.53-12.03-6.97Z"/>
      <path class="cls-6" d="M191.31,74.21c8.63-4.55,11.55-2.35,12.03,6.97l-12.03,1.03c-.34-2.56.31-5.42,0-8Z"/>
      <path class="cls-7" d="M115.31,60.21c4.8-5.61,17.85-2.84,20.96,4.03,7.9,26.12-33.64,27.2-20.96-4.03Z"/>
      <path class="cls-6" d="M173.31,36.21c-7.9-3.59,5.47-24.05,14.18-13.17,7.34,9.16-6.48,16.67-14.18,13.17Z"/>
    </g>
  </g>
</svg>