<?xml version="1.0" encoding="UTF-8"?>
<svg id="Calque_2" data-name="Calque 2" xmlns="http://www.w3.org/2000/svg" viewBox="0 0 74.2 183.1">
  <defs>
    <style>
      .cls-1 {
        fill: #91a9b3;
      }

      .cls-2 {
        fill: #537ea0;
      }

      .cls-3 {
        fill: #b7cfd7;
      }

      .cls-4 {
        fill: #3b5051;
      }

      .cls-5 {
        fill: #4a3d2c;
      }
    </style>
  </defs>
  <g id="Calque_1-2" data-name="Calque 1">
    <g>
      <path class="cls-5" d="M72.43,166.32h-4c-.29-6.57,1.52-37.33-2.28-39.71-19.74,1.15-38.31,3.76-57.7-2.3-1.7,12.67-7.14,41.65,6.13,48.87,11.12,6.05,44.21,5.06,53.86-4.86.13.9,1.12,1.7,2,2-6.65,16.42-41.73,13.89-56.48,9.48C-1.43,175.21-.37,148.57.35,135.24c.64-11.78,6.33-27.3,6.13-37.82-.31-16.87-9.36-26.76-.4-46.44,2.72-5.98,13.14-15.91,14.01-20.16,1.03-5-8.13-16.59-1.72-27.09,2.78-4.57,30.68-4.75,35.2-1.55,11.46,8.11-.07,24.2,1.12,28.71.79,2.99,9.77,11.62,12.14,16.02,12.2,22.61,1.36,32.65,1.45,52.41.1,22.71,9.8,39.75,4.14,67ZM52.16,18.06c1.66-2.67.62-10.26-3-11.46-2.79-.92-20.27-.89-23.71-.27-8.55,1.56-3.23,13.72-1.78,14.11,3.31.91,27.02-.01,28.5-2.38ZM8.43,74.32h58c3.38-17.11-8.18-25.46-15.13-37.87-2.68-4.79-1.13-9.61-5.76-10.26-2.64-.37-20.38-.64-21.1.13,2.52,20.3-23.73,27.05-16.01,48ZM26.43,80.32c-5.98.07-12.02-.07-18,.02l2,1.98c.78,12.52,5.07,24.15-2.01,35.97,17.18,7.04,37.78,4.28,55.92,1.95-.51-14.43-4.94-28.04,2.09-41.9-13.23,2.65-26.57,1.82-40,1.98Z"/>
      <path class="cls-4" d="M72.43,166.32c-.46,2.2-1.55,2.89-2,4-1.9-.55-2.23-2.31-2-4h4Z"/>
      <path class="cls-3" d="M68.43,168.32c-9.65,9.92-42.73,10.91-53.86,4.86-13.27-7.22-7.83-36.2-6.13-48.87,19.4,6.06,37.96,3.45,57.7,2.3,4.04,3.42,1.84,34.36,2.28,41.71Z"/>
      <path class="cls-2" d="M26.43,80.32c13.43-.16,26.77.67,40-1.98-7.03,13.86-2.6,27.47-2.09,41.9-18.14,2.33-38.73,5.09-55.92-1.95,7.08-11.81,2.79-23.45,2.01-35.97,5.01-.63,12.55,2,16-2Z"/>
      <path class="cls-3" d="M8.43,74.32C.69,53.43,26.96,46.57,24.43,26.32c.73-.77,18.46-.5,21.11-.13,4.62.64,3.08,5.46,5.76,10.26,6.95,12.41,18.51,20.77,15.13,37.87H8.43Z"/>
      <path class="cls-2" d="M52.16,18.06c-1.47,2.37-25.19,3.29-28.5,2.38-1.45-.4-6.77-12.56,1.78-14.11,3.43-.63,20.92-.65,23.71.27,3.62,1.2,4.66,8.79,3,11.46Z"/>
      <path class="cls-1" d="M26.43,80.32c-3.45,4-10.99,1.37-16,2l-2-1.98c5.98-.1,12.02.05,18-.02Z"/>
    </g>
  </g>
</svg>