<?xml version="1.0" encoding="UTF-8"?>
<svg id="Calque_2" data-name="Calque 2" xmlns="http://www.w3.org/2000/svg" viewBox="0 0 198.79 142.05">
  <defs>
    <style>
      .cls-1 {
        fill: #91a9b3;
      }

      .cls-2 {
        fill: #537ea0;
      }

      .cls-3 {
        fill: #b7cfd7;
      }

      .cls-4 {
        fill: #3b5051;
      }

      .cls-5 {
        fill: #4a3d2c;
      }
    </style>
  </defs>
  <g id="Calque_1-2" data-name="Calque 1">
    <g>
      <path class="cls-4" d="M47.87,94.12c-8.02,10.72-24.88,7.17-32.02-2.98,0,0-15.85-54.31-15.85-54.31C.44,12.54,18.28-5.76,43.31,1.68c6.36,1.89,17.07,12.49,19.53,12.48C82.05,2.48,106.68.29,127.87,9.12c3.76,1.53,9.74,7.34,12.87,7.14,23.19-30.11,65.21-9.94,57,28.74-.96,6.09-5.71,10.78-7.35,16.65-2.68,9.57-.92,28.22-9.42,34.58-4.23,3.67-30.71,7.61-29.11-2.11,29.2,7.3,31.25-4.6,32.43-30.57,2.93-13.57,13.38-21.26,8.21-39.09-8.22-28.36-50.12-17.77-48.79-3.37.98,10.59,14.5-3.73,24.27-2.12,23.79,3.91,10.29,30.64,6.75,43.02s-1.7,35.01-22.87,18.13c20.63,6.26,15.26-8.12,18.87-20.13,4.22-14.01,17.9-40.87-11.77-35.76-16.72,2.88-3.38,16.13-2.98,28.88.24,7.58-2.02,19.64-4.13,27.01-1.9,6.63-7.04,2.61,0,14-8.61-5.63-11.4,3.72-18.13,8.87-4.25,2.85-13.23,5.51-15.82,8.18-8.57,25.45-30.34,36.16-56.49,28.39-3-.91-17.62-7.74-18.68-9.39-4.1-6.36,6.17-11.17,7.05-13.63,1.87-5.23-3.78-6.85,6.07-6.42-1.2,4.3,6.28,7.46,10,8,7.3,1.07,10.47-9.3,10-9.96s-11.86-6.56-14.67-8.37c-8.56-5.52-2.57-5.7-13.34-5.67,2.09-2.79,3.8-6.39,3.12-10.07-1.11-6.05-3.66-3.16-7.12-3.93,3.33-5.74-.55-18.38.04-26.97.68-9.86,5.75-18.15,6.09-27.84-21.75-12.33-37.19,10.1-22.63,28.35,3.51,13.96-2.79,26.42,16.49,26.47-3.98,6.86-10.98,3.34-15.81-1.19C23.26,57.37,3.15,14.47,42.44,18.53c6.58,1.5,10.64,11.85,14.49,3.56,3.03-6.54-5.05-11.5-10.48-13.55C19.62-1.59,1.28,17.71,6.34,44.65c1.31,6.98,6.96,12.16,8.66,19.34,1.57,25.25,5.65,32.91,32.88,30.12ZM119.88,104.11c29.85-6.87,38.18-49.92,24.41-73.41C126.24-.06,73.45.16,55.45,30.7c-13.91,23.6-7.38,61.39,20.4,71.4-6.25-24.17,4.96-18.34,5.67-1.07.34,8.37-3.43,21.18-13.08,22.72-6.36,1.02-12.06-5.21-13.62-5.16-2.53.07-10.95,7.09-2.38,11.94,17.27,9.78,43.65,7.85,55.09-9.75,6.34-9.76,6.34-21.99,10.35-32.66l1.99,15.98Z"/>
      <path class="cls-3" d="M65.87,118.12c-3.72-.54-11.2-3.7-10-8,5.89.26,9.34,1.52,10,8Z"/>
      <path class="cls-1" d="M119.88,104.11l-1.99-15.98c-4.01,10.67-4.01,22.9-10.35,32.66-11.44,17.6-37.82,19.53-55.09,9.75-8.57-4.85-.15-11.87,2.38-11.94,1.55-.04,7.26,6.18,13.62,5.16,9.65-1.55,13.43-14.36,13.08-22.72-.71-17.27-11.92-23.1-5.67,1.07-27.79-10.01-34.31-47.8-20.4-71.4,18-30.54,70.79-30.76,88.83,0,13.78,23.48,5.45,66.54-24.41,73.41ZM75.86,58.12c-5.75-.38-8.9-1.23-9.34,5.32-.82,12.26,12.83,7.05,9.34-5.32ZM131.86,58.12c-9.92-1.4-10.88,3.21-9.98,11.99,9.92,1.4,10.88-3.21,9.98-11.99ZM105.85,90.14l-17.97-2.01c-7.03,5.34,17.85,5.86,17.97,2.01ZM101.86,102.15c-.8-.83-16.9-5.48-14,1.96.76-.87,20.02,4.32,14-1.96ZM95.86,114.15c-.45-.53-8.17-2.26-9.99-2.01,1.52,6.3,14.72,7.61,9.99,2.01Z"/>
      <path class="cls-1" d="M43.87,80.12c3.46.77,6.01-2.12,7.12,3.93.68,3.68-1.04,7.28-3.12,10.07-27.25,2.75-31.29-4.8-32.87-30.12-1.7-7.18-7.35-12.36-8.66-19.34C1.28,17.71,19.62-1.59,46.45,8.54c5.43,2.05,13.52,7.01,10.48,13.55-3.85,8.3-7.91-2.05-14.49-3.55C3.14,14.48,23.27,57.37,28.06,78.93c4.83,4.53,11.83,8.05,15.81,1.19Z"/>
      <path class="cls-1" d="M151.87,80.12c21.17,16.88,19.27-5.53,22.87-18.13s17.04-39.11-6.75-43.02c-9.77-1.61-23.29,12.71-24.27,2.12-1.33-14.41,40.57-25,48.79,3.37,5.17,17.83-5.28,25.53-8.21,39.1-1.18,25.92-3.25,37.88-32.44,30.56-7.04-11.39-1.9-7.37,0-14Z"/>
      <path class="cls-2" d="M43.87,80.12c-19.3-.06-12.98-12.49-16.5-26.47-14.49-18.64.61-40.47,22.64-28.35-.34,9.69-5.42,17.98-6.09,27.84-.59,8.59,3.29,21.23-.04,26.97Z"/>
      <path class="cls-2" d="M151.87,80.12c2.11-7.37,4.37-19.43,4.13-27.01-.4-12.75-13.74-26,2.98-28.88,29.67-5.11,15.98,21.75,11.77,35.76-3.61,12.01,1.76,26.39-18.87,20.13Z"/>
      <path class="cls-5" d="M131.86,58.12c.9,8.78-.06,13.39-9.98,11.99-.9-8.78.06-13.39,9.98-11.99Z"/>
      <path class="cls-4" d="M75.86,58.12c3.49,12.37-10.16,17.58-9.34,5.32.44-6.54,3.58-5.69,9.34-5.32Z"/>
      <path class="cls-4" d="M105.85,90.14c-.1,3.83-25.01,3.34-17.97-2.01l17.97,2.01Z"/>
      <path class="cls-4" d="M101.86,102.15c6.02,6.28-13.24,1.09-14,1.96-2.9-7.44,13.21-2.79,14-1.96Z"/>
      <path class="cls-4" d="M95.86,114.15c4.73,5.6-8.47,4.29-9.99-2.01,1.82-.25,9.54,1.48,9.99,2.01Z"/>
    </g>
  </g>
</svg>