<?xml version="1.0" encoding="UTF-8"?>
<svg id="Calque_2" data-name="Calque 2" xmlns="http://www.w3.org/2000/svg" viewBox="0 0 129.33 195.46">
  <defs>
    <style>
      .cls-1 {
        fill: #704834;
      }

      .cls-2 {
        fill: #8f625d;
      }

      .cls-3 {
        fill: #ddb762;
      }

      .cls-4 {
        fill: #537ea0;
      }

      .cls-5 {
        fill: #c5503d;
      }

      .cls-6 {
        fill: #f7f7f0;
      }

      .cls-7 {
        fill: #cfae8a;
      }

      .cls-8 {
        fill: #3b5051;
      }
    </style>
  </defs>
  <g id="Calque_1-2" data-name="Calque 1">
    <g>
      <path class="cls-8" d="M5.61,52c1.64-12.14,43.47-15.66,54-16V0c12.05.16,3.07,33.14,5.99,36.01,13.9.54,34.39,2.39,47.24,7.68,1.14.47,12.17,8.91,12.48,9.63,3.4,8.05-5.57,9.98-11.69,6.68l-.02,54c-.64-.04-1.37-.06-2,0l-.35-55.67c-7.92-3.9-16.78-5.91-25.65-6.34,1.94,23.36,1.88,46.7,1.99,70l-4-2c0-23.43.31-46.7-1.99-70.01h-18.01v39.01c0,6.23,15.56,9.93,16.01,12.04.37,1.73-10,14.55-6.02,20.96-5.09-3.08-18.53.51-20.77-.12-2.05-.58-8.41-20.4-7.18-21.81.41-.47,6.96-.22,9.47-2.57.35-.33,4.48-8.02,4.48-8.5v-39c-7.34-1.6-14.08,1.16-20,2-7.61-.42-14.51,3.27-22,4,36.1-14.95,63.73-17.59,100.99,2.03,5.88.88,2.06-6.88-.51-8.01-34.11-11.96-79.39-13-112.48,1.98-.24.21-.87,4.82-2,5.98.8.58,12.02-1.32,14-1.98-.34,1.24-1.96,3.05-2,4-1-.37-12.68,1.83-13.99,2-2.84-10.86,3.33-9.21,3.99-10ZM63.57,96.02h-3.92c-.64,5.82-4.45,8.22-10.04,8,6.16,4.81,1.01,18.22,9.49,13.26,1.47-.86-.37-7.19,8.49.72l6.02-15.99c-5.48.45-9.71.2-10.04-5.99Z"/>
      <path class="cls-2" d="M39.61,52l1.88,76.75c.39,1.41,18.93,5.63,10.88,11.46-3.96,2.87-10.56,2.58-10.25,12.45.36,11.52,10.68,10.58,11.41,11.45,6.33,7.51-13.09,11.42-24.01.98-12.95-12.38.73-24.02-1.91-27.07-6.1-3.96-17.67.68-20.83-.1s-2.74-9.98-3.18-13.92c-.3-2.72-2.22-5.25,0-8,3.69-2.61,6.96-3.93,10-8,3.91-.33,3.97,1.18,4,4-5.68-.36-5.07,7.77-12.01,6.02l4.02,13.97c6.28-.8,7.5-7.51,13-.03l3-3.95-3.98-1.99,5.98-4.02c.22,4.76-1.69,10.61,2.99,13.95,16.67-4.04,3.18-67.91,5.01-83.95,1.23-.22,2.73.18,4,0ZM47.6,136.03c-17.59-7.15-25.53,21.94-10.72,29.71,2.2,1.15,10.37,4.99,10.72.29-10.8-2.08-12.81-16.28-6.98-24.02,2.44-3.24,6.62-2.74,6.98-5.98Z"/>
      <path class="cls-1" d="M87.61,160c.51.19,8.63,5.63,9,6.03,1.16,1.26.62,3.44,1,3.97-11.93,6.17-4.24,15.14,6,12,1.04,20.79-36.42,16.64-31.65-6.53,1.73-8.38,10.47-8.81,11.65-15.47,1.24.2,3.12-.34,4,0ZM91.61,168.02c-5.29-6.11-21.53,6-12.94,17.92,4.84,6.7,9.8,5.66,16.93,4.05-.8-9.52-14.03-3.77-3.99-21.96Z"/>
      <path class="cls-1" d="M111.61,114c24.78-.96,23.39,34.78-3.05,29.97-4.14-.78-3.95-3.33-4.95-3.97,2.74,2.26,14.98,1.6,18.15-2.86,14.29-23.15-30.65-29.85-18.15,2.86-9.91.72-9.34-25.46,8-26Z"/>
      <path class="cls-1" d="M15.61,60c6.25,15.61-8.08,56.06,18.01,54.01l-6.01,9.99c-.9-2.99,3.11-3.35,1.99-5.98-18.59-4.19-7.72-10.53-15.99-10.02-2.19-3.59,1.63-40.31,0-48h2Z"/>
      <path class="cls-2" d="M87.61,122c.06,12.64-.04,25.36,0,38-.88-.34-2.76.2-4,0v-40l4,2Z"/>
      <path class="cls-6" d="M103.61,182c-10.24,3.14-17.93-5.83-6-12,2.5,3.46,5.78,7.58,6,12Z"/>
      <path class="cls-1" d="M3.61,124c-4.91-4.82-4.72-4.65,0-8-2.22,2.75-.3,5.28,0,8Z"/>
      <path class="cls-6" d="M35.61,52c-1.84,16.15,11.68,79.81-5.01,83.95-4.07-2.83-3.14-7.79-2.99-11.95l6.01-9.99c-26.09,2.04-11.76-38.39-18.01-54.01.04-.95,1.66-2.76,2-4,6.19-.76,11.84-2.89,18-4Z"/>
      <path class="cls-4" d="M5.61,52c33.12-14.98,78.35-13.93,112.48-1.97,2.58,1.12,6.39,8.88.51,8-37.33-19.63-64.83-16.97-100.99-2.03-1.98.66-13.2,2.55-14,1.98,1.13-1.16,1.76-5.77,2-5.98Z"/>
      <path class="cls-4" d="M63.57,96.02c.33,6.19,4.56,6.44,10.04,5.99l-6.02,15.99c-8.85-7.91-7.02-1.58-8.49-.72-8.48,4.97-3.33-8.45-9.49-13.26,5.59.21,9.39-2.19,10.04-8.01h3.92Z"/>
      <path class="cls-7" d="M47.6,136.03c-.36,3.24-4.55,2.74-6.98,5.98-5.83,7.74-3.82,21.95,6.98,24.02-.35,4.69-8.52.86-10.72-.29-14.81-7.77-6.88-36.86,10.72-29.71Z"/>
      <path class="cls-3" d="M17.61,112c6.54,7.81,16.81,3.27,10,10l-5.98,4.02,3.98,1.99-3,3.95c-5.49-7.48-6.71-.77-13,.03l-4.02-13.97c6.94,1.75,6.33-6.38,12.01-6.02Z"/>
      <path class="cls-3" d="M91.61,168.02c-10.04,18.21,3.2,12.44,3.99,21.96-7.14,1.61-12.09,2.66-16.93-4.05-8.6-11.91,7.65-24.02,12.94-17.92Z"/>
      <path class="cls-5" d="M103.61,140c-12.5-32.71,32.44-26,18.15-2.86-3.17,4.46-15.41,5.12-18.15,2.86Z"/>
    </g>
  </g>
</svg>