<?xml version="1.0" encoding="UTF-8"?>
<svg id="Calque_2" data-name="Calque 2" xmlns="http://www.w3.org/2000/svg" viewBox="0 0 142.22 192.01">
  <defs>
    <style>
      .cls-1 {
        fill: #91a9b3;
      }

      .cls-2 {
        fill: #8f625d;
      }

      .cls-3 {
        fill: #b7cfd7;
      }

      .cls-4 {
        fill: #c5503d;
      }

      .cls-5 {
        fill: #3b5051;
      }

      .cls-6 {
        fill: #4a3d2c;
      }
    </style>
  </defs>
  <g id="Calque_1-2" data-name="Calque 1">
    <g>
      <path class="cls-5" d="M87.94,16.37c.41-1.64,9.14-12.57-.7-11.76-6.04.5-9.79,10.64-13.26,14.78,3.82-1.48,11-1.78,13.96-3.02-.14.55.04,1.31,0,2-3.79,1.65-12.41,5.35-8,10-8.02-.23-9.89,3.77-13.02,8.01-5.78,1.6-.13-7.46-5.94-5.98-19.07,4.85-24.52,38.92-16.79,54.72,14.49,29.61,56.17,18.77,57.2-14.3.54-17.11-4.85-33.48-21.45-40.45,0-.65-.09-1.37,0-2,7.59.16,10.49,3.7,16,8,2.53,1.97,3.68,6.38,8.53,8.47,4.41,1.9,12.6,1.33,15.52,4.47,2.31,2.49,1.37,6.46,3.13,8.96,8.08,11.48,6.58,18.37,10.82,24.09-.2-.24-4.41-.47-5.98-2l2,12c4.03-.24,5-8.77,3.98-10,8.4-1.71,1.67,9.65,2.45,12.78.47,2.42,4.9,4.01,5.61,8.32.2,1.2.28,21.75.15,23.93-.26,4.29-4.11,7.24-3.87,9.63s3.67,5.1,3.64,8.38c-.05,6.01-8.71,7.82-9.56,9.36-2.38,4.3,2.84,10.41-5.69,15.37-9.28,3.53-7.21-.3-10.66,9.21-6.79,8.82-9.52,2.58-14.86,3.46-3.02.5-5.18,6.35-8.66,7.28-4.24,1.12-8.7-2.19-13.38-1.75-3.55.34-6.76,3.96-9.86,3.64-3.26-.33-5.94-4.65-8.6-5.08-2.95-.48-7.13,2.13-11.57,1.48-1.02-.15-17.55-6.4-19.05-7.11-6.2-2.92-5.27-9.87-6.19-10.89-10.18,3.92-13.07-3.37-14.33-14.67-1.23-3.2-5.37-2.64-6.71-7.15-1.53-5.15-2.97-11.84,3.13-13.2-10.06-6.43-4.32-12.51-4.17-20.22.28-14.15,2.29-11.8,3.62-20.06.78-3.51-5.81-14.37,2.55-12.73-1.02,1.23-.06,9.76,3.98,10l2-12c-1.57,1.53-5.78,1.76-5.98,2,1.83-1.87,1.53-13.53,3.45-17.55,1.73-3.64,5.87-4.19,7.42-6.58,3.89-16.28,6.15-9.66,19.16-12.84,3.8-1.8,13.49-20.25,23.95-19.06-1.34-3.67-7.27-3.41-11-5.97-20.47-18.2,5.99-26.6,16.13-6.13,5.87,5.9,4.53-.99,7.13-4.57,15.78-21.75,32.38-1.13,13.75,6.69ZM61.23,13.08c-19.12-19.93-16.32,9.27,4.71,7.27.35-.26-3.8-6.32-4.71-7.27ZM31.94,50.39h-5.99s0,3.97,0,3.97c2.76.62,5.32-1.08,5.99-3.97ZM113.94,58.37c-7.42-.71-5.21-5.41-9.98-7.99,18.82,74.01-82.77,75.85-66.04,1.99C13.61,69.96,7.91,118.74,15.87,145.44c14.79,43.22,99.15,43.02,111.16-.99,9.85-36.08-5.89-55.18-13.09-86.09,9.52.91,1.09-10.94-1.99-7.99-.74.71,1.56,6.13,1.99,7.99ZM25.92,60.36v-3.98h-1.96v3.98h1.96ZM19.93,64.38h-3.98s0,7.99,0,7.99c3.98-1.07,4.49-4.26,3.97-7.99ZM125.93,64.38h-5.99s5.01,7.98,5.01,7.98l.98-7.98ZM5.96,112.37l3.96-14c-7.2,3.16-6.23,7.61-3.96,14ZM135.91,100.38c-5.68-5.19-3.54,10-1.95,11.99,5.75-.72,3.28-10.77,1.95-11.99ZM7.92,130.37c.2-3.73.59-8.8-3.96-10-.2,3.73-.59,8.8,3.96,10ZM135.91,132.35c1.32-4.75,4.18-9.85-1.95-11.98v11.99s1.95,0,1.95,0ZM9.92,138.37c-8.83-2.12-1.55,16.54,2.01,11.99l-2.01-11.99ZM135.93,140.38c-4.62-3.1-7.03,8.85-5.98,9.98,3.01,3.21,8.06-6.23,5.98-9.98ZM21.93,166.36c1.14-1.12-5.71-11.45-7.97-11.98-2.77,3.38,4.68,15.2,7.97,11.98ZM119.95,168.36c7.01.12,8.4-8.65,7.97-13.98l-7.97,13.98ZM37.93,174.4c-.31-.42-8.19-2.84-9.95-3.05,2.18,8.94,13.9,8.38,9.95,3.05ZM113.93,172.38c-12.58-.84-14.55,12.02-3.98,7.01,1.85-.88,5.43-5.6,3.98-7.01ZM57.93,180.38l-11.98.98c2.83,3.84,7.72,3.15,11.98,3v-3.98ZM95.94,180.39h-11.99c.24,8.77,8.89,7.29,11.99,0ZM75.94,182.39l-11.99.97c3.3,4.42,10.03,4.52,11.99-.97Z"/>
      <path class="cls-3" d="M113.94,58.37c7.2,30.91,22.94,50.01,13.09,86.09-12.01,44-96.37,44.2-111.16.99-7.96-26.71-2.25-75.46,22.05-93.07-16.73,73.86,84.86,72.02,66.04-1.99,4.76,2.58,2.56,7.28,9.98,7.99ZM50.23,122.66c-6.21,9.96,9.5,33.78,19.67,36.93,13.34,4.14,37.79-33.91,20.61-38.9-10.51-3.05-14.32,6.88-17.85,7.52-6.86-.01-5.75-13.41-22.43-5.55Z"/>
      <path class="cls-2" d="M79.94,28.37c.36,2.96-.9,1.78-1.42,4.6.19,2.43,6.4,17.47.42,17.36-3-.06-3.73-16.56-7-19.96,2.51-1.49,5.08-2.06,8-2Z"/>
      <path class="cls-1" d="M113.93,172.38c1.45,1.41-2.13,6.13-3.98,7.01-10.57,5.01-8.6-7.85,3.98-7.01Z"/>
      <path class="cls-1" d="M5.96,112.37c-2.27-6.38-3.24-10.83,3.96-14l-3.96,14Z"/>
      <path class="cls-3" d="M95.94,180.39c-3.1,7.29-11.75,8.77-11.99,0h11.99Z"/>
      <path class="cls-1" d="M7.94,82.37c.2-.24,4.41-.47,5.98-2l-2,12c-4.03-.24-5-8.77-3.98-10Z"/>
      <path class="cls-1" d="M119.95,168.36l7.97-13.98c.44,5.33-.96,14.1-7.97,13.98Z"/>
      <path class="cls-1" d="M9.92,138.37l2.01,11.99c-3.56,4.55-10.84-14.11-2.01-11.99Z"/>
      <path class="cls-1" d="M135.91,100.38c1.33,1.22,3.8,11.27-1.95,11.99-1.59-1.99-3.73-17.18,1.95-11.99Z"/>
      <path class="cls-3" d="M135.93,140.38c2.09,3.75-2.97,13.19-5.98,9.98-1.05-1.13,1.36-13.08,5.98-9.98Z"/>
      <path class="cls-3" d="M133.94,82.37c1.02,1.23.05,9.76-3.98,10l-2-12c1.57,1.53,5.78,1.76,5.98,2Z"/>
      <path class="cls-1" d="M21.93,166.36c-3.29,3.22-10.74-8.6-7.97-11.98,2.26.53,9.11,10.86,7.97,11.98Z"/>
      <path class="cls-3" d="M57.93,180.38v3.98c-4.26.16-9.15.84-11.98-3l11.98-.98Z"/>
      <path class="cls-3" d="M75.94,182.39c-1.96,5.49-8.69,5.39-11.99.97l11.99-.97Z"/>
      <path class="cls-3" d="M37.93,174.4c3.94,5.33-7.77,5.89-9.95-3.05,1.77.21,9.64,2.63,9.95,3.05Z"/>
      <path class="cls-1" d="M135.91,132.35h-1.95s0-11.98,0-11.98c6.14,2.13,3.27,7.24,1.95,11.98Z"/>
      <path class="cls-1" d="M113.94,58.37c-.43-1.86-2.73-7.28-1.99-7.99,3.08-2.96,11.51,8.9,1.99,7.99Z"/>
      <polygon class="cls-3" points="125.93 64.38 124.95 72.36 119.94 64.39 125.93 64.38"/>
      <path class="cls-3" d="M7.92,130.37c-4.55-1.2-4.16-6.27-3.96-10,4.55,1.2,4.16,6.27,3.96,10Z"/>
      <path class="cls-3" d="M19.93,64.38c.52,3.73,0,6.92-3.97,7.99v-7.99s3.97,0,3.97,0Z"/>
      <path class="cls-3" d="M31.94,50.39c-.67,2.89-3.23,4.59-5.99,3.97v-3.98s5.99,0,5.99,0Z"/>
      <rect class="cls-3" x="23.96" y="56.38" width="1.96" height="3.98"/>
      <path class="cls-6" d="M50.23,122.66c16.7-7.85,15.51,5.5,22.43,5.55,3.53-.63,7.34-10.56,17.85-7.52,17.18,4.98-7.27,43.04-20.61,38.9-10.17-3.16-25.88-26.98-19.67-36.93ZM54.1,126.54c-4.37,7.28,11.46,29.17,18.84,29.16,8.28,0,26.96-27.91,15.78-31.23-6.91-2.05-13.15,9.25-16.05,9.77s-14.44-14.6-18.58-7.7Z"/>
      <path class="cls-2" d="M65.93,38.38c-1.86,3.35.38,13.51-5.98,11.98v-12s5.98.02,5.98.02Z"/>
      <path class="cls-4" d="M54.1,126.54c4.14-6.9,15.78,8.2,18.58,7.7s9.14-11.82,16.05-9.77c11.18,3.32-7.5,31.22-15.78,31.23-7.38,0-23.21-21.88-18.84-29.16Z"/>
    </g>
  </g>
</svg>