<?xml version="1.0" encoding="UTF-8"?>
<svg id="Calque_2" data-name="Calque 2" xmlns="http://www.w3.org/2000/svg" viewBox="0 0 97.6 133.3">
  <defs>
    <style>
      .cls-1 {
        fill: #91a9b3;
      }

      .cls-2 {
        fill: #704834;
      }

      .cls-3 {
        fill: #8f625d;
      }

      .cls-4 {
        fill: #ddb762;
      }

      .cls-5 {
        fill: #e8b93e;
      }

      .cls-6 {
        fill: #f7f7f0;
      }

      .cls-7 {
        fill: #4a3d2c;
      }
    </style>
  </defs>
  <g id="Calque_1-2" data-name="Calque 1">
    <g>
      <path class="cls-7" d="M15.43,47.31c1.44-29.15,23.03-61.32,53.86-40.86,21.29,14.12,11.78,31.99,18.18,49.33,1.54,4.19,8.73,2.73,10.02,18.44.65,7.92-1.92,45.47-4.5,51.65-2.03,4.85-7.14,4.97-11.57,5.44v-4c1.94-.15,3.95.43,5.86-.11,2.4-20.98,4.5-42.44,3.94-63.7-20.19-5.47-50.07-8.22-70.64-8.04-3.42.11-9.4,1.84-10.79,5.22-2.93,19.3-3.56,39.49-3.51,58.76,18.57,5.07,38.03,7.69,57.13,7.86v4c-10.3,5.79-40.94-2.75-52.55-4.45-16.13-3.11-14.11-73.65,4.54-75.55,4.97-.91,11.6,2.47,11.98,2,3.92-4.89-3.22-18.53,10.02-30-2.29,3.85-7.06,30-1,30h33c.78-19.6-8.76-44.5-32-30,12.58-10.9,27.62-8.75,33.03,7.97,2.74,8.47-.19,30.67,12.89,21.06-4.91-23.46-8.98-56.61-41.89-43.99-15.6,5.98-17.51,17.94-21.47,32.63-.93,3.46,1.24,7.53-4.57,6.33Z"/>
      <path class="cls-1" d="M15.43,47.31c5.8,1.19,3.63-2.87,4.57-6.33,3.96-14.69,5.87-26.64,21.47-32.63,32.91-12.62,36.98,20.53,41.89,43.99-13.08,9.6-10.15-12.59-12.89-21.06-5.41-16.72-20.45-18.87-33.03-7.97-13.24,11.47-6.09,25.11-10.02,30-.38.47-7.02-2.91-11.98-2,.04-1.33-.07-2.67,0-4Z"/>
      <path class="cls-2" d="M81.43,127.31v4c-5.64.59-12.15-.21-18,0v-4c5.89-.06,12.2.46,18,0Z"/>
      <path class="cls-4" d="M57.43,127.31c-17.11-1.09-34.48-3.12-51.13-7.86-.06-19.27.58-39.46,3.51-58.76,1.39-3.38,7.37-5.11,10.79-5.22,20.61-.17,50.39,2.57,70.64,8.04.56,21.26-1.54,42.72-3.94,63.7-9.82.62-19.94,0-29.86.11ZM87.45,67.31c-11.73-1.38-67.07-10.01-73.55-3.53-3.19,3.19-5.49,48.32-1.48,53.55,3.8,4.96,24.68,3.92,31.01,3.97,1.45-6.13-4.02-2.98-6.98-5.94-6.21-7.02-1.14-27.9-.9-36.94,2.65-17.54,26.81-13.17,29.54.36,1.6,7.93-3.58,12.78-3.77,19.58s3.29,14.61.12,22.93c12.42-1.82,22.55,6.46,24-8.97s-1.38-30.22,2.01-45.02ZM59.44,113.31c1.81-5.72-3.84-10.86-4.06-15.17-.28-5.59,6.65-9.23,3.62-19.4-3.72-12.49-19.65-6.97-21.28,4.04-.7,4.74,3.31,7.37,3.48,11.46.65,15.19-15.47,20.92,18.23,19.08Z"/>
      <path class="cls-6" d="M37.43,23.31c23.25-14.51,32.78,10.43,32,30h-33c-6.06,0-1.29-26.15,1-30Z"/>
      <path class="cls-2" d="M57.43,127.31h2c-.53-.01-.89.07-2,0Z"/>
      <path class="cls-5" d="M87.45,67.31c-3.39,14.81-.61,30.15-2.01,45.02s-11.58,7.15-24,8.97c3.17-8.33-.31-15.89-.12-22.93s5.37-11.65,3.77-19.58c-2.73-13.54-26.89-17.9-29.54-.36-.23,9.1-5.31,29.87.9,36.94,2.96,2.96,8.43-.19,6.98,5.94-6.33-.06-27.21.98-31.01-3.97-4.01-5.23-1.71-50.36,1.48-53.55,6.47-6.47,61.82,2.15,73.55,3.53Z"/>
      <path class="cls-7" d="M59.44,113.31c-33.7,1.84-17.58-3.88-18.23-19.08-.17-4.09-4.18-6.72-3.48-11.46,1.63-11.01,17.56-16.53,21.28-4.04,3.03,10.17-3.91,13.81-3.62,19.4.22,4.31,5.87,9.45,4.06,15.17ZM54.93,77.83c-4.5-4.39-11.03-2.87-12.7,3.45-1.21,4.6,2.79,7.12,3.21,11.21.51,4.99-2.75,9.75-2.01,14.81h10.01c1.07-4.18-1.81-9.15-1.43-12.74.51-4.85,8.77-11.03,2.92-16.73Z"/>
      <path class="cls-3" d="M54.93,77.83c5.85,5.7-2.4,11.88-2.92,16.73-.38,3.59,2.5,8.56,1.43,12.75h-10.01c-.73-5.07,2.52-9.83,2.01-14.82-.42-4.08-4.42-6.61-3.21-11.21,1.67-6.32,8.19-7.84,12.7-3.45Z"/>
    </g>
  </g>
</svg>