<?xml version="1.0" encoding="UTF-8"?>
<svg id="Calque_2" data-name="Calque 2" xmlns="http://www.w3.org/2000/svg" viewBox="0 0 191.31 166.05">
  <defs>
    <style>
      .cls-1 {
        fill: #8aa25d;
      }

      .cls-2 {
        fill: #91a9b3;
      }

      .cls-3 {
        fill: #704834;
      }

      .cls-4 {
        fill: #ddb762;
      }

      .cls-5 {
        fill: #537ea0;
      }

      .cls-6 {
        fill: #c5503d;
      }

      .cls-7 {
        fill: #cfae8a;
      }

      .cls-8 {
        fill: #3b5051;
      }

      .cls-9 {
        fill: #4a3d2c;
      }

      .cls-10 {
        fill: #a78a6a;
      }
    </style>
  </defs>
  <g id="Calque_1-2" data-name="Calque 1">
    <g>
      <g>
        <g>
          <path class="cls-6" d="M112.41,97.93c15.23-.24,28.96,4.06,44.01,3.99v56.01c-11.69,6.15-39.53-.59-52.96-2.05-5.49-1.04-6.48-3.8-7.15-8.86-.82-6.2-1.14-40.79.01-45.76.87-3.75,12.88-3.28,16.08-3.33ZM120.41,135.93l2.21-15.78,15.5-.5,2.12-11.54c-25.63-13.24-47.04,29.69-22.37,41.35,9.73,4.6,28.01,3.35,20.6-10.67-7.29.4-11.28.14-18.06-2.86Z"/>
          <path class="cls-6" d="M116.41,93.93c15.83-24.44,34.65-20.7,60.6-15.99,2.74.84,1.02,3.58,1.4,3.99-1.64.87-1.41,3.06-2,4-1.24.98-2.67,2.89-4,4-2.26.5-6.26,3.86-8,6-.41.39-3.34-.37-4,2l-44-4Z"/>
          <path class="cls-6" d="M180.41,85.93c4.44,14.88,6.09,39.86,3.02,54.02-.6,1.21-19.14,15.8-21.05,16.89-1.06.6-1.87-.95-1.97-.9v-58c3.55.2,5.54-4.22,8-6,2.39-.73,6.25-3.69,8-6,1.01-.33,2.75.22,4,0Z"/>
          <path class="cls-3" d="M164.41,95.93c-.97.54-1.86,2.49-4,2,.66-2.37,3.59-1.61,4-2Z"/>
          <path class="cls-3" d="M172.41,89.93c-1.52,1.04-3.43,1.56-4,2,1.48-1.1,3.69-1.72,4-2Z"/>
          <path class="cls-3" d="M160.41,97.93v58c-1.27.57-2.93,1.77-4,2v-56.01c-15.04.07-28.77-4.23-44-3.99,1.2-1.24,3.28-2.53,4-4l44,4Z"/>
          <path class="cls-3" d="M180.41,83.93v2c-1.25.22-2.99-.33-4,0,.59-.94.36-3.13,2-4,.36.38,1.86,1.99,2,2Z"/>
          <path class="cls-3" d="M164.41,95.93c.68-.64,1.27-1.42,2-2-.67.4-1.22,1.57-2,2Z"/>
          <path class="cls-3" d="M172.41,89.93c.69-.62,1.33-1.34,2-2-.68.45-1.23,1.47-2,2Z"/>
          <path class="cls-3" d="M166.41,93.93c.63-.38,1.23-1.43,2-2-.72.55-1.27,1.42-2,2Z"/>
          <path class="cls-3" d="M174.41,87.93c.72-.48,1.4-1.81,2-2-.47.75-1.35,1.36-2,2Z"/>
          <path class="cls-10" d="M184.41,107.93c-.06-6.5-3.28-17.44-4-24,.65.03,3.54-2.73,3.98-2.01l.02,26.01Z"/>
          <path class="cls-3" d="M120.41,135.93c6.78,3,10.77,3.26,18.06,2.86,7.41,14.03-10.88,15.27-20.6,10.67-24.67-11.67-3.26-54.6,22.37-41.35l-2.12,11.54-15.5.5-2.21,15.78c-7.63-12.83,1.97-21.89,16.01-20.01v-5.98c-26.01-6.72-34.35,37.8-9.04,38.07,5.48.06,14.72-4.5,6-6.01-4.24-.55-14.3.65-12.97-6.07Z"/>
          <path class="cls-4" d="M120.41,135.93c-1.32,6.72,8.73,5.51,12.97,6.07,8.73,1.51-.52,6.08-6,6.02-25.32-.28-16.97-44.8,9.03-38.07v5.98c-14.04-1.88-23.64,7.18-16.01,20.01Z"/>
        </g>
        <g>
          <path class="cls-9" d="M42.41,65.93c0,.67-.03,1.34,0,2-9.94,3.95-20.37,10.33-28,17.98,13.79.8,27.36,4.42,41.08,5.73,1.49.14,2.7-1.73,2.91-1.71,5.68.51,10.87,1.37,16,2-8.17,4-2.12,13.87-1.92,20.92.39,13.57.28,27.57-1.1,41.04l20.61-17.37c-.5-15.81,1.76-31.02,2.41-46.59,1.33.06,2.67,0,4,0,.66,3.12,4.69,2.43,6,0,52.56-26.95,5.94-26.75,83.75-13.74,1.29,44.37,15.5,63.02-29.18,89.31-7.31,2.1-59.26-2.21-65.25-5.89-5.24-3.22-3.08-8.19-3.34-13.68-8.63,5.36-16.06,15.19-26.99,16.1-9.19.76-37.31-2.8-47.76-4.33-12.95-1.89-14.23-3.58-15.31-16.69-1.42-17.29,2.21-34.46,2.49-51.67,1.7-5.85,31.09-25.07,39.59-23.41ZM116.41,93.93c-.72,1.47-2.8,2.76-4,4-3.2.05-15.21-.42-16.08,3.33-1.15,4.97-.83,39.57-.01,45.76.67,5.06,1.66,7.82,7.15,8.85,15.72,1.67,43.62,9.35,56.95.06.1-.05.92,1.5,1.97.9,1.91-1.09,20.45-15.67,21.05-16.89,3.18-14.06.08-42.74.96-58.03-.44-.72-3.33,2.04-3.98,2.01-.14,0-1.64-1.62-2-2-.38-.41,1.34-3.15-1.4-3.99-25.97-4.72-44.78-8.42-60.6,15.99ZM6.41,109.93c1.15,7-2.35,38.3,1.87,41.13,13.42,3.39,42.87,5.72,58.13,4.87v-60c-19.56-.75-40.73-6.23-59.99-6.01v20.01Z"/>
          <path class="cls-1" d="M10.41,89.93c17.72.5,37.93,5.29,56,6v60c-15.14.89-44.83-1.49-58.13-4.87-4.22-2.84-.72-34.13-1.87-41.13l4-20ZM26.41,139.93c3.39-1.88,6.57-7.23,10.87-5.96l8.34,13.8c2.04.46,7.92-2.77,8.45-5.02.5-2.11-8.26-34.52-10.04-37.44-2.62-4.33-7.08-4.44-10.65-7.34-4.33,5.89-20.55,44.3-16.97,47.95l12.01-.02c-.46-2.04-1.98-3.77-2-5.98Z"/>
          <path class="cls-1" d="M42.41,67.93c.18,4.3,3.63,11.87,2.25,17.75l13.75,4.25c-5,4.79-34.28-4.88-44-4.02,7.63-7.65,18.06-14.03,28-17.98Z"/>
          <path class="cls-7" d="M10.41,89.93l-4,20v-20.01c1.33-.01,2.67-.03,4,.01Z"/>
          <path class="cls-1" d="M94.41,93.93c-1.52,14.21-2.59,28.13-2.41,42.59l-20.61,17.37c1.39-13.47,1.49-27.47,1.1-41.04-.2-7.04-6.25-16.92,1.92-20.92,6.64.82,13.24,2.38,20,2Z"/>
          <path class="cls-9" d="M26.41,139.93c-.09-9.06,3.34-12.86,12.72-9.71,6.37,2.13,1.56,14.61,9.26,13.7,2.04-6.42-6.24-38.86-11.02-39.98-6.35-2.15-17.86,36.4-16.96,37.98,2.76.64,3.95-.86,5.99-1.99.02,2.21,1.54,3.94,2,5.98l-12.01.02c-3.58-3.66,12.65-42.07,16.97-47.95,3.58,2.9,8.03,3.01,10.65,7.34,1.77,2.93,10.53,35.33,10.04,37.44-.53,2.25-6.41,5.48-8.45,5.02l-8.34-13.8c-4.3-1.27-7.47,4.08-10.87,5.96Z"/>
          <path class="cls-7" d="M26.41,139.93c-2.04,1.13-3.23,2.63-5.99,1.99-.98-1.35,10.65-40.23,16.96-37.98,4.77,1.13,13.05,33.56,11.02,39.98-7.71.91-2.9-11.57-9.26-13.7-9.39-3.14-12.82.65-12.72,9.71ZM40.41,125.92c.36-5.11-.66-11.65-5.98-13.99l-4.02,13.98h10Z"/>
          <path class="cls-3" d="M40.41,125.92h-10s4.02-13.99,4.02-13.99c5.32,2.33,6.34,8.87,5.98,13.99Z"/>
        </g>
      </g>
      <g>
        <path class="cls-8" d="M142.41,67.93c-1.69.36-4.83-.52-6,0l1.99-55.99-21.02,13.97c-10.86.72,12.19-8.7,13.02-14.99-9.17-5.72-44.99-7.83-54.47-4.47-3.66,1.48-17.11,9.03-13.52,13.45l49.75,8.29c2.37,19.23-.62,38.32.25,57.74-1.28.57-2.23,1.45-4,2V29.92s-54-5.99-54-5.99c-7.16-.05-5.64,4.91-6,10-.51,7.16-.91,46.74,2.38,49.62,13.95,2.02,29.63,5.78,43.62,6.38-.09,1.32.14,2.69,0,4-16.37-.8-33.97-2.91-49.75-8.25,1.39-5.88-2.07-13.45-2.25-17.75-.18-7.99,1.85-42.18,4.21-46.79,1.62-2.59,26.58-19.37,29.7-20.3,9.01-2.68,61.25,1.24,65.12,9.06,0,0,.97,58.03.97,58.03Z"/>
        <path class="cls-5" d="M112.41,85.93c-.87-19.43,2.12-38.52-.25-57.74l-49.75-8.29c-3.59-4.42,9.86-11.97,13.51-13.45,9.44-3.37,45.31-1.26,54.48,4.46-.85,6.31-23.88,15.7-13.02,14.99l21.02-13.97-1.99,55.99c-4.67,2.06-12.47,12.87-24,18Z"/>
        <path class="cls-5" d="M54.41,23.93l54.01,5.99v58.01c-15.33,6.41-40.83-2.91-57.63-4.38-3.3-2.88-2.89-42.46-2.38-49.62,5.76,1.26,5.46-5.71,6-10ZM86.41,37.93c-.92-.96,1.11-4.88-4.96-6.01-4.81-.9-15.71-.95-18.06,4s-4,31.42-2.94,36.97c7.8,20.97,54.87,2.49,28.42-19.91-.02-.9,6.61-8.63,3.25-12.85-2.99-1.16-3.1,1.32-5.72-2.2Z"/>
        <path class="cls-5" d="M88.41,39.93c2.28,10.6-5.35,11.12-5.96,12.03-2.87,4.31,6.77,5.27,8.95,10,7.07,15.37-16.3,19.58-26.71,13.68l1.71-39.73,16,.03c-3.28,6.29-13.44-3.37-11.99,15.98,15.95,2.85,8.16-7.1,16-14l2,2ZM82.42,71.93c1.26-10.67-1.44-13.25-12.01-12.01v12.02s12.01-.01,12.01-.01Z"/>
        <path class="cls-8" d="M104.41,89.93c-1.31,2.43-5.34,3.12-6,0,1.9,0,4.31.3,6,0Z"/>
        <path class="cls-2" d="M54.41,23.93c-.54,4.29-.24,11.26-6,10,.36-5.09-1.16-10.05,6-10Z"/>
        <path class="cls-8" d="M86.41,37.93c-7.84,6.9-.05,16.85-16,14-1.45-19.37,8.71-9.68,11.99-15.98l-16-.03-1.71,39.73c10.4,5.9,33.78,1.69,26.71-13.68-2.18-4.73-11.82-5.69-8.95-10,.61-.92,8.25-1.43,5.96-12.03,10.09-1.9.9,12.13.47,13.04,26.44,22.4-20.64,40.89-28.43,19.91-1.07-5.55.68-32.2,2.94-36.97s13.25-4.89,18.06-4c6.07,1.13,4.04,5.05,4.96,6.01ZM78.4,43.94h-3.98v5.98h3.98v-5.98Z"/>
        <path class="cls-8" d="M88.41,39.93l-2-2c.59.62,1.4,1.5,2,2Z"/>
        <rect class="cls-5" x="74.42" y="43.94" width="3.98" height="5.98"/>
        <path class="cls-8" d="M82.42,71.93h-12.02s.01-12.01.01-12.01c10.57-1.25,13.27,1.34,12.01,12.01ZM78.4,69.92c.52-3.73,0-6.92-3.97-7.99v7.99s3.97,0,3.97,0Z"/>
        <path class="cls-5" d="M78.4,69.92h-3.98s0-7.99,0-7.99c3.98,1.07,4.49,4.26,3.97,7.99Z"/>
      </g>
    </g>
  </g>
</svg>