<?xml version="1.0" encoding="UTF-8"?>
<svg id="Calque_2" data-name="Calque 2" xmlns="http://www.w3.org/2000/svg" viewBox="0 0 129.78 138.81">
  <defs>
    <style>
      .cls-1 {
        fill: #e8b93e;
      }

      .cls-2 {
        fill: #cb844b;
      }
    </style>
  </defs>
  <g id="Calque_1-2" data-name="Calque 1">
    <g>
      <path class="cls-2" d="M37.72,91.01c-1.51-5-58.62-13.88-29.41-31.41,9.53-5.72,21.32-5.09,30.45-11.55C42.35,39.55,38.86-.29,48.61,0c12.76,1.64,21.76,28.23,31.03,31.21s38.99-16.15,45.21-7.33c8.1,11.51-18.25,31.46-17.14,43.01.69,7.22,30.57,37.92,19.71,44.82-8.23,5.23-40.38-10.44-50.3-7.36s-21.86,40.33-39.4,33.66v-47ZM59.01,16.71c-1.08-1.05-8.82-7.04-9.27-6.7l-6.51,43.52c-2.46,4.21-21.78,7.64-26.2,10.4-2.36,1.47-.89,3.22-1.4,4.65-.99,2.76-3.22-1.54-3.91-.58-4.96,6.91,26.4,11.64,29.02,15.98,4.47,7.43-2.57,35.95,2.99,46.03,12.41-3.11,22.16-32.86,31.41-35.62,10.8-3.22,31.36,11.58,44.55,7.61,3.87-3.7-17.48-27.6-18.15-34.97-1.29-14.22,13.91-21.22,14.15-35.01-11.44-3.51-29.04,10.93-38.63,7.74-2.06-.69-14.2-19.3-18.06-23.05Z"/>
      <path class="cls-1" d="M59.01,16.71c3.86,3.74,16,22.36,18.06,23.05,9.59,3.19,27.19-11.25,38.63-7.74-.24,13.78-15.44,20.78-14.15,35.01.67,7.37,22.02,31.27,18.15,34.97-13.2,3.97-33.75-10.83-44.55-7.61-9.25,2.75-19.01,32.5-31.41,35.62-5.55-10.08,1.48-38.6-2.99-46.03-2.61-4.34-33.98-9.07-29.02-15.98.69-.96,2.92,3.35,3.91.58.51-1.43-.96-3.18,1.4-4.65,4.42-2.76,23.74-6.18,26.2-10.4l6.51-43.52c.46-.34,8.19,5.65,9.27,6.7Z"/>
    </g>
  </g>
</svg>