<?xml version="1.0" encoding="UTF-8"?>
<svg id="Calque_2" data-name="Calque 2" xmlns="http://www.w3.org/2000/svg" viewBox="0 0 151.57 157.98">
  <defs>
    <style>
      .cls-1 {
        fill: #e8b93e;
      }

      .cls-2 {
        fill: #cb844b;
      }

      .cls-3 {
        fill: #f7f7f0;
      }

      .cls-4 {
        fill: #a78a6a;
      }
    </style>
  </defs>
  <g id="Calque_1-2" data-name="Calque 1">
    <g>
      <path class="cls-2" d="M56.06,8.08c6.39,5.62,17.02,13.76,22,20,2.1,2.63.51,8.53,8.83,8.03,9.24-.56,33.59-16.65,45.17-18.03,9.71,9.99-.59,18.42-2,28-1.69,3.15-6.5,13.62-7.63,17.49-2.94,14.38,27.89,30.83,29.08,43.8.47,5.13-1.93,10.82-7.84,10.3-17.02-1.48-33.22-5.95-50.25-7.35-28.29,45.06-40.87,81.55-48.34-4.26C40.6,98.66.02,97.53,0,83.08c-.01-10.01,34.06-15.21,39.02-27.05,4.53-10.81-1.97-35.49,1.02-46.64.57-2.12,3.92-1.14,4.03-1.32,3.76-2.9,7.92-1.35,12,0ZM60.61,23.51c-2.73-3.22-3.11-12.25-12.54-11.42-2.81,11.37,4.46,40.52-.39,48.62-4,6.67-35.33,16.99-33.61,24.34,3.97,5.79,33.91,9.45,35.63,11.41,1.1,1.25,5.32,28.12,6.13,32.86.67,3.93-1.58,18.45,5.21,16.77,5.43-1.35,20.68-39.57,29.07-43.06.96-.4,18.22.79,20.85,1.16,10.16,4.97,21.86,4.77,33.1,5.88-7.08-14.35-21.42-25.18-30.07-39.06,2.66-15.07,13.02-27.69,14.06-42.91-3.9-3.77-32.63,14.25-39.06,16.11-9.84-6.2-17.76-16.26-28.38-20.68Z"/>
      <path class="cls-3" d="M78.06,28.08c12.34,5.41,16.79-3.41,26.02-6.98,4.09-1.59,25.4-8.68,27.76-6.74.83,1.1-.1,3.25.22,3.72-11.58,1.37-35.94,17.46-45.17,18.03-8.32.51-6.73-5.39-8.83-8.03Z"/>
      <path class="cls-4" d="M44.06,8.08c1.49-2.52-3-8.74,3.01-8.02,3.32.4,6.33,5.68,8.99,8.02-4.08-1.35-8.24-2.9-12,0Z"/>
      <path class="cls-1" d="M60.61,23.51c10.63,4.42,18.54,14.48,28.38,20.68,6.43-1.85,35.16-19.88,39.06-16.11-1.04,15.22-11.4,27.84-14.06,42.91,8.65,13.88,22.98,24.71,30.07,39.06-11.25-1.11-22.93-.91-33.1-5.88-2.64-.36-19.89-1.56-20.85-1.16-8.39,3.49-23.64,41.71-29.07,43.06-6.79,1.68-4.54-12.83-5.21-16.77-.81-4.73-5.03-31.61-6.13-32.86-1.72-1.96-31.67-5.62-35.63-11.41-1.71-7.35,29.61-17.66,33.61-24.34,4.86-8.1-2.42-37.25.39-48.62,9.43-.83,9.8,8.2,12.54,11.42Z"/>
    </g>
  </g>
</svg>