<?xml version="1.0" encoding="UTF-8"?>
<svg id="Calque_2" data-name="Calque 2" xmlns="http://www.w3.org/2000/svg" viewBox="0 0 129.29 177.52">
  <defs>
    <style>
      .cls-1 {
        fill: #704834;
      }

      .cls-2 {
        fill: #537ea0;
      }

      .cls-3 {
        fill: #cfae8a;
      }

      .cls-4 {
        fill: #3b5051;
      }

      .cls-5 {
        fill: #4a3d2c;
      }

      .cls-6 {
        fill: #a78a6a;
      }
    </style>
  </defs>
  <g id="Calque_1-2" data-name="Calque 1">
    <g>
      <path class="cls-5" d="M90.1,42.88c7.54,13.69-9.19,29.71-7.66,40.54.48,2.28,8.86,16.36,10.83,19.29,9.2,13.67,52.38,52.77,29.33,70.21-28.32,21.43-43.44-37.99-50.14-53.4-1.74-4-12.63-25.16-14.7-26.37s-8.56,1.97-12.55,1.8c-4.94-.21-19.07-3.58-22.77-6.47-.9-.71-.11-3.46-.33-3.6v-2c33.64,16.81,65.36-2.61,66-40h2ZM79.92,85.08c-2.4-2.07-15.7.73-15.82,6.71-.09,4.59,6.84,12.39,8.98,17.11,6.28,13.91,17.99,52.91,29.88,60.11,8.46,5.13,20.34,1.54,21.07-9.23,1.27-18.71-25.55-39.31-35.18-54.65-3.12-4.97-8.09-19.34-8.92-20.06Z"/>
      <path class="cls-4" d="M90.1,42.88h-2l-1.95-2c-12.73,21.97-40.56,36.55-66.04,38.01l1.99,3.99v2c-6.69-4.29-12.69-3.24-17.69-11.31-6.44-10.39-2-12.94-2.31-20.69l.97-1.46c21.14,5.23,60.88-17.97,67.03-38.53.14-.5,1.59-1.24,2-2,17.97.55,18.18,18.41,18,32ZM55.43,40.22c-3.87,2.82-17.3,8.99-22.25,10.74-6.12,2.17-23.86,4.63-27.09,6.91-5.11,3.61.93,17.25,10.98,17.19,18.62,1.83,88.39-30.53,64.08-54.23-7.94-8.41-5.62-2.59-8.99,1.01-4.17,4.46-12.71,15.44-16.74,18.38Z"/>
      <path class="cls-1" d="M72.1,10.88c-.41.77-1.86,1.5-2,2C39.46-8.18,1.03,16.45,6.1,52.88c-.55,0-1.81-1.61-3.03-1.46l-.97,1.46C-11.78,16.63,46.64-18.34,72.1,10.88Z"/>
      <path class="cls-6" d="M79.92,85.08c.83.72,5.8,15.09,8.92,20.06,9.63,15.33,36.45,35.94,35.18,54.65-.73,10.77-12.6,14.36-21.07,9.23-11.89-7.2-23.6-46.2-29.88-60.11-2.13-4.73-9.07-12.52-8.98-17.11.12-5.98,13.42-8.78,15.82-6.71Z"/>
      <path class="cls-3" d="M88.1,42.88c-.64,37.39-32.36,56.81-66,40l-1.99-3.99c25.48-1.46,53.31-16.04,66.04-38.01l1.95,2Z"/>
      <path class="cls-3" d="M70.1,12.88c-5.86,20.99-42.92,39.71-64,40C1.03,16.45,39.46-8.18,70.1,12.88Z"/>
      <path class="cls-2" d="M55.43,40.22c4.02-2.94,12.57-13.92,16.74-18.38,3.36-3.6,1.05-9.42,8.98-1.01,24.29,23.7-45.37,56.04-64.08,54.23-10.05.06-16.09-13.58-10.99-17.19,3.23-2.28,20.97-4.74,27.09-6.91,4.95-1.76,18.39-7.92,22.25-10.74Z"/>
    </g>
  </g>
</svg>