<?xml version="1.0" encoding="UTF-8"?>
<svg id="Calque_2" data-name="Calque 2" xmlns="http://www.w3.org/2000/svg" viewBox="0 0 164.46 162.37">
  <defs>
    <style>
      .cls-1 {
        fill: #704834;
      }

      .cls-2 {
        fill: #ddb762;
      }

      .cls-3 {
        fill: #e8b93e;
      }

      .cls-4 {
        fill: #f7f7f0;
      }

      .cls-5 {
        fill: #4a3d2c;
      }
    </style>
  </defs>
  <g id="Calque_1-2" data-name="Calque 1">
    <g>
      <path class="cls-1" d="M.17,78.16c.77-6.6,17.46-11.15,24-14.03-3.23-9.72-12.82-17.41-11.99-27.96l28,2-2-30c3.27-3.36,23.25,16.59,29.97,13.99-.56-3.32,7.86-21.8,9.03-22.03,9.88-1.91,8.98,18.11,18.07,20.11,6.42,1.41,12.01-15.09,19.88-16.07,4.34.95,4.68,23.61,7.13,27.94l25.89-3.94c2.59,2.43-11.16,24.07-7.88,27.88,7.82,1.99,16.65,4.63,23.89,8.11-10.52,19.02-34.06,9.96-2,38,.18.9,3.25,3.05,2,5.99l-26.01,4.02,6.04,26.97c-.23,2.18-4.26.55-6.03,1.03-5.53-5.49-14.81-5.88-21.98-8.01l-6.02,28.01c-.34.02-.97,2.49-3.83,1.14-.87-.41-12.84-11.61-14.17-13.14-.99-1.13-1.4-6.69-5-7.96-3.11,3.89-6.14,7.9-9,11.96-6.32,8.99-8,17.58-14,0-1.43-4.2-1.4-14.75-5.19-15.92l-26.81,11.92c-7.19-6.11,9.16-32.9-2-30-.36-.37.24-2.88,0-4,15.48,2.29,4.77,14.52,6.01,25.99l22.78-7.72c3.98.96,10.14,17.21,11.24,21.72,4.33,3.93,10.29-14.97,15.26-15.77l22.69,15.76,4.21-23.78c8.06-1.58,15.37,1.05,22.75,3.79,6.96-1.31-3.96-18.75-.7-23.76,1.28-1.97,18.14-5.33,21.75-4.25,3.49-2.96-15.8-15.66-15.95-20.93-.17-6.05,11.56-13.99,15.92-18.06l-21.72-12.21,5.75-20.78c-23.84,5.44-24.02,2.9-26.01-20.01-7.29-1.5-12.17,7.79-17.42,9.56-11.37,3.84-9.7-8.36-15.54-15.54-7.65,1.64-9.23,17.37-12.34,18.11-8.53,2.02-16.54-7.21-24.67-8.12l-2.22,23.77-23.78.23,9.81,22.67c-1.58,5.35-19.02,7.99-17.75,14.14.93,4.54,12.54,5.31,13.93,11.18-7.48-4.35-16.21-8.14-24-12Z"/>
      <path class="cls-4" d="M24.17,90.16c.3.18-.3,1.79,0,2-3.21,2.36-4.45,7.85-6,10-2.46,3.42-7.08,6.69-10,10-4.22-10.83,1-15.58-.27-20.64-1.43-5.68-9.11-1.48-7.73-13.36,7.79,3.86,16.52,7.65,24,12Z"/>
      <path class="cls-4" d="M138.17,140.16c-5.25,1.42-14.71,1.85-17.2,3.81-5.16,4.08-1.78,15.14-2.79,16.21-.35.37-6.13-.12-8.01-.01l6.02-28.01c7.18,2.13,16.46,2.52,21.98,8.01Z"/>
      <path class="cls-4" d="M64.17,152.16c-7.94,1.13-8.87-9.92-14.98-7.97-.98.31-7.47,13.2-17.02,3.97l26.81-11.92c3.8,1.17,3.76,11.72,5.19,15.92Z"/>
      <path class="cls-5" d="M18.17,104.16v6l-4.01,1.02.03,2.97c5.27.12,10.72-.07,15.99.01.24,1.12-.36,3.63,0,4l-20.6-1.99c-2.38-.68-1.03-3.07-1.4-4.01,2.92-3.31,7.54-6.58,10-10v2Z"/>
      <path class="cls-4" d="M92.17,148.16l-14,4c2.85-4.06,5.89-8.08,9-11.96,3.6,1.27,4.01,6.83,5,7.96Z"/>
      <path class="cls-2" d="M24.17,90.16c-1.38-5.87-12.99-6.64-13.93-11.18-1.27-6.15,16.17-8.8,17.75-14.14l-9.81-22.67,23.78-.23,2.22-23.77c8.12.91,16.14,10.14,24.67,8.12,3.11-.74,4.69-16.46,12.34-18.11,5.84,7.18,4.17,19.38,15.54,15.54,5.25-1.77,10.13-11.06,17.42-9.56,1.99,22.92,2.18,25.45,26.01,20.01l-5.75,20.78,21.72,12.21c-4.36,4.07-16.09,12.01-15.92,18.06.15,5.26,19.43,17.96,15.95,20.93-3.61-1.07-20.47,2.29-21.75,4.25-3.26,5.01,7.67,22.44.7,23.76-7.38-2.73-14.68-5.36-22.75-3.79l-4.21,23.78-22.69-15.76c-4.98.8-10.94,19.7-15.26,15.77-1.1-4.51-7.26-20.76-11.24-21.72l-22.78,7.72c1.41-22.15,9.34-26.82-18.01-25.99v-10l9.99-11.01c.17-2.08-3.27-.48-3.99-.99-.3-.21.3-1.82,0-2ZM73.64,30.64c-17.87,3.04-36.84,22.84-39.3,40.7-11.24,81.55,111.46,77.33,99.35.3-4.28-27.22-33.43-45.54-60.05-41Z"/>
      <path class="cls-1" d="M24.17,92.16c.72.51,4.16-1.1,3.99.99l-9.99,11.01v-2c1.55-2.15,2.79-7.64,6-10Z"/>
      <path class="cls-1" d="M18.17,110.16v4c-1.29-.18-2.69.13-3.99-.01l-.03-2.97,4.01-1.02Z"/>
      <path class="cls-1" d="M26.17,114.16c-.66-.05-1.34.04-2,0h2Z"/>
      <path class="cls-1" d="M73.64,30.64c26.61-4.54,55.76,13.78,60.05,41,12.12,77.03-110.59,81.24-99.35-.3,2.46-17.86,21.43-37.65,39.3-40.7ZM77.73,34.63c-17.85,1.94-36.3,21.54-39.07,39.01-9.19,57.97,73.22,72.54,88.95,20.96,9.65-31.65-18.05-63.44-49.88-59.97Z"/>
      <path class="cls-3" d="M77.73,34.63c31.82-3.46,59.53,28.32,49.88,59.97-15.73,51.58-98.15,37.01-88.95-20.96,2.77-17.47,21.22-37.07,39.07-39.01Z"/>
    </g>
  </g>
</svg>