<?xml version="1.0" encoding="UTF-8"?>
<svg id="Calque_2" data-name="Calque 2" xmlns="http://www.w3.org/2000/svg" viewBox="0 0 180.96 158.56">
  <defs>
    <style>
      .cls-1 {
        fill: #8aa25d;
      }

      .cls-2 {
        fill: #704834;
      }

      .cls-3 {
        fill: #8f625d;
      }

      .cls-4 {
        fill: #ddb762;
      }

      .cls-5 {
        fill: #f7f7f0;
      }

      .cls-6 {
        fill: #cfae8a;
      }

      .cls-7 {
        fill: #4a3d2c;
      }
    </style>
  </defs>
  <g id="Calque_1-2" data-name="Calque 1">
    <g>
      <path class="cls-5" d="M100.26,83.79c-9.86,5.12-4.64,48.57-6.08,60.67,1.11,4.83,16.43,1.51,20.08,5.33-5.07,9.67-16.5.26-22.68.56-5.61.27-13.16,4.75-23.32,5.44,6.55-7.37,11.34-13.1,16-22,.62-1.19,4.04-.79,4.11-6.86l-6.25-41.83c.7-3.21,15.18-5.21,18.14-1.31Z"/>
      <g>
        <path class="cls-2" d="M114.26,149.79c-3.65-3.83-18.98-.51-20.08-5.33.45-19.17-1.28-38.43,2.53-57.31.71-3.34,5.11-3.63,7.55-5.35,9.42,7.33,43.88,6.14,56,6-4.66,16.62-.7,36.69-1.99,53.99,27.61-10.71,12.88-39.65,15.98-61.98-3.68.38-6.19,2.59-9.99,3.99,1.17-3.18,1.85-5.2,4-7.98-2.37-2.29-45.13-3.98-52-2.02-.6-4.06,2.56-4.42,4-6,60.21,2.91,62.54-10.72,60.1,57.11-.78,5.87-18.41,24.25-23.99,26-11.96,3.74-29-3.74-42.11-1.1ZM154.26,91.79l-53.79-1.78c-2.67,2.28-3.48,46-1.24,49.8,4.59,7.78,40.88,4.35,50.05,8.04,1.68.23,4.98-2.07,4.98-3.06v-53Z"/>
        <path class="cls-2" d="M164.26,83.79c-1.36,3.7,2.67,3.36-4,4-.28-4.65-.44-4.2,4-4Z"/>
        <path class="cls-4" d="M116.26,73.79c6.87-1.96,49.63-.27,52,2.02-2.15,2.78-2.83,4.8-4,7.98-4.45-.21-4.28-.64-4,4-12.11.14-46.54,1.34-56-6,4.04-2.54,8.82-4.09,12-8Z"/>
        <path class="cls-4" d="M164.26,83.79c3.8-1.4,6.31-3.61,9.99-3.99-3.1,22.33,11.63,51.27-15.98,61.98,1.28-17.3-2.67-37.37,1.99-53.99,6.67-.64,2.64-.3,4-4Z"/>
        <path class="cls-4" d="M120.26,107.79c-.26-7.23,16.04-13.1,15.99-2.01-.85.76-7.7-4.5-11.99,2.01-1.17.06-3.67-.27-4,0Z"/>
        <path class="cls-4" d="M154.26,91.79v53c0,1-3.3,3.29-4.98,3.06-9.17-3.69-45.46-.26-50.05-8.04-2.24-3.8-1.44-47.52,1.24-49.8l53.79,1.78ZM120.26,133.79c1.03.73-1.76,6.04,11.15,4.16,4.51-.66,2.52-3.96,2.85-4.16.81-.5,5.09.73,5.81-.14,1.06-1.26.39-7.51-1.69-9.02-3.91-2.82-11.52,2.27-16.12,1.15-1.58-5.77-1.37-12.89,2-18,4.98-.25,9.06,1.93,13.88,1.93,8.36-19.89-19.36-14.84-25.62-2.68-3.9,7.81-4.78,28.62,7.74,26.74Z"/>
        <path class="cls-4" d="M120.26,107.79c-6.62,9.54,1.67,26.37,15.98,18,.86,1.18-.8,7.52-1.98,8-.76.3-13.03.33-14,0-6.68-1.45-9.78-26.96,0-26Z"/>
        <path class="cls-2" d="M134.26,133.79c-.33.21,1.66,3.51-2.85,4.16-12.9,1.88-10.12-3.43-11.15-4.16.97.33,13.24.3,14,0Z"/>
        <path class="cls-2" d="M122.26,125.79c4.59,1.12,12.21-3.97,16.12-1.15,2.08,1.5,2.75,7.75,1.69,9.02-.72.86-5-.36-5.81.14,1.18-.47,2.84-6.82,1.98-8-5.56,2.6-8.71,3.38-13.98,0Z"/>
        <path class="cls-2" d="M124.26,107.79c-3.37,5.11-3.58,12.23-2,18-5.72-3.67-4.63-15.86-2-18,.33-.27,2.83.06,4,0Z"/>
        <path class="cls-2" d="M120.26,133.79c-12.52,1.88-11.65-18.93-7.74-26.74,6.26-12.16,33.98-17.21,25.62,2.68-4.82,0-8.89-2.18-13.88-1.93,4.29-6.51,11.14-1.25,11.99-2.01.05-11.1-16.24-5.22-15.99,2.01-9.79-.95-6.68,24.54,0,26Z"/>
      </g>
      <g>
        <path class="cls-3" d="M98.26,21.78l8,54.01c-18.12,1.19-35.7,9.22-54.13,5.14l-9.03-51.23,55.16-7.92ZM62.26,35.79c-2.95,7.42-1.73,31.88,3.03,38.04,1.77,2.29,21.51-1.86,23.06-2.96,3.04-2.15,1.76-7.86,1.92-11.09l-15.99,1.99c-2.68-11.56,9.88-.69,8.03-11.03-1.1-6.15-5.63-4.91-10.04-4.98,2.3-4.7,16.8-2.01,13.97-10.96-1.64-5.21-17.91-2.35-22.73-3.11-2.46.49-.85,3.07-1.26,4.09Z"/>
        <path class="cls-3" d="M116.25,5.8c-1.39,24.28,19.16,48.05-5.97,65.99.57-20.6-20.68-56.43,5.97-65.99Z"/>
        <path class="cls-3" d="M108.26,3.81c-8.78,22.38-40.22,15.27-60,19.96C60.36,4.59,88.18,6.36,108.26,3.81Z"/>
        <path class="cls-7" d="M62.26,35.79c.4-1.02-1.2-3.6,1.26-4.09,4.81.76,21.08-2.11,22.73,3.11,2.82,8.95-11.67,6.26-13.97,10.96,4.41.07,8.94-1.17,10.04,4.98,1.84,10.35-10.71-.52-8.03,11.03l15.99-1.99c-.15,3.23,1.12,8.93-1.92,11.09-1.55,1.1-21.29,5.24-23.06,2.96-4.76-6.16-5.98-30.63-3.03-38.04l4,34.01c.79.82,18.91-.99,20.01-2.03,6.41-6.07-15.33-3.28-16.01-3.99.14-2.63-.7-5.74.9-8.14,1-1.5,19.7-5.45-2.9-5.86-1.61-11.25,4.81-10.54,14.02-10l-.02-5.98-19.99,1.99Z"/>
        <path class="cls-6" d="M62.26,35.79l19.99-1.99.02,5.98c-9.21-.55-15.63-1.25-14.02,10,22.59.41,3.89,4.36,2.9,5.86-1.6,2.4-.76,5.51-.9,8.14.68.71,22.42-2.09,16.01,3.99-1.1,1.04-19.22,2.85-20.01,2.03l-4-34.01Z"/>
      </g>
      <g>
        <path class="cls-7" d="M120.26,67.79c-1.44,1.58-4.6,1.94-4,6-4.26,4.82-10.69,6.93-16,10-2.96-3.89-17.45-1.9-18.14,1.31l6.25,41.83c-.07,6.07-3.49,5.67-4.11,6.86l-6.99-49.99c-2.46,3.62-9.23,7.63-11.11,10.88-5.85,10.12,5.11,39.89,2.12,53.11,6.69-3.34,7.64-13.29,15.98-14-4.66,8.9-9.45,14.63-16,22-14.62-.14-53.97,7.23-63.97-1.51-2.86-6.26-5.58-50.47-3.62-57.08.75-2.51,17.26-18.7,20.1-19.9,7.4-3.12,15.95.16,23.21-3.78l-4.8-47.65c7.31-5.87,14.61-17.82,23.4-20.76,6.82-2.28,49.3-6.96,53.71-4.35,7.16,9.75,12.49,49.01,10.88,58.94-.76,1.89-5.12,6.1-6.91,8.08ZM108.26,3.81c-20.08,2.55-47.89.77-60,19.96,19.78-4.69,51.22,2.42,60-19.96ZM116.25,5.8c-26.65,9.55-5.4,45.41-5.97,65.99,25.13-17.94,4.58-41.71,5.97-65.99ZM98.26,21.78l-55.16,7.92,9.03,51.23c18.43,4.08,36.01-3.95,54.13-5.14l-8-54.01ZM47.99,80.09c-15.64-1.7-28.67.46-37.73,13.69,9.14,1.9,18.66-1.98,27.01-2.15,10.94-.23,23.54,7.74,30.99-5.81-8.87-1.21-19.4,7.86-20.26-5.73ZM64.27,151.8c-.1-8.09-1.64-52.09-5.88-55.15l-54.14,1.12,4.13,53.9c18.37,3.63,37.04-1.75,55.89.12Z"/>
        <path class="cls-1" d="M46.26,133.79c-12.44,13.54-7.27,5.51-21.99,10.01l-4.01-34c17.24-2.8,29.71,5.42,25.99,23.99ZM32.26,117.79c-1.11-.38-3.7-3.87-7.99-1.99,4.27,9.71-3.22,21.76,10.58,17.57,6.09-1.85,6.78-9.78,3.58-14.4-1.7-2.45-4.68-.68-6.16-1.18,5.84,3.08,6.19,15.69-3.99,13.99l-.02-12.98c-.22-1.66,3.44-1.31,4.01-1.01Z"/>
        <path class="cls-1" d="M64.27,151.8c-18.85-1.87-37.52,3.52-55.89-.12l-4.13-53.9,54.14-1.12c4.24,3.06,5.78,47.05,5.88,55.15ZM46.26,133.79c.41-.58,2.86-.72,3.61-3.3,5.83-19.93-15.97-26.93-31.62-24.71-.56,14.1,1.2,28.23,4.05,42.02,10.41-.78,17.45-6.72,23.96-14.01Z"/>
        <path class="cls-1" d="M84.26,133.79c-8.34.71-9.29,10.66-15.98,14,2.99-13.22-7.97-42.99-2.12-53.11,1.88-3.25,8.65-7.26,11.11-10.88l6.99,49.99Z"/>
        <path class="cls-1" d="M47.99,80.09c.86,13.59,11.39,4.52,20.26,5.73-7.45,13.55-20.05,5.58-30.99,5.81-8.35.17-17.87,4.05-27.01,2.15,9.07-13.23,22.09-15.39,37.73-13.69Z"/>
        <path class="cls-7" d="M42.26,137.79c.66-.47,1.42-1.36,2-2-.4.7-1.46,1.28-2,2Z"/>
        <path class="cls-7" d="M38.26,141.79c.42-.14,1.12-1.54,2-2-.7.59-1.29,1.55-2,2Z"/>
        <path class="cls-7" d="M40.26,139.79c.64-.54,1.51-1.35,2-2-.73.52-1.31,1.64-2,2Z"/>
        <path class="cls-7" d="M46.26,133.79c3.72-18.57-8.75-26.78-25.99-23.99l4.01,34c3.93-2.12,11.04-1.06,13.99-2.01-5.24,3.3-9.37,5.34-15.96,6.01-2.84-13.79-4.61-27.92-4.05-42.02,15.65-2.22,37.45,4.78,31.62,24.71-.76,2.58-3.2,2.72-3.61,3.3Z"/>
        <path class="cls-7" d="M44.26,135.79c.49-.86,1.94-1.68,2-2-.52.73-1.38,1.32-2,2Z"/>
        <path class="cls-7" d="M32.26,117.79c1.48.51,4.47-1.26,6.16,1.18,3.2,4.62,2.51,12.55-3.58,14.4-13.8,4.19-6.3-7.86-10.58-17.57,4.29-1.88,6.88,1.61,7.99,1.99-.57-.3-4.23-.65-4.01,1.01l.02,12.98c10.18,1.7,9.83-10.91,3.99-13.99Z"/>
      </g>
    </g>
  </g>
</svg>