<?xml version="1.0" encoding="UTF-8"?>
<svg id="Calque_2" data-name="Calque 2" xmlns="http://www.w3.org/2000/svg" viewBox="0 0 132.56 132.15">
  <defs>
    <style>
      .cls-1 {
        fill: #8aa25d;
      }

      .cls-2 {
        fill: #8f625d;
      }

      .cls-3 {
        fill: #ddb762;
      }

      .cls-4 {
        fill: #537ea0;
      }

      .cls-5 {
        fill: #c5503d;
      }

      .cls-6 {
        fill: #cfae8a;
      }

      .cls-7 {
        fill: #3b5051;
      }

      .cls-8 {
        fill: #4a3d2c;
      }
    </style>
  </defs>
  <g id="Calque_1-2" data-name="Calque 1">
    <g>
      <path class="cls-8" d="M107.3,14.21c69.33,54.32-19.01,159.86-85.21,100.21C-40.54,57.99,43.43-35.83,107.3,14.21ZM84.12,7.4c-6.32.2-12.54-3.18-18.94-2.06-9.18,1.61-4.37,9.97,3.74,7.97l15.21-5.91ZM52.13,17.38c.3-.48-.8-2.74.37-3.68.45-.36,10.63-.9,5.62-6.31-.96-.68-34.71,7.31-18.98,9.9,4.9-.19,8.42.07,12.99.09-3,4.79-5.2,7.56-4.01,14,5.82.65,16.05-.18,19.01-6,6.53-12.87-8.51-7.97-15-8ZM126.11,63.37c-1.04-17.52-13.79-46.95-33.11-49.86-6.42-.97-28.28.26-20.66,9.66,31.34,11.41,31.9,9.81,53.76,40.2ZM38.13,37.38c2.81-5.08,6.8-9.97,6-15.99C9.57,17.33-.38,63.91,10.16,89.36c5.53-2.81,3.33-12.58,4.88-18.08,4.05-14.44,9.25-27.35,23.1-33.9-14.07,25.42-17.88,24.23-22,56-.21,1.63-6.13,6.5,2,6,4.36,19.8,39.88,26.97,57.99,25.99,1.15-1-10.91-17.74-12.34-20.64-26.22-51.49,7.38-82.12-25.65-67.35ZM73.4,27.85c-1.66.19-14.5,7.31-15,8.8-2.88,8.59-1.38,26.21,0,35.45,2.02,13.55,12.43,52.59,30.4,48.52,16.36-3.7,37.03-29.21,35.32-46.07-4.3-21.32-29.22-44.48-50.71-46.71Z"/>
      <path class="cls-5" d="M73.4,27.85c21.49,2.25,46.42,25.38,50.71,46.71,1.71,16.86-18.96,42.36-35.32,46.07-17.96,4.07-28.38-34.98-30.4-48.52-1.38-9.25-2.88-26.86,0-35.45.5-1.49,13.34-8.61,15-8.8Z"/>
      <path class="cls-1" d="M38.13,37.38c33.02-14.78-.56,15.89,25.65,67.35,1.43,2.9,13.5,19.64,12.34,20.64-18.11.98-53.63-6.19-57.99-25.99-.43-1.95.87-4.87-2-6,4.12-31.77,7.93-30.58,22-56Z"/>
      <path class="cls-4" d="M38.13,37.38c-13.85,6.56-19.04,19.46-23.1,33.9-1.55,5.51.65,15.27-4.88,18.08C-.38,63.91,9.57,17.33,44.13,21.39c.8,6.02-3.19,10.91-6,15.99Z"/>
      <path class="cls-1" d="M126.11,63.37c-21.92-30.5-22.55-28.81-53.76-40.19-7.62-9.4,14.24-10.63,20.66-9.66,19.32,2.91,32.07,32.34,33.11,49.86Z"/>
      <path class="cls-3" d="M52.13,17.38c6.49.03,21.53-4.87,15,8-2.95,5.82-13.19,6.65-19.01,6-1.2-6.43,1-9.21,4.01-14Z"/>
      <path class="cls-2" d="M52.13,17.38c-2.84-.89-21.04,2.37-16-3.97.81-.8,21.21-6.86,21.98-6.02,5.01,5.41-5.17,5.95-5.62,6.31-1.17.94-.07,3.2-.37,3.68Z"/>
      <path class="cls-6" d="M84.12,7.4l-15.21,5.91c-8.1,2-12.91-6.35-3.74-7.97,6.41-1.13,12.62,2.26,18.94,2.06Z"/>
      <path class="cls-7" d="M18.13,99.38c-8.13.5-2.21-4.37-2-6,2.87,1.13,1.57,4.05,2,6Z"/>
    </g>
  </g>
</svg>