<?xml version="1.0" encoding="UTF-8"?>
<svg id="Calque_2" data-name="Calque 2" xmlns="http://www.w3.org/2000/svg" viewBox="0 0 244.76 133.54">
  <defs>
    <style>
      .cls-1 {
        fill: #8aa25d;
      }

      .cls-2 {
        fill: #704834;
      }

      .cls-3 {
        fill: #8f625d;
      }

      .cls-4 {
        fill: #ddb762;
      }

      .cls-5 {
        fill: #537ea0;
      }

      .cls-6 {
        fill: #b7cfd7;
      }

      .cls-7 {
        fill: #c5503d;
      }

      .cls-8 {
        fill: #3b5051;
      }

      .cls-9 {
        fill: #4a3d2c;
      }
    </style>
  </defs>
  <g id="Calque_1-2" data-name="Calque 1">
    <g>
      <path class="cls-8" d="M180.63,79.96c1.42.98,2.6,2.87,4,4-4.93-.05-11.84,3.57-14,8,6.45-4.95-3.41-22.23-7.91-27.09-10.81-11.68-31.77-19.52-47.2-15-7.81,2.29-40.22,20.23-32.65,29.85,4.78,6.07,9.61-5.77,14.77-9.75,19.03-14.67,49.07-13.74,62.67,7.31,1.65,2.56,5.99,18,10.32,14.68-.52,1.06.81,5.1-.09,5.84-1.87,1.55-17.03-3.38-11.63,12.88,2.05,6.19,12.22,1.58,15.44,3.57,1.62,1,.42,8.51,7.34,9.77,7.51,1.37,11.16-3.75,16.09-4.07,6.54-.44,8.97,6.43,18.03,2.22,4.76-2.21,5.45-7.03,8.13-7.91,13.78-4.53,11.73,6.34,16.7-14.3.21-.86,1.18-1.62,2-2,6.58,13.09-3,23.2-16.09,21.15-3.38,1.33-4.98,7.66-10.97,8.82-7.42,1.43-13.84-2.6-19.76-1.97-4.14.44-6.53,4.06-11.66,3.65-13.48-1.09-11.96-10.16-13.77-11.38-3.32-2.24-23.17,2-16.89-16.38,3.13-9.17,16.26-4.85,2.02-23.75-15.3-20.3-42.35-17.94-58.87-.13-20.13,21.7,11.46,16.61,6,40-2.55,3.09-6.53,3.92-8,8-15.58,1.58-18.83.25-33.41,5.58-16.37,5.99-16.5-3.18-26.05-5.19-3.94-.83-12.28,2.53-19.41,1.48-21.81-3.37-20.42-33.62.74-31.99.4-.42.16-7.79,1.63-11.38,2.67-6.52,11.11-12.43,18.5-10.5v2c-14.3,4.35-15.04,10.66-16.3,21.69-1.11,1.69-19.21,3.32-15.44,16.89,3.71,13.34,26.72,4.38,32.41,5.28,1.48.23,2.23,6.65,10.45,8.01,15.1,2.49,14.73-6.32,22.27-7.5,5.45-.86,11.33,3.91,17.14,3.21,18.23-2.19,13.27-26.84-4.55-23.6,10.74-12.3-2.81-22.54-16-19.98.37-1.22,1.98-3.05,2-4,11.15,1.35,13.52-11.11,20.14-16.86,20.29-17.58,48.81-17.93,70.52-2.81,10.44,7.27,11.13,16.65,21.33,23.67Z"/>
      <path class="cls-2" d="M36.63,73.96C51.68.67,144.78-27.03,194.63,31.96l-2,2C151.5-10.84,77.18-1.93,47.75,52.08c-2.95,5.41-12.36,21.7-1.74,21.46,7.86-.18,7.19-15.35,11.66-21.59C97.29-2.68,187.13,6.4,202.63,75.96h-2c-.39-3.02-16.38-33.23-18.59-35.41-37.06-27.73-86.65-31.78-117.07,8.76-4.83,6.32-19.24,27.46-7.37,30.65,24.42-51.62,83.43-70.19,122.7-22.66,5.7,8.34,7.59,23.92,18.33,26.67v2c-7.07,3.48-6.54-1.92-14-2-1.4-1.13-2.58-3.02-4-4,3.98-.21,7.51,2.01,5.18-4.17-12.74-36.16-73.5-61.34-99.05-26.75-11.04,9.75-17.87,12.14-18.13,26.92-.02.95-1.63,2.78-2,4-3.64.71-7.99,6.27-10.72,5.81-3.82-.65-6.95-11.2-19.28-9.81v-2Z"/>
      <path class="cls-9" d="M216.63,77.96c.19.6-.2,1.4,0,2-7.57-1.17-12.18,3.13-18,6-.54-3.11,2.16-7.29,2-10,1.29,0,8.56,0,10.01,0,4.26-4.51-13.32-36.9-18.01-42l2-2c16.82,19.9,14.54,22.83,22,46Z"/>
      <path class="cls-3" d="M242.63,97.96c-.82.38-1.79,1.14-2,2-3.26-6.97-17.22-5.39-17.92-6.09.31-12.38-6.05-8.75-6.08-15.91,8.96-1.95,7.96,8.21,12.08,10.92,4.76,3.13,9.69.26,13.92,9.08Z"/>
      <path class="cls-6" d="M36.63,75.96c12.33-1.39,15.45,9.16,19.28,9.81,2.74.46,7.08-5.1,10.72-5.81,13.19-2.56,26.74,7.68,16,19.98,17.82-3.24,22.78,21.41,4.55,23.6-5.81.7-11.7-4.07-17.14-3.21-7.54,1.18-7.17,9.99-22.27,7.5-8.22-1.36-8.97-7.78-10.45-8.01-5.69-.9-28.7,8.06-32.41-5.28-3.78-13.56,14.33-15.2,15.43-16.89,1.25-10.97,1.99-17.36,16.3-21.69Z"/>
      <path class="cls-6" d="M216.63,79.96c5.1,7.08,5.8,5.05,6.08,13.91.7.7,14.66-.88,17.92,6.09-4.97,20.64-2.92,9.77-16.7,14.3-2.68.88-3.36,5.7-8.13,7.91-9.06,4.21-11.49-2.66-18.03-2.22-4.93.33-8.58,5.44-16.09,4.07-6.92-1.26-5.73-8.77-7.34-9.77-3.21-2-13.38,2.62-15.44-3.57-5.4-16.26,9.76-11.33,11.63-12.88.9-.74-.42-4.78.09-5.84,2.16-4.43,9.07-8.05,14-8,7.46.08,6.93,5.48,14,2,5.82-2.87,10.43-7.17,18-6Z"/>
      <path class="cls-1" d="M68.63,75.96c.26-14.78,7.09-17.17,18.13-26.92,25.57-34.58,86.29-9.42,99.05,26.75,2.33,6.18-1.2,3.97-5.18,4.17-10.2-7.01-10.89-16.39-21.33-23.67-21.71-15.12-50.23-14.77-70.52,2.81-6.63,5.74-9,18.2-20.14,16.86Z"/>
      <path class="cls-5" d="M170.63,91.96c-4.33,3.32-8.67-12.12-10.32-14.68-13.6-21.05-43.64-21.98-62.67-7.31-5.16,3.97-9.99,15.82-14.77,9.75-7.57-9.62,24.83-27.56,32.65-29.85,15.43-4.52,36.39,3.32,47.2,15,4.5,4.86,14.36,22.14,7.91,27.09Z"/>
      <path class="cls-7" d="M192.63,33.96c4.68,5.1,22.27,37.49,18.01,42h-8.01C187.08,6.37,97.31-2.66,57.66,51.95c-4.46,6.24-3.79,21.41-11.66,21.59-10.62.24-1.21-16.05,1.74-21.46C77.18-1.93,151.5-10.84,192.63,33.96Z"/>
      <path class="cls-4" d="M198.63,83.96c-10.74-2.75-12.63-18.33-18.33-26.67-39.29-47.55-98.3-28.93-122.7,22.66-11.87-3.19,2.54-24.32,7.37-30.65,30.44-40.54,80-36.49,117.07-8.75,2.21,2.18,18.19,32.39,18.59,35.41.26,1.98-1.79,5.67-2,8Z"/>
    </g>
  </g>
</svg>