<?xml version="1.0" encoding="UTF-8"?>
<svg id="Calque_2" data-name="Calque 2" xmlns="http://www.w3.org/2000/svg" viewBox="0 0 234.93 182.85">
  <defs>
    <style>
      .cls-1 {
        fill: #91a9b3;
      }

      .cls-2 {
        fill: #704834;
      }

      .cls-3 {
        fill: #8f625d;
      }

      .cls-4 {
        fill: #ddb762;
      }

      .cls-5 {
        fill: #537ea0;
      }

      .cls-6 {
        fill: #f7f7f0;
      }

      .cls-7 {
        fill: #cfae8a;
      }

      .cls-8 {
        fill: #3b5051;
      }

      .cls-9 {
        fill: #4a3d2c;
      }

      .cls-10 {
        fill: #a78a6a;
      }
    </style>
  </defs>
  <g id="Calque_1-2" data-name="Calque 1">
    <g>
      <path class="cls-9" d="M107.5,24.28v4c-4.9-.27-9.49,2.02-10,2-3.29.5-5.15-1.86-10-2-2,.05-4-.05-6,0-19.3.53-16.83,7.12-25.39,9.61-6.63,1.92-18.21-.71-24.58,5.42-4.19,4.03-3.24,13.68-4.28,14.72-2.86,2.85-10.56-3.59-17.15,9.81-3.58,7.28-8.77,18.62,1.4,20.45-.7.96-1.11,3.01-2.02,4.51-.79,1.3-3.92,1.37-4.09,2.77-.2,1.65,3.67,14.62,4.72,16.12,7.22,10.28,26.71,8.8,37.38,6.6-3.5,26.39,28.08,24.65,46,20,.46.76,1.71,1.38,2,2,6.11,13.14,11.95,12.53,18.87,22.13,4.22,5.86,5.15,17.25,12.08,15.94,9.18-2.04,1.41-15.36,1.05-22.07,6.17.68,22.55-2.07,26-8,25.26-14.3,9.36-21.92-12-18l-2-2c5.36-8.61,6.59-6.43,15.47-2.46,5.91,1.54,14.07-.76,18.53,4.46-10.09,26.73-16.52,22.83-39.17,31.88-3.71,5.04,10.22,23.98-11.78,20.21-6.08-1.04-6.38-8.46-9.4-12.73-6.83-9.66-9.92-14.04-19.47-20.63-1.57-1.08-1.89-3.86-2.61-4.3-1.4-.86-22.71,2.74-32.69-.3-18.35-5.58-12.89-16.04-16.9-20.15-14.06,6.39-37.57-4.42-39.86-21.1-1.82-19.91-4.9-28.4,9.07-44.69,3.43-3.52,8.56-4.91,11.68-8.32,2.8-3.06,3.83-9.43,7.99-12.01,5.24-3.25,19.84-4.19,25.69-5.85,2.14-.61,2.36-4.37,4.6-5.78,5.9-3.73,37.8-3.07,46.86-2.22Z"/>
      <path class="cls-2" d="M215.5,58.28c14.66,2.13,7.33,9.5,7.97,9.99,1.89,1.44,9.51-3.33,11.25,7.95.77,4.98-.51,5.76-5.22,6.06-3.85-11.11,1.39-8.38-8.79-12.23-2.53-2.25-3.5-6.26-7.13-6.95-3.39-.64-3.6,3.09-4.08,3.17-3.52.23-11.31-.35-14-.01-.49.55.6,6.17-.28,8.75-.98,2.87-5.39,2.69-5.83,4.52-1.78,7.5,4.04,7.04,6.09,10.28,1.21,1.91.89,7.18,2.33,8.17,1.18.81,16.09,1.98,19.69,4.27l-2.01-5.96c3.32-1.14,11.23-1.54,13.19-3.93,1.63-1.99-3.92-7.84.83-8.09.11.3,3.72,1,4.05,4.99,1.12,13.49-11.29,7.99-12.07,9-1.61,2.1,4.77,9.73-9.16,10.14-6.35.18-4.22-3.53-6.23-4.05-32.25-1.19-3.72-12.74-20.59-16.07v31c0,4.36-10.91,9.93-12,11-.52-.7-1.2-1.71-2-2,4.83-6.25,16.7-16.47,6-24,9.13-13.49-2.83-15.75,2-24,1.68,2.1,2.95,5.39,5.98,6-3.02-8.11,3.14-9.55,3.89-11.48,1.15-2.94-1.03-7.59,2.92-10.72s8.15-.95,11.8-1.86c1.74-.43.46-5.52,11.41-3.93Z"/>
      <path class="cls-6" d="M219.5,38.28c-.83,7.3.75,12.8-4,20-10.94-1.59-9.67,3.5-11.41,3.93-3.65.91-8.02-1.14-11.8,1.86s-1.77,7.79-2.92,10.72c-.76,1.94-6.91,3.38-3.89,11.48-4.27-.99-5.4-7.86-9.98-8-.76-1.98,1.1-6.64-.96-10.02-4.62-4.77-12.07-2.36-11.04-11.99,3.82-2.44,2.29-2.8,4-6,3.53-.24,14.43,1.88,15.84,2.28.99.94-2.55,9.68,12.77,5.77,3.59-.92-2.4-3.57,10.52-4.28s2.91-15.01,12.87-15.77Z"/>
      <path class="cls-2" d="M167.5,42.28c-.05-9.3-2.02-4.65-6.11-9.4-1.69-6.75,1.8-15.65,10.11-12.62.7-.56-9.42-6.21,2.98-14.17,4.63-2.97,11.42,1.74,13,.17.65-.65-1.22-5.65,1.08-6.1,2.69-.53,11.71.37,13.77,1.93s.64,5.27,1.35,5.9c1.5,1.33,9.71-1.72,14.04,5.25,2.19,3.52-.03,5.45.53,7.64,2.79,5.52,5.47,10.12,1.25,15.4-.96-.2-1.85-1.07-2-2-3.06-14.66-7.34.9-6.02-22-11.84,7.06-10.36-9.96-19.98-8,2.55,11.22-9.66,3.08-16.15,6.93-2.43,1.44,1.12,8.13-1.67,11.88-1.89,2.54-8.77-1.46-6.24,7.85.59,2.17,4.89.8,6.05,7.34l-4,8c-.56-1.24-1.37-2.73-2-4Z"/>
      <path class="cls-8" d="M127.5,32.28c5.37.83,11.91-2.13,16.17,2.91,1.9,2.25,1.2,9.23,6.81,8.28s3.58-6.25,13.02.81c3.89,2.91,3.7,5.81,4,6-1.71,3.2-.18,3.56-4,6-.69-2.14-2.7-11.07-4.04-11.99-.77-.54-10.88,6.49-17.54,1.59-2.31-1.7-1.06-8.96-3.65-9.71-11.83-3.43-6.96,8.09-18.65,11.24-10.67,2.88-7.17-4.62-11.08-3.11-2.76,1.06-5.57,5.8-5.12,8.93.13.88,7.52.07,2.6,10.59-3.54,7.57-9.07-.49-10.53,7.49-1.8,9.89,3.04,5.54,7.12,8.8,7.66,6.1,1.55,18.1,2.91,20.17,1.12,1.7,10.05-.08,12.42.4,13.86,2.84,8.36,10.34,9.57,11.6.34.35,8.94.4,9.72-.29,1.41-1.25.38-9.72,9.77-11.42,5.92-1.07,8.52,3.74,10.5,2.85,7.94-3.59.15-8.81.33-11.78.04-.72,5.25-12.77,5.85-13.17.64-.43,6.26,4.81,7.87-3.12,1.79-8.8-5.26-2.6-8.28-6.29-1.23-1.51-4-9.54-3.81-11.73s3.08-.42,4.03-1.03c-1.11,9.49,6.48,7.3,11.04,11.98,2.06,3.38.2,8.04.96,10.02-1.1,8.57-7.65,4.22-12,9.05-1.14,4.23,5.73,7.92,3.82,13.62-.37,1.11-10.2,8.84-11.12,9.02-3.08.61-7.3-4.7-11.66-3.69-4.82,1.11,4.58,12.2-14.11,10.11-10.78-1.21-8.43-11.34-11.97-12.12-1.9-.42-5.09,3.38-8.13,4.05-4.56,1-12.2-8.98-14.8-13.05,20.43-8.32-1.64-10.75-3.16-12.83-1.22-1.66-1.53-17.53-.86-18.15,1.51-1.39,21.98,3.04,6.48-12.94-.17-2.08,10.05-11.06,10.84-11.12,6.49-.55,16.09,7.58,16.69-7.93.65.11,1.35-.1,2,0Z"/>
      <path class="cls-9" d="M217.5,34.28c.15.93,1.04,1.8,2,2-.04.66.07,1.35,0,2-9.96.76-.41,15.08-12.87,15.77s-6.93,3.36-10.52,4.28c-15.31,3.91-11.78-4.83-12.77-5.77-.44-.42-8.44-1.25-11.84-2.28-.6-1.36-1.39-2.65-2-4l4-8c-.46,13.09-.75,5.6,10.05,8.96,3.78,1.86,2.39,7.8,6.92,7.14,4.21-.61,5.46-4.97,8.44-5.75,2.08-.55,10.86,2.14,12.6-.36.61-.88-6.21-13.53,5.99-13.99Z"/>
      <path class="cls-10" d="M209.5,66.28c3.1-7.68,8.08-.16,11.21,3.77,1.63,1.45,5.77,1.45,6.46,2.56.11.95,2.16,8.24,2.33,11.67-1.22-.37-2.05,1.07-2,2-17.35-4.14-3.15-18.09-20-12-.62.22-1.48-.24-2,0,.12-2.18-1.77-5.55-2-8,1.31-.08,2.78.2,4,0l1,4.02,1-4.02Z"/>
      <path class="cls-2" d="M107.5,24.28c.17.02,1.22-1.76,2.63-1.52,1.14.2,16.35,5.35,17.13,5.81.73.43.27,2.61.24,3.71-6.81-.02-13.07-3.77-20-4v-4Z"/>
      <path class="cls-1" d="M167.5,42.28c1.36,2.7,2.69,5.32,4,8-7.19.52-1.44-.51-8-6l4-2Z"/>
      <path class="cls-7" d="M81.5,28.28l4.98,4.02,1.02-4.02c3.51-.08,6.53,1.96,8,2l-3.98,14c5.99-3.21,9.52-7.18,5.98-14,6.59-4.19,20.13-.01,28,2-.6,15.51-10.2,7.38-16.69,7.93-.79.07-11.01,9.04-10.84,11.12,15.5,15.99-4.97,11.55-6.48,12.94-.67.62-.36,16.49.86,18.15,1.52,2.08,23.59,4.51,3.16,12.83,2.6,4.07,10.24,14.05,14.8,13.05,3.04-.67,6.23-4.47,8.13-4.05,3.55.78,1.19,10.92,11.97,12.12,18.69,2.09,9.3-9,14.11-10.11,4.35-1,8.57,4.3,11.66,3.69.92-.18,10.75-7.91,11.12-9.02,1.91-5.7-4.96-9.39-3.82-13.62,4.35-4.83,10.91-.48,12-9.05.08.21,2.78.48,4,2-4.81,7.52,5.45,9.31,0,20l-7.98-7.99-1.98,13.01c1.55,0,7.61-.82,7.96-1.02,10.7,7.53-1.17,17.75-6,24-5.59-2.06-10.96-1.5-16.53-2.46-8.93-4.01-10.12-6.11-15.47,2.46-17.49,10.89-21,4.76-37.02,5.88-18.45,8.66-58.22,14.47-54.98-15.88,5.47-2.87,6.98-8.93,12.11-12.89,6.75-5.21,27.43-9.15,29.87-14.14,3.56-7.27-12.06,2.48-13.43,2.65-3.1.38-9.52-2.54-10.5-1.59-1.2,1.16,1.53,11.36-12.05,7.97-.09-2.48-3.6-7.93-2.02-11.99h-1.96c-.13,4.11-1.25,10.69,3.98,11.99.36,10.16-8.84,9.98-8,18-9.89,3.15-28.95,2.6-35.38-6.6-1.05-1.5-4.92-14.47-4.72-16.12.17-1.39,3.3-1.47,4.09-2.77.91-1.5,1.32-3.56,2.02-4.51,2.1.38,6.62-.83,7.78.2,2.78,2.47.42,28.57,18.21,16.79-12.88-1.57-15.47-8.71-13.99-21-6.4-.34-8.28-1.05-12,4.01-10.17-1.83-4.98-13.17-1.4-20.45,6.59-13.4,14.29-6.96,17.15-9.81,1.04-1.04.09-10.69,4.28-14.72,6.37-6.13,17.95-3.5,24.58-5.42,8.56-2.48,6.09-9.08,25.39-9.61ZM69.51,42.28c-14.18-2.79-18.9-1.64-20,13.98,7.12,1.61,2.08-6.47,5.85-9.13,4.45-3.14,15.77,3.04,14.15-4.85ZM89.5,50.28c-12.22,6.17-7.11,16.65-7.98,27.99,3.92-1.83,1.43-10.07,2.45-14.52.88-3.86,3.92-9.39,5.53-13.47.17-.42,3-.8,1.98-3.99h-1.96c-.27,1.18.36,3.55-.02,3.99ZM37.5,56.28c-8.67,6.09-8.82,7.34-5.98,17.99,5.1-2.16-1.09-11.8,5.98-17.99,2.22-.78,7.16.57,9.99-.01v-3.98c-6.69-1.96-7.34,2.13-9.99,3.99ZM75.49,58.3l-15.96,2.05,3.99,11.91c4.98-.34-1.07-8.56-.03-9.97,1.22-1.67,11.76-.23,12-4ZM65.5,88.28l-2.02-14c-10.75,4.88-14.9-4.52-23.68,6.39l1.73,7.59c4.3-.13.02-8.49,5.13-9.76.72-.18,14.23,1.35,14.76,1.88.82.81-1.03,7.05,2.09,7.9l1,1.96,1-1.96ZM98.52,106.32l-6.98,6.98.94.94,6.98-6.98-.94-.94ZM168.5,108.28v2c1.3-.67,1.3-1.33,0-2ZM165.52,112.29l-1.04,5.95c2.16-1.77,3.66-3.02,3-5.95h-1.96ZM89.49,114.29c-1.26-.23-26.94-1.31-19.98,3.98,1.26.23,26.94,1.31,19.98-3.98ZM119.5,118.28c-10.06.72-18.57-6.55-19.98,7.99.62.68,5.65-4.55,7.9-5.16,4.65-1.25,13.51,5.17,12.09-2.83ZM69.49,120.29c-2.18-2.18-6.16,1.8-3.98,3.98s6.16-1.8,3.98-3.98Z"/>
      <path class="cls-3" d="M127.5,158.28c2.09,6.17,6.97,18.56-1.05,20.07-6.93,1.31-7.86-10.08-12.08-15.94-6.92-9.6-12.76-8.99-18.87-22.13,20.93-9.3,15.76,16.11,32,18Z"/>
      <path class="cls-2" d="M53.5,100.28c13.58,3.39,10.85-6.82,12.05-7.97.98-.95,7.41,1.97,10.5,1.59,1.37-.17,16.98-9.91,13.43-2.65-2.44,4.99-23.12,8.93-29.87,14.14-5.67,3.81-7.03,12.71-14.11,12.89-.84-8.02,8.36-7.84,8-18Z"/>
      <path class="cls-2" d="M141.5,130.28c-2.39,1.14-4.52,5.26-6,6-19.27,5.91-29.65,6.77-8,20v2c-16.24-1.89-11.07-27.3-32-18-.29-.62-1.54-1.24-2-2,14.9-10.96,27.94,3.86,46-10l2,2Z"/>
      <path class="cls-3" d="M97.5,30.28c3.54,6.82,0,10.79-5.98,14l3.98-14c.67.02,1.34-.03,2,0Z"/>
      <path class="cls-3" d="M87.5,28.28l-1.02,4.02-4.98-4.02c2-.05,4,.05,6,0Z"/>
      <path class="cls-3" d="M203.5,66.28c.23,2.45,2.12,5.82,2,8-17.97,8.27,8.19,27.88,14,8,.28.35,6.72,4.14,8,4,.09,1.67,2.34,4.65,1.17,6.09-1.96,2.4-9.87,2.79-13.19,3.93l2.01,5.96c-3.6-2.29-18.51-3.46-19.69-4.27-1.44-.99-1.12-6.26-2.33-8.17-2.05-3.24-7.87-2.78-6.09-10.28.43-1.83,4.84-1.65,5.83-4.52,1.52-10.23-3.51-8.99,8.29-8.74Z"/>
      <path class="cls-10" d="M177.5,104.28c-.35.2-6.41,1.02-7.96,1.02l1.98-13.01,7.98,7.99c-.52,1.02-1.59,3.76-2,4Z"/>
      <path class="cls-3" d="M209.5,66.28l-1,4.02-1-4.02c.65-.11,1.35.11,2,0Z"/>
      <path class="cls-10" d="M135.5,136.28c-1.99,10.08,8.69,6.59,13.46,6.48s2.47,2.67,4.54,5.52c-3.44,5.93-19.84,8.68-26,8-21.66-13.24-11.26-14.1,8-20Z"/>
      <path class="cls-3" d="M141.5,130.28c21.42-3.92,37.22,3.73,12,18-2.07-2.85.05-5.64-4.54-5.52s-15.45,3.6-13.46-6.48c1.48-.74,3.61-4.86,6-6Z"/>
      <path class="cls-4" d="M173.5,38.28c-1.15-6.54-5.46-5.17-6.05-7.34-2.53-9.31,4.35-5.31,6.24-7.85,2.79-3.75-.76-10.43,1.67-11.88,6.48-3.85,18.69,4.29,16.15-6.93,9.62-1.97,8.14,15.06,19.98,8-1.33,22.85,2.91,7.32,6.02,22-12.2.45-5.37,13.1-5.99,13.99-1.74,2.5-10.52-.19-12.6.36-2.98.79-4.23,5.14-8.44,5.75-4.53.66-3.14-5.28-6.92-7.14-10.85-3.4-10.49,4.23-10.05-8.96ZM183.5,24.28c-1.76,2.01-5.64-4.27-2,8,2.15,7.24.66,10.22,11,10.22,20.08-.01,14.63-30.72-5.8-23.94-3.39,1.13-2.57,4.99-3.2,5.72Z"/>
      <path class="cls-5" d="M163.5,56.28c-.96.61-3.83-1.21-4.03,1.03s2.58,10.23,3.81,11.73c3.01,3.68,10.07-2.52,8.28,6.29-1.62,7.94-7.23,2.69-7.87,3.12-.6.4-5.81,12.45-5.85,13.17-.18,2.98,7.61,8.19-.33,11.78-1.98.89-4.58-3.92-10.5-2.85-9.39,1.7-8.37,10.18-9.77,11.42-21.1,3.45,1.45-6.15-19.29-11.31-2.37-.49-11.3,1.3-12.42-.4-1.36-2.06,4.75-14.07-2.91-20.17-4.08-3.25-8.93,1.09-7.12-8.8,1.46-7.98,6.99.07,10.53-7.49,4.92-10.52-2.47-9.71-2.6-10.59-.45-3.13,2.37-7.87,5.12-8.93,3.91-1.51.41,5.99,11.08,3.11,11.69-3.16,6.82-14.67,18.65-11.24,2.59.75,1.34,8,3.65,9.71,6.66,4.9,16.77-2.12,17.54-1.59,1.34.93,3.35,9.85,4.04,11.99ZM119.5,66.28c-16.4,13.61,13.91,37.08,26.04,21.04,11.8-14.23,1.24-33.75-16.9-30.95-9.87,1.52-7.37,6.12-9.14,9.91Z"/>
      <path class="cls-2" d="M219.5,82.28c-5.81,19.88-31.97.27-14-8-.19,3.6-3.09,7.79-1.88,11.86,13.49,6.02,17.7-7.98,3.88-11.86,13.25-4.72,7.52,2.37,12,8Z"/>
      <path class="cls-6" d="M207.5,74.28c13.82,3.88,9.6,17.88-3.88,11.86-1.2-4.07,1.69-8.26,1.88-11.86.53-.24,1.38.22,2,0Z"/>
      <path class="cls-2" d="M11.5,88.28c3.72-5.06,5.6-4.35,12-4.01-1.48,12.29,1.11,19.43,13.99,21-17.78,11.79-15.42-14.32-18.21-16.79-1.16-1.03-5.68.18-7.78-.2Z"/>
      <path class="cls-3" d="M69.51,42.28c1.62,7.89-9.7,1.71-14.15,4.85-3.77,2.66,1.27,10.74-5.85,9.13,1.1-15.62,5.82-16.77,20-13.98Z"/>
      <path class="cls-3" d="M63.5,88.28c-3.12-.85-1.27-7.09-2.09-7.9-.53-.52-14.03-2.05-14.76-1.88-5.11,1.27-.83,9.63-5.13,9.76l-1.73-7.59c8.78-10.91,12.93-1.51,23.68-6.39l2.02,14h-2Z"/>
      <path class="cls-3" d="M119.5,118.28c1.42,8.01-7.44,1.58-12.09,2.83-2.24.6-7.28,5.84-7.9,5.16,1.41-14.54,9.92-7.27,19.98-7.99Z"/>
      <path class="cls-2" d="M89.49,114.29c6.96,5.29-18.72,4.2-19.98,3.98-6.96-5.29,18.72-4.2,19.98-3.98Z"/>
      <path class="cls-2" d="M89.5,50.28c-1.61,4.08-4.65,9.61-5.53,13.47-1.02,4.44,1.47,12.69-2.45,14.52.86-11.35-4.24-21.82,7.98-27.99Z"/>
      <path class="cls-3" d="M75.49,58.3c-.24,3.77-10.78,2.33-12,4-1.03,1.41,5.01,9.62.03,9.97l-3.99-11.91,15.96-2.05Z"/>
      <path class="cls-2" d="M37.5,56.28c-7.1,6.26-.84,15.74-5.98,17.99-2.84-10.65-2.7-11.9,5.98-17.99Z"/>
      <path class="cls-3" d="M37.5,56.28c2.65-1.86,3.3-5.94,9.99-3.99v3.98c-2.83.58-7.77-.77-9.99.01Z"/>
      <path class="cls-3" d="M53.5,100.28c-5.23-1.3-4.11-7.88-3.98-11.99h1.96c-1.58,4.06,1.93,9.51,2.02,11.99Z"/>
      <path class="cls-2" d="M69.49,120.29c2.18,2.18-1.8,6.16-3.98,3.98s1.8-6.16,3.98-3.98Z"/>
      <path class="cls-3" d="M89.5,50.28c.38-.44-.25-2.81.02-3.99h1.96c1.02,3.18-1.81,3.56-1.98,3.99Z"/>
      <path class="cls-10" d="M165.52,112.29h1.96c.66,2.93-.84,4.18-3,5.95l1.04-5.95Z"/>
      <rect class="cls-2" x="90.56" y="109.61" width="9.87" height="1.33" transform="translate(-50.01 99.83) rotate(-45)"/>
      <path class="cls-10" d="M168.5,108.28c1.3.67,1.3,1.33,0,2v-2Z"/>
      <polygon class="cls-2" points="63.5 88.28 65.5 88.28 64.5 90.24 63.5 88.28"/>
      <path class="cls-2" d="M181.5,32.28c.19.55,8.37,7.26,8.94,7.32,10.59,1.25,14.82-14.14,5.71-17.08-2.34-.75-11.5.6-12.65,1.75-.29.29-2.18,7.47-2,8-3.64-12.27.24-5.99,2-8,.64-.73-.18-4.6,3.2-5.72,20.42-6.79,25.87,23.92,5.8,23.94-10.34,0-8.86-2.98-11-10.22Z"/>
      <path class="cls-9" d="M119.5,66.28c-3.49,9.31,2.95,23.53,14.83,21.98,25.87-7.22,6.13-42.16-14.83-21.98,1.77-3.8-.73-8.39,9.14-9.91,18.14-2.8,28.69,16.72,16.9,30.95-12.13,16.04-42.44-7.43-26.04-21.04Z"/>
      <path class="cls-6" d="M181.5,32.28c-.18-.53,1.71-7.71,2-8,1.15-1.15,10.31-2.51,12.65-1.75,9.12,2.94,4.88,18.33-5.71,17.08-.57-.07-8.76-6.78-8.94-7.32Z"/>
      <path class="cls-7" d="M119.5,66.28c20.98-20.18,40.7,14.78,14.83,21.99-11.88,1.55-18.33-12.68-14.83-21.99Z"/>
    </g>
  </g>
</svg>