<?xml version="1.0" encoding="UTF-8"?>
<svg id="Calque_2" data-name="Calque 2" xmlns="http://www.w3.org/2000/svg" viewBox="0 0 121.73 198.82">
  <defs>
    <style>
      .cls-1 {
        fill: #8aa25d;
      }

      .cls-2 {
        fill: #91a9b3;
      }

      .cls-3 {
        fill: #704834;
      }

      .cls-4 {
        fill: #8f625d;
      }

      .cls-5 {
        fill: #ddb762;
      }

      .cls-6 {
        fill: #e8b93e;
      }

      .cls-7 {
        fill: #b7cfd7;
      }

      .cls-8 {
        fill: #f7f7f0;
      }

      .cls-9 {
        fill: #4a3d2c;
      }

      .cls-10 {
        fill: #a78a6a;
      }
    </style>
  </defs>
  <g id="Calque_1-2" data-name="Calque 1">
    <g>
      <path class="cls-9" d="M9.71,55.75C-9.83,30.96,17.94,6.35,41.69,27.75c-2.15-37.82,47.61-36.81,40.03,1.99,4.33.6,6.13-3.88,9.88-5.09,19.62-6.33,37.15,13.09,24.12,29.1-3.21,3.94-11.01,7.72-13.99,11.98,8.73-.15,12.62,8.62,17.99,14.02-1.22,20.44-4.74,29.33-28,28-.98-2.78-7.02-4.6-9.99-4.01,3.34,24.3-23.12,11.59-17.99,44l5.98-3.99c-.78,1.18-4.53,9.32-3.98,10l7.97-1.01-9.99,6.99c14.54,1.32,28.29-4.09,37.08-15.9,13.32-17.89,4.66-17.71-12.15-12.15-8.07,2.67-14.1,4.81-18.94,12.06,4.99-14.71,25.82-22.38,40-18,6.48,23.33-23.96,39.14-43.93,40.08l5.93,31.92c-18.58,6.28-14.53-16.74-18.19-19.81-1-.84-8.96.14-12.35-.66-12.73-2.99-24.13-12.28-30.27-23.73-4.07-7.61-8.98-18.82,3.38-19.27,16.52-.6,27.92,12.04,37.42,23.46v-31c-9.58-6.55-15.45-12.04-14.01-27-3.45-3.7-17.54,15.64-32.1-.89-7.45-8.46-6.03-13.32-3.89-23.11,3.71-.91,3.14-3.42,4-6,1.88-.29,4.29.38,6,0-21.83,31.29,19.46,39.38,29.69,18.71.73-3.76-10.52-13.02-9.77-25.64.72-12.05,7.81-15.41,13.95-23.82-29.13-36.78-59.03,3.15-15.91,23.75.04,1.65-15.14,6.37-17.96,7-1.12-5.61,3.26-4.3,6.81-5.85,6.26-4.04-6.96-6.63-8.81-8.15ZM73.47,39.5c21.2-38.88-39.05-51.13-23.75.25,5.65-3.88,20.99,1.55,23.75-.25ZM87.71,63.75c-.34,15.15-6.37,16.54-7.59,23.35-2.27,12.59,29.75,25.22,33.53,5.6,3.56-18.46-8.69-23.85-23.93-27.94,5.91-5.7,15.84-5.12,21.34-11.65,11.45-13.6.06-27.87-16.34-23.52-2.81.75-17.82,9.04-18.8,10.46-3.83,5.55,6.81,7.73,7.23,8.2,1.21,1.34.32,3.18.56,3.5l-2,2c-5.81-11.61-22.07-11.64-32.85-7.85-17.26,6.06-14.68,35.28,2.85,39.85,17.66,7.35,34.56-4.8,32-24l4-4c.17,1.8-.07,4.08,0,6ZM71.03,119.06c5.34-4.68,12.09-27.98.3-26.89-10.93,1.01-16.59,2.57-27.6-2.42-7.53,17.14,10.05,44.45,27.3,29.32ZM59.71,160.75c-.86-9.24,0-20.45,0-30,0-.48,4.07-3.94.98-5.02-11.96-4.08-4.13,77.45,7.05,67-3.02-9.76-7.09-21.92-8.03-31.98ZM51.71,173.73c-5.64-19.43-19.03-38.48-41.96-33,7.24,18.42,20.59,33.31,41.96,33Z"/>
      <path class="cls-8" d="M91.71,107.75c-.84,19.21,12.67,4.45,18,18-14.18-4.38-35.01,3.29-40,18l-5.98,3.99c-5.11-32.48,21.29-19.62,17.99-44,2.97-.59,9.01,1.23,9.99,4.01Z"/>
      <path class="cls-8" d="M119.71,79.75c-5.36-5.4-9.26-14.17-17.99-14.02,2.97-4.25,10.78-8.04,13.99-11.98-5.43,12.01,11.69,18.75,4,26Z"/>
      <path class="cls-7" d="M9.71,55.75c1.85,1.53,15.06,4.11,8.81,8.15-3.56,1.54-7.93.25-6.81,5.85-1.71.38-4.12-.29-6,0-.86,2.58-.29,5.09-4,6,.57-4.9-2.45-6.74,4-6,1.49-4.49,3.13-9.33,4-14Z"/>
      <path class="cls-4" d="M11.71,69.75c2.82-.63,18-5.35,17.96-7C-13.5,42.1,16.51,2.24,45.58,39c-6.13,8.41-13.23,11.77-13.95,23.82-.75,12.62,10.5,21.88,9.77,25.64-10.23,20.67-51.51,12.58-29.69-18.71ZM35.7,37.76h-5.98s0,7.98,0,7.98c4.71,1.48,5.49-3.63,5.98-7.98Z"/>
      <path class="cls-6" d="M51.71,85.75c.78-5.09-2.43-3.13-5.37-4.52-2.9-11.14-6.53-3.65-6.83-12.36-.02-2.04,2.08-16.07,2.59-16.75.4-.54,11.17-4.56,12.62-4.58,9.19-.16,12.57,12.21,15.35,13.85,4.88,2.88,9.73-5.24,9.71,1.39.07,15.81-12.87,25.66-28.06,22.97Z"/>
      <path class="cls-10" d="M83.71,51.75c-.24-.32.65-2.16-.56-3.5-.42-.46-11.06-2.65-7.23-8.2.97-1.41,15.98-9.71,18.8-10.46,16.4-4.35,27.79,9.92,16.34,23.52-5.5,6.53-15.43,5.95-21.34,11.65,15.24,4.09,27.48,9.48,23.93,27.94-3.78,19.62-35.79,6.99-33.53-5.6,1.23-6.81,7.26-8.21,7.59-23.35l1.96-1-1.96-1c.56-5.59-.98-7.68-4-10Z"/>
      <path class="cls-4" d="M71.03,119.06c-17.26,15.14-34.84-12.17-27.3-29.32,11.01,4.99,16.67,3.43,27.6,2.42,11.79-1.09,5.04,22.21-.3,26.89Z"/>
      <path class="cls-4" d="M73.47,39.5c-2.76,1.79-18.1-3.64-23.75.25-15.28-51.44,44.96-39.05,23.75-.25Z"/>
      <path class="cls-1" d="M69.71,143.75c4.83-7.25,10.86-9.39,18.94-12.06,16.81-5.56,25.47-5.74,12.15,12.15-8.79,11.81-22.54,17.21-37.08,15.9l9.99-6.99-7.97,1.01c-.54-.68,3.2-8.82,3.98-10ZM91.71,139.75l-15.99,11.99c4.42-2.63,16.76-6.1,15.99-11.99.42-.43,3.57.49,3.99,0,3-3.57-5.34-7.64-3.99,0Z"/>
      <path class="cls-1" d="M51.71,173.73c-21.37.31-34.71-14.59-41.96-33,22.93-5.48,36.31,13.57,41.96,33ZM37.7,161.74c2.6-2.51-12.3-13.92-15.99-11.97.49,1.94,15.27,12.66,15.99,11.97ZM40.69,161.79l-.94.94,4.98,4.98.94-.94-4.98-4.98Z"/>
      <path class="cls-5" d="M81.71,53.75c8.57,18.15-7.36,42.09-28,32,14.71,2.44,26.02-8.4,26.06-22.97.02-6.63-4.83,1.48-9.71-1.39-2.78-1.64-6.16-14.01-15.35-13.85-1.45.03-12.22,4.05-12.62,4.58-.51.68-2.6,14.71-2.59,16.75.3,8.69,3.94,1.24,6.83,12.36,3.01,1.44,6.09-.65,5.37,4.52-17.53-4.57-20.12-33.79-2.85-39.85,10.79-3.79,27.04-3.75,32.85,7.85Z"/>
      <path class="cls-1" d="M59.71,160.75c.93,10.06,5,22.21,8.03,31.98-11.09,10.59-19.06-71.01-7.05-66.99,3.09,1.08-.98,4.54-.98,5.02,0,9.55-.86,20.76,0,30Z"/>
      <path class="cls-3" d="M87.71,57.75l-4,4c-.48-3.26-.41-4.82-2-8l2-2c1.63,2.16,2.93.82,4,6Z"/>
      <path class="cls-3" d="M87.71,63.75c.01-.66.05-1.35,0-2l1.96,1-1.96,1Z"/>
      <path class="cls-2" d="M35.7,37.76c-.49,4.35-1.27,9.46-5.98,7.98v-7.98s5.98,0,5.98,0Z"/>
      <path class="cls-9" d="M91.71,139.75c-1.35-7.64,6.99-3.57,3.99,0-.42.5-3.57-.42-3.99,0,.77,5.89-11.57,9.36-15.99,11.99l15.99-11.99Z"/>
      <path class="cls-9" d="M37.7,161.74c-.72.69-15.5-10.03-15.99-11.97,3.69-1.95,18.59,9.46,15.99,11.97Z"/>
      <rect class="cls-9" x="42.05" y="161.22" width="1.33" height="7.04" transform="translate(-103.98 78.46) rotate(-45)"/>
    </g>
  </g>
</svg>