<?xml version="1.0" encoding="UTF-8"?>
<svg id="Calque_2" data-name="Calque 2" xmlns="http://www.w3.org/2000/svg" viewBox="0 0 188.79 220.98">
  <defs>
    <style>
      .cls-1 {
        fill: #c5503d;
      }

      .cls-2 {
        fill: #cb844b;
      }

      .cls-3 {
        fill: #f7f7f0;
      }

      .cls-4 {
        fill: #cfae8a;
      }
    </style>
  </defs>
  <g id="Calque_1-2" data-name="Calque 1">
    <g>
      <path class="cls-2" d="M26.17,0l1.56,1.22c.16,3.07-1.87,5.78-1.56,8.78-5.91-.74-4.69,4.1-6,6-7.04,10.2-10.57,15.31-9.8,28.71.5,8.64,6.83,20,15.8,13.29l2-2c1.61-4.5-.16-8.62,3.99-15.02,3.1-4.78,14.59-13.74,19.92-16.06,33.32-14.56,30.7,28.51,2.7,44.69-13.08,7.56-21.85,2.75-17.71,22.5,1.56,7.47,5.49,16.79,11.88,7.66s10.3-17.22,19.2-24.8c12.63-10.76,42.03-23.22,50.5-2.48,7.9,19.34-14.07,41.4-30.47,48.5-8.55,3.7-17.13,3.1-24.55,5.46-18.94,6.02,13.12,51.66,28.67,40.65,1.67-1.18,4.94-16.84,6.88-21.11,7.33-16.09,32.76-39.94,51.46-31.47,24.95,12.03,4.31,41.21-8.43,54.5-6.13,5.41-30.89,12.6-31.94,16.21,2.72,19.9,29.74,22.31,44.45,14.3,9.98-5.03,20.03-26.12,24.87-27.25,35.37-1.87-39.66,87.29-81.45,28.73-2.85-4.42-3.52-12.7-6.79-15.2-25.95-5.18-43.24-18.27-48.29-45.71-1.29-5.38.1-11.53-1.92-16.08-14.78-16.78-18.85-14.85-18.97-42.03-1.07-12.42-2.29-6.42-6-10C-2.99,53.55-1.29,47.61,2.17,22c3.65.72,4.6-.39,4-4C13.65,11.53,17.48,6.66,26.17,0ZM64.16,36.01c-13.1-1.02-25.12,13.69-25.98,25.98,12.67.85,25.88-13.37,25.98-25.98ZM62.18,113.99c19.41-2.53,44.71-13.13,45.12-36.05-20.08-8.04-42.28,17.67-45.12,36.05ZM58.14,106c-4.39-3.7-7.52,5.35-9.53,6.04-1.8.61-5.9-.55-6.46-.03-3.58,3.33,7.64,10.56,9.16,13.95l12.84-6.98c.94-6.03-5.48,1.11-6.01-12.98ZM106.17,170c-5.61-.37-3.88-3.73-4.99-4.04-10.1-2.8.21,9.63-10.99,10.09-2.81,3.41,7.35,7.99,10.99,8.18,4.44.22,7.89-10.39,6.98-14.22,19.48-2.25,36.36-20.82,41.94-38.87-18.52-14.97-42.84,21.93-43.94,38.87Z"/>
      <path class="cls-4" d="M22.17,82l-6-10c3.72,3.58,4.93-2.42,6,10Z"/>
      <path class="cls-4" d="M26.17,10c-1.22,3.41-.29,6.16-6,6,1.31-1.9.09-6.74,6-6Z"/>
      <path class="cls-4" d="M6.17,18c.6,3.61-.35,4.72-4,4,.99-7.35,2.42-2.63,4-4Z"/>
      <path class="cls-4" d="M26.17,58c.42-.32,1.95-1.86,2-2l-2,2Z"/>
      <path class="cls-3" d="M108.17,170c-.63.07-1.37.04-2,0,1.1-16.95,25.41-53.84,43.94-38.87-5.57,18.06-22.45,36.63-41.94,38.87Z"/>
      <path class="cls-3" d="M62.18,113.99c2.84-18.38,25.04-44.09,45.12-36.05-.41,22.92-25.71,33.52-45.12,36.05Z"/>
      <path class="cls-3" d="M64.16,36.01c-.1,12.6-13.31,26.83-25.98,25.98.87-12.29,12.88-27,25.98-25.98Z"/>
      <path class="cls-1" d="M58.14,106c.52,14.07,6.92,6.94,6.01,12.98l-12.84,6.98c-1.52-3.38-12.74-10.62-9.16-13.95.56-.52,4.66.64,6.46.03,2.01-.69,5.14-9.74,9.53-6.04Z"/>
      <path class="cls-1" d="M108.17,170c.9,3.83-2.54,14.45-6.98,14.22-3.64-.18-13.8-4.77-10.99-8.17,11.21-.47.87-12.89,10.99-10.09,1.11,1.79.65,4.53,6.99,4.04Z"/>
    </g>
  </g>
</svg>