<?xml version="1.0" encoding="UTF-8"?>
<svg id="Calque_2" data-name="Calque 2" xmlns="http://www.w3.org/2000/svg" viewBox="0 0 152.4 124.42">
  <defs>
    <style>
      .cls-1 {
        fill: #8aa25d;
      }

      .cls-2 {
        fill: #91a9b3;
      }

      .cls-3 {
        fill: #704834;
      }

      .cls-4 {
        fill: #8f625d;
      }

      .cls-5 {
        fill: #537ea0;
      }

      .cls-6 {
        fill: #cb844b;
      }

      .cls-7 {
        fill: #f7f7f0;
      }

      .cls-8 {
        fill: #cfae8a;
      }

      .cls-9 {
        fill: #3b5051;
      }

      .cls-10 {
        fill: #4a3d2c;
      }

      .cls-11 {
        fill: #a78a6a;
      }
    </style>
  </defs>
  <g id="Calque_1-2" data-name="Calque 1">
    <g>
      <path class="cls-10" d="M0,14.24L5.39,4.63C51.82,1.42,98.49-.04,145.15.07c3.88-.67,2.61,3.96,2.86,4.17.44.39,3.38-.53,3.88.08,2.82,3.44-6.59,7.42-9.88,7.92v-4c1.98-.15,4.02.12,5.99-.01v-3.99c-28.83.4-59.67-1.99-87.99,4-2.23.46-7.52-1.19-8.01,1.02-4.28,8.69,63.96-2.61,70.01-1.02v2c-3.48-.81-4.19,1.07-4,4-7.45.56-30.41-2.89-33.72,3.28-1,3.06-.84,19.98.13,23.31,3.78,8.93,13.32,3.46,11.59,25.41-4.39,15.21-20.17,19.66-32,8-1.25-1.21-1.88-2.22-4-2-.1-5.88-1.07-14.28,4-18-2.82,6.42.71,16.16,7.48,19.52,32.17,10.33,25.45-44.79-7.48-19.52,3.22-5.84,9.14-9.76,9.68-11.32,2.21-6.37-.91-19.34.33-26.69l-32.02,2.02c3.45,15.06,1.58,30.64,2.01,45.99-.54.05-2.5,2.2-4,2,.06-7.32-.02-14.7,0-22.02l-4,.02c-.01-1.33.02-2.67,0-4,2.78-.98,1.66-3.94,2-6,.8-4.88,1.2-21.23,1.98-22.01,1.28-1.28,9.96,3.13,8.01-3.98-11.97.11-24.02-.19-35.99-.01C8.45,8.29.09,5.78,0,14.24ZM80,44.24V14.24h-2v30h2Z"/>
      <path class="cls-9" d="M32,62.24c.19.85,3.18,2.86,4,4,.49,2.25-1.32,9.72,1.02,10.02,7.88-.27,1.78-5.11,2.98-10.02,8.06-4.85,12.74.92,20,4-.02,1.33,0,2.67,0,4-5.85-2.29-5.92-5.61-7.38-6.05-11.86-3.51-6.65,10.25-6.62,16.05-4.67-2.49-9.98-6.62-14.17-1.17-9.39,12.22,14.32,31.88,14.17,1.17,3.54,1.89,5.36.96,3.56,9.05-4.24,19.04-24.75,12.21-23.48-5.96.57-8.16,11.18-10.01,5.85-19.05-30.76,7.01-26.39,49.33,7.07,50.12,29.04.68,21.69-26.71,21-44.16,1.04.41,3.48-.44,4,0,2.31,1.99,4.4,19,4.12,23.08-1.89,27.54-36.75,36.29-54.15,15.95-16.22-18.97-5.96-46.24,18.03-51.03Z"/>
      <path class="cls-9" d="M122,10.24c.44.05,2.12,1.91,4,2,.22,11.67-.27,23.4-.08,35.08.17,10.5,7.59,19.67-5.92,24.92l-2.01-20.01c-1.32.05-2.67-.08-3.99.01-.11-12.64.08-25.36,0-38h4c-1.23,11.31.88,24.44.02,35.99,3.49.47,1.88-4.54,1.98-6.97.39-9.45,1.4-22.38-2-31.02.93-2.39,1.18-2.3,4-2Z"/>
      <path class="cls-3" d="M114,52.24c.01,1.33,0,2.67,0,4-24.63,3.66-19.61,40.74,3.16,43.91,14.5,2.02,27.21-9.45,21.9-24.01-2.25-3.35-6.1.96-9.06.1,3.72-12.14,15.33-6.55,16.11,5.04,1.74,25.87-35.87,31.13-48.12,11.97-4.4-6.89-2.51-12.64-6-19,5.45-10.43,8.85-21.32,22-22Z"/>
      <path class="cls-3" d="M12,8.24C.05,18.19,31.72,13.09,36.01,14.23c.07,17.32-.18,34.69-.01,52.01-.82-1.14-3.81-3.15-4-4-1.48-6.64,1.57-42.45.01-44.01C26.41,17.17-.07,21.33,0,14.24c.09-8.46,8.45-5.95,12-6Z"/>
      <path class="cls-10" d="M114,52.24c1.32-.09,2.67.03,3.99-.01l2.01,20.01c-.99.38-3.18-.64-4.03.96,3.56,10.43,9.28,2.3,16.03,3.04-1.13,8.94-9.98,10.67-16.1,5.1-5.8-5.91-1.06-20.48-1.9-29.1Z"/>
      <path class="cls-3" d="M142,8.24v4c-5.3.2-15.6,1.6-20-2v-2c6.57-.1,13.52.48,20,0Z"/>
      <path class="cls-7" d="M44,64.24c-.43-15.35,1.44-30.93-2.01-45.99l32.02-2.02c-1.24,7.35,1.88,20.32-.33,26.69-1.58,2.28-10.81,10.41-13.28,16.69-.85,3.49-.35,7.11-.4,10.64-5.14-2.07-9.94-6.61-16-6Z"/>
      <path class="cls-7" d="M114,14.24c.08,12.64-.11,25.36,0,38-7.46.5-11.97,4.11-16,10h-2c.3-19.59-9.04-12.7-11.59-21.41-3.52-31.46.15-27.03,29.59-26.59Z"/>
      <path class="cls-1" d="M64,54.24c32.95-25.27,39.64,29.85,7.48,19.52-6.77-3.36-10.3-13.1-7.48-19.52Z"/>
      <path class="cls-4" d="M148,4.24v3.99c-28.81-1.24-57.92,3.43-88,4.01v-4c28.33-5.99,59.14-3.6,88-4Z"/>
      <path class="cls-11" d="M12,8.24c11.97-.18,24.02.12,35.99.01,1.95,7.11-6.73,2.7-8.01,3.98-.78.78-1.18,17.13-1.98,22.01h-2c-.13-6.65.1-13.36.01-20.01C31.79,13.08.02,18.19,12,8.24Z"/>
      <path class="cls-11" d="M36,44.24l4-.02c0,8.66.02,17.36,0,26.02h-4c-.17-8.62,0-17.35,0-26Z"/>
      <path class="cls-2" d="M118,12.24c3.4,8.64,2.38,21.58,2,31.02-.1,2.43,1.51,7.44-1.98,6.97.72-12.27-1.11-25.98-.02-37.99Z"/>
      <rect class="cls-2" x="78" y="14.24" width="2" height="30"/>
      <path class="cls-11" d="M60,8.24v4c-4.32-.09-9.05,1.67-8.01-2.98.49-2.21,5.78-.56,8.01-1.02Z"/>
      <path class="cls-4" d="M36,40.24c-.02-2,.04-4,0-6h2c-.34,2.06.78,5.02-2,6Z"/>
      <path class="cls-7" d="M64,74.24c-.52-.44-2.96.41-4,0-.03-.67.02-1.33,0-2,2.12-.22,2.75.78,4,2Z"/>
      <path class="cls-8" d="M96,66.24c.01-1.33-.02-2.67,0-4h2c-.61.9-.96,2.52-2,4Z"/>
      <path class="cls-5" d="M60,74.24c.69,17.45,8.03,44.84-21,44.16-33.46-.79-37.83-43.11-7.07-50.12,5.34,9.04-5.28,10.89-5.85,19.05-1.27,18.16,19.24,25,23.48,5.96,1.8-8.08-.02-7.16-3.56-9.05-.03-5.79-5.25-19.56,6.62-16.05,1.46.43,1.53,3.75,7.38,6.05Z"/>
      <path class="cls-7" d="M46,84.24c.16,30.71-23.56,11.05-14.17-1.17,4.18-5.45,9.49-1.32,14.17,1.17Z"/>
      <path class="cls-4" d="M40,70.24c.02,1.2,4.18,5.82-2.98,6.02-1.94.05-.84-4.11-1.02-6.02h4Z"/>
      <path class="cls-6" d="M114,56.24c.02,7.58-3.25,20.41,1.9,25.1,6.12,5.58,14.98,3.85,16.1-5.1,2.1-.31,5.46-2.95,7.06-.1,5.31,14.56-7.4,26.03-21.9,24.01-22.77-3.17-27.79-40.25-3.16-43.91Z"/>
    </g>
  </g>
</svg>