<?xml version="1.0" encoding="UTF-8"?>
<svg id="Calque_2" data-name="Calque 2" xmlns="http://www.w3.org/2000/svg" viewBox="0 0 122.08 215.24">
  <defs>
    <style>
      .cls-1 {
        fill: #704834;
      }

      .cls-2 {
        fill: #ddb762;
      }

      .cls-3 {
        fill: #f7f7f0;
      }

      .cls-4 {
        fill: #cfae8a;
      }

      .cls-5 {
        fill: #4a3d2c;
      }

      .cls-6 {
        fill: #a78a6a;
      }
    </style>
  </defs>
  <g id="Calque_1-2" data-name="Calque 1">
    <g>
      <path class="cls-5" d="M110.01,74.8c.01,1.33-.02,2.67,0,4-28.43.06-55.55-.05-84,2-4.03.39-10.29-2.37-10.04,3,.28,6.19,6.09,19.42,11.26,22.77,7.93,5.15,43.41,7.97,52.78,6.22l2,2c-18.57,1.92-33.53,3.04-51.99-2l-4.01,36h68c-.72-7.61,1-16.65,0-24h2c1.58,22.49,8.97,64.47,15.04,83.96,2.11,2.83,3.85,2.16,6.94,2.03l-15.99-103.99h2c-3.2,13.04,34.85,115.3,9.04,108.08-12.11-2.02-12.18-49.09-16.28-50.2-25.18,2.94-49.59-.07-74.78.11.48,11.84-3.07,32.12-6.3,42.59-.95,2.22-2.2,2.17-3.69,3.42h-2c4.92-24.64,8.42-49.58,12.64-74.36,1.77-10.39,11.38-28.64-2.63-31.63-.61,32.49-15.11,68.27-16.01,99.99H0c-.12-4.78,1.39-9.32,2-14l1.96-1-1.96-1c5.58-38.86,18.1-74.15,8-112l100-2ZM96.01,152.8H27.01c-1.07,0-4.13,4.37-2.99,5.98,2.31,3.25,69.6,2.91,71.98-.02.46-.57-.26-4.31,0-5.96Z"/>
      <path class="cls-5" d="M98.01,26.8l-2,2C89.13,4.51,58.95,2.59,40.01,12.8c-9.57,5.16-8.07,4.57-12,14-5.45,13.1-4.76,19.99-1.9,33.89,8.61.29,17.29.02,25.9.11v4H6.01v-2c5.84-2.21,9.4-2.71,15.99-2.01C-.14-2.8,89.2-20.46,98.01,26.8Z"/>
      <path class="cls-6" d="M10.01,210.8h-6c-.84-34.15,15.36-71.25,16.01-105.99,14.01,2.99,4.4,21.24,2.63,31.63-4.22,24.78-7.72,49.73-12.64,74.36Z"/>
      <path class="cls-1" d="M98.01,26.8c8.44,2.36,1.78,31.19,4.01,33.99,17.24-7.99,29.31,14.94,7.99,18.01.16,11.73-6.51,21.37-6,28-12.28-.66-9.46,9.74-8,18h-2c-1.8-13.26-3.2-10.91-12-10l-2-2c19.41-8.09,24.43-11.87,26-34,1.31-.1,2.73.18,4,0-.02-1.33.01-2.67,0-4,6.45-1.79,6.79-3.15,6.01-9.99-21.31-.02-42.7,0-64.01,0v-4c14.56.14,29.23.1,43.79-.22,3.02-10.71,3.26-21.01.21-31.78l2-2Z"/>
      <path class="cls-1" d="M6.01,62.8v2c-2.29,6.51,4.84,9.3,4,14-10.08.46-14.34-12.09-4-16Z"/>
      <path class="cls-1" d="M10.01,210.8h2c-3.18,2.68-6.56,8.41-10,0h8Z"/>
      <path class="cls-1" d="M2.01,190.8c.09-.66-.08-1.34,0-2l1.96,1-1.96,1Z"/>
      <polygon class="cls-1" points="0 204.8 2.01 204.8 1.01 206.76 0 204.8"/>
      <path class="cls-5" d="M4.01,210.8h-2c-.45-1.09.65-2.28,2-2v2Z"/>
      <path class="cls-3" d="M82.01,114.8c8.8-.91,10.2-3.26,12,10,1,7.35-.72,16.39,0,24H26.01l4.01-36c18.46,5.04,33.42,3.92,51.99,2Z"/>
      <path class="cls-4" d="M106.01,78.8c-1.58,22.18-6.61,25.9-26,34-9.36,1.75-44.85-1.08-52.78-6.22-5.17-3.36-10.98-16.59-11.26-22.77-.25-5.37,6.01-2.61,10.04-3,2.29,27.45,38.25,26.99,58,20,10.62-4.25,10.36-11.76,12-22,3.31-.09,6.71.26,10,0Z"/>
      <path class="cls-6" d="M102.01,106.8l15.99,103.99c-3.09.13-4.83.79-6.95-2.03-1.51-2.02-9.81-42.87-10.84-49.16-1.7-10.31-3.12-24.18-4.2-34.8-.77-7.59-5.05-16.79,6-18Z"/>
      <path class="cls-6" d="M96.01,152.8c-.27,1.64.45,5.39,0,5.96-2.38,2.94-69.68,3.27-71.98.02-1.14-1.61,1.92-5.98,2.99-5.98h69Z"/>
      <path class="cls-2" d="M94.01,78.8c.16,8.12-5.56,13.99-10,20l-38,4c-.66-.14-1.42.18-2,0-.62-10.47-10.63.6-14-22,22.17-2.33,41.86-1.55,64-2Z"/>
      <path class="cls-6" d="M52.01,64.8c21.31,0,42.7,0,64.01,0,.78,6.84.44,8.2-6.01,9.99l-100,2c-.83-2.92-6-6.72-4-12h46Z"/>
      <path class="cls-1" d="M30.01,80.8c3.41,22.67,13.34,11.48,14,22-9.83-3-17.46-11.09-18-22,1.31-.13,2.69.14,4,0Z"/>
      <path class="cls-1" d="M84.01,100.8v-2c4.44-6.01,10.16-11.88,10-20,.67-.01,1.33.02,2,0-1.64,10.24-1.38,17.75-12,22Z"/>
      <path class="cls-2" d="M40.01,12.8c15.35-1.19,30,3.83,45.14,5.86,8.78,5.63,4.18,15.13,4.98,21.01,2.25,8.54,8.81,13.73-3.05,19.26-4.32.54-26.54.75-29.78-.11-2.06-.54-.65-4.74-2.28-4.02-5.5,2.45-4.54,4.98-14.03,4.08-23.37-2.21-8.28-13.8-8.91-20.92-.3-3.37-5.18-6.7-4.07-11.16,3.93-9.43,2.43-8.84,12-14Z"/>
      <path class="cls-4" d="M96.01,28.8c3.05,10.78,2.81,21.07-.21,31.78-23.21.44-46.49.33-69.69.11-2.86-13.9-3.55-20.8,1.9-33.89-1.11,4.46,3.78,7.8,4.07,11.16.63,7.13-14.46,18.72,8.91,20.92,9.49.9,8.54-1.63,14.03-4.08,1.63-.73.22,3.47,2.28,4.02,3.25.86,25.46.65,29.79.11,11.83-5.53,5.32-10.7,3.05-19.26-.8-5.88,3.8-15.38-4.98-21.01-15.13-2.04-29.78-7.05-45.14-5.86,18.94-10.21,49.12-8.28,56,16Z"/>
      <path class="cls-5" d="M84.01,98.8v2c-11.99,4.8-25.59,4.72-38,2l38-4Z"/>
    </g>
  </g>
</svg>