<?xml version="1.0" encoding="UTF-8"?>
<svg id="Calque_2" data-name="Calque 2" xmlns="http://www.w3.org/2000/svg" viewBox="0 0 121.1 144.09">
  <defs>
    <style>
      .cls-1 {
        fill: #91a9b3;
      }

      .cls-2 {
        fill: #8f625d;
      }

      .cls-3 {
        fill: #537ea0;
      }

      .cls-4 {
        fill: #b7cfd7;
      }

      .cls-5 {
        fill: #f7f7f0;
      }

      .cls-6 {
        fill: #3b5051;
      }
    </style>
  </defs>
  <g id="Calque_1-2" data-name="Calque 1">
    <g>
      <path class="cls-6" d="M75.95,120.1c2.72,2.13-14.18,5.68-16,6,4.15-5.35,10.17-6.46,16-6Z"/>
      <path class="cls-6" d="M99.95,118.1c-3.07,3.81-19.42,6.71-8,0,2.64-.19,5.37.24,8,0Z"/>
      <path class="cls-6" d="M59.95,126.1c-3.79,2.85-3.33,3.51-8,6v-4c2.44-1.91,5.26-1.52,8-2Z"/>
      <path class="cls-6" d="M3.95,30.1c5.17-8.82,9.03-8.38,18.97-12.03C30.25,15.37,83.41-2.01,85.83.19l31.75,95.44c-2.85,10.79,2.28,15.6,3.52,24.55-26.97,8.45-54.27,19.87-82.08,23.91-7.79-1.45-11.34-16.83-14-24.07C17.67,99.98,3.25,60.32.36,40.58c-1.36-9.3,1.47-6.87,3.59-10.49-.31,27.43,18.48,69.04,26.95,96.1,1.45,4.01,4.29,4.64,5.05,5.9,1.71,2.83-3.6,3.07,4,6,10.64,4.1,24.62-6.18,35.57-9.43,13.23-3.92,27.37-5.78,40.41-10.6-1.71-3.84-11.86-.35-15.99.03.55-.48,1.78-1.6,2-2l12-2.01-2.06-7.99c-6.07.82-11.73,3.76-17.93,4.02l5.97,3.95c-3.74-.19-5.51,2.26-7.99,4.03-5.19.37-10.65,1.44-16,2-.62.06-.11-1.51-6,0-6.08,1.39-13.27,4.22-18,6-5.26,1.78-10.98,2.04-16,6,3.54-1.37,7.44-9.66,8-10,21.07-6.83,47.97-13.86,69.95-20.09-7.21-30.65-22.62-64.21-27.96-95.91-2.6-2.69-69.69,17.11-71.74,20.24-3.33,5.08,26.84,79.51,27.74,91.75-6.99-8.11-9.83-19.2-13.42-29.58-6.63-19.14-12.93-40.59-16.59-60.43l-7.99,2.01Z"/>
      <path class="cls-1" d="M41.95,118.1c-.91-12.24-31.08-86.67-27.74-91.75,2.05-3.13,69.13-22.93,71.74-20.24,4.77,25.64,14.41,50.82,22.01,76-7.28,6.78,6.25,13.11-.87,18.13-3.41,2.4-30.67,9.75-36.84,11.27-3.5.86-7.47-1.06-6.29,4.61-3.55,1.17-19.11,5.45-20,6-.78-1.17-1.17-3.03-2-4ZM35.95,36.1c-1.5.79-5.58,1.8-5.83,2.17-.9,1.31,5.33,21.87,6.84,23.83,3.57,4.61,5.94.13,6.99,0,15.47-1.88,28.35-6,41.74-14.32l-7.88-25.63c-13.96,3.83-28.96,7.16-41.86,13.95ZM65.95,92.1c2.32-4.24,29.22-6.73,20.97-12.03-4.68,1.32-29.17,8.29-30.97,10.06-6.19,6.11,7.19,2.03,8,1.97.07,4.82-1.87,6.99,4.59,5.61,4.64-.99,12.39-3.47,17.03-5.09,3.24-1.13,5.34,1.03,4.38-4.51-8.15,1.12-15.77,2.93-23.99,3.99ZM60.95,98.1v2c1.3-.67,1.3-1.33,0-2Z"/>
      <path class="cls-3" d="M3.95,30.1l7.99-2.01c7.12,31.66,14.85,66.4,32.01,94.01-.56.34-4.46,8.63-8,10-.76-1.27-3.6-1.9-5.05-5.9C22.4,99.07,3.67,57.6,3.95,30.1Z"/>
      <path class="cls-4" d="M69.95,120.1c-.76.12-3.52,1.48-6,2,2.8-1.78,3.43-1.34,6-2Z"/>
      <path class="cls-4" d="M75.95,120.1c-1.94.2-4.16-.3-6,0,5.89-1.51,5.38.06,6,0Z"/>
      <path class="cls-4" d="M103.95,108.1c-1.29,3.51-.57,7.84-4,10-2.63.24-5.36-.19-8,0,2.48-1.77,4.24-4.21,7.99-4.03l-5.97-3.95c3.45-.02,6.67-1.39,9.99-2.02Z"/>
      <path class="cls-4" d="M63.95,122.1c-4.82,6.28-6.4,2.73-12,6v-2c4.57-1.55,5.24-2.57,12-4Z"/>
      <path class="cls-4" d="M99.95,118.1c4.13-.37,14.28-3.87,15.99-.03-13.04,4.82-27.18,6.68-40.41,10.6-10.95,3.24-24.93,13.53-35.57,9.43,2.8-6.08,10.63.08,12-6,4.67-2.49,4.21-3.15,8-6,1.82-.32,18.72-3.87,16-6,5.35-.56,10.81-1.63,16-2-11.42,6.71,4.94,3.81,8,0Z"/>
      <path class="cls-4" d="M107.95,82.1c1.17,3.88,7.44,17.83,5.95,19.91-16.46,5-33.63,8.71-49.95,14.09-1.18-5.67,2.79-3.75,6.29-4.61,6.16-1.52,33.43-8.86,36.84-11.27,7.12-5.01-6.41-11.35.87-18.13Z"/>
      <path class="cls-5" d="M51.95,126.1v6c-1.38,6.08-9.19-.09-12,6-7.6-2.93-2.29-3.17-4-6,5.02-3.96,10.74-4.22,16-6Z"/>
      <path class="cls-5" d="M103.95,108.1c2.68-.51,5.16-1.95,7.95-2l2.06,7.99-12,2.01c1.07-1.95,1.09-5.7,2-8Z"/>
      <path class="cls-6" d="M35.95,36.1c12.9-6.79,27.9-10.11,41.86-13.95l7.88,25.63c-13.38,8.32-26.26,12.44-41.74,14.32v-2c12.87-3.19,24.64-10.33,38.01-12.01l-6.03-22-39.98,12.01v-2Z"/>
      <path class="cls-6" d="M63.95,92.1c-.81.06-14.19,4.14-8-1.97,1.8-1.77,26.29-8.74,30.97-10.06,8.26,5.3-18.65,7.79-20.97,12.03-.65.08-1.34-.05-2,0Z"/>
      <path class="cls-3" d="M65.95,92.1c8.22-1.06,15.84-2.87,23.99-3.99.96,5.54-1.14,3.37-4.38,4.51-4.64,1.62-12.39,4.1-17.03,5.09-6.45,1.38-4.51-.78-4.59-5.61.66-.05,1.35.08,2,0Z"/>
      <path class="cls-3" d="M35.95,38.1c-5.23,6.76,3.58,16.24,4.03,24,.7.62,2.78-1.71,3.97-2v2c-1.05.13-3.43,4.6-6.99,0-1.51-1.96-7.74-22.52-6.84-23.83.25-.37,4.33-1.38,5.83-2.17v2Z"/>
      <path class="cls-3" d="M60.95,98.1c1.3.67,1.3,1.33,0,2v-2Z"/>
      <path class="cls-5" d="M35.95,38.1l39.98-12.01,6.03,22c-14.43,2.42-28.73,9.24-41.98,14.02-.45-7.76-9.26-17.24-4.03-24ZM67.93,34.1c-8.56,2.66-20.33,4.42-25.99,11.97,7.12-.72,15.62-3.96,21.98-7.09,2.86-1.41,5.02.45,4-4.88ZM67.93,42.1l-13.98,5.97c3.63-.69,15.31.65,13.98-5.97Z"/>
      <path class="cls-2" d="M67.93,34.1c1.02,5.33-1.14,3.48-4,4.88-6.36,3.13-14.86,6.37-21.98,7.09,5.66-7.55,17.43-9.31,25.99-11.97Z"/>
      <path class="cls-6" d="M67.93,42.1c1.34,6.63-10.35,5.28-13.98,5.97l13.98-5.97Z"/>
    </g>
  </g>
</svg>