<?xml version="1.0" encoding="UTF-8"?>
<svg id="Calque_2" data-name="Calque 2" xmlns="http://www.w3.org/2000/svg" viewBox="0 0 115.23 126.23">
  <defs>
    <style>
      .cls-1 {
        fill: #8aa25d;
      }

      .cls-2 {
        fill: #8f625d;
      }

      .cls-3 {
        fill: #b7cfd7;
      }

      .cls-4 {
        fill: #c5503d;
      }

      .cls-5 {
        fill: #cb844b;
      }

      .cls-6 {
        fill: #f7f7f0;
      }

      .cls-7 {
        fill: #4a3d2c;
      }
    </style>
  </defs>
  <g id="Calque_1-2" data-name="Calque 1">
    <g>
      <path class="cls-7" d="M10.82,2.89c20.71.11,25.96-1.67,39.97,15.99.09-3.57,8.7-23.26,14.01-17.97l-9.97,33.99c70.26-56.94,84.23,99.92,15.13,83.98C32.16,148.15-7.34,82.87,6.82,48.88c3.66-8.27,19.09-16.04,28-16,.32,0,2.21,1.95,4,2,2.45.07,12.02.75,12.02-1-2.93-2.4-8.51-.33-12.02-1C22.34,26.84,11.87,23.3,10.82,2.89ZM46.8,24.88C52.31,18.54,24.67,1.68,16.83,6.9c.48,13.68,14.3,21.53,26.94,22.07,2.19.09,5.58,1.09,5.03-2.06l-7.97-4.01c1.79-.44,5.38,2.65,5.97,1.98ZM40.82,118.89c7.86,3.04,6.02,1.38,12,0,14.76-3.4,13.43-3.95,29.1-4.27,25.67-.52,32.9-55.2,19.82-73.69-12.22-16.72-33.98-11.23-46.33,1.71C-5.28,18.12,3.66,102.57,40.82,118.89Z"/>
      <path class="cls-6" d="M10.82,2.89c1.68,17.56,7.76,23.89,24,28v2c-8.91-.04-24.34,7.73-28,16-15.41-.37-.19-7.91,2.05-10.93C22.26,23.03-13.74-7.86,10.82,2.89Z"/>
      <path class="cls-4" d="M40.82,118.89C3.66,102.54-5.29,18.12,55.4,42.64c12.33-12.92,34.13-18.44,46.33-1.71,13.08,18.49,5.85,73.17-19.82,73.69-15.67.32-14.34.87-29.1,4.27-3.24-1.98-9.61-3.87-12,0Z"/>
      <path class="cls-1" d="M46.8,24.88c-.58.67-4.18-2.42-5.97-1.98l7.97,4.01c.54,3.15-2.84,2.15-5.03,2.06-12.64-.54-26.46-8.39-26.94-22.07,7.84-5.22,35.48,11.64,29.97,17.99Z"/>
      <path class="cls-5" d="M52.82,118.89c-5.98,1.38-4.14,3.04-12,0,2.39-3.87,8.76-1.98,12,0Z"/>
      <path class="cls-3" d="M38.82,32.89c3.51.67,9.09-1.4,12.02,1,0,1.75-9.57,1.07-12.02,1v-2Z"/>
      <path class="cls-2" d="M38.82,32.89v2c-1.79-.05-3.68-2-4-2v-2c1.75.44,3.43,1.89,4,2Z"/>
    </g>
  </g>
</svg>