<?xml version="1.0" encoding="UTF-8"?>
<svg id="Calque_2" data-name="Calque 2" xmlns="http://www.w3.org/2000/svg" viewBox="0 0 110.77 124.63">
  <defs>
    <style>
      .cls-1 {
        fill: #8aa25d;
      }

      .cls-2 {
        fill: #c5503d;
      }

      .cls-3 {
        fill: #cb844b;
      }

      .cls-4 {
        fill: #cfae8a;
      }

      .cls-5 {
        fill: #3b5051;
      }

      .cls-6 {
        fill: #4a3d2c;
      }
    </style>
  </defs>
  <g id="Calque_1-2" data-name="Calque 1">
    <g>
      <path class="cls-6" d="M28.37,5.26c12.01-.85,10.9,6.25,17.97,11.99,1.16-6.01,8.92-23.47,16.03-14.94-4.87,9.07-11.21,17.96-9.99,28.95,69.91-50.19,81.05,103.86,11.45,86.32C35.2,141.5,3.57,99.02.3,72.34c-1.67-19.65,3.33-39,26.07-39.09,6.41-.02,12.24,2.65,18.02,1C25.39,26.98,10.31,29.75,4.49,4.41c5.12-6.54,13.69-2.42,19.88-1.15v2c-4.41-.31-9.31,2.63-14,2.02,5.66,14.36,17.04,20.47,32,21.96.55-1.47-2.76-3.08-2-5.98,5.57-4.92-7.49-14.13-12-16v-2ZM55.06,35.98c-1.32,1.02-1.8,4.59-3.9,5.19C17.6,26.69-2.02,51.03,10.32,84.3c5.06,14.12,20.89,34.64,37.15,35.08,8.64.23,9.88-6.2,16.77-7.29,4.72-.74,8.65,2.06,14.56.68C122,97.74,109.13.93,55.06,35.98Z"/>
      <path class="cls-4" d="M26.37,29.26c5.85,1.93,12.78,1.46,18.02,5-5.78,1.65-11.61-1.02-18.02-1v-4Z"/>
      <path class="cls-5" d="M28.37,5.26v2c-1.34-.53-3.78-1.98-4-2v-2c1.9.39,2.94,1.63,4,2Z"/>
      <path class="cls-2" d="M55.06,35.98C109.13.93,122,97.75,78.8,112.78c-5.91,1.37-9.84-1.42-14.56-.68-6.89,1.08-8.13,7.52-16.77,7.29-16.25-.44-32.09-20.96-37.15-35.08C-2,51.04,17.57,26.68,51.16,41.18c2.1-.6,2.58-4.18,3.9-5.19ZM88.36,37.27c-3.45-3.79-6.02,3.25-6.36,3.37-1.56.56-4.64-2.48-6.69.56l1.08,14.05c3.59-.08,2.45-5.63,4.98-8.04,7.36-4.36,7.59,1.75,6.98-9.93Z"/>
      <path class="cls-1" d="M24.37,5.26c4.34,1.38,22.75,12.64,16,18-1.67-8.19-11.79-10.04-17.96-13.02,5.63,5.76,9.1,13.52,17.96,15.02.05.94,2.83,3.43,2,3.98-14.96-1.49-26.34-7.6-32-21.96,4.69.61,9.59-2.33,14-2.02Z"/>
      <path class="cls-5" d="M40.37,23.26c.09.65-.04,1.34,0,2-8.86-1.5-12.33-9.26-17.96-15.02,6.17,2.98,16.29,4.83,17.96,13.02Z"/>
      <path class="cls-3" d="M88.36,37.27c.6,11.66.41,5.58-6.98,9.93-2.53,2.42-1.39,7.96-4.98,8.04l-1.08-14.05c2.04-3.04,5.13,0,6.69-.56.34-.12,2.92-7.16,6.36-3.37Z"/>
    </g>
  </g>
</svg>