<?xml version="1.0" encoding="UTF-8"?>
<svg id="Calque_2" data-name="Calque 2" xmlns="http://www.w3.org/2000/svg" viewBox="0 0 101 111.01">
  <defs>
    <style>
      .cls-1 {
        fill: #704834;
      }

      .cls-2 {
        fill: #8f625d;
      }

      .cls-3 {
        fill: #f7f7f0;
      }
    </style>
  </defs>
  <g id="Calque_1-2" data-name="Calque 1">
    <g>
      <path class="cls-2" d="M70.26,66.92c-.43,26.62-38.56,20.5-43.57-1.41-8.06-35.22,35.26-52.81,61.45-29.47,27.6,24.61,6.97,68.15-25.78,73.98C13.23,118.77-15.29,67.45,8.57,26.24,21.98,2.98,57.82-8.44,80.98,7.2c20.29,16.93-10.55,4.37-13.89,3.9C-2.19,2.9-6.92,108.07,62.86,100.51c2.01-.62,16.4-13.06,18.44-15.55,7.87-9.19,11.99-28.17.96-36.04-.84-1.23-.33-3.58-2.9-6.02-13.6-12.88-39.55-9.25-42.72,11.53-1.97,12.97,9.34,22.99,21.66,17.44,7.57-7.02-.35-4.84,11.95-4.96Z"/>
      <path class="cls-3" d="M82.26,48.92c-10.7-1.18-7.88,8.3-8,16.02l-4-.02c-1.47-15.78-20.14-21.98-20.01-4.01,5.51.79,14.07-3.67,12.01,6.01-7.64,14.43-29.33,2.94-25.61-12.48,2.42-22.98,38.71-25.66,45.61-5.52Z"/>
      <path class="cls-1" d="M70.26,64.92c.06.65.01,1.34,0,2-2.2.45-6.46-.66-8,0,2.06-9.68-6.49-5.22-12.01-6.01-.13-17.97,18.54-11.77,20.01,4.01Z"/>
    </g>
  </g>
</svg>