<?xml version="1.0" encoding="UTF-8"?>
<svg id="Calque_2" data-name="Calque 2" xmlns="http://www.w3.org/2000/svg" viewBox="0 0 115.96 159.74">
  <defs>
    <style>
      .cls-1 {
        fill: #91a9b3;
      }

      .cls-2 {
        fill: #8f625d;
      }

      .cls-3 {
        fill: #b7cfd7;
      }

      .cls-4 {
        fill: #f7f7f0;
      }

      .cls-5 {
        fill: #3b5051;
      }

      .cls-6 {
        fill: #4a3d2c;
      }
    </style>
  </defs>
  <g id="Calque_1-2" data-name="Calque 1">
    <g>
      <path class="cls-5" d="M73.66,57.84c6.99,1.91,3.38.65,8,0,8.07-1.13,16-2.53,24-4,.47.7-.47,3.48,0,4l-25.72,4.28c-1.87,6.4-2.82,13.03-2.29,19.73l28.01-4.01c-.16,1.3.16,2.7,0,4-9.57,3.14-19.95,4.37-29.99,4.01l-4,37.98,27.99-5.99c-.2,1.27.2,2.73,0,4-33.9,7.9-28.59-2.7-33.99,31.99,9.94-2.87,17.88-6.01,27.99-7.99v2c-10.18,5.29-19.55,8.16-31,11.9-17.68-10.41-46.44-10.19-61-23.9l4-4c1.29,3.34,47.79,18.28,54.96,22.04,1.34,0,6.6-22.82,4.19-26.17-1.58-2.18-45.07-15.56-51.02-17-3.87-.94-7.02-2.95-6.12,3.13.07-1.76-4.2-3.63,4-8,3.48,3.19,53.64,18.43,56,16.01l3.86-33.85c-18.25-4.83-36.93-9.56-53.86-18.16v-2c15.58,2.46,34.2,14.3,49.55,15.63,8.32.72,9.26-20.57,8.39-21.56-1.85-2.09-45.94-10.17-51.94-16.07,7.11-6.62,39.06,10.22,50,12Z"/>
      <path class="cls-6" d="M11.66,55.84c5.85-28.26,16.81-22.51,26.1-38.9,2.84-5.01,1.57-14.96,7.25-16.81,4.77-1.56,55.94,10.92,57.84,13.64,1.11,1.59-2.04,11.05-.78,16.63,1.48,6.55,10.59,13.96,12.5,19.51,4.9,14.23-4.49,33.28-6.74,47.08-2.48,15.2-2.63,32.01-6.16,47.38-1.16,3.22-5.74,2.28-8.01,3.45v-2c9.1,1.48,4.69-20.2,6-24,.33-12.55,4.57-25.73,6-40-1.46-6.12,7.02-17.89,3.55-23.65-.79-.91-3.32-.11-3.55-.35,1.05-8.28-9.16-11.74-15.96-13.99l-8.04,13.99c-4.62.65-1.01,1.91-8,0,6.34-.48,20.81-24.58,17.95-27.93-1.62-1.9-45.11-10.73-48.87-10.07-2.9.5-15.28,14.42-18.09,18.01s-4.63,3.07,1.01,6c-5.45,6.12-8.99-2.29-10,12h-4ZM97.67,15.85c-8.55,1.62-47.17-14.03-51.75-9.72-.55.51-.78,5.87-2.27,7.69l51.98,14.04,2.04-12.01ZM99.63,33.85c-10.22-.47,1.01,10.11,4.01,11.98l-4.01-11.98Z"/>
      <path class="cls-6" d="M15.66,63.84c.1,1.58.34,3.39,2,4v2c-1.44-.19-3.5-.61-4.02,1.33-.65,6.42-7.58,30.35-1.98,34.67-8.2,4.37-3.93,6.24-4,8-.18,4.72-.47,5.71-2,10-.19.52-2.14.79,0,2,.34,1.74-.5,4.7,0,6l-4,4c-6.48-13.17,8.01-57.19,10-74l4,2Z"/>
      <path class="cls-5" d="M15.66,55.84c-.27,2.34-.16,5.58,0,8l-4-2c.34-1.82-.37-4.23,0-6h4Z"/>
      <path class="cls-4" d="M25.66,43.84c-5.64-2.93-3.84-2.38-1.01-6s15.19-17.5,18.09-18.01c3.76-.65,47.25,8.17,48.87,10.07,2.86,3.36-11.61,27.45-17.95,27.93-12.47-3.4-36.72-13.87-48-14Z"/>
      <path class="cls-1" d="M7.66,113.84c-.9-6.08,2.25-4.07,6.12-3.13,5.95,1.45,49.45,14.82,51.02,17,2.42,3.35-2.84,26.17-4.19,26.17-7.17-3.76-53.67-18.7-54.96-22.04-.37-1.98.26-5.67,0-8,1.53-4.29,1.82-5.28,2-10Z"/>
      <path class="cls-4" d="M17.66,69.84c16.93,8.6,35.61,13.33,53.86,18.16l-3.86,33.85c-2.35,2.42-52.52-12.82-56-16.01-2.66-2.44-2.16-3.67-2.17-6.93,0-3.92,3.1-23.85,4.15-27.74.52-1.93,2.58-1.51,4.02-1.33ZM15.66,93.84c-.22,1.53-3.47,4.67-1.98,8,4.62-.87,3.2-5.17,3.98-8,.49-1.76-1.39-4.62,1.96-3.99,2.07,6.31,7.48,5.86,7.03,13.98,3.78-2.58,6.43-20.33,5-21.98l-9.96,5.98-3.03-8.01c-2.94,0-2.66,11.66-3,14.02ZM39.66,93.84c.13-1.24-1.16-8.51-3.97-7.98l-4.05,20.96c.72,2.91,3.82-1,4.02-.98,3.34.12,9.26,8.4,11.99,5.99,1.85-1.83-3.09-5.41-3.46-7.25-.7-3.45,3.22-11.87,1.46-16.73-6.31-1.13-3.28,2.59-3.99,5.99h-2ZM63.66,95.86l-9.98-4.02-4.01,21.99,5.97-7.97,6,9.98c1.01-4.75-2.84-10.49-2.11-14.74.22-1.27,7.73-1.57,4.13-5.23Z"/>
      <path class="cls-1" d="M23.66,45.84c6,5.9,50.09,13.98,51.94,16.07.87.98-.07,22.28-8.39,21.56-15.35-1.33-33.97-13.16-49.55-15.63-1.66-.61-1.9-2.42-2-4-.16-2.42-.27-5.66,0-8,1.3-11.4,1.95-8.27,8-10Z"/>
      <path class="cls-4" d="M99.66,117.84l-27.99,5.99,4-37.98c10.04.36,20.42-.87,29.99-4.01-1.56,12.5-4.37,25.46-6,36Z"/>
      <path class="cls-1" d="M99.66,121.84c-1.32,3.82,3.12,25.43-6,24-10.11,1.98-18.05,5.12-27.99,7.99,5.38-34.75.19-24.09,33.99-31.99Z"/>
      <path class="cls-1" d="M105.66,57.84c9.99-1.69.22,15.9,0,20l-28.01,4.01c-.52-6.69.42-13.33,2.29-19.73l25.72-4.28Z"/>
      <path class="cls-4" d="M105.66,53.84c-8,1.47-15.93,2.87-24,4l8.04-13.99c6.38,1.84,12.27,4.55,15.96,9.99Z"/>
      <path class="cls-1" d="M97.67,15.85l-2.04,12.01-51.98-14.04c1.49-1.82,1.72-7.18,2.27-7.69,4.58-4.3,43.21,11.34,51.75,9.72Z"/>
      <path class="cls-3" d="M99.63,33.85l4.01,11.98c-3.01-1.87-14.24-12.45-4.01-11.98Z"/>
      <path class="cls-5" d="M5.66,125.84c-2.14-1.21-.19-1.48,0-2v2Z"/>
      <path class="cls-6" d="M15.66,93.84c.34-2.36.06-14.03,3-14.02l3.03,8.01,9.96-5.98c1.43,1.65-1.21,19.41-5,21.98.45-8.12-4.96-7.68-7.03-13.98-3.35-.62-1.47,2.23-1.96,3.99h-2Z"/>
      <path class="cls-6" d="M63.66,95.86c3.6,3.66-3.91,3.96-4.13,5.23-.73,4.25,3.12,9.99,2.11,14.74l-6-9.98-5.97,7.97,4.01-21.99,9.98,4.02Z"/>
      <path class="cls-6" d="M41.66,93.84c.71-3.4-2.33-7.12,3.99-5.99,1.76,4.86-2.16,13.28-1.46,16.73.37,1.84,5.31,5.42,3.46,7.25-2.21,2.19-6.58-3.38-7.99-3.99.12-4.69,1.05-9.44,2-14Z"/>
      <path class="cls-5" d="M39.66,93.84c-.2,1.95-4.52,8.36-4,12-.21-.02-3.3,3.89-4.02.98l4.05-20.96c2.81-.53,4.1,6.74,3.97,7.98Z"/>
      <path class="cls-3" d="M41.66,93.84c-.95,4.56-1.88,9.31-2,14-1.22-.53-2.99-1.91-4-2-.52-3.64,3.8-10.05,4-12h2Z"/>
      <path class="cls-2" d="M17.66,93.84c-.78,2.83.64,7.13-3.98,8-1.49-3.33,1.76-6.47,1.98-8h2Z"/>
    </g>
  </g>
</svg>