<?xml version="1.0" encoding="UTF-8"?>
<svg id="Calque_2" data-name="Calque 2" xmlns="http://www.w3.org/2000/svg" viewBox="0 0 253.95 351.89">
  <defs>
    <style>
      .cls-1 {
        fill: #704834;
      }

      .cls-2 {
        fill: #8f625d;
      }

      .cls-3 {
        fill: #537ea0;
      }

      .cls-4 {
        fill: #b7cfd7;
      }

      .cls-5 {
        fill: #cb844b;
      }

      .cls-6 {
        fill: #f7f7f0;
      }

      .cls-7 {
        fill: #cfae8a;
      }

      .cls-8 {
        fill: #3b5051;
      }

      .cls-9 {
        fill: #4a3d2c;
      }

      .cls-10 {
        fill: #a78a6a;
      }
    </style>
  </defs>
  <g id="Calque_1-2" data-name="Calque 1">
    <g>
      <g>
        <path class="cls-9" d="M154.54,47.74c-2.46,5.69-12,7.83,0,18-.66,3.34.65,5.46,2,8,4.25,32.29-22.37,19.4-33,2.04-6.9,6.61-17.75,16.96-26.95,18.03-1.18,1.28,10.34,25.61-18.59,15.46-14.51-5.09-29.18-9.76-43.45-15.53v-2c1.8.32,4.54-.47,6,0,19.21,7.55,42.55,5.34,60.65-4.35,5.86-3.33,19.54-18.12,24.22-17.78,1.31.09,7.73,15.43,18.58,17.81,14.47,3.17,7.79-18.35,2.62-24.82-1.79-2.24-6.1-2.4-6.1-3.89,6.93-14.01,13.98-11.53,12.02-32.96-2.3-1.57-14.4,6.47-17.99,5.99.04-7.44,15.76-12.39,20.15-9.15,5.14,3.8,2.18,19.78-.15,25.15ZM92.52,95.75l-19.98,4.98c9.68,6.15,22.28,13.32,19.98-4.98Z"/>
        <path class="cls-1" d="M80.54,3.74l-2,2c-3.81-2.26-15.47.52-14,6-7.43.32-5.68-2.07-8,5.98.58.42,6.02-.04,8,.02v2c-2.46.35-24,7.36-23.96,9,17.61,17.3,13.77,44.55,3.96,65-1.18-.24-2.66-1.57-4-2,8.54-13.65,12.65-53.06-4.05-61.11C28.55,26.81-.34,54.99,4.54,65.74h13.99c1.67,6.26-5.42,3.85-7.98,6.99l23.99,19.01v2c-12.41-4.08-31.62-11.51-30-28-.11-.18-3.45.8-4.04-1.33C-3.7,49.09,19.65,31.98,31.17,25.38c8.76-5.02,18.6-6.71,27.36-13.64.35-.28.35-3.73,1.85-5.07C62.82,4.48,74.69-.43,77.37.03c2.23.38,2.47,3.17,3.17,3.71Z"/>
        <path class="cls-9" d="M80.54,3.74c7.89,6.13,9.68,2.26,13.61,4.45.31.17,1.89,3.54,4.39,5.55.49,3.32-1.12,8.93.42,11.6,3.37,2.9,18.23,12.78,23.58,16.4-.57.72-.5,3.15-2,4-15.67-12.26-35.02-27.69-56-26v-2c10.75.35,19.56.14,29.99,3.99,3.56-9.77-5.54-13.75-13.99-11.99-.28-.93-1.06-1.81-2-2v-2l2-2Z"/>
        <path class="cls-2" d="M134.54,31.74c.54-.26,1.45.26,2,0,10.51,1.83-7.77,17.9-9.96,19.05-5.95,3.11-4.99-4.16-6.04-5.05,3.6-6.76,7.09-10.96,14-14ZM130.51,43.73v-3.98h-1.96v3.98h1.96Z"/>
        <path class="cls-4" d="M154.54,65.74c-12-10.17-2.46-12.31,0-18,2.79,7.93,1.18,11.37,0,18Z"/>
        <path class="cls-5" d="M120.54,45.74c1.04.89.09,8.16,6.04,5.05,2.2-1.15,20.47-17.22,9.96-19.05,2.55-1.19,14.8-7.33,15.99-5.99,1.94,21.45-5.02,18.87-12.02,32.96,0,1.49,4.31,1.65,6.1,3.89,5.17,6.46,11.84,27.98-2.62,24.82-10.84-2.38-17.26-17.71-18.58-17.81-4.68-.34-18.36,14.45-24.22,17.78-17.22,9.79-37.52,10.23-56.65,6.35,9.81-20.45,13.65-47.7-3.96-65-.04-1.64,21.5-8.65,23.96-9,20.97-1.69,40.34,13.75,56,26ZM138.53,45.76c-2.51-1.33-6.97,3.2-6,3.96,2.51,1.33,6.97-3.2,6-3.96ZM82.35,47.93c-2.97-2.1-16.63,3.93-19.8,6.82l19.98-3.01-2,20.01-17.01-5.97c1.45,13.56,34.5,18.64,18.83-17.85ZM142.52,67.77c-.89-.83-7.93-2.15-9.98-2.01,1.28,4.6,6.34,4.24,9.99,3.96-.1-.64.27-1.7,0-1.95Z"/>
        <path class="cls-7" d="M40.54,91.74c-1.46-.47-4.2.32-6,0l-23.99-19.01c2.56-3.14,9.65-.73,7.98-6.98H4.54C-.34,54.99,28.55,26.81,36.48,30.63c16.71,8.05,12.59,47.46,4.05,61.11ZM25.56,45.76c-6.3,1.78-1.21,13.01,3.95,11.97s4.49-14.35-3.95-11.97Z"/>
        <path class="cls-10" d="M92.52,95.75c2.3,18.31-10.3,11.13-19.98,4.98l19.98-4.98Z"/>
        <path class="cls-10" d="M74.54,7.74l-2,5.98c3.66,1.27,5.38-3.44,8-3.98,8.45-1.75,17.55,2.22,13.99,11.99-12.28-4.71-25.55-3.61-37.99-4.01-.25-.19,1.76-5.78,2-5.98,12.05.9,6.58-3.39,16-4Z"/>
        <rect class="cls-5" x="128.56" y="39.75" width="1.96" height="3.98"/>
        <path class="cls-7" d="M78.54,5.74v2c-9.13-.68-7.68,1.39-14,4-1.47-5.48,10.19-8.26,14-6Z"/>
        <path class="cls-1" d="M78.54,7.74c.94.19,1.72,1.07,2,2-2.62.54-4.34,5.25-8,3.98l2-5.98c1.23-.06,2.93-.21,4,0Z"/>
        <path class="cls-1" d="M82.35,47.93c15.66,36.42-17.32,31.48-18.83,17.85l17.01,5.97,2-20.01-19.98,3.01c3.17-2.89,16.83-8.92,19.8-6.82Z"/>
        <path class="cls-1" d="M142.52,67.77c.28.26-.1,1.31,0,1.95-3.65.28-8.71.64-9.99-3.96,2.05-.15,9.09,1.17,9.98,2.01Z"/>
        <path class="cls-1" d="M138.53,45.76c.97.76-3.49,5.29-6,3.96-.97-.76,3.49-5.29,6-3.96Z"/>
        <path class="cls-9" d="M25.56,45.76c8.44-2.38,8.91,10.97,3.95,11.97s-10.25-10.19-3.95-11.97Z"/>
      </g>
      <g>
        <path class="cls-8" d="M206.54,65.74c-1.72,6.63,5.86,1.47,6.43,7.54,10.91-5.81,31.27,20.11,33.08,29.93,1.53,8.33-.51,18.87-1.67,27.35-.51,3.7-3.63,6.85-3.41,9.83.38,4.98,9.21,14.03,11.08,20.82,6.61,21.76-4.75,45.04-22.62,56.52-1.08,2.15,5.56,31.83-.27,47.61-4.24,11.47-15.02,14.77-17.58,20.44-2.91,6.45-.4,22.14-3.64,32.35-6.26,19.68-27.66,34.31-48.41,33.73-18.65-2.22-60.39-17.09-50.96-42.11,4.34-2.93,21.21,16.39,27.28,19.67,3.91,2.11,20.03,8.04,23.86,8.21,19.4.86,43.05-24.08,34.81-43.91-26.66,15.63-89.16-33.25-63.02-58.02,11.56-10.95,26.41-4.7,39.04.03,7.3,7.72,15.81,14.09,23.02,21.98,5.8,6.34,8.95,20.95,17.88,9.92,7.58-9.38,9.75-26.58,6.2-37.98-3.02-9.68-9.56-3.37-16.86-3.05-24.64-1.78-41.45-12.47-40.24-38.86l2-4c2.8-1.19,5.53-2.84,8-4,3.05.23,6.95.23,10,0,3.75,2.18,5.08,2.37,10,2,1.77,4.81,7.34,3.48,11.08,5.92,18.63,15.26,22.72,30.54,36.92.08,1.87-6.11,1.92-7.27,2-14,0-.21,1.58-1.1,1.47-2.63-.37-5.23-7.11-21.9-12.74-23.17-3.34-.75-5.95,3.66-6.73,3.8-4.3.9-13.48-2.16-16,2-43.64-.36-56.7-48.4-1.56-37.45,5.79,1.76,24.11,14.18,27.48,11.38,5.1-20.84,1.97-25.24-10.54-41.33-1.31-1.49-20.98-13.27-23.28-13.79-6.52-1.47-10.01.54-16.1,1.18-3.04-13.52,14.76-10.13,23.99-7.99ZM218.53,141.73c3.05-12.36-29.45-16.78-37.98-15.98-4.14,4.02,12.36,14.69,15.47,15.51,6.72,1.79,15.47-.24,22.51.47ZM208.53,213.73c-.19-9.91-30.73-27.57-35.72-19.72-8.71,13.71,26.36,23.27,35.72,19.72ZM190.54,281.73c7.94-7.96-36.02-51.47-51.13-36.13-12.42,17.78,37.04,40.56,51.13,36.13Z"/>
        <path class="cls-6" d="M170.54,235.74c13.06,5.04,23.27,11.46,30.4,23.55,13.34,7.7,11.57-26.85,4.33-29.28-4.44-1.49-14.03,3.02-12.73-4.27,12.2,3.75,21.81-7.39,25.1,3.91,3.56,11.41,1.39,28.61-6.2,37.99-8.93,11.03-12.08-3.58-17.88-9.92-7.21-7.88-15.72-14.26-23.02-21.98Z"/>
        <path class="cls-4" d="M190.54,181.74c11.29-.57,6.4,1.35,11.62,3.79,4.31,2.02,18.79,9.49,21.73,9.74,5.84.5,8.89-7.36,14.65-7.54-14.21,30.48-18.29,15.17-36.92-.08-3.74-2.44-9.31-1.11-11.08-5.92Z"/>
        <path class="cls-4" d="M222.54,151.74c.79-.14,3.4-4.56,6.73-3.8,5.01,1.07,16.05,21.65,11.27,25.8-6.91-8.13-7.32-17.3-18-22Z"/>
        <path class="cls-6" d="M160.54,191.74c2.36,23.65,7.63,23.46,28,34-5.87,4.96-12.69-4.12-15.54-5.89-2.29-1.47-5.81-.52-8.01-2.72-2.26-3.23-16.16-26.88-4.45-25.4Z"/>
        <path class="cls-4" d="M216.54,151.74c1.04,8.12-5.81,2.89-10,2,1.73-3.47,6.93-1.57,10-2Z"/>
        <path class="cls-3" d="M206.54,65.74c4.5,1.04,11.59.86,10,6-.55-.11-2.27,2.31-3.57,1.54-.35-.21-.36-2.26-1.19-2.75-2.84-1.68-6.51.4-5.24-4.79Z"/>
        <path class="cls-4" d="M180.54,179.74c.22-.02,1.89-2.79,3.99-1.99.24,1.16-.34,3.66.01,3.99l-4-2Z"/>
        <path class="cls-6" d="M162.54,183.74l-2,4c-.02-.22-3.32-2.6-1.99-3.99.43-.45,3.09.43,3.99-.01Z"/>
        <path class="cls-6" d="M190.54,281.73c-14.08,4.43-63.55-18.34-51.13-36.13,15.11-15.35,59.07,28.17,51.13,36.13Z"/>
        <path class="cls-6" d="M208.53,213.73c-9.36,3.55-44.43-6.01-35.72-19.72,4.99-7.85,35.53,9.8,35.72,19.72Z"/>
        <path class="cls-6" d="M218.53,141.73c-7.05-.71-15.79,1.32-22.51-.47-3.11-.82-19.61-11.49-15.47-15.51,8.47-.8,41.03,3.6,37.98,15.98Z"/>
      </g>
    </g>
  </g>
</svg>