<?xml version="1.0" encoding="UTF-8"?>
<svg id="Calque_2" data-name="Calque 2" xmlns="http://www.w3.org/2000/svg" viewBox="0 0 180.76 182.82">
  <defs>
    <style>
      .cls-1 {
        fill: #704834;
      }

      .cls-2 {
        fill: #8f625d;
      }

      .cls-3 {
        fill: #f7f7f0;
      }

      .cls-4 {
        fill: #a78a6a;
      }
    </style>
  </defs>
  <g id="Calque_1-2" data-name="Calque 1">
    <g>
      <path class="cls-1" d="M28.03,158.11c-43.85-29.28-30.31-90.07.05-124.94C46.04,11.67,83.21-1.55,111,.15c62.52,6.35,93,92.98,49.03,137.96-4.56-1.64-14.99,8.36-15.77,11.29-.87,3.26,1.79,2.55,1.77,2.71-1.34,9.83-20.77,16.64-28,20-6.23-3.15-18.06-1.37-24.82.18-4.74,1.08-9.55,5.96-14.24,5.67-4.31-.27-14.24-8.92-20.94-1.85-2.56-1.35-5.09-.35-8-4-.37-.47.73-3.01-.26-3.81-1.13-.92-5.27.27-5.74-.2-2.58-2.58.82-8.21,6-6,3.61-3.52-9-8.4-12.73-8.08-.5.04-3.2,7.2-9.27,4.09ZM144.03,40.11C98.64,6.45,35.21,30.57,20.03,84.11l-5.99-1.99c-.2,6.94-1.79,9.07,5.99,7.99-.24,2.61.06,5.36,0,8-9.39-2.96-8.88,13.35,0,14,.14,1.3-.24,2.84,0,4l-6.02,1.01c6.53,12.79-2.49,21.51,13.05,30.97l1.49-3.01,7.49-2.98c.26.22,2.81,1.31,4,2,2.52,8.37,20.2,14.57,27.5,15.55,9.06,1.22,10.42-2.24,18.49-3.54l-1.99,7.97c7.22-2.74,21.06-.03,25.99-5.99,8.16-.1,14.46,5.98,14-6,3.23-8.52,6.44-5.64,12.07-10.92,27.59-32.76,33.06-54.14,15.92-93.07-1.51-4.64,1.2-8.78-8-8ZM146.02,24.12c-2.18-2.18-6.16,1.8-3.98,3.98s6.16-1.8,3.98-3.98ZM149.01,28.15c-1.98,1.39,1.08,2.75,2.04,3.92,1.99-1.31-.93-2.65-2.04-3.92ZM155.03,32.11v2c1.3-.67,1.3-1.33,0-2Z"/>
      <path class="cls-2" d="M118.03,172.11c-21.31,9.91-36.84,16.18-60,4,6.7-7.07,16.63,1.58,20.94,1.85,4.69.29,9.5-4.59,14.24-5.67,6.76-1.54,18.59-3.32,24.82-.18Z"/>
      <path class="cls-2" d="M28.03,158.11c6.08,3.12,8.77-4.04,9.27-4.09,3.73-.33,16.34,4.56,12.73,8.08-5.18-2.21-8.58,3.42-6,6,3.53.62,6.98-2.41,6,4.01-5.19,1.28-22.94-8.2-22-14Z"/>
      <path class="cls-2" d="M160.03,138.11c-3.82,5-5.83,13.02-14,14-7.62-1.35,9.84-16.19,14-14Z"/>
      <polygon class="cls-3" points="98.03 158.11 94.05 160.09 94.05 158.13 98.03 158.11"/>
      <path class="cls-3" d="M144.03,40.11c2.31,2.12,3.9,6.77,8,8,17.14,38.98,11.65,60.31-15.93,93.08-5.64,5.28-8.85,2.41-12.07,10.92-12.36,6.7-12.21,6.3-26,6,19.59-19.04,36.87-47.35,22-74-6.37-14.93-15.27-26.06-32.99-28-30.21-3.3-58.83,19.52-45.05,51.04,9.81,22.43,41.5,20.8,42.03-5.03-7.89-1.65-11.28,5.9-18.97,6.07-19.51.43-17.87-32.97,4.44-37.62,22.83-4.77,41.89,10.12,42.55,33.54-6.66,38.68-34.35,63.41-72,40-6.68-1.36-17.48-22.56-20-28-.15-5.68-.31-12.12,0-18-4.74-27.81,27.65-62.39,52.36-70.64,20.27-5.38,55.7-1.95,71.64,12.64Z"/>
      <path class="cls-2" d="M98.03,158.11l-3.99.02v1.96c4.67-3.25,10.65-1.62,15.99-1.98-4.93,5.95-18.78,3.24-25.99,5.99l1.99-7.97c-8.07,1.3-9.43,4.76-18.49,3.54-7.3-.98-24.99-7.18-27.5-15.55,43.89,24.68,62.7-3.63,73.94-43.02,1.45-8.1-4.08-14.39,6.06-16.98,14.87,26.65-2.42,54.96-22,74Z"/>
      <path class="cls-2" d="M20.03,116.11c.66,3.16,13.6,23.97,16,26l-7.49,2.98-1.49,3.01c-15.54-9.46-6.52-18.18-13.05-30.97l6.02-1.01Z"/>
      <path class="cls-2" d="M20.03,98.11c-.1,4.38-.46,9.81,0,14-8.88-.65-9.39-16.96,0-14Z"/>
      <path class="cls-2" d="M124.03,152.11c.18,10.22-3.59,7.48-12,6l12-6Z"/>
      <path class="cls-2" d="M20.03,84.11c-.33,1.76.18,4.06,0,6-7.78,1.08-6.19-1.05-5.99-7.99l5.99,1.99Z"/>
      <path class="cls-2" d="M152.03,48.11c-4.1-1.23-5.69-5.88-8-8,9.19-.78,6.49,3.36,8,8Z"/>
      <path class="cls-4" d="M146.02,24.12c2.18,2.18-1.8,6.16-3.98,3.98s1.8-6.16,3.98-3.98Z"/>
      <path class="cls-4" d="M149.01,28.15c1.11,1.27,4.03,2.61,2.04,3.92-.96-1.17-4.02-2.53-2.04-3.92Z"/>
      <path class="cls-4" d="M155.03,32.11c1.3.67,1.3,1.33,0,2v-2Z"/>
      <path class="cls-1" d="M112.03,104.11c-.65-23.42-19.71-38.3-42.55-33.54-22.31,4.66-23.95,38.06-4.44,37.62,7.69-.17,11.09-7.72,18.97-6.07-.53,25.83-32.22,27.46-42.03,5.03-21.89-51.73,64.13-72.2,78.04-23.04-11.98,2.15-1.71,13.52-8,20Z"/>
    </g>
  </g>
</svg>