<?xml version="1.0" encoding="utf-8"?>
<!-- Generator: Adobe Illustrator 24.2.1, SVG Export Plug-In . SVG Version: 6.00 Build 0)  -->
<svg version="1.1" id="Calque_1" xmlns="http://www.w3.org/2000/svg" xmlns:xlink="http://www.w3.org/1999/xlink" x="0px" y="0px"
	 viewBox="0 0 1000 1000" style="enable-background:new 0 0 1000 1000;" xml:space="preserve">
<style type="text/css">
	.st0{fill:#F2EBFF;}
	.st1{fill:#FFFFFF;}
	.st2{fill:#B316B7;}
	.st3{fill:#FEBD80;}
	.st4{fill:#C6C6C6;}
	.st5{fill:#E6E6E6;}
	.st6{fill:#E2E2E2;}
	.st7{fill:#D1D1D1;}
	.st8{fill:#EAEAEA;}
	.st9{fill:#EDEDED;}
</style>
<g id="baby_bottle">
	<path id="XMLID_53_" class="st0" d="M368.81,480.66l-53.82-53.82c-10.4-10.4-27.27-10.4-37.67,0l-87.45,87.45
		c-7.43,7.43-7.43,19.48,0,26.91l64.58,64.58c7.43,7.43,19.48,7.43,26.91,0l87.45-87.45C379.21,507.93,379.21,491.06,368.81,480.66z
		"/>
	<path id="XMLID_52_" class="st1" d="M261.15,443.02l-71.28,71.28c-7.43,7.43-7.43,19.48,0,26.91l64.58,64.58
		c7.43,7.43,19.48,7.43,26.91,0l71.28-71.28L261.15,443.02z"/>
	<path id="XMLID_51_" class="st2" d="M396.39,473.26l-74-74c-4.83-4.83-12.66-4.83-17.49,0l0,0c-4.83,4.83-4.83,12.66,0,17.49l74,74
		c4.83,4.83,12.66,4.83,17.49,0l0,0C401.22,485.92,401.22,478.09,396.39,473.26z"/>
	<path id="XMLID_50_" class="st3" d="M390.9,467.78l-31.51-31.51l-31.51-31.51c8.42-3.12,22.23,2.13,30.42,7.46
		c8.19,5.33,10.75-10.18,13.52-14.54c0.77-1.21,1.65-2.39,2.71-3.45c7.43-7.43,19.47-7.43,26.91,0c7.43,7.43,7.44,19.47,0,26.91
		c-1.07,1.07-2.24,1.94-3.45,2.71c-4.36,2.77-19.88,5.33-14.54,13.52C388.77,445.55,394.03,459.35,390.9,467.78z"/>
	<path id="XMLID_49_" d="M345.83,517.37c1.16,0,2.32-0.44,3.2-1.33c1.77-1.77,1.77-4.63,0-6.4l-18.87-18.87
		c-1.77-1.77-4.63-1.77-6.4,0c-1.77,1.77-1.77,4.63,0,6.4l18.87,18.87C343.52,516.93,344.67,517.37,345.83,517.37z"/>
	<path id="XMLID_48_" d="M302.23,512.3c-1.77,1.77-1.77,4.63,0,6.4l18.87,18.87c0.88,0.88,2.04,1.33,3.2,1.33
		c1.16,0,2.32-0.44,3.2-1.33c1.77-1.77,1.77-4.63,0-6.4l-18.87-18.87C306.86,510.53,304,510.53,302.23,512.3z"/>
	<path id="XMLID_47_" d="M280.7,533.82c-1.77,1.77-1.77,4.63,0,6.4l18.87,18.87c0.88,0.88,2.04,1.33,3.2,1.33s2.32-0.44,3.2-1.33
		c1.77-1.77,1.77-4.63,0-6.4l-18.87-18.87C285.34,532.06,282.47,532.06,280.7,533.82z"/>
	<path id="XMLID_46_" d="M259.18,555.35c-1.77,1.77-1.77,4.63,0,6.4l18.87,18.87c0.88,0.88,2.04,1.33,3.2,1.33
		c1.16,0,2.32-0.44,3.2-1.33c1.77-1.77,1.77-4.63,0-6.4l-18.87-18.87C263.81,553.58,260.95,553.58,259.18,555.35z"/>
	<path id="XMLID_45_" d="M298.85,480.72c0.84-0.84,1.33-2.01,1.33-3.2c0-1.19-0.48-2.36-1.33-3.2c-0.84-0.84-2.01-1.32-3.2-1.32
		c-1.19,0-2.36,0.48-3.2,1.32c-0.85,0.84-1.33,2.01-1.33,3.2c0,1.19,0.48,2.36,1.33,3.2c0.84,0.84,2.01,1.33,3.2,1.33
		C296.84,482.05,298.01,481.56,298.85,480.72z"/>
</g>
<g id="diaper">
	<path id="XMLID_36_" class="st1" d="M895.09,116.15V88.18c0-12.41-10.1-22.5-22.51-22.5H635.63c-12.41,0-22.51,10.09-22.51,22.5
		v27.96c-5.01,2.08-8.53,7.02-8.53,12.77v14.55c0,5.75,3.53,10.69,8.53,12.77v7.95c0,37.66,14.67,73.07,41.29,99.69
		c26.63,26.63,62.03,41.29,99.69,41.29c36.27,0,70.73-13.74,97.03-38.7c1.75-1.66,1.83-4.44,0.16-6.19
		c-1.66-1.76-4.44-1.83-6.2-0.16c-14.2,13.48-30.95,23.46-49.1,29.51c-3.7-9.48-5.57-19.48-5.57-29.76
		c0-45.25,36.81-82.06,82.06-82.06c4.36,0,8.73,0.34,13.01,1.03c-2.82,25.12-12.8,49.13-28.84,68.8c-1.52,1.87-1.24,4.64,0.63,6.17
		c0.81,0.66,1.79,0.98,2.76,0.98c1.27,0,2.53-0.55,3.4-1.61c20.4-25.03,31.63-56.64,31.63-88.99v-7.95
		c5.01-2.08,8.53-7.01,8.53-12.77v-14.55C903.63,123.17,900.1,118.23,895.09,116.15z M613.35,143.47v-14.55
		c0-2.79,2.27-5.06,5.06-5.06h12.09v24.66h-12.09C615.62,148.52,613.35,146.26,613.35,143.47z M712.2,289.66
		c-19.23-6.4-36.84-17.23-51.59-31.98c-21.49-21.48-34.66-49.06-37.92-78.84c4.29-0.68,8.66-1.03,13.02-1.03
		c45.25,0,82.06,36.81,82.06,82.06C717.78,270.16,715.9,280.17,712.2,289.66z M886.33,164.19c0,1.97-0.05,3.93-0.13,5.89
		c-4.52-0.68-9.12-1.03-13.7-1.03c-50.08,0-90.82,40.74-90.82,90.82c0,11.12,1.99,21.97,5.9,32.26
		c-10.82,2.82-22.05,4.28-33.47,4.28c-11.45,0-22.68-1.45-33.48-4.26c3.92-10.3,5.92-21.14,5.92-32.28
		c0-50.08-40.74-90.82-90.82-90.82c-4.58,0-9.18,0.35-13.7,1.03c-0.09-1.96-0.14-3.92-0.14-5.89v-6.9h57.14
		c11.63,0,21.09-9.46,21.09-21.09c0-11.63-9.46-21.1-21.09-21.1h-57.14v-4.82h30.46c2.42,0,4.38-1.96,4.38-4.38
		c0-2.42-1.96-4.38-4.38-4.38h-30.46V88.18c0-7.58,6.17-13.74,13.75-13.74h236.95c7.58,0,13.75,6.16,13.75,13.74v13.33H669.88
		c-2.42,0-4.38,1.96-4.38,4.38c0,2.42,1.96,4.38,4.38,4.38h216.46v4.82H829.2c-11.63,0-21.1,9.46-21.1,21.1
		c0,11.63,9.46,21.09,21.1,21.09h57.13V164.19z M639.26,148.52v-24.66h39.76c6.8,0,12.34,5.53,12.34,12.34
		c0,6.8-5.53,12.33-12.34,12.33H639.26z M868.96,123.86v24.66H829.2c-6.8,0-12.34-5.53-12.34-12.33c0-6.8,5.53-12.34,12.34-12.34
		H868.96z M894.87,143.47c0,2.79-2.27,5.06-5.06,5.06h-12.09v-24.66h12.09c2.79,0,5.06,2.27,5.06,5.06V143.47z"/>
	<path id="XMLID_35_" class="st2" d="M894.87,128.92v14.55c0,2.79-2.27,5.06-5.06,5.06h-12.09v-24.66h12.09
		C892.6,123.86,894.87,126.13,894.87,128.92z"/>
	<path id="XMLID_34_" class="st2" d="M868.96,123.86v24.66H829.2c-6.8,0-12.34-5.53-12.34-12.33c0-6.8,5.53-12.34,12.34-12.34
		H868.96z"/>
	<path id="XMLID_33_" class="st2" d="M630.5,123.86v24.66h-12.09c-2.79,0-5.06-2.27-5.06-5.06v-14.55c0-2.79,2.27-5.06,5.06-5.06
		H630.5z"/>
	<path id="XMLID_32_" class="st2" d="M691.35,136.19c0,6.8-5.53,12.33-12.34,12.33h-39.76v-24.66h39.76
		C685.82,123.86,691.35,129.39,691.35,136.19z"/>
	<path id="XMLID_28_" class="st2" d="M669.88,101.51h216.46V88.18c0-7.58-6.17-13.74-13.75-13.74H635.63
		c-7.58,0-13.75,6.16-13.75,13.74v13.33h30.46c2.42,0,4.38,1.96,4.38,4.38c0,2.42-1.96,4.38-4.38,4.38h-30.46v4.82h57.14
		c11.63,0,21.09,9.46,21.09,21.1c0,11.63-9.46,21.09-21.09,21.09h-57.14v6.9c0,1.97,0.05,3.94,0.14,5.89
		c4.51-0.68,9.11-1.03,13.7-1.03c50.08,0,90.82,40.74,90.82,90.82c0,11.14-1.99,21.98-5.92,32.28c10.8,2.81,22.03,4.26,33.48,4.26
		c11.42,0,22.66-1.46,33.47-4.28c-3.92-10.3-5.9-21.14-5.9-32.26c0-50.08,40.74-90.82,90.82-90.82c4.58,0,9.18,0.35,13.7,1.03
		c0.09-1.96,0.13-3.92,0.13-5.89v-6.9H829.2c-11.63,0-21.1-9.46-21.1-21.09c0-11.63,9.46-21.1,21.1-21.1h57.13v-4.82H669.88
		c-2.42,0-4.38-1.96-4.38-4.38C665.49,103.48,667.45,101.51,669.88,101.51z M738.26,137.24c5.85,0,11.42,2.03,15.85,5.68
		c4.43-3.65,10-5.68,15.85-5.68c13.75,0,24.95,11.2,24.95,24.96c0,4.54-1.24,8.99-3.57,12.87c-4.42,7.32-19.05,18.08-35.9,23.44
		c-0.43,0.13-0.88,0.2-1.33,0.2c-0.39,0-0.79-0.05-1.17-0.16c-9.99-2.77-17.97-7.44-22.91-10.86c-5.96-4.14-10.88-8.85-13.15-12.62
		c-2.34-3.88-3.58-8.33-3.58-12.88C713.31,148.44,724.5,137.24,738.26,137.24z"/>
	<path id="XMLID_24_" class="st1" d="M769.96,137.24c-5.85,0-11.42,2.03-15.85,5.68c-4.43-3.65-10-5.68-15.85-5.68
		c-13.75,0-24.95,11.2-24.95,24.96c0,4.55,1.24,9,3.58,12.88c2.27,3.77,7.18,8.48,13.15,12.62c4.94,3.43,12.92,8.1,22.91,10.86
		c0.38,0.11,0.78,0.16,1.17,0.16c0.45,0,0.89-0.07,1.33-0.2c16.85-5.36,31.49-16.12,35.9-23.44c2.34-3.88,3.57-8.33,3.57-12.87
		C794.91,148.44,783.71,137.24,769.96,137.24z M783.83,170.54c-2.89,4.8-15.05,14.22-29.8,19.2c-15.38-4.63-27.02-14.85-29.64-19.2
		c-1.52-2.51-2.32-5.4-2.32-8.35c0-8.93,7.27-16.2,16.19-16.2c4.84,0,9.39,2.14,12.48,5.87c0.84,1,2.07,1.59,3.38,1.59
		s2.54-0.58,3.37-1.59c3.1-3.73,7.64-5.87,12.48-5.87c8.93,0,16.2,7.27,16.2,16.2C786.15,165.15,785.35,168.03,783.83,170.54z"/>
	<path id="XMLID_23_" class="st2" d="M786.15,162.2c0,2.95-0.8,5.83-2.32,8.35c-2.89,4.8-15.05,14.22-29.8,19.2
		c-15.38-4.63-27.02-14.85-29.64-19.2c-1.52-2.51-2.32-5.4-2.32-8.35c0-8.93,7.27-16.2,16.19-16.2c4.84,0,9.39,2.14,12.48,5.87
		c0.84,1,2.07,1.59,3.38,1.59s2.54-0.58,3.37-1.59c3.1-3.73,7.64-5.87,12.48-5.87C778.88,146,786.15,153.27,786.15,162.2z"/>
</g>
<g id="milk">
	<polygon id="XMLID_22_" class="st4" points="237.77,307.56 184.3,284.64 184.3,158.61 237.77,177.71 	"/>
	<polygon id="XMLID_21_" class="st5" points="310.33,288.46 237.77,307.56 237.77,177.71 310.33,158.61 	"/>
	<polygon id="XMLID_20_" class="st6" points="283.6,105.14 211.03,120.42 211.03,105.14 283.6,89.87 	"/>
	<polygon id="XMLID_19_" class="st7" points="237.77,177.71 184.3,158.61 211.03,120.42 211.03,120.42 	"/>
	<polygon id="XMLID_18_" class="st8" points="310.33,158.61 237.77,177.71 211.03,120.42 283.6,105.14 	"/>
	<polygon id="XMLID_17_" class="st2" points="310.33,231.18 237.77,288.46 237.77,231.18 310.33,170.07 	"/>
	<polygon id="XMLID_16_" class="st2" points="184.3,265.55 237.77,288.46 237.77,231.18 184.3,208.26 	"/>
	<path id="XMLID_15_" class="st1" d="M269.14,154.31L269.14,154.31c-8.47,2.22-11.29-5.43-12.62-10.51l0,0
		c-1.33-5.08-2.61-13.13,5.85-15.35l0,0c8.47-2.22,11.29,5.43,12.62,10.51l0,0C276.32,144.05,277.61,152.1,269.14,154.31z"/>
	<polygon id="XMLID_14_" class="st9" points="268.32,108.36 275.96,106.75 275.96,91.47 268.32,93.08 	"/>
	<polygon id="XMLID_13_" class="st9" points="253.04,111.57 260.68,109.97 260.68,94.69 253.04,96.3 	"/>
	<polygon id="XMLID_12_" class="st9" points="237.77,114.79 245.4,113.18 245.4,97.91 237.77,99.51 	"/>
	<polygon id="XMLID_11_" class="st9" points="222.49,118.01 230.13,116.4 230.13,101.12 222.49,102.73 	"/>
</g>
<g id="sockets">
	<path id="XMLID_10_" class="st1" d="M256.63,721.27c-9.54,0.29,2.43,66.91-4.27,88.59c-9.07,29.35-48.03,39.39-48.03,62.44
		c-3.29,32.61,41.34,28.77,61.37,21.35c80.01-43.31,40.82-85.73,53.89-157.36C344.46,712.43,269.74,724.23,256.63,721.27z"/>
	<path id="XMLID_9_" class="st1" d="M432.3,730.16c9.54,0.29-2.43,66.91,4.27,88.59c9.07,29.35,48.03,39.39,48.03,62.44
		c3.29,32.61-41.34,28.77-61.37,21.35c-80.01-43.31-40.82-85.73-53.89-157.36C344.47,721.32,419.18,733.12,432.3,730.16z"/>
</g>
<g id="turbulette">
	<g id="XMLID_7_">
		<path id="XMLID_8_" class="st1" d="M619.81,743.84c2.01-14.1,29.97-209.46,34.99-223.47c1.77-4.94,4.3-7.98,4.3-7.98
			c4.48-5.39,8.87-5.45,13.51-9.82c2.34-2.21,5.15-5.89,6.75-12.28c2.46-24.56,3.48-47.68,5.93-72.24l32.98,0.59
			c0.94,0.02,1.76,0.64,2.02,1.54c0.86,2.9,2.15,6.15,3.11,9.14c0.51,1.59,1.94,2.71,3.61,2.8c13.39,0.7,26.77,1.41,40.16,2.11
			c2.23,0.12,4.36-1.01,5.49-2.93c2.52-4.3,3.46-7.81,5.6-11.92c0.56-1.07,1.67-1.75,2.88-1.78l34.71,0.87
			c1.84,23.74,2.86,45.63,4.71,69.37c4.17,9.98,9.19,13.41,12.89,14.73c6.71,2.41,12.31-0.9,17.8,3.07
			c3.65,2.64,4.68,6.81,5.53,9.21c6.97,19.78,31.64,222.38,34.38,244.95c1.48,13.07,1.23,31.68-9.21,47.89
			c-21.62,33.55-71.71,33.08-119.11,32.64c-51.75-0.49-118.65-1.13-139.97-43.07C613.69,779.18,615.83,759.08,619.81,743.84z"/>
	</g>
	<circle id="XMLID_6_" class="st1" cx="698.57" cy="434.27" r="3.4"/>
	<circle id="XMLID_5_" class="st1" cx="707.24" cy="433.26" r="2.86"/>
	<circle id="XMLID_4_" class="st1" cx="790.93" cy="429.86" r="3.4"/>
	<circle id="XMLID_3_" class="st1" cx="802.65" cy="428.95" r="3.1"/>
	<g id="XMLID_1_">
		<path id="XMLID_2_" class="st1" d="M718.27,418.64c0.94,0.02,1.76,0.64,2.02,1.54c0.86,2.9,2.15,6.15,3.11,9.14
			c0.51,1.59,1.94,2.71,3.61,2.8c13.39,0.7,26.77,1.41,40.16,2.11c2.23,0.12,4.36-1.01,5.49-2.93c2.52-4.3,3.46-7.81,5.6-11.92
			c0.56-1.07,1.67-1.75,2.88-1.78c0,0,2.18,38.59-7.23,41.66c-11.34,3.7-35.92,4.74-46.46-1.7
			C718.92,452.34,718.27,418.64,718.27,418.64z"/>
	</g>
</g>
</svg>
