<?xml version="1.0" encoding="utf-8"?>
<!-- Generator: Adobe Illustrator 24.2.1, SVG Export Plug-In . SVG Version: 6.00 Build 0)  -->
<svg version="1.1" id="Calque_1" xmlns="http://www.w3.org/2000/svg" xmlns:xlink="http://www.w3.org/1999/xlink" x="0px" y="0px"
	 viewBox="0 0 1000 1000" style="enable-background:new 0 0 1000 1000;" xml:space="preserve">
<style type="text/css">
	.st0{fill:#FFFFFF;}
	.st1{fill:#C4AEF2;}
	.st2{fill:#CECECE;}
	.st3{fill:#E8AD8C;}
	.st4{fill:#E19974;}
	.st5{fill:#DC8758;}
	.st6{fill:#C86D36;}
	.st7{fill:#C8EFFE;}
	.st8{fill:#99E6FC;}
	.st9{fill:#D77F4A;}
	.st10{fill:#766E6E;}
	.st11{fill:#5B5555;}
</style>
<g id="XMLID_237_">
	<g id="XMLID_225_">
		<path id="XMLID_229_" class="st0" d="M944.67,265.88c-3.37,13.62-29.03,6.96-39.39,3.66c-2.65-0.84-4.62-3.07-5.14-5.81
			c-4.31-22.66-24.75-126.56-36.93-126.2c-11.95,0.36-28.99,100.83-33.08,126.07c-0.58,3.55-3.18,6.42-6.65,7.35
			c-11.72,3.14-37.41,8.72-38.56-2.39c-1.47-14.2,16.97-23.91,16.97-23.91l7.65-168.95c0.05-1.04-0.54-2.01-1.49-2.44l-0.93-0.42
			c-2.42-1.11-3.96-3.52-3.95-6.18l0.09-16.34c0.01-1.74,0.55-3.43,1.55-4.85l4.34-6.14h104.26c1.87,0,3.59,1.03,4.48,2.68
			l2.12,3.96c0.55,1.03,0.85,2.17,0.88,3.33l0.39,17.2c0.04,1.71-0.76,3.34-2.14,4.35l-0.72,0.53c-1.23,0.9-1.91,2.36-1.82,3.88
			l10.13,168.22C926.72,243.49,949.18,247.67,944.67,265.88z"/>
	</g>
	<g id="XMLID_219_">
		<path id="XMLID_223_" class="st0" d="M612.82,154.64l-0.62-13.52c-0.08-1.69,0.89-3.37,2.5-3.87c0.2-0.06,0.33-0.16,0.34-0.31
			c4.73-52.93,47.65-60.63,52.36-61.31c0.21-0.03,0.34-0.25,0.26-0.46l-6.78-10.45c-0.85-1.31-0.96-2.99-0.22-4.37
			c1.37-2.52,3.97-3.98,6.22-2.34l6.46,10.4c0.2,0.16,0.5,0.05,0.54-0.2l-1.66-21.35c-0.08-0.97,0.35-1.92,1.13-2.5
			c1.59-1.19,4.33-4.25,7.02-4.36c2.49-0.1,3.66-0.01,5.25,1.4c0.26,0.23,0.36,0.59,0.32,0.93l-3.37,27.64
			c0.03,0.23,0.28,0.35,0.48,0.25l5.65-7.07c0.82-1.03,2.06-1.67,3.38-1.68c1.12-0.01,2.42,0.2,3.37,0.92
			c0.81,0.61,1.39,1.57,1.77,2.52c0.62,1.56,0.09,3.33-1.26,4.32l-6.67,4.88c-0.53,0.81-0.14,1.9,0.79,2.19
			c8.74,2.68,44.97,16.65,44.97,64.29c0,0.66,0.58,1.03,1.27,1.24c1.41,0.42,2.34,1.78,2.34,3.26v8.71c0,3.68-3.28,6.49-6.92,5.92
			c-14.1-2.23-45.9-7.02-58.57-7.13c-12.21-0.1-43.88,4.25-55.65,5.94C615.13,158.87,612.95,157.07,612.82,154.64z"/>
	</g>
	<g id="XMLID_214_">
		<path id="XMLID_218_" class="st0" d="M139.34,148.56c2.72-0.76,4,1.59,3.87,4.41l-2.34,78.12c-0.1,4.21,0.62,8.4,2.11,12.34
			l1.41,3.72c1.68,4.44,4.47,8.36,8.12,11.4l2.02,1.68c2.61,2.18,5.89,3.4,9.3,3.47l71.55,1.37c7.53,0.14,14.96-2,21.14-6.3
			c1.5-1.04,2.75-2.06,3.42-2.92c0.58-0.74,1.17-2,1.73-3.48c2.2-5.77,3.02-11.97,2.59-18.12l-5.39-76.29
			c-0.26-3.66,3.58-6.21,6.85-4.54l4.6,2.34c3.87,1.97,8.61,0.53,10.74-3.26l24.4-43.41c1.44-2.57,0.56-5.46-1.27-7.77
			c-15.21-19.16-61.63-55.7-61.63-55.7c-3.81-3.44-9.7-3.16-13.13,0.66c-5.42,6.03-14.55,13.53-26.47,13.61
			c-13.85,0.08-22.86-9.68-27.77-17.3c-2.75-4.27-7.55-3.07-12.41-1.58c-24.54,7.54-66.52,58.62-66.52,58.62
			c-3.14,2.77-3.59,7.51-1.01,10.81l30.55,39.23c1.29,1.93,3.75,2.7,5.91,1.86L139.34,148.56z"/>
	</g>
	<g id="tetinne">
		<g id="XMLID_205_">
			<path id="XMLID_211_" class="st1" d="M688.72,225.85c-1.24,0-2.46,0.11-3.64,0.33c-0.34,0.06-0.68,0.13-1.01,0.21
				c-0.33,0.08-0.66,0.17-0.98,0.26c-1.35,0.4-2.65,0.94-3.86,1.6c-0.01,0.01-0.02,0.01-0.03,0.02s-0.02,0.01-0.03,0.02
				c-0.77,0.42-1.5,0.89-2.21,1.41c-1.18,0.86-2.25,1.86-3.21,2.95c-0.54,0.62-1.04,1.27-1.5,1.96c-0.01,0.01-0.01,0.02-0.02,0.03
				c-0.01,0.01-0.01,0.02-0.02,0.03c-0.47,0.7-0.9,1.43-1.27,2.19c-0.15,0.29-0.29,0.59-0.42,0.89c-0.13,0.3-0.26,0.61-0.38,0.92
				c-0.83,2.18-1.28,4.55-1.28,7.02c0,10.96,8.89,19.85,19.85,19.85s19.85-8.89,19.85-19.85
				C708.57,234.74,699.68,225.85,688.72,225.85z M688.72,259.74c-7.75,0-14.03-6.28-14.03-14.03c0-1.22,0.16-2.41,0.45-3.54
				l0.21,0.14c0.77,0.53,1.65,0.8,2.53,0.8c1.13,0,2.26-0.43,3.11-1.27l5.76-5.66c1.2-1.18,1.69-2.88,1.36-4.49
				c0.2-0.01,0.41-0.01,0.62-0.01c7.75,0,14.04,6.28,14.04,14.04C702.76,253.45,696.47,259.74,688.72,259.74z"/>
		</g>
		<g id="XMLID_194_">
			<path id="XMLID_199_" class="st2" d="M650.85,219.63c3.49,1.87,8.26,4.81,13.53,9.43l3.6-3.02c1.53-1.29,2.98-2.68,4.32-4.16
				l3.4-3.75c-1.8-1.73-4.59-4.73-7-9.06c-3.58-6.45-2.94-9.76-6.92-14.81c-1.65-2.09-4.42-5.61-9.3-6.85
				c-4.07-1.03-9.41-0.42-13.47,3.2c-0.39,0.34-5.24,4.82-4.84,11.61c0.31,5.18,3.49,8.53,5.28,10.42
				C642.84,216.18,645.71,216.88,650.85,219.63z"/>
		</g>
		<g id="XMLID_188_">
			<path id="XMLID_193_" class="st1" d="M686.07,235.47l-5.76,5.66c-1.19,1.17-3.04,1.32-4.41,0.37l-0.69-0.48l-0.48-0.33
				l-5.28-3.68l-1.82-1.27l-0.7-0.49l2-1.39l0,0l4.27-2.98l0,0l0.77-0.54c0.17-0.12,0.34-0.24,0.5-0.37
				c0.28-0.22,0.55-0.46,0.8-0.71c0.16-0.16,0.32-0.33,0.47-0.5l2-2.29l0,0l1.03-1.18l0,0l2.71-3.11l0.43,0.7l1.11,1.81l3.42,5.61
				l0.22,0.35c0.08,0.14,0.16,0.27,0.22,0.42C687.56,232.54,687.25,234.31,686.07,235.47z"/>
		</g>
		<g id="XMLID_170_">
			<g id="XMLID_181_">
				<path id="XMLID_187_" class="st1" d="M640.14,241c0.46-0.26,0.95-0.42,1.45-0.57c8.38-2.49,15.68-6.23,22.44-11.32
					c1.39-1.04,2.75-2.14,4.1-3.3c8.19-7.04,14.05-16.6,18.62-26.51c0.71-1.54,1.17-3.44,2.36-4.62c1.19-1.19,2.36-1.7,3.89-1.05
					c1.25,0.53,2.33,1.68,2.42,3.1c0.09,1.35-0.46,2.84-0.89,4.16c-1.58,4.73-3.64,8.65-6.27,12.77c-2.98,4.68-4.85,7.21-9.2,12.43
					c-1.34,1.61-4.42,4.59-6.03,5.91c-1.83,1.51-20.58,13.1-29.09,15.78c-1.17,0.37-2.44,0.67-3.61,0.29
					c-1.45-0.48-2.52-1.59-2.42-3.15c0.09-1.56,0.61-3.1,2.22-3.92L640.14,241z"/>
			</g>
		</g>
	</g>
	<g id="nourson">
		<path id="XMLID_169_" class="st3" d="M769.75,754.62H455.6c0,0-40.46,86.11,26.51,210.7h261.14
			C810.22,840.74,769.75,754.62,769.75,754.62L769.75,754.62z"/>
		<path id="XMLID_168_" class="st4" d="M743.25,965.32h-24.43c66.97-124.59,26.51-210.71,26.51-210.71h24.43
			C769.76,754.62,810.22,840.74,743.25,965.32L743.25,965.32z"/>
		<g id="XMLID_163_">
			<g id="XMLID_166_">
				<ellipse id="XMLID_167_" class="st5" cx="483.34" cy="903.03" rx="66.36" ry="62.29"/>
			</g>
			<g id="XMLID_164_">
				<ellipse id="XMLID_165_" class="st5" cx="742.01" cy="903.03" rx="66.36" ry="62.29"/>
			</g>
		</g>
		<g id="XMLID_158_">
			<g id="XMLID_161_">
				<path id="XMLID_162_" class="st6" d="M549.7,903.02c0,34.41-29.72,62.3-66.36,62.3c-14.62,0-28.12-4.43-39.08-11.95
					c5.6,1.44,11.48,2.21,17.56,2.21c36.66,0,66.37-27.89,66.37-62.3c0-20.68-10.75-39.02-27.29-50.34
					C529.03,850.16,549.7,874.33,549.7,903.02L549.7,903.02z"/>
			</g>
			<g id="XMLID_159_">
				<path id="XMLID_160_" class="st6" d="M808.37,903.02c0,34.41-29.7,62.3-66.36,62.3c-14.62,0-28.12-4.43-39.08-11.95
					c5.6,1.44,11.49,2.21,17.57,2.21c36.64,0,66.36-27.89,66.36-62.3c0-20.68-10.75-39.02-27.29-50.34
					C787.7,850.16,808.37,874.33,808.37,903.02L808.37,903.02z"/>
			</g>
		</g>
		<path id="XMLID_157_" class="st7" d="M754.12,738.22c-3.13-15.32-10.5-29.57-21.8-40.45c-14.62-14.09-34.44-22.05-54.74-22
			c-25.66,0.06-48.45,12.36-62.78,31.37c-1.07,1.42-3.17,1.42-4.24,0c-14.34-19.01-37.13-31.31-62.78-31.37
			c-20.3-0.05-40.12,7.91-54.74,22c-11.3,10.88-18.68,25.13-21.8,40.45c-5.38,26.37,0.86,53.93,12.56,77.75
			c9.57,19.48,23.45,36.36,39.88,50.45c20.55,17.64,68.47,53.99,84.03,65.74c2.95,2.22,7.01,2.22,9.95,0
			c15.56-11.75,63.48-48.1,84.03-65.74c16.43-14.1,30.31-30.97,39.88-50.45C753.26,792.15,759.5,764.58,754.12,738.22L754.12,738.22
			z"/>
		<path id="XMLID_156_" class="st8" d="M741.57,815.97c-9.57,19.48-23.46,36.36-39.88,50.46c-20.55,17.63-68.47,53.99-84.04,65.74
			c-2.94,2.22-7,2.22-9.95,0c-3.09-2.33-7.45-5.62-12.61-9.55c15.59-11.76,63.47-48.09,84-65.72
			c16.43-14.09,30.32-30.96,39.88-50.45c11.7-23.82,17.94-51.38,12.56-77.76c-3.12-15.31-10.5-29.56-21.8-40.45
			c-4.01-3.86-8.41-7.25-13.09-10.15c13.32,3.33,25.7,10.08,35.67,19.69c11.3,10.88,18.68,25.13,21.8,40.45
			C759.5,764.59,753.27,792.15,741.57,815.97L741.57,815.97z"/>
		<g id="XMLID_154_">
			<path id="XMLID_155_" class="st5" d="M742.46,653.99c26.52,13.15,51.41,35.97,57.07,66.21c11.45,61.21-73.99,97.74-122.86,82.04
				c-18.14-5.83-29.68-27.16-24.72-45.4c6.27-23.04,31.31-35.02,51.2-42.35c13.13-4.84,20.29-8.03,34.23-9.39
				c0,0-6.76-14.1-31.73-23.54L742.46,653.99z"/>
		</g>
		<g id="XMLID_152_">
			<path id="XMLID_153_" class="st6" d="M676.68,802.24c-0.84-0.28-1.67-0.58-2.49-0.91c48.2,0.28,107.98-33.86,98.28-85.69
				c-4.3-22.99-19.71-41.68-38.51-55.09l8.49-6.56c26.52,13.15,51.41,35.96,57.06,66.22C810.98,781.4,725.54,817.94,676.68,802.24
				L676.68,802.24z"/>
		</g>
		<g id="XMLID_149_">
			<g id="XMLID_150_">
				<path id="XMLID_151_" class="st5" d="M483.13,653.58c-26.56,13.07-51.52,35.81-57.28,66.03
					c-11.64,61.17,73.68,97.97,122.6,82.42c18.15-5.77,29.77-27.07,24.87-45.32c-6.19-23.06-31.2-35.12-51.07-42.51
					c-13.12-4.88-20.71-7.55-34.65-8.96c0,0,8.85-13.34,33.42-23.51L483.13,653.58z"/>
			</g>
		</g>
		<path id="XMLID_148_" class="st5" d="M550.89,422.73c-20.16-32.16-37.61-56.45-79.66-54.23c-45.77,2.42-85.92,49.19-71.16,93.96
			c9.51,28.83,32.57,43.74,59.59,55.86L550.89,422.73z"/>
		<path id="XMLID_147_" class="st5" d="M674.47,422.73c20.16-32.16,37.61-56.45,79.66-54.23c45.78,2.42,85.92,49.19,71.16,93.96
			c-9.51,28.83-32.57,43.74-59.59,55.86L674.47,422.73z"/>
		<path id="XMLID_146_" class="st6" d="M825.29,462.45c-9.51,28.84-32.57,43.74-59.6,55.86l-13.18-13.8
			c22.65-11.36,41.37-25.94,49.69-51.18c10.77-32.69-7.72-66.44-36.32-83.22C806.46,379.02,838.76,421.57,825.29,462.45z"/>
		<ellipse id="XMLID_145_" class="st3" cx="612.68" cy="558.29" rx="184.31" ry="157.43"/>
		<g id="XMLID_142_">
			<circle id="XMLID_144_" class="st9" cx="513.3" cy="581.1" r="18.14"/>
			<circle id="XMLID_143_" class="st9" cx="712.05" cy="581.1" r="18.14"/>
		</g>
		<path id="XMLID_141_" class="st4" d="M796.98,558.29c0,86.95-82.51,157.44-184.31,157.44c-26.6,0-51.89-4.82-74.72-13.48
			c16.01,3.87,32.9,5.95,50.36,5.95c101.79,0,184.31-70.48,184.31-157.43c0-64.25-45.07-119.52-109.66-143.99
			C740.32,425.48,796.98,486.23,796.98,558.29L796.98,558.29z"/>
		<g id="XMLID_136_">
			<g id="XMLID_139_">
				<path id="XMLID_140_" class="st5" d="M550.89,545.82c-4.83,0-8.74-3.92-8.74-8.74V512.6c0-4.83,3.91-8.74,8.74-8.74
					s8.74,3.92,8.74,8.74v24.47C559.63,541.9,555.72,545.82,550.89,545.82z"/>
			</g>
			<g id="XMLID_137_">
				<path id="XMLID_138_" class="st5" d="M674.46,545.82c-4.83,0-8.74-3.92-8.74-8.74V512.6c0-4.83,3.91-8.74,8.74-8.74
					c4.83,0,8.74,3.92,8.74,8.74v24.47C683.21,541.9,679.29,545.82,674.46,545.82z"/>
			</g>
		</g>
		<g id="XMLID_134_">
			<path id="XMLID_135_" class="st5" d="M612.68,655.16c-4.83,0-8.74-3.92-8.74-8.74v-31.75c0-4.83,3.91-8.74,8.74-8.74
				c4.83,0,8.74,3.92,8.74,8.74v31.75C621.42,651.24,617.51,655.16,612.68,655.16z"/>
		</g>
		<path id="XMLID_133_" class="st7" d="M739.22,705.46c-12.31,1.61-24.43,4.74-36.07,9.03c-13.66,5.03-29.73,12.25-40.49,23.73
			h-99.85c-10.74-11.6-26.88-18.92-40.57-24.02c-11.54-4.29-23.59-7.46-35.82-9.12c2.01-2.57,4.22-5.02,6.61-7.32
			c14.62-14.09,34.44-22.05,54.74-22c25.66,0.07,48.44,12.36,62.78,31.37c1.06,1.42,3.17,1.42,4.23,0
			c14.34-19.01,37.13-31.3,62.78-31.37c20.31-0.05,40.13,7.92,54.74,22C734.82,700.17,737.12,702.74,739.22,705.46L739.22,705.46z"
			/>
		<path id="XMLID_132_" class="st10" d="M643.87,563.09c-9.22-4.34-53.17-4.34-62.38,0c-14.16,6.67-15.16,23.92-9.55,36.84
			c4.47,10.29,12.49,17.32,22.11,21.41c11.85,5.04,25.4,5.04,37.25,0c9.62-4.09,17.64-11.12,22.11-21.41
			C659.02,587.02,658.03,569.76,643.87,563.09L643.87,563.09z"/>
		<path id="XMLID_131_" class="st11" d="M653.42,599.93c-4.47,10.29-12.49,17.32-22.11,21.42c-11.85,5.05-25.4,5.05-37.26,0
			c-0.36-0.16-0.71-0.3-1.06-0.47c4.95-0.43,9.84-1.63,14.47-3.6c9.62-4.1,17.64-11.12,22.11-21.4c5.34-12.32,4.68-28.59-7.68-35.85
			c9.82,0.38,18.45,1.42,21.97,3.07C658.03,569.77,659.03,587.02,653.42,599.93z"/>
	</g>
	<g id="creme_solaire">
		<path id="XMLID_130_" class="st0" d="M192.9,408.02c-0.14,1.26-1.33,2.14-3.7,3.85c-3.49,2.52-4.39,3.12-6.37,0.96
			c-0.45-0.49-0.77-1.11-0.82-1.77c-0.15-1.7,1.2-2.57,3.71-4.2c2.38-1.55,4.23-2.75,5.71-1.97
			C192.47,405.44,193.02,406.85,192.9,408.02z"/>
		<path id="XMLID_129_" class="st0" d="M193.05,387.6c-0.11,1.19-1.19,2.25-2.31,2.58c-1.21,0.35-2.49-0.39-4.98-1.9
			c-3.69-2.24-4.59-2.84-3.36-5.52c0.28-0.6,0.72-1.12,1.3-1.43c1.5-0.8,2.84,0.11,5.32,1.78
			C191.36,384.7,193.19,385.93,193.05,387.6z"/>
		<path id="XMLID_128_" class="st0" d="M211.03,421.66c0.07,4.32,0.05,5.4-2.88,5.78c-0.65,0.09-1.33-0.01-1.91-0.34
			c-1.47-0.84-1.42-2.46-1.33-5.44c0.09-2.84,0.16-5.05,1.65-5.81c1.06-0.54,2.54-0.19,3.41,0.58
			C210.94,417.27,210.98,418.74,211.03,421.66z"/>
		<path id="XMLID_127_" class="st0" d="M206.85,379.93c-1.48-0.84-1.43-2.46-1.33-5.44c0.09-2.84,0.16-5.05,1.65-5.81
			c1.06-0.54,2.54-0.19,3.42,0.58c0.95,0.84,0.99,2.31,1.04,5.23c0.07,4.32,0.05,5.4-2.88,5.78
			C208.1,380.36,207.41,380.26,206.85,379.93z"/>
		<path id="XMLID_123_" class="st0" d="M208.16,386.41c-6.35,0-11.49,5.15-11.49,11.49c0,6.35,5.14,11.49,11.49,11.49
			c6.35,0,11.49-5.14,11.49-11.49C219.64,391.56,214.51,386.41,208.16,386.41z M208.16,403.81c-3.27,0-5.91-2.65-5.91-5.91
			c0-3.27,2.65-5.91,5.91-5.91c3.27,0,5.91,2.65,5.91,5.91C214.07,401.17,211.42,403.81,208.16,403.81z"/>
		<path id="XMLID_122_" class="st0" d="M224.15,389.09c-0.45-0.49-0.77-1.11-0.83-1.77c-0.14-1.7,1.21-2.57,3.71-4.2
			c2.38-1.55,4.23-2.75,5.7-1.97c1.05,0.56,1.61,1.97,1.48,3.14c-0.14,1.26-1.33,2.14-3.69,3.85
			C227.02,390.65,226.12,391.25,224.15,389.09z"/>
		<path id="XMLID_121_" class="st0" d="M234.36,411.69c-0.11,1.19-1.19,2.25-2.31,2.58c-1.22,0.36-2.49-0.39-4.99-1.9
			c-3.69-2.24-4.59-2.83-3.35-5.52c0.27-0.6,0.72-1.12,1.3-1.43c1.5-0.8,2.84,0.11,5.32,1.77
			C232.68,408.8,234.51,410.03,234.36,411.69z"/>
		<path id="XMLID_120_" class="st0" d="M236.85,356.41v4.54c0,0.25-0.2,0.45-0.45,0.45l-62.81,0.53c-0.21,0.01-0.39-0.13-0.45-0.33
			v-0.01l-1.23-5.08c-0.06-0.28,0.15-0.56,0.44-0.56h64.04C236.65,355.96,236.85,356.17,236.85,356.41z"/>
		<path id="XMLID_119_" class="st0" d="M192.9,408.02c-0.14,1.26-1.33,2.14-3.7,3.85c-3.49,2.52-4.39,3.12-6.37,0.96
			c-0.45-0.49-0.77-1.11-0.82-1.77c-0.15-1.7,1.2-2.57,3.71-4.2c2.38-1.55,4.23-2.75,5.71-1.97
			C192.47,405.44,193.02,406.85,192.9,408.02z"/>
		<path id="XMLID_118_" class="st0" d="M193.05,387.6c-0.11,1.19-1.19,2.25-2.31,2.58c-1.21,0.35-2.49-0.39-4.98-1.9
			c-3.69-2.24-4.59-2.84-3.36-5.52c0.28-0.6,0.72-1.12,1.3-1.43c1.5-0.8,2.84,0.11,5.32,1.78
			C191.36,384.7,193.19,385.93,193.05,387.6z"/>
		<path id="XMLID_117_" class="st0" d="M211.03,421.66c0.07,4.32,0.05,5.4-2.88,5.78c-0.65,0.09-1.33-0.01-1.91-0.34
			c-1.47-0.84-1.42-2.46-1.33-5.44c0.09-2.84,0.16-5.05,1.65-5.81c1.06-0.54,2.54-0.19,3.41,0.58
			C210.94,417.27,210.98,418.74,211.03,421.66z"/>
		<path id="XMLID_116_" class="st0" d="M205.51,374.49c0.09-2.84,0.16-5.05,1.65-5.81c1.06-0.54,2.54-0.19,3.42,0.58
			c0.95,0.84,0.99,2.31,1.04,5.23c0.07,4.32,0.05,5.4-2.88,5.78c-0.65,0.09-1.33-0.01-1.9-0.34
			C205.37,379.09,205.42,377.48,205.51,374.49z"/>
		<path id="XMLID_112_" class="st0" d="M208.16,386.41c-6.35,0-11.49,5.15-11.49,11.49c0,6.35,5.14,11.49,11.49,11.49
			c6.35,0,11.49-5.14,11.49-11.49C219.64,391.56,214.51,386.41,208.16,386.41z M208.16,403.81c-3.27,0-5.91-2.65-5.91-5.91
			c0-3.27,2.65-5.91,5.91-5.91c3.27,0,5.91,2.65,5.91,5.91C214.07,401.17,211.42,403.81,208.16,403.81z"/>
		<path id="XMLID_111_" class="st0" d="M224.15,389.09c-0.45-0.49-0.77-1.11-0.83-1.77c-0.14-1.7,1.21-2.57,3.71-4.2
			c2.38-1.55,4.23-2.75,5.7-1.97c1.05,0.56,1.61,1.97,1.48,3.14c-0.14,1.26-1.33,2.14-3.69,3.85
			C227.02,390.65,226.12,391.25,224.15,389.09z"/>
		<path id="XMLID_110_" class="st0" d="M234.36,411.69c-0.11,1.19-1.19,2.25-2.31,2.58c-1.22,0.36-2.49-0.39-4.99-1.9
			c-3.69-2.24-4.59-2.83-3.35-5.52c0.27-0.6,0.72-1.12,1.3-1.43c1.5-0.8,2.84,0.11,5.32,1.77
			C232.68,408.8,234.51,410.03,234.36,411.69z"/>
		<path id="XMLID_104_" class="st0" d="M250.84,338.02h-84.6c-2.23,0-3.84,2.12-3.25,4.27l5.81,20.99c0.06,0.2,0.09,0.4,0.11,0.6
			l9.21,103.98c0.01,0.08,0.01,0.15,0.01,0.23l0.44,21.8c0.06,3.44,1.14,6.79,3.09,9.62c0.94,1.36,2.18,2.45,3.6,3.2
			c1.42,0.75,3.02,1.15,4.68,1.15h35.24c3.61,0,7.02-1.63,9.29-4.42l1.45-1.79c1.31-1.6,2.02-3.62,2.02-5.69v-21.1
			c0-0.11,0.01-0.22,0.02-0.33l10.83-109.9c0.02-0.21,0.06-0.41,0.12-0.62l5.17-17.68C254.71,340.18,253.09,338.02,250.84,338.02z
			 M231.6,495.8c0,0.67-0.29,1.31-0.8,1.75c-0.43,0.37-0.97,0.58-1.53,0.58h-42.21c-0.58,0-1.14-0.22-1.57-0.62l-0.09-0.09
			c-0.48-0.44-0.75-1.06-0.75-1.71v-0.82c0-1.28,1.04-2.32,2.32-2.32h12.68c0.65,0,1.26-0.27,1.7-0.74l0.43-0.45
			c0.41-0.44,0.63-1.02,0.62-1.63l-0.01-0.51c-0.02-1.3,1.02-2.36,2.32-2.36h6.81c1.32,0,2.38,1.1,2.32,2.42l-0.03,0.55
			c-0.03,0.72,0.27,1.41,0.81,1.87l0.26,0.22c0.42,0.36,0.95,0.55,1.5,0.56l12.89,0.05c1.28,0,2.31,1.04,2.31,2.32V495.8z
			 M231.6,484.03c0,1.17-0.96,2.13-2.13,2.13h-7.12c-1.12,0-2.05-0.87-2.12-1.99l-0.06-0.77c-0.04-0.53-0.26-1.02-0.64-1.38
			l-0.8-0.77c-0.39-0.38-0.91-0.59-1.45-0.6l-18.29-0.25c-0.59-0.01-1.16,0.23-1.57,0.65l-0.76,0.8c-0.38,0.39-0.6,0.92-0.6,1.47
			v0.7c0,1.17-0.95,2.13-2.13,2.13h-6.91c-1.18,0-2.13-0.96-2.13-2.13v-7.28c0-1.18,0.95-2.13,2.13-2.13h42.44
			c1.17,0,2.13,0.95,2.13,2.13V484.03z M243.92,361.94l-11.96,106.03h-47.85l-10.88-106.03l-0.09-0.34c0.06,0.2,0.23,0.34,0.45,0.33
			l62.81-0.53c0.25-0.01,0.45-0.21,0.45-0.45v-4.54c0-0.25-0.2-0.45-0.45-0.45h-64.04c-0.29,0-0.5,0.28-0.44,0.56L168.89,344h79.93
			L243.92,361.94z"/>
		<path id="XMLID_103_" class="st0" d="M236.85,356.41v4.54c0,0.25-0.2,0.45-0.45,0.45l-62.81,0.53c-0.21,0.01-0.39-0.13-0.45-0.33
			v-0.01l-1.23-5.08c-0.06-0.28,0.15-0.56,0.44-0.56h64.04C236.65,355.96,236.85,356.17,236.85,356.41z"/>
		<g id="sun">
			<g id="sun_eclair">
				<path id="XMLID_102_" class="st0" d="M234.36,411.69c-0.11,1.19-1.19,2.25-2.31,2.58c-1.22,0.36-2.49-0.39-4.99-1.9
					c-3.69-2.24-4.59-2.83-3.35-5.52c0.27-0.6,0.72-1.12,1.3-1.43c1.5-0.8,2.84,0.11,5.32,1.77
					C232.68,408.8,234.51,410.03,234.36,411.69z"/>
				<path id="XMLID_101_" class="st0" d="M193.05,387.6c-0.11,1.19-1.19,2.25-2.31,2.58c-1.21,0.35-2.49-0.39-4.98-1.9
					c-3.69-2.24-4.59-2.84-3.36-5.52c0.28-0.6,0.72-1.12,1.3-1.43c1.5-0.8,2.84,0.11,5.32,1.78
					C191.36,384.7,193.19,385.93,193.05,387.6z"/>
				<path id="XMLID_100_" class="st0" d="M192.9,408.02c-0.14,1.26-1.33,2.14-3.7,3.85c-3.49,2.52-4.39,3.12-6.37,0.96
					c-0.45-0.49-0.77-1.11-0.82-1.77c-0.15-1.7,1.2-2.57,3.71-4.2c2.38-1.55,4.23-2.75,5.71-1.97
					C192.47,405.44,193.02,406.85,192.9,408.02z"/>
				<path id="XMLID_99_" class="st0" d="M234.21,384.28c-0.14,1.26-1.33,2.14-3.69,3.85c-3.5,2.52-4.4,3.12-6.37,0.96
					c-0.45-0.49-0.77-1.11-0.83-1.77c-0.14-1.7,1.21-2.57,3.71-4.2c2.38-1.55,4.23-2.75,5.7-1.97
					C233.79,381.71,234.35,383.12,234.21,384.28z"/>
				<path id="XMLID_98_" class="st0" d="M208.16,427.44c-0.65,0.09-1.33-0.01-1.91-0.34c-1.47-0.84-1.42-2.46-1.33-5.44
					c0.09-2.84,0.16-5.05,1.65-5.81c1.06-0.54,2.54-0.19,3.41,0.58c0.96,0.84,1,2.31,1.05,5.23
					C211.1,425.98,211.08,427.05,208.16,427.44z"/>
				<path id="XMLID_97_" class="st0" d="M208.75,380.27c-0.65,0.09-1.33-0.01-1.9-0.34c-1.48-0.84-1.43-2.46-1.33-5.44
					c0.09-2.84,0.16-5.05,1.65-5.81c1.06-0.54,2.54-0.19,3.42,0.58c0.95,0.84,0.99,2.31,1.04,5.23
					C211.69,378.82,211.67,379.89,208.75,380.27z"/>
			</g>
			<path id="XMLID_93_" class="st0" d="M208.16,386.41c-6.35,0-11.49,5.15-11.49,11.49c0,6.35,5.14,11.49,11.49,11.49
				c6.35,0,11.49-5.14,11.49-11.49C219.64,391.56,214.51,386.41,208.16,386.41z M208.16,403.81c-3.27,0-5.91-2.65-5.91-5.91
				c0-3.27,2.65-5.91,5.91-5.91c3.27,0,5.91,2.65,5.91,5.91C214.07,401.17,211.42,403.81,208.16,403.81z"/>
		</g>
	</g>
	<g id="XMLID_68_" transform="translate(0.000000,1186.000000) scale(0.100000,-0.100000)">
		<g id="XMLID_84_">
			<path id="XMLID_91_" class="st0" d="M1499.45,6099.43c-184.75-165.88-474.6-425.73-643.85-577.7l-308.12-276.14v-144.42
				l-0.2-144.43l10.53-7.75c5.56-4.37,295.8-209.58,644.45-456.12l634.32-448.37l14.1,0.6l14.3,0.6l66.75,94.36
				c36.95,51.85,154.56,217.73,261.44,368.51c482.34,680.21,600.74,847.08,734.64,1036.01c78.67,110.85,146.01,205.81,149.59,210.78
				l6.56,9.14l-25.63,18.08c-14.1,9.93-26.42,18.48-27.61,18.67c-0.99,0.4-14.5-17.28-30.2-39.14
				c-15.5-21.85-244.15-344.08-507.97-716.17c-263.82-372.09-518.7-731.26-566.18-798.01c-47.48-66.95-87.01-121.78-88.01-121.78
				s-275.54,193.69-610.08,430.29c-334.74,236.6-609.68,430.89-611.07,431.69c-1.99,0.99-2.38,20.26-1.99,89.2l0.6,88.01
				l605.91-430.49c333.35-236.8,608.29-432.08,611.07-434.07l4.97-3.58l20.06,27.22c10.93,14.9,172.63,235.01,359.37,489.1
				s378.05,514.13,424.93,578.1c47.08,63.77,167.07,226.87,266.6,362.55l181.38,246.34v18.48c0,9.93-0.4,18.28-0.99,18.28
				s-39.33,11.32-86.02,25.03c-124.76,36.75-700.47,206.21-941.25,277.13c-134.89,39.53-211.97,61.39-217.73,61.39h-8.74
				L1499.45,6099.43z"/>
		</g>
		<g id="XMLID_79_">
			<path id="XMLID_83_" class="st0" d="M2999.92,5992.95c0.6-0.4-46.29-65.16-104.1-143.63
				c-262.43-356.99-1007.2-1370.15-1047.13-1424.58c-13.71-18.87-26.02-33.97-27.02-33.57c-4.37,1.59-1184.01,840.72-1184.4,842.51
				c-0.6,2.38,1217.18,1095.41,1220.36,1095.6c1.19,0,91.38-26.22,200.65-58.41c109.06-32.18,358.58-105.49,554.06-163.1
				c195.68-57.61,362.55-106.88,371.09-109.26C2991.98,5995.93,2999.52,5993.54,2999.92,5992.95z"/>
		</g>
		<g id="XMLID_74_">
			<path id="XMLID_78_" class="st0" d="M2640.15,5370.15c-204.22-280.51-469.23-644.25-588.63-808.54
				c-119.59-164.29-218.13-298.39-218.92-297.99c-0.79,0.4-266.6,190.51-590.81,422.75c-324.01,232.23-590.22,422.15-591.61,422.15
				c-3.38,0-16.29-18.87-14.3-20.66c3.77-3.38,1201.09-860.59,1202.68-860.99c0.99-0.2,47.68,62.58,103.7,139.66
				c56.22,77.08,190.71,261.63,298.78,410.23c581.08,798.01,778.94,1069.78,784.9,1077.92l6.56,9.34l-10.53,7.95l-10.73,7.95
				L2640.15,5370.15z"/>
		</g>
		<g id="XMLID_69_">
			<path id="XMLID_73_" class="st0" d="M3008.27,5821.31c-1.79-1.99-110.26-151.58-241.37-332.36
				c-131.11-180.78-297.59-410.63-370.1-510.55c-72.51-99.93-215.15-296.6-316.86-437.05c-101.91-140.45-198.86-273.95-215.35-297
				c-16.69-23.04-30.99-41.52-31.79-41.32c-0.79,0.2-267,189.12-591.41,419.57c-324.41,230.64-590.61,419.37-591.81,419.37
				c-1.99,0-13.91-17.48-13.91-20.26c0-2.19,1201.69-855.82,1203.87-855.03c1.19,0.2,79.86,107.87,174.82,238.79
				c95.16,131.11,253.89,350.24,352.82,486.71c98.93,136.48,278.12,383.61,398.11,549.09c119.99,165.48,228.46,315.27,241.17,332.56
				c12.71,17.48,23.64,32.78,24.44,34.17c0.99,1.59-1.99,4.97-8.34,9.54c-5.56,3.97-10.33,7.15-10.53,7.15
				C3011.64,5824.68,3009.86,5823.09,3008.27,5821.31z"/>
		</g>
	</g>
	<path id="XMLID_220_" class="st0" d="M407.1,138.69c2.64-0.75,3.88,1.57,3.75,4.37l-2.27,77.38c-0.1,4.17,0.6,8.32,2.04,12.22
		l1.36,3.69c1.63,4.39,4.33,8.28,7.86,11.29l1.96,1.67c2.53,2.16,5.71,3.37,9.01,3.43l6.35,0.12c1.01,0.02,1.94,0.59,2.41,1.48
		l3.03,5.67c10.34,19.36,37.72,20.4,49.49,1.87l4.23-6.66c0.62-0.98,1.74-1.53,2.89-1.43l3.14,0.27c7.3,0.14,12.28-1.95,18.27-6.21
		c1.45-1.03,2.67-2.04,3.32-2.89c0.56-0.73,1.14-1.98,1.68-3.44c2.13-5.71,2.93-11.85,2.51-17.95l-5.22-75.57
		c-0.25-3.63,3.46-6.15,6.64-4.5l4.46,2.32c3.75,1.95,8.34,0.53,10.41-3.23l23.64-43c1.4-2.55,0.54-5.41-1.23-7.7
		c-14.73-18.98-57.03-51.75-57.03-51.75c-4.6-2.37-9.8-4.26-17.76-2.27c-7.71,1.93-10.33,3.89-21.88,3.97
		c-13.42,0.08-17.73-3.58-26.28-6.1c-5.21-1.53-9.52-1.28-15.34-0.14c-24.46,4.77-63.18,54.62-63.18,54.62
		c-3.05,2.74-3.48,7.44-0.98,10.71l29.6,38.85c1.25,1.91,3.63,2.67,5.72,1.84L407.1,138.69z"/>
</g>
</svg>
