<?xml version="1.0" encoding="UTF-8"?>
<svg id="Calque_2" data-name="Calque 2" xmlns="http://www.w3.org/2000/svg" viewBox="0 0 194.94 190">
  <defs>
    <style>
      .cls-1 {
        fill: #3d3d39;
      }

      .cls-2 {
        fill: #dadad6;
      }

      .cls-3 {
        fill: #3b3c37;
      }

      .cls-4 {
        fill: #484843;
      }
    </style>
  </defs>
  <g id="Calque_1-2" data-name="Calque 1">
    <g>
      <path class="cls-3" d="M53.4,48.29c32.63-32.47,103.58-19.68,117.9,25.1,23.87,74.65-85.42,127.2-133.51,69.59-24.95-29.89-13.74-74.49,7.67-103.17C79.07-5.21,171.5,5.52,189.97,60.72c20.97,41.51-28.28,125.35-74.57,121.57,63.59-22.34,111.56-130.93,25.56-158.56-44.36-16.7-87.09,2.82-103.56,46.56-38.79,91.74,93.71,122.42,126.05,47.04C194.93,29.35,49.56,1.04,41.4,94.29c-.73-.6-1.41-1.26-2-2-.5-14.15,3.72-33.78,14-44Z"/>
      <path class="cls-1" d="M127.4,182.29c-37.99,22.06-96.54-6.8-117.68-41.32C-22.32,88.64,29.9-4.82,92.51.19c3.5.28,7.69-.39,8.89,4.08C-23.95,9.35-33.42,201.35,127.4,182.29Z"/>
      <path class="cls-2" d="M53.4,48.29c-10.28,10.22-14.5,29.85-14,44-6.19-7.73,3.18-15.69-2-22,4.71-12.29,6.38-14.21,14-24l2,2Z"/>
      <path class="cls-4" d="M139.4,86.29c5.66,47.75-60.62,63.75-82.77,21.77-17.73-33.05,10.5-62.98,45.75-59.74,12.22,1.12,27.18,5.65,34.71,15.28,13.32,17.05,14.48,31.65,8.63,52.02-20.6,71.39-127.09,33.95-100.33-37.33-2.56,94.08,102.42,91.4,94,8-3.73-18.69-13.91-28.43-33.48-31.52-17.58-2.78-30.13-.35-40.19,14.85-27.43,41.46,34.68,76.21,60.49,42.49,23.73-31-17.43-54.29-38.7-34.7-19.62,18.08,9.58,37.67,19.36,26.36,8.9-10.3-6.3-9.8-7.48-17.47,7.09-1.44,14.46,1.82,15.63,9.42,4.49,29.09-58.86,14.59-36.76-17.54,17.28-24,48.22-14.97,61.12,8.11Z"/>
      <path class="cls-2" d="M33.4,82.29c.69-2.8,1.36-3.99,2-6l-2,6Z"/>
    </g>
  </g>
</svg>