<?xml version="1.0" encoding="UTF-8"?>
<svg id="Calque_2" data-name="Calque 2" xmlns="http://www.w3.org/2000/svg" viewBox="0 0 202.07 229.59">
  <defs>
    <style>
      .cls-1 {
        fill: #eec598;
      }

      .cls-2 {
        fill: #edbd89;
      }

      .cls-3 {
        fill: #e0934c;
      }

      .cls-4 {
        fill: #e29955;
      }

      .cls-5 {
        fill: #f0cea4;
      }

      .cls-6 {
        fill: #ecc498;
      }

      .cls-7 {
        fill: #e6aa6f;
      }
    </style>
  </defs>
  <g id="Calque_1-2" data-name="Calque 1">
    <g>
      <path class="cls-4" d="M74.41,11.51c8.32,5.2,3.47-2.25,13.12-3.96.65-.03,4.1,12.23,4.89-2.05l16.03,2.97c5.44,6.23-3.59.9-4.89.96-1.15.05-.78,3.44-2.58,3.98-213.27,81.5,18.91,328.21,84.91,126.58,6.26-101.27-119.5-114.71-135.6-14.6-10.03,1.61-11.96-1.91-3.92-7.1.32-3.77-.68-16.55.71-20.33,3.13-8.54,19.53-24.54,21.7-33.99,13.67-4.59,29.63-9.24,40.85-18,4.33-.89,24.4,4.51,30.78,3.53,9.89,2.79,11.23,3.2,20,8,.84,3.28,1.94,4.66,4.51,6.73,7.72,6.24,17.3,15.81,22.3,25.27.52.98,3.44,12.95,4.15,13.99,1.03,1.5,4.94,1.46,5.13,3.18.23,2.13-3,6.67-2.12,11.45.25,1.36,7.33,2.57,5.62,9.84-4.58,5.89-2.85,8.31-3.69,14.07-.68,1.69-9.92,9.8-7.46,13.13.34.45,3.67.25,3.72,1.51.38,10.06-8.11,3.11-10.14,7.85,5.1,1.9,6.25,5.61,5.99,10.99l-7.87-1.24-4.09,2.28c8.48,16.3-10.75,7.39-6.05,20.97-5.13-4.97-9,8.6-12.01,11.98-2.23,2.5-.88-5.94-4.95-3.97-3.52,1.7-3.73,7.88-5.37,9.51-.88.87-20.56,7.31-23.7,7.42l-13.95,7.06c-13.76.71-25.28-3.74-38-8l-6.98-6.02-2.99,4.01c.5-10.96-5.82-8.66-7.62-10.39-.99-.95.27-9.67-4.39-5.58-.39.34.48,3.36-.1,3.84-3.65,3.04-4-2.72-4.6-3.09-15.64-9.41-8.54-13.36-13.9-18.21-17.37-15.72-18.05-22.72-24.16-45.17-.7-2.57-7.21-17.29-5.26-19.39.71-.76,8.78,2.43,5.99-4.99-1.35-3.58-5.67-.89-5.82-1.15-2.56-4.43,2.14-25.78,5.83-30.89l-1.96,12.05,3.95.98,6.05-20.98-6.02-2.02c7.17-5.53,6.8-15.48,11.94-21.49,8.58-8.9,28.87-29.4,39.31-34.84,3.93-.54,5.4,5,4.75-4.7,6.24,4.87,6.63-1.82,7.99-1.98Z"/>
      <path class="cls-3" d="M54.41,135.51c11.06,46.77,77.44,52.13,90.56,5.56,3.36-11.91,5.43-20.36-1.65-31.46-13.64-21.37-49.1-26.18-54.07,3.81-3.77,22.72,25.7,30.22,27.17,12.87.26-3.06-3.57-16.68,5.08-8.87,8.23,7.44,5.9,18.97-3.28,24.9-39.85,19.59-58.15-49.21-13.34-58.96,1.73-.66,1.48-3.71,2.74-3.78.7-.04,12.02.73,12.79.89,5.09,1.1,26.02,15.31,29.24,19.79,9.42,13.94,12.41,45.06-1.09,56.82-1.73,13.77-23.57,23.14-35.63,25.95-21.45,1.9-49.61-6.07-60.52-25.51-1.55-3.87-1.27-8.64-2.5-12.49-1.56-4.89-7.9-5.28-3.48-13.51l7.98,4Z"/>
      <path class="cls-7" d="M74.41,9.51c27.68-11.34,74.12-18.15,92.03,13.03,1.88,16.14-11.59-1.64-13.63-2.96-14.44-9.34-46.28-6.14-62.4-2.07.89-4.96,7.48-3.34,10.56-4.09,1.8-.54,1.43-3.93,2.58-3.98,1.3-.06,10.33,5.27,4.89-.96l-16.03-2.97c-.78,14.27-4.24,2.02-4.89,2.05-9.65,1.71-4.81,9.16-13.12,3.96v-2Z"/>
      <path class="cls-2" d="M74.41,9.51v2c-1.36.15-1.75,6.85-7.99,1.98.65,9.7-.82,4.15-4.75,4.7-10.5,5.5-30.66,25.89-39.31,34.84-5.14,6.01-4.77,15.97-11.94,21.49l6.02,2.02-6.05,20.98-3.95-.98,1.96-12.05C4.71,89.61.01,110.95,2.57,115.39c.15.26,4.47-2.43,5.82,1.15,2.79,7.42-5.28,4.23-5.99,4.99-1.95,2.1,4.56,16.82,5.26,19.39,6.11,22.44,6.79,29.44,24.16,45.17,5.36,4.85-1.74,8.81,13.9,18.21.6.36.95,6.13,4.6,3.09.58-.48-.29-3.51.1-3.84,4.67-4.09,3.4,4.63,4.39,5.58,1.8,1.73,8.12-.57,7.62,10.39l2.99-4.01,6.98,6.02C-28.07,197.23-20.75,39,74.41,9.51Z"/>
      <path class="cls-1" d="M140.41,49.51c-6.38.98-26.45-4.42-30.78-3.53-11.23,8.77-27.17,13.41-40.85,18-2.17,9.45-18.57,25.45-21.7,33.99-1.39,3.78-.39,16.56-.71,20.33-7.86,5.05-6.33,8.74,3.92,7.09.61-.55,2.4-11.34,4.12-15.88-.9,9.35-2.22,16.63,0,26l-7.98-4c-4.42,8.23,1.91,8.62,3.48,13.51,1.23,3.85.95,8.62,2.5,12.49-5.56-2.54-8.61-13.47-9.88-19.12-5.77-26.86-1.1-57.63,23.29-71.46,1.41-1.43.81-5.11,3.45-7.53,5.59-5.14,36.61-15.98,44.09-16.11,9.35-.16,18.71,3.86,27.05,6.22Z"/>
      <path class="cls-6" d="M160.41,57.51c12.37,7.39,32.04,18.62,30.44,34.57,18.32,27.41,11.83,55.64-2.44,83.43.26-5.38-.9-9.09-5.99-10.99,2.03-4.75,10.53,2.2,10.14-7.85-.05-1.25-3.38-1.05-3.72-1.51-2.47-3.32,6.78-11.43,7.45-13.13.85-5.85-.9-8.13,3.69-14.07,1.72-7.27-5.37-8.48-5.62-9.84-.88-4.78,2.35-9.32,2.12-11.45-.18-1.72-4.09-1.68-5.13-3.18-.71-1.03-3.63-13.01-4.15-13.99-4.99-9.46-14.58-19.03-22.3-25.27-2.57-2.07-3.67-3.45-4.51-6.73Z"/>
      <path class="cls-5" d="M188.41,175.51c-14.61,28.04-45.65,52.34-78,54l13.95-7.06c3.14-.11,22.82-6.54,23.7-7.42,1.64-1.62,1.86-7.81,5.37-9.51,4.07-1.97,2.72,6.47,4.95,3.97,3.01-3.37,6.88-16.95,12.01-11.98-4.71-13.58,14.53-4.67,6.05-20.97l4.09-2.28,7.87,1.24Z"/>
    </g>
  </g>
</svg>