<?xml version="1.0" encoding="UTF-8"?>
<svg id="Calque_2" data-name="Calque 2" xmlns="http://www.w3.org/2000/svg" viewBox="0 0 243.1 280.38">
  <defs>
    <style>
      .cls-1 {
        fill: #4fa577;
      }

      .cls-2 {
        fill: #b0d8c2;
      }

      .cls-3 {
        fill: #80c19e;
      }

      .cls-4 {
        fill: #c5efda;
      }

      .cls-5 {
        fill: #50a87a;
      }

      .cls-6 {
        fill: #9ed1b4;
      }

      .cls-7 {
        fill: #a5d3bc;
      }

      .cls-8 {
        fill: #73b894;
      }

      .cls-9 {
        fill: #b1d5c1;
      }

      .cls-10 {
        fill: #50a477;
      }

      .cls-11 {
        fill: #68b189;
      }

      .cls-12 {
        fill: #eefaf3;
      }

      .cls-13 {
        fill: #b7dcc9;
      }

      .cls-14 {
        fill: #a6d6bb;
      }

      .cls-15 {
        fill: #72b995;
      }

      .cls-16 {
        fill: #6fb58f;
      }

      .cls-17 {
        fill: #85c4a2;
      }

      .cls-18 {
        fill: #a2d2b9;
      }
    </style>
  </defs>
  <g id="Calque_1-2" data-name="Calque 1">
    <g>
      <path class="cls-1" d="M16.62,56.29c7.4-10.68,94.64-79.78,98.01-48.01C79.7-.93-53.74,118.56,48.62,88.3c12.04-4.65,24.4-11.71,32-22,16.48-2.55,8.72-4.88,15.5-8.04s21.89-4.72,29.41-6.05c3.72-.66,6.64-4.77,11.09-3.91,9.37,10.48-1.53,17.01-11.99,18.02l3.97,3.95c-6.4.1-9.69,6.19-14.81,8.19-5.78,2.26-10.66,3.14-17.17,5.84-1.82-11.9-5.49-.42-6.03-.04-3.86,2.7-5.55-2.54-1.97-5.96,10.49-4.57,29.08-13.33,37.99-21.01-17.34.18-32.82,12.78-47.99,21.01-2.02.21-7.18-.46-6.01,2.98.67,1.96,2.66,1.15,3.85,2.18,11.75,10.11-12.38,5.74-13.86,6.85-.47.35.47,3.29.02,4-2.86,4.39-5.01,2.08-5.55,2.64-10.56,11.68-49.45,48.48-20.45,57.36,7.67,3.07,16.05,4.12,24.67,1.99,1.6-.39,1.05-3.92,2.55-3.98,1.35-.05,3.92,2.25,4.61,1.85,2.34-1.35,7.46-19.34,10.08-20.8,1.23-.68,3.78.83,4.9.4,3.68-1.42.94-5.91,8.16-5.48,8.08.42-.45,7.22-2.97,10.01-10.18-4.25-13.51,8.71-10.01,15.99-9.65-4.27-5.85,2.7-6.6,3.57-7.22,3.81-14.26,16.45-17.39,24.44-4.04,2.61-6.57,6.91-12,6,.69-4.63,8.68-22.9,5.99-25.99l-11.99,1.99c-2.66-1.19-8.58-3.11-10-4-.86-6.16-5.31-9.58-6.83-15.77-1.63-6.62,1.33-25.01,10.84-20.24-4.96-9.62,3.13-13.01,4.02-21.98,3.13-.67,2.79,5.83,4.98,5.95,1.25.07,4.47-4.51,4.57-6.55.5-10.67-7.23-.71-11.11.21-.8.19-15.66.57-16.46.39-.42-.1-7.09-4.26-7.4-4.57-.52-.52-6.23-10.16-6.32-10.78-.32-2.41,5.76-7.16,1.73-12.67l4,1c-2.1-10.09,3.53-5.64,5.49-7.34,1.55-1.35,1.86-8.99,2.5-11.64Z"/>
      <path class="cls-8" d="M36.62,154.29c25.43,5.86,28.96-17.19,45.3-29.7,13.16-10.08,28.98-15.68,44.16-20.89.66-.23.89-3.32,3-4.06,10.79-.72,35.29-3.45,35.56,13.64l-4-1c4.61,8.47-2.93,10.72-10.01,14.02-1.36.63-4.22-.59-7.16,1.83-4.16,3.42.02,8.27-8.84,4.17-.5-.23-1.13-1.48-2-2,1.18-1.88,4.83-1.58,5.64-2.31.32-.28-1.21-4.34.36-5.69,4.74-3.17,10.84-7.2,14-11.98-21.9.33-43.05,10.78-60,23.98,1.59-2.7,5.01-5.65-1.03-6.01-7.22-.43-4.48,4.06-8.16,5.48-1.12.43-3.68-1.08-4.9-.4-2.62,1.46-7.74,19.45-10.08,20.8-.69.4-3.26-1.9-4.61-1.85-1.5.06-.95,3.59-2.55,3.98-8.62,2.13-17,1.08-24.67-1.99Z"/>
      <path class="cls-10" d="M182.62,164.29c.37.74-.64,3.06.02,4.61,1.05,2.44,8.03,1.68.02,12.44-4.42,5.93-13.23,6.79-15.99,13.95l-4.05-4.99c48.34-37.42-15.94-14.72-31.05-8.05-8.35,4.4-33.58,23.03-38.95,30.05-3.61,4.71.51,9.72-8.01,8.01-.98.7,6.07,5.51-3.02,8.02-.57.16-.25-6.96-8.95-2.04,1.98-22.99,92.51-83.65,109.99-61.99Z"/>
      <path class="cls-5" d="M78.62,232.29c-2.7,4.81-4.66,10.39-4,16-.06.47-2.64,1.65-1.8,4.58,26.57,38.42,93.79-5.76,125.8-20.58l12,5.98c-5.42.24-8.47,4.49-13.96,2.04,1.4,9.24-3.06,4.61-8.54,6.43-2.01.67-5.89,5.25-7.49,3.57-.89-.93,1.94-6.66-1.99-6,2.15,11.47-9.75,11.45-14.02,19.99-28.81,1.58-51.39,18.54-79.53,8.6-4.68-1.99-10.45-14.91-18.45-14.64-2.03-4.94,3.7-3.4,3.98-5.15.71-4.45-1.87-8.36,1.28-16.61,4.01-10.49,5.93-3.99,6.73-4.2Z"/>
      <path class="cls-11" d="M182.62,164.29c3.65-5.43,7.52,6.83,7.65,7.57-5.85,26.51-54.97,46.46-79.12,54.04-17.04-.44-16.37-3.03-32.53,6.39-.79.21-2.72-6.29-6.73,4.2-3.15,8.25-.57,12.16-1.28,16.61-.28,1.75-6.01.21-3.98,5.15,8.01-.28,13.78,12.65,18.45,14.64,27.62,9.54,49.3-5.88,77.53-8.6-7.26,9.51-57.44,17.37-68.76,15.91-1.46-.25-1-3.38-2.53-3.78-1.12-.3-3.56,1.58-6.11.39-2.16-1.01-12.4-7.15-13.69-8.43-4.02-3.97-9.77-21.83-9.01-26.82.07-.48,1.73-1.01,3.25-7.4,7.1-15.22,1.74-7-9.17-12.91-1.95-1.77-1.31-5.27-2.57-6.48-4.4-4.22-1.9.49-7.41-8.48l1.98-10-5.97,1.99c.29-3.21-.48-6.91-.02-10,5.43.91,7.96-3.39,12-6-.65,1.84.76,5.98,0,8.63-.49,1.71-4.2,1.27-4.01,2.32,1.59,9.27,15.08,24.63,26.01,23.05-.68.96-4.54,9.44-3.99,9.99,8.7-4.92,8.38,2.19,8.95,2.04,9.09-2.5,2.05-7.31,3.02-8.02,8.52,1.71,4.41-3.3,8.01-8.01-4.77,15.07,66.3-16.57,70-22l4.05,4.99c2.76-7.16,11.58-8.02,15.99-13.95,8.01-10.76,1.03-10-.02-12.44-.66-1.54.35-3.87-.02-4.61Z"/>
      <path class="cls-16" d="M132.62,130.29c.87.52,1.5,1.77,2,2-2.82,12.22-19.52,4.8-18,16-16,6.73-35.16,12.18-52,16,3.01-4.49,5.74-4.5,7.39-6.44.74-.87-3.06-7.83,6.6-3.57-3.5-7.29-.17-20.24,10.01-15.99-.49.41-13.61,11.33-7.07,9.94,15.47-5.95,32.62-11.96,47.07-19.94,1.3.71,2.73,1.24,4,2Z"/>
      <path class="cls-17" d="M16.62,102.29c.8.19,15.66-.2,16.46-.39,3.87-.91,11.61-10.88,11.11-.21-.1,2.04-3.31,6.62-4.57,6.55-2.19-.12-1.85-6.62-4.98-5.95-.88,8.97-8.98,12.36-4.02,21.98-9.51-4.77-12.46,13.63-10.84,20.24,1.52,6.19,5.97,9.62,6.83,15.77-14.15-8.88-13.57-26.96-5.9-40.38,2.08-3.63,10.93-8.18,9.9-15.61-5.82,1.49-9.67-.92-13.99-2.01Z"/>
      <path class="cls-3" d="M214.62,222.29l12,8c-.72.61-1.29,1.4-2,2-4.75-3.74-13.98,1.6-12,8-9.61,5.15-40.1,23.03-48,24,4.27-8.54,16.17-8.52,14.02-19.99,3.93-.65,1.1,5.07,1.99,6,1.6,1.68,5.49-2.9,7.49-3.57,5.48-1.82,9.94,2.81,8.54-6.43,5.49,2.45,8.54-1.8,13.96-2.04l-12-5.98c4.91-2.68,10.21-6.74,16-10Z"/>
      <path class="cls-9" d="M214.62,222.29c7.29-4.11,8.2-4.85,16.43-8.18,2.15-.87,3.58-6.74,11.57-3.81,2.07,10.9-3.12,6.44-7.07,9.86-2.97,2.57-4.5,6.35-8.94,10.13l-12-8Z"/>
      <path class="cls-18" d="M136.62,48.29c-4.45-.86-7.37,3.25-11.09,3.91-7.52,1.33-22.31,2.73-29.41,6.05s.98,5.49-15.5,8.04c1-1.48,1.04-4.32,2.51-5.43,8.79-3.98,44.44-20.6,53.49-12.57Z"/>
      <path class="cls-6" d="M16.62,56.29c-.64,2.66-.95,10.3-2.5,11.64-1.96,1.7-7.59-2.75-5.49,7.34l-4-1c4.04,5.5-2.05,10.25-1.73,12.67.08.62,5.8,10.25,6.32,10.78.31.31,6.98,4.47,7.4,4.57-27.9-7.03-14.68-29.07-3.52-45.57.91-1.07,3.31-.2,3.52-.43Z"/>
      <path class="cls-15" d="M78.62,78.29c1.68-.17,5.56,1.63,10,0-3.58,3.42-1.89,8.65,1.97,5.96.54-.38,4.21-11.86,6.03.04-12.06,5-19.44,11.71-34,10,.46-.7-.49-3.64-.02-4,1.48-1.11,25.61,3.26,13.86-6.85-1.19-1.03-3.18-.21-3.85-2.18-1.17-3.43,3.99-2.77,6.01-2.98Z"/>
      <path class="cls-14" d="M36.62,164.29l11.99-1.99c2.3,8.27-8.66,25.17-5.97,35.99l5.97-1.99-1.98,10c-11.8-7.51-4.18-28.75-1.99-39.99-3.6.91-5.35-.82-8.01-2.01Z"/>
      <path class="cls-7" d="M80.62,66.29c-3.98,5.89-9.65,9.98-16,14v-6c6.21-6.6,7.68-6.71,16-8Z"/>
      <path class="cls-2" d="M150.62,126.29l-9.37,9.71c-12.57.32-6.53,3.02-8.97,5.82-.56.64-13.07,5.38-15.65,6.46-1.52-11.2,15.18-3.78,18-16,11.14,5.57,1.87-6.22,16-6Z"/>
      <path class="cls-9" d="M224.62,232.29c-4.8,4.09-6.55,5.08-12,8-1.98-6.4,7.25-11.74,12-8Z"/>
      <path class="cls-13" d="M64.62,80.29c-5.34,3.38-9.92,5.93-16,8,3.85-5.13,7.19-11.95,13.83-8.16.29-.27.26-3.81,2.17-5.84v6Z"/>
      <path class="cls-11" d="M76.62,256.29c-4.02-1.75-5.48-4.97-2-8l2,8Z"/>
      <path class="cls-11" d="M74.62,242.29l2-6c-.66,2.63-1.72,4.9-2,6Z"/>
      <path class="cls-12" d="M92.62,134.29c16.96-13.2,38.1-23.65,60-23.98-18.12,20.06-46.63,27.99-71.07,37.92-7.1.91,10.86-12.8,11.07-13.94Z"/>
      <path class="cls-4" d="M78.62,78.29c15.17-8.23,30.65-20.83,47.99-21.01-8.87,7.66-27.54,16.45-37.99,21.01-4.44,1.63-8.32-.18-10,0Z"/>
      <path class="cls-2" d="M138.62,122.29c-1.57,1.35-.04,5.41-.36,5.69-.82.73-4.46.43-5.64,2.31-1.27-.76-2.7-1.29-4-2,2.36-1.3,7.88-4.58,10-6Z"/>
    </g>
  </g>
</svg>