<?xml version="1.0" encoding="UTF-8"?>
<svg id="Calque_2" data-name="Calque 2" xmlns="http://www.w3.org/2000/svg" viewBox="0 0 315.77 180.12">
  <defs>
    <style>
      .cls-1 {
        fill: #e98f44;
      }

      .cls-2 {
        fill: #f1c998;
      }

      .cls-3 {
        fill: #eac092;
      }

      .cls-4 {
        fill: #f6c38b;
      }

      .cls-5 {
        fill: #fcf0d6;
      }

      .cls-6 {
        fill: #f9d9af;
      }

      .cls-7 {
        fill: #e7a96e;
      }

      .cls-8 {
        fill: #e8a86d;
      }

      .cls-9 {
        fill: #ecc69c;
      }

      .cls-10 {
        fill: #edc091;
      }

      .cls-11 {
        fill: #f8e6c8;
      }

      .cls-12 {
        fill: #efbd8a;
      }

      .cls-13 {
        fill: #e89a55;
      }

      .cls-14 {
        fill: #f5ba7e;
      }

      .cls-15 {
        fill: #f2cfa7;
      }

      .cls-16 {
        fill: #ebb681;
      }

      .cls-17 {
        fill: #eb8c3c;
      }

      .cls-18 {
        fill: #fad9ac;
      }

      .cls-19 {
        fill: #f3c38e;
      }

      .cls-20 {
        fill: #f6cc9a;
      }

      .cls-21 {
        fill: #ecb781;
      }

      .cls-22 {
        fill: #eeb982;
      }

      .cls-23 {
        fill: #f4c694;
      }
    </style>
  </defs>
  <g id="Calque_1-2" data-name="Calque 1">
    <g>
      <path class="cls-13" d="M179.77,18.02c-4.07,1,3.63,6.78,4.04,6.96,4.25,1.91,8.47.01,11.95,2.02l-3.17,5.07-12.79-4.07-2.03,8c2.53-.08,33.39,9.24,27.05,1.99-1.56-1.79-5.6-.91-5.03-3.96l15.98,1.97-3.98-4.98,7.98-4c-9.87-6.93-19.01-7.47-29.99-9.01,3.26-3.9,9.63.66,8-6,12.16,2.44,22.97,4.52,33.47,9.55,3.31,1.59,6.89,2.3,10.53,2.45,16.54,13.42,27.73,21.25,42,38v6c-15.86-8.82,4.08,16.17,3.96,19.01.05.78-1.92,4.03-4.79.83-1.99-2.22-12.33-14.32-13.18-14.83-14.87-8.93-4.93,18.07-6,18.98-3.98,3.38-6.53-3.86-8.47-4.57-5.83-2.15-14.53,3.32-16.69-5.28-2.35-9.37,7.34-3.09,12.64-5.53,3-1.39,4.1-4.99,2.52-6.58-1.01-1.02-13.9,4.44-19.05,4.2-15.6-.73-9.63-12.72-16.93,11.78,2.35,2.47,12.1-12.07,12.04-.99,0,.7-9.64,2.92-1.02,10.98l2.98-7.98c10.16-.57,8.35,7.9,11.18,11.89,13.11,8.91,5.25,11.94,8.81,24.11-4.17.18-16.7,1.47-18.91,3.91-.96,1.06,1.8,6.75-5.09,6.09-1.39-.13-2.69-5.57-4.99,1.99-3.61-6.23-2.89-8.61-10.99-9.99l1.97,7.98c-3.92,1.06-5.28-4.03-8.67-3.72s-6.2,5.28-10.4,5.67c-7.58.7-26.9-3.27-33.95-1.03-5.53,1.75-7.96,17.04-20.98,3.09,1.5-13.89,10.03,4.8,8.01-11.99,7.62-2.18,2.9,9.93,6.99,9.95,1.6,0,2.84-11.72,5.93-16.05,9.16-12.86,18.8-8.23,21.08-9.92-6.17-13.68,22.75-15.22,20.96-28.02-3.23,2.1-9.74-.06-11.74.51-3.03.87-4.38,7-8.54,9.4-3.85,2.21-8.03-.28-8.56.14-.81.65-1.02,7.11-2.73,9.4-2.06,2.74-12.81,6.47-14.81,9.17-1.74,2.35-1.04,6.67-3.64,9.44-3,3.19-13.1,6.05-15.69,7.78-2.45,1.63-.66,10.04-9.26,8.23-.48,3.32,8.41,2.27,9.99,1.98-7.34,11.21,20.69,9.67,26.38,10.44,4.23.57,9.02,3.37,12.89,3.59,3.64.2,2.31-3.68,4.07-4.07,4.72-1.05,10.18,2.36,15.43,1.99,6.85-.49,14.91-9.3,17.23,4.04l-21.99,2.03c3.3,12.85,16.16,5.26,22.98,5.93,3.99.39,4.94,4.1,7.11,5.07,2.65,1.18,6.57-1.95,7.91.98-10.18.51-37.06-1.39-44.48,2.1-1.61.75-1.61,4.03-2.63,4.02-7-.09-24.56-3.71-32.9-4.11-9.11-.44-21.44,3.82-22.6,3.63-1.63-.26-3.64-3.14-6.47-3.55-4.57-.68-16.46-2.16-14.95,3.91h-1.95s0-2.7,0-2.7l-4.01,4.72c-.67.03-1.33-.03-2,0-11.56-6.18-25.82.72-37.21-3.8-5.17,0-11.73,3.39-15.85,2.88-1.68-.21-5.08-4.41-6.95-3.08v-2c2.93,1.47,5.69-1.96,6-2,1.3-.15,2.72.18,4,0,.42-.06,3.61,4.78,6-1.96l-6-4.04c1.98-1.88,4.96-2.02,4-6,7.34.14,7.3,2.72,15.11-1.82,1.88-1.09,6.33-.36,1.86-4.21-7.77,8.14-17.32-3.14-22.97,6.03-.65-.23-1.74.3-2,0v-6c12.86.8,25.1-3.41,38-1.99,3.6,3.43,13.92-4.01,17.01-7.99,2.43,5.67,4.6,6.73,11.01,6.01l-2.03,3.97c3.7-.2,15.36-3.08,15.51-6.99.04-.99-3-2.27-2.46-4.91,2.11-10.36,7.92-8.21,12.86-11.19,2.1-1.27,31.35-29.52,35.42-33.58,7.31-7.3,12.76-18.15,20.68-25.29-5.41-1.6-11.37,4.6-14.97,5.01-13.34.2-23.5,4.96-34.99,12.01-5.96,7.03,8.82-2.94,5.94,3.93-1.38,3.3-6.5,5.31-9.98,5.05-.76.62,7.19,6.3.99,7.97-2.42.65,1.09-5.33-2.92-2.97-6.61,3.9-13.01,1.64-10.05-3.03,8.25,3.87,4.06-6.2,11.89-13.1,3.35-3.16,13.61-7.6,14.08-9.92.8-3.92-4.36-6.34-8.03-4.01-2.63,1.67-5.32,10.12-6.26,10.68-.62.37-3.3-2.2-6.76.11-4.87,3.23-7.79,13.37-11.85,16.38-5.98,4.43-10.02-2.09-3.09,9.86l-4.99-5.97c-6.32,2.51-18.94,42.49-35.01,41.99v-3.99c-4.44-.53-6.75,2.31-4,5.99-.8.45-1.39,1.32-2,2-1.63-2.51-8.54-7.2-9.38-8.6-1.51-2.54-1.09-10.61-3.63-11.42-7.63-2.46-7.78,12.63-8.99,18.02,3.4,1.54,6.73-4.9,7.95-3.97-1.09,7.7,7.97.18,6.03,7.97l-17.99-3.99c.09-3.26-.3-10.77-.17-12.82.2-1.72,6.33-.06,4.15-5.17-1.33,0-4.7-.01-5.99-.01.44-3.06-.21-7.16-2-10,10.18-2.06,6.28-7.94-1.99-10.04-.88-4.02,1.62-4.25,3.99-5.96.1,1.2,1.73,1.55,2,2,.57.95,1.1,2.47,2,4,1.19,2.03,4.5,4.85,4.02,6.97-.43,1.9-4.01,2.14-4.73,2.81-6.32,5.98,15.4,9.06,20.7,6.23l-1,11.98c4.28-3.25,4.01-9.11,6.94-13.06,4.92-6.63,15.54-13.17,20.07-22.93,17.01,13.32,5.96-16.2,12-20l8.99,9.99-.99-9.97c4.77-.45,5.8,5.44,10.6,2.13,5.17-3.57-.24-10.99,9.38-6.15l.04-7.99,5.96,5.99c-.31-10.71,9.84-16.52,15.88-19.06,7.02-4.58,11.5-13.4.14-10.94v-2c4.73.23,9.18,2.43,14,1.98l-4-5.98c.48-.09,5.39-2.88,9-3.99,2.78-.86,3.62,1.41,3.01-4-8.23-1.74-15.78-.35-24.01-.01,1.31-4.8-3.12-3.6-6-6-.87-8.62,5.06-1.25,7.01-.44,3.1,0,4.01-9.45,10.97-1.56.57-7.88-10.81-6.54-15.98-6,7.38-4.99,30.05-3.33,34,4ZM275.77,68c-1.82-9.64-10.94-8.16-12.92-9.91-7.72-6.78-10.29-20.75-25.07-20.05,6.01,5.58,9.71,13.15,14.66,19.31,1.35,1.68,5.36,2.4,6.35,4.54,1.29,2.8-4.84,13.16,7.99.17l-1,7.94,10-2ZM175.75,58.04c.52-.7,14.91-2.18,14.01-8.99-7.16-3.91-20.74-12.02-21.98.96l11.99-1.97c.87.67-17.59,17.85-2,15.96.81-.73-2.33-5.53-2.01-5.97ZM199.76,52.03c-1.87-2.14-12.04,7.25-9.98,9.98l8.04,1.14,1.93-11.12ZM227.3,56.54c-2.26-1.27-19.16-3.12-23.52-4.51-4.4,9.74,13.78,2.84,7.46,11.64-.67.93-4.31-.94-3.46,2.33l18-1.96-2.02,3.97c4.31,2.3,10.13.54,10.06-4.97,0-.46-6.12-6.27-6.52-6.5ZM97.76,162.01c-.36-8.79-9.23-8.56-15.99-7.97l15.99,7.97Z"/>
      <path class="cls-1" d="M149.77,6.02c6.67.05,18.22,2.66,26,2,2.21,3.72,8.32,1.54,12,2,1.49.34,8.57,2.38,10,2,1.63,6.66-4.74,2.1-8,6-2.93-.41-7.78.72-10,0-.25-.08-1.39-3.01-3.37-3.55-16.5-5.26-18.67-3.49-34.63-.45-3.01-2.51-6.03-1.03-8,2-6.6,1.3-17.73,2.51-22,7.98,5.56-3.25,30.44-.83,32-1.98,2.88,2.4,7.31,1.2,6,6-5.55,5.27-19.78-5.86-21.03,4.02,8.84,5.24,22.74,4.67,33.03,3.98l4,5.98c-6.14.39-11.85-2.76-18-1.98-3.92.32-4.84,1.75-6,2-2.67.57-15.08,4.95-15.99,4-.46-.48,1.94-10.71-7.58-5.54-8.19,5.06-13.87,32.28-18.45,40.69-.58,5.52,4.08,28.96-9.98,16.84.62-1.34,2.25-7.06,2-8-.96-3.56-3.47-1.4-6-2-5.8-.4,3.31-5,4-6l.02,4c8.57-3.64.53-8.01,1.97-13.99l-7,3.98c-5.51.02,10.65-19.78,10.99-21,4.57-4.6,11.85-3.92,12.04-11.97-7.27-1.28-6.63-1.28-6.04-9.02-.4-.6-8.31,5.09-9.98,6,.21-1.92,2.8-7.24,1.99-7.99-12.35.51-20.83,11.16-27.99,19.97,7.26,1.85,7.03-5.18,11.44-7.67,3.19-1.8,8.56-1.03,14.56-4.3.71,14.33-1.42,16.09-13.87,16.14-.61.59.27,9.36-4.14,10.88l3.99,4.97-20.09-2.95c-4.72,2.26-1.94,6.87-3.76,10-1.31,2.26-6.07,8.66-8.13,11.57-1.57,2.22-5.57.09-4,5.38l3.97,1.98c-3.77.75-11.28,2.86-9.97,7.99,8.27,2.1,12.17,7.98,1.99,10.04-4.54.92-9.34-2.61-8.01,3.99l10.01,2.01c2.07,7.48-10.84,12.25-8,22-3.74,11.82-12.01,4.3-18.13,6.83l-1.89,13.17c-1.53-1.13-7.12-3.73-7.53-4.42-1.36-11.63,1.21-36.75,7.55-47.58,10.7-22.45,29-66.85,55.31-72.72,5.42-3.63,15.08-15.5,20.78-18.19,15.85-6.5,44.76-14.17,61.91-15.09ZM23.76,116.01c-3.93-18.05,19.52-28,17.99-45.99-5.28,4.95-35.49,47.01-17.99,45.99Z"/>
      <path class="cls-10" d="M41.77,126.02c-3.13,6.14-.1,11.68,0,18-.47,9.46-1.11,13.62,10,12,.96,3.98-2.02,4.12-4,6-.52.49-2.3-.37-2.04,3l4.04,1.03-1.99,1.98c-2.82-.43-7.38.94-10,2v2c2.54,9.23-22.19,1.71-27.99,4.02l5.99,3.98c-4.95-.29-9.19-.25-14-2.02l11.99-3.99c1.09-5.81-4.15-3.37-8.06-6.91-10.2-9.23-4.54-25.94.06-37.08-.69,4.45-2.87,27.34-1.55,29.58.4.69,6,3.29,7.53,4.42l1.89-13.17c3.91-2.71,11.69,3.73,16.13-2.83-1.45,11.71-7.6,1.98-14.04,4.89-2.2,1.39-2.68,6.41-1.96,7.1.94.9,24.61,1.2,25.88-.1,3.82-3.91-6.79-17.89-1.9-23.89-3.05.98-4.48,5.26-5.98,8-2.62-7.05,6.73-14.51,8-18h2Z"/>
      <path class="cls-9" d="M229.77,168.02c2.97-.15,6.39,1.95,8.72,1.5,2.14-.42,4.12-4.17,5.22-3.46-.83,13.31,59.68-1.2,72.07,3.95-1.01.99-.77,1.54-2.95,1.95-47.24,4.47-96.24,2.29-142.51,5.6-5.63.3-17.2,1.76-17.53-3.54l-7.86,5.83-51.15-3.84c17.46-1.32,42.58,5.4,56-6,8.33.4,25.89,4.02,32.9,4.11,1.02.01,1.02-3.26,2.63-4.02,7.42-3.48,34.3-1.58,44.48-2.1Z"/>
      <path class="cls-12" d="M135.77,4.02c-.41.13-1.3,3.13-2,4-9.41,1.45-37.55,9.17-45.91,13.09-5.71,2.68-15.37,14.56-20.78,18.19-26.3,5.86-44.63,50.28-55.31,72.72C17.68,51.39,82.7,14.93,135.77,4.02Z"/>
      <path class="cls-8" d="M97.77,176.02c-5.58-.49-15.42,1.83-19,2,0,0-34,0-34,0-8.1,0-18.64,2.61-29,2l-5.99-3.98c5.81-2.32,30.51,5.22,27.99-4.02,1.87-1.33,5.27,2.87,6.95,3.08,4.11.52,10.67-2.88,15.85-2.87,11.39,4.52,25.65-2.38,37.21,3.8Z"/>
      <path class="cls-17" d="M283.77,68.02c12.47,5.95,8.34,12.73,11.84,20.97,2.07,4.87,11.36,20.44,11.86,22.42.8,3.19-2.21,7.28-1.7,11.43.42,3.39,5.95,10.71,5.91,14.32-.02,1.25-3.57.57-3.81.89-2.87,3.96,2.96,4.1,3.22,4.54,4.9,8.19,4.23,18.36,2.7,27.42-12.7-5.74-68.32,10.06-70.07-3.95-1.1-.72-3.07,3.04-5.22,3.45-2.32.45-5.75-1.65-8.72-1.5-1.35-2.93-5.27.2-7.91-.98-2.16-.96-3.12-4.68-7.11-5.07-6.82-.67-19.68,6.92-22.98-5.93l21.99-2.03c-2.31-13.34-10.38-4.53-17.23-4.04-5.25.37-10.71-3.04-15.43-1.99-1.76.39-.43,4.28-4.07,4.07-3.87-.22-8.66-3.01-12.89-3.59-5.69-.77-33.72.77-26.38-10.44.72-.13,1.75.24,2,0,13.02,13.95,15.45-1.34,20.98-3.09,7.04-2.23,26.36,1.74,33.95,1.03,4.2-.39,7.17-5.37,10.4-5.67,3.38-.32,4.74,4.78,8.67,3.72l-1.97-7.98c8.1,1.39,7.38,3.76,10.99,9.99,2.3-7.57,3.6-2.13,4.99-1.99l15.11,8-3.07,5c3.51,6.44,8.82.93,9.96,1,2.64.16,5.38,1.65,8,2,2.86.39,7.15-1,9.56.43,5.69,14.47,19.17,9.36,31.2,10.13,2.76.22,11.49,7.59,11.26-1.51-5.35-11.77-2.47-9.32-11.13-7.17-4.2-.27-5.32-4.76-7.79-5.12-2.02-.3-5.21,1.85-7.71,1.38-3.04-3.03-5.35-8.17-11.38-8.22-.33-.35,2.85-5.68,1.99-7.92l-9.98,1.98v-10c-3.99.11-8.03-.16-12.01.01-3.56-12.19,4.3-15.19-8.81-24.11-2.84-3.98-1.02-12.46-11.18-11.89l-2.98,7.98c-8.62-8.06,1.02-10.28,1.02-10.98.06-11.08-9.69,3.46-12.04.99,7.31-24.49,1.33-12.51,16.93-11.78,5.14.24,18.03-5.23,19.05-4.2,1.58,1.6.48,5.2-2.52,6.58-5.29,2.45-14.99-3.84-12.64,5.53,2.16,8.6,10.86,3.14,16.69,5.28,1.94.71,4.49,7.96,8.47,4.57,1.07-.91-8.87-27.91,6-18.98.85.51,11.19,12.61,13.18,14.83,2.86,3.2,4.84-.05,4.79-.83.19-2.75-19.95-28.02-3.96-19.01Z"/>
      <path class="cls-16" d="M73.77,142.02c16.05.52,28.71-39.51,35.01-41.99l4.99,5.97c-6.92-11.95-2.89-5.42,3.09-9.86,4.06-3.01,6.98-13.14,11.85-16.38,3.46-2.3,6.14.27,6.76-.11.94-.56,3.63-9.01,6.26-10.68,3.67-2.33,8.83.09,8.03,4.01-.47,2.32-10.73,6.76-14.08,9.92-7.83,6.91-3.65,16.98-11.89,13.1-2.97,4.67,3.44,6.93,10.05,3.03,4.01-2.36.5,3.62,2.92,2.97,6.2-1.67-1.75-7.35-.99-7.97,3.47.25,8.6-1.76,9.98-5.05,2.88-6.87-11.9,3.1-5.94-3.93,11.51-7.05,21.63-11.81,34.99-12.01,3.6-.42,9.56-6.62,14.97-5.02-7.92,7.14-13.37,18-20.68,25.29-4.07,4.07-33.32,32.32-35.42,33.58-4.95,2.98-10.76.83-12.86,11.19-.54,2.64,2.5,3.91,2.46,4.91-.15,3.91-11.82,6.79-15.51,6.99l2.03-3.97c-6.41.72-8.58-.34-11.01-6.01-8.85,11.43-18.64,7.18-31.01,7.99v-2c1.3-1.98,3.97-3.08,6-4Z"/>
      <path class="cls-8" d="M91.77,40.02c-6,3.27-11.37,2.5-14.56,4.3-4.41,2.49-4.18,9.52-11.44,7.67,7.16-8.81,15.64-19.46,27.99-19.97.81.75-1.78,6.07-1.99,7.99,1.67-.91,9.58-6.6,9.98-6-.58,7.74-1.22,7.74,6.04,9.02-.19,8.05-7.48,7.37-12.04,11.97-.36,1.27-16.48,20.98-10.99,21,0,0,7-3.98,7-3.98-.2,3.92,1.2,7.29-1.99,9.99-9.12,6.73-7.22,4.68,2,8-.28,13.24-15.86,22.97-22.07,30.93-2.93,3.95-2.67,9.81-6.94,13.06l1-11.98c-5.29,2.84-27.01-.25-20.7-6.23,7.71-2.2,4.45-4.72.71-9.78l2-3.98-4-.02c-.27-.45-1.9-.8-2-2,1.48-1.07,4.1-1.79,5.98-2.03l-3.97-1.98c-1.58-5.29,2.43-3.15,4-5.38,2.05-2.92,6.82-9.32,8.13-11.57,1.82-3.13-.96-7.74,3.76-10l20.09,2.95-3.99-4.97c4.41-1.53,3.53-10.29,4.14-10.88,12.48-.04,14.58-1.86,13.87-16.14Z"/>
      <path class="cls-7" d="M251.77,124.02c3.98-.17,8.03.1,12.01-.01v10s9.98-1.98,9.98-1.98c.87,2.25-2.32,7.57-1.99,7.92.22.23,3.59.12,6,2.07-2.64-1.85-9.38,1.56-8.01,5.99l6.02.02-2.02,7.98,11.99,2.01c2.31-11.25-3.93-6.28-6.21-9.19-1.21-1.54-1.42-6.56-1.78-6.81,7.34,8.35,3.77,6.34,13.09,4.76,2.47.36,3.6,4.84,7.79,5.12,2.06.13,5.52-2.6,6.83-1.72.41.28,4.28,8.08,4.3,8.88.24,9.1-8.5,1.73-11.26,1.51-6.5-.52-15.88,1.34-23.32-1-11.35-6.32-1.12-11.12-17.44-9.57,10.23-11.38,7.56-7.24,1.17-18.28-2.37-4.1,1.02-7.07-7.17-5.74,3.88,6.74-13.39,24.23-2.01,22.02-1.15-.07-6.45,5.44-9.96-1l3.07-5-15.11-8c6.89.65,4.13-5.03,5.09-6.09,2.21-2.44,14.74-3.73,18.91-3.91Z"/>
      <path class="cls-3" d="M101.77,78.02c1.63-7.66,10.08-34.09,16.42-37.54,9.52-5.17,7.12,5.06,7.58,5.54,5.69.59,19.2-6.79,25.99-6v2c-7.42,6.79-11.45,1.4-16.99,6.01-2.43,2.79-4.81,12.5-9.01,15.97l12,.02c-1.45,2.34-1.93,5.28-2.02,8l-5.96-5.99-.04,7.99c-9.62-4.83-4.21,2.59-9.38,6.15-4.8,3.31-5.83-2.58-10.6-2.13l.99,9.97-8.99-9.99Z"/>
      <path class="cls-22" d="M137.77,138.02c-1.58.29-10.47,1.34-9.99-1.98,8.59,1.81,6.81-6.59,9.26-8.23,2.59-1.73,12.68-4.59,15.69-7.78,2.6-2.76,1.9-7.09,3.64-9.44,2-2.7,12.75-6.43,14.81-9.17,1.72-2.29,1.92-8.75,2.73-9.4.53-.42,4.71,2.07,8.56-.14,4.16-2.39,5.51-8.52,8.54-9.4,2-.58,8.5,1.59,11.74-.51,1.81,12.79-27.14,14.36-20.96,28.02-2.28,1.69-11.92-2.94-21.08,9.92-3.08,4.33-4.33,16.06-5.93,16.05-4.09-.02.63-12.13-6.99-9.95,2.03,16.78-6.51-1.89-8.01,11.99-.25.24-1.28-.13-2,0Z"/>
      <path class="cls-21" d="M189.77,18.02c10.98,1.54,20.12,2.08,29.99,9.01l-7.98,4,3.98,4.98-15.98-1.97c-.57,3.04,3.47,2.17,5.03,3.96,6.34,7.26-24.51-2.07-27.05-1.99l2.03-8,12.79,4.07,3.17-5.07c-3.48-2.01-7.71-.11-11.95-2.02-.4-.18-8.11-5.97-4.04-6.96,2.22.72,7.07-.41,10,0Z"/>
      <path class="cls-11" d="M151.77,42.02c11.36-2.47,6.88,6.35-.14,10.93-5.57,3.63-8.1,1.78-13.86,11.07l-12-.02c4.2-3.47,6.58-13.18,9.01-15.97,5.5-4.61,9.53.79,16.99-6.01Z"/>
      <path class="cls-23" d="M275.77,68l-10,2,1-7.94c-12.83,12.99-6.71,2.62-7.99-.17-.98-2.14-5-2.86-6.35-4.54-4.95-6.16-8.65-13.73-14.66-19.31,14.78-.7,17.35,13.27,25.07,20.05,1.99,1.75,11.11.27,12.92,9.91Z"/>
      <path class="cls-2" d="M227.3,56.54c.4.23,6.52,6.04,6.52,6.5.07,5.51-5.75,7.26-10.06,4.97l2.02-3.97-18,1.96c-.86-3.26,2.79-1.4,3.46-2.33,6.32-8.81-11.86-1.9-7.46-11.64,4.36,1.39,21.26,3.23,23.52,4.51Z"/>
      <path class="cls-8" d="M149.77,170.02c-11.61,10.47-34.21,5.38-50,6l4.01-4.72v2.71s1.96,0,1.96,0c-1.51-6.07,10.38-4.58,14.95-3.91,2.83.42,4.85,3.29,6.47,3.55,1.17.19,13.49-4.07,22.6-3.63Z"/>
      <path class="cls-20" d="M149.77,28.02c8.22-.34,15.78-1.73,24.01.01.62,5.41-.23,3.14-3.01,4-5.46,1.66-7.99,4.48-11,3.99-9.21-6.75-22.16,1.76-31.03-3.98,1.23-9.87,15.5,1.24,21.03-4.02Z"/>
      <path class="cls-4" d="M145.77,14.02c5.17-.54,16.55-1.88,15.98,6-6.96-7.89-7.87,1.57-10.97,1.56-1.33,0-2.67-3.52-6-3.63-1.74-.06-.76,3.88-1.01,4.07-1.56,1.15-26.44-1.27-32,1.98,4.27-5.47,15.4-6.68,22-7.98,6.14-1.37,7.63-2.31,12-2Z"/>
      <path class="cls-8" d="M41.77,144.02l17.99,3.99c1.95-7.79-7.12-.28-6.03-7.97-1.21-.93-4.55,5.51-7.95,3.97,1.21-5.39,1.35-20.48,8.99-18.02,2.53.82,2.12,8.88,3.63,11.42.83,1.4,7.74,6.09,9.38,8.6v2c-8.03.38-15.78,3.17-24.01,2v6c-3.29-3.81-1.98-7.21-1.99-12Z"/>
      <path class="cls-19" d="M175.75,58.04c-.32.43,2.82,5.24,2.01,5.97-15.59,1.89,2.88-15.3,2-15.96l-11.99,1.97c1.24-12.98,14.82-4.87,21.98-.96.9,6.81-13.49,8.29-14.01,8.99Z"/>
      <path class="cls-18" d="M199.76,52.03l-1.93,11.12-8.04-1.14c-2.07-2.73,8.1-12.12,9.98-9.98Z"/>
      <path class="cls-8" d="M97.76,162.01l-15.99-7.97c6.76-.59,15.63-.82,15.99,7.97Z"/>
      <path class="cls-8" d="M45.77,156.02c5.65-9.17,15.2,2.11,22.97-6.03,4.47,3.85.02,3.12-1.86,4.21-7.81,4.54-7.77,1.95-15.11,1.82-2.98-.05-3.55.87-6,0Z"/>
      <path class="cls-8" d="M37.77,116.02c.86,1.72,2.11,4.12,2,6l-10.01-2.01c-1.33-6.6,3.47-3.07,8.01-3.99Z"/>
      <path class="cls-8" d="M69.77,144.02c-2.75-3.67-.44-6.52,3.99-5.99v3.99c-.99.41-2.98,1.43-3.99,2Z"/>
      <path class="cls-8" d="M41.77,126.02h3.99c2.18,5.13-3.95,3.46-4.15,5.18-.15,1.3.21,8.04.17,10.82-1-5.64-2.62-10.49,0-16Z"/>
      <path class="cls-8" d="M47.77,162.02l6,4.04c-2.39,6.74-5.59,1.9-6,1.96l1.99-1.98-4.04-1.03c-.26-3.36,1.52-2.5,2.04-3Z"/>
      <path class="cls-1" d="M41.77,102.02l4,.02-2,3.98c-.9-1.53-1.43-3.05-2-4Z"/>
      <path class="cls-8" d="M87.77,148.02c-6.15,2.42-4.17,0-6,0h6Z"/>
      <path class="cls-8" d="M43.77,168.02c-.31.04-3.07,3.47-6,2l6-2Z"/>
      <path class="cls-5" d="M31.77,144.02c1.5-2.74,2.94-7.02,5.98-8-4.89,6,5.72,19.98,1.9,23.89-1.27,1.3-24.94,1-25.88.1-.73-.69-.24-5.71,1.96-7.1,3.58-2.27,7.63,1.78,10.81.97,3.36-.86,2.45-4.44,3.23-5.86.72-1.3,1.28-2.69,2-4Z"/>
      <path class="cls-14" d="M23.76,116.01c-17.48,1,12.69-41,17.99-45.99,1.52,17.99-21.92,27.94-17.99,45.99Z"/>
      <path class="cls-13" d="M151.77,6.02c3.63-8.45,11.29,3.06,12.96-6.02l5.03,2.05-1.99,5.98c-3.97-.24-13.75-2.06-16-2Z"/>
      <path class="cls-13" d="M159.77,36.02c-7.5,1.07-19.16.59-26-2,8.38.43,18.33-2.98,26,2Z"/>
      <path class="cls-13" d="M91.77,76.02c1.66,4.26,4.56,7.16-1.98,10l-.02-4c1.81-2.08,2.59-2.93,2-6Z"/>
      <path class="cls-13" d="M141.77,14.02c-.48.05-4.74,1.36-8,2,1.97-3.03,4.99-4.51,8-2Z"/>
      <path class="cls-13" d="M147.77,40.02l-6,2c1.16-.25,2.08-1.68,6-2Z"/>
      <path class="cls-13" d="M91.77,90.02l-6-2c2.53.6,5.04-1.56,6,2Z"/>
      <path class="cls-15" d="M249.77,148.02c-11.38,2.23,5.88-15.29,2.01-22.02,8.19-1.34,4.8,1.64,7.17,5.74,6.38,11.05,9.06,6.9-1.17,18.28-2.62-.35-5.36-1.84-8-2Z"/>
      <path class="cls-6" d="M277.77,142.02c.36.25.57,5.27,1.78,6.81,2.28,2.9,8.51-2.06,6.21,9.19l-11.99-2.01,2.02-7.98-6.02-.02c-1.37-4.43,5.37-7.84,8.01-5.99Z"/>
    </g>
  </g>
</svg>