<?xml version="1.0" encoding="UTF-8"?>
<svg id="Calque_2" data-name="Calque 2" xmlns="http://www.w3.org/2000/svg" viewBox="0 0 179.72 203.59">
  <defs>
    <style>
      .cls-1 {
        fill: #79c8ea;
      }

      .cls-2 {
        fill: #c6e9f2;
      }

      .cls-3 {
        fill: #abdbea;
      }

      .cls-4 {
        fill: #8cd2ed;
      }

      .cls-5 {
        fill: #c3e7f2;
      }

      .cls-6 {
        fill: #addeee;
      }
    </style>
  </defs>
  <g id="Calque_1-2" data-name="Calque 1">
    <g>
      <path class="cls-1" d="M143.35,15.62c1.36-.91,4.91-2.68,7.04-3.93,2.47-1.44,3.75-2.86,4.83,1.07,3.14,11.48-8.96,11.19-7.86,15.82,1.53,6.41,9.58,2.61,9.97,3.05,1.45,1.59-2,5.22-1.99,5.99-7.45,5.8,2.73,14.93-8,21.98l9.98-3.98c1.99,8.92-3.88,5.3-8.41,8.13-7.63,4.78-13.68,12.55-19.46,18.99-4.57,5.09-10.49,5.17-10.13,14.89l-3.96-2.03c3.46,10.06,9.77,23.22,19.98,28.01,9.26,19.55-3.28,12.34,15.98,29.52.91,1.01,4.08,5.62-1.01,4.52-9.34-2.02-22.67-30.23-31.99-36.02-2.01,10.07,9.36,18.92,13.79,26.21,3.23,5.32,5.4,12.69,8.39,17.61,1.26,2.08,15.78,14.13,7.8,16.15-6.61,1.67-16.97-7.63-17.95-13.97-3.42,2.12-8.04,19.02-11.99,17.99-12.69-10.9-17.9-33.7-31.95-42.19-2.74-1.65-9.65.62-13.79-3.62-6.47.87-11.13,18.63-13.85,21.23-1.32,1.26-4.92.88-6.45,2.46-9.93,10.25-12,21.4-28.97,16.09-.72-.53,5.52-6.34-3.01-7.97l-1.98,7.98c-11.34-7.82,1.19-17.63,9.03-22.95l13.94-25.04c-12.45,9.91-18.23,20.42-32.03,28.95-2.79,1.73-4.23,6.45-3.95-.95,2.13-3.26,3.81-6.79,6-10,8.94,1.94,32.21-31.6,36.92-36.08,3.12-6.45,1.33-17.52,9.07-22.93-14.27,1.59-1.52-5.79-3.98-14.99l10.98,8.04c2.36-5.23,12.15-9.72,10.09-15.91-.57-5.03-14.35-14.45-12.09-18.15,2.65-4.32,4.84-1.04,7.07.95,6.09,5.44,9.62,15.83,16.91,20.54,16.83-9.51,38.18-44.15,57.03-55.48Z"/>
      <path class="cls-4" d="M7.35,43.62c-6.43-8.05,4.92-19.41,4.01-6l10.76-3.87,8.24,9.86c.61-4.52-1.13-7.4,4.23-9.89l8.74,5.9c.91-5.19-7.95-11.74-5.06-16.06,1.43-2.14,7.07-.28,5.07-8.66-.2-.84-6.87-2.46-3.97-7.28.32-.53,11.19,3.49,11.64,4.3-3.69,8.75,2.98,7.42,8.36,7.7.8.74-2.32,7.13-.19,10.55.67,1.08,9.45,8.93,12.18,5.45,2.57,3.66,8.5,8.19,10.94,12.14s-1.2,10.41,10.2,9.7c7.07-.44,18.98-22.44,28.86-21.84-4.53,4.91-30.6,36.08-35.03,35.48-7.3-4.71-10.82-15.1-16.91-20.54-2.23-1.99-4.42-5.27-7.07-.95-2.27,3.7,11.52,13.11,12.09,18.15,2.06,6.18-7.73,10.67-10.09,15.91l-10.98-8.04c2.46,9.2-10.29,16.58,3.98,14.99-7.74,5.41-5.95,16.48-9.07,22.93-4.76,4.54-27.93,37.99-36.92,36.08,5.25-7.7,37.52-43.99,37.34-46.99-.12-2.03-15.48-21.19-18.21-25.22-7.01-10.36-14.26-23.04-23.12-33.79Z"/>
      <path class="cls-3" d="M5.35,159.62c-.27,7.41,1.16,2.68,3.95.95,13.8-8.53,19.57-19.05,32.03-28.95l-13.94,25.04c-7.84,5.32-20.37,15.13-9.03,22.95l1.98-7.98c8.53,1.63,2.29,7.44,3.01,7.97,16.97,5.31,19.05-5.85,28.97-16.09,1.53-1.58,5.13-1.2,6.45-2.46,2.73-2.6,7.38-20.35,13.85-21.23,4.14,4.23,11.05,1.96,13.79,3.62,14.05,8.49,19.26,31.28,31.95,42.19,3.96,1.02,8.57-15.87,11.99-17.99.98,6.35,11.34,15.64,17.95,13.97,7.98-2.02-6.53-14.07-7.8-16.15-2.98-4.92-5.15-12.3-8.39-17.61-4.43-7.29-15.8-16.14-13.79-26.21,9.32,5.79,22.65,34,31.99,36.02,5.09,1.1,1.91-3.51,1.01-4.52-2.07-2.29-10.52-9.61-11.55-12.01-.28-.66-.29-7.94-2.44-13.51l15.72,21.28c3.92,13.07,15.74,19.9,10.27,34.73-7.29-4.43-4.99.58-7.54,1.83-10.16,4.96-23.22,8.3-29.44,18.13-4.31.17-29.6-34.28-33.84-40.14s-8.79-23.07-18.01-15.68c-6.65,5.34-19.57,20.6-26.19,27.82-5.46,5.95-14.71,22.48-22.03,23.97-8.57,1.74-1.63-2.41-4.68-6.99-3.1-4.66-12.62-7.31-15.12-11.08C6.03,180.81,0,167.45,0,166.64c-.04-4.06,4.29-5.41,5.35-7.02Z"/>
      <path class="cls-2" d="M7.35,43.62C-12.8,34.88,24.73,15.74,33.23,8.5,35.99,6.15,36.77,1.71,40.31,0c1.74-.15,18.86,15.97,21.04,18.62,3.76,4.59,6.75,12.37,10,17-2.73,3.48-11.51-4.37-12.18-5.45-2.12-3.42.99-9.81.19-10.55-5.46-.28-12.03,1.01-8.36-7.7-.45-.8-11.32-4.83-11.64-4.3-2.9,4.82,3.77,6.44,3.97,7.28,2,8.37-3.64,6.52-5.07,8.66-2.9,4.32,5.96,10.86,5.06,16.06l-8.74-5.9c-5.37,2.48-3.62,5.37-4.23,9.89l-8.24-9.86-10.76,3.87c.92-13.41-10.44-2.05-4.01,6Z"/>
      <path class="cls-6" d="M155.35,37.62c.05,3.02,3.35,5.72,3.32,7.03-.04,2.06-4.56,3.38-3.31,6.96,11.3,1.63,10.54-4.87,10.01-13.99l11.98,6c-5.06,6.83-15.82,18.84-21.91,25.09-6.58,6.77-30,24.02-33.18,30.96-2.71,5.92,9.47,17.39,13.08,23.95-10.22-4.79-16.52-17.95-19.98-28.01l3.96,2.03c-.36-9.72,5.57-9.8,10.13-14.89,5.78-6.44,11.84-14.21,19.46-18.99,4.52-2.83,10.4.78,8.41-8.13l-9.98,3.98c10.73-7.05.54-16.18,8-21.98Z"/>
      <path class="cls-5" d="M143.35,15.62c1.84-3.56,7.71-10.81,12.14-7.1,1.53,1.28,1.25,5.09,2.5,6.45,1.96,2.13,5.05,2.32,7.16,5.85,1.81,3.03,5.51,18.13,6.22,18.82s13.53-6.21,5.98,3.99l-11.98-6c.53,9.12,1.28,15.62-10.01,13.99-1.24-3.58,3.28-4.9,3.31-6.96.02-1.31-3.27-4.01-3.32-7.03-.01-.77,3.43-4.4,1.99-5.99-.39-.43-8.45,3.36-9.97-3.05-1.1-4.63,11-4.34,7.86-15.82-1.07-3.93-2.36-2.51-4.83-1.07-2.13,1.25-5.69,3.03-7.04,3.93Z"/>
    </g>
  </g>
</svg>