<?xml version="1.0" encoding="UTF-8"?>
<svg id="Calque_2" data-name="Calque 2" xmlns="http://www.w3.org/2000/svg" viewBox="0 0 256.62 272.34">
  <defs>
    <style>
      .cls-1 {
        fill: #bdd497;
      }

      .cls-2 {
        fill: #c0d89a;
      }

      .cls-3 {
        fill: #f1fadf;
      }

      .cls-4 {
        fill: #f7faed;
      }

      .cls-5 {
        fill: #b7d191;
      }

      .cls-6 {
        fill: #a0c36f;
      }

      .cls-7 {
        fill: #ecf6d7;
      }

      .cls-8 {
        fill: #b3ce8c;
      }

      .cls-9 {
        fill: #f2f9df;
      }
    </style>
  </defs>
  <g id="Calque_1-2" data-name="Calque 1">
    <g>
      <path class="cls-6" d="M125.45,260.77c3.24-3.39,8.08-5.48,10-9.98-7.32-1.77-16.14,4.45-22.55,3.57-7.01-.95-20.25-8.94-26.99-11.05-21.07-5.25-37.45-5.47-53.45-22.57-1.62-2.91-.29-6.67-1.15-8.46-11.72-8.72-.99-30.81-4.21-42.07-5.88-14.23-34.27-41.05-24.1-62.83-7.96-15.36,1.05-35.59,14.37-45.72,11.07-8.46,32.18-10.13,35.62-13.39,30.18-52.03,76.83-69.56,116.51-14.46,16.84,32.01,47.94,29.11,59.15,62.94,4.72,13.45-3,39.16,12.86,49.48,29.51,53.45,16.93,89.34-47.38,96.38-16.52,2.81-26.19.51-41.33,9.4s-21.44,16.71-39.33,18.75l-6.01-5.99,16.83.09c2.37-.37.81-3.71,1.18-4.1ZM171.45,54.75C140.54-.23,96.91-15.16,61.47,45.79l109.98,8.96ZM177.45,206.77c12.14-13.51,10.41-21.13,16.51-36.49,6.42-16.18,13.51-32.1,19.55-48.44l-36.11-56.03c-8.08-6.04-39.44-8.06-50.97-9.03-64.34-1.81-79.84-21.92-82.9,55.06-.32,2.99-.45,6.17-4.06,6.92-6.82-25.48,2.83-39.22,7.96-62-61.64,9.81-40.53,66.08-12.99,99.99,8.29-10.36,13.41-25.37,25.01-31.99,5.63-5.55,10.34-14.83,12,0-7.62,7.59-30.05,34.41-27.98,44.58l45.98,57.42c-6.69,14.44,18.85,6.82,19.99,7.99v10.02c12.72-1.76,33.62-1.54,45.54-5.33,3.09-1.29,4.21-6.29,7.41-8.8,1.74-1.37,4.48-1.4,5.05-1.88,13.47-11.19,3.79-6.69,3.95-9.17.23-3.59,4.7-3.86-1.95-5.82,3.21-2.18,5.4-4.13,7.99-7.01ZM208.74,79.48c-2.32-2.28-21.12-17.4-16.91-6.09.9,2.21,20.79,33.59,22.5,35.5,2.65,2.97,4.93,4.51,9.11,3.87,3.49-3.69-10.54-28.98-14.7-33.28ZM199.45,180.77c-.25.54-3.12.3-1.99,3.99l5.97.98c-7.29,4.89-9.64,8.5-11.98,17.03-8.4,11.08-16.53,24.16-24,35.98,66.23-9.36,106.87-17.82,64-91.98-4.34-7.43-3.14-.22-9.99-.01.07-5.58,2.83-24.03-5.74-12.71-6.26,9.05-10.82,34.79-16.27,46.72ZM77.45,232.75l-39.98-49.98c-6.7,27.63,14.36,46.62,39.98,49.98Z"/>
      <path class="cls-1" d="M125.45,260.77c-.38.39,1.18,3.74-1.18,4.1l-16.83-.09,6.01,5.99c-3.57,4.37-30-1.74-34.68-2.32-3.54-1.23-4.9-8.1-5.31-11.67,11-2.35,18.44,5.25,29.04,5.98,8.32.57,14.92-2.08,22.95-1.99Z"/>
      <path class="cls-4" d="M77.45,232.75c-25.62-3.36-46.68-22.34-39.98-49.98l39.98,49.98Z"/>
      <path class="cls-8" d="M177.45,206.77c-2.59,2.88-4.78,4.83-7.99,7.01,6.65,1.96,2.18,2.22,1.95,5.82-.16,2.49,9.52-2.02-3.95,9.17l1.01-9.99c-2.34.94-9.7,9.82-10.41,9.96-8.76,1.71-7.99,2.55-12.08,3.9-8.66,2.86-21.4,4.85-30.55,7.09l-1.96,3.01c5.97-.16,12.04.3,18,.02l-22.01,2.01v-10.02c-1.14-1.17-26.68,6.45-19.99-7.99,23.33,18.75,65.91-8.27,88-20Z"/>
      <path class="cls-2" d="M59.45,124.77c-2.51-9.72,30.24-28.72,36.34-32.65,4.54-1.37,8.94-1.69,13.65-1.33.29,7.1-8.49,8.24-13,11.98-7.82,6.5-17.92,14.97-24.99,22.01-1.66-14.83-6.37-5.55-12,0Z"/>
      <path class="cls-9" d="M208.74,79.48c4.16,4.3,18.19,29.59,14.7,33.28-4.18.64-6.46-.9-9.11-3.87-1.71-1.91-21.6-33.29-22.5-35.5-4.21-11.33,14.6,3.82,16.91,6.09Z"/>
      <path class="cls-7" d="M167.45,228.77c-7.39.65-7.83,7.84-12.46,10.68-12.16,3.99-28.64,3.3-41.53,3.3l1.96-3.01c9.14-2.24,21.88-4.24,30.55-7.09,4.1-1.35,3.33-2.19,12.08-3.9.71-.14,8.07-9.02,10.41-9.96l-1.01,9.99Z"/>
      <path class="cls-3" d="M199.45,180.77c5.45-11.94,10.01-37.67,16.28-46.72,6.65-9.61,7.09,2.25,5.72,8.72-2.16,10.26-10.37,25.82-16.34,34.66-.65.96-4.53,7.56-5.66,3.34Z"/>
      <path class="cls-5" d="M221.45,142.77v3.99c6.85-.21,5.66-7.42,10,.01-4.6-1-4.32,2.26-5.69,5.21-11.73,25.37-19.78,31.6-34.31,50.79,2.34-8.53,4.7-12.13,11.98-17.03l-5.97-.98c-1.13-3.69,1.74-3.46,1.99-3.99,3.37,8.21,22.48-34.56,22-38Z"/>
    </g>
  </g>
</svg>