<?xml version="1.0" encoding="UTF-8"?>
<svg id="Calque_2" data-name="Calque 2" xmlns="http://www.w3.org/2000/svg" viewBox="0 0 167.49 170.1">
  <defs>
    <style>
      .cls-1 {
        fill: #adcc88;
      }

      .cls-2 {
        fill: #d9ecb9;
      }

      .cls-3 {
        fill: #87bc58;
      }

      .cls-4 {
        fill: #c0d9a0;
      }

      .cls-5 {
        fill: #abcd84;
      }

      .cls-6 {
        fill: #a7c97c;
      }
    </style>
  </defs>
  <g id="Calque_1-2" data-name="Calque 1">
    <g>
      <path class="cls-3" d="M103.48,39.71c5.95-4.68,16.83-12.5,11.99-19.99,12.2,3.43,7.85-14.9,20.98-16.04,3.48,6.21-10.09,5.34-6.96,14.02l7.97-1.99-1.98,7.98c11.5-5.2,15.39,4.58,21.58,12.98.06,4.04-20.66,18.15-25.44,21.32l1.84,7.71-4.98-3.97c-1.32,6.06-9.01,6.64-10.52,8.44s-6.7,16-5.98,18.98c.26,1.08,5.74,15.44,9.5,10.55.44,1.26,1.84,1.69,2,2-7.22,13.7,4.31,15.52,7.46,20.54,4.91,7.85,3.43,7.13,10.54,15.46,3.08,4.04,1.74,9.34,1.99,13.99-3.15-.09-10.32-2.49-13.99-3.99-.95-.56-1.6-4.28-3.98-4-.36,2.02.76,6.99-.12,7.91-.41.43-11.31,2.42-11.79,2.06-2.47-10.89-8.35-11.79-15.81-16.39-.56-.84-2.62-15.2-5.05-19.09-.31-.5-6.83-7.18-8.21-6.47-2.87,1.46-2.24,6.74-4.3,8.17s-6.5,1.13-9.2,2.32c-6.06,2.68-5.75,7.35-15.52,3.5,4.98,6.27-6.11,21.92-11.04,23.97-8.7,3.62,4.68-9.36-1.92-7.94-4.34-.25-12.96,9.48-14.02,9.5-7.08.15-6.45-9.33-7.49-11.06-1.18-1.98-6.94-.86-5.31-7.16.99-3.82,8.68-5.96,7.75-11.32l-20.01,12.97c4.3-12.64,20.53-18.89,24.02-30.98,3.02-3.64,18.24-18.43,17.83-20.71-12-14.95-24.89-29.2-37.84-43.29l.97-5.98,11.02,5.97c1.66-5.16-7.82-6.79-7.84-8.95,6.09-16.08,11.76-10.42,19.81-5.03,1.24-.95,5.51-15.07,10.03,0l-6-.97,3.07,5c5.72-3.05,8.91-2.02,7.97-7.88-1.93-12.06,11.15,7.08,14.98,7.87-.27,10.14,7.25,7.85,7.69,8.37.78.92,7.04,14.65,8.37,15.6,11.03-2.88,17.36-7.22,25.94-13.97Z"/>
      <path class="cls-6" d="M27.48,103.71c-3.49,12.1-19.71,18.33-24.02,30.98l20.01-12.97c.93,5.35-6.76,7.5-7.75,11.32-1.63,6.3,4.12,5.18,5.31,7.16,1.03,1.73.4,11.21,7.49,11.06,1.06-.02,9.67-9.75,14.02-9.5,6.6-1.42-6.78,11.57,1.92,7.94,4.93-2.05,16.02-17.7,11.04-23.97,9.76,3.85,9.45-.82,15.52-3.5,2.7-1.19,7.2-.93,9.2-2.32s1.43-6.71,4.3-8.17c11.5,3.76,11.15,18.97,13.27,25.56,7.49,4.61,13.33,5.5,15.81,16.39.48.36,11.38-1.63,11.79-2.07.88-.91-.24-5.88.12-7.91,2.38-.28,3.03,3.44,3.98,4-1.17,8.82-9.17,5.15-10.02,6.01-1.2,1.22.69,7.51,3.05,7.99,1.79.37,13.79-8.08,12.96-12,1.74.54,7.47,2.56,7.99,1.99-.03-2.65.1-5.34.01-7.99l5.98-2,.02,6c-6.21,6.58-17.22,18.61-26.01,18.02l2.03,3.97c-18.34,5.3-32.28-43.9-45.01-46.06-11.84,5.32-36.52,47.22-55.38,44.03-33.74-33.74-33.95-30.53,2.38-63.95Z"/>
      <path class="cls-5" d="M61.48,27.71v2c-3.83-.78-16.91-19.93-14.98-7.87.94,5.86-2.26,4.83-7.97,7.88l-3.07-5,6,.97c-4.52-15.07-8.79-.94-10.03,0-8.08-5.42-13.73-11.01-19.81,5.04.02,2.17,9.5,3.79,7.84,8.95l-11.02-5.97-.97,5.98c-5.92-6.44-11.29-4.81-2.91-15.97C7.12,20.33,32.56.2,34.83,0c3.54-.31,22.55,23.16,26.65,27.71Z"/>
      <path class="cls-1" d="M111.48,19.71C115.77,14.94,132.57-.73,138.12.07c5.21.75,23.4,20.58,26.36,25.79,1.57,2.77-3.32,5.41,3.01,6.83-1.98,8.58-41.44,39.27-50.01,49.04-3.75,4.27-2.27,4.05,0,8,1.48,2.58,2.81,2.69,4,4,.33,1.77-.49,4.61,0,6-3.76,4.89-9.24-9.47-9.5-10.55-.72-2.98,4.44-17.16,5.98-18.98s9.2-2.37,10.52-8.44l4.98,3.97-1.84-7.71c4.79-3.17,25.51-17.27,25.44-21.32-6.19-8.4-10.08-18.18-21.58-12.98l1.98-7.98-7.97,1.99c-3.14-8.68,10.44-7.82,6.96-14.02-13.13,1.14-8.78,19.47-20.98,16.04,4.84,7.49-6.04,15.3-11.99,19.99v-10c2.47-4.73,9.47-.37,8-10Z"/>
      <path class="cls-4" d="M121.48,93.71c11.27,11.24,27.43,28.72,35.77,41.44,1.3,4.86-4.87,9.49-7.77,12.56l-.02-6-5.98,2c-.06-1.88-.66-4.43-2-6-1.01-12.45,5.67-2.35,9.98,0,.52-12.93-19.57-15.19-18.1-29.89-2.05-1.89-4.54,4.34-9.88-6.11-3.1-1.16-1.77-5.11-2-8Z"/>
      <path class="cls-4" d="M61.48,27.71c6.2,6.89,14.57,13.93,18.05,22,9.82-4.52,16.19-12.96,23.95-20v10c-8.58,6.75-14.91,11.09-25.94,13.97-1.33-.95-7.59-14.68-8.37-15.6-2.47-.09-8.65.27-7.69-10.37Z"/>
      <path class="cls-4" d="M105.48,27.71c1.54-3.06,3.74-5.48,6-8,1.58,7.92-3.88,6.36-6,8Z"/>
      <path class="cls-4" d="M117.48,89.71c-2.27-3.95-3.75-3.73,0-8v8Z"/>
      <path class="cls-6" d="M123.48,101.71c5.33,10.45,7.83,4.22,9.87,6.11-1.44,14.76,18.59,16.9,18.11,29.89-4.31-2.35-10.99-12.45-9.98,0-7.11-8.33-5.64-7.61-10.54-15.46-3.14-5.03-14.68-6.85-7.46-20.54Z"/>
      <path class="cls-2" d="M135.48,149.71c.82,3.92-11.17,12.36-12.96,12-2.36-.48-4.25-6.77-3.05-7.99.84-.86,8.84,2.81,10.02-6.01,2.1,1.25,3.9,1.35,6,2Z"/>
    </g>
  </g>
</svg>