<?xml version="1.0" encoding="UTF-8"?>
<svg id="Calque_2" data-name="Calque 2" xmlns="http://www.w3.org/2000/svg" viewBox="0 0 136.02 131.64">
  <defs>
    <style>
      .cls-1 {
        fill: #9ec36a;
      }

      .cls-2 {
        fill: #c8deaa;
      }

      .cls-3 {
        fill: #cde6a4;
      }
    </style>
  </defs>
  <g id="Calque_1-2" data-name="Calque 1">
    <g>
      <path class="cls-1" d="M118.78,20.36c30.46,27.26,17.58,80.85-15.38,101.18-21.13,13.03-43.49,12.72-66.1,3.32-90.02-37.4,1.06-176.47,81.47-104.5ZM100.02,25.15c-1.65-3.65-.45-5-5.02-6.07-3.56-.84-26.49-5.23-27.92-5.16-9.04,6.95-24.6.61-27.06,13.23-20.63,9.6-21.46,54.09-7.01,70.01,6.08,6.69,26.82,18.13,36.01,18.15,49.37.15,72.3-69.22,31-90.16ZM22,93.15c-5.45-9.37-.72-23.31-7.96-30-3.97,11.95-1.6,21.61,7.96,30Z"/>
      <path class="cls-2" d="M40.02,27.15c2.41-12.59,18.05-6.3,27.06-13.23,1.43-.07,24.36,4.32,27.92,5.16,4.57,1.07,3.38,2.42,5.02,6.07-11.39-5.78-22.74-4.86-34.97-8.03-4.78,4.53,9.26,6.1,4.96,10.02-1.13,1.03-9.11-3.94-13-4.13-4.65-.22-12.67,2.12-16.99,4.13Z"/>
      <path class="cls-3" d="M22,93.15c-9.56-8.39-11.93-18.04-7.96-30,7.24,6.69,2.51,20.63,7.96,30Z"/>
    </g>
  </g>
</svg>