<?xml version="1.0" encoding="UTF-8"?>
<svg id="Calque_2" data-name="Calque 2" xmlns="http://www.w3.org/2000/svg" viewBox="0 0 232.9 267.76">
  <defs>
    <style>
      .cls-1 {
        fill: #de9d9f;
      }

      .cls-2 {
        fill: #da5858;
      }

      .cls-3 {
        fill: #db4144;
      }

      .cls-4 {
        fill: #fbe5df;
      }

      .cls-5 {
        fill: #e9b4b1;
      }

      .cls-6 {
        fill: #d46b6c;
      }

      .cls-7 {
        fill: #dc908f;
      }

      .cls-8 {
        fill: #e6b5b3;
      }

      .cls-9 {
        fill: #d56163;
      }

      .cls-10 {
        fill: #d55f5f;
      }

      .cls-11 {
        fill: #e3a9a9;
      }

      .cls-12 {
        fill: #e9b4b4;
      }

      .cls-13 {
        fill: #cd4042;
      }

      .cls-14 {
        fill: #d88a89;
      }
    </style>
  </defs>
  <g id="Calque_1-2" data-name="Calque 1">
    <g>
      <path class="cls-6" d="M204.02,94.02c6.9-1.77,23.3-4.47,26.95,4.04,8.26,19.28-12.66,7.86-10.98,19.95-6.57-4.15-15.32,5.18-19.01,5.29-2.34.07-6.72-4.6-8.8-3.19-.63.43-2.61,8.23-7.6,11.46-3.24,2.1-21.82,8.42-26.46,9.62-2.87.74-6.43-1.65-7.71-.9-4.16,8.99-5.47,6.07-14.25,6.77-2.65,1.02-7.78,5.86-12.34,7.74-7.56,3.13-16.97,3.46-23.81,10.21,9.58,2.27,20.41-4.69,29.27-4.9,5.59-.14,9.08,4.63,14.74,3.88,1.18-2.55-8.47-2.23-3.99-5.97,12.82-4.24,45.69-5.56,58.63-5.18,25.25,2.8,21.7,14.61,3.38,25.16l-6.67.25-1.33,1.75c-.25.1.25,1.88,0,2-3.24.66-9.09-1.81-9.54-4.98-.73-5.08,8.65-5.51,7.53-11.01-2.55-.76-9.54.08-11.16-.74-2.51-1.26-2.35-5.04-3.72-5.09-6.02-.21-8.04,4.86-9.11,9.82-4.35-.37-7.04-1.81-9-1.88-15.98,1.61-55.41,15.12-71.82,13.88-1.34.21-1.21,7.29-5.14,3.94-.66-.57,1.64-5.73-4.07-3.91l1,4c-10.81-7.12-4.89-1.16-8.38-.07-6.35,1.98-14.61,2.84-21.53,6.16-4.35-7.86-4.7-8.5-1.07-16.1,4.4.34,6.21-4.64,9.5-5.66,4.18-1.29,13.95,2.21,14.41,1.65,1.62-2.03-1.59-7.41,7.58-9.62,4.79-1.15,6.03,5.42,8.52-4.37,13.26-2.31,5.84-2.4,10.56-7.44,1.36-1.45,8.84-2.14,10.47-6.55l.96,3.97c9.84,4.84,7-5.36,11.34-8.15,4.71-3.03,10.93-.81,15.27-1.8,2.21-.5,1.98-5.52,6.88-7.56s11.04-.3,13.54-.93c.6-.15,9.94-3.87,10.48-4.15,1.16-7.58,9.58-.55,14.49-1.41,1.19-2.53-8.49-2.26-3.97-5.98.9-.74,4.78,2.19,6.87,1.73,5.14-4.2,2.34-8.54,12.1-6.22,1.09-.39,2.15-5.34,7.01-3.54l-19.99-1.98,5.98-6,.02,3.98c4.88,2.99,3.58-7.72,7.93-3.89-.99,9.38,10.55-.72,16.06,1.93l-4,7.96c2.82-.5,19.3-3.26,20.01-3.99.38-.39-.25-4.36,0-5.98l-10-.03,5.99-5.96c-3.96-.22-13.39,2.84-16.72,1.84-1.81-.54-.61-5.25-5.28-3.86Z"/>
      <path class="cls-9" d="M114.02,98.02c-.58.07-6.64,6.94-10,6.03,1.6,4.21,5.51,6.66,10.01,5.95l-1.95-3.86,8.96-4.11,1,5.99,6.99-5.99c2.83,10.21,12.59-.21,15.64.29,2.39.39,3.62,4.89,7.36,3.69l-1.01-3.99c4.95-1.47,11.64,1.92,15.66,1.37,10.01-1.37,27.33-6.38,37.34-9.36,4.67-1.39,3.47,3.32,5.28,3.86,3.33,1,12.76-2.06,16.72-1.84l-5.99,5.96,10,.03c-.25,1.62.38,5.59,0,5.98-.72.73-17.19,3.5-20.01,3.99l4-7.96c-5.51-2.65-17.06,7.44-16.06-1.93-4.35-3.83-3.05,6.88-7.93,3.89l-.02-3.98-5.98,6c-21.41,5.75-47.06,4.68-68.9,8.1-7.67,1.2-23.16,7.78-30.15,8.08-6.53.28-7.59-3.51-12.95-4.16l2,5.97L4.04,142.03l-4.04-13.99c28.31-10.26,56.46-23.42,84.02-32.03,6.42,2.08,18.69,2.63,21.16-4.03,3.5.12,7.62,5.53,6.86-1.96l1.98,7.99Z"/>
      <path class="cls-13" d="M88.02,44.02c27.65-10.39,57.71-18.1,83.99-31.98-33.55,3.17-67.25,6.29-100.73,10.24-10-.03-51.23,14.92-51.25-.24C77.77,7.55,139.69,7.08,197.99,0c.34.36,2.06,9.27,1.82,9.71-1.13,2.05-36.48,19.01-41.81,21.3-18.27,6.49-39.28,12-57.99,19.01-5.31-1.35-7.67,2.59-12,4,0,0-15.99,1.98-15.99,1.98l3.99-7.98c3.56-.19,6.66-.84,6.03,3.96l3.95.04,2.02-8Z"/>
      <path class="cls-10" d="M76.02,48.02l-3.99,7.98,15.99-1.98c-6.01,2.44-12.19,4.22-18.1,6.93-1.4.64-6.04,1.1-2.87,3.1,38.73-8.98,79.57-13.8,118.97-14.03,6.2,8.58,26.2-.8,30.97.46,2.98,3.58,1.63,4.04,7.03,3.54.56.53.23,8.18-.99,10.05-5.18,3.42-12.97,7.28-19.01,9.95-6.99-3.8-22.42-3.76-16,6-5.78,1.83-11.91,2.35-18,4-6.77-.17-4.45-8.35-12.01-5.98,5.45,7.62-7.5,4.3-5.97-2.01,8.14,2.83,15.8-1.49,23.44-.57,5.28.64,1.61-4.52,2.55-7.44,3.21-.81,6.82-.74,9.99-2.03.28-3.57-6.76-2.03-9.12-1.99-53.75,2.72-110.37,8.25-161.75,22.12-5.9-.42-8.57-8.96-9.12-14.1,3.78.56,6.63-.75,10.01-2.01,2.97,4.29-7.55,8.42-3.99,11.99.81.81,9.17-.89,11.27-1.65,2.89-1.04,2.86-4.15,3.61-4.09,2.16.18,4.78,2.5,7.91,1.89,2.2-.44-.36-9.86,6.19,1.85,4.28-3.01,5.54-6.8,5.02-12l4.98,4c2.83-2.56,3.87-6.7,7.02-8.98,3.58-2.59,9.13-1.51,9.97-4.99-10.68-.75-25.43,2.93-35.99,5.97,13.21-7.02,27.95-11.05,42-16Z"/>
      <path class="cls-2" d="M154.02,216.02c-10.77,0-24.13,1.47-37.03,2.98-3.14.37-5.33,3.77-12,3.22-4.73-.39-10.35-4.12-11.02-9.17-.16-7.78,26.68-6.77,27.71-7.51.29-.12.48-4.01,4.24-4.65,3.3-.56,4.34,4.25,8.09,3.12-.73-5.9-.09-14.91,7.62-11.02l2.38,6.04-5.97,4.98c4.14-.18,13.01,1.06,15.99-1.99.2,1.23-.71,3.59,1.08,3.91.67.15,12.1.15,13.74.09,3.15-.13,5.79-3.21,8.16-3.19,2.1.02,12.69,4.44,17.02,3.21l-3.99,4.99,4,8.99c-6.43,7.28-37.27,22.07-39.13,25.95.28,8.28,10.11,8.06,11.12,17.12.49,4.41-.7,2.18-2.83,3.12-10.39,4.58-6.32-2.31-10.17-4.19-.7,8.34-7.5-1.08-9.14-4.85-6.89-15.79,10.86-29.75,24.15-35.16,3.16-1.29,10.87.67,13.99-5.03-4.74-9.76-5.01-5.77-11.43-3.72-2.04.65-13.88,2.75-16.56,2.75Z"/>
      <path class="cls-7" d="M168.02,170.02c1.06-4.96,3.09-10.03,9.11-9.82,1.37.05,1.21,3.83,3.72,5.09,1.62.81,8.62-.03,11.16.74,1.12,5.5-8.26,5.93-7.53,11.01.45,3.16,6.31,5.63,9.54,4.98-13.66,6.71-30.56,10.32-40,20-2.98,3.05-11.85,1.81-15.99,1.99l5.97-4.98-2.38-6.04c-7.71-3.89-8.35,5.12-7.62,11.02-3.75,1.13-4.79-3.69-8.09-3.12-3.76.64-3.95,4.53-4.24,4.65-1.06.74-27.84-.29-27.71,7.51.67,5.05,6.29,8.79,11.02,9.17,6.67.55,8.87-2.85,12-3.22,12.9-1.51,26.26-2.98,37.03-2.98v2c-11.49,1.04-49.03,10.11-56.8,8.16-1.12-.28-5.93-14.06-4.99-16.86.15-.44,5.73-6.85,6.17-7.02,1.84-.71,4,1.9,5.29,1.27,4.74-2.3,13.79-4.01,18.33-6.62,5.09-2.92,6.26-7.54,17.13-8.83,13.56-1.61,10.43.24,22.35-6.03,6.82-3.58,16.65-5.37,18.51-12.06-3.96-.28-8.06.31-12-.02Z"/>
      <path class="cls-14" d="M178.02,68.02c-.94,2.91,2.73,8.07-2.55,7.44-7.64-.92-15.3,3.4-23.44.57-1.53,6.31,11.42,9.63,5.97,2.01,7.56-2.37,5.24,5.82,12.01,5.98-12.02,3.26-18.09,4.35-30,10-3.77.96-9.11-1.73-12.27-1-9.25,4.04-2.1,10.67-13.73,5l-1.98-7.99c.76,7.49-3.35,2.08-6.86,1.96-2.48,6.66-14.74,6.1-21.16,4.03,4.55-1.75,9.53-2.31,13.15-5.88l2.66.16,1.18,3.72c6.59-10.94,17.82-7.46,27.41-10.59,17.47-5.7,31.15-10.77,49.6-15.4Z"/>
      <path class="cls-3" d="M34.02,64.02c10.56-3.04,25.31-6.72,35.99-5.97-.85,3.48-6.39,2.4-9.97,4.99-3.15,2.28-4.19,6.42-7.02,8.98l-4.98-4c.52,5.2-.74,8.99-5.02,12-6.55-11.71-3.99-2.28-6.19-1.85-3.13.62-5.75-1.71-7.91-1.89-.75-.06-.72,3.04-3.61,4.09-2.09.76-10.46,2.45-11.27,1.65-3.56-3.57,6.96-7.7,3.99-11.99,5.37-2.02,10.41-4.39,16-6Z"/>
      <path class="cls-12" d="M140.02,94.02c-3.68,1.74-5.46,2.92-10.01,2.01-.15,3.67-.95,4.18,3.04,4.08,23.19-.58,47.49-6.65,70.97-6.08-10.01,2.98-27.33,8-37.34,9.36-4.02.55-10.71-2.84-15.66-1.37l1.01,3.99c-3.74,1.2-4.97-3.3-7.36-3.69-3.06-.5-12.81,9.92-15.64-.29l-6.99,5.99-1-5.99-8.96,4.11,1.95,3.86c-4.51.71-8.41-1.74-10.01-5.95,3.36.91,9.42-5.96,10-6.03.82-.1,4.34,2.57,6.69,2.16,1.77-.31,2.14-6.02,7.03-7.15,3.16-.73,8.5,1.95,12.27,1Z"/>
      <path class="cls-4" d="M132.02,40.02c-7.17,3.6-11.93,3.57-10.01,11.99l48.01-1.99c-33.78,2.49-69.67,5.73-102.97,14.03-3.17-2,1.47-2.46,2.87-3.1,7.23-3.39,15.09-5.1,22.1-8.93,3.65,1.39,5.83-1.31,8-2,10.64-3.39,20.85-8.28,32-10Z"/>
      <path class="cls-8" d="M88.02,158.02c-2.49,9.79-3.73,3.22-8.52,4.37-9.17,2.21-5.96,7.59-7.58,9.62-.45.57-10.23-2.94-14.41-1.65-3.28,1.01-5.1,6-9.5,5.66,2.62-5.49,4.53-8.17,11.01-10.15,9.61-2.93,19.22-6.15,28.99-7.85Z"/>
      <path class="cls-5" d="M154.02,216.02c2.68,0,14.52-2.1,16.56-2.75,6.42-2.04,6.69-6.04,11.43,3.72-3.12,5.7-10.83,3.74-13.99,5.03l2-3.98c-6-1.16-10.69-.5-16-.02v-2Z"/>
      <path class="cls-7" d="M154.02,204.02c9.44-9.16,10.32.29,10.98,0,1.42-.61,2.58-3.49,6.13-4.05.94-.15,18.09.83,18.99,1.16,8.5,3.14,9.83,12.17,3.9,18.89l-4-8.99,3.99-4.99c-4.33,1.23-14.92-3.19-17.02-3.21-2.37-.03-5.01,3.06-8.16,3.19-2.23-.47-16.45,1.61-14.82-1.99Z"/>
      <path class="cls-1" d="M204.02,74.02c-5.87,2.58-9.89,4.07-16,6-6.42-9.76,9.01-9.8,16-6Z"/>
      <path class="cls-11" d="M186.02,50.02c9.42-.47,28.74-3.05,36.96-2.1,2.33.27.44,5.17,1.04,6.1.17.26,3.26-.8,3.87,1.27,2.49,8.43-2.07,15.38-11.87,12.73,1.93-1.22,6.29-2.83,7.01-3.95,1.22-1.87,1.54-9.52.99-10.05-5.46.52-4.08-.02-7.03-3.54-4.76-1.25-24.77,8.12-30.97-.46Z"/>
      <path class="cls-10" d="M88.02,44.02l-2.02,8-3.95-.04c.26-3.17-.68-4.73-4.03-3.96,3.03-1.07,6.33-2.72,10-4Z"/>
      <path class="cls-7" d="M202.02,178.02c-4.28,2.46-6.3,1.3-8,2l1.33-1.75,6.67-.25Z"/>
      <path class="cls-10" d="M100.02,50.02c-2.17.69-4.35,3.39-8,2,2.59-1.16,4.17-3.2,8-2Z"/>
    </g>
  </g>
</svg>