<?xml version="1.0" encoding="UTF-8"?>
<svg id="Calque_2" data-name="Calque 2" xmlns="http://www.w3.org/2000/svg" viewBox="0 0 242.1 225.57">
  <defs>
    <style>
      .cls-1 {
        fill: #34352f;
      }
    </style>
  </defs>
  <g id="Calque_1-2" data-name="Calque 1">
    <path class="cls-1" d="M192.19,141.76c-.79,1.25-4.55,1.93-6.46,4.54-33.69,65.11-138.6,46.56-145.1-26.93-4.73-50.81,33.16-95.19,84.94-91.08,1.23.09,1.16,3.22,1.55,3.33,1.53.4,3.49-1.09,5.37-.22,88.25,40.44,16.74,155.31-49.79,95.91-12.42-16.63-7.46-58.72,15.49-64.54,6.79-1.72,22.72-2.71,29.03.03,22.53,9.76,25.45,44.65-.02,49.12-4.61.81-18.09-2.64-20.06-6.03-1.4-2.41.28-14.33,1.6-15.59,4.39-4.17,4.15,6.4,4.97,7.95,7.86,14.74,35.2-.04,17.03-20.42-11.28-12.65-37.19-7.93-44.46,7.05-22.52,73.33,105.1,60.09,73.39-14.54-22.18-49.77-89.16-33.79-105.78,10.15-27.59,72.94,53.31,124.82,110.65,78.65,73.59-59.26,7.43-191.35-94.42-138.42-109.39,56.84-59.81,211.61,61.03,197.03,90.48-13.3,133.98-144.07,63.66-204.56-1.05-3.8,6.89-4.73,8.66-4.41,25.21,18.25,44.29,62.96,37.08,94.03-.49,1.67-3.63,1.5-3.57,2.39-3.34,168.37-269.35,158.55-233.7-19.34C51.15-56.58,254.99-10.61,192.19,141.76Z"/>
  </g>
</svg>