<?xml version="1.0" encoding="UTF-8"?>
<svg id="Calque_2" data-name="Calque 2" xmlns="http://www.w3.org/2000/svg" viewBox="0 0 142.26 325.56">
  <defs>
    <style>
      .cls-1 {
        fill: #a4cde4;
      }

      .cls-2 {
        fill: #478cbc;
      }
    </style>
  </defs>
  <g id="Calque_1-2" data-name="Calque 1">
    <g>
      <path class="cls-2" d="M65.99,51.68c7.14,4.27,2.01-1.12,5.29-2.02,10.31-2.83,50.57,7,61.25,12.48,12.52,6.43,11.15,26.5-1.55,30.58-19.69,1.7-46.09-.98-67.02-6.33-16.79-5.11-18.67-24-37.82-1.09-17.77,21.26-18.32,46.06,2.55,65.67,11.59,10.9,12.77,1.46,25.22-2.36,18.5-5.66,34.77-4.54,52.77-2.34,11.93,6.49,38.75,9.97,32.92,30-.32,1.11-8.62,7.07-9.18,7.25-16.78,3.35-50.86,6.97-66.03-1.24-5.18-1.69-28.34-14.07-30.56-13.67-3.1.56-18.03,11.7-19.64,14.27-6.14,9.74.29,26.62,8.66,32.94,6.58,4.97,11.25-1.01,17.16-3.24,2.04-.77,5,1.09,5.65.66.86-.58.75-3.83,3.51-5.09,15.23-1,62.96-.55,77.87,9.48,5.22,4.01,17.89,22.84,9.55,28.24-5.63,3.65-10.02-4.72-8.61,5.82l-7.13-1.86c-.88-.1-.25,5.57-5.88,3.91-1.83-.54.36-4.94-2.96-4.04l-1.13,4.11-5.8-2.24-1.13,4.11h-1.95c-1.79-11.97-16.24-1.92-21.02-2.09-15.97-8.26-30.85-9.32-47.42-18.02-3.22-1.61-3.15-8.19-11.62,1.09-17.84,19.55-3.37,41.41,14.17,53.91,27.94,19.93,72.32,23.4,105.88,23.12-.52,2.76,1.53,8.29-1.18,10.23-19.37,4.05-60.75.29-79.7-6.86-2.35-1.31-5.12-6.83-5.53-6.99-2.09-.8-5.41,2.12-9.65.87-4.02-1.18-35.52-27.93-36.83-31.21-.72-1.8,1.33-4.45.55-5.61-.72-1.06-3.91-.83-4.93-3.32-.41-1.01-.99-20.67-.77-21.73.29-1.35,3.17-1.37,3.37-1.95,1.03-3.04.33-6.49,1.75-9.32,6.68-13.39,13.4-7.49.96-25.23-1.42-2.02-5.56-2.13-6.09-4.28-4.3-17.33,4.29-37.97,19.97-45.57-9.91-11.24-19.88-25.14-22.91-40.04-.54-5.8,6.04-12.72-1.01-13.98,9.24-4.89-.55-12.85,10.01-11.03-7.75-12.05,12.82-23.54,18.12-27.3,2.73-11.68-15.31-17.76-6.46-38.02C41.72,2.79,91.14-4.33,124.4,2.27c7.66,1.71,18.1,2.28,13.58,11.42C109.19-3.33-12.22,17,40.92,65.31c.77-.03,5.59-4.02,9.03-4.81,4.94-1.13,6.89,5.1,6.07-4.82l5.96,4,4.02-8ZM131.99,81.65c-2.74-25.53-65.76-26.47-81.95-12.98,12.56,13.94,65.93,18.52,81.95,12.98ZM48,163.65c21.95,9.69,46.41,16.74,70.76,13.79,33.07-4.02-7.61-19.46-20.01-21.5-10.26-1.56-45.37-1.51-50.75,7.71ZM42,223.69c-3.59,3.9,9.97,8.01,12.1,8.88,20.83,7.47,58.54,17.57,77.86,4.1-21.5-23.14-61.51-17.27-89.95-12.99Z"/>
      <path class="cls-1" d="M65.99,51.68l-4.02,8-5.96-4c.82,9.92-1.12,3.69-6.07,4.82-6.95,1.64-8.81,8.76-11.95,1.18,3.58-6.82,11.14-5.49,17.65-7.34,5.73-1.63,5.1-5.8,10.35-2.66Z"/>
    </g>
  </g>
</svg>