<?xml version="1.0" encoding="UTF-8"?>
<svg id="Calque_2" data-name="Calque 2" xmlns="http://www.w3.org/2000/svg" viewBox="0 0 383.65 165.38">
  <defs>
    <style>
      .cls-1 {
        fill: #f0c8d9;
      }

      .cls-2 {
        fill: #e493b5;
      }

      .cls-3 {
        fill: #ecc2d4;
      }

      .cls-4 {
        fill: #e6a3bf;
      }
    </style>
  </defs>
  <g id="Calque_1-2" data-name="Calque 1">
    <g>
      <path class="cls-4" d="M197.41,59.42c3.39,9.92,25.43,48.51,24.8,55.79-.36,4.21.85,4.47,3.17,2.2,3.31-3.25,7.84-24.7,10.24-30.38,7.54-17.78,19.74-37.74,27.61-55.19,5-11.07,4.09-23.22,20.17-26.42-2.12,8.21,4.58,4.9,6.2,7.17,2.22,3.09,16.06,46.82,18.86,54.85,2.37,6.79,7.97,17.84,8.56,24.97.32,3.94-4.94,10.47,2.36,13.02L365.92,1.93c8.4-4.78,7.14.77,8.46,1.07s6.19-1.56,9.03.44c1.75,6.54-6.33,2.81-7.98,6.99-.69,1.75,6.6-1.88,2.1,8.1-11.37,25.24-25.73,49.3-37.85,74.14-6.11,12.52-8.66,27.01-18.29,38.75-20.08-8.85-18.94-30.95-24.63-48.33-5.24-16.02-10.96-32.08-17.36-47.66-5.34-4.05-9.83,20.36-9.99,23.99l-5.97-1.99c4.35,9.44-1.07,7.22-1.9,9.49-4.13,11.33-7.25,16.2-11.58,26.04-4.92,11.18-10.41,31.9-16.78,41.22-.58.84-10.17,10.86-10.91,11.1-7.49,2.48-7.88-10.38-10.48-15.22-13.27-24.75-22.05-42.45-31.88-68.1-2.84-6.93-10.84-42.28-13.05-16.12-3.71,10.08-9.02,19.83-13.44,29.59,1.6-4.02-4.09-3.98-4.12-5.13-.17-7.86,14.64-32.74,21.09-38.36,16.17,4.63,3.8,17.61,20.59,31.99.93,1.94-2.9,9.83,6.42,9.48-2.06-3.52.18-12.95.01-13.99Z"/>
      <path class="cls-2" d="M95.41,123.42c.89,2.42,6.68,19.28,10.99,14,10.69-22.48,20.94-45.42,32.45-67.47,6.96-12.4,19.26-40.74,28.72-49.36,15.59-9.71,9.87,1.56,10.68,2.8.97,1.5,4.62,2.16,6.71,5.51,2.35,3.77,11.8,26.47,12.46,30.53.17,1.04-2.07,10.47-.01,13.99-9.32.35-5.49-7.54-6.42-9.48-16.8-14.38-4.4-27.32-20.59-31.99-6.45,5.62-21.26,30.5-21.09,38.36.02,1.14,5.72,1.11,4.12,5.13-5.65,12.48-10.9,25.41-17.45,37.46-4,7.35-13.11,17.67-14.55,24.54-14,5.59-3.64,21.96-25.53,17.59-8.71-5.54-37.03-76.42-44.29-90.75-1.07-2.11,1.03-3.77-4.15-2.84-4.82,12.21-36.39,104.14-43.03,103.96-17.03-14.55,20.26-81.22,26.6-101.36,2.3-5.37,13.52-31.16,17.31-31.82,9.57-1.66,6.12,7.01,8.56,12.73,1.98,4.64,6.4,4.98,8.42,8.13,2.7,4.21,7.93,17.31,8.1,22.35.4,14.65,3.4,32.18,18.25,40.91,2.56,3.02-3.55,8.22,3.75,7.09Z"/>
      <path class="cls-3" d="M95.41,123.42c-7.31,1.13-1.2-4.07-3.75-7.09-14.84-8.74-17.85-26.25-18.25-40.91,10.7,14.11,15.08,32.15,22,48Z"/>
      <path class="cls-1" d="M103.41,155.42c10.87,1.18,7.45-15.27,18-18-.9,4.31-5.17,20.81-7.94,23.11-3.05,2.53-9.14-4.69-10.06-5.11Z"/>
    </g>
  </g>
</svg>