<?xml version="1.0" encoding="UTF-8"?>
<svg id="Calque_2" data-name="Calque 2" xmlns="http://www.w3.org/2000/svg" viewBox="0 0 225.3 222.27">
  <defs>
    <style>
      .cls-1 {
        fill: #cbe0a8;
      }

      .cls-2 {
        fill: #c7dda1;
      }

      .cls-3 {
        fill: #cedfb0;
      }

      .cls-4 {
        fill: #a7ca74;
      }

      .cls-5 {
        fill: #b5d18b;
      }

      .cls-6 {
        fill: #92bf55;
      }

      .cls-7 {
        fill: #abcd7a;
      }

      .cls-8 {
        fill: #aacb78;
      }
    </style>
  </defs>
  <g id="Calque_1-2" data-name="Calque 1">
    <g>
      <path class="cls-6" d="M114.17,78.1c1.33,5.47-5.29,2.35-3.99,6.97l7.99,5.03c-4.35,3.33-5.29,9.67-2,14,4.4,4.78,18.16,1.28,23.99,0v9.99s-15.98-1.98-15.98-1.98c-1.39,6.54,2.95,7.05,5.99,9.99,25.25,19.68,48.75,41.88,74,60,.77,17.73-7.56,4.37-11.58,2.07-3.96-2.27-12.91-4.25-16.42-6.07-3.09-3.5-3.86-9.3-6.94-12.13-1.22-1.12-14.22-12.08-15.06-12.63-6.42-4.2-2.54,2.61-12.04-8.11-3.06-3.45-9.82-4.08-11.38-5.71-3.85-7.81-5.94-13.17-18.56-13.42l3,9.98c-8.01-4.48-7.88-6.8-7.01-16-1-1.01-23.7,1.5-20,10.01l-53.28,55.83c-20.39-4.1,18.88-38.5,25.28-43.83.63-.38,3.81.55,6.17-.93,1.84-1.16-.26-5.08,1.78-6.13s4.95,1.68,5.86,1.04c1.32-.93,5.25-15.03,1.97-17.76-22.47,3.23-45.35,1.49-67.74,2.89l-2.04-5.1c13.32-.99,29.47,1.56,42-4,6.43-.64,62.11-.88,34.99-9.91-6.21-4.82-10.53-12.85-16.55-18.08-15.41-13.39-36.02-23.36-46.44-41.99,28.59-.7,56.62,47.21,83.99,55.97-3.09-29.37-2.32-61.29.04-90.98.19-3.09-1.99-7.93,2.94-6.99,3.53,2.34,2.86,5.35,3.14,8.87,1.67,21.06,1.13,49.42,3.89,69.11Z"/>
      <path class="cls-7" d="M140.17,78.1c-2.31,9.55-17.81,14.36-20,25.98l63-5.98c7.97,4.63,34.8-2.65,40.66,2.35,5.34,13.34-4.78,14.16-15.66,13.66-12.68.28-12.05-3.13-15.37-3.96-10.4-2.62-14.63,6.51-17.37,5.85-10.25-11.36-16.62-1.68-28.24,2.13v-6.01s-17.02,9.99-17.02,9.99c-3.04-2.94-7.38-3.45-5.99-9.99l15.98,1.98v-9.99c-5.83,1.27-19.59,4.77-23.99,0,4.11-.97.43-6.45-2-8,3.64-8.96,16.73-17.04,26-18Z"/>
      <path class="cls-4" d="M88.17,130.1c-3.7-8.5,19-11.02,20-10.01-.86,9.2-.99,11.52,7.01,16l-3-9.98c3.88.84,6.33-.07,9.99,1.99-7.87,3.46-2,13.15-2,19v36c0,10.11,7.86,22.55,2,35-.49.49,1.56,5.15-2.97,3.98-15.69-17.48-9.24-70.29-13.32-94.63-4.88-7.59-12.58-2.06-17.71,2.65Z"/>
      <path class="cls-8" d="M114.17,78.1c.05.33,2.64,6.15,2.99,5.99L187.14,18.06c15.14,4.07-42.11,53.36-46.98,60.04-6.76.22-17.57,6.73-22,12l-7.99-5.03c-1.3-4.62,5.32-1.5,3.99-6.97Z"/>
      <path class="cls-2" d="M122.17,128.1c6.95,3.93,6.26,9,8.58,11.42,1.56,1.62,8.32,2.26,11.38,5.71,9.5,10.72,5.62,3.91,12.04,8.11.84.55,13.84,11.51,15.06,12.63,3.08,2.83,3.85,8.63,6.94,12.13-18.68-9.67-31.85-24.59-47.99-37.01-2.01-1.55-2.54-3.87-6-2.98-5.34,13.63,13.51,80.68-.01,79.99,5.86-12.45-2-24.89-2-35v-36c0-5.85-5.87-15.54,2-19Z"/>
      <path class="cls-5" d="M6.17,116.1l2.04,5.1c22.39-1.4,45.27.34,67.74-2.89,3.28,2.74-.65,16.83-1.97,17.76-.91.64-3.75-2.13-5.86-1.04-3.35,4.31,3.15,6.99-7.95,7.07l13.99-17.99-73.98-.02c-.73-6.13.68-7.04,5.99-7.99Z"/>
      <path class="cls-1" d="M130.17,122.1l17.01-9.99v6.01c11.69-3.82,17.94-13.49,28.24-2.13,2.74.65,6.97-8.47,17.37-5.86,3.32.84,2.69,4.24,15.37,3.96l-71.01,5.89-.99,6.11c-.74-.67-2.99-1.09-6-4Z"/>
      <path class="cls-3" d="M176.17,178.1c3.51,1.82,12.46,3.79,16.42,6.07,4.02,2.31,12.35,15.66,11.58-2.07,4.8,3.61,17.08,8.8,4.7,13.32-10.74,3.92-25.85-9.56-32.7-17.32Z"/>
      <path class="cls-8" d="M116.17,104.1c-1.4-1.53-2.28-5.9-2-8,2.43,1.55,6.11,7.03,2,8Z"/>
    </g>
  </g>
</svg>