<?xml version="1.0" encoding="UTF-8"?>
<svg id="Calque_2" data-name="Calque 2" xmlns="http://www.w3.org/2000/svg" viewBox="0 0 250.18 235.23">
  <defs>
    <style>
      .cls-1 {
        fill: #393934;
      }
    </style>
  </defs>
  <g id="Calque_1-2" data-name="Calque 1">
    <path class="cls-1" d="M75.12,171.83C-40.94,84.6,146.83-56.11,177.72,93.79c.05,44-58.3,72.2-91.23,41.68-24.51-22.71-9.26-75.57,24.88-73.82,23.15,1.18,44.79,20.1,33.61,44.28-8.06,17.43-46.16,14.42-37.46-15.55.52-1.79.89-5.47,3.96-3.91,6.56,3.34-1.47,23.25,13.9,21.92,15.96-1.38,16.72-24.21,5.09-32.9-38.77-28.99-65.77,44.78-31.11,59.11,60.53,25.03,97.2-61.41,33.91-91.91-50.44-24.31-102.15,42.56-79.12,91.12,19.49,41.1,72.22,53.35,109.02,26.29,71.63-52.67,15.41-184.41-87.07-141.07C-23.59,61.21-5.82,216.03,101.53,224.43c89.54,7.01,146.45-58.68,132.43-146.43-1.03-6.43-11.09-29.48-2.39-31.54,7.13-1.69,13.13,18.11,14.08,23.36,32.65,122.3-119,219.3-211.2,131.69C5.64,169.76-6.46,135.78,3.36,92.36,20.83,15.2,124.22-36.27,180.45,31.51c67.93,81.89-27.46,195.28-105.33,140.32Z"/>
  </g>
</svg>