<?xml version="1.0" encoding="UTF-8"?>
<svg id="Calque_2" data-name="Calque 2" xmlns="http://www.w3.org/2000/svg" viewBox="0 0 347.36 117.75">
  <defs>
    <style>
      .cls-1 {
        fill: #f6f0a3;
      }

      .cls-2 {
        fill: #f7f196;
      }

      .cls-3 {
        fill: #f3ec8e;
      }

      .cls-4 {
        fill: #f2e249;
      }

      .cls-5 {
        fill: #f6f0a2;
      }
    </style>
  </defs>
  <g id="Calque_1-2" data-name="Calque 1">
    <g>
      <path class="cls-4" d="M163.83,39.99c2.91,6.68,6.09,14.99,8.98,22.02,2.31,5.6,4.22,24.56,11.98,21.95,4.23-1.42,29.8-72.53,36.99-77.02,12.43-7.75,15.4,23.45,18.48,31.62s8.8,15.33,12,22c1.79,3.73,5.54,22.64,10.54,21.43,14.6-13.55,52.21-121.67,55.53-51.5,1.19,4.07,6.06,7.17,7.02,11,.88,3.51-1.96,12.63-1.05,15.33s4.56,2.6,5.63,4.59c2.37,4.42,14.37,48.62,8.88,48.61-12-2.01-11.21-19.14-13.91-28.09-5.01-16.64-11.94-32.75-15.09-49.92-8.71-.27-8.18,8.61-9.99,11.99-8.98,16.84-22.03,43.91-32.34,58.66-13.67,19.55-20.03-6.32-24.65-16.67-5.07-11.35-10.53-20.57-12.04-33.96l-7.94-18.01c-53.38,111.35-29.45,102.68-75.31-.74l-5.69-3.28c-11.38,25.91-25.68,50.6-38.03,76l-7.13,5.92-3.81-1.97c-12.45-20.77-20.76-43.44-30.67-65.42-.57-2.46-3.24-3.25-4.39-4.52-2.26-2.49-3.3-6.92-7.98-5.99-4.29,15.55-13.05,29.54-20.02,43.99-11.67,9.84-10.8,27.96-23.01,37.99.01-4.83-3.37-14.81-2.6-18.53,15.15-24.27,28.07-56.36,39.61-81.46,20.44-1.43,17.99,12.88,24.48,24.52,4.53,8.11,10.79,15.81,15.28,24.72,3.83,7.6,3.87,17.33,11.32,22.73,3.32.72,5.57-4.78,6.93-6.97,11.94-21.5,24.91-52.46,39.01-73.12,11.04.27,18.91,22.74,22.99,32.11Z"/>
      <path class="cls-5" d="M163.83,39.99c3.72,7.02,8.28,14.14,11.76,21.24,11.39,36.82,11.5,4.68,20.25-10.24,3.13-6.86,23.03-48.57,26.02-50.11,8.76-4.5,13.69,9.33,16.42,15.67,7.42,15.84,11.37,45.96,26.51,55.42,28.02-29.28,46.09-131.85,67.6-17.54,2.12,12.92,33.5,74.53-1.43,59.42-8.13-5.96-15.53-61.44-22.12-73.86l-9,4c1.8-3.39,1.28-12.27,9.99-11.99,3.15,17.17,10.07,33.28,15.09,49.92,2.7,8.95,1.9,26.09,13.91,28.09,5.49.01-6.51-44.18-8.88-48.61-1.06-1.99-4.71-1.87-5.63-4.59s1.92-11.82,1.05-15.33c-.96-3.83-5.83-6.93-7.02-11-3.31-70.17-40.89,37.84-55.53,51.5-5,1.2-8.74-17.71-10.54-21.43-3.21-6.66-9.07-14.22-12-22-22.56-114.66-50.03,112.89-67.45,23.45-2.9-7.03-6.08-15.34-8.98-22.02Z"/>
      <path class="cls-3" d="M41.83,19.99c-10.18,23.74-23.58,54.68-37.61,77.46-.76,3.72,2.62,13.7,2.6,18.53,12.21-10.03,11.34-28.15,23.01-37.99-4.12,8.55-13.17,35.44-20,39.01C1.61,121.29-.77,105.95.2,99.51c6.21-18,26.98-63.72,41.63-79.52Z"/>
      <path class="cls-2" d="M121.83,39.99c-4.91,8.79-18.27,46.57-26.93,47.98-7.44-5.41-7.49-15.13-11.32-22.73-4.49-8.91-10.75-16.61-15.28-24.72-6.49-11.64-4.04-25.95-24.48-24.52,1.57-3.67-.79-6.1,8.93-3.94,11.28,2.51,14.77,20.25,19.42,28.6,3.88,6.96,9.24,13.53,13.12,20.88,3.19,6.05,6.45,27,14.62,13.55,7-11.53,13.08-24.81,21.92-35.08Z"/>
      <path class="cls-1" d="M103.83,105.99c-3.01,6.18-2.2,15.49-14.12,7.11l-31.88-73.11c1.15,1.27,3.82,2.06,4.39,4.52,9.9,21.98,18.22,44.65,30.67,65.42l3.81,1.97,7.13-5.92Z"/>
    </g>
  </g>
</svg>