<?xml version="1.0" encoding="UTF-8"?>
<svg id="Calque_2" data-name="Calque 2" xmlns="http://www.w3.org/2000/svg" viewBox="0 0 260.28 229.68">
  <defs>
    <style>
      .cls-1 {
        fill: #a2cfb6;
      }

      .cls-2 {
        fill: #f5fbf7;
      }

      .cls-3 {
        fill: #d6f3e3;
      }

      .cls-4 {
        fill: #4ba076;
      }

      .cls-5 {
        fill: #ecf8f2;
      }

      .cls-6 {
        fill: #bdebd2;
      }

      .cls-7 {
        fill: #75b293;
      }

      .cls-8 {
        fill: #7fc1a0;
      }

      .cls-9 {
        fill: #bbddc8;
      }

      .cls-10 {
        fill: #61ab86;
      }

      .cls-11 {
        fill: #7aba99;
      }

      .cls-12 {
        fill: #5cab84;
      }

      .cls-13 {
        fill: #f7fcf7;
      }

      .cls-14 {
        fill: #f6fcf7;
      }

      .cls-15 {
        fill: #e8f6ef;
      }

      .cls-16 {
        fill: #f2fbf6;
      }

      .cls-17 {
        fill: #f5fbf6;
      }

      .cls-18 {
        fill: #87be9f;
      }

      .cls-19 {
        fill: #b1ddc6;
      }

      .cls-20 {
        fill: #bbe3cc;
      }

      .cls-21 {
        fill: #c1e4d0;
      }

      .cls-22 {
        fill: #9cd2b4;
      }

      .cls-23 {
        fill: #6db28e;
      }

      .cls-24 {
        fill: #a8d8be;
      }

      .cls-25 {
        fill: #90c9ab;
      }

      .cls-26 {
        fill: #eaf7ef;
      }

      .cls-27 {
        fill: #c9edda;
      }

      .cls-28 {
        fill: #e2f4eb;
      }
    </style>
  </defs>
  <g id="Calque_1-2" data-name="Calque 1">
    <g>
      <path class="cls-4" d="M163.56,49.72c.4-3.2-.5-11.15,3.98-11.99,2.9,19.78,2.31,28.19,20.02,9.99,5.14,4.62,5.36.06,6.23-.31,6.77-2.88,16.42-9.1,23.77-3.69-10.79,4.21-38.04,12.83-45.72,21.34-1.51,4.5,3.2,25.06,6.01,28.34.41.48,10.58.47,12.36,2.47,1.18-.11,2.49-2.91,3.35-4.15,5.31,2.13-.51,11.6,0,11.98,7.13.45,15.6-1.42,22,2.02l4,7.98c-8.77.4-17.23-3.42-26-5.98-5.39-2.04-21.57-12.6-15.43,1.5.39.89,8.57,5.28,5.42,12.49l-11.98-3.97,3.99,5.98c-2.46,1.48-4.34,3.73-6,6-7.74,1.79-14.39,6.23-8,14,1.42,1.72,1.47,2.02,4,2,2.01,2.62,2.04,5.34,0,8-5.34,1.26-9.6,7.28-8.1,12.88.56,2.35,2.96.65,4.1,1.12,10.97,4.54,33.05,18.19,42,26,2.61,2.28,7.58,3.72,2,8-15.55-10.22-31.2-20.21-47.01-29.96-3.81.24-14.05,44.69-16.99,51.96l-11.99.03-1.99-12.03,4.98,3.96c4.78-2.56.55-5.39,1.43-7.44.46-1.06,3.28-1.83,3.57-2.53,4.87-12.04,6.07-25.17,11.46-37.02-3.51-5.74-5.85-6.1-11.46-2.98-7.95.32-18.55-14.56-6-12,7.61.19,10.27.47,14-4,3.01-1.83,8.87-1.75,8-7.99l-7.99-2.04-.04,6.01-2.98-4.01-2.04,4.06-5.97-4.01c-4.74,12.81-13.01-.93-23.04.73-4.57-2.15-10.1-11.23-17.95-10.76-2.09-2.35-4.17-5.39-6-8-.55-.78-2.2-9.39-5.99-5.99-1.24,1.11,7.44,28.24-16.61,13.51-4.28-2.62-2.51-8.82-10.01-3.53-1.83,1.29-.36,4.7-3.37,3.99l-2.02-9.99c1.28-.36,2.86-2.96,4-4,1.52,1.38,4.82,1.24,6,2,2.61,3.29,9.94,10.62,15.99,10.01.69-10.46,4.97-20.06.01-30.01-2.48-3.33-5.17-8.11-6-12,5.49-5.28,10.14,11.97,13.98,8,.35-.37,3.63-8.82,3.8-9.45.52-1.94-1.78-2.39-1.77-2.55,0-.25-2.48-1.08,0-2l3.98-2.01,2.02,8.01c-.32,1.13.35,2.95,0,4-3.54,1.51-2.99,2.84-2.16,5.87-1.45.96-5.67-1.1-5.86,1.15-.26,3.09,4.39,8.15,8.09,6.11.99-.55,11.65-12.58,14.91-15.16,2.27-1.79,6.98-2.24,8.18-3.91,2.3-3.19-1.73-8.42-1.17-12.07,2.68-4.41,9.92-5.07,10.03-12,6.69,1.89.77,6.6,1.97,10l-2.62,3.98c7.15.38-2.26,7.17-1.38,8,4.24,3.97,9.74-10.62,15.99-5.96.42,3.42-5.81,2.6-5.95,4.98-.24,3.92,9.87.11,9.96,4.98-5.8,1.23-15.87-2.74-21.02-1.03-3.73,1.23-3.69,4.14-4.97,5.05-4.69,3.32-20.46,14.83-21.73,19.44-2.72,9.9,16.56,24.37,25.2,26.12,9.62,1.95,38.13-5.09,40.53-15.56l2.02-14c3.07,1.05,8.05,9.55,9.86,2.83,1.61-5.99-2.9-12.86-3.88-18.83.12-4.15-1.04-13.36-4-20-1.58-4.38,1.8-4.74-8-4.02,2.12-2.21,2.65-5.73,4-7.98,1.77-2.27,8.32-7.79,4-10Z"/>
      <path class="cls-10" d="M87.56,123.72c-10.68,11.29,9.06,23.76,18,30,2.94,2.05,5.36,1.6,6,2,16.49,10.29,5.42,7.44,6.01,8.99,5.05,9.05,8.55-2.57,13.99,5.01-4.69,4.47-5.62,4.74-6,12-.24,5.3.93,6.82,4,10-1.64,3.8-6.91.55-10,0-.1-.36-1.74-1.08-2-2,.28-.34-2.12-5.1,2-7.98-9.16,2.5-7.57-3.68-8-4.02,2.19-13.64-15.03-11.2-24.89-9.89-4.78.64-9.37,5.19-15.14,3.9,2.23,13.66-7.61,27.3-5.96,41.98,1.8,2.13,15.63-10.12,17.99-11.99,1.24.38,2.99,1.95,4,2,1.9,10.81-14.34,8.16-12,18-.96.41-5.89,1.43-8,2-12.71-1.78-5.49-4.09-6.58-8.69-9.24-22.99-2.58-21.55-1.43-41.3-11.25-.84-29.73,2.62-40.14-.87-5.46-1.83-5.03-8.93-11.85-7.15-1.04-4.76,4.24-5.24,6-7.99,13.35,1.75,9.8-12.46,12.07-13.97.28-.18,3.76,2.56,5.89,1.11,3.37-2.29,10.02-12.27,11.24-13.34,3.78-3.33,9.8,2.01,4.8-9.8.59.04,1.49.14,2,0l2.02,9.99c3.02.72,1.54-2.69,3.37-3.99,7.5-5.3,5.72.9,10.01,3.53,24.05,14.73,15.37-12.4,16.61-13.51,3.8-3.4,5.45,5.21,5.99,5.99ZM21.56,165.72h35c9.3,0,19.2-26.45,10.88-30.94-.48-.26-10-2.71-10.54-2.66-4.28,1.6-35.33,27.77-35.34,33.59ZM73.92,154.02c-4.77,10.63,23.88,6.59,23.6,2.7-6.46-4.19-10.77-8.5-14.96-14.96-5.18,2.74-2.53,12.07-8.65,12.26Z"/>
      <path class="cls-23" d="M193.56,107.72c-16.18-3.19-2.55,29.7-.82,30.15l50.82-10.17c.84-4.59-.31-3.18-2.56-4.44-6.99-3.9-19.29-6.7-27.44-9.54l6-.02-4-7.98c15.11,2.52,26.62,5.38,40,14,3.01,12.5-10.22,6.37-8,16-11.48.68-14.84,5.5-17.4,5.99-8.73,2.24-34.49-.98-29.9,13.54,5.62,13.34,18.96,35.73,25.34,49.44.77,4-.56,2.68-3.02,3.05-9.9,1.48-10.59-1.81-17.01-6.03,5.58-4.28.61-5.72-2-8,6.21.8,3.84-1.83,2.63-5.62-1.27-3.98-14.11-32.88-15.58-34.44-3.8-4.02-7.74-.52-12.1-.32-9.23.42-7.36,2.18-7.88,2.2-1.01.05-3.51-1.98-5.08-1.82,2.04-2.66,2.01-5.38,0-8,5.4-.04,14.16-3.42,20-4.02.83-1.18-5.75-17.85-10-17.98l-3.99-5.98,11.98,3.97c3.15-7.21-5.03-11.6-5.42-12.49-6.14-14.1,10.04-3.54,15.43-1.5Z"/>
      <path class="cls-12" d="M127.56,13.72v3.99s-6-1.99-6-1.99c-1.44-2.11-2.44-4.96-2.02-8-4.65.81-3.13,5.32-3.98,8-2.92,9.18-16.81,44.93-16.03,50.97.1.79,12.25,2.77,14.03,7.03-.56,3.65,3.47,8.88,1.17,12.07-1.2,1.67-5.92,2.11-8.18,3.91-3.26,2.57-13.92,14.61-14.91,15.16-3.7,2.04-8.35-3.02-8.09-6.11.19-2.25,4.41-.19,5.86-1.15-.82-2.94-1.36-4.4,2.16-5.87-.99,5.48,2.42,5.04,6.01,3.01,4.63-2.62-2.76-4.16-1.03-7.01,2.34-3.84,5.27.01,7.79-.05.84-.02,3-5.11,5.22-4.94-4.38-5.73-8.52-8.21-15.99-7.02.9,4.51-.85,7.95-2,12.01l-2.02-8.01-3.98,2.01.25-11.11-24.27-11.87c5.49,6.78,14.64,44.47,24.02,24.98,0,.16,2.29.61,1.77,2.55-.17.63-3.44,9.08-3.8,9.45-3.84,3.97-8.49-13.28-13.98-8-5.39-10.63-13.01-26.25-21.51-34-1.97-1.73-8.53-1.3-7.67-6.97.06-.38,2.93-6.8,3.23-7.03,2.03-1.56,37.64,24.33,45.94,22.02.45-15.95,19.05-49.67,25.95-61.08,5.52-3.71,10.1,9.52,12.06,13.07Z"/>
      <path class="cls-12" d="M135.56,31.72c8.17,2.03,6.84-6.22,10.34-10.75,36.4-37.08,23.19,16.67,25.67,32.74l11.99-1.99c-15.64,15.26-13.49-1.97-16.02-13.99-4.48.84-3.58,8.78-3.98,11.99-7.92-7.6,4.07-14.28,4.09-15.15-.74-6.75-9.51-21.16-12.09-6.85-12.15,12.53-15.25,27-26,40-.83-.06-2.84,1.64-4,2-.32-2.22,4.16-6.47-1.97-8,.13,5.59-5.47,7.22-8.03,10,5.59-14.23,17.14-24.74,20-40Z"/>
      <path class="cls-7" d="M67.56,83.72c1.89,3.26,2.73,6.09,4,10-18.46,4.03-35.38-1.14-53.99.02l35.99,23.98c-5.61,8.1-6.74,1.53-14,2-12.24-9.24-24.22-15.91-37.16-23.9-3.71-2.45-2.71-7.47.15-10.13,5.17-4.82,8.05.92,12.44,1.6,7.44,1.13,55.78,8.4,52.56-3.57Z"/>
      <path class="cls-18" d="M187.56,47.72c12.37-7.13,26.68-9.65,39.47-15.67,24.75,3.55-.71,25.31-7.51,34.72-4.61,6.38-10.04,16.94-13.8,22.09-2.25,3.08-12.11,4.5-7.01,11l10.84,3.86c-5.19-.52-10.76.39-16-.02-.51-.38,5.31-9.85,0-11.98,3.28-4.72,5.69-11.36,9.13-15.87,4.01-5.9,42.35-41.23,14.87-32.13-7.35-5.41-17.01.81-23.77,3.69-.87.37-1.08,4.93-6.23.31Z"/>
      <path class="cls-11" d="M111.56,177.72c.43.34-1.16,6.52,8,4.02-4.12,2.88-1.72,7.64-2,7.98-.37.45-6.64,2.38-10,6-4.13,2.09-4.67-8.1-7.99-4-.96,1.18,2.94,8.03-6.02,6.01l2.01,5.98c-6.33-3.16-5.76,2.53-12-1.99,3.58-2.84,7.96-5.29,11-8,2.06-1.84,13.69-18.64,17-16Z"/>
      <path class="cls-11" d="M129.56,191.72c2.09,4.91.51,6.56,2,10l-5.96,3c4.75,5.45,6.93,4,5.96-3,.1.24,2.94,2.08,3.33,4.01h2.67c-.28.69-3.11,1.46-3.57,2.52-.89,2.05,3.34,4.88-1.43,7.44l-4.98-3.96,1.99,12.03,11.99-.03c-.78,1.94-.1,4.47-2.99,5.96-2.65-3.68-6.62-3.77-10.73-4.24-1.6-11.5-5.3-22.56-8.28-33.72,3.09.55,8.36,3.8,10,0Z"/>
      <path class="cls-20" d="M87.56,203.72c1.02.05,4.96-2.28,8-.01l-2.01-5.98c8.96,2.02,5.06-4.83,6.02-6.01,3.32-4.1,3.86,6.09,7.99,4-5.89,11.01-5.81,11.2-17.67,12.33-1.85,1.16-2.06,8.41-14.33,13.67-2.34-9.84,13.9-7.19,12-18Z"/>
      <path class="cls-21" d="M55.56,197.72c1.09,5.73,4.17,12.06,5.42,17.31,1.09,4.59-6.13,6.91,6.58,8.69-13.21,3.56-13.85-1.56-14.12-14.96-.12-6,1.65-7.97,2.12-11.04Z"/>
      <path class="cls-1" d="M135.56,31.72c0,.32-1.49,3.8-2,6-5.59-5.11-8.89-14.74-12-22l5.99,1.99v-3.99c2.68,4.81,7.87,11.98,8.01,18Z"/>
      <path class="cls-24" d="M47.56,121.72c5,11.81-1.02,6.47-4.8,9.8-1.22,1.07-7.87,11.05-11.24,13.34-2.13,1.44-5.61-1.29-5.89-1.11-2.28,1.5,1.28,15.72-12.07,13.97,1.32-2.07,1.19-5.7,2.61-7.36,4.35-5.07,27.74-20.89,28.98-22.99,3.48-5.9-2.55-5.36-5.59-7.65,2.78-.84,6.3,1.89,8,2Z"/>
      <path class="cls-9" d="M255.56,119.72c1.5.96,2.91.88,3.62,3.29,3.47,11.71-2.34,6.96-3.67,7.88-3.22,2.21,1.03,4.3-7.96,4.83-2.22-9.63,11.01-3.5,8-16Z"/>
      <path class="cls-13" d="M217.56,43.72c27.47-9.08-10.83,26.21-14.87,32.13-4.56,5.69-7,15.29-12.48,20.02-1.78-2-11.95-1.99-12.36-2.47-2.8-3.28-7.51-23.84-6-28.34,7.62-8.5,34.98-17.16,45.72-21.34Z"/>
      <path class="cls-14" d="M193.56,107.72c15.44,5.33,33.19,8.74,47.44,15.54,2.25,1.26,3.41-.15,2.56,4.44l-50.82,10.17c-1.73-.46-15.36-33.34.82-30.15Z"/>
      <path class="cls-17" d="M71.56,93.72c11.14,12.77-2.18,19.88-12,26-3.77,1.01-38.31-23.98-41.99-25.98,18.6-1.16,35.53,4.01,53.99-.02Z"/>
      <path class="cls-26" d="M137.56,205.72h-2.67c-.39-1.92-3.23-3.76-3.33-4-1.49-3.44.09-5.09-2-10-.27-.63-1.66-1.25-2-2l-2-8c-.15-9.06,5.35-11.52,12-16,5.61-3.12,7.95-2.77,11.46,2.98-5.39,11.85-6.59,24.98-11.46,37.02Z"/>
      <path class="cls-12" d="M125.56,71.72c1.25,10.91,5.7.05,14,3.98l-4-5.96,7.97,2.06c-1.24,11.57-5.27,8.29,4.03,9.92,6.67,1.17,12.43,1.44,17.98,6l.02-10c2.86,8.61,1.23,9.3,2,14l-9.98-2.01c.67,6.13.2,6.82-6.02,6.01-9.42-6.22-25.12-3.39-36-4,3.77-10.17,17.79-2.49,26-4.02-.09-4.87-10.2-1.06-9.96-4.98.15-2.38,6.37-1.55,5.95-4.98-6.25-4.66-11.75,9.92-15.99,5.96-.88-.83,8.54-7.62,1.38-8l2.62-3.98Z"/>
      <path class="cls-19" d="M93.56,131.72c7.86-.46,13.39,8.61,17.95,10.76,10.04-1.66,18.29,12.08,23.04-.73l5.97,4.01,2.04-4.06,2.98,4.01.04-6.01,7.99,2.04c.87,6.24-4.99,6.16-8,7.99-4.33,2.29-8.82,4.98-14,4-.43-.01-2.55-2.53-6.71-2.05-6.85,1.63-11.3,7.1-19.29,2.05l12-.02c-1.1-9.67-6.06-7.26-11.5-11.47-4.48-3.46-8.68-6.21-12.5-10.51Z"/>
      <path class="cls-28" d="M85.56,81.72c-2.48.92,0,1.75,0,2-9.37,19.49-18.53-18.2-24.02-24.98l24.27,11.87-.25,11.11Z"/>
      <path class="cls-16" d="M93.56,131.72c3.81,4.3,8.02,7.05,12.5,10.51,5.44,4.21,10.4,1.8,11.5,11.47l-12,.02c-8.94-6.24-28.68-18.71-18-30,1.83,2.61,3.91,5.65,6,8Z"/>
      <path class="cls-5" d="M175.56,123.72c4.25.12,10.83,16.8,10,17.98-6.38-.07-19.89,7.55-24,2.02,3.54-7.25,7.23-15.23,14-20Z"/>
      <path class="cls-8" d="M167.56,91.72c.98,5.97,5.49,12.84,3.88,18.83-1.81,6.72-6.79-1.78-9.86-2.83l-2.02,14c1.96-8.55-.36-20.96-8-26,6.21.81,6.69.11,6.02-6.01l9.98,2.01Z"/>
      <path class="cls-22" d="M159.56,59.72c-1.35,2.25-1.88,5.77-4,7.98,9.8-.72,6.42-.36,8,4.02-5.62-5.13-20.14,3.49-16,10-9.31-1.63-5.28,1.65-4.03-9.92l-7.97-2.06,4,5.96c-9.08-3.66-13.92,7.48-14-5.98,1.16-.36,3.17-2.06,4-2,6.39,5.93,21.38-8.31,30-8Z"/>
      <path class="cls-3" d="M163.56,71.72c2.16,3.87,2.19,11.68,1.98,16-5.55-4.56-11.31-4.83-17.98-6-4.14-6.51,10.38-15.13,16-10Z"/>
      <path class="cls-11" d="M131.56,153.72c-12.55-2.56-1.95,12.32,6,12-.75.42-5.72,3.74-6,4-5.44-7.58-8.94,4.04-13.99-5.01-.59-1.55,10.48,1.3-6.01-8.99,7.13.6,13.69-7.91,20-2Z"/>
      <path class="cls-27" d="M91.56,87.72c1.15-4.06,2.91-7.5,2-12.01,7.47-1.19,11.61,1.3,15.99,7.02-2.22-.17-4.38,4.91-5.22,4.94-2.53.07-5.46-3.79-7.79.05-1.73,2.85,5.66,4.39,1.03,7.01-7.41,4.15-6.05-1.48-6.01-7.01Z"/>
      <path class="cls-25" d="M155.56,27.72c2.58-14.31,11.36.1,12.09,6.85-.02.87-12.01,7.55-4.09,15.15,4.32,2.22-2.23,7.73-4,10-.28-9.63.39-19.38,0-29.03-.2-4.92,1.41-6.53-4-2.97Z"/>
      <path class="cls-12" d="M77.56,117.72l-12,8c-3.18-2.07-5.02-5.37-6-6,7.78-5.98,17.33-7.5,16-20,2.53,6.47,2.83,10.83,2,18Z"/>
      <path class="cls-6" d="M77.56,117.72c-.44,3.78-2.66,7.8-2.01,12.01-4.02.24-6.88-1.98-9.99-4.01l12-8Z"/>
      <path class="cls-23" d="M169.56,129.72c-3.18,4.36-5.81,9.07-8,14-6.39-7.77.26-12.21,8-14Z"/>
      <path class="cls-23" d="M161.56,167.72c-1.14-.47-3.54,1.23-4.1-1.12-.9-3.75.12-5.86,2.1-8.88l2,10Z"/>
      <path class="cls-11" d="M145.56,149.72c-2.78,1.69-.64,3.46-8,4l8-4Z"/>
      <path class="cls-15" d="M73.92,154.02c6.13-.2,3.45-9.51,8.65-12.26,4.19,6.46,8.5,10.77,14.96,14.96.27,3.89-28.38,7.93-23.6-2.7Z"/>
      <path class="cls-11" d="M127.56,189.72c-1.57-3.49-2.25-3.11-2-8l2,8Z"/>
      <path class="cls-1" d="M119.56,11.72l-4,4c.85-2.67-.67-7.19,3.98-8,.25,1.25-.33,3.06.02,4Z"/>
      <path class="cls-2" d="M159.56,59.72c-8.63-.31-23.59,13.93-30,8,10.76-13.01,13.84-27.46,26-40,5.41-3.56,3.8-1.95,4,2.97.39,9.65-.28,19.4,0,29.03Z"/>
      <path class="cls-4" d="M131.56,201.72c.96,7-1.21,8.45-5.96,3l5.96-3Z"/>
    </g>
  </g>
</svg>