<?xml version="1.0" encoding="UTF-8"?>
<svg id="Calque_2" data-name="Calque 2" xmlns="http://www.w3.org/2000/svg" viewBox="0 0 206.05 259.96">
  <defs>
    <style>
      .cls-1 {
        fill: #a4c671;
      }

      .cls-2 {
        fill: #c7dca4;
      }

      .cls-3 {
        fill: #a0c26c;
      }
    </style>
  </defs>
  <g id="Calque_1-2" data-name="Calque 1">
    <g>
      <path class="cls-1" d="M16.11,5.49c.55-.34.74-2.45,3.23-3.37C19.98,1.88,32.13-.06,32.8,0c1.01.09,17.85,5.94,19.17,6.63,25.44,22.19,49.98,77.91,50.16,110.86,4.53-1,2.82-3.51,3.06-6.01,2.16-19.01,7.31-29.28,6.99-46.75,7.45-30.7,43.34-62.07,69.94-30.32,3.04,3.94,2.75,6.95,4.65,10.48.59,1.1,4.17,1.36,5.02,3.88,14.46,55.59-51.08,129.79-77.66,176.73-5.31,8.88,1.21,13.79-7,19.96-6.96-6.48-.57-16.15-1-23.96,21.58-41.62,82.13-115.76,75.82-162.83-2.44-18.18-24.26-37.56-40.86-23.22-34.99,30.23-19.29,119.05-31.51,160.59-1.95,6.62-4.29,7.38-11.43,7.45-3.67-52.34-5.53-113.03-30.97-160.03C35.18-11.28,3.75,3.31,8.11,63.49l-4,2c-.29-2.33-2.27-6.16-4-8-.01-.67,0-1.33,0-2L4.11,21.49c3.53-7.51,8.14-9.33,12-16Z"/>
      <path class="cls-1" d="M118.11,249.49c35.37,8.4,65.29-45.06,72.98-74.02,1.88-7.4,3.53-38.45,5.04-39.99,2.53-2.57,8.28,6.51,8.71,8.21,10.07,44.85-44.36,132.02-94.73,113.79v-11.99c5.26-.35,2.22,1.8,8,3.99Z"/>
      <path class="cls-2" d="M4.11,65.49c-5.09,12.3,8.32,14.05,1.95,28.85,19.8,32.63,27.98,72.49,50.59,106.61,1,1.58,6.91,3.28,9.38,5.7,3.63,3.57,7.08,10.41,4.1,14.84l5.97-2.02c-.66,4.67,14.35,26.43,16.44,27.57,7.73,4.23,8.76-.98,5.58-7.55,2.47-6.66,4.73-11.69,8-18,.43,7.8-5.96,17.48,1,23.96,8.21-6.17,1.69-11.08,7-19.96-.1,8.54-1.24,16.69,4,24-5.78-2.19-2.74-4.34-7.99-3.99v11.99c-2.75-1.69-4.03-6.94-7.36-7.75-4.3-1.04-9.62,4.52-16.08-.86-3.88-3.23-4.93-11.43-7.23-14.75C38.21,188.67,2.96,119.02.11,57.49c1.73,1.84,3.71,5.67,4,8Z"/>
      <path class="cls-2" d="M.11,55.49c-.07-12.25-.99-22.4,4-34L.11,55.49Z"/>
      <path class="cls-3" d="M10.11,63.49c6.63,61.37,51.57,128.17,88,176,3.18,6.56,2.15,11.78-5.58,7.55-2.09-1.14-17.1-22.9-16.44-27.57l-5.97,2.02c2.98-4.42-.46-11.27-4.1-14.84-2.47-2.42-8.38-4.12-9.38-5.7-22.61-34.1-30.8-73.99-50.59-106.61,6.38-14.79-7.03-16.52-1.95-28.85l4-2h2Z"/>
      <path class="cls-2" d="M10.11,63.49h-2c-2.16-9.28.41-20.74,2-30,.59,9.78-.82,20.35,0,30Z"/>
    </g>
  </g>
</svg>