<?xml version="1.0" encoding="UTF-8"?>
<svg id="Calque_2" data-name="Calque 2" xmlns="http://www.w3.org/2000/svg" viewBox="0 0 366.14 158.75">
  <defs>
    <style>
      .cls-1 {
        fill: #f6f2a9;
      }

      .cls-2 {
        fill: #eee452;
      }

      .cls-3 {
        fill: #eee97b;
      }

      .cls-4 {
        fill: #f3ed9a;
      }

      .cls-5 {
        fill: #f7f5bb;
      }

      .cls-6 {
        fill: #f6f4b9;
      }

      .cls-7 {
        fill: #dfdf5a;
      }

      .cls-8 {
        fill: #f2ed91;
      }

      .cls-9 {
        fill: #eee350;
      }

      .cls-10 {
        fill: #f1eb83;
      }

      .cls-11 {
        fill: #f6f3b3;
      }
    </style>
  </defs>
  <g id="Calque_1-2" data-name="Calque 1">
    <g>
      <path class="cls-3" d="M70.13,69.11c1.17,7.15,2.18,17.96,4.52,24.48,6.4,17.83,14.52-17.25,15.67-19.29,2.1-3.71,7.8-5.02,7.96-6.49.24-2.09-2.19-5.15-1.74-7.48.13-.68,2.92-9.31,3.7-12.09,2.1-7.48,6.35-12.9,8.48-17.59,1.79-3.95,1.84-14.08,6.68-15.43,16.34,2.39,10.73,10.68,12.82,20.79,8.94,23.8,7.99,50.41,13.9,75.1-.21,6.11,6.98,7.29,11.99,7.99-6.6-27.71,12.16-29.67,6.97-14-7.81,6.47-2.3,7.09-1.8,15.05-3.97,8.14-5.41,6.26-5.15,18.96h-2c.67-13.91-4.57-19.77-17.99-21.99l1.99,29.99c-10.2-18.33-2.23-40.06-13.62-59.38-1.49-4.98-1.42-32.65-4.5-34.54-7.32-4.51-5.12,5-6.86,7.9-6.83,7.15-14-.33-5.48,11.05.03,1.99-6.45,5.07-7.24,8.37-.89,3.73,3.06,10.03,1.69,14.61-3.74,10.11-12.15,58.29-29.91,42.9-14.52-25.63-14-60.52-22.09-88.9,10.03,7.35,10.15,47.33,14.48,60.52,1.58,7.22,4.4,23.66,12.52,23.67,12.57.02,6.29-19.16,7.12-26.95l-12.13-3.25c2.06-21.49-8.48-45.55-17.02-63.94-2.78-8.66.09-34.36-12.96-22.04,10.75-17.71,9.87-5.06,13.41,5.59,5.17,15.53,11.23,30.93,16.59,46.41Z"/>
      <path class="cls-7" d="M40.13,17.11c13.05-12.32,10.18,13.38,12.96,22.04,2.8,8.72,9.63,19.14,12.51,29.49,2.62,9.41,5.46,25.25,4.51,34.45l12.13,3.25c-.83,7.79,5.45,26.97-7.12,26.95-8.11-.01-10.93-16.45-12.52-23.67-4.37-13.32-4.39-52.98-14.48-60.52-1.99-2.47-1.59-5.09-5.97-3.99-7.43,11.69-28.87,93.76-33.95,96.89-1.21.74-5.83-.75-8.06,1.11C-2.27,113.37,25.5,46.21,40.13,17.11Z"/>
      <path class="cls-10" d="M330.13,97.11c-6.54,15.66-16.99,31.73-22.93,48.05-21.31,8.73-19.89-21.45-23.66-34.46-5.26-19.4-12.45-35.47-15.41-55.59l27.9,85.09c12,9.07,8.74-4.5,10.97-11.22,1.29-3.88,11.55-14.19,8.16-19.88-2.76-4.63-6.41.51-9.04,2-2.93-8.04,16.52-44.99,20-52,3.87-4.3,15.89-23.98,18.91-32.09,1.72-4.6-.64-15.85,7.91-13.79,11.83,7.62-18.64,69.95-22.82,83.88Z"/>
      <path class="cls-8" d="M210.13,49.11c.38,3.26-.34,6.73,0,10-.3-5.6-10.03-12.45-10.15-13.31-.3-2.21,2.1-5.65,1.7-9.2-.57-5.1-3.47-19.19-10.4-17.42-2.87.73-5.22,21.99-4.7,24.7,12.68,12.62,12.97,26.55,13.54,43.22-5.67-4.71-7.68-48.09-13.52-22.58-8.22,13.87-3.5,11.64-6.87,23.19-.54,1.84-7.22,10.98-9.61,17.39-14.77,3.73-3.51,19.62-16,26,.79-5.25,4.91-8.74,5.15-10.96-.51-7.97-6-8.58,1.8-15.05,5.19-15.69-13.57-13.69-6.97,14-5.01-.71-12.2-1.89-11.99-7.99,9.92,6.59,7.94-9.18,10-16,4.1-13.6,13.67-38.4,20.24-50.76,3.11-5.85,9.11-10.02,10.67-13.33,1.89-4,.87-12.47,5.05-14.93,3.84-2.27,11.24-1.67,14.19,1.87,1.26,1.51,7.41,27.34,7.85,31.15Z"/>
      <path class="cls-6" d="M326.13,59.11c-.59-8.75,23.07-56.55,29.89-58.91,2.55-.92,6.99,1.62,10.11.92-5.44,33.86-20.32,65.81-36.01,95.99,4.12-13.7,34.67-76.45,22.82-83.88-8.55-2.06-6.19,9.19-7.91,13.79-3.02,8.11-15.04,27.79-18.91,32.09Z"/>
      <path class="cls-4" d="M200.13,87.11c7.27,12.46,6.19,47.8,17.99,55.01,15.23,9.31,12.43-30.35,14.3-35.78.93-2.71,5.23-2.55,5.75-4.62.81-3.2-1.17-11.03.21-12.47.62-.65,4.51.71,5.95-1.31,2.06-2.89,2.19-13.15,3.88-17.76,2.67-7.29,7.35-16.07,10.56-23.49.94-2.18,1.11-7.31,1.38-7.59,3.4-3.62,3.39,1.39,4.15,2.85,2.22,4.68,3.64,9.99,3.83,15.15l-4.02-8c-5.05-4.11-13.79,32.13-14.62,34.35-3.91,10.45-9.12,20.55-12.79,31.21-2.49,7.21-4.7,30.11-11.98,32.17-21.65,6.12-23.74-47.18-24.58-59.73Z"/>
      <path class="cls-1" d="M210.13,49.11c5.38,5.08,4.82,47.98,11,47.96,17.77-11.84,31.88-133.97,58.11-74.07,1.91,12.51-2.25,19.98,5.97,30.03,2.17,5.59,12.11,76.46,20.92,50.08-.43,2.38.29,5.46,0,8-2.97,1.68-5.93,6.56-8.98,1.98l-22.55-71.45c-.18-8.25,1.35-35.03-13.15-30.33-2.65.86-11.24,22.69-12.85,27.32-3.53,6.29-21.14,72.35-30.46,62.48-2.45-.8-7.29-37.48-8-40-.25-3.94.27-8.06,0-12Z"/>
      <path class="cls-11" d="M100.13,95.11c1.38-4.59-2.58-10.88-1.69-14.61.79-3.3,7.26-6.37,7.24-8.37-.01-1.1-5.03-4.97-3.55-6.99.29-.4,7.04-.75,9.03-4.06,1.74-2.9-.46-12.4,6.86-7.9,3.07,1.89,3.01,29.56,4.5,34.54s5.32,11.01,6.5,18.48c2.19,13.95-.63,28.31,7.12,40.91.8,1.3-.39,4.59,3.23,5.72,14.71,4.59,13-2.86,14.77-13.72.7-4.26-.25-6.36,0-8,12.49-6.38,1.23-22.27,16-26-4.28,11.48-11.54,46.12-21.23,51.75-19.62,11.4-20.83-32.06-22.98-42.54s-5.38-20.36-7.25-30.75c-.71-3.94-.46-18.93-2.56-20.45-5.56-4.01-6.83,12.41-7.86,15.11-2.19,5.72-6.18,11.64-8.12,16.88Z"/>
      <path class="cls-5" d="M70.13,69.11c6.1,6.37,2.3,25.44,11.9,21.95L111.09,13.09c5.24-6.37,19.7,1.46,20.59,9.48l12.46,84.54c7.28,1.55,1.96-9.44,7.99-11.99-2.06,6.82-.08,22.59-10,16-4.5-21.34-6.1-43.38-10.21-64.79-8.58-16,2.52-28.67-16.5-31.1-4.84,1.35-4.89,11.49-6.68,15.43-4.08,6-10.53,21.85-12.18,29.68-.45,2.33,1.98,5.39,1.74,7.48-.17,1.46-5.87,2.78-7.96,6.49-10.33,36.85-16.6,27.72-20.19-5.19Z"/>
      <path class="cls-2" d="M152.13,139.11c-.46,9.6-7.68,12.91-16,8l-1.99-29.99c13.42,2.22,18.66,8.08,17.99,21.99Z"/>
      <path class="cls-8" d="M154.13,139.11c-1.77,10.86-.07,18.3-14.77,13.72-3.62-1.13-2.42-4.41-3.23-5.72,8.32,4.91,15.54,1.6,16-8h2Z"/>
      <path class="cls-9" d="M306.13,111.11c2.63-1.49,6.29-6.63,9.04-2,3.39,5.69-6.87,16-8.16,19.88-2.24,6.72,1.03,20.28-10.97,11.22-3.15-8.87-29.8-91.72-31.73-98.25-.77-1.45-.76-6.47-4.16-2.85-.26.28-.43,5.41-1.38,7.59-3.21,7.42-7.9,16.2-10.56,23.49-1.69,4.61-1.82,14.87-3.88,17.76-1.44,2.01-5.32.65-5.95,1.31-1.38,1.44.6,9.27-.21,12.47-.52,2.06-4.82,1.91-5.75,4.62-1.87,5.43.92,45.09-14.3,35.78-11.8-7.22-10.72-42.55-17.99-55.01-1.02-15.12.2-21.36-7.12-35.87-1.42-2.81-5.9-4.65-6.42-7.36s1.83-23.97,4.7-24.7c6.92-1.77,9.82,12.32,10.4,17.42.4,3.55-2,6.99-1.7,9.2.12.85,9.84,7.71,10.15,13.31,1.28,17.14.74,20.88,6,38,4.44,6.37-.2,9.65,2.99,13.99,6.35-4.68,6.68-12.71,9.01-17.99,12.66-25.94,18.58-59.01,33.32-81.8,14.5-4.7,12.97,22.08,13.15,30.33l22.55,71.45c3.05,4.58,6.02-.3,8.98-1.98Z"/>
      <path class="cls-8" d="M228.13,93.11c-2.33,5.28-2.66,13.31-9.01,17.99-2.43-2-.25-7.35-.99-9.99,5.52,4.47,7.09-4.24,10-8Z"/>
      <path class="cls-8" d="M216.13,97.11c-5.27-16.92-4.3-19.16-6-36l6,36Z"/>
    </g>
  </g>
</svg>