<?xml version="1.0" encoding="UTF-8"?>
<svg id="Calque_2" data-name="Calque 2" xmlns="http://www.w3.org/2000/svg" viewBox="0 0 212.01 213.76">
  <defs>
    <style>
      .cls-1 {
        fill: #ecc1d4;
      }

      .cls-2 {
        fill: #ebb3cb;
      }

      .cls-3 {
        fill: #e9b3ca;
      }

      .cls-4 {
        fill: #e9aec7;
      }

      .cls-5 {
        fill: #e99aba;
      }
    </style>
  </defs>
  <g id="Calque_1-2" data-name="Calque 1">
    <g>
      <path class="cls-5" d="M70,89.91c4.38-.68,12.87-4.21,13.41-8.94.84-7.34-7.71-4.11-9.18-5.26-1.95-1.52-2.41-19.71-4.23-23.78l7.98,1.98c1.54-10.12-5.72-25.66-.17-34.67,3.3-5.35,9.52,1.49,14.17-1.31-.91,8.1-1.25,16.37-2.49,24.5-.72,4.72-6.7,12.9-1.55,16.55,2.32,1.65,10.85-4.69,8.06,12.93,15.19-3.51,5.79-16.25,6.5-21.14.16-1.08,12.57-9.33,7.5-18.85,6.67-1.87,3.95,6.98,6.52,9.49,1.34,1.31,6.05.61,7.47,3.51,3.38,6.94-5.47,3.81-6.12,6.08-1.31,4.53.61,18.25,4.21,21.93,6.01,4.4,22.81.4,27.92-3.02,9.97-2.13,20.13-3.68,30-6l9.99,2.98c-10.87,4.89-4.55,8.68-2,17.01l-11.99.03c.17,4.45,8,3.06,8.02,5-1.83,8.13-8.41,3.92-8.12,16.88-.53.53-7.63-.08-10.43.55-7.61,1.72-5.98,1.86-13.48,1.55-3.47-.14-3.96-.64-6,2l-7.99-5.95,9.98-4.03c-3.18-1.29-14.52,2.22-15.86,4.17-1.68,2.44,7.02,9.19-.13,13.79l10-1.98c8.75,15.34-.34,6.45-6.15,14.94-.62.9-2.08,10.98-1.95,11.71.37,2.07,4.86,1.75,5.82,4.56,1.27,3.72-.32,9.32.42,13.63,1.75,10.2,7.5,13.45-3.16,23.14l-4.97-7.99-.03,11.99c-10.31,1.49-2.41-13.03-7.96-13.98-.48,7.59-6.08,21.87-14.98,22.04-1.54.03-2.73-8.72-7.04-6.04-.52.33,2.07,7.25-5,9.94-7.25-4.65.08-14.59-1.16-18.74-.77-2.57-5.3-2.34-5.89-4.62-1.45-5.59,1.44-15.23,0-21.22-.34-1.42-3.12-1.07-3.83-2.86-1.19-2.98,1.42-9.73-4.12-10.53-13.86.27-35.48,5.76-50,10-3.2.12-8.29-1.24-10,2-1.28-.04-3.04.27-4,0,3.02-15.18,27.2-4.4,30-17.98-2.48-1.82-12.82,3.93-13.98-1.04-2.13-9.09,9.6-3.85,7.97-10.97-8.67-.75-17.97,7.3-22.73-3.36-3.97-2.69-7.69-1.4-9.14-9.78-2.29-13.3,7.56-1.32,7.88-10.87,16.11-4.29,35.86-7.5,52-10Z"/>
      <path class="cls-4" d="M70,89.91c1.62-19.84-19.6-65.3-6.62-81.62C66.04,6.92,101.98-.08,105.2,0c4.61.12,4.72,4.04,4.83,7.91l9.97-4.01,9.78,66.83c2.87,4.01,15.51-1.63,20.22-.83-5.11,3.41-21.92,7.42-27.92,3.02-3.6-3.68-5.52-17.41-4.21-21.93.66-2.27,9.5.86,6.12-6.08-1.41-2.9-6.12-2.2-7.47-3.51-2.57-2.51.15-11.36-6.52-9.49,5.06,9.52-7.35,17.77-7.5,18.85-.71,4.88,8.7,17.63-6.5,21.14,2.79-17.62-5.75-11.29-8.06-12.93-5.15-3.65.83-11.84,1.55-16.55,1.24-8.13,1.58-16.4,2.49-24.5-4.65,2.81-10.88-4.03-14.17,1.31-5.56,9.01,1.71,24.56.17,34.67l-7.98-1.98c1.82,4.08,2.28,22.26,4.23,23.78,1.47,1.15,10.02-2.08,9.18,5.26-.54,4.73-9.03,8.26-13.41,8.94Z"/>
      <path class="cls-3" d="M152,107.91v11.99s2-5.97,2-5.97c11.33,5.85,17.42-8.27,24.99-.57,1.86-.16,13.39-12.81,15,4.56-2.65.58-4.65,1.54-8,2-3.07.42-8.27-1.46-10,2-9.05.49-11.49.68-20,4-3.59-1.32-5.78,1.3-8,2-3.02.95-7.75-1.06-7.9,4.81,3.6,14.42,5.77,29.09,8.38,43.71,1.29,7.23,6.14,12.09,3.13,22.09-12.42,13.52-39.74,14.15-57.46,15.23l-12.15-71.84c5.54.79,2.93,7.54,4.12,10.53.72,1.79,3.49,1.44,3.83,2.86,1.44,5.98-1.44,15.63,0,21.22.59,2.27,5.12,2.05,5.89,4.62,1.24,4.15-6.1,14.09,1.16,18.74,7.07-2.69,4.48-9.61,5-9.94,4.31-2.68,5.5,6.07,7.04,6.04,8.9-.18,14.5-14.46,14.98-22.04,5.54.92-2.33,15.48,7.96,13.98l.03-11.99,4.97,7.99c10.66-9.7,4.91-12.95,3.16-23.14-.74-4.31.85-9.91-.42-13.63-.96-2.81-5.45-2.49-5.82-4.56-.13-.74,1.33-10.81,1.95-11.71,5.81-8.49,14.9.4,6.15-14.94,6.19-1.74.66-9.41,10-8Z"/>
      <path class="cls-2" d="M180,63.91c2.73-.64,6.65-4.32,10.77-3.53,2.95.57,11.97,7.16,13.18,10.58,4.55,12.79,4.01,29.67,8.05,42.92-5.89,1.84-12.01,2.72-18.01,4.03-1.61-17.37-13.14-4.72-15-4.56-7.58-7.7-13.66,6.43-25,.57l-1.99,5.97v-11.99c7.49.31,5.86.17,13.47-1.55,2.8-.63,9.9-.02,10.43-.55.43-.42-.14-5.31,1.14-7.79,1.7-3.31,7.03-4.94,6.98-9.09-.02-1.94-7.85-.55-8.02-5l11.99-.03c-2.55-8.33-8.88-12.12,2-17.01l-9.99-2.98Z"/>
      <path class="cls-1" d="M18,99.91c-.32,9.55-10.17-2.43-7.88,10.87,1.44,8.38,5.17,7.09,9.14,9.78,4.76,10.66,14.07,2.61,22.73,3.36,1.63,7.12-10.1,1.88-7.97,10.97,1.16,4.97,11.5-.78,13.98,1.04-2.8,13.58-26.98,2.8-30,17.98-6.16-1.74-1.87-6.34-2.66-8.67-1.12-3.25-4.14-5.27-4.9-8.77-.89-4.13-1.28-25.25-2.62-26.39-1.19-1.01-5.73.14-7.81-.2,3.17-7.67,10.99-8.11,18-9.98Z"/>
      <path class="cls-2" d="M186,119.91c-2.9,2.99-6.5,1.81-10,2,1.73-3.46,6.93-1.58,10-2Z"/>
      <path class="cls-1" d="M32,151.91c-3.54.72-4.26,2.18-10,2,1.71-3.24,6.8-1.88,10-2Z"/>
      <path class="cls-2" d="M156,125.91c-2.41.94-4.21,3.31-8,2,2.22-.7,4.41-3.32,8-2Z"/>
      <path class="cls-2" d="M142,115.91l-10,1.98c7.16-4.6-1.55-11.35.13-13.79,1.34-1.95,12.68-5.46,15.86-4.17l-9.98,4.03,7.99,5.95c-.88,1.14-.2,5.45-4,6Z"/>
    </g>
  </g>
</svg>