<?xml version="1.0" encoding="UTF-8"?>
<svg id="Calque_2" data-name="Calque 2" xmlns="http://www.w3.org/2000/svg" viewBox="0 0 193.98 220.59">
  <defs>
    <style>
      .cls-1 {
        fill: #e399b6;
      }
    </style>
  </defs>
  <g id="Calque_1-2" data-name="Calque 1">
    <path class="cls-1" d="M176.86,37.96c44.15,57.59-5.71,129.23-52.32,166.73-3.35,1.77-8.09-.29-8.27.08-.73,1.46,1.3,4.64-1.48,5.93-39.6,17.46-85.77,12.63-114.61-21.03,10.43-12.64,20.3,8.01,29.41,12.55C123.26,259.47,247.86,63.09,138.15,26.68c13.9,34.4,8.26,77.22-10.3,108.7-8.7,14.22-28.2,20.93-44.22,16.8-1.46-.38-14.03-9.06-14.85-10.14-8.45-11.25-8.78-40.12-6.53-53.92.26-1.6,3.4-1.28,3.53-2.4.9-7.92-.98-15.94,2.91-25.52,2.94-7.27,25.21-30.56,32.08-34.88,5.19-3.26,14.96-1.56,19.34-7.65-30.99-29.44-70.46,16.08-86.35,41.61-11.77,18.92-14.03,35.43-22.19,53.87-3.23,7.29-10.34,14.69-11.57,2.58C4.27,64.94,81.02-43.16,135.44,18.48c17.45-4.72,31.72,6.96,41.42,19.48ZM123.55,26.99c-39.38,9.36-63.22,76.31-41.86,109.14,17.34,25.09,35.66,1.68,43.42-17.49,8-17.93,17.09-80.26-1.56-91.65Z"/>
  </g>
</svg>