<?xml version="1.0" encoding="UTF-8"?>
<svg id="Calque_2" data-name="Calque 2" xmlns="http://www.w3.org/2000/svg" viewBox="0 0 234.35 225.62">
  <defs>
    <style>
      .cls-1 {
        fill: #fafcf3;
      }

      .cls-2 {
        fill: #f0f6de;
      }

      .cls-3 {
        fill: #ebf5d6;
      }

      .cls-4 {
        fill: #f6f9ea;
      }

      .cls-5 {
        fill: #ebf4d6;
      }

      .cls-6 {
        fill: #abc97e;
      }

      .cls-7 {
        fill: #dae9ba;
      }

      .cls-8 {
        fill: #d5e6b5;
      }

      .cls-9 {
        fill: #abc87a;
      }

      .cls-10 {
        fill: #f1f8e1;
      }

      .cls-11 {
        fill: #eff7db;
      }

      .cls-12 {
        fill: #f4f8e4;
      }

      .cls-13 {
        fill: #f9fbf3;
      }

      .cls-14 {
        fill: #d7e5bc;
      }

      .cls-15 {
        fill: #eef5da;
      }

      .cls-16 {
        fill: #c2d69b;
      }

      .cls-17 {
        fill: #b4cf84;
      }

      .cls-18 {
        fill: #eef6da;
      }

      .cls-19 {
        fill: #9dc367;
      }

      .cls-20 {
        fill: #edf4d8;
      }

      .cls-21 {
        fill: #e2f0c6;
      }

      .cls-22 {
        fill: #bcd492;
      }

      .cls-23 {
        fill: #dbeabc;
      }

      .cls-24 {
        fill: #f3f8e3;
      }

      .cls-25 {
        fill: #f2f8e3;
      }

      .cls-26 {
        fill: #e9f3d3;
      }

      .cls-27 {
        fill: #f2f7e2;
      }

      .cls-28 {
        fill: #b9cf93;
      }

      .cls-29 {
        fill: #f6f9e6;
      }
    </style>
  </defs>
  <g id="Calque_1-2" data-name="Calque 1">
    <g>
      <path class="cls-19" d="M156.49,41.86c14.73,6.25,16.67,14.97,25.96,27l-15.95,1.01c-1.39,3.36,1.63,4.8,1.99,5.99,3.7,12.2,7.73,19.19,14,30,2.57,3.47,6.59,9.95,6.02,14.01,1.09,1.06,11.34-6.98,7.93,4.63-.44,1.48-3.18,1.04-3.72,2.69-.99,3.06-3.83,15.18-4.23,18.67l-40,42c-7.62-1.44-11.59,7.98,0,4,4.05-2.34,9.4-3.18,14-6,3.67-.96,6.42,1.47,2.59,3.99-6.45,4.25-23.87,6.67-28.59,12.01-7.92,9.33,14.9-.1,19.12,1.79,4.36.47,2.28,5.03,3.87,4.21,9.48-15.12,12.91-8.56,25.01-21.99,14.28,5.22,1.41,5.96-1.33,8.66-7.99,7.87-5.39,7.35-16.67,13.34-9.3,4.68-19.28,11.45-30,9.98l1.99-5.97c-15.96,4.05-34.8-5.66-49.99-4.01-3.26-4.88-7.41-10.73-14-10-1.9-1.63-13.11-10.6-13.93-10.92-2.05-.8-5.45,1.53-6.06.94,1.36-9.47-4.46-10.61-10-17.03,9.46-5.32,4.28-5.39,1.99-8.99-5.64-11.94-4.41-39.8-6.01-52.99l4.01,2.99c-.38,8.19-1.54,23.81,6,12-.47,8.05-2.99,24.2,7.99,22.01-.95-5.25,1.85-10.28,2.09-15.1.44-8.67-2-16.62-2.08-24.9,6.15-1.04,10.46-4.99,6-10-6.9-3.16-3.27-5.26,0-10,6.33.08,4.53,2.03,5.18,5.92,2.33,13.95-2.14,22.25,6.12,35.88.94,1.56,4.22,1.78,4.73,3.62.89,3.23-.95,13.53-.01,14.57l9.98-3.98,2.01,9.99c2.76-1.53,5.04-1.59,8-2,3.19,5.64,19.21-.65,19.99,0,5.61,4.73-15.44,6.07-11.98,11.98,12.49.65,13.59,1.78,21.99-5.99,10.05-3.52,13.91,1.73,4.96,8.05-5.34,3.77-5.22-.16-8.96,7.95-.24.52-3.09.3-1.99,3.99,5.92-.29,21.2,1.96,21.99-5.99,22.4-4.67,49.48-50.28,26.99-67.99-2.14.54-.58,4.23-.99,5.99-1.08,4.63-3.19,8.6-2.02,14-7.62-.7-7.49-9.5-7.99-10-4.44-4.5-5.66,8.6-6,10.97l-3.99-4.97c.43-1.12,1.98-8.76,2-10,1.8-.53,2.1-2.35,2-4,9.72-.37,12.98-4.84,10.14-14.79-.57-1.99-4.83-.87-7.05-3.23-2.03-2.16-2.79-9.04-5.63-11.42-4-3.35-13.14-.97-11.46-10.56,2.46-.18,6.37-3.46,11.99,0,.95-.97-2.94-8.96-3.99-9.99-2.66-2.89-4.55-1.82-8-2,1.22-7.83-1.57-8.12-8-10,0,0-9.99-3.98-9.99-3.98,11.12-3,21.55-.45,31.99,3.98ZM174.48,67.85c2.93-2.75-10.61-13.94-11.98-6.96-.94,4.8,7.89,8.29,11.98,6.96ZM68.45,145.91c-.71-.45-3.78-.73-3.98.97-1.12,9.55,6.79,12.61,7.21,15.89,1.12,8.83-3.98,10.93,7.81,19.07,7.91,5.46,12.18,1.94,12.75,2.34,1.91,11.48,16.42,2.31,24.24,3.64-2.61-3.59,5.87-15.99,4-17.94l-7.98,1.98,1.98-7.98c-9.1,1.49-26.18,2.31-30.99-5.98-9.49,5.37,16.9,15.1,18.99,20.97-7.78.82-20.12-3.01-24.74-9.55-3.3-4.67-4.73-20.52-9.29-23.41ZM74.49,187.84c-1.54-4.97-6.04-8.18-8.4-12.58-4.4-8.19-7.08-20.23-13.58-27.4,1.17,16.35,5.7,33.23,21.98,39.98ZM132.48,203.85v-3.99s-3.98,3.01-3.98,3.01l3.98.98Z"/>
      <path class="cls-28" d="M168.49,21.86c-4.53,5.05-5.56,2.29-8,2,4.04-.85-2.19-5.28-3.05-5.95C132.94-.94,92.74,2.8,72.49,25.84c6.48,1.15,12.64-9.11,18-3.98.92,8.83-12.32,13.23-18,18-1.79-4.38-5.98-.83-8.32.69-24.06,15.58-36.79,33.75-37.66,63.31,8.32-7.83,10.15-23.81,19.98-30,3.33,3.49-3.21,9.1-3.89,13.11-1.01,5.96-1.37,13.27-2.11,18.89l-5.04-6.04c-7.68,17.29-10.51,51.63,6.01,64.06,3.82,2.88,5.64,3.67,5.03-2.03,2.29,3.6,7.46,3.67-1.99,8.99,2.65,3.46,8.6,7,9.99,11.01-8.9.27-9.2-15.27-17.99-11.01,12.79,16.67,17.2,40.27,43.98,35,.69-4.14-3.36-5.74-5.99-7.99,6.59-.73,10.74,5.12,14,10-3.77.41-7.83,2.63-12,2.01l5.98,7.98C21.8,210.21-7.67,196.27,1.71,128.5,7.75,60.7,103.14-46.33,168.49,21.86ZM50.49,205.84c-6.1-15.6-21.02-31.63-25.42-47.56-6.41-23.16-4.6-49.24-1.57-72.41C-1.62,123.84-7.37,197.01,50.49,205.84Z"/>
      <path class="cls-22" d="M220.49,83.86c8.21,6.32,15.14,37.67,13.65,47.06-.19,1.2-3.36.68-3.69,2.27-2.2,10.47-.54,18.52-6.5,31.13s-8.55,9.57-14.32,15.47c-.66.67.13,3.49-1.05,5.1-2.5,3.41-19.85,12.02-24.83,15.24-5.87,3.78-7.74,10.12-17.27,7.73,11.28-5.99,8.68-5.47,16.67-13.34,2.74-2.7,15.61-3.44,1.33-8.66,4.45-5.28,13.2-14.92,11.01-21.99-3.76,3.24-5.63,8.66-11,6,4.12,3.1-3.45,11.53-5.93,13.03-2.02,1.22-6.38-2.08-7.96-.99-2.37,7.7-.88,7.8-9.69,10.51-1,1.13.04,4.45-.66,5.1-.88.83-20.49,4.94-23.78,4.34,4.72-5.34,22.14-7.77,28.59-12.01,3.83-2.52,1.08-4.95-2.59-3.99,9.93-6.74,33.65-26.92,26-40,.4-3.49,3.24-15.61,4.23-18.67.53-1.66,3.28-1.21,3.72-2.69,3.41-11.61-6.84-3.57-7.93-4.63.57-4.04-3.45-10.56-6.02-14.01l6-4c.45,4.51-1.16,10.34,5.98,10,4.04-16.5,4.89-25.67,9.83-.78.28,3.54-3.14,23.06,1.23,24.76s6.54-15.36,6.43-17.43c-.19-3.62-4.63-6.14-3.46-10.55l6-4.01c2.29,26.41-2.03,56.79-20,77.98,3.17,2.89,19-17.04,20.81-20.17,3.06-5.27,5.95-11.98,7.19-17.81,9.97-.44,4.35-8.93,4.91-13.07.68-5.01,3.99-5.25,2.18-12.94-.72-3.07-2.51-6.99-5.09-1.99-.04-.56-1.66-8.45-2-10l4,5.01c3-7.44-2.96-19.26-6-27.01Z"/>
      <path class="cls-6" d="M168.49,21.86c12.46,11.62,20.63,26.11,31.01,35.99,13.08,12.46,13.07,5.81,20.99,26.01,3.04,7.75,9,19.57,6,27.01l-4-5.01c-1.49-6.8-5.36-15.95-9.01-21.99-.77,6.44.52,13.44,1.01,19.99l-6,4.01c-1.17,4.41,3.27,6.93,3.46,10.55.11,2.07-1.97,19.17-6.43,17.43s-.95-21.23-1.23-24.76c-4.97-24.95-5.77-15.74-9.83.78-9.9,1.1-3.5-14.68-7.98-21.99-.59-1.53-5.56-11.49-6-12,6.27-3.74,7.69,4.69,9.02-6.01l6.97,6c1.09-5.01-2.35-20.22-6.01-23.07-2.01-1.56-22.09-1.89-21.98-12.92,6.72-1.61-2.94-6.75-6-8,0,0-7.97-9.01-7.97-9.01l1.97-.99c6.04-.95,6.87,3.79,12-2Z"/>
      <path class="cls-14" d="M88.49,207.86c15.2-1.65,34.03,8.07,49.99,4.01l-1.99,5.97c1.99.06,4,0,6,.02-22.39,12.35-45.72,8.13-68,0h7.98s-5.98-7.99-5.98-7.99c4.18.62,8.23-1.6,12-2.01Z"/>
      <path class="cls-14" d="M150.49,215.86c-2.61,1.15-2.26,1.5-6,2l6-2Z"/>
      <path class="cls-9" d="M116.49,17.86c7.3,6.71-10.76,2.63-9.99,7.98,17.97-.42,33.68,9.07,49.99,14.02v2c-10.44-4.43-20.87-6.98-31.99-3.98l9.99,3.98c-11.99-1.87-18.57,2.19-27.32,3.4-3.92.54-6.8-2.91-12.59-.37-9.55,4.19-17.13,19.11-20.07,28.97,4.06-5.72,11.29-7.28,15.03-9.87,2.04-1.42,2.64-5.35,5.08-7.01.94-.64,15.66-6.96,16.54-6.79,1.98.4,4.24,4.43,5.28,3.67.04-14.48,23.41,3.57,24.04-10,3.13,1.55,2.01,4.79,2,8-12.23,2.33-.99,9.17-2,9.98-4.35.35-6.79-3.46-11.17-3.98-2.01-.24-18.44.67-21.14,1.05-9.78,1.38-10,9.84-13.69,11.96-3.21,1.84-7.67.12-9.66,1.32-.86.52-2.92,9.94-7.34,11.66l-2.97-3.98c4.93,8.76-7.39,21.35,3.97,21.98-.32-31.42,40.28-37.2,64.01-37.99-1.68,9.59,7.46,7.21,11.46,10.56,2.84,2.38,3.6,9.26,5.63,11.42,2.22,2.36,6.48,1.25,7.05,3.23,2.84,9.95-.41,14.42-10.14,14.79-.2-3.36.36-5.8-3.05-8.01l-8.94,4.02c.16-5.8,1.19-5.84-4.01-6.01-6.84-.21-16.19,2.44-22,6-6.63-6.68,14.52-7.56,16.53-8.12,1.68-.47,1.33-3.48,2.74-3.77,6.43-1.32,15.27,6.32,17.7,5.89,5.13-.91,1.26-5.02,1.04-6.01-3.07-13.84-8.03-12.34-20-14-4.61-.64-9.6-3-13.94-1.04-4.85,2.19-9.53,12.47-10.24,12.91s-4.37-2.59-5.59-1.78c-11.08,16.83-28.33,32.9-24.22,55.9,7.46,3.42,12.76-29.46,15.99-35.99,10.24-2.17,9.14-16.29,20-15.98-2.85,4.68-7.61,7.87-9.97,13.02-2.55,5.56,6.55-2.03,3.97,4.96-18.5,16.89-6.49,15.14,4.01,31.98l-10.01.02c-3.06-1.52-7.98-8.42-10.01-7.03-5.47,5.73-3.93,13.79-3.99,21.03l-2.01-9.99-9.98,3.98c-.94-1.04.91-11.33.01-14.57-.51-1.85-3.79-2.07-4.73-3.62-8.26-13.63-3.79-21.93-6.12-35.88-.65-3.89,1.15-5.83-5.18-5.92,4.68-8.22,8.41-5.23,1.93-14.99,6.82-2.13,3.01-3.44,2.05-9.01-4.73,3.03-7.19,10.78-8,15.99l-4-8c-2.17-2.08-8.11,14.21-8.67,16.29-2.03,7.45-2.97,18.67-3.3,25.71l-4.01-2.99,2.01,32.99c-5.53-19.98-2.31-33.92.11-54.89.68-4.01,7.22-9.63,3.89-13.11.51-.73,1.32-2.74,2-4,1.01-1.87,2.87-2.96,2-6,7.3-9.13,12.99-16.43,22-24,5.68-4.77,18.92-9.17,18-18,11.02.14,16.17-3.08,26-4ZM114.49,31.88c-13.05-1.97-29.29,2.37-33.99,15.97,5.31.18,6.94-5.29,11.44-7.54,6.92-3.47,17.9-1.89,22.55-8.43Z"/>
      <path class="cls-17" d="M166.49,155.86c-4.88,5.96-12.1,13.74-20,14,3.41-2.18,20.25-29.29,12.03-29.98-1.55,4.5-5.11,5.59-4.5,11.45l-27.53,20.53c3.74-8.12,3.62-4.18,8.96-7.95,8.94-6.32,5.08-11.57-4.96-8.05,6.81-6.3,11.88-8.87,6-18,3.02-2.39,14.69-16.61,16-20l3.99,4.97c.34-2.37,1.55-15.47,6-10.97.5.5.37,9.3,7.99,10-1.17-5.4.94-9.37,2.02-14,4.98,14.9-10.46,33.97-6,48Z"/>
      <path class="cls-16" d="M68.45,145.91c4.55,2.9,5.98,18.74,9.29,23.41,4.63,6.54,16.96,10.37,24.74,9.55-2.06-5.84-28.48-15.61-18.99-20.97,4.83,8.3,21.87,7.46,30.99,5.97l-1.98,7.98,7.98-1.98c1.87,1.95-6.61,14.35-4,17.94-7.81-1.32-22.33,7.84-24.24-3.64-.57-.39-4.84,3.12-12.75-2.34-11.79-8.14-6.69-10.24-7.81-19.07-.42-3.28-8.33-6.34-7.21-15.89.2-1.7,3.27-1.42,3.98-.97Z"/>
      <path class="cls-16" d="M140.49,93.86c5.2.16,4.17.2,4.01,6.01l8.94-4.02c3.44,1.49,4.63,10.77,1.05,12.01.02-1.28-1.28-10.35-3.97-9.99-3.59,16.44-13.72,30.1-24.01,43,1.66,2.46,8.6-1.91,9.99-3.01,5.88,9.13.81,11.7-6,18-8.4,7.77-9.5,6.64-21.99,5.99-3.46-5.91,17.58-7.25,11.98-11.98-.78-.66-16.79,5.63-19.99,0,6.51-.89,9.09-2.53,13.33-3.37,1.56-.31,10.99,2.91,10.63-1.63-.32-3.97-13.69-4.87-17.96-7l10.01-.02-2.01-3.98c10.67.63,32.92-30.85,26-40Z"/>
      <path class="cls-7" d="M142.49,51.86c1.46-.56,6.59,1.62,8,2,1.04,1.03,4.94,9.02,3.99,9.99-5.62-3.45-9.52-.17-11.99,0-23.72.78-64.34,6.58-64.01,37.99-11.36-.63.96-13.22-3.97-21.98l2.97,3.98c4.42-1.72,6.48-11.14,7.34-11.66,1.99-1.2,6.45.52,9.66-1.32,3.69-2.12,3.91-10.58,13.69-11.96,2.7-.38,19.14-1.29,21.14-1.05,4.38.52,6.82,4.33,11.17,3.98,1.01-.81-10.23-7.65,2-9.98Z"/>
      <path class="cls-28" d="M44.49,111.86c.49-10.71,2.71-36.09,11.98-42,0,0,4,8,4,8,.81-5.21,3.27-12.97,8-15.99.97,5.57,4.77,6.87-2.05,9.01,6.48,9.76,2.75,6.77-1.93,14.99-3.27,4.74-6.9,6.84,0,10l-.02,4c-1.47-1.31-5.77-1.76-5.98-2-.45-.51.49-3.54-.02-4-3.94-3.53-7.85,27.77-7.98,30-7.54,11.81-6.38-3.81-6-12Z"/>
      <path class="cls-25" d="M40.49,105.86c-2.4,18.26-1.41,18.66,2,36,1.23,6.23.53,14.55,4,20,.62,5.7-1.2,4.9-5.03,2.03-16.52-12.43-13.69-46.78-6.01-64.06l5.04,6.04Z"/>
      <path class="cls-5" d="M134.49,41.86c.31.05,5.72,1.86,6,2-.62,13.57-24.01-4.47-24.04,10-1.04.76-3.3-3.27-5.28-3.67-.88-.18-15.61,6.15-16.54,6.79-2.45,1.66-3.04,5.59-5.08,7.01-3.74,2.59-10.97,4.15-15.03,9.87,2.94-9.86,10.52-24.78,20.07-28.97,5.79-2.54,8.67.91,12.59.37,8.75-1.21,15.34-5.27,27.32-3.4Z"/>
      <path class="cls-22" d="M168.49,41.86c-.1,11.03,19.97,11.36,21.98,12.92,3.66,2.84,7.1,18.06,6.01,23.07l-6.97-6c-1.33,10.71-2.75,2.28-9.02,6.01-2.84-3.27-14.33-10.05-12-2-.36-1.19-3.38-2.63-1.99-5.99l15.95-1.01c-9.29-12.02-11.23-20.75-25.96-27v-2c3.42,1.05,8.32,1.31,12,2Z"/>
      <path class="cls-23" d="M184.49,185.86c-12.09,13.43-15.54,6.89-25.01,21.99-1.58.82.49-3.74-3.87-4.21-4.24-1.88-27.02,7.54-19.12-1.79,3.29.6,22.9-3.51,23.78-4.34.69-.65-.34-3.97.66-5.1,8.84-2.71,7.33-2.86,9.69-10.51,1.57-1.09,5.94,2.21,7.96.99,2.48-1.5,10.05-9.94,5.93-13.03,5.36,2.66,7.24-2.76,11-6,2.19,7.07-6.56,16.71-11.01,21.99Z"/>
      <path class="cls-26" d="M162.49,185.86c-3.85,2.32-10.07,3.69-14,6v-4l40-42c7.64,13.11-16.04,33.22-26,40Z"/>
      <path class="cls-27" d="M54.49,181.86c.5,1.44-.55,5.48,0,6.02.61.59,4.01-1.74,6.06-.94.83.32,12.04,9.3,13.93,10.92,2.63,2.25,6.68,3.85,5.99,7.99-26.78,5.27-31.19-18.33-43.98-35,8.79-4.26,9.09,11.28,17.99,11.01Z"/>
      <path class="cls-15" d="M166.49,155.86c-4.46-14.03,10.98-33.1,6-48,.41-1.76-1.15-5.45.99-5.99,17.65,14.54,4.75,39.66-6.99,53.99Z"/>
      <path class="cls-8" d="M58.49,97.86l-1.56,1.22c1.83,10.55,3.62,20.58,3.64,31.68-.25,4.82-3.04,9.86-2.09,15.1-19.48,6.98.32-70.97,0-48.01Z"/>
      <path class="cls-4" d="M106.49,137.86c4.27,2.13,17.64,3.03,17.96,7,.36,4.54-9.07,1.32-10.63,1.63-5.37,2.15-14.66,2.89-21.33,5.37.06-7.24-1.48-15.3,3.99-21.03,2.03-1.39,6.95,5.51,10.01,7.03Z"/>
      <path class="cls-2" d="M180.49,77.86c3.28,5.61,8.84,16.75,8,24l-6,4c-5.06-8.13-27.42-48.59-2-28Z"/>
      <path class="cls-20" d="M154.49,107.86c-.02,1.24-1.57,8.88-2,10-3.87,5.96-17.17,26.81-25.99,23.01,10.29-12.9,20.42-26.56,24.01-43,2.69-.37,4,8.7,3.97,9.99Z"/>
      <path class="cls-18" d="M126.49,171.86l27.53-20.53c-.61-5.87,2.95-6.95,4.5-11.45,8.2.69-8.55,27.72-12.03,29.98-.33.32.33,1.69,0,2-5.63-4.08-12.88.73-18,4-1.33-.06-2.67.06-3.99-.01-1.11-3.69,1.75-3.47,1.99-3.99Z"/>
      <path class="cls-8" d="M74.49,187.84c-16.28-6.75-20.81-23.63-21.98-39.98,6.49,7.17,9.18,19.21,13.58,27.4,2.36,4.39,6.87,7.61,8.4,12.58Z"/>
      <path class="cls-22" d="M174.48,67.85c-4.09,1.33-12.92-2.16-11.98-6.96,1.37-6.99,14.91,4.21,11.98,6.96Z"/>
      <path class="cls-9" d="M58.49,105.86c-.02-1.88-1.99-4.47-1.56-6.78l1.56-1.22c.21.24,4.51.68,5.98,2l.02-4c4.46,5.01.15,8.96-6,10Z"/>
      <path class="cls-17" d="M146.49,171.86c-4.76,4.43-11.97,4.29-18,4,5.12-3.27,12.37-8.08,18-4Z"/>
      <path class="cls-22" d="M148.49,187.86v4c-11.59,3.98-7.62-5.44,0-4Z"/>
      <polygon class="cls-23" points="132.48 203.85 128.5 202.87 132.47 199.86 132.48 203.85"/>
      <path class="cls-22" d="M158.49,187.86c-3.15,1.66-4.31,1.32-6,2l6-2Z"/>
      <path class="cls-9" d="M150.49,53.86l-6-2c3.19.14,3.45-.52,6,2Z"/>
      <path class="cls-1" d="M50.49,205.84C-7.37,197.01-1.62,123.84,23.5,85.87c-3.03,23.14-4.84,49.29,1.57,72.41,4.4,15.93,19.32,31.96,25.42,47.56Z"/>
      <path class="cls-29" d="M160.49,23.86c-16.02-.27-27.12-10.65-44-6-.63.15-1.36-.14-2,0l-22,4c-.66.05-1.34-.03-2,0-5.35-5.13-11.53,5.13-18,3.98C92.74,2.8,132.94-.94,157.44,17.91c.87.67,7.09,5.1,3.05,5.95Z"/>
      <path class="cls-12" d="M72.49,39.86c-5.14,4.6-25.55,23.96-24,30-.68,1.26-1.49,3.27-2,4-9.83,6.19-11.66,22.17-19.98,30,.87-29.56,13.6-47.73,37.66-63.31,2.34-1.51,6.53-5.07,8.32-.69Z"/>
      <path class="cls-10" d="M222.49,105.86c4.36,18.48,2.35,39.35-7.19,55.81-1.82,3.12-17.64,23.05-20.81,20.17,23.77-27.23,20.84-64.9,18.99-97.97,3.65,6.04,7.52,15.19,9.01,21.99Z"/>
      <path class="cls-6" d="M224.49,115.86c2.58-5.01,4.36-1.09,5.09,1.99,1.81,7.69-1.5,7.93-2.18,12.94-.56,4.14,5.07,12.63-4.91,13.07,1.62-7.65,2.58-20.19,2-28Z"/>
      <path class="cls-28" d="M156.49,23.86l-1.97.99,7.97,9.01c-7.19-3.29-21.43-6.59-28-2-9.68-2.93-17.11-6.81-27.99-6.02-.77-5.35,17.28-1.27,9.99-7.98,15.58-3.85,25.54,3.26,40,6Z"/>
      <path class="cls-3" d="M162.49,33.86c3.07,1.26,12.72,6.39,6,8-12.24-.76-22.18-6.14-34-10,6.57-4.59,20.81-1.29,28,2Z"/>
      <path class="cls-22" d="M188.49,97.86l-2-8c1.54,4,1.3,4.13,2,8Z"/>
      <path class="cls-13" d="M140.49,93.86c6.9,9.14-15.26,40.58-26,40-14.36-13.46-15.76-15-2-28,6.95-8.67,17.53-11.88,28-12Z"/>
      <path class="cls-16" d="M136.49,73.86l-10,7.98c5.88,3.47,15.28-.18,18.79.44,5.29.93,3.39,11.93,11.21,5.58.22.98,4.09,5.1-1.04,6.01-2.42.43-11.26-7.21-17.7-5.89-1.41.29-1.06,3.3-2.74,3.77-2,.56-23.16,1.43-16.53,8.12-.36.22-4.55,4.63-6,6,2.58-6.99-6.52.6-3.97-4.96,2.36-5.15,7.12-8.34,9.97-13.02-10.86-.31-9.76,13.81-20,15.98.69-2.19,1.52-4.42,1.58-6.76l-1.58-1.24c1.92-2.41,7.62-11.52,8.23-11.91,1.23-.8,4.92,2.21,5.59,1.78,6.02-9.81,8.38-17.03,24.18-11.87Z"/>
      <path class="cls-11" d="M98.49,103.86c-3.21,6.53-8.57,39.47-15.99,35.99-2.46-18.67,5.1-30.36,15.99-43.99l1.58,1.24c-.05,2.34-.89,4.57-1.58,6.76Z"/>
      <path class="cls-24" d="M156.49,87.86c-7.82,6.35-5.92-4.65-11.21-5.58-3.51-.62-12.92,3.03-18.79-.44l10-7.98c11.97,1.66,16.93.16,20,14Z"/>
      <path class="cls-21" d="M114.49,31.88c-4.65,6.54-15.63,4.96-22.55,8.43-4.5,2.26-6.13,7.72-11.44,7.54,4.7-13.6,20.94-17.94,33.99-15.97Z"/>
      <path class="cls-28" d="M114.49,17.86c-8.96,2-11.69,3.24-22,4l22-4Z"/>
      <path class="cls-28" d="M48.49,69.86c-.63-3.09.34-3.92,2-6,.87,3.04-.99,4.13-2,6Z"/>
    </g>
  </g>
</svg>