<?xml version="1.0" encoding="UTF-8"?>
<svg id="Calque_2" data-name="Calque 2" xmlns="http://www.w3.org/2000/svg" viewBox="0 0 329.57 165.85">
  <defs>
    <style>
      .cls-1 {
        fill: #e6a0bc;
      }
    </style>
  </defs>
  <g id="Calque_1-2" data-name="Calque 1">
    <path class="cls-1" d="M329.29,8.14c1.57,2.02-4.18,9.73-3.93,12.62.1,1.15,3.41.96,3.74,1.42-9.85,32.2-33.65,64.51-45.36,95.33-3.25,7.69-7.03,34.48-18.18,31.28-13.15-3.78-10.41-34.89-12.47-45.96-1.41-7.14-6.96-18.31-7.6-26.97-5.39-.54-3.21,0-3.91,3.01-3.85,16.66-10.01,32.44-14.13,48.98l-11.83-.07c-3.77-11.58-9.09-22.73-9.91-35.15-.57-8.71,6.48-33.22-8.2-32.76l3.12,6.1-17.41,58.59c-1.08,3.18-11.95,5.9-13.79,4.47-2.92-6.13-7.65-30.45-9.79-38.65-2.52-8.92,1.57-20.73-8.11-26.53l-26.04,102c-4.46-3.69-6.46-4.12-12.11-2.89l-19.89-123.1c-3.54.61-3.46,4.04-4.28,6.69-8.81,28.5-11.52,60.38-24.9,87.09l-6.77,2.21c-2.76-14.6-10.29-29.04-13.54-43.48-3.48-15.46-3.5-34.37-8.14-49.8-.9-3-7.47-4.58-4.36-12.72-4.9,2.09-5.33,9.65-6.63,14.35-7.98,28.86-12.54,58.76-17.77,88.23-15.15,14.67-1.6-42.05.22-47.78C31.26-59.47,39.61,17.13,59.54,101.85c3.86,2.99,9.43-21.41,10.4-24.55,5.13-16.57,16.13-45.37,19.15-58.42,1.27-5.51-1.93-19.12,10.55-10.14l20.88,117.13c9.36-28.27,16.67-58.08,25.62-86.33,3.55-8.65,8.43-24.62,17.62-10.76l4.2,38.09c6.28,2.08,2.41,7.16,3.66,11.86,1.35,5.09,4.77,9.44,3.91,15.13,5.33.48,3.24.08,3.95-3.02,2.51-11.04,5.39-19.37,6.12-29.77.17-2.43,9.8-25.03,11.5-30.65,1.4-4.65-.16-11.5,2.55-16.55,23.62,1.16,13.11,9.81,13.67,25.04.14,3.76,3.93,2.65,4.25,4.27-3.93,16.52,5.04,29.75,3.97,46.65,8.36-4.57,13.07-39.19,18.11-49.87,8.07-.77,7.85,5.77,13.86,1.87l15.99,80L322.54,1.88c5.76-5.53.6,2.78,1.9,4.11,1.23,1.25,4.22,1.35,4.86,2.16Z"/>
  </g>
</svg>