<?xml version="1.0" encoding="UTF-8"?>
<svg id="Calque_2" data-name="Calque 2" xmlns="http://www.w3.org/2000/svg" viewBox="0 0 233.65 129.97">
  <defs>
    <style>
      .cls-1 {
        fill: #54544f;
      }

      .cls-2 {
        fill: #acada7;
      }

      .cls-3 {
        fill: #383932;
      }

      .cls-4 {
        fill: #abaca6;
      }

      .cls-5 {
        fill: #888984;
      }

      .cls-6 {
        fill: #bcbdb7;
      }

      .cls-7 {
        fill: #7b7d77;
      }

      .cls-8 {
        fill: #34352f;
      }

      .cls-9 {
        fill: #666860;
      }

      .cls-10 {
        fill: #797973;
      }

      .cls-11 {
        fill: #b0b0ab;
      }

      .cls-12 {
        fill: #82837c;
      }

      .cls-13 {
        fill: #6d6e68;
      }

      .cls-14 {
        fill: #757671;
      }

      .cls-15 {
        fill: #464641;
      }

      .cls-16 {
        fill: #73756e;
      }

      .cls-17 {
        fill: #80807a;
      }

      .cls-18 {
        fill: #5e5f59;
      }

      .cls-19 {
        fill: #242520;
      }

      .cls-20 {
        fill: #555651;
      }

      .cls-21 {
        fill: #565751;
      }

      .cls-22 {
        fill: #575853;
      }

      .cls-23 {
        fill: #61625c;
      }

      .cls-24 {
        fill: #777971;
      }
    </style>
  </defs>
  <g id="Calque_1-2" data-name="Calque 1">
    <g>
      <path class="cls-19" d="M225.1,3.3c-3.89,9.75-14.49,5.18-20.84,6.2-4.37.7-10.44,3.75-15.16,3.8-3.28.04-11.84-3.3-12.95-3.24-2.68.15-10.9,6.18-17.05,3.26,3.84,6.13,15.76,5.42,22,3.98-3.46,12.14,5.5,34.49,15.99,16.99l-5.97,1.01c-3.19-6.51,11.73-12.11,13.97-10,.91.85-2.81,12.91,10.01,2v-2c2.63.22,5.36-.18,8,.02.53,3.11-5.96,6.71-5.96,7.18,0,1.97,1.98,4.36,1.56,7.33-.29,2.03-6.55,15.29.37,9.46,4.95-4.16,9.83-37.88,10.03-45.99,1.05.3,2.73-.25,4-.01,3.04,27.24-6.95,45.98-20,68.01-7.89-.71-8.88,12.71-10.11,13.96-.35.36-2.87-1.26-7.89,2.04,1.57-3.91,1.95-6.36,5.99-9.01-4.36-3.37-7.15,5.98-10.86,9.14-5.05,4.98-18.81,7.66-17.11,15.87,7.82-4.68,14.89-10.35,21.98-16-1,2.49-1.12,5.45-2,8-8.3,7.67-13.26,14.12-24,20l-12.95,2.02.95-8c-5.48-1.78-9.67,4.69-13.3,5.39-10.18,1.38-24.61,6.16-34.46,3.21-3.2.09-9.23,1.67-11.05,1.24-4.39-1.04.17-7.41-4.2-9.86-.54-.21-2.53,7.28-8.99,5.99-.77-.15-13.46-6.51-14.02-7.05-1.43-1.4-5.84-10.46-8.01-12.93l-1.99,6-9.98-4c18.81,18.2,46.18,26.95,71.99,25.99v3.98C69.93,135.55,20.07,93.14,3.64,43.76-6.74,12,6.02,20.05,29.84,17.04,87.53,9.05,159.08.11,216.47,0c5.36.16,6.35,2.63,8.63,3.3ZM115.1,45.3c4.3-.51,7.74-3.4,11.99-4.03-3.89-7.5-11.7-.4-14.88-.18-8.08-3.19-21.71.59-29.81.28-.66-.05-2.53-6.27-7.29-4.09l23.47-3.5,4.52-4.46c-7.99-3.71-5.07,1.43-7.33,1.96-4.97.29-45.94,6.01-45.64-2.01-8.7,2.26-1.7,6.48-3.02,8.02-.45.52-3.32-.44-4.01,0-1.54.99-5.91,9.83-11.99,11.03-.85,2.83,1.62,2.51,1.99,2.97,1.88,2.31,6.45,7.14,8.67,9.35,2.02,2.01,8.92.44,7.35,8.65,5.04,1.58,3.45-2.39,4.67-3.21,4.85-3.28,9.63-4.48,15.3-2.77l-5.98,7.97,17.82.1c.7,1.22-.15,3.04.17,3.91-1.93.2-4.13-.3-6,0-6.01.96-3.41,1.12-6,6-.07.12-2.33-.27-2,1.98,5.7-1.48,17.11,7.18,18.05-1.96h1.93c0,12.9,12.75,2.19,6.02,15.98-.2.47-3.1.3-1.99,3.99,10.6,2.62,9.56.45,15.99-3.99,1.69-1.17,21.53-12.74,12.99-14.01-10.67-1.58-5.74,8.46-14.98,3.98,2.27-4.61,9.15-2.75,3.99-9.98-7.43-3.58-5.52,4.42-10-6l12.01-2.01c.85-7.47-2.62-2.52-6.01-1.99-.7-2.22-2-3.07-4-4-.26-1.2.38-3.2,0-4,2.54,1.05,11.5-2.35,12-2,.75.52.05,9.61,5.99,2.99,7.46-8.32,1.39-6.42.7-7.61-.95-1.61-.53-3.15-.68-3.38-.99-1.49-2.76-2.68-4-4ZM15.81,46.72c-3.42-4.72-2.62-12.79-8.7-15.41-1.09,3.79,7.23,19.94,8.98,19.96,6.29-5.52.79-3.07-.28-4.55ZM123.09,31.32h-5.98v1.96h5.98v-1.96ZM149.09,33.31h-7.98c-1.26,2.37,8.71,2.58,3.99,5.98-1.61,1.16-9.06-2.92-10,5.99,4.26,1.84,18.12-7.98,13.99-11.97ZM135.1,39.32c-3.7-3.14-8.49,7.14-2.99,9.97l2.99-9.97ZM198.39,60.66c1.18-1.74,4.59-5.71,1.72-7.35-2.63,3.62-10.3,9.5-12.29,12.68-2.91,4.64-.81,12.98-8.72,13.36,3.72,8.35,6.43-1.04,9.99-5.13,1.73-1.99,5.34-2.55,5.81-3.24,1.21-1.77-1.48-5.05-1.24-6.8.28-2.03,3.89-2.28,4.73-3.52ZM22.63,57.93c-2.41-1.2-7.15-1.6-5.51,2.34l10.98,10.99c1.75-1.57,3.96-2.97,2.82-5.79-.21-.52-7.78-7.29-8.29-7.54ZM173.09,57.31c-5.29-.79-8.43,10.33-9.97,13.99.62.72,12.77-9.49,9.97-13.99ZM136.64,65.74c-.51-.26-11.01,1.3-11.39,1.73-1.32,1.52,2.35,7.81-4.18,8.83l4.02.96c-1.04,7.5,1.19,6.34,8.01,6.01l-4-9.96,17.99-.03c1.91-9.08-9.99,1.01-10.45-7.55ZM67.09,75.31l-5.98.98c1.82,2.12,3.03,3.65,5.98,3v-3.98ZM165.09,75.31c-1.3-1.45-13.46,2.17-11.98,7.98,3.35,1.6,16.89-2.51,11.98-7.98Z"/>
      <path class="cls-3" d="M229.1,3.3c-.21,8.11-5.09,41.83-10.03,45.99-6.92,5.82-.66-7.43-.37-9.46.42-2.97-1.57-5.36-1.56-7.33,0-.47,6.49-4.07,5.96-7.18-2.64-.2-5.36.2-8-.02-.21-.02-3-4-4.01-.98-.63,3.7.61,3.18,4.01,2.98-12.82,10.91-9.1-1.15-10.01-2-2.25-2.11-17.16,3.49-13.97,10l5.97-1.01c-10.49,17.5-19.45-4.85-15.99-16.99,3.11-.72,6.14-.86,8-4,4.72-.05,10.79-3.1,15.16-3.8,6.35-1.02,16.95,3.55,20.84-6.2,1.11.32,2.88-.32,4,0Z"/>
      <path class="cls-15" d="M115.1,119.3c6.44-.52,21.95-3.28,28.7-4.59,3.62-.7,7.82-7.17,13.3-5.39l-.95,8,12.95-2.02c-18.14,9.93-43.49,16.91-64,14l17.99-2.01v-3.98c-2.65-.12-5.34.12-7.99-.01v-4Z"/>
      <path class="cls-20" d="M213.1,71.3c-8.22,13.88-8.75,13.61-20,24,.88-2.55,1-5.51,2-8-3.62,2.38-6.46,5.49-10,8l-4-2c2.87-2.2,6.14-3.32,9.13-5.87,3.71-3.16,6.5-12.51,10.86-9.14-4.04,2.65-4.42,5.1-5.99,9.01,5.01-3.3,7.54-1.68,7.89-2.04,1.23-1.26,2.22-14.68,10.11-13.96Z"/>
      <path class="cls-8" d="M43.1,37.3c11.2,1.14-4.49-4.76,7.03-8.03.88,5.02,10,4.19,14.97,4.03l-5.98,7.99c3.29.85.9-3.41,3.28-4.03,10.45-2.71,8.59,5.55,14.6,7.21,3.53,1.57,13.98-4.48,16.11.82-2.13-2.13-6.22,1.76-3.99,3.99s6.11-1.86,3.99-3.99c6.49.29,15.8.73,22,0,1.24,1.32,3.01,2.51,4,4h-3.99s1.98,7.99,1.98,7.99h-3.99c-.5-.33-9.46,3.07-12,2.01-.52-1.1-2.64-2.02-3.98-2.05v-1.93c6.51-.44,8.2,3.92,11.98-2.02,1.27-2,2.55-3.33,1.99-5.99-1.2-1.19-9.54,3.2-11.99,3.99-1.7.55-6.06-1.17-6.03,1.03,1.02,3.99,2.48,9.69,6.01,11.92.89.56,1.92-1,2.03-.95,2,.93,3.3,1.78,4,4-2.48.38-5.42-.28-7.99.01-1.11,3.69,1.78,3.51,1.99,3.99,4.48,10.42,2.57,2.42,10,6-4.82,13.32-7.83,2.38-9.34,2.03-8.18-1.89-12.58-1.05-10.66,7.97-1.7-1.77-2.12-3.62-2.02-5.99h-1.93c-.06,1.3-.96,3.65-2.05,3.99,1.27-4.41-.76-6.66-2-10-.32-.86.53-2.68-.17-3.91l-17.82-.1,5.98-7.97c-5.67-1.71-10.45-.52-15.3,2.77-1.22.83.38,4.79-4.67,3.21,1.56-8.21-5.33-6.65-7.35-8.65-2.22-2.21-6.79-7.04-8.67-9.35,10.12-5.88,22.98,9.99,18.01-7.99l9.99,3.97c-11.02-19.1-14.3,5.56-18-9.98Z"/>
      <path class="cls-18" d="M65.1,33.3c6.57-.22,25.88-.9,30.67-2.02,2.25-.53-.67-5.67,7.33-1.96l-4.52,4.46-23.47,3.5c4.76-2.17,6.63,4.04,7.29,4.09,8.11.31,21.71-3.47,29.81-.28,3.18-.22,10.99-7.32,14.88.18-10.49,4.84-22.38,5.02-33.99,4.03,2.13,2.13-1.76,6.22-3.99,3.99s1.86-6.11,3.99-3.99c-2.15-5.3-12.56.75-16.11-.82-6.01-1.66-4.15-9.93-14.6-7.21-2.37.62.01,4.88-3.28,4.03l5.98-7.99Z"/>
      <path class="cls-9" d="M109.1,77.3c5.17,7.22-1.72,5.37-3.99,9.98,9.24,4.48,4.31-5.57,14.98-3.98,8.54,1.27-11.3,12.84-12.99,14.01-3.07-4.37-9.8-.91-14,0,4.86-11.37.03-5.79-4-10-1.92-9.02,2.48-9.85,10.66-7.97,1.51.35,4.53,11.29,9.34-2.03Z"/>
      <path class="cls-12" d="M43.1,37.3c3.68,15.53,7-9.11,18,9.98l-9.99-3.97c4.97,17.98-7.89,2.1-18.01,7.99-.37-.46-2.84-.14-1.99-2.97,6.09-1.2,10.46-10.04,11.99-11.03Z"/>
      <path class="cls-21" d="M136.64,65.74c.46,8.56,12.35-1.53,10.45,7.55l-17.99.03,4,9.96c-6.83.33-9.05,1.49-8.01-6.01l-4.02-.96c6.54-1.02,2.87-7.31,4.18-8.83.38-.44,10.88-2,11.39-1.73Z"/>
      <path class="cls-22" d="M115.1,119.3v4c-14.84-.73-16.28-.81-30-6v-2c6.46,1.28,8.45-6.2,8.99-5.99,4.36,2.44-.19,8.82,4.2,9.86,3.9.17,12.5-2.49,16.81.14Z"/>
      <path class="cls-6" d="M85.1,117.3c-11.72-4.44-25.4-10.11-34-19.98l9.98,4,1.99-6c9.57,15.14,5.31,12.27,22.03,19.98v2Z"/>
      <path class="cls-10" d="M189.1,13.3c-4.92,6.37-25.51,7.23-30,.02,6.15,2.92,14.37-3.1,17.05-3.26,1.11-.06,9.67,3.27,12.95,3.24Z"/>
      <path class="cls-7" d="M198.39,60.66c-.84,1.24-4.45,1.49-4.73,3.52-.24,1.75,2.45,5.03,1.24,6.8-.47.68-4.07,1.25-5.81,3.24-3.56,4.08-6.27,13.48-9.99,5.13,7.9-.37,5.81-8.72,8.72-13.36,1.99-3.18,9.66-9.06,12.29-12.68,2.87,1.64-.54,5.62-1.72,7.35Z"/>
      <path class="cls-17" d="M81.1,75.3c1.24,3.34,3.27,5.59,2,10-3.98,1.24-11.33-2.86-16-2.02-.33-2.25,1.93-1.86,2-1.98l8-.02-2-5.98c1.87-.3,4.07.2,6,0Z"/>
      <path class="cls-18" d="M99.1,51.3c1.71,3.24,6.8,1.88,10,2-3.77,5.95-5.47,1.58-11.99,2.02v1.93c4.26.43,4.24,2.37,3.99,6.05-4.34,3.86-7.15-7.79-8.03-10.97-.03-2.19,4.33-.48,6.03-1.03Z"/>
      <path class="cls-16" d="M22.63,57.93c3.71,3.96,13.38,7.93,5.47,13.33l-10.98-10.99c-1.63-3.94,3.11-3.54,5.51-2.34Z"/>
      <path class="cls-2" d="M107.1,97.3c-6.43,4.44-5.39,6.61-15.99,3.99-1.11-3.69,1.79-3.52,1.99-3.99,4.2-.91,10.93-4.37,14,0Z"/>
      <path class="cls-1" d="M149.09,33.31c4.13,3.99-9.73,13.81-13.99,11.97.95-8.91,8.39-4.82,10-5.99,4.71-3.4-5.25-3.61-3.99-5.97h7.98Z"/>
      <path class="cls-24" d="M165.09,75.31c4.91,5.47-8.63,9.58-11.98,7.98-1.48-5.81,10.68-9.43,11.98-7.98Z"/>
      <path class="cls-23" d="M119.1,49.3c-.93,7.19,8.79.61-.01,10.99-5.93,6.62-5.24-2.47-5.99-2.99h3.99s-1.98-7.99-1.98-7.99h3.99Z"/>
      <path class="cls-5" d="M15.81,46.72c1.07,1.48,6.57-.97.28,4.55-1.74-.02-10.07-16.17-8.98-19.96,6.08,2.63,5.27,10.69,8.7,15.41Z"/>
      <path class="cls-13" d="M173.09,57.31c2.8,4.49-9.35,14.71-9.97,13.99,1.54-3.66,4.68-14.78,9.97-13.99Z"/>
      <path class="cls-14" d="M185.1,95.3c-3.89,2.76-7.99,5.39-11.98,8-.8-7.14,4.35-7.22,7.98-10l4,2Z"/>
      <path class="cls-23" d="M105.1,67.3c3.39-.52,6.85-5.48,6.01,1.99l-12.01,2.01c-.21-.48-3.1-.3-1.99-3.99,2.57-.29,5.51.37,7.99-.01Z"/>
      <path class="cls-1" d="M135.1,39.32l-2.99,9.97c-5.5-2.83-.71-13.11,2.99-9.97Z"/>
      <path class="cls-8" d="M75.1,75.3l2,5.98-8,.02c2.59-4.88,0-5.04,6-6Z"/>
      <path class="cls-8" d="M67.09,75.31v3.98c-2.95.65-4.16-.88-5.98-3l5.98-.98Z"/>
      <path class="cls-4" d="M215.1,25.3v2c-3.4.2-4.64.72-4.01-2.98,1.01-3.02,3.8.96,4.01.98Z"/>
      <rect class="cls-18" x="117.11" y="31.32" width="5.98" height="1.96"/>
      <path class="cls-11" d="M99.1,51.3c2.45-.79,10.79-5.18,11.99-3.99.56,2.66-.72,3.99-1.99,5.99-3.2-.12-8.29,1.24-10-2Z"/>
    </g>
  </g>
</svg>