<?xml version="1.0" encoding="UTF-8"?>
<svg id="Calque_2" data-name="Calque 2" xmlns="http://www.w3.org/2000/svg" viewBox="0 0 232.46 226.13">
  <defs>
    <style>
      .cls-1 {
        fill: #f4ec97;
      }

      .cls-2 {
        fill: #f1e25a;
      }

      .cls-3 {
        fill: #f4eea5;
      }

      .cls-4 {
        fill: #f3df47;
      }

      .cls-5 {
        fill: #f2e156;
      }

      .cls-6 {
        fill: #f9f3a9;
      }
    </style>
  </defs>
  <g id="Calque_1-2" data-name="Calque 1">
    <g>
      <path class="cls-2" d="M130.38,50.07c-.59,5.28-4.48,30.02-1.98,32,9.91-1.79,49.71-42.97,55.98-37.98-9.53,17.99-27.95,30.29-41.02,45.96-1.58,2.01-3.87,2.57-2.96,6.02l81.25-21.94c45.21,15.6-65.4,32.4-75.26,35.96,3.88,16.87,63.51,29.76,73.83,43.15,10.02,9.47-2.75,11.49-12.37,8.37-10.21-3.3-70.47-36.27-73.46-33.53,10.35,21.27,22.99,41.03,33.99,61.99h-2c-10.41-23.32-34.57-42.46-35.99-67.99,4.42.36,9.72,2.74,13.99,3.99,7.68,3.28,15.58,10,24,12,11.13,5.53,30.35,20.04,42.93,20.09,3.02.01,5.89,1.24,5.05-3.07l-77.1-38.98c-3.76-7.04,11.08-9.78,14.98-11.24,1.77-.66,3.06-3.74,5.03-4.01,2.86-.4,6.68,2.22,11.66.84,5.83-1.61,6.45-9.22.45-9.82-12.05-1.19-27.77,9.45-40.88,6.04-6.54-17.39-7.13-30.26-.12-47.86ZM218.37,80.08l-35.98,8.98c4.25,3.64,16.52,4.9,21.68,3.79,4.29-.92,3.88-3.44,5.9-4.62,1.73-1.01,13.71-2.64,8.4-8.16Z"/>
      <path class="cls-2" d="M64.38,74.07c8.15,3.83,15.63,12.63,24.03,8.97-5.33-20.65-26.33-37.72-27.18-58.98-.34-8.68,3.43-6.75,7.99-1.83,13.15,15.04,33.06,45.21,39.18,63.84,5.01,6.68,7.09-18.04,7.98-20,.56-2.17,2.7-5.91,4-8-1.84,12.37,1,31.79-13.98,36l-11.18-27.83-10.83-10.15c-.31,12.96,10.31,19.1,11.96,30.87-1.76,7-22.34-4.91-21.93,2.12.2,3.51,16.46,3.31,22.06,11.9,5.47,8.4-.54,6.76-4.1,9.1h-2c1.78-1.53,6.51-2.44,3.06-6.06-.95-1-20.83-12.83-23.69-14.31-10.27-5.3-22.31-7.53-32.04-13.96-6.01-3.97-10.59-11.01-17.32-14.69-.93-11.5,37.34,10.45,43.99,13.02Z"/>
      <path class="cls-1" d="M64.38,124.07c7.83-.96,16.95-.99,24.99-2.01l.7,4.7c-3,3.36-83.9,76.6-49.64,60.36,15.13-9.12,47.67-56.56,61.94-53.05l-9.98,80.01,9.97-.02c.63-.56-2.1-13.45-1.69-14.84,1.14-3.94,7.63-2.06,7.87-4.31-2.73-8.49,1.5-17.47,3.69-25.96,0,0,2.15-36.87,2.15-36.87,2.05-.07,10.43,3.54,11.99,5.99,1.18,6.75,6.48,11.93,10,18,4.82,8.33,8.62,15.78,14,24,.02,2.93,1.21,5.02,4,6,3.25,2.23,2.59,6.76,4,10-15.68-9.15-25.56-58.25-39.99-56-.59,16.5-3.77,32.72-5.99,49.02-1.03,7.58-.14,36.65-13.01,37.04-.91.03-.9-2.76-2.6-3.87s-4.81-.95-6.6-2.97c-6.24-24.64,9.63-55.79,8.17-81.23-20.13,13.24-38.59,40.87-56.99,53.99-11.79,8.41-17.09,1.31-9.89-9.9,9.88-15.38,35.37-37.58,49.53-50.46,1.95-1.77,4.3-1.77,3.36-5.62-22.54-1.53-54.04,14.38-75.01,14.15-8.49-.14-13.43-4.19-4.98-10.16-2.32,11.21,9.87,4.86,16,4,10.09.45,20.52-4.08,30-6,3.51-.75,11.08-2.81,14-4Z"/>
      <path class="cls-3" d="M116.38,66.07C117.89,55.65,124.32,1.99,133.41.08c6.92-1.46,5.35,18.23,5.05,23.07-1.05,17.08-7.37,35.5-8.07,52.91l63.27-53.83c16.4,5.13-8.32,25.92-15.28,31.84,1.4-1.81,2.83-7.62,6-9.98-6.27-4.99-46.07,36.19-55.98,37.98-2.77-3.05,2.02-27.91,1.98-34,4-3.45,1.37-10.99,2-16,1.68-5.37,3.36-21.71,3.99-27.99,0,0-7.99,11.99-7.99,11.99-.17,4.8-2.29,7.97-2,12-.84,1.72-2.54,6.9-2,10-.06.31-1.47,2.75-2,6,.7,4.61-2.02,8.29-2,14-1.3,2.09-3.44,5.83-4,8Z"/>
      <path class="cls-6" d="M64.38,74.07c-6.58-2.55-44.93-24.53-43.99-13.02,6.72,3.68,11.3,10.72,17.32,14.69,9.73,6.43,21.77,8.66,32.04,13.96,2.87,1.48,22.74,13.31,23.69,14.31,3.45,3.62-1.28,4.53-3.06,6.06-13.63,5.35-29.13,2.42-42,10-2.69.39-6.6-1.21-8,2-3.22.17-6.94-.35-10,0,15.95-8.51,34.62-8.65,51.63-13.41,23.35-3.88-60.04-32.59-66.65-44.56-5.05-5.55-3.85-10.16,3.92-10.12,14.34.08,33.67,11.3,45.1,20.09Z"/>
      <path class="cls-5" d="M156.38,188.07c6.41,3.29,6.03,15.22,13.03,17.98,8.17,3.23-2.44-14.85-3.03-15.98h2c23.06,28.89-8.5,25.11-12-2Z"/>
      <path class="cls-5" d="M30.38,122.07c2.39-.37,5.41.15,8,0-7.86,4.56-17.3,5.39-26.04,6.96l8.04,5.04c-6.13.86-18.32,7.21-16-4,5.11-3.61,19.48-6.98,26-8Z"/>
      <path class="cls-4" d="M134.38,22.07c-1.82,10.42-3.55,17.57-4,28-7.01,17.6-6.42,30.47.12,47.86,13.11,3.41,28.83-7.23,40.88-6.04,6,.59,5.39,8.2-.45,9.82-4.98,1.38-8.8-1.24-11.66-.84-1.97.27-3.25,3.35-5.03,4.01-3.9,1.46-18.74,4.2-14.98,11.24l77.1,38.98c.84,4.31-2.03,3.08-5.05,3.07-12.58-.05-31.8-14.56-42.93-20.09-13.87-4.49-23.41-14.49-37.99-15.99-.63.69,2.07,13.67,2.85,15.12,1.88,7.07,50.56,70.21,36.16,68.85-7-2.76-6.62-14.69-13.03-17.98-8.46-9.55-13.49-21.24-20-32,1.39-8.31-6.58-14.89-12-20-1.31-10.97-13.41-8.42-20.47-10.53-3.16-.95-5.35-4.2-8.93-5.05-13.85-2.97-31.5,4.43-44.6,7.58-8.49,1.19-18.19-1.29-26,6-1.26.21-2.72-.18-4,0l-8.04-5.04c9.63-.88,19.11-4.2,28.04-6.97,2.21-.1,4.98.62,6-2,12.55-.78,36.79-4.29,46-10,3.55-2.34,9.56-.7,4.1-9.1-5.59-8.59-21.85-8.39-22.06-11.9-.41-7.03,20.16,4.88,21.93-2.12-1.65-11.76-12.27-17.91-11.96-30.87l10.83,10.15,11.18,27.83c15.42-4.54,12.35-25.2,13.98-38,0,0,2-8,2-8,.21-1.26-.2-2.74,0-4l2-6c.23-1.24-.26-2.81,0-4,.47-1.43,2.42-6.51,2-8,0,0,2-8,2-8-.23-3.4,2.86-8.67,5.98-10-.21,4.62.37,9.39.02,14Z"/>
      <path class="cls-4" d="M218.37,80.08c5.31,5.52-6.67,7.14-8.4,8.16-2.01,1.18-1.61,3.7-5.9,4.62-5.16,1.1-17.43-.15-21.68-3.79l35.98-8.98Z"/>
      <path class="cls-5" d="M168.38,138.07l-6-2c.83.42,3.18.6,6,2Z"/>
      <path class="cls-5" d="M144.38,126.07l-6-2c2.77.76,3.26.84,6,2Z"/>
      <path class="cls-5" d="M92.38,110.07c-8.46,5.56-32.13,8.7-44,10,13.55-7.24,29.57-5.7,44-10Z"/>
      <path class="cls-5" d="M124.38,136.07c-1.18-.75-9.45-4.59-9.99-3.99l-2.16,36.87c-2.19,8.5-6.41,17.46-3.69,25.96-.24,2.25-6.73.37-7.87,4.31-.4,1.39,2.32,14.28,1.69,14.84l-9.97.02,9.98-80.01c-14.26-3.51-46.8,43.93-61.94,53.05-34.15,16.15,46.34-56.71,49.64-60.36l-.7-4.7c-8.04,1.02-17.16,1.05-24.99,2.01,12.41-3.8,29.03-7.66,39.53,1.47,7.06,2.11,19.16-.44,20.47,10.53Z"/>
      <path class="cls-5" d="M136.38,156.07c-3.52-6.07-8.82-11.25-10-18,5.15,4.31,11.21,10.89,10,18Z"/>
      <path class="cls-2" d="M128.38,16.07l7.99-11.99-1.99,17.99c.35-4.61-.23-9.38-.02-14-2.74.82-4.92,5.53-5.98,8Z"/>
      <path class="cls-2" d="M130.38,48.07c.58-5.38,1.46-11.25,2-16-.63,5.01,2,12.55-2,16Z"/>
      <path class="cls-2" d="M120.38,56.07c.53-3.5,1.76-6.51,2-8l-2,8Z"/>
      <path class="cls-2" d="M126.38,26.07c.77-2.82.53-4.02,2-8l-2,8Z"/>
      <path class="cls-2" d="M124.38,34.07c.66-3.04,1.68-4.78,2-6l-2,6Z"/>
      <path class="cls-2" d="M122.38,44.07c.53-3.25,1.94-5.69,2-6l-2,6Z"/>
      <path class="cls-5" d="M46.38,120.07c-1.02,2.62-3.79,1.9-6,2,1.03-2.66,3.8-1.85,6-2Z"/>
      <path class="cls-5" d="M48.38,128.07c-7.17,3.22-16.22,4.72-24,6,7.14-7.05,16.34-4.61,24-6Z"/>
      <path class="cls-5" d="M58.38,126.07l-8,2c1.57-.26,4.4-1.48,8-2Z"/>
      <path class="cls-5" d="M154.38,186.07c-2.79-.98-3.98-3.07-4-6,1.1,1.68,2.85,4.35,4,6Z"/>
    </g>
  </g>
</svg>