<?xml version="1.0" encoding="UTF-8"?>
<svg id="Calque_2" data-name="Calque 2" xmlns="http://www.w3.org/2000/svg" viewBox="0 0 254.3 241.98">
  <defs>
    <style>
      .cls-1 {
        fill: #b6dbe7;
      }

      .cls-2 {
        fill: #d1edf1;
      }

      .cls-3 {
        fill: #f1fbfb;
      }

      .cls-4 {
        fill: #eefbfa;
      }

      .cls-5 {
        fill: #f0fafb;
      }

      .cls-6 {
        fill: #e2f9fb;
      }

      .cls-7 {
        fill: #a3d5e6;
      }

      .cls-8 {
        fill: #f3fbfb;
      }

      .cls-9 {
        fill: #f2fbfc;
      }
    </style>
  </defs>
  <g id="Calque_1-2" data-name="Calque 1">
    <g>
      <path class="cls-1" d="M140.38,238.9c-25.47,9.41-71.85-4.56-96.38-17.8-10.06-7.16-18.64-32.91-24.41-43.67C-13.14,142.88-1.5,83.65,29.79,51.17c12.94-12.96,57.75-41.48,75-47,55.61-17.27,104.39,22.16,136.75,63.41,9.36,15.17,13.95,36.06,12.51,53.79-5.78,43.12-65.21,120.03-113.65,117.54ZM215.86,70.24c4.01-2.1,1.39-6.49.42-9.41-4.61-13.88-12.68-20.55-26.42-24.62l5.96-6.97C167.69,4.97,127.98-1.24,93.88,14.27c-1.07,2.71,8.14,1.86,3.99,5.96-.63.62-13.66,2.05-17.42,3.6-6.24,2.57-24.32,16.91-21.59,24.41,2.45-4.1,8.09-3.22,10.88-5.11,5.46-3.69,2.42-4.5,12.13-8.88,2.37,8.92-9.83,4.61-9.89,14.88l1.89,1.12c-8.69,8.5-16.74,23.01-23.99,33.01l9.99.99c-2.29,4.06-15.57,29.66-15.94,31.41-.67,3.12-1.97,19.77-1.22,22.6,5.24,19.73,38.76,46.04,57.16,53.99l-1.96.99,3.96,5.01c-25.59.84-7.44-14.06-23.99-8l-.02-6.02c-12.72,2.62-22.09-16.72-31.02-23.96-5.14-2.07-2.43,6.48-1.98,8,2.96,10.14,10.42,19.99,17.01,27.99-1.24-.35-13.25-.59-14,.02l2,3.98-17.97-9.04c27.37,55.1,128.14,57.71,165.97,13.06-3.47-.21-6.76,1.03-10,1.98-5.15-9.32,7.46-3.51,8-4.01.56-.53-4.97-9.21,4-12.99-2.12-5.98-16.04,12.43-21.3,14.74-1.8,1.12-9.15,5.62-10.22,6.12-2.01.94-5.41-.21-9.57,2.05-2.6,1.41-5.25,5.23,1.1,4.1-5.05,1.33-10.88,3.31-16,4,.87-7.03-2.24-2.53-5.27-2.78-4.25-.35-8.42-1.5-12.73-1.23,2.38-11.84,9.32-3.05,14-9.96-6.79-1.81-14.24,1.76-20,1.98l2.01-3.98c-3.63.98-5.49-1.02-8.01-2.02h10.02s-.02-4-.02-4c4.82.35,13.52.69,18,0l-11.99,3.98,15.98.04-3.98,3.96c20.26,7.29,28.96-9.88,45.91-15.06,5.19-3.21,7.34-11.13,16.08-8.92-.91,1.5-4.36,8.2.97,5.98,7.58-3.15,22.3-24.46,23.02-33.34.34-4.17-2-6.29-1.99-6.64.2-6.08.79-14.36,8-12-.07,5.32.03,10.68.02,16,20.53-25.51,16.7-73.34-10-94,.83,11.74,9.85,22.01,7.98,34-4.51-8.48-10.14-14.54-16-22ZM63.86,32.26s-25.05,17.93-25.05,17.93c-28.41,27.66-48.18,79.37-21.94,114.04-4.21-40.32,12.89-82.6,32.92-116.55.89-1.31,15.38-14.22,14.07-15.42ZM49.85,194.23l-8.85-14.17-15.12-59.81c-3.82,27.89-7.97,62.03,23.97,73.98Z"/>
      <path class="cls-7" d="M81.86,34.24c17.69-7.26,33.85-14.46,53.15-10.63,2.8-.45,3.68-9.42,9.33-7.07,8.95,6.38,34.76,6.9,41.48,12.74,1.88,1.63,2.59,2.22,2.02,4.96-.45.53-15.35-11.06-11.96-3.03,1.75,4.16,17.22,11.92,21.31,15.71,5.63,5.22,13.5,16.73,18.68,23.32,21.53,21.7,18.6,38.16,18,66-7.21-2.36-7.8,5.92-8,12-4.78,4.9-6.55,12.4-10.39,18.61-3.16,5.11-8.58,10.38-11.61,15.39-8.74-2.21-10.89,5.71-16.08,8.92-16.96,5.18-25.63,22.34-45.91,15.06l3.98-3.96-15.98-.04c45.44-5.12,80.47-77.36,77.82-118.81-2.79-21.17-28.05-36.97-47.83-39.17-3.73-3.37-14.27-3.37-18,0-8.76.78-25.34,6.51-32,12l-2-2c1.32-1.36,2.72-2.67,4-4,6.64,1.14,10.59-6.21,15.47-7.53,10.46-2.83,5.79,1.05,15.18-5.94.93-.69,10.77-1.01,4.12-4.51-17.47-9.2-58.98,4.49-72.77,17.98l-1.89-1.12c.06-10.28,12.26-5.97,9.89-14.88ZM190.6,179c19.61-17.65,32.91-55.33,29.36-81.86-.86-6.45-7.41-14.79-8.11-3.94-2.26,37.88-19.85,74.42-47.98,100.05,10.36.72,20-8.19,26.73-14.25Z"/>
      <path class="cls-3" d="M81.86,34.24c-9.71,4.38-6.66,5.2-12.13,8.88-2.8,1.89-8.43,1.01-10.88,5.11-2.73-7.5,15.36-21.84,21.59-24.41,3.76-1.55,16.78-2.98,17.42-3.6,4.15-4.1-5.06-3.24-3.99-5.96,34.1-15.5,73.82-9.3,101.95,14.98l-5.96,6.97c13.74,4.07,21.81,10.74,26.42,24.62.97,2.92,3.59,7.31-.42,9.41-5.17-6.59-13.05-18.09-18.68-23.32-4.08-3.79-19.55-11.55-21.31-15.71-3.39-8.03,11.51,3.56,11.96,3.03.57-2.74-.14-3.32-2.02-4.96-6.72-5.84-32.52-6.36-41.48-12.74-5.65-2.35-6.54,6.63-9.33,7.08-19.33-3.84-35.41,3.37-53.15,10.62Z"/>
      <path class="cls-3" d="M63.86,32.26c1.31,1.19-13.18,14.11-14.07,15.42C29.76,81.64,12.66,123.91,16.87,164.23c-26.24-34.68-6.47-86.36,21.94-114.04,0,0,25.05-17.93,25.05-17.93Z"/>
      <path class="cls-2" d="M73.86,50.24c33.06-30.33,94.19-19.43,68.65-13.46-9.38,6.98-4.72,3.1-15.18,5.93-4.88,1.32-8.83,8.67-15.47,7.53,1.03-1.07,7.14-3.4,3.99-5.99-5.3-4.35-40.78,20.31-45.99,25.99l-3-3.96c-.66.58-2.33,2.31-2.96,2.96l3.96,3c-.92,1.08-2.36,5.48-4,8v-5.99s-4,0-4,0l4,5.98c-1.31,2.01-3.77,3.59-4,4l-9.99-.99c7.25-10,15.3-24.51,23.99-33.01Z"/>
      <path class="cls-7" d="M61.86,196.24c24.04,6.74,28.79,13.12,58,12,5.76-.22,13.21-3.79,20-1.98-4.68,6.91-11.62-1.88-14,9.96,4.32-.27,8.48.88,12.73,1.23,3.03.25,6.14-4.24,5.27,2.78-34.18,3.78-72.63,1.82-96-23.98.75-.61,12.76-.37,14-.02Z"/>
      <path class="cls-5" d="M61.86,196.24c-6.6-7.99-14.05-17.85-17.01-27.99-.44-1.51-3.15-10.07,1.98-8,8.92,7.24,18.3,26.58,31.02,23.96l.02,6.02c12.78-4.3,5.01,1.5,11.11,5.87,4.28,3.07,9.23,1.24,12.89,2.12,4.46,1.08,7.74,2.31,12,4,2.52,1,4.38,3,8.01,2.02l-2.01,3.98c-29.21,1.12-33.96-5.26-58-12Z"/>
      <path class="cls-9" d="M231.86,92.24c1.86-12-7.15-22.25-7.98-34,26.7,20.65,30.53,68.49,10,94-.62-22.18,2.12-37.42-2.02-60Z"/>
      <path class="cls-4" d="M49.85,194.23c-31.94-11.94-27.79-46.09-23.97-73.98l15.12,59.81,8.85,14.17Z"/>
      <path class="cls-6" d="M225.86,148.24c12,10.73-32.46,57.63-22,34,3.03-5.01,8.46-10.27,11.61-15.39,3.83-6.21,5.6-13.71,10.39-18.61Z"/>
      <path class="cls-7" d="M159.86,216.24c-6.36,1.12-3.7-2.69-1.1-4.1,4.16-2.26,7.56-1.11,9.57-2.05,1.08-.5,8.42-5,10.22-6.12,5.33-2.34,19.09-20.67,21.3-14.74-8.97,3.78-3.43,12.47-4,12.99-.53.5-13.14-5.3-8,4.01-10.14,2.97-17.24,7.16-28,10Z"/>
      <path class="cls-7" d="M123.86,198.24l.02,4h-10.02c-4.26-1.68-7.54-2.92-12-4l-3.96-5.01,1.96-.99c8.92,3.86,14.32,5.29,24,6Z"/>
      <path class="cls-2" d="M109.86,56.24c-4.02,3.31-6.45,11.69-11.98,14-1.92-9.31,5.31-11.18,9.98-16l2,2Z"/>
      <path class="cls-2" d="M159.86,44.24c-4.89-.54-13.03-.44-18,0,3.73-3.37,14.27-3.37,18,0Z"/>
      <path class="cls-1" d="M69.86,70.24c-.63.69-1.38,1.26-2,2l-3.96-3c.64-.66,2.29-2.38,2.96-2.96l3,3.96Z"/>
      <path class="cls-8" d="M190.6,179c-6.73,6.06-16.37,14.97-26.73,14.25,28.14-25.64,45.71-62.16,47.98-100.05.7-10.85,7.25-2.51,8.11,3.94,3.55,26.53-9.75,64.21-29.36,81.86Z"/>
      <polygon class="cls-1" points="63.86 80.24 59.86 74.26 63.85 74.25 63.86 80.24"/>
    </g>
  </g>
</svg>