<?xml version="1.0" encoding="UTF-8"?>
<svg id="Calque_2" data-name="Calque 2" xmlns="http://www.w3.org/2000/svg" viewBox="0 0 247.71 236.21">
  <defs>
    <style>
      .cls-1 {
        fill: #fbf9c7;
      }

      .cls-2 {
        fill: #fbf8be;
      }

      .cls-3 {
        fill: #f2eea8;
      }

      .cls-4 {
        fill: #fcfceb;
      }

      .cls-5 {
        fill: #f1ec91;
      }

      .cls-6 {
        fill: #fbfbdb;
      }

      .cls-7 {
        fill: #f3efad;
      }

      .cls-8 {
        fill: #f5f1af;
      }

      .cls-9 {
        fill: #fcfbe2;
      }

      .cls-10 {
        fill: #f2ea73;
      }

      .cls-11 {
        fill: #f1ed9f;
      }

      .cls-12 {
        fill: #f0ec84;
      }

      .cls-13 {
        fill: #f6f3ac;
      }

      .cls-14 {
        fill: #fbfad3;
      }

      .cls-15 {
        fill: #f5f0aa;
      }
    </style>
  </defs>
  <g id="Calque_1-2" data-name="Calque 1">
    <g>
      <path class="cls-12" d="M16.83,71.83c1.24-2.56,12.61-21.3,15.99-17.99,2.08,2.03-6.15,8.77-7.53,11.45-2.43,4.71-2.31,11.35-6.44,15.56,3.55,3.66,4.36-1.23,5.98-3.02,4.98,6.99-3.15,17.7-1.96,22.89.92,4,6.31.78,7.96,1.97,6.77,4.89.68,19.96,2,27.14-.09-.43-1.52-1.46-1.87-3.15-.29-1.38-.4-21.44-5.17-12.89-2.35,4.23.05,21.29,1.28,26.79,3.57,16.59,16.84,34.53,7.75,3.25l9.99,1.99c1.45-1.44-3.71-18.3-3.99-21.99,6.83-1.58,4.53,14.81,6.14,20.88,3.35,7.09,7.04,10.63,9.76,18.14,2.19,3.16,8.88,7.28,10.08,10.02,2.84,6.49-10.78-2.55-7.97,3.95,6.74,11.55,48.71,33.34,57.99,19.05l-6-4.01c9.7.6,16.95.11,25.99-2.01,5.48-1.29,10.9-3.6,16-6,12.62-1.82,1.59,8.47-2.08,10.92-1.58,1.06-20.26,7.53-15.91,11.07,28.34-1.14,43.19-19.29,59-39.98l-3.01,13.97c5.85,4.26,13.71-20.04,16.4-21.71,1.08-.67,3.69,1.18,4.53.83,3.02-1.23,6.67-7.93,9.06-3.1-.82,1.87-4.66,4.2-4,8-3.67,1.04-4.34,4.51-4,8-3.98,1.23-4.24,5.89-6,8-5.78,6.95-18.47,15.74-22.7,23.99-.8,1.56.86,4.61-.19,6-2.03,2.67-9.87,2.37-11.11,8.01-13.26,5.69-21.9,8.48-36,12-9.62-2.72-29.42,6.63-36.58,2.11-1.77-1.12-1.76-4.37-4.79-5.66-1.44-.61-14.04-2.9-14.63-2.45-25.97-13.46-48.92-31.78-58.58-60.42-4.49-13.32-3.68-28.94-10.45-41.56-4.85-.95-2.84,3.89-2.97,6.96-.52,12.64-1.18,29.04,2,41.02-.98,10.69-5.75-.49-8-6-8.57-20.95,4.12-71.56,14-92ZM114.83,215.81l-55.99-21.97c-4.22,3.84,19.09,17.9,22.01,18.97,11.12,4.1,22.36,3.01,33.98,3Z"/>
      <path class="cls-5" d="M70.83,17.83c12.74-6.67,37.73-24,51-14.72,12.68-6.73,23.11-1.02,32.36,2.68,4.54,1.04,10.12-.96,15.21.46,22.93,19.11,48.44,22.31,63.42,51.57,0,0,0,6.01,0,6.01h-4c-5.22-7.86-24.47-32.61-33.99-31.99l27.99,43.99-5.98,6-6-10c3.41,26.4,12.93,51.07,3.96,78-7.85,8.31,1.66-26.18-5.96-18.01-1.13,1.21-8.04,34.13-12,30l-6.02-8c30.88-47.65-12.74-121.95-70.83-110.1-2.48.57-.68,3.34-1.17,4.1-3.24,5.01-12.62,1.99-20,2l10.04-2.96c3.11-1.62.54-4.65-1.11-5.02-4.17-.94-25.9,5.08-26.92,3.98,1.48-22.43,3.53-5,12.04-6.74,6.66-1.91,5.98-10.83,11.99-14.3,4.09,1.35,9.48-.92,11.96-.95.21,1.04-.62,2.87.22,3.72,1.09,1.11,24.5,4.66,30.33,6.73,9.55,3.37,18.44,10.14,27.73,14.27l27.71,27.27c-1.39-8.93-13.45-24.66-19.98-31-5.49-4.86-12.48-5.12-14.33-12.79-1.09-.66-4.84,1.62-7.76.97-16.33-3.65-24.19-9.39-43.91-9.17-1.08-5.34,2.4-6.75-6.96-6.87-14.26-.18-25.79,10.11-41.04,4.87.81-.83,1.21-2.89,2-4Z"/>
      <path class="cls-3" d="M172.83,217.83c1.24-5.64,9.08-5.34,11.11-8.01,1.06-1.39-.61-4.44.19-6,4.23-8.25,16.92-17.04,22.7-23.99-.62,5.68,1.23,4.92,5.03,2.03,31.01-23.57,32.97-85.59,16.97-118.03h4s0-6,0-6c35.12,62.58,5.26,134.18-60,160Z"/>
      <path class="cls-7" d="M2.83,163.83c2.25,5.51,7.02,16.69,8,6,7.85,29.27,39.24,55.39,68.76,58.13,1.96-.35,1.07-4,1.24-4.13.59-.45,13.19,1.83,14.63,2.45,3.03,1.29,3.02,4.54,4.79,5.66,7.16,4.52,26.96-4.83,36.58-2.11-61.87,17.31-119.28.69-134-66Z"/>
      <path class="cls-13" d="M70.83,17.83c-2.37,8.04-19.6,14.76-22.21,18.9-3.18,4.82.63,7.46-.75,11.03-1.57,4.04-18.94,25.54-23.04,30.07-1.62,1.79-2.43,6.68-5.98,3.02,4.13-4.21,4.01-10.85,6.44-15.56,1.38-2.67,9.61-9.41,7.53-11.45-3.38-3.31-14.75,15.43-15.99,17.99,6.09-25.31,33.3-41.3,54-54Z"/>
      <path class="cls-10" d="M68.83,21.83c15.25,5.24,26.77-5.05,41.04-4.87,9.37.12,5.89,1.53,6.96,6.87-2.48.03-7.86,2.3-11.96.95-6.01,3.46-5.33,12.39-11.99,14.3-8.51,1.74-10.56-15.68-12.04,6.75,1.02,1.1,22.75-4.92,26.92-3.98,1.65.37,4.22,3.41,1.11,5.02,0,0-10.04,2.96-10.04,2.96-9,.25-15.63-1.32-24,2-27.48,17.76-37.9,39.31-34,72,.28,3.69,5.44,20.55,3.99,21.99l-9.99-1.99c-.85-4.33-1.06-9.44-2-14-1.32-7.18,4.76-22.24-2-27.14-1.64-1.19-7.04,2.03-7.96-1.97-1.19-5.19,6.94-15.9,1.96-22.89,4.1-4.53,21.47-26.03,23.04-30.07,1.39-3.57-2.43-6.21.75-11.03,1.86-2.81,15.43-10.06,20.21-14.9Z"/>
      <path class="cls-15" d="M190.83,153.83s6.02,8,6.02,8c3.96,4.13,10.87-28.8,12-30,7.62-8.17-1.9,26.32,5.96,18.01,8.97-26.97-.55-51.57-3.96-78l6,10,5.98-6c12.42,27.44,9.79,53.11-2,80-2.39-4.83-6.05,1.87-9.06,3.1-.85.34-3.45-1.51-4.53-.83-2.69,1.68-10.55,25.98-16.4,21.71l3.01-13.97c-15.81,20.69-30.66,38.84-59,39.98-4.35-3.54,14.32-10.02,15.91-11.07,3.67-2.45,14.7-12.74,2.08-10.92,2.89-1.36,8.94-3.33,10-4-2.56,2.72-1.89,5.67,2.14,5.21,3.52,2.01,36.85-30.48,21.86-27.21,1.18-1.41,3.76-3.63,4-4Z"/>
      <path class="cls-4" d="M80.83,223.83c-.17.13.72,3.78-1.24,4.13-3.54.63-25.83-7.4-30.16-9.74-32.32-18.63-45.3-53.33-40.6-89.41.12-3.07-1.88-7.92,2.97-6.96,6.77,12.61,5.96,28.23,10.45,41.56,9.66,28.65,32.6,46.97,58.58,60.42Z"/>
      <path class="cls-9" d="M228.83,63.83c16,32.44,14.04,94.46-16.97,118.03-3.8,2.89-5.65,3.65-5.03-2.03,1.76-2.11,2.02-6.77,6-8l4-8c28.64-56.31,10.55-84.1-21.99-131.99,9.58-.56,28.72,24.08,33.99,31.99Z"/>
      <path class="cls-11" d="M118.83,47.83c5.56,4.09,7.97,13.52,7.98,20-6.42-2.59-5.27-10.33-11.19-13.78-35.49-13.4-73.82,63.73-66.79,93.78-5.25-4.81.29-25.44-8-24-1.31-17.21-1.01-35.94,10-50,.67,10.99-12.28,22.4-7.01,33.99,7.36-6.76,9.24-17.98,14.14-25.86,6.53-10.49,16.69-15.39,21.86-26.16l-6.99-1.98c.72-.4,1.33-1.74,2-2,8.53-2.53,7.2,3.87,12.92,5.95l9.08-7.95c7.46-.5,18.49,3.4,22-2Z"/>
      <path class="cls-8" d="M136.83,189.83c-9.04,2.12-16.29,2.61-25.99,2.01l6,4.01c-9.24,14.3-51.29-7.51-57.99-19.05-2.82-6.49,10.8,2.55,7.97-3.95-2.37-3.94-11.88-9.24-11.98-15.03,22.3,24.86,48.33,34.78,82,32Z"/>
      <path class="cls-14" d="M114.83,215.81c-11.62.02-22.86,1.11-33.98-3-2.92-1.08-26.23-15.13-22.01-18.97l55.99,21.97Z"/>
      <path class="cls-2" d="M32.83,129.83c.94,4.56,1.15,9.67,2,14,.45,2.29,7.13,21.97.04,15.98-1.86-1.57-7-15.7-7.79-19.23-1.23-5.49-3.63-22.56-1.28-26.79,4.76-8.56,4.88,11.5,5.17,12.89.35,1.68,1.78,2.72,1.87,3.15Z"/>
      <path class="cls-15" d="M212.83,171.83c-.34-3.49.33-6.96,4-8l-4,8Z"/>
      <path class="cls-1" d="M116.83,23.83c19.72-.23,27.59,5.52,43.91,9.17,2.92.65,6.68-1.62,7.76-.96,1.86,7.68,8.84,7.92,14.33,12.79,6.53,6.34,18.59,22.07,19.98,31l-27.71-27.27c-9.29-4.13-18.18-10.9-27.73-14.27-5.83-2.06-29.24-5.62-30.33-6.73-.84-.85,0-2.68-.22-3.72Z"/>
      <path class="cls-12" d="M186.83,157.83c14.98-3.28-18.28,29.19-21.86,27.21-4.03.46-4.7-2.48-2.14-5.21,4.13-2.61,20.62-17.98,24-22Z"/>
      <path class="cls-6" d="M72.83,53.83l6.99,1.98c-5.17,10.77-15.33,15.67-21.86,26.16-4.9,7.88-6.78,19.1-14.14,25.86-3.76-9.46,2.66-19.12,6.45-27.64,1.04-2.34.18-5.58.56-6.35,3.06-6.11,15.75-16.47,22-20Z"/>
      <path class="cls-5" d="M96.83,49.83l-9.08,7.95c-5.72-2.08-4.39-8.48-12.92-5.95,7.93-3.11,13.46-1.89,22-2Z"/>
    </g>
  </g>
</svg>