<?xml version="1.0" encoding="UTF-8"?>
<svg id="Calque_2" data-name="Calque 2" xmlns="http://www.w3.org/2000/svg" viewBox="0 0 268.68 252.35">
  <defs>
    <style>
      .cls-1 {
        fill: #e6a15f;
      }

      .cls-2 {
        fill: #e19956;
      }

      .cls-3 {
        fill: #faf1da;
      }

      .cls-4 {
        fill: #edcda7;
      }

      .cls-5 {
        fill: #eecba4;
      }

      .cls-6 {
        fill: #edc79a;
      }

      .cls-7 {
        fill: #ecc89f;
      }

      .cls-8 {
        fill: #e7984f;
      }

      .cls-9 {
        fill: #fbebcd;
      }

      .cls-10 {
        fill: #f1d2ac;
      }

      .cls-11 {
        fill: #edc69c;
      }

      .cls-12 {
        fill: #edcca7;
      }

      .cls-13 {
        fill: #eac59d;
      }

      .cls-14 {
        fill: #efd0a9;
      }
    </style>
  </defs>
  <g id="Calque_1-2" data-name="Calque 1">
    <g>
      <path class="cls-1" d="M76.32,111.93c19.3-19.59,72.01-101.86,102-84,.93,20.74-12.98,12.34-6,22-11,11.5-18.81,20.83-30,30-5.91,4.37-15.83,3.91-10,14-20.5,25.94-37.89,49.29-46.46,82.54-.69,2.66-3.77,3.83,1.44,3.44,29.12-20.77,87.87-131.7,125.03-103.98,2.38,9.84-11.27,16.69-2.01,18.99-10.29,2.97-6.81,7.28-11,13.01-2.13,2.92-6.9,4.09-8,6-.91,1.58-3.72,14.69-3,18-2.68,2.44-9.43,5.91-9.75,6.4-.64.98,1.38,3.73.57,5.6-3.06,7.12-19.29,23.21-23.62,29.9-1.16,1.79-4.47,14.95-5.19,18.1,4.01,4.57,23.18-24.24,24.91-26.07,6.64-7.05,15.82-15.21,23.08-21.92,11.98,1.99,9.7-17.29,22.94-8.84,3.11-.31,8.14-5.89,14.52-.65,5.02,4.12-.41,8.26-.79,10.81-.34,2.35,1.45,4.72.82,7.11-3.13,11.72-12.78,15.43-13.52,27.55l-7.98-3.97,4,5.96c-4.02-.59-10.55,3.6-11.98,7.05-1.57,3.79,8.28,3.13,3.97,6.96-.59.52-10.33-5.01-9.72,2.68,1.54,19.32,23.16-3.42,27.73-6.67,2.64-1.88,19.71-13.39,21.22-13.45,3.07-.12,18.66,7.64,18.93,8.65,1.97,7.16-11.63,38.12-15.86,46.22-.1.7,5.81,10.85,6.9,12.46,1.39,2.06,5.26,1.77,4.79,3.11-2.65,7.52-15.84.89-19.99-2.99v-2c1.73,2.75,8.37,4.06,9.99,1.99,2.14-2.74-4.95-6.62-5.7-9.42-2.41-9.02,6.56-15.88,9.19-22.09,2.97-7.01,2.07-14.83,8.64-21.52-5.03-10.09-19.01-12.12-28.1-3.93l2.98,4.93c13.02-10.65,14.61,2.24,7.01,6.05-7.93-8.76-15.79,3.03-22.29,8.81-5.62,5-5.99,6.48-10.71,11.2-16.95,16.94-28.32,5.15-25-16.01,7.78-18.24,16.33-29.66,26-46,2.63-4.44,6.12-8.32,5.99-13.99-.51-.5-12.78,3.96-13.46,4.51-2.3,1.88-3.04,9.67-4.99,11.02-2.34,1.63-7.97.05-11.05,3.1-6.89,11.69-4.28,20.92-20.48,17.36-3.6,3.92,3.46,3.98,3.65,4.25,1.88,2.62-2.82,5.52-3.66,7.75-4.67,8.94-17.16-.6-12.37,11.7-.46.86-14.19,10.5-16.01,10.97-12.33,2.07-19.53-7.17-13.41-19.07,1.77-4.62,4.49-14.95,4.87-15.73,1.23-2.55,5.4-2.89,7.02-5.29,2.19-3.23,2.26-9.48,4.38-13.1,2.2-7.58,77.45-94.31,44.18-78.76-8.09,5.33-16.51,10.35-23.59,17.29-1.63,1.6-4.73,1.74-5.06,2.02-2.42,2.07,7.15,1.27,3.97,5.98-7.66-4.74-5.99,10.39-15.99,8.01,3.76,12.85-.13,5.58-3.47,8.39-.74.62-3.56,9.46-6.44,12.24-1.96,1.89-5.04.95-5.67,1.66-1.19,1.35.16,5.53-1.36,7.75-.89,1.3-10.93,7.31-13.04,3.95,5.25,15.78-.45,9.67-3.49,12.4-1.09.98-.64,4.58-2.5,6.55s-5.81,2.15-7.95,4.11c-4.23,3.87-9.51,18.53-18.06,14.9l-.06,5.98-15.96-1.95c-7.97-17.67,11.59-44.69,18-62,11.05,4.31,2.88-.78,4.99-5.88,2.95-7.16,22.27-32.65,28.18-39.96,2.47-5.25,48.24-43.56,30.87-40.13-8.44,19.66-20.97-2.88-20.97,19.97-2.25,3.25-6.17-.84-7.05,0-.68.64,1.85,4.21,1,6.1-1.55,3.46-8.84,3.84-11.29,6.79-2.08,2.5.12,5.69-.87,7.18-2.4,3.62-3.11,5.1-4.85,7.92-7.48-.34-17.73,9.55-21.72,15.28-4.59,11.97-.99,7.51-11.46,12.6-.94,1.26,1.86,5.38,1.19,6.01-.5.47-4.25.04-6.11,1.13-3.23,3.22,3.41,5.55-3.9,4.98l-4-6c5.67-.86,10.39-8.65,12-14ZM186.32,169.95h-3.99s0,3.98,0,3.98l3.98-3.98Z"/>
      <path class="cls-2" d="M64.32,125.93l4,6c-11.27,17.59-29.46,29.48-46,42-11.1.67-24.2-11.09-22.1-22.66.39-2.17,5.04-1.78,5.91-4.58C1.83,105.96,68.46,32.75,103.66,12.27,111.23,7.21,120.13.37,129.6,0c7.02-.27,9.91,5.64,3.34,9.54C41.7,31.95-45.14,247.4,64.32,125.93Z"/>
      <path class="cls-4" d="M196.32,91.93c-.66-3.23,2.9-7.45-3.25-4.26-34.38,10.73-84.74,128.22-120.75,104.26l15.96,1.95.06-5.98c8.54,3.64,13.83-11.03,18.06-14.9,2.14-1.96,6.17-2.22,7.95-4.11s1.41-5.58,2.5-6.55c3.04-2.73,8.74,3.38,3.49-12.4,2.11,3.36,12.15-2.65,13.04-3.95,1.52-2.22.17-6.39,1.36-7.75.63-.71,3.71.23,5.67-1.66,2.88-2.78,5.71-11.62,6.44-12.24,3.34-2.81,7.22,4.45,3.47-8.39,9.99,2.41,8.33-12.79,15.99-8.01,3.19-4.7-6.39-3.91-3.97-5.98,7.69-1.1,48.06-41.41,33.98-10.03Z"/>
      <path class="cls-3" d="M194.32,125.93c-.87,3.13-.47,8.37-1.99,11.99,4.94.85,9.36-1.16,13.99-1.99-8.81,10.58-22.04,19.5-31.08,29.92-1.72,1.83-20.9,30.64-24.91,26.07.73-3.15,4.04-16.31,5.19-18.1,4.33-6.69,20.56-22.78,23.62-29.9.8-1.87-1.21-4.62-.57-5.6.32-.49,7.07-3.96,9.75-6.4,2.05-1.87,3.27-4.75,6-6Z"/>
      <path class="cls-9" d="M110.32,91.93c1.75-2.82,2.45-4.31,4.85-7.92.99-1.49-1.22-4.68.87-7.18,2.45-2.94,9.74-3.33,11.29-6.79.85-1.9-1.68-5.46-1-6.1.88-.84,4.8,3.25,7.05,0-.02-22.83,12.58-.34,20.97-19.97,17.4-3.47-28.41,34.9-30.87,40.13-5.91,7.31-25.23,32.79-28.18,39.96-2.1,5.1,6.06,10.19-4.99,5.88,1.64-3.8,3.62-7.57,5.95-11.01l-5.95-2.99c6.99-10.92,15.25-16.34,20-24Z"/>
      <path class="cls-11" d="M110.32,91.93c-3.44,7.28-17.33,15.38-20,26-5.2-.46-9.9,1.48-6,6-16.91,18.5-36.51,46.82-62,50,9.9-7.71,20.44-14.69,29.81-23.19,7.85-7.13,10.34-10.85,16.19-18.81.24-.32,2.56.56,3.52-.28-2.03-6.71,2.73-4.81,6.49-5.83.66-.63-2.13-4.74-1.19-6.01,1.33-1.79,6.03-1.51,8.14-3.92,1.64-1.88,1.59-6.2,3.32-8.68,4-5.73,14.24-15.62,21.72-15.28Z"/>
      <path class="cls-6" d="M172.32,191.93c.85-2.23,5.54-5.13,3.66-7.75-.19-.26-7.25-.32-3.65-4.25,16.23,3.55,13.58-5.67,20.48-17.36,3.08-3.06,8.71-1.48,11.05-3.1,1.95-1.36,2.69-9.15,4.99-11.02.68-.56,12.95-5.01,13.46-4.51.13,5.67-3.36,9.55-5.99,13.99l-3.96-7.98c-2.84,11.32-14,16.85-21.34,24.69-5.64,6.02-11.3,11.85-16.7,17.3h-2Z"/>
      <path class="cls-12" d="M212.32,75.93c1.45.47,4.18-.36,6,0-2.61,27.85-17.11,29.18-24,49.99-2.73,1.25-3.95,4.13-6,6-.72-3.32,2.08-16.42,3-18,1.1-1.91,5.87-3.09,8-6,4.19-5.72.71-10.03,11-13.01-9.27-2.3,4.39-9.15,2.01-18.99Z"/>
      <path class="cls-14" d="M248.32,199.93c-6.04,13.99-12.39,29.87-4,44v2c-12.79-11.94-3.21-27.72-2.02-42-12.52,5.24-25.14,25.28-38.97,26.16-6.99.45-15.72-3.11-18.21-10-2.06-5.68,1.86-3.44,2.55-4.55.33-.53.4-6.34,2.65-11.61-3.32,21.16,8.06,32.95,25,16.01,6.98-5.85,23.93-31.65,33-20.01Z"/>
      <path class="cls-7" d="M212.32,133.93c9.72-8.7,28.96-6.7,29.61,7.34.05.99-5.42,16.56-6.47,18.8-4.95,10.58-15.02,20.17-20.47,28.51-.93,1.42-7.77,15.68-1.71,13.33,4.25-1.65,9.18-9.61,15.03-9.98-4.57,3.25-26.19,25.98-27.73,6.67-.61-7.69,9.13-2.15,9.72-2.68,4.31-3.84-5.54-3.18-3.97-6.96,1.43-3.46,7.96-7.64,11.98-7.05l-4-5.96,7.98,3.97c.36-13.73,17.06-19.97,12.7-34.66.37-2.55,5.8-6.69.79-10.81-6.38-5.24-11.4.34-14.52.65-1.22.12-5.35-4.22-8.94-1.16Z"/>
      <path class="cls-13" d="M174.32,191.93c0,6.26-20.35,19.82-25.41,26.02-5.82.7-9.97-.9-14.59-4.02,3.19.28,6.37,1.5,9.62.67,1.82-.47,15.55-10.11,16.01-10.97.5-.92-3.01-4.31.37-6.77,1.33-.97,9.72.78,12-4.93h2Z"/>
      <path class="cls-5" d="M172.32,49.93c-6.99-9.68,6.91-1.21,6-22,8.1,10.24.6,13.9-6,22Z"/>
      <path class="cls-10" d="M142.32,79.93c-2.81,4.84-6.55,9.64-10,14-5.83-10.09,4.09-9.63,10-14Z"/>
      <path class="cls-11" d="M64.32,125.93c3.99-4.36,8.01-9.44,12-14-1.61,5.35-6.33,13.14-12,14Z"/>
      <path class="cls-7" d="M210.32,135.93c-3.41,2.95-4.79,9.44-12,8,2.77-2.56,6.31-4.39,8-8,1.23-.22,2.71.15,4,0Z"/>
      <path class="cls-9" d="M90.32,117.93c-2.34,3.61-4.33,4.06-6,6-3.9-4.52.8-6.46,6-6Z"/>
      <path class="cls-8" d="M248.32,199.93c7.61-3.81,6-16.7-7.01-6.05l-2.98-4.93c9.09-8.18,23.07-6.16,28.1,3.93-6.57,6.69-5.67,14.5-8.64,21.52-2.63,6.21-11.6,13.06-9.19,22.09.75,2.8,7.84,6.69,5.7,9.42-1.62,2.07-8.26.76-9.99-1.99-8.39-14.13-2.04-30.01,4-44Z"/>
      <polygon class="cls-6" points="186.32 169.95 182.34 173.93 182.33 169.94 186.32 169.95"/>
    </g>
  </g>
</svg>