<?xml version="1.0" encoding="UTF-8"?>
<svg id="Calque_2" data-name="Calque 2" xmlns="http://www.w3.org/2000/svg" viewBox="0 0 288.97 255.93">
  <defs>
    <style>
      .cls-1 {
        fill: #a3d1e1;
      }
    </style>
  </defs>
  <g id="Calque_1-2" data-name="Calque 1">
    <path class="cls-1" d="M185.31,17.15c22.08,10.97,18.62,14.83,29.35,31.68,19.02,4.7,25.89,2.98,44.16,17.84,5.97,3.88,9.29,1.21,14.73,11.32,6.88,13.22,8.81,29.75,9.48,42.88.12.89,5.43,9.01,5.87,15.92,1,15.68-9.35,46.74-18.19,60.05-10.54,15.87-22.07,16.64-39.53,20.47-8.21,1.8-19.15,1.81-26.03,9.09-1.02,1.08.11,4.37-1.65,5.59-2.13,1.48-7.19.97-8.55,2.07,4.49,9.62-34.81,21.64-41.4,21.86-4.01.04-17.65-5.81-21.23-8.21-5.87-3.95-17.26-18.78-21.36-25.19-2.93-4.58-8.06-21.22-13.5-22.27-4.22-.82-19.22,6.04-20.69,10.54-19.2,5.54-59.68,34.44-73.49,5.41-8.73-21.09,2.03-45.76,8.35-66.41,1.63-4.65,9.79-16.9,8.8-20.79-8.69-6.79-31.67-34.26-13.76-41.22l-3.99-1.99c4.49-10.28,21.28-5.26,25.06-14.06,2.06-4.8-.87-7.37-.53-10.71,1.05-10.28,11.58-25.5,18.26-33.42,3.25-6.43,1.37-9.49,9.2-5.78.58-.84-.94-5.22.42-7.61.37-.65,9.77-8.97,11.06-9.92,18.91-13.24,41.46,7.95,57.68,11.51,6.26.63,15.05-3.5,21.87-3.96,6.17-.42,31.2-.91,35.79.43,2.54.74,2.67,4.16,3.81,4.87ZM114.67,17.85C70.88-.96,76.74,9.41,45.22,34.36l-10.54,33.45c4.44,4.53,37.11-27.03,41.28-29.7,6.24-4,23.78-11.85,30.7-10.27-5.22-8.17,13.1-4.73,8.01-9.98ZM130.68,23.79c9.38,2.6,19.3,18.16,27.52,21.51,5.78,2.36,43.21,5.85,44.48-.52-7.38-24.39-33.75-30.53-56.75-26.7-1.81.19-17.42,2.69-15.25,5.72ZM152.16,46.6c-18.7-4.83-19.64-16.75-32.61-20.81-4.18-.38-33.73,13.99-38.71,17.18-7.3,4.68-16.53,13.99-24.34,19.66-3.41,2.48-19.9,11.6-20.86,13.14-2.35,3.78,2.17,26.66,1.09,35.09-1.56,12.19-11.67,14.84.96,24.95,21.01,16.81,46.16,29.48,62.19,51.84,38.8-16.03,43.14-31.64,63.26,19.69,54.86,15.96,66.2-8.67,73.72-58.53-.04-21.61-13.12-34.9-19.23-52.96-3.18-9.41-4.19-28.34-9.29-36.71-7.52-11.23-45.61,5.07-56.19-12.54ZM226.69,209.81c74.54-10.97,66.8-151.34-10.01-151.98,4.47,10.5,5.92,22.51,9.92,33.06,11.49,30.37,29.57,48.88,17.03,84.88-4.28,12.3-14.3,21.76-16.94,34.04ZM26.67,123.81c1.84-6.95,5.4-36.98.07-41.04-9.34-7.13-22.72,7.38-21.49,15.68.61,4.07,17.49,28.96,21.41,25.36ZM29.68,135.85c-10.95,12.83-25.85,63.61-20.01,79.97,16.22,17.8,68.95-14.69,82.97-25.01-17.13-22.74-43.15-34.78-62.97-54.96ZM200.68,219.84c-13.41.78-39.19-1.2-46.87-14.15-4.95-8.35-2.2-22.62-15.07-25.09s-23.22,9.69-34.02,14.22c27.24,47.67,49.25,78.18,95.96,25.02Z"/>
  </g>
</svg>