<?xml version="1.0" encoding="UTF-8"?>
<svg id="Calque_2" data-name="Calque 2" xmlns="http://www.w3.org/2000/svg" viewBox="0 0 412.77 138.84">
  <defs>
    <style>
      .cls-1 {
        fill: #85c2a0;
      }

      .cls-2 {
        fill: #b6dbc6;
      }

      .cls-3 {
        fill: #9accb0;
      }

      .cls-4 {
        fill: #8ac1a2;
      }

      .cls-5 {
        fill: #a0d0b3;
      }

      .cls-6 {
        fill: #a2ceb5;
      }

      .cls-7 {
        fill: #98caac;
      }

      .cls-8 {
        fill: #4ea575;
      }

      .cls-9 {
        fill: #98caad;
      }

      .cls-10 {
        fill: #83c19d;
      }

      .cls-11 {
        fill: #3e9f6c;
      }

      .cls-12 {
        fill: #afd7c0;
      }

      .cls-13 {
        fill: #96cbae;
      }

      .cls-14 {
        fill: #52a679;
      }
    </style>
  </defs>
  <g id="Calque_1-2" data-name="Calque 1">
    <g>
      <path class="cls-8" d="M378.76,49.05c4.33-8.7,18.05-44.29,22.95-48.19,4.54-3.62,11.86,5.03,10.99,10.94-2.13,6.53-2.28,12.57-9.95,11.26,3.39,22.32-28.79,68.34-37.99,89.99-11.76.61-6.67,8.56-8,10.02-.78.86-11.79-.44-13.52-2.5-2.17-2.58-1.17-10.17-3.02-12.99-11.37-4.68-15.77-27.47-13.45-38.52-9.98,2.23-4.28-5.79-6.19-7.9-.76-.84-5.14.41-5.74-.17-1.56-1.52,2.17-9.71,1.87-12.84-.12-1.23-7.31-18.37-8.16-18.96-6.23-4.28-15.69,16.14-13.79,21.85-1.36,2.6-4.07,9.32-4.46,9.67-1.29,1.14-4.9-.11-5.55.35,4.58,6.61-5.7,16.55-7.98,21.98-8.44,1.04-12.2,17.87-14.01,25.07-1.05,4.19-4.01,1.4,2.01,4.93-3.97,3.67-9.62,9.69-10,16-7.67,6.18-10.96,8.75-10.95-4.03l-5.04.04c.95-11.15-7.05-24.59-12.02-36,2.73-6.88-2.19-16.25-4-24-1.28-5.5-2.06-7.76-3.61-13.41-.83-3.03.38-9.32-.7-10.39-.61-.61-3.78.43-5.16-.7-.72-.59-4.42-10.64-4.9-11-1.4-1.07-15.22-.98-7.11-8.16,2.95-2.61,7.2,4.4,3.48-8.33,6.91-11.28,4.61,3.05,13.05,1.98l-1.08,6c10.32-2.41,5.55,9.83,6.95,15.02,4.66,17.27,13.18,38.73,20.72,52.29,2.43,4.37.86,11.11,5.35,14.67,4.27-.07,11.26-23.64,13.53-28.43,8.34-17.61,18.5-34.72,27.69-51.9.88-1.64,3.79-1.74,3.88-2.92.17-2.24-2.33-5.98-1.98-6.54.47-.75,15.01-8.55,15.72-8.03.26.19-.42,3.23,1.64,3.84,1.86.55,5.29-.6,6.33.18.59.44.91,8.95,4.2,13.83-10.98,6.92.8,5.32,1.65,6.24.9.97.19,5.17,1.43,7.65,1.07,2.14,4.64,3.98,4.92,6.12.15,1.12-1.94.73,0,6,.27.74,1.8,1.42,2,2,1.46,4.24.36,10.81,5.99,15.01l-6.01,1,4.04,13.98c2.3.02,2.89-2.58,3.98-4,4.55,2.28,1.88,6.53,3.07,9.85,1.27,3.52,7.76,6.73,4.89,14.72l8.03,7.44c-.22-11.98,14.11-17.74,10.01-32.02.69-1.32,1.32-2.67,2-4,19.53,10.33,7.96-5.05,8.62-11.05.29-2.61,8.48-5.87,3.38-12.95Z"/>
      <path class="cls-11" d="M76.76,123.05c-6.07-16.63-13.22-32.02-18.99-48.02-3.36-9.32-4.53-19.46-10-27.97-9.16,9.84-36,90.38-42.25,91.73-23.54,2.86,35.57-106.16,41.27-117.72,13.42,8.96,13.13,23.09,18.48,36.47,6.36,15.9,13.32,31.55,19.52,47.5l9.45-15.51c3.26-8.88,6.79-17.82,10.53-26.47,2.38-2.23,8.04-6.61,9.98-.98s-3.9,4.37-5.12,8.78c-.18,19.04-9.54,36.95-16.86,54.2-6.2-.81-6.69-.11-6.01,6l-2.97-.02-7.02-7.99Z"/>
      <path class="cls-14" d="M130.76,21.05l5.94,3.96c-2.53-.12-4.8-.05-3.85,2.9l9.91,11.14c4.61,19.99,10.29,39.77,12.02,60.01l3.97-2.03.04,8.01c14.82-17.47,18.55-42.28,29.98-64,10.6-1.25.45-8.57,9.03-10.08,7.04-1.24,7.86,7.05,5.98,12.07l-4.99-3.99-2.04,17.99-5.97-1.99c3.46,10.44-.03,22.47-4.01,31.99l-7.98-8c3.81,13.83-1.07,25.95-12.01,35.01,10.84,3.85-5.2,4.47,1.99,12.99-1.95,1.05-2.02.44-3.99,0,5.69,11.57-8.75,6.78-12.11,2.68-6.23-12.06-13.32-30.77-15.59-45.68-.22-2.07,2.41-5.45,1.5-6.71-.7-.96-4.85-.84-5.52-3.42,4.69-12.33-6.61-15.36-2.28-24.87-8.84-6.89-14.61,31.73-22,33.98.76-3.06-.36-7.78.86-12.2s7.07-3.1,5.12-8.78-7.6-1.25-9.98.98c5.82-13.5,13.53-28.97,18.12-41.98,2.31-.46,6.03,3.54,7.88-.02Z"/>
      <path class="cls-1" d="M204.76,13.05c3.71,12.73-.53,5.72-3.48,8.33-8.11,7.17,5.71,7.08,7.11,8.16.48.37,4.18,10.41,4.9,11,1.38,1.13,4.54.09,5.16.7,1.08,1.08-.13,7.37.7,10.39,1.56,5.65,2.33,7.91,3.61,13.41l-4-2c-2.26-7.97-5.13-16.63-8.99-23.99-5.09,7.12-10.65,14.92-11.03,24l-3.97-2.02-4.02,14.01c1.24-6.93,2.5-13.26.01-19.99l5.97,1.99,2.04-17.99,4.99,3.99c1.87-5.02,1.05-13.31-5.98-12.07-8.58,1.51,1.57,8.83-9.03,10.08,4.95-10.52,6.1-19.95,16-28Z"/>
      <path class="cls-9" d="M294.76,51.05c-1.91-5.71,7.56-26.13,13.79-21.85.85.58,8.04,17.72,8.16,18.96.3,3.13-3.43,11.31-1.87,12.84.59.58,4.97-.67,5.74.17,1.92,2.12-3.79,10.13,6.19,7.9-2.32,11.06,2.08,33.84,13.45,38.52,1.85,2.82.85,10.41,3.02,12.99,1.73,2.06,12.74,3.36,13.52,2.5,1.33-1.46-3.76-9.4,8-10.02-3,5.71-3.64,4.21-6.13,7.42-1.34,1.72-1.4,6.13-2.01,6.57-.81.58-4.36-2.16-5.97-1.07-2.96,1.99,1.22,7.37-9.57,2.72l-34.49-93.48c-7.58-2.49-8.09,8.71-11.82,15.84Z"/>
      <path class="cls-13" d="M168.76,127.05c-7.19-8.52,8.85-9.14-1.99-12.99,10.95-9.06,15.82-21.17,12.01-35.01l7.98,8c-4.31,9.12-10.75,35.34-18,40Z"/>
      <path class="cls-10" d="M378.76,49.05c5.1,7.08-3.09,10.34-3.38,12.95-.67,6.01,10.91,21.38-8.62,11.05,4.03-7.92,8.04-16.05,12-24Z"/>
      <path class="cls-7" d="M276.76,83.05c-3.9,9.39-5.96,20.95-12,30-6.02-3.53-3.07-.74-2.01-4.93,1.81-7.2,5.57-24.03,14.01-25.07Z"/>
      <path class="cls-5" d="M340.76,75.05c-2.6,1.44-2.76,5.66-5.98,6l-4.04-13.98,6.01-1c-5.63-4.21-4.53-10.77-5.99-15.01h2c3.2,8.41,5.4,16.92,8,24Z"/>
      <path class="cls-3" d="M340.76,75.05c2.89,7.86,11.98,16.79,10.02,27.99l13.98-25.99c4.1,14.28-10.22,20.04-10.01,32.02l-8.03-7.44c2.86-7.99-3.62-11.2-4.89-14.72-1.2-3.32,1.47-7.57-3.07-9.85.57-.75,1.32-1.36,2-2Z"/>
      <path class="cls-2" d="M222.76,65.05c1.81,7.75,6.73,17.12,4,24-5.08-11.67-4.76-14.58-8-26l4,2Z"/>
      <path class="cls-6" d="M130.76,21.05c12.1-9.66,10.27,10.95,12,18l-9.91-11.14c-.95-2.95,1.32-3.02,3.85-2.9l-5.94-3.96Z"/>
      <path class="cls-4" d="M76.76,123.05l7.02,7.99,2.97.02c-.68-6.11-.19-6.82,6.01-6-1.14,2.59-3.8,11.9-5.16,12.04-11.04,1.12-8.63-7.97-10.84-14.04Z"/>
      <path class="cls-12" d="M320.76,23.05c6.41,9.54,5.57,8.82,10,20h-2c-.29-2.14-3.85-3.97-4.92-6.12-1.24-2.47-.52-6.67-1.43-7.65-.85-.92-12.63.69-1.65-6.24Z"/>
      <path class="cls-7" d="M260.76,117.05c-1.26,4.27.27,13.89-6,12,.32-5.1,3.21-8.18,6-12Z"/>
      <path class="cls-12" d="M332.76,51.05h-2c-.2-.58-1.73-1.26-2-2l2-4c.85,2.22,1.34,4.27,2,6Z"/>
      <path class="cls-5" d="M330.76,45.05l-2,4c-1.94-5.27.15-4.88,0-6h2c.23.58-.22,1.42,0,2Z"/>
    </g>
  </g>
</svg>