<?xml version="1.0" encoding="UTF-8"?>
<svg id="Calque_2" data-name="Calque 2" xmlns="http://www.w3.org/2000/svg" viewBox="0 0 258.65 140.93">
  <defs>
    <style>
      .cls-1 {
        fill: #bae4ef;
      }

      .cls-2 {
        fill: #bee4f0;
      }

      .cls-3 {
        fill: #9ad6eb;
      }

      .cls-4 {
        fill: #c2e8f0;
      }
    </style>
  </defs>
  <g id="Calque_1-2" data-name="Calque 1">
    <g>
      <path class="cls-3" d="M170.47,6.52c1.46,2.49,7.51.67,5.98,4.97-2.14,6.03-18.27-4.76-23.97.02l5,5c1.72.67.28-4.08,2.15-4.14,10.44-.35,4.56,6.85,4.98,9,.87,4.48,11.25.81,9.9,7.13,7.8-13.13,10.72,2.18,21.95,2.04l-5.98,2.97c5.49,5.63,10.12,3.6,16.93,9.08,6.63,5.34,8.82,15.48,15.12,8.83-1.28-15.72-29.55-25.86-32.04-31.94-2.77-6.75,12.28,3.26,13.98-.97,26.08,22.5,47.23,54.64,50.21,90.8,1.04,6.18,9.62,16.92-2.25,22.16-14.35,6.33-52.9-4.06-69.95,3.03l1.99-5.97c-7.73-2.71-7.67,3.52-10.41,4.62-7.32,2.93-25.67,1.4-34.64,1.34-17.41-.12-40.87,1.57-61.94,2.22-3.68.11-8.14-2.43-9.83-2.27s-1.63,4.06-3.11,5.04c-5.48,3.65-12.33-.79-17.27-.78-11.08.03-22.46,1.46-33.94,0-3.8-.48-2.57-4.15-4.04-4.17-3.4-.03-7.37,5.09-8.8-3.03C-4.68,70.36,32.38,40.35,77.99,9.04,108.92-4.97,139.06-.16,170.47,6.52ZM90.49,70.52c5.8-9.62-8.83-17.47-10-6l5.97-1.99v6c-7.52-4.84-18.83-.51-20.02,7.99-2.26,1.66-6.53-6.29-13.85-2.95-11.97,5.46-16.15,15.04-20.16,26.98l-5.94-2.04-2,10.01c1.24,1.14,11.21-2.45,13.49-3.43s2.24-3.37,3.12-3.9c4.02-2.42,9.41-.38,12.39-8.65.84,5.13,7.12,5.56,11.17,3.07,1.37-.84,1.21-17.97,15.82-13.06l.98,7.97c4.19-1.66,3.95-7.74,5.64-9.48,4.78-4.89,3.44-.66,9.53-10.95,1.13-1.91,7.09-1.7,2.87-5.53l-9,5.98ZM206.47,102.51c5.04-6.81-6.99-14.92-11.96-18.98l9.93-10-11.44-6.8c-13.17,7.52-22.47,11.56-28.52,26.81l12,3.97c-7.35.45-6.01,7.45-12.01,11,16.8,5.74,8.78-1.19,12.75-4.06,13.19-9.5,1.43,6.09,3.25,8.07,4.57,1.22,6.21-5.18,9.28-5.71,2.74-.47,5.45,3.01,8.18,3.3,5.17.55,11.21-1.41,16.54.4-.98-10.54-6.34-6.76-8.01-8Z"/>
      <path class="cls-4" d="M204.47,18.52c-1.7,4.23-16.75-5.78-13.98.97,2.49,6.07,30.76,16.21,32.04,31.94-6.31,6.65-8.49-3.49-15.12-8.83-6.81-5.48-11.44-3.45-16.93-9.08l5.98-2.97c-11.23.13-14.15-15.17-21.95-2.04,1.36-6.32-9.02-2.64-9.9-7.13-.42-2.15,5.46-9.35-4.98-9-1.87.06-.44,4.81-2.15,4.14l-5-5c5.7-4.78,21.83,6,23.97-.02,1.53-4.3-4.52-2.47-5.98-4.97,15.2,3.23,20.65,1.69,34,12Z"/>
      <path class="cls-2" d="M206.47,102.51c1.67,1.23,7.03-2.54,8.01,8-5.33-1.81-11.37.15-16.54-.4-2.73-.29-5.43-3.77-8.18-3.3-3.07.53-4.7,6.93-9.28,5.71-1.82-1.98,9.94-17.58-3.25-8.07-3.97,2.86,4.05,9.8-12.75,4.06,6-3.54,4.66-10.55,12.01-11l-12-3.97c6.04-15.25,15.34-19.29,28.52-26.81l11.44,6.8-9.93,10c4.96,4.05,17,12.18,11.96,18.98Z"/>
      <path class="cls-1" d="M90.49,70.52l9-5.98c4.22,3.83-1.74,3.62-2.87,5.53-6.09,10.29-4.75,6.06-9.53,10.95-1.7,1.74-1.46,7.82-5.64,9.48l-.98-7.97c-14.61-4.91-14.45,12.22-15.82,13.06-4.05,2.49-10.32,2.06-11.17-3.07-2.98,8.27-8.37,6.23-12.39,8.65-.89.53-.93,2.96-3.12,3.9s-12.25,4.56-13.49,3.43l2-10.01,5.94,2.04c4.01-11.94,8.19-21.52,20.16-26.98,7.32-3.34,11.59,4.61,13.85,2.95,1.19-8.51,12.51-12.83,20.02-7.99v-6s-5.97,1.99-5.97,1.99c1.18-11.47,15.81-3.62,10,6Z"/>
    </g>
  </g>
</svg>