<?xml version="1.0" encoding="UTF-8"?>
<svg id="Calque_2" data-name="Calque 2" xmlns="http://www.w3.org/2000/svg" viewBox="0 0 218.27 209.25">
  <defs>
    <style>
      .cls-1 {
        fill: #e2a0ba;
      }
    </style>
  </defs>
  <g id="Calque_1-2" data-name="Calque 1">
    <path class="cls-1" d="M119.19,2.54c5.88,9.5-9.75,3.77-14.51,3.95C16.28,8.05-21.97,127.02,53.36,174.33c-27.63-41.12-3.67-93.72,19.93-130.61,1.02-1.16,23.01-15.88,24.64-16.72,2.78-1.43,6.42.12,9.45-1.7,4.6-13.8,55.29-6.44,66.61-2.5,12.56,6.4,29.44,28.7,34.93,41.12,7.23,25.88,13.91,54.65,5.29,82.22-13.61,43.94-67.6,69.35-111.87,61.79-1.28-.32-.85-3.62-2.08-3.66-13.6,7.11-30.94-9.82-39.26-13.62-4.11-1.66-.69,3.66-10.35-3.69-1.15-.88-3.84-.23-4.68-1.09-2.71-2.77.82-9.67-8.6-5.53,3.61-5.44-.67-3.25-2.77-6.2-7.21-10.86-19.59-10.04-17.79-21.4C1.23,134.8,4.85,113.45,0,90.88c-.01-9.17,18.77-49.64,25.28-57.19,1.52-1.76,4.48-1.08,5.35-1.95C53.26,5.87,85.44-5.49,119.19,2.54ZM138.98,191.81c-2.18,3.2-11.94,1.52-15.66,3.5-3.12,1.66-.41,4.77,1.08,5.04,132.72-2.93,97.97-214.34-17.43-167.4-36.31,15.69-68.47,90.12-50.41,125.19,37.85,73.52,139.35,9.48,114.9-64.9-21.12-64.27-101.1-27.18-96.17,20.14,4.46,42.84,68.93,29.37,63.99-3.88-2.49-16.77-30.49-24.55-25.91-1.16l7.97-2.01,2.04,7.99c-36.83,9.46-20.1-34.96,4.53-29.65.84.18,14.99,6.44,15.62,7.02,7.91,7.36,7.03,27.15,2.46,36.13-67.64,63.1-127.83-38.01-37.06-74.93,10.77-4.05,43.97,1.77,53.24,7.67,1.09.69,16.46,17.96,17,19.41,5.89,18.21,8.28,44.55-1.03,61.44.02,1.24,2.68,2.88,2.65,3.94-.1,2.85-17.52,24.72-19.39,30.03l-4-3.02c1.43,12.47-14.33,5.52-12.03,16.01-9.42-4.68-4.23.31-6.37,3.45Z"/>
  </g>
</svg>