<?xml version="1.0" encoding="UTF-8"?>
<svg id="Calque_2" data-name="Calque 2" xmlns="http://www.w3.org/2000/svg" viewBox="0 0 182.97 189.16">
  <defs>
    <style>
      .cls-1 {
        fill: #dc7d7d;
      }

      .cls-2 {
        fill: #d08c8d;
      }

      .cls-3 {
        fill: #dc5b58;
      }

      .cls-4 {
        fill: #dd8d8e;
      }

      .cls-5 {
        fill: #e24443;
      }

      .cls-6 {
        fill: #e25954;
      }

      .cls-7 {
        fill: #d9a5a4;
      }

      .cls-8 {
        fill: #f4d0cb;
      }

      .cls-9 {
        fill: #de5e5c;
      }
    </style>
  </defs>
  <g id="Calque_1-2" data-name="Calque 1">
    <g>
      <path class="cls-5" d="M67.54,6.08c2.3,13.68,10.4,25.64,16,38,4.81,10.62.87,16.63,15.04,21.94,4.85,1.82.95-4.69,3.12-8.59,1.99-5.14,10.14-5.83,9.88-11.32,5.27-3.26,3.24,4.72,4.2,5.61,1.06.98,5.28.08,7.65,1.4,6.6,3.68,14.33,12.97,11.17,20.9-16.29,19.2-33.68,10.4-18.62,44.62,1.99,5.07,7.6,17.25,10.14,21.91,4.84,9.83,17.29,15.06,15.44,27.53h-8.01c-5.92-4.09-16.18-18.58-18.04-6-1.12.81-9.6-10.59-4.05,3.09,1.94,4.79,14.42,18.74,2.01,16-8.71-1.92-13.07-10.56-11.94-19.1-8.22,3.81-4.88-5.64-6.4-10.56-3.1-6.76-11.8-13.38-11.85-23.14-.34-.34-8.97-1.97-9.43-1.82-1.8,4.21-6.03,5.64-10.29,7.53-1.84.75-13.48,4.51-13.99,3.99l1.97-15.98c-28.23,7.48,15.93-23.39,18.03-50.01l7.96,4c2.4-5.02-4.02-3.47-4.16-5.2-.2-2.47,3.15-7.71,2.18-8.78-4.38-4.83-5.06,10.03-8.96,7.97-3.06-9.93-10.75-17.54-15.03-25.98-5.92-11.69-11.17-25.23-14-38,11.56-6.49,11.53,9.87,20.98,12.02V2.05c3.75-5.58,7.09,1.75,9.02,4.03Z"/>
      <path class="cls-9" d="M155.54,16.08c-3.87,4.82-11.25,7.81-14,13.98,8.13-.59,11.89-11.03,19.99-9.99l.02,6.02c8.09-4.73,5.11.94,6.1,1.82,2.83,2.51,10.03-10.8,13.87-7.83,4.64,3.58-3.35,11.78-3.35,12.97.01,1.98,5.77,4.92,2.45,11.06-1.53,2.83-16.88,9.85-20.42,12.62-54.84,49.84-56.86,26.95-22.67,97.34-10.71-8.15-16.34-23.34-21.57-35.43-1.89-4.81-6.74-17.25-5.86-21.92,4.11-15.9,45.78-18.27,13.31-43.6-2.36-1.32-6.59-.41-7.65-1.4-.96-.89,1.07-8.87-4.2-5.61.26,5.5-7.88,6.18-9.88,11.32-2.17,3.89,1.73,10.41-3.12,8.59-14.17-5.31-10.23-11.33-15.04-21.94h2c5.73,13.16,6.15,20.49,17.25,6.25,3.51-2.97,8-1.4,9.32-9.67,12.65-6.05,18.59-20.88,31.43-26.58,3.86-1.72,10.54-3.17,12,2Z"/>
      <path class="cls-3" d="M23.54,18.08c7.96-9.04,8.07-.34,14,4,1.87,10.34,3.43,11.68,9.09,20,1.12,1.64,1.25,7.96,4.91,2,4.28,8.44,11.97,16.05,15.03,25.98,3.91,2.06,4.58-12.8,8.96-7.97.97,1.07-2.38,6.31-2.18,8.78.14,1.73,6.56.19,4.16,5.2l-7.96-4c-2.34,14.16-11.38,26.42-20.02,38-11.66,3.36-14.08,19.12-22.74,25.24-19.8,9.58-18.44,3.19-6.23,22.75,2.66.72,8.65-9.08,12.97-3.98.95,1.13-8.55,17.09-1.02,13.97,5.28-2.19,13.65-17.72,18.9-23.06,3.98-4.04,9.47-5.81,12.12-10.92,3.42-1.4,4.98-2.38,8-4v2c-6.03,5.28-39.92,43.89-43,43.96-5.21.12-2.12-14.94-1.02-17.96-6.14,2.39-10.74,8.78-17.97,7.99l1.98-9.98c-17.85,9.15-11.52-3.99-3.98-13,13.73-17.29,40.3-31.13,51.52-50.37-13.05-24.69-25.05-48.63-35.53-74.64Z"/>
      <path class="cls-1" d="M71.54,130.08c.93-.5,1.72-3.34,2.29-3.53.46-.15,9.09,1.48,9.43,1.82.04,9.76,8.76,16.42,11.85,23.14,1.52,4.92-1.82,14.36,6.4,10.56-1.13,8.55,3.23,17.18,11.94,19.1,12.41,2.74-.06-11.21-2.01-16-5.55-13.69,2.93-2.28,4.05-3.09,1.87-12.58,12.13,1.91,18.04,6h-2c-2.28-1.57-8.91-4.06-11.99-3.99-1.39,1.37,14.73,33.39-6.07,23.01-2.44-1.22-2.7-4.79-4.6-6.37-17.66-10.98-18.14-46.04-37.34-48.65v-2Z"/>
      <path class="cls-8" d="M51.54,44.08c-3.66,5.96-3.79-.36-4.91-2-5.66-8.32-7.22-9.65-9.09-20,4.92-3.92-6.23-12.92,0-16,2.83,12.77,8.08,26.31,14,38Z"/>
      <path class="cls-4" d="M85.54,44.08h-2c-5.6-12.36-13.7-24.32-16-38,8.53,10.08,12.92,25.94,18,38Z"/>
      <path class="cls-2" d="M141.54,162.08c1.36,3.54,6.69,8.21-.05,11.07-9.51,4.03-9.41-4.7-9.95-5.07,1.29,0,8.56,0,10.01,0v-6Z"/>
      <path class="cls-7" d="M155.54,16.08c-1.46-5.17-8.14-3.72-12-2,.08-11.12,19.64-7.52,12,2Z"/>
      <path class="cls-8" d="M35.54,20.08c-5.15-4.84-4.64-9.72-12-2-.64-1.58-4.72-3.61-4-6.96,1.52-7.1,16.41,2.98,16,8.96Z"/>
      <path class="cls-6" d="M49.54,110.08c-5.63,7.56-15.42,15.83,1.99,12.01l-1.97,15.98c.51.52,12.15-3.24,13.99-3.99-2.65,5.11-8.15,6.88-12.12,10.92-5.26,5.34-13.62,20.87-18.9,23.06-7.53,3.12,1.97-12.85,1.02-13.97-4.32-5.1-10.31,4.7-12.97,3.98-12.24-19.6-13.53-13.16,6.24-22.75,8.66-6.13,11.08-21.88,22.74-25.24Z"/>
    </g>
  </g>
</svg>