<?xml version="1.0" encoding="UTF-8"?>
<svg id="Calque_2" data-name="Calque 2" xmlns="http://www.w3.org/2000/svg" viewBox="0 0 227.48 204.26">
  <defs>
    <style>
      .cls-1 {
        fill: #d58183;
      }

      .cls-2 {
        fill: #e09a9c;
      }

      .cls-3 {
        fill: #d58d90;
      }

      .cls-4 {
        fill: #dd9b9d;
      }

      .cls-5 {
        fill: #dd8588;
      }

      .cls-6 {
        fill: #d9464a;
      }

      .cls-7 {
        fill: #dd8385;
      }

      .cls-8 {
        fill: #d46c6f;
      }

      .cls-9 {
        fill: #d47e84;
      }

      .cls-10 {
        fill: #d97477;
      }
    </style>
  </defs>
  <g id="Calque_1-2" data-name="Calque 1">
    <g>
      <path class="cls-6" d="M33.09,40.63c9.84,5.13,19.94,9.89,29.59,15.44,8.42,9.17,22.8,13.02,34.4,18.55-1.78-7.89-22.36-88.61.03-72.5l19.96,73.53,14.08-19.5,7.93-7.52c-.08.39,1.47,5.98.99,7.99l5.03-7.02-4.01-1.96c16.5-7.03,25.77-28.47,38.95-41.06,21.07-11.59-30.47,53.7-32.96,58.05-10.53,3.1-3.82,7.29-13.99,19.01-1.45,4.41,46.67-11.91,49.99-13.01,7.86.6,16.02-5.7,22.97-6.07,3.99-.21,3.21.52,3.04,4.06-12.9-3.2-10.26,5.86-12.32,7.68-.72.64-14.34,2.59-18.8,4.22-6.08,2.21-10.76,8.14-20.06,7.92-4.82-11.33-3.92.06-5.31,1.71-2.31,2.76-19.5,6.48-19.49,9.48,3.13,6.36,10.38,5.28,13.96,7,23.22,11.17,48.88,27.18,72,40,.2,9.63,2.12,6.92-10.67,8.06-2.08-.39-.04-5.13-4.3-4.08l-5.02,6.01c-4.07-2.86-9.4-7.1-14-10,3.4-4.03.68-4.47-2.56-6.43-4.29-2.59-12.63-6.81-17.44-3.57-.85-.76-4.07-8.81-9.01-9.99l-1.01,3.98c-3.07.84-.99-2.48-3.46-3.89-4.1-2.35-10.1-6.09-13.02-7.68-1.73-.94-6.36,3.12-7.5-2.42-.05-.76-4.37-7.39-6.02-4.98,4.78,8.3.8,17.93,2.4,25.49,1.51,7.14,10.23,29.94,9.71,36.38-.1,1.25-4.03,1.09-3.99,1.97.25,6.8,9.7,19.5-.09,27.14-3.56-2.57-4.56-8.14-6-12-3.05-18.5-5.84-29.86-10.66-48-1.77-6.15,2.48-13.36-7.34-17.01,3.28,1.28,4.4-8.58,3.99-8.97-3.42-3.35-3.87,3.34-5.52,3.93-10.15-.77-5.43,4.11-12.47,9.06l3.98,1.01v1.96c-6.81-.83-2.03,3.45-3.09,6.08-1.49,3.7-10.96,8.23-8.9,15.95-7.35,10.61-14.64,21.38-22,32-3.59,6.3-12.66,1.51-13.73,2.17-1.35.83-1.05,7.38-6.26,5.82l3.99-9.99c3.88-4.58,8.89-6.28,8-14,6.57-6.76,7.11-8.63,12-18,6.01-11.55,10.38-16.59,17.21-26.77,16.25-24.22-5.07-11.93-19.21-7.99-14.44,4.65-34.45,8.61-50.01,14.76l-4.05-3.05,10.04-2.97-5.98-3.95c3.8.46,5.73-2.72,7.99-4.03,19.97-11.56,41.19-13.05,62-20,5.82-1.94,9.37-6.59,15.99-6.99-2.83-4.39-6.37-.93-10-1.95-6.99-1.96,4.53-3.25,1.04-5.08-5.72-5.25-29.8-12.96-29.06-19.95l-3.96-.02-1.01,4.01c-2.77-13.7-5.46-1.93-6.12-1.9-2.52.13-12.32-5.57-14.94-7.51-1.33-.99-2.17-5.07-4.8-6.78-4.94-3.2-11.46.28-11.15-9.81l10-2.02ZM65.09,170.65c-2.51-1.33-6.97,3.2-6,3.96,2.51,1.33,6.97-3.2,6-3.96ZM61.08,178.64c-3.4-3.48-7.02,6.92-5.98,7.98,3.4,3.48,7.02-6.92,5.98-7.98Z"/>
      <path class="cls-5" d="M33.09,40.63l-10,2.02c-.31,10.09,6.21,6.62,11.15,9.81,2.63,1.71,3.47,5.79,4.8,6.78,2.61,1.94,12.42,7.65,14.94,7.51.66-.04,3.35-11.8,6.12,1.9l1.01-4.01,3.96.02c-.87,6.87,23.43,14.77,29.06,19.95,3.49,1.82-8.03,3.12-1.04,5.08,3.63,1.02,7.17-2.44,10,1.95-6.62.4-10.17,5.05-15.99,6.99,4.18-13.26-21.85-13.72-28-22l4-3.98h-4.99s-1.01,1.98-1.01,1.98l-39.71-26.29c.66-6.98,8.52-6.33,10.71-11.76,3.2-1.02,4.05,3.55,5,4.05ZM79.08,82.62c1.65-4.42-8.38-9.3-9.98-7.98-3.29,2.71,8.75,9.15,9.98,7.98Z"/>
      <path class="cls-1" d="M183.09,70.63c13.96-4.62,14.14-7.05,30.67-8.68,2.51-.25,7.76-6.47,12.4.62,4.16,6.36-4.99,4.29-6.93,5.11s-3.19,4.07-5.38,4.53-7.6-2.64-8.71-1.55c-.4.39.25,4.22-1.01,5.93-3.6,4.88-17.94,3.15-21.77,4.15-1.53.4-.96,3.79-2.49,3.89-1.22.08-3.91-2.25-4.6-1.85-.39.23-.96,4.99-4.24,6.88-1.48.85-15.22,2.09-18.42,3.14-1.42.47-7.65,7.42-13.53,5.86l8,7.98c-3.58-1.72-10.83-.64-13.96-7-.01-3,17.18-6.73,19.49-9.48,1.38-1.65.48-13.04,5.31-1.71,9.29.22,13.97-5.71,20.06-7.92,4.46-1.62,18.08-3.58,18.8-4.22,2.05-1.82-.59-10.88,12.32-7.68,2.35-11.32-19.86,4.16-26.01,2.01Z"/>
      <path class="cls-10" d="M185.09,8.63c1.12-18.2-30.16,32.4-33.94,33.06-3.25,2.99-7.21,2.8-10.05,5.95l4.01,1.96-5.03,7.02c.48-2.01-1.08-7.6-.99-7.99,2.22-10.35,17.44-20.39,23.21-28.7,5.08-7.31,5.19-9.86,14.8-15.9,3.26-2.05,13.32-5.22,11.96,1.58-.28,1.4-3.7,2.46-3.98,3.02Z"/>
      <path class="cls-7" d="M87.09,154.63c-2.06-7.72,7.41-12.24,8.9-15.95,1.06-2.63-3.72-6.91,3.08-6.08v-1.96s-3.98-1.01-3.98-1.01c7.05-4.97,2.31-9.83,12.47-9.06,1.65-.59,2.1-7.28,5.52-3.93.4.4-.71,10.25-3.99,8.97,9.82,3.65,5.57,10.86,7.34,17.01,5.08,17.69,6.55,28.03,10.66,46-9.88-13.04-8.42-32.97-13.66-47.28-1.31-3.59-7.6-5.43-4.36-14.72-2.43-3.48-20.38,25.69-21.98,28Z"/>
      <path class="cls-7" d="M131.09,116.63c.11,1.63-2.17,10.08-1.24,14.67,5.09,25.14,9.2,32.37,9.44,60.1.04,4.86,5.9,12.78-3.68,12.86-2.4.02-1.91-1.17-2.52-1.63,9.79-7.64.34-20.34.09-27.14-.03-.88,3.89-.72,3.99-1.97.52-6.44-8.2-29.23-9.71-36.38-1.6-7.57,2.37-17.19-2.4-25.49,1.65-2.41,5.97,4.22,6.02,4.98Z"/>
      <path class="cls-3" d="M219.09,146.63c6,3.33,9.63,4.03,7.99,11.99l-19.99-1.97-.96,5.95c-3.26-.73-5.26-4.72-7.04-5.97l5.02-6.01c4.26-1.06,2.23,3.68,4.3,4.08,12.83-1.14,10.87,1.56,10.67-8.06Z"/>
      <path class="cls-9" d="M25.09,118.63c-2.25,1.3-4.19,4.49-7.99,4.03l5.98,3.95-10.04,2.97,4.05,3.05c-2.41,4.65-21.83.38-16.01-5.99,10.85,1.41,14.22-8.56,24.01-8.01Z"/>
      <path class="cls-4" d="M185.09,146.63c-5.02-3.16-13.16-3.88-20-10,4.8-3.25,13.15.98,17.44,3.57,3.25,1.96,5.96,2.4,2.56,6.43Z"/>
      <path class="cls-8" d="M69.09,152.63c-4.65,8.93-4.49,9.34-10,16-.34-6.22,5.49-12.05,10-16Z"/>
      <path class="cls-8" d="M49.09,184.63l-3.99,9.99c5.22,1.55,4.92-4.99,6.26-5.82,1.07-.66,10.13,4.13,13.73-2.17-1.01,1.46-.75,5.62-3.95,7.13-2.95,1.4-6.55-3.9-7.95-3.07-.59.35-4.27,9.69-10.08,7.93-1.77-9.3,1.59-9.41,5.99-13.99Z"/>
      <path class="cls-2" d="M147.09,64.63c-2.02,2.95-.18,9.29-8,10,1.59-2.9-1.08-7.34,8-10Z"/>
      <path class="cls-8" d="M51.09,182.63c.72-4.72,2.59-8.62,6-12,.81,6.74-2.67,8.27-6,12Z"/>
      <polygon class="cls-6" points="57.09 74.63 58.11 72.66 63.09 72.65 59.09 76.63 57.09 74.63"/>
      <path class="cls-9" d="M29.09,128.63c-2.81.79-5.4,1.29-8,2l8-2Z"/>
      <path class="cls-7" d="M129.09,196.63c-1.23-2.8-1.25-3.2-2-6l2,6Z"/>
      <path class="cls-8" d="M61.08,178.64c1.03,1.06-2.58,11.46-5.98,7.98-1.03-1.06,2.58-11.46,5.98-7.98Z"/>
      <path class="cls-8" d="M65.09,170.65c.97.76-3.49,5.29-6,3.96-.97-.76,3.49-5.29,6-3.96Z"/>
      <path class="cls-6" d="M79.08,82.62c-1.23,1.17-13.27-5.27-9.98-7.98,1.6-1.32,11.63,3.56,9.98,7.98Z"/>
    </g>
  </g>
</svg>