<?xml version="1.0" encoding="UTF-8"?>
<svg id="Calque_2" data-name="Calque 2" xmlns="http://www.w3.org/2000/svg" viewBox="0 0 312.8 114.08">
  <defs>
    <style>
      .cls-1 {
        fill: #d65050;
      }

      .cls-2 {
        fill: #e09795;
      }

      .cls-3 {
        fill: #dd9493;
      }
    </style>
  </defs>
  <g id="Calque_1-2" data-name="Calque 1">
    <g>
      <path class="cls-1" d="M290.79,11.83c3.61-4.06,12.48-5.05,7.99-9.98h8.01s4.01,5.98,4.01,5.98c-.25,1.24.35,3.07,0,4l-9.99-1.99c5.28,13.43-2.76,11.69-6.94,18.06-5.34,8.16-10.48,25.75-16.15,33.86-3.97,5.67-7.91,2.06-6.92,14.06-.48.62-1.35,1.22-2,2-6.27-5.84-10.39,11.55-14,13.17-3.54,1.87-7.52-1.6-7.99-1.19,2.89,11.53-19.15,5.21-24.5,3.84-1.46-.45-1.58-3.03-1.94-3.18-1.18-.51-3.61,1.59-5.51.47-.74-.44-10.05-12.58-10.63-13.63-6.39-11.67-6.4-31.64-15.65-40.27-20.11-18.77-32.71,18.54-39.79,32.79-8.44-2.17-6.6,7.69-11.99,11.01l3.99,1.01c-10.4,17.25,5.32,7.45-18.78,26.25-44.25,9.41-34.82-37.54-48.31-58.16C46.21,9.79,9.42,90.49,10.79,113.83c-.34.34-8.56.4-9.7-.29C-9.38,72.54,58.01-9.46,89.2,54.42c7.32,26.47,11.43,70.92,40.06,26.87,13.37-22.57,26.44-69.67,61.54-56.11,18.36,6.62,18.53,29.96,26.68,44.96,30.29,49.26,57.57-36.99,73.32-58.32Z"/>
      <path class="cls-3" d="M310.79,11.83c-2.5,6.67-9.92,14.81-13.52,21.48-4.25,6.3-5.75,26.93-16.5,24.53-.63.58,2.05,4.29,1.03,6.09-.41.72-8.95,9.26-11.01,11.9-1-12,2.95-8.39,6.92-14.06,5.68-8.11,10.81-25.71,16.15-33.86,4.18-6.38,12.22-4.63,6.94-18.06l9.99,1.99Z"/>
      <path class="cls-2" d="M148.79,69.83c-.25,6.88-5.89,15.29-12,20,1.19-3.12,1.85-5.22,3.99-7.98l-3.99-1.01c5.4-3.32,3.55-13.18,11.99-11.01Z"/>
      <path class="cls-3" d="M268.79,77.83c-.13,6.6-15.49,18.67-22,16,.42-.92-.49-3.59,0-4.02s4.45,3.07,7.99,1.19c3.62-1.63,7.71-19.01,14-13.18Z"/>
      <path class="cls-3" d="M290.79,11.83c6.52-10.98,7.14-14.34,22.01-9.98-.68,2.03-1.58,3.83-2.01,5.98l-4.01-5.98h-8.01c4.5,4.93-4.38,5.93-7.99,9.98Z"/>
    </g>
  </g>
</svg>