<?xml version="1.0" encoding="UTF-8"?>
<svg id="Calque_2" data-name="Calque 2" xmlns="http://www.w3.org/2000/svg" viewBox="0 0 266.08 254.04">
  <defs>
    <style>
      .cls-1 {
        fill: #ecc596;
      }

      .cls-2 {
        fill: #eccca8;
      }

      .cls-3 {
        fill: #ebbe8d;
      }

      .cls-4 {
        fill: #ebc296;
      }

      .cls-5 {
        fill: #e1944f;
      }

      .cls-6 {
        fill: #e6b584;
      }

      .cls-7 {
        fill: #ebc799;
      }

      .cls-8 {
        fill: #eecfa9;
      }

      .cls-9 {
        fill: #ecc597;
      }

      .cls-10 {
        fill: #eecca7;
      }

      .cls-11 {
        fill: #f2dcbf;
      }

      .cls-12 {
        fill: #eec596;
      }

      .cls-13 {
        fill: #e2944f;
      }

      .cls-14 {
        fill: #e3a367;
      }
    </style>
  </defs>
  <g id="Calque_1-2" data-name="Calque 1">
    <g>
      <path class="cls-5" d="M164.12,2.3c33.73,3.88,61.94,35.79,80,62,0,0,8.12,28.52,8.12,28.52,7.15,2.05.7,8.4,1.87,9.46,1.65,1.49,6.61-4.09,8,10.01,1.61,16.22,2.37,44.74-.47,60.52-.54,3-5.24,18.79-6.49,18.89s-4.24-2.11-5.03-1.39c-.38.34,5.44,6.15,1.97,9.98-6.24-2.85-5.07-10.61-3.98-16,17.28-61.48-15.85-155.52-83.93-171.07C74.23-9.37-9.47,100.66,25.4,182.02c75.06,128.16,277.36,4.8,164.72-111.73l3.96-8c.72,7.44,14.61,12.11,20.04,18,1.96,1.62,14.03,16.07,14.02,17.18-.04,2.22-2.32,4.86-2.12,7.54.09,1.23,3.25,1.27,3.97,2.8,2.22,4.72,2.48,31.03,2.14,36.47-1.07,25.9-8.48,42.66-22,64-6.53-2.21-7.21,5.77-10,10-.86.16-3.1-1.41-4.94-1.06-9.74,1.84-5.16,6.55-6.17,9.08-3.01,7.51-9.07,3.77-12.71,5.08-8.2,2.94-29.74,14.52-36.7,12.53-2.04-.58-4.54-4.28-5.43-3.63-.64.47,0,6.06-5.04,6.04-1.61,0-.64-2.94-1.47-3.42-7.96-4.65-8.1,5.01-7.53,5.38l-3,3.99c-1.46-.54-2.23-3.52-3-3.99l.99-7.99c-1.48,7.03-7.76,1.49-13.95,1.85-4.34.25-10.54,4.52-10.99,4.14-1.53-11.94-6.59,2.17-11.06-9.99l-1.01,6c-3.24-2.24-6.52-4.12-9.98-6.01-1.76-8.65-21.42-12.75-28-18,2.36-10.14-15.15-13.09-21.24-28.6-9.28-17.12-22.09-67.25-2.77-79.42l-3.97-3.95c10.63,1.25,6.58-13.99,10.49-22.52,2.65-5.78,9.88-14,12.48-21.62,1.03-3.02-1.44-5.53-.04-7.93,1.1-1.89,5.06.32,9.12-2.76,7.06-5.34,6.57-14.52,9.74-17.94,3.79-3.01,13.16-.37,10.58-8.94.95-.8,19.32-9.58,22.27-10.87,4.99-2.18,9.33,3.29,9.52-7.39,9.27-1.05,18.81-.53,28.08-1.27,13.29-1.07,25.23-4.41,39.74-2.79Z"/>
      <path class="cls-13" d="M174.12,86.3c-5.02,11.22,3.53.55,8.12,8.86,2.4,4.34,1.08,8.61,2.35,10.7.72,1.19,4.72,1.31,5.28,3.54.45,1.81-2.29,7.88-1.98,11.97.27,3.58,3.63,2.64,4.1,4.23,1.35,4.6-11.35,45.52-13.8,53.41-.24.77-11.27,3.86-10.06,11.28-5.75,0-12.31,10.08-13.9,10.92-2.09,1.11-20.68,2.28-24.81,3.29-2.76.67,2.51,1.65-6.09,1.77-1.76.02-.13,6.01-5.16,4l-3.05-5.98c-2.15,7.54-1.78,1.95-4.96,1.25-9.1-2.01-7.41-4.63-9.13-5.03-2.1-.49-5.94,2.69-9.62,1.61-2.14-.87-7.52-11.47-13.24-9.76l-2.01,3.92c-1.89-6.9-11.18-10.81-16.03-15.99-4.58-4.9-6.95-8.35-10-14,4.46-11.02-9.83-56.59,8-54.02-13.59-6.87,1.4-15.32,1.44-18.98.02-2.14-6.51-3.72,1.57-8.99,2.24,3.61-1.38,10.76,5.99,8.03,1.99-.74.58-9.49,6.99-8.03,1.2,8.24-9.49,9.91-11.15,11.86-.83.97,1.58,6.96,1.16,10.13-46.42,111.54,139.7,125.71,114.98,8.01-15.64-49.25-89.4-34.88-82.8,14.81,3.74,28.16,48.47,28.72,45.98.16-1.23-14.09-16.43-7.21-18.17-8.99-4.83-4.95,8.09-11.28,16.44-7.48,16.73,7.64,18.84,30.52,4.56,41.47-29.91,22.93-68.59-8.09-59.64-43.64,10.09-39.49,58.88-46.23,88.65-24.35Z"/>
      <path class="cls-14" d="M88.12,56.3c7.93-6.89,6.2-2.8,9.41-4.52,5.14-4.76,12.93-12.1,19.6-3.51.79-.04,2.56-7.5,12.58-7.57,5.13-.04,6.67,3.66,11.39,3.61-2.29-9.23,5.33.74,9.99.09,2-.28-.37-5.01,3-4.09l.04,5.98,9.98-3.99c4.85,11.06,6.94,2.21,9.74,4.13,2.94,12.91,22,7.6,29.56,20.62,2.62,4.04-2.63,7.01,6.68,3.22l4.02,10.03c-5.5-5.97-19.23-10.45-20.04-18l-3.96,8c-19.72-15.87-64.8-26.45-85.01-8.01l-2.96-3.98c-12.52,16.69-28.2,28.73-38.03,47.98.42-3.17-1.99-9.16-1.16-10.13,1.66-1.95,12.35-3.62,11.15-11.86-6.41-1.46-5,7.29-6.99,8.03-7.37,2.73-3.75-4.42-5.99-8.03-8.07,5.27-1.55,6.86-1.57,8.99-.04,3.65-15.03,12.1-1.44,18.98-17.82-2.6-3.55,43-8,54.02-1.74-3.24-6.29-11.93-6.13-14.9.06-1.11,4.1-1.14,4.24-2.16.48-3.53-3.59-7.09-4.23-11.96-1.1-8.33,8.21-51.92,14.01-57.67,2.83-2.81,5.67-4.36,10.1-9.31,9.08.63,13.47-8.33,20-14ZM188.11,60.31c-2.18-2.18-6.16,1.8-3.98,3.98s6.16-1.8,3.98-3.98Z"/>
      <path class="cls-4" d="M164.12,2.3c-14.51-1.62-26.45,1.72-39.74,2.79-9.27.75-18.81.22-28.08,1.27-.19,10.68-4.53,5.21-9.52,7.39-2.95,1.29-21.33,10.07-22.27,10.87,2.54,8.63-6.77,5.9-10.58,8.94-3.17,3.42-2.69,12.6-9.74,17.94-4.06,3.07-8.02.87-9.12,2.76-1.4,2.39,1.08,4.9.04,7.93-2.6,7.62-9.83,15.84-12.48,21.62-3.91,8.53.13,23.77-10.49,22.52l3.97,3.95c-19.32,12.12-6.5,62.35,2.77,79.42,6.13,15.57,23.57,18.4,21.25,28.61C11.82,199.3-2.38,161.93,3.94,129.15c.04-.95-3.81-.78-3.94-1.91,6.67-17.76,16.11-69.64,32.51-80.39,1.27-.41,3.38,1.75,5.71.55.85-.44,5.1-12.91,9.13-16.88,3.8-3.74,39-23.3,44.7-25.31C110.49-1.26,133.63.02,153.15.26c3.38.04,8.89-1.28,10.97,2.03Z"/>
      <path class="cls-11" d="M162.12,38.3c16.96,5.21,30.9,14.06,46.02,22.03l-2.02,5.96c7.48-2.27,11.9,5.92,15.34,11.68,12.81,21.42,17.99,45.78,14.66,70.34l-4-4c.34-5.44.08-31.75-2.14-36.47-.72-1.53-3.87-1.57-3.97-2.8-.2-2.68,2.09-5.32,2.12-7.54.02-1.11-12.05-15.57-14.02-17.18l-4.02-10.03c-9.32,3.78-4.07.82-6.68-3.22-7.54-13.01-26.63-7.72-29.56-20.62-5.7-.58-4.49,7.48-11.74-8.13Z"/>
      <path class="cls-8" d="M174.12,86.3c20.14,10.49,23.76,35.98,21.39,56.69-.32,2.08-3.39,3.34-3.47,6.3-.03,1.32,4.12.73,4.15,2.02.03,1.44-9.87,23.9-11.6,26.47-4.17,6.22-10.41,9.35-16.48,14.52-1.94-8.89,8.38-11.97,10.06-13.28,2.44-7.89,15.14-48.81,13.8-53.41-.47-1.6-3.83-.65-4.1-4.23-.3-4.09,2.44-10.16,1.98-11.97-.56-2.23-4.56-2.35-5.28-3.54-1.27-2.09.05-6.36-2.35-10.7-4.59-8.31-13.14,2.36-8.12-8.86Z"/>
      <path class="cls-3" d="M60.12,180.3c4.84,5.17,14.13,9.09,16.03,15.99l2.01-3.92c5.73-1.7,11.1,8.89,13.24,9.76,3.67,1.08,7.52-2.09,9.62-1.61,1.72.4.03,3.02,9.13,5.03,3.17.7,2.81,6.29,4.96-1.25l3.05,5.98c5.03,2.01,3.41-3.98,5.16-4,8.6-.12,3.33-1.09,6.09-1.77,4.13-1.01,22.73-2.18,24.81-3.29,1.59-.85,8.15-10.92,13.9-10.92v2c-3.24,2.76-8.51,10.3-9.98,11.02-19.54.82-31.53,17.13-52.44,8.8-1.18-.45-1.44-2.87-3.25-3.56-15.01-5.75-35.46-12-42.33-28.26Z"/>
      <path class="cls-2" d="M162.12,38.3c.62,1.35,1.4,2.64,2,4l-9.98,3.99-.04-5.98c-3.37-.91-1,3.82-3,4.09-4.65.65-12.28-9.32-9.99-.09-4.72.04-6.26-3.65-11.39-3.61-10.03.07-11.8,7.54-12.58,7.57-6.65-8.61-14.52-1.21-19.6,3.51-3.21,1.72-1.48-2.37-9.41,4.52l-4-2c17.2-13.58,23.25-13.01,43.52-17.32,2.97-.63,5.61-3.77,7.81-4.11,2.48-.39,22.94,4.28,26.67,5.43Z"/>
      <path class="cls-9" d="M210.12,208.3c-3.33,5.1-2.44,8.6-10,10-15.16,22.97-39.08,25.15-62,32-2.64-.31-6.43-2.58-8.79-2.15-2.05.38.4,5.1-4.2,4.18-1.64-.33-.71-2.44-2-4.08-.45-.57-2.42.43-3.01.05s-.42-10.03,7.53-5.38c.83.48-.14,3.41,1.47,3.42,5.04.02,4.4-5.57,5.04-6.04.89-.64,3.39,3.05,5.43,3.63,6.95,1.99,28.5-9.59,36.7-12.53,3.65-1.31,9.71,2.43,12.71-5.08,1.01-2.53-3.57-7.24,6.17-9.08,1.84-.35,4.09,1.22,4.94,1.06,2.79-4.23,3.47-12.21,10-10Z"/>
      <path class="cls-1" d="M68.12,236.3c3.46,1.89,6.74,3.77,9.98,6.01l1.01-6c4.46,12.15,9.54-1.94,11.06,9.99.45.38,6.65-3.89,10.99-4.14,6.19-.35,12.47,5.18,13.95-1.85l-.99,7.99c-2.45-1.52-5.42-2.62-7.98-4,4.25,10.48-.26,4.28-6.73,4.6-19.51,4.56-35.15-8.89-49.29-20.61,6.23.73,12.31,4.9,18,8Z"/>
      <path class="cls-6" d="M248.12,184.3c-1.09,5.39-2.26,13.14,3.98,16,3.47-3.83-2.35-9.64-1.97-9.98.8-.72,3.74,1.49,5.03,1.39,11.33-20.52,8.65-56.06,6.96-79.41h2c3.21,22.87,3.78,66.55-8.5,86.5-10.45,17.07-15.11-6.3-7.5-14.5Z"/>
      <path class="cls-10" d="M88.12,56.3c-6.53,5.67-10.92,14.63-20,14,6.33-7.08,8.37-9.98,16-16l4,2Z"/>
      <path class="cls-7" d="M114.12,248.3c.77.48,1.54,3.45,3,3.99l3-3.99c.59.38,2.56-.62,3.01-.05,1.29,1.63.36,3.75,2,4.08,4.61.92,2.16-3.8,4.2-4.18,2.36-.44,6.15,1.84,8.79,2.15-11.65,6.53-29.22,3.17-42,0,5.6-5.1,15.56,6.54,10.02-6,2.56,1.38,5.53,2.47,7.98,4Z"/>
      <path class="cls-9" d="M236.12,148.3c-1.88,9.14-8.97,50.09-20,50,10.9-19.37,14.59-31.2,16-54l4,4Z"/>
      <path class="cls-12" d="M40.12,218.3c6.51,5.2,26.34,9.43,28,18-5.69-3.1-11.77-7.27-18-8-3.9-3.42-7.14-5-10-10Z"/>
      <path class="cls-5" d="M188.11,60.31c2.18,2.18-1.8,6.16-3.98,3.98s1.8-6.16,3.98-3.98Z"/>
    </g>
  </g>
</svg>