<?xml version="1.0" encoding="UTF-8"?>
<svg id="Calque_2" data-name="Calque 2" xmlns="http://www.w3.org/2000/svg" viewBox="0 0 311.7 300">
  <defs>
    <style>
      .cls-1 {
        fill: #e2b789;
      }

      .cls-2 {
        fill: #fcf9ef;
      }

      .cls-3 {
        fill: #e3ba8e;
      }

      .cls-4 {
        fill: #fae4c0;
      }

      .cls-5 {
        fill: #e19857;
      }

      .cls-6 {
        fill: #edd3ba;
      }

      .cls-7 {
        fill: #fcfcf6;
      }

      .cls-8 {
        fill: #fcf7ea;
      }

      .cls-9 {
        fill: #fcf5e2;
      }

      .cls-10 {
        fill: #e4944f;
      }

      .cls-11 {
        fill: #e0a871;
      }

      .cls-12 {
        fill: #ebc9a0;
      }

      .cls-13 {
        fill: #fdfaf0;
      }

      .cls-14 {
        fill: #fdfcf6;
      }

      .cls-15 {
        fill: #f9e5c7;
      }

      .cls-16 {
        fill: #dfa56d;
      }

      .cls-17 {
        fill: #fcf4df;
      }

      .cls-18 {
        fill: #e7af76;
      }
    </style>
  </defs>
  <g id="Calque_1-2" data-name="Calque 1">
    <g>
      <path class="cls-16" d="M219.53,1.24c24.27,13.59,29.09,11.27,44,38l-7.99-1.99c-3.08,10.42,7.68,7.52,5.99,13.99-14.83-11.66-37.82-9.89-54.77-3.77-20.82,22.44-38.6,57.37-66.8,71.2-10.85,5.32-22.82,5.26-31.84,10.16s-48.88,33.17-55.64,40.36c-30.92,39.08-18.38,77.79,27.05,96.05-3.89-.85-8.02-1.65-12-1.98,4.49,6.4,11.28,4.19,12,13.98-18.46-3.61-31.39-8.14-43.52-23.39-7.35-15.21-15.37-64.63-14.55-81.68.49-10.33,5.55-20.27,4.05-30.93-23.69,23.73-21.09,85.81,2.02,110-.25,5.04,4.01,5.83,6,8,17.26,17.75,26.64,21.62,51.61,23.43,3.83.33,7.35,2.91,6.39-3.43,9.37,1.21,6.46,4.84,9.31,5.89,2.02.75,20.93-2.04,27.27-1.1l33.42,9.21c-14.84,1.39-29.78-4.17-42.98-6.02-17.24-1.66-34.06,6.47-53.62,1.24C-3.21,269.6-27.18,156.7,39.53,121.25c0,0,9.01-5.99,9.01-5.99-2.15,10.94,5.84,7.39,12.99,3.99,9.07.42,40,1.64,46.62-.38,5.95-6.28,26.09-20.62,19.38-31.62,9.59-4.36,18.95-32.79,24.37-42.63C166.25,18.62,186.7-5.85,219.53,1.24ZM219.53,21.24c5.36-4.16,12.14-7.68,2.47-11.47-36.51-14.29-61.96,33.1-70.46,61.46,42.2-23.9,43.12-42.35,99.97-33.99-6.16-17.57-16.3-24.18-29.98-8l-5.99-3.01,6.02-1.01-2.03-3.98ZM189.53,57.26c-3.19-2.68-45.29,31.68-51.79,35.19l-16.2,24.78c2.61,2.39,28.55-12.73,32.01-16.97l35.98-43ZM51.53,159.24c15.98-9.62,35.36-18.22,48-31.98-14.23-1.04-44.57-5.75-56.65,1.83-4.18,2.62-8.06,20.69-9.35,26.15-3.13,13.27-5.7,23.7-3.99,37.99,5.96,1.04,3.16-1.59,4.21-4.67,3.01-8.85,6.82-13.12,9.78-21.32,1.02-.81,1.65-2.4,4-4,1.04-.71,5.35,1.95,4-4Z"/>
      <path class="cls-3" d="M219.53,1.24c29.5,14.26,27.93-3.5,55.93,5.07,23.61,10.37,36.47,32.11,36.15,57.85.98,39.25-6.96,76.47-16.08,113.09h-2c3.6-28.35,19.46-56.6,11.65-84.64,0,0-9.65-7.36-9.65-7.36-3.96-5.48-13.41-23.7-20-24-.23-1.08-3.52-3.33-1.98-6.02.25-.43,5.11,4.8,3.94-.94-1.44-7.47-10.52-3.35-9.96-11.04,14.04,9.06,26.33,20.49,32.99,35.99,11.95-25.89-7.11-65.92-36.55-69.51-6.55-.8-15.45-1.14-16.44,7.52-10.62-9.69-17.33-8.12-28-16Z"/>
      <path class="cls-11" d="M257.53,279.24c-15.64,11.58-23.47,11.72-40.62,16.04-1.57.4-1.2,3.65-2.76,3.96-17.96,2.01-44.64-.05-62.62-6.01,3.93-.28,8.44.92,11.98-.99l.02-5.01c30.23,3.32,62.12,4.67,88-14,3.96-.16,6.16,1.95,6,6Z"/>
      <path class="cls-1" d="M127.53,87.24c3,4.53.55,9.78-2,14,1.14-5.81-3.12-4.28-6.9-3.97-24.58,1.99-44.65,2.51-65.08,18.01-1.43,6.08,3.94,3.77,7.98,3.96-7.15,3.4-15.14,6.95-12.99-3.99l-9.01,5.99c32.96-39.64,48.83-22.67,88-34Z"/>
      <path class="cls-6" d="M257.53,279.24c.16-4.05-2.04-6.16-6-6,21.82-15.74,25.45-32.89,30-58v11.99s5.65-3.35,5.65-3.35c2.42-15.52,3.89-31.15,6.35-46.64h2c-6.13,36.89-3.91,76.76-38,102Z"/>
      <path class="cls-5" d="M263.53,39.24c1.51,2.19,3.1,2.88,4,4,.39.49-.12,2.82,1.06,4.01,2.49,2.52,7.91,1.26,8.89,7.03,1.17,5.74-3.69.5-3.94.94-1.53,2.69,1.75,4.94,1.98,6.02,1.36,10.43,7.11,19.37,9.41,29.59,1.73,6.57,4.23,30.01,5.56,32.45,3.88,7.45,13.28-23.83,11-27.09-2.38-7.33-3.48-.62-5.97-10.95l9.65,7.36c1.55,2.66,2.57,14.19,2.33,17.49-5.68,37.34-17.43,75.4-20.33,113.8l-5.64,3.35c-.48-8.15.75-18.09,1.99-25.99,1.88-13.36-2.31-23.5-1.2-30.58,2.86-18.25,4.12-25.81,1.2-45.42-3.17-26.98-13.44-52.44-22.48-77.49-.77-1.51-8.37-2.57-5.5-10.5l7.99,1.99Z"/>
      <path class="cls-14" d="M219.53,21.24c-6.41,4.98-16.17,9.14-18,18-16.31,6.44-33.46,24.45-49.99,31.99,8.5-28.36,33.95-75.75,70.46-61.46,9.67,3.79,2.9,7.31-2.47,11.47Z"/>
      <path class="cls-7" d="M247.53,17.24c.99-8.65,9.89-8.32,16.44-7.52,29.44,3.59,48.5,43.61,36.55,69.51-7.01-18.21-22.89-27.79-36.99-39.99-6.26-9.1-6.92-13.72-16-22Z"/>
      <path class="cls-13" d="M39.53,257.24l-4,4c-.67-.66-1.36-1.3-2-2,.46-5.07-4.02-5.85-6-8-23.09-24.15-25.72-86.27-2.02-110,1.5,10.66-3.56,20.6-4.05,30.93.59,18.48,5.01,71.38,18.07,85.07Z"/>
      <path class="cls-2" d="M61.53,119.24c-4.04-.19-9.41,2.12-7.98-3.96,20.43-15.51,40.5-16.02,65.08-18.01,3.78-.31,8.05-1.84,6.9,3.97-.89,1.48-16.19,17.26-17.38,17.62-6.62,2.02-37.55.8-46.62.38Z"/>
      <path class="cls-10" d="M79.53,265.24c1.07.23,3.85,1.41,6,2,1.56,5.39,6.38,3.35,10,4,35.9,7.26,40.9-6.62,72-5.98,2.31,1.69-11.44,7.43-12.8,8.25-2.25,1.35-2.65,4.62-3.69,5.35-.7.49-14.31-2.03-11.49,3.36,2.48,4.74,18.8,4.46,23.98,5.03l-.02,5.01-1.98.99-33.42-9.21c-6.34-.94-25.25,1.84-27.27,1.1-2.85-1.05.06-4.67-9.31-5.89-5.03-.65-6.87-.8-12-2-.72-9.79-7.51-7.58-12-13.98,3.98.33,8.11,1.13,12,1.98Z"/>
      <path class="cls-8" d="M189.53,57.26l-35.98,43c-3.46,4.24-29.41,19.35-32.01,16.97l16.2-24.78c6.5-3.51,48.6-37.87,51.79-35.19Z"/>
      <path class="cls-9" d="M221.53,29.24c13.68-16.19,23.82-9.57,29.98,8-7.55-2.92-14.87-.44-21.98-2-4.3-.94-5.45-2.7-12-.02-.4-.32,3.18-5.01,4-5.98Z"/>
      <path class="cls-4" d="M79.53,277.24c5.13,1.2,6.97,1.35,12,2,.95,6.34-2.56,3.76-6.39,3.43-24.33-2.09-32.36-4.44-49.61-21.43l4-4c11.13,14.06,23.49,16.13,40,20Z"/>
      <path class="cls-15" d="M33.53,155.24l-1.99,17.99c8.1,1.93,7.34-2.32,11.99-5.99-2.96,8.2-6.77,12.47-9.78,21.32-1.05,3.09,1.75,5.72-4.21,4.67-1.71-14.29.86-24.72,3.99-37.99Z"/>
      <path class="cls-12" d="M219.53,21.24l2.03,3.98-6.02,1.01,5.99,3.01c-.82.97-4.4,5.66-4,5.98,6.55-2.68,7.7-.92,12,.02-10.29,1.51-18.13.1-28,4,1.83-8.86,11.59-13.02,18-18Z"/>
      <path class="cls-4" d="M33.53,259.24c-1.99-2.17-6.25-2.96-6-8,1.98,2.15,6.46,2.93,6,8Z"/>
      <path class="cls-15" d="M51.53,159.24c1.35,5.95-2.96,3.29-4,4,.7-2.19,2.21-2.92,4-4Z"/>
      <path class="cls-17" d="M275.53,61.24c4.01-.38,7.79,6.19,9.92,9.08,4.76,6.64,10.02,12.82,12.08,20.92,0,0,2,18,2,18-.37,1.33-5.69,20.17-9.03,14.03-1.33-2.44-3.83-25.87-5.56-32.45-2.28-9.96-8.06-19.51-9.41-29.59Z"/>
      <path class="cls-18" d="M283.53,125.24c2.92,19.6,1.66,27.17-1.2,45.42-1.11,7.08,3.09,17.22,1.2,30.58l-3-4c-35.62,43.09-82.51,68.32-134.99,84.03l17.99,5.98c-5.18-.57-21.5-.29-23.98-5.03-2.81-5.38,10.8-2.87,11.49-3.36,1.03-.73,1.44-3.99,3.69-5.35,1.36-.82,15.1-6.56,12.8-8.25-2.62.15-5.39-.3-8-.02,53.74-30.19,132.51-66.11,124-140Z"/>
      <path class="cls-16" d="M95.53,271.24c-3.62-.65-8.44,1.39-10-4,3.49.95,7.4.92,10,4Z"/>
      <path class="cls-3" d="M299.53,109.24l-2-18c6.63,2.21,4.01,13.73,2,18Z"/>
      <path class="cls-3" d="M277.53,69.24c-.7-2.11-1.32-3.22-2-6l2,6Z"/>
    </g>
  </g>
</svg>