<?xml version="1.0" encoding="UTF-8"?>
<svg id="Calque_2" data-name="Calque 2" xmlns="http://www.w3.org/2000/svg" viewBox="0 0 285.89 147.77">
  <defs>
    <style>
      .cls-1 {
        fill: #eab0c8;
      }

      .cls-2 {
        fill: #f2cbdb;
      }

      .cls-3 {
        fill: #f0cddc;
      }

      .cls-4 {
        fill: #e99ebb;
      }
    </style>
  </defs>
  <g id="Calque_1-2" data-name="Calque 1">
    <g>
      <path class="cls-1" d="M48.45,8.48l-9.99,7.99c7.2,1.58,17.61-6.57,21.99,1.99-4.2.42-25.81-2.7-21.05,6.07,5.22,9.64,31.71,1.88,41.06,3.96v-10.02c-1.45-1.46-12.18,3.44-10.01-3.99h29c2.32,0,3.73,6.56,3.1,8.96-.54,2.06-7.87.64-8.1,5.02,5.4-.64,12.46,4.14,17.11,3.84,2.58-.16,4.51-3.04,5.88-3.07.48-.01,8.65,2.95,9.01,3.27,5.25,4.66-9.9,2.63-5.99,7.96,5.82-2.17,16.14,6.82,17.73,5.67.4-.29-.03-3.54,1.4-3.69,1.89-.2,10.6,1.96,13.53,2.26.97.1,4.46,3.25,5.32-1.26,1.86-9.79-9.28-3.38-11.16-3.02-8.64,1.67-6.01-2.97-10.08-5.84-3.2-2.25-6.58.19-6.74-.11-1.91-3.65,1.09-7.84,5.04-7.39,1.79.2,3.65,4.51,7.98,5.37,5.68,1.13,19.46-1.75,23.09.89,5.33,3.87-4.77,21.55,17.85,5.1l.05-2.96c-7.98-1.38-.68-7.11-2.02-8.98-1.14-1.6-12.2.32-10-6.01l20.79.12c3.56.82,1.3,6.02,3,6.96,3.47,1.92,24.52-3.18,31.22-3.25,6.17-.06,21.54,7.22,18.98-3.83,5.03.16,17.71-13.59,12,0-3.15,7.97-5.96,4.2-11.93,9.07-9.18,7.49.09,15.31.16,21.94.05,4.83-5.15,7.88-4.2,12.99,3.64-2.76,10.32-2.47,13.39-4.61,2.22-1.55,7.67-13.14,9.59-13.35,7.23-.81-3.91,12.99,2.03,13.95,3.1.5,5.03-4.2,6.97-5.99.6,4.17-1.5,6.57-3.16,9.83-7.85,15.5-16.85,28.01-24.71,40.78-1.58,2.57-12.14,8.51-15.23,11.33-2.69,2.46-2.16,5.98-3.46,7.48-2.81,3.24-11.32,4.17-13.01,5.2-1.12.69-1.5,4.47-4.37,6.1-4,2.27-35.42,9.69-41.54,10.81C103.84,156.56,30.77,118.9,8.74,55.19,1.72,39.38-1.2,30.47.45,12.5c7.71,3.7,10.08-2.47,15.4-3.63,10.62-2.31,22.98-.02,32.59-.39ZM112.35,40.5c-.5-.38-11.2,1.65-12.46,2.09-1.87.65-1.33,4.02-2.46,3.97-3.19-.15-4.77-4.02-7.63-3.76-.83.08-13.88,3.19-15.97,3.74-1.66.44-1.32,3.86-2.65,4.04-6.1.81-14.26-7.94-16.74,3.89,3.46,1.17,4.47-2.72,6.9-3.07,3.68-.53,18.38,5.32,20.61,7.7,1.21,1.29-.6,7.02,5.82,6.94,2.6-.03,10.79-4.43,16.31-5.08,3.95-.46,22.93.77,24.35-.48-.29-7.39-7.57-10.81-6-18.01-5.36-.48-3.24-.05-3.95,3.03-2.19,9.46,1.08,12.61-12.04,10.98-1.7-5.71,6.86-6.92,7.82-8.27.51-.72-1.61-7.46-1.93-7.7ZM196.89,52.92c1.12-.89,11.6-1.25,11.52-5.44-.14-8.11-15.14-.6-18.29,1.21-10.52,6.06-22.2,9.88-29.74,15.17-2.53,9.47-17.81,7.93-25.95,8.62-1.95,15,17.81,0,19.02.03,1.03.03,7.7,12.76,6.94,13.88-.26.38-5.93,1.33-5.91,3.08.01.76,9.02,4.35,7.94,11.96-.58,4.07-10.39-1.03-10,6.02l6.03,1.03c-6.33,15.14,5.73,2.39,7.97,9.01,2.66,7.87-3.49,3.1-6.05,4.06-13.42,6.28,4.35,21.18,6.11,6.92.79-.59,7.17,8.71,14.11,1.04,1.43-1.58,1.67-4.88,1.89-5.03,1.81-1.25,5.27,2.95,6.95,3.16,5.94.72,10.09-6.48,14.33-8.84,21.42-7.7,25.52-16.15,41.69-30.32,2.61,5.17-6.81,9.31-9,13,5.87,4.69,16.59-12.23,16.08-15.95-.14-1-3.91-.9-4.18-2.34-.84-4.46,3.54-11.43,2.08-16.71-5.96.65-10.96,5.54-12.98-2-3.18,1.51-4.83,11.27-11.01,9.97,1.41-9.27,11.66-12.39,9.98-21.98-4.6,1.95-11.58,5.27-16.58,4.1-1.03-.24-7.2-13.57-10.56-.12-.65,2.61,1.49,5.74,1.15,6-16.57-4.98-20.86,8.88-22.1,17.93-1.18,1.09-11.51-3.17-9.07,8.22,1.01,4.7,5.15,2.41,5.16,5.85-6.56,1.83-16.17-.73-15.63-8.66.39-5.73,9.46-8.58,9.84-16.38.18-3.74-7.81-3.16-4.18-6.93,14.59,6.19,16.62,6.96,22.42-9.56ZM258.44,70.49h-3.98c-.48,3.69-.08,5.82,3,7.98l.98-7.98Z"/>
      <path class="cls-4" d="M48.45,8.48c76.01.74,162.87-15.32,236.08-5.02,4.17,11.3-2.21,39.54-6.46,50.72-.82,1-3.33.02-3.63.29-1.94,1.79-3.87,6.49-6.97,5.99-5.94-.96,5.2-14.76-2.03-13.95-1.92.22-7.38,11.81-9.59,13.35-3.06,2.14-9.75,1.85-13.39,4.61-.95-5.11,4.25-8.16,4.2-12.99-.06-6.63-9.34-14.46-.16-21.94,5.97-4.87,8.78-1.1,11.93-9.07l11.99,3.99-5.98-6.98c11.31-9.51,4.95,2.85,11.97,6.99l.99-16.03c-7.66,2.98-16.18.96-23.53,2.48-4.21.87-8.87,5.71-12.42,5.67-1.46-.02.19-6.3-5.02-4.11-2.7,6.33,5.78,8.17,9.99,7.99,2.56,11.06-12.81,3.77-18.98,3.83-6.7.07-27.75,5.17-31.22,3.25-1.69-.94.57-6.14-3-6.96l-20.79-.12c-2.19,6.33,8.86,4.41,10,6.01,1.34,1.88-5.96,7.6,2.02,8.98l-.05,2.96c-22.62,16.45-12.52-1.23-17.85-5.1-3.63-2.64-17.42.24-23.09-.89-4.34-.86-6.19-5.16-7.98-5.37-3.94-.44-6.95,3.74-5.04,7.39.16.3,3.54-2.14,6.74.11,4.07,2.87,1.43,7.51,10.08,5.84,1.88-.36,13.02-6.77,11.16,3.02-.86,4.51-4.35,1.36-5.32,1.26-2.93-.3-11.64-2.46-13.53-2.26-1.43.15-1,3.4-1.4,3.69-1.58,1.14-11.91-7.84-17.73-5.67-3.91-5.33,11.23-3.3,5.99-7.96-.36-.32-8.53-3.28-9.01-3.27-1.37.03-3.29,2.91-5.88,3.07-4.65.29-11.71-4.48-17.11-3.84.23-4.38,7.55-2.96,8.1-5.02.63-2.4-.78-8.96-3.1-8.96h-29c-2.17,7.42,8.56,2.53,10.01,3.99v10.02c-9.35-2.08-35.84,5.68-41.06-3.96-4.75-8.77,16.85-5.65,21.05-6.07-4.38-8.56-14.79-.41-21.99-1.99l9.99-7.99ZM160.45,28.46c-1.07-3.98-4.26-4.49-7.99-3.97v3.98s7.99,0,7.99,0ZM176.44,32.49c-2.18-2.18-6.16,1.8-3.98,3.98s6.16-1.8,3.98-3.98Z"/>
      <path class="cls-4" d="M196.89,52.92c-5.84,16.66-7.93,15.67-22.42,9.56-3.63,3.77,4.36,3.2,4.18,6.93-.38,7.8-9.45,10.65-9.84,16.38-.54,7.94,9.07,10.49,15.63,8.66,0-3.45-4.15-1.15-5.16-5.85-2.45-11.39,7.88-7.13,9.07-8.22,1.27-9.16,5.56-22.87,22.1-17.92.33-.26-1.81-3.39-1.16-6,3.36-13.45,9.53-.12,10.56.12,5,1.16,11.98-2.15,16.58-4.1,1.68,9.59-8.56,12.71-9.98,21.98,6.18,1.3,7.83-8.47,11.01-9.97,2.02,7.54,7.02,2.65,12.98,2,1.47,5.28-2.92,12.25-2.08,16.71.27,1.43,4.05,1.33,4.18,2.34.51,3.72-10.21,20.65-16.08,15.95,2.19-3.69,11.61-7.83,9-13-16.19,14.19-20.29,22.63-41.69,30.31-4.24,2.37-8.4,9.57-14.33,8.84-1.69-.21-5.14-4.41-6.95-3.16-.22.15-.46,3.45-1.89,5.03-6.94,7.67-13.31-1.63-14.11-1.04-1.74,14.25-19.55-.63-6.11-6.92,2.56-.96,8.71,3.81,6.05-4.06-2.24-6.62-14.3,6.13-7.97-9.01l-6.03-1.03c-.39-7.05,9.42-1.95,10-6.02,1.09-7.61-7.92-11.2-7.94-11.96-.03-1.75,5.64-2.7,5.91-3.08.77-1.11-5.91-13.85-6.94-13.88-1.21-.03-20.97,14.97-19.02-.03,8.28-.75,23.27.96,25.95-8.62,7.53-5.3,19.21-9.11,29.74-15.17,3.15-1.81,18.15-9.32,18.29-1.21.07,4.19-10.4,4.55-11.52,5.44Z"/>
      <path class="cls-3" d="M112.35,40.5c.32.24,2.44,6.98,1.93,7.7-.96,1.35-9.52,2.56-7.82,8.27,13.12,1.63,9.85-1.52,12.04-10.98.71-3.07-1.41-3.5,3.95-3.03-1.57,7.19,5.7,10.62,6,18.01-1.42,1.24-20.4.02-24.35.48-5.53.65-13.71,5.04-16.31,5.08-6.42.09-4.61-5.65-5.82-6.94-2.23-2.37-16.93-8.23-20.61-7.7-2.44.35-3.45,4.24-6.9,3.07,2.47-11.83,10.63-3.08,16.74-3.89,1.33-.18.99-3.6,2.65-4.04,2.09-.55,15.13-3.66,15.97-3.74,2.86-.26,4.44,3.61,7.63,3.76,1.13.05.6-3.32,2.46-3.97,1.26-.44,11.95-2.47,12.46-2.09Z"/>
      <path class="cls-2" d="M246.45,20.48c-4.21.18-12.69-1.66-9.99-7.99,5.2-2.19,3.56,4.09,5.02,4.11,3.54.04,8.2-4.8,12.42-5.67,7.35-1.52,15.86.5,23.53-2.48l-.99,16.03c-7.02-4.14-.67-16.51-11.97-6.99l5.98,6.98-11.99-3.99c5.71-13.6-6.97.17-12,0Z"/>
      <path class="cls-4" d="M258.44,70.49l-.98,7.98c-3.08-2.16-3.48-4.29-3-7.98h3.98Z"/>
      <path class="cls-1" d="M160.45,28.46h-7.99s0-3.97,0-3.97c3.73-.52,6.92,0,7.99,3.97Z"/>
      <path class="cls-1" d="M176.44,32.49c2.18,2.18-1.8,6.16-3.98,3.98s1.8-6.16,3.98-3.98Z"/>
    </g>
  </g>
</svg>