<?xml version="1.0" encoding="UTF-8"?>
<svg id="Calque_2" data-name="Calque 2" xmlns="http://www.w3.org/2000/svg" viewBox="0 0 329 176.55">
  <defs>
    <style>
      .cls-1 {
        fill: #f1e360;
      }

      .cls-2 {
        fill: #f6f19f;
      }

      .cls-3 {
        fill: #f6f1a5;
      }
    </style>
  </defs>
  <g id="Calque_1-2" data-name="Calque 1">
    <g>
      <path class="cls-1" d="M16.45,64.09l17.44-18.01c63.1-16.76,50.38,48.07,66.1,24.55,11.59-21.57,17.14-42.81,41.75-51.26,1.39-.88,2.04-3.85,3.88-5.02,7.24-4.61,10.17.07,15.84-.24,6.78-.38,11.94-3.19,19.88-1.89,6.81,1.11,7.87,5.52,11.2,6.88,13.35-1.11,11.66,4.12,19.97,11.89,23.22,2.92,23.14,52.02,25.2,70.45.12,4.36-5.06,12.94-.23,14.63l23.94-26.01c19.34-13.95,36.48-9.04,53.03,6.03,7.39,14.16,17.06,51.38,13.96,66.97-1.64,8.22-11.48,16.96-13.91,3.98-3.91-20.93,3.53-38.92-11.19-58.81-20.49-27.68-34.69-16.24-48.86,7.86-19.68,26-4.73,54.19-27.98,56-2.14-2.91,1.62-20.36,1.58-25-2.17-25.51,4.49-85.32-17.6-101-29.22-54.51-95.59-9.87-101.81,37.19-2.25,11.05.73,53.32-18.2,43.83-4.63-2.32-5.37-21.94-6.97-29.04-3.76-16.69-8.73-44.89-30.1-46.06-26.95-1.47-39.8,34.17-44.45,55.55-1.18,5.44,1.84,17.79-6.59,11.64-7.73-15.7,5.47-41.68,14.11-55.11Z"/>
      <path class="cls-3" d="M314.45,96.09c-32.79-30.51-54.36-6.91-76.97,19.98-4.83-1.69.35-10.27.23-14.63-2.09-18.48-1.97-67.49-25.2-70.45-3.57-2.86-7.14-10.06-12.17-11.86-2.81-1.01-5.28,1-7.8-.03-3.33-1.37-4.4-5.77-11.2-6.88-7.94-1.3-13.1,1.51-19.88,1.89-5.66.32-8.6-4.36-15.84.24-1.84,1.17-2.49,4.15-3.88,5.02-24.56,8.4-30.22,29.78-41.75,51.26-15.75,23.51-3-41.32-66.1-24.55l-17.44,18.01c1.47-13.11,24.74-27.79,36.76-27.81,24.84-.04,31.46,12.29,42.24,31.77,2.68.1,18.49-32.85,22.14-37.82,61.88-66.58,124.6-13.41,122.76,64.96,1.92,17.27,17.54-7.7,24.28-11.91,17.09-10.69,40.68-4.69,49.82,12.82Z"/>
      <path class="cls-2" d="M210.45,46.09c22.05,15.57,15.44,75.54,17.6,101,.04,4.64-3.72,22.09-1.58,25,23.24-1.78,8.29-29.94,27.98-56-.87,10.93-7.12,20.65-9.53,31.47s2.58,23.81-11.98,28.02c-24.23,11.88,3.87-88.47-22.49-129.49Z"/>
    </g>
  </g>
</svg>