<?xml version="1.0" encoding="UTF-8"?>
<svg id="Calque_2" data-name="Calque 2" xmlns="http://www.w3.org/2000/svg" viewBox="0 0 213.06 198.16">
  <defs>
    <style>
      .cls-1 {
        fill: #575850;
      }

      .cls-2 {
        fill: #54534e;
      }

      .cls-3 {
        fill: #2f302a;
      }

      .cls-4 {
        fill: #a2a39e;
      }

      .cls-5 {
        fill: #595952;
      }

      .cls-6 {
        fill: #bebfba;
      }

      .cls-7 {
        fill: #f7f8f4;
      }

      .cls-8 {
        fill: #efefeb;
      }

      .cls-9 {
        fill: #65655d;
      }

      .cls-10 {
        fill: #3d3d38;
      }

      .cls-11 {
        fill: #ecede8;
      }

      .cls-12 {
        fill: #7e7e78;
      }

      .cls-13 {
        fill: #42433d;
      }
    </style>
  </defs>
  <g id="Calque_1-2" data-name="Calque 1">
    <g>
      <path class="cls-13" d="M55.08,17.02c23.32,11.37,32.85,30.22,49.98,48l-3.56-40.99c1.71-3.1,1.89-29.52,7.56-23,2.48,2.28,5.35,58,13.01,65.98,17.65-9.53,32.75-50.71,51.01-51.97-7.82,19.61-24.56,33.37-36,49.98-5.45-4.49-7.98,8.08-12.65,7.73-7.36-.14-7.34-12.12-7.36-17.73-4.77-1.26-4.59,2.56-5.99,6s-3.23,5.48-2,10c-1.17-1.04-7.67-6.39-7.98-6,.37,8.08,5.59,8.85-4.02,12-2.65-.15-5.35.07-7.99.02v1.95s9.99,6.03,9.99,6.03c-2.39.67-1.44,2.86-2,4-1.06-.22-2.76-.04-4,0,.16-.96,2.57-3.36,2.02-3.97-24-17.28-60.55-7.56-86.04,2.99.13,10.78,33.78,9.45,40.99,8.95,13.91-.95,30.53-7.53,43.03-7.97-.55,3.28-.39,4.72,2.98,4.01,2.11.11.54-3.03,1.02-4.01,2.95.6,4.09,2.68,6,4-76.2,31.46-168.77-11.06-36-24.02C58.04,58.51,7.08,24.54,29.07,11.02c5.66-1.3,1.97,5.69,7.99,3.99v-3.99c.66.11,1.38-.14,2.01,0l2,8c-1.26-.18-2.69.06-4,0-.65-2.99-7.17-3.11-8,0,5.73,13.04,34.48,41.78,47.4,50.01,5.61,2.9,18.52,3.41,24.59,3-14.23-14.71-32.43-43.8-51.99-51.01.87-2.87,3.08-3.97,6-4Z"/>
      <path class="cls-3" d="M111.08,61.02c1.4-3.44,1.22-7.26,5.99-6,.01,5.6,0,17.59,7.36,17.73,4.67.36,7.21-12.22,12.65-7.73-1.89,2.74-4.57,4.74-3.99,7.99,6.5.2,8.63-3.26,15.98-1-5.27,2.76-9.71,7.47-15.92,7.11l1.93,3.84c-7.27.12-15.84,6.49-10.01,12.06,0,.6-10.23,5.7,0,6-.94,3.93,2.97,11.56-3.99,10.02,1.62-10.84-4.04-8.55-10.01-12.02-6.75-3.73-7.5-7.32-14-10-.48.98,1.09,4.12-1.02,4.01-3.37.71-3.53-.73-2.98-4.01,1.24-.04,2.94-.22,4,0,.13-8.08,6.77-.69,8-6,1.08-5.4-4-5.99-8-6,9.61-3.15,4.39-3.92,4.02-12,.31-.39,6.81,4.96,7.98,6,1.11.98,1.58,4.16,3.98,4l-1.98-14Z"/>
      <path class="cls-10" d="M131.08,123.02c-2.75-3.33-5.15-7.98-10-8-1.44-3.8-5.68-14.24-9.99-10.01-.29.28-.07,5.37-1.01,7.95-6.7,18.32-16.22,38.42-28.16,53.9-12.2,16.19-30.02,26.54-19.84-3.86l5,10.02c11.86-12.53,22.73-26.91,27.43-43.5,6.68-4.06,4.82-11.37,6.57-18.5.2-.23,2.43.75,3.59-.46.47-.49,4.43-9.62,6.41-11.54,5.97,3.46,11.63,1.18,10.01,12.02,9.18,1.95-.83-12.55,7.97-14.01-2.4,9.07,1.82,16.98,2.02,26Z"/>
      <path class="cls-5" d="M111.08,99.02c-1.99,1.92-5.95,11.05-6.41,11.54-15.65,6.45-34.95,44.94-37.59,62.46l-5-10.02c.19,2.88-2.84,8.29-3,10.02-1.04-20.98,21.74-51.07,33.11-67.89,3.81-4.75,10.35-6.1,10.89-12.11,2.95,2.05,3.53,3.41,8,6Z"/>
      <path class="cls-9" d="M161.08,107.02c2.47-2.31,2.19-2.57,0-6,2.52,1.23,7.06,1.56,12,4h-5.99s0,3.99,0,3.99h5.98s.01-3.99.01-3.99c1.34.66,2.67,1.34,4,2l-7.98,6.03v1.96s3.98.03,3.98.03l-2,3.98c-3.85-1.14-9.63,2.16-10.03-5.99h-1.94s-1.13,4.09-1.13,4.09l-24.88-8.09c2.49,16.65,13.8,30.56,13.99,47.99-2.47-5.56-12.47-21.41-13.24-23.97-1.08-3.58,1.18-6.74.84-7.78-.15-.45-2.75-1.22-3.6-2.24-.2-9.02-4.42-16.93-2.02-26-1.87.07-3.59,2.37-3.98,4-10.23-.3,0-5.4,0-6,9.15,1.39,28.9,19.33,36,12ZM167.07,111.03h-3.98c-.65,2.95.88,4.16,3,5.98l.98-5.98Z"/>
      <path class="cls-3" d="M131.08,123.02c.85,1.03,3.45,1.8,3.6,2.24.35,1.04-1.91,4.2-.84,7.78,7.14,13.74,21.6,33.71,19.23,51.96h-3.98c2.03-7.57,4.05-7.51-4.01-9.99-2.38-7.74-9.3-16.67-12.39-24.61-4.35-11.21-7.48-24.45-11.61-35.39,4.85.02,7.25,4.67,10,8Z"/>
      <path class="cls-13" d="M143.08,71.02c24.67-5.93,45.24-19.51,67.97-30l2.01,7.92c-7.44-.84-11.9,7.9-14.55,9.48-12.99,7.71-33.09,8.26-47.43,20.59h-14c3.94-2.08,8.16-4.65,11.99-7.01l-5.99-.99Z"/>
      <path class="cls-1" d="M177.08,107.02c4.78,2.36,30.29,14.02,31.86,16.25.38.54-1.57,7.51-1.89,7.76-1.48,1.18-31.18-10.59-35.97-12.01l2-3.98-3.99-.03v-1.96s7.99-6.03,7.99-6.03Z"/>
      <path class="cls-1" d="M137.08,79.02h2c-5.19,7.94.46,8.8,6,12,1.58.91,2.73,2.29,6,4,6,1.88,5.88,1.51,10,6,2.19,3.43,2.47,3.69,0,6-7.71-5.07-20.07-9.54-24.46-17.49-3.12-1.81-9.29,1.4-11.54-2.51,2.23-2.42,6.67-4.01,10.01-4.06l-1.93-3.84c1.22-.52,3.21.28,3.93-.1Z"/>
      <path class="cls-2" d="M145.08,175.02c8.06,2.48,6.04,2.42,4.01,9.99h3.98s.01-7.99.01-7.99c2.06,11.06,5.79,29.4-11.96,17,8.72-3.04,6.33-11.32,3.96-19Z"/>
      <path class="cls-8" d="M151.08,79.02c-4.34,3.73-7.32,5.13-6,12-5.54-3.2-11.19-4.06-6-12h12Z"/>
      <path class="cls-12" d="M55.08,17.02c-2.92.03-5.13,1.13-6,4-.97-.36-6.91-1.85-8-2l-2-8c6.41,1.4,10.26,3.2,16,6Z"/>
      <path class="cls-12" d="M37.08,11.02v3.99c-6.03,1.7-2.34-5.29-8-3.99,5.55-3.23,3.88-.68,8,0Z"/>
      <path class="cls-7" d="M93.08,89.02c-12.5.44-29.12,7.02-43.03,7.97-7.21.49-40.86,1.83-40.99-8.95,25.5-10.54,62.02-20.27,86.04-2.98.55.6-1.86,3.01-2.02,3.96Z"/>
      <path class="cls-6" d="M97.08,77.02c.65.04,1.37-.11,2,0l6,6c-.62,3.58-3.68,1.35-6,2l-9.98-6.03v-1.95c2.64.05,5.34-.17,7.98-.02Z"/>
      <path class="cls-12" d="M37.08,19.02c-2.66-.12-5.35.08-8,0,.83-3.11,7.35-2.99,8,0Z"/>
      <path class="cls-8" d="M125.08,87.02c2.25,3.91,8.42.7,11.54,2.51,4.39,7.96,16.74,12.42,24.46,17.49-7.07,7.33-26.86-10.62-36-12,.01-1.19-4.64-2.98,0-8Z"/>
      <path class="cls-4" d="M111.08,61.02l1.98,14c-2.4.16-2.87-3.02-3.98-4-1.23-4.52.6-6.55,2-10Z"/>
      <path class="cls-13" d="M105.08,83.02l-6-6c3.74.67,6.82,1.26,6,6Z"/>
      <path class="cls-11" d="M101.08,111.02c-1.75,7.13.11,14.43-6.57,18.5-4.7,16.59-15.58,30.97-27.43,43.5,4.22-23.42,18.46-44.46,34-62Z"/>
      <polygon class="cls-1" points="173.08 105.02 173.07 109.01 167.09 109.01 167.09 105.03 173.08 105.02"/>
      <path class="cls-1" d="M167.07,111.03l-.98,5.98c-2.12-1.82-3.65-3.03-3-5.98h3.98Z"/>
    </g>
  </g>
</svg>