<?xml version="1.0" encoding="UTF-8"?>
<svg id="Calque_2" data-name="Calque 2" xmlns="http://www.w3.org/2000/svg" viewBox="0 0 210.41 221.75">
  <defs>
    <style>
      .cls-1 {
        fill: #dc8789;
      }

      .cls-2 {
        fill: #e09191;
      }

      .cls-3 {
        fill: #dc8988;
      }

      .cls-4 {
        fill: #d35d60;
      }

      .cls-5 {
        fill: #d88484;
      }

      .cls-6 {
        fill: #d25456;
      }

      .cls-7 {
        fill: #df8f91;
      }

      .cls-8 {
        fill: #d28888;
      }

      .cls-9 {
        fill: #de8f90;
      }
    </style>
  </defs>
  <g id="Calque_1-2" data-name="Calque 1">
    <g>
      <path class="cls-6" d="M183.5,61.72c5.57,9.36,12.35,18.72,16.64,28.01,1.39,3.02-.71,9.86,5.36,13-10.3,3.88-1.03,4.71-.54,5.39,3.85,5.43-3.24,18.01-2.64,22.67.26,2,3.91,3.8,3.14,4.87-.13.17-3.95-.35-4.13,1.24,1.52,8.41,4.19,6.62-1.54,14.23-.59,3.09,4.57,5.36,3.71,6.56-7.72.33-12.79,14.44-17.52,20.38-.3.42,1.63,7.5-.48,9.66-8.07,7.22-22.48,8.89-26,20-5.9,2.05-15.17.27-20.48,2.11-1.95.68-1.91,3.46-2.98,3.92-7.64,3.24-15.76-.19-23.58.44-.95.08-.67,2.93-1.93,3.09-12.06,1.45-22.29,2.83-28.03-9.54l-2.96,5.99-2.05-10c-3.3-2.2-16.48,11.99-18.07-5.98-9.27,4.32-5.16-1.34-8.93-4.03-5.11-1.4-1.08,4.67-4.96,4,1.95-9.61-9.61-7.97-13.98-11.03-2.5-1.75-7.52-19.48-10.47-22.55-1.45-1.52-4.99-1.16-6.29-2.22-2.23-1.82-.06-7.27-5.27-6.19l.03-3.99,3.96-1c-9.8-6.52-6.21-9.43-7.07-17.31-.29-2.67-2.72-5.29-2.44-8.41.55-6.15,6.16-5.31,7.5-9.27l-5.98-4.01,10-.02-.03,16-5.97-5.98,1.5,7.97,2.47.05c1.01,3.54-4.65.88-3.97,2.96,1.39,4.28,7.59.47,7.98,1v10c-3.93.62-1.08-4.77-2-6.01-5.09-6.9-3.03,9.75,0,10.99l4-2.98c29.54,71.9,152.17,89.5,175,2C217.68,65.64,115.85,15.78,69.5,73.72c-3.03,3.11-6.36.66-5.82-2.76.34-2.13,13.13-16.51,15.82-19.24,6.54-6.63,7.14-3.94,11.95-7.14,1.61-1.07,1.69-4.19,2.38-4.67,1.34-.93,3.93,1.96,5.33,1.37.32-.13.2-3.18,1.66-3.54,25.06-2.39,66.9,1.36,82.68,23.97ZM95.49,211.73h-5.98s0,1.97,0,1.97l5.97,2.02v-3.99Z"/>
      <path class="cls-6" d="M127.5,135.72c-10.71,7.7-23.17,5.57-33.81-1.18-6.56-4.17-3.64-6.19-4.86-8.38-.5-.89-3.95-1-4.97-3.74-2.36-6.33-1.67-27.21,2.03-32.31,1.03-1.41,4.9-1.09,6.16-2.25,12.28-16.65,27.94-20.51,47.05-12.75,14.13,5.35,29.67,20.69,31.29,36.29.63,6.09-2.56,13.32,1.12,20.3-9.56-1.51-3.71,3.32-6.04,10.8-1.7,5.48-11.53,18.71-16.13,22.12-1.93,1.43-5.5.44-7.24,1.7-1.98,1.42-9.95,9.94-11.43,10.6-1.38.61-28.4,4.31-29.9,4.18-7.3-.66-31.51-14.45-37.65-19.56-9.3-6.61-13.96-27.93-16.6-37.61-.39-5.01,3.7-9.14,2.97-14.24-8.73,5.88-.54-9.3,2.03-11-8.95-2.78-1.32-4.72.83-9.14,2.64-5.44,5.67-23.43,13.16-9.84-22.69,42.16-6.68,88.1,44.97,89.99,55.68-4.04,63.06-78.79,15.07-85.19-20.1-2.68-45.07,25.28-25.9,40.06,8.9,6.86,18.01,7.53,25.86-.86l6.04.99c2.2,6.65-3.56,5.94-4.04,11.01Z"/>
      <path class="cls-4" d="M89.5,3.72c8.07-1.6,24.79-4.35,32.42-3.59,2.91.29,23.17,4.85,24.43,5.74,3.73,2.6,3.38,5.53,3.12,9.86C91.57-3.22,23.8,39.11,17.48,99.71c-4.2.42-.93-6.52-2-7.99-.24-.33-7.6,1.84-7.91,2.12-.51.46,2.98,10.27-4.05,11.87-.23-10.58,4.36-21.69,5.98-31.99,3.75-1.42,4.67-2.93,2-6,1.17-2.8,4.24-6.69,6-10,11.75-2.54,8.61-6.03,10.02-15.99l2.97,3.98c4.24-5.14,16.27-7.36,16.81-14.9.24-3.3-4.84-5.93,3.54-6.41,2.24-.13,6.11,1.76,6.65,1.31,4.49-3.74-5.15-3.44-3.97-5.97,5.86-1.6,18.69-3.02,20.36-9.49,1.97-.87,12.2.88,15.63-6.53Z"/>
      <path class="cls-5" d="M9.5,75.72c-2.93,9.47-5.77,20.19-5.98,29.99,7.03-1.6,3.55-11.42,4.05-11.87.3-.27,7.67-2.45,7.91-2.12,1.07,1.47-2.2,8.41,2,7.99-1.21-5.27.49-7.75,2.02-11.99-1.01,18.54-4.24,39.69,0,58l-4,2.98c-3.04-1.24-5.1-17.89,0-10.99.92,1.24-1.93,6.62,1.99,6.01v-10c-.38-.53-6.59,3.28-7.97-1-.67-2.08,4.98.58,3.97-2.96l-2.47-.05-1.5-7.97,5.97,5.98.03-16-10,.02,5.98,4.01c-1.35,3.96-6.96,3.12-7.5,9.27-.28,3.12,2.15,5.73,2.44,8.41.86,7.88-2.73,10.79,7.07,17.31l-3.96,1-.03,3.99C-3.61,124.07-.86,112.12,4.2,80.12c.73-4.65-3.26-4.96,5.31-4.4Z"/>
      <path class="cls-3" d="M9.5,155.72c5.21-1.09,3.05,4.37,5.27,6.19,1.3,1.06,4.84.71,6.29,2.22,2.95,3.07,7.98,20.8,10.47,22.55,4.37,3.06,15.93,1.42,13.98,11.03,3.87.67-.15-5.4,4.96-4,3.78,2.72-.32,8.35,8.93,4.03,1.6,17.98,14.76,3.76,18.07,5.98l2.05,10,2.96-5.99c5.74,12.38,15.98,10.99,28.03,9.54,1.27-.15.99-3.01,1.93-3.09,7.82-.63,15.93,2.8,23.58-.44,1.07-.46,1.03-3.24,2.98-3.92,5.31-1.84,14.58-.06,20.48-2.11v2c-4.81,2.01-5.67,6.11-13.99,1.99l-1.14,6.14c-10.43-.08-19.14,3.61-29.75,3.9-41.45-.55-92.37-23.62-105.11-66.03Z"/>
      <path class="cls-9" d="M183.5,61.72c12.35.4,7.8,8.58,8.43,9.67,20.33,15.07,23.16,69.68,12.02,91.84-2.92,6-6.21,2.15-6.44,2.49.34,2.93,2.82,15.2-7.74,14.2-.41.29,2.52,2.48-4.27,7.8,2.11-2.16.18-9.24.48-9.66,4.72-5.93,9.81-20.06,17.52-20.38.86-1.2-4.3-3.47-3.71-6.56.32-1.67,3.42-3.39,3.57-6.29-.06-4.08-5.62-9.86,2.1-9.17.77-1.07-2.88-2.87-3.14-4.87-.6-4.66,6.49-17.24,2.64-22.67-.49-.68-9.76-1.51.54-5.39-6.07-3.14-3.97-9.98-5.36-13-4.28-9.3-11.07-18.65-16.64-28.01Z"/>
      <path class="cls-1" d="M79.5,51.72c-2.69,2.72-15.48,17.11-15.82,19.24-.54,3.42,2.79,5.87,5.82,2.76-.23.28-3.62,5.37-4,6-7.49-13.6-10.53,4.39-13.16,9.84-2.14,4.42-9.78,6.36-.83,9.14-2.56,1.7-10.76,16.88-2.03,11,.73,5.11-3.36,9.24-2.96,14.24.29,3.69,7.08,23.61,8.98,27.78-13.28-15.36-15.01-45.46-8.81-64.21,3.62-10.94,18.14-24.22,23.38-32.19,3.04-4.62,4.39-3.95,9.43-3.59Z"/>
      <path class="cls-7" d="M89.5,3.72c-3.43,7.41-13.66,5.66-15.63,6.53-1.68,6.48-14.47,7.89-20.36,9.49-1.17,2.53,8.47,2.24,3.97,5.97-.54.45-4.41-1.43-6.65-1.31-8.38.48-3.31,3.1-3.54,6.41-.54,7.54-12.57,9.76-16.81,14.9l-2.97-3.98c-1.42,9.96,1.73,13.45-10.02,15.99,9.68-18.23,10.59-16.72,23.05-27.88C50.44,13.45,71.62,7.58,89.5,3.72Z"/>
      <path class="cls-2" d="M179.5,191.72c.28,10.38-12.16,14.72-20,18,.06-10.39,12.7-13.06,20-18Z"/>
      <path class="cls-8" d="M127.5,135.72c.48-5.07,6.24-4.36,4.04-11.01l-6.04-.99v-13.99c15.26.12,11.81,18.94,2,25.99Z"/>
      <path class="cls-5" d="M9.5,73.72c.77-2.71.85-3.26,2-6,2.67,3.07,1.75,4.58-2,6Z"/>
      <polygon class="cls-3" points="95.49 211.73 95.48 215.72 89.52 213.7 89.51 211.74 95.49 211.73"/>
    </g>
  </g>
</svg>