<?xml version="1.0" encoding="UTF-8"?>
<svg id="Calque_2" data-name="Calque 2" xmlns="http://www.w3.org/2000/svg" viewBox="0 0 202.84 213.43">
  <defs>
    <style>
      .cls-1 {
        fill: #f4ea76;
      }

      .cls-2 {
        fill: #f3e872;
      }

      .cls-3 {
        fill: #f6e652;
      }

      .cls-4 {
        fill: #f6ed9c;
      }
    </style>
  </defs>
  <g id="Calque_1-2" data-name="Calque 1">
    <g>
      <path class="cls-2" d="M21.6,13.95c108.41-52.17,218.68,50.81,168.96,161.97-4.7,10.27-22.41,49.22-36.96,34.03v-2c9.08-.5,4.24-6.62,4.01-11.99h11.99c-2.68,3.26-2.54,11.83,1.96,7.97.25-.21.52-3.38,1.98-4.94,15.23-16.49,38.05-79.51,20.08-97.04-.95,6.62,3.65,19.75-6.01,19.99-3.61-9.73-.37-21.42-2.43-30.58-1-4.43-5.42-7.86-7.1-12.9-.38-1.14-2.99-12.08-2.51-12.5.58-.5,9.19.29,8.02-5-1.64-7.39-11.14-5.14-12.65-5.71-20.77-7.82-34.7-25.4-57.34-23.33-2.06-9.96,22.55,3.97,19.99-6.96-.2-.86-13.46-7.62-15.5-8.51-3.07-1.34-8.51-.46-11.22-2.33-2.53-1.75-.12-7.81-8.71-9.75C79.92.27,38.8,8.05,21.6,15.95v-2Z"/>
      <path class="cls-4" d="M21.6,13.95v2c-3.25,1.49-6.26,3.57-9.92,4.1l3.91,11.89-11.99-1.97c18.26,36.53,54.07,66.27,79.98,97,23.23,26.9,45.07,55.46,70.02,80.98v2c-10.4-5.66-16.9-17.2-24.97-26.03C85.72,136.33,36.6,86.6.58,33.84-3.49,23.28,15.12,17.02,21.6,13.95Z"/>
      <path class="cls-3" d="M21.6,15.95C38.8,8.05,79.92.27,98.16,4.39c8.59,1.94,6.18,8,8.71,9.75,2.72,1.88,8.16.99,11.22,2.33,2.04.89,15.3,7.65,15.5,8.51,2.56,10.93-22.05-3-19.99,6.96,22.66-2.07,36.56,15.5,57.34,23.33,1.51.58,11-1.68,12.65,5.71,1.17,5.29-7.44,4.5-8.02,5-.48.42,2.13,11.36,2.51,12.5,1.68,5.03,6.1,8.46,7.1,12.9,2.06,9.16-1.18,20.85,2.43,30.58,9.65-.25,5.06-13.38,6.01-19.99,17.97,17.38-4.84,80.6-20.08,97.04-1.46,1.56-1.73,4.73-1.98,4.94-4.51,3.85-4.64-4.72-1.96-7.97h-11.99c.23,5.36,5.07,11.48-4.01,11.98-24.95-25.52-46.79-54.08-70.02-80.98C57.67,96.24,21.86,66.51,3.6,29.97l11.99,1.97-3.91-11.89c3.66-.53,6.67-2.61,9.92-4.1ZM171.59,71.94c-5.95,2.52-11.1-.21-16.94-.07-13.99.32,5.29,8.58,5.07,14,15.3-9.65,5.07,9.65,17.86,8.08l-6-22.01ZM160.38,179.29c-14.93-22.37,13.31-20.45,15.08-26.58.75-2.59-2.05-6.62-1.87-9.76.11-1.92,8.47-31.77,0-26.02-6.41,2.09-2.91,52.4-19.12,27.16-.77-2.41-2.68-16.71-2.6-19.23.27-8.33,11.56-9.66,6.27-20.43-1.61-3.28-5.73-4.86-8.25-7.76-2.14-2.47-4.11-8.43-6.29-9.71-1.46-.85-16.82-2.36-18.1-1.9-2.98,1.08-11.22,12.61-11.19,15.91.01,1.24,9.1,15.49,10.65,20.62,3.26,10.78-.88,18.64,12.62,24.36l-4-10.98c7.86-4.43,5.02,2.36,7.03,4.95,1.65,2.13,5.11,1.38,6.42,2.6.78.72,6.87,12.89,6.48,14.26-.58,2.04-13,8.38-11.16,15.22,1.64,6.1,17.88,18.51,21.24,10.93,1.59-3.59-2.6-2.73-3.2-3.63Z"/>
      <path class="cls-1" d="M160.38,179.29c.6.9,4.79.04,3.2,3.63-3.35,7.58-19.6-4.83-21.24-10.93-1.83-6.84,10.58-13.18,11.16-15.22.39-1.37-5.7-13.53-6.48-14.26-1.31-1.22-4.77-.47-6.42-2.6-2.01-2.59.83-9.37-7.03-4.95l4,10.98c-13.5-5.72-9.36-13.58-12.62-24.36-1.55-5.13-10.64-19.38-10.65-20.62-.03-3.3,8.2-14.83,11.19-15.91,1.28-.47,16.64,1.05,18.1,1.9,2.18,1.28,4.15,7.24,6.29,9.71,2.52,2.9,6.63,4.48,8.25,7.76,5.29,10.77-6.01,12.1-6.27,20.43-.08,2.53,1.83,16.82,2.6,19.23,16.25,25.23,12.67-25.04,19.12-27.16,8.47-5.75.1,24.1,0,26.02-.17,3.14,2.62,7.17,1.87,9.76-1.77,6.13-30.01,4.21-15.08,26.58Z"/>
      <path class="cls-2" d="M171.59,71.94l6,22.01c-12.79,1.57-2.57-17.72-17.86-8.08.21-5.42-19.06-13.68-5.07-14,5.84-.13,10.99,2.6,16.94.07Z"/>
    </g>
  </g>
</svg>