<?xml version="1.0" encoding="UTF-8"?>
<svg id="Calque_2" data-name="Calque 2" xmlns="http://www.w3.org/2000/svg" viewBox="0 0 294.9 170.44">
  <defs>
    <style>
      .cls-1 {
        fill: #fdfdf7;
      }

      .cls-2 {
        fill: #f0e56e;
      }

      .cls-3 {
        fill: #f9f5bc;
      }

      .cls-4 {
        fill: #efe15d;
      }

      .cls-5 {
        fill: #fdfdf2;
      }

      .cls-6 {
        fill: #f2ea94;
      }
    </style>
  </defs>
  <g id="Calque_1-2" data-name="Calque 1">
    <g>
      <path class="cls-4" d="M182.91,158.05c-.4.25-.66,7.13-4.97,5.99-2.82-.74-2.49-6.98-3.33-7.67-3.32-1.34-10.06,1.38-11.7-4.32,7.53-8.9.84-11.46-.13-18.92-.56-4.33,1.63-26.92,2.67-31.55,1.49-6.69,8.48-11.58,10.39-15.61,2.35-4.97,1.44-10.11,5.41-16.59,2.65-4.32,16.86-17.98,17.37-20.61C180.82,14.6,125.64-.66,90.2,14.34,47.39,32.82-6.44,90.78,12.91,140.05l-.97,7.98C-29.47,95.32,46.03,15.31,98.41,2.56c32.22-7.71,72.09,2.45,96.52,24.47,2.7,2.43,22.74,24.86,23.54,26.46,18.06,36.26-8.7,73.92-34.68,96.5-2.36,3.22-3.98,4.09-.88,8.06ZM174.91,140.05c13.92-3.23,34-34.08,34-47v-30c0-.74-3.02-3.41-4.97-2.99-5.18,1.1-29.03,44.1-29.03,50.99v29Z"/>
      <path class="cls-2" d="M48.91,86.05c8.12-1.13,4.36-2.35,4.26-8.7.7-2.38,4.16-2.58,5.06-3.97,3.32-5.13,12.66-27.02,20.68-21.31-5.59,20.27-24.89,33.41-29.54,57.45-5.7,30.27,28.31,32.99,49.54,24.53,12.72-5.07,35.61-28.44,46.07-38.94,3.57-3.59,8.33-19.8,13.35-5.99-6.04,4.04-8.12,12.58-11.42,16.94-16.62,25.2-52.44,28.4-24,44,6.76,17.49,35.41,1.01,40,2,1.62,5.69,8.39,2.99,11.7,4.32.84.69.51,6.93,3.33,7.67,4.32,1.14,4.58-5.74,4.97-5.99,17.86,6.41,29.34-10.69,42-14-2.29,2.12-15.78,14.12-13.99,15.99,13.28.13,15.11-4.86,19.97-15.98-1.94.14-4.09-.29-5.99-.01,17.79-15.7,44.87-43.46,69.99-39.99-2.88,12.44-80.62,65.1-90.88,66.08-7.7,1.02-19.41-.73-26.72-3.47-4.57-1.71-8.19-6.28-11.4-6.63-6.49-.71-14.79,5.31-21.23,6.74-25.38,5.64-30.28-18.31-44.8-18.87-8.14-.32-13.25,5.33-20.42,7.7s-15.88,3.03-23.44,4.53c-23.25,10.21-51.05-4.97-55.09-30.09l11.03,17.98.97-7.98c12.14,15.25,37.41,15.22,53.98,6.97-.52-5.82-11.57-3.05-15.42-5.53-.76-.49-9.72-13.58-10.07-14.92-2.38-9.08.08-35.42,7.51-40.51ZM274.19,119.34c.61-.56,9.91-11.19,3.73-11.24l-15,10.98c1.25,7.89,7,4.17,11.28.26ZM254.9,128.06c-1.44-1.52-17.05,5-11.98,11.98,4.55,1.37,15.49-8.28,11.98-11.98ZM196.9,162.06h-9.98v3.98h9.98v-3.98Z"/>
      <path class="cls-1" d="M192.91,40.05c.97,3.42,2.64,6.18,1.04,9.88-1.3,3-18.17,21.97-19.06,15.01,6.8-35.57-34.46-53.14-63.97-43.88-21.88,8.09-60.82,39.86-62,65-7.44,5.09-9.89,31.44-7.51,40.51.35,1.35,9.32,14.43,10.07,14.92,3.85,2.48,14.9-.29,15.42,5.53-144.85,41.65,8.32-230.49,126.02-106.97Z"/>
      <path class="cls-5" d="M174.91,140.05v-29c0-6.89,23.85-49.9,29.03-50.99,1.96-.41,4.97,2.26,4.97,2.99v30c0,12.92-20.08,43.77-34,47Z"/>
      <path class="cls-3" d="M170.91,40.05c4.91,9.47,4.72,13.77,3.97,24.88.89,6.96,17.76-12,19.06-15.01,1.6-3.7-.07-6.46-1.04-9.88,1.79,2.18,6.55,4.3,5.7,8.72-.51,2.63-14.72,16.29-17.37,20.61-3.97,6.48-3.06,11.62-5.41,16.59-1.91,4.03-8.9,8.92-10.39,15.61-1.03,4.64-3.23,27.23-2.67,31.55.97,7.46,7.66,10.02.13,18.92-4.55-1-33.28,15.49-40-2,2.19,1.24,8.87,5.5,9.45,5.67,5.07,1.52,27.13-4.38,29.7-9.73,1.51-3.14-2.69-6.35-3.26-10.83-1.42-11.07,4.17-23.53,2.11-35.1-6.32-.25-7.91,7.35-11.91,11.07-10.97,10.22-23.47,19.21-34.05,29.92,3.31,2.42,5.41,6.27,7.96,9-28.43-15.59,7.34-18.78,24-44,3.91-1.09,4.39-5.17,6.73-7.41,2.93-2.81,1.6-.26,5.88-5.87,1.25-1.64,4.65-1.93,5.12-3.84.5-2.03-2.9-7.65-1.72-8.84,15.44,2.13,8.94-30.58,7.98-40.04Z"/>
      <path class="cls-2" d="M10.91,136.05c-1.13-2.54-1.62-2.28-2-6l2,6Z"/>
      <path class="cls-6" d="M170.91,40.05c.96,9.47,7.46,42.17-7.98,40.04-1.19,1.19,2.22,6.81,1.72,8.84-.47,1.91-3.88,2.21-5.12,3.84-4.28,5.61-2.96,3.06-5.88,5.87-2.34,2.24-2.82,6.32-6.73,7.41,3.29-4.36,5.37-12.9,11.42-16.94-5.02-13.81-9.78,2.41-13.35,5.99-10.46,10.51-33.35,33.88-46.07,38.94,4.32-9.55,15.89-13.03,22.1-18.9,72.86-65.36,30.9-127.89-44.1-57.1.78-1.83.84-4.18,2-5.98-8.03-5.72-17.37,16.18-20.68,21.31-.9,1.39-4.36,1.59-5.06,3.97.12,6.34,3.83,7.59-4.26,8.7,1.15-25.11,40.13-56.94,62-65,20.34-5.77,49.78-.73,60,19Z"/>
      <path class="cls-4" d="M224.91,144.05c1.9-.28,4.05.16,5.99.01-4.87,11.15-6.71,16.11-19.97,15.98-1.79-1.88,11.7-13.87,13.99-15.99Z"/>
      <path class="cls-4" d="M274.19,119.34c-4.27,3.91-10.03,7.63-11.28-.26l15-10.98c6.19.05-3.11,10.68-3.73,11.24Z"/>
      <path class="cls-4" d="M254.9,128.06c3.51,3.7-7.43,13.35-11.98,11.98-5.07-6.98,10.54-13.5,11.98-11.98Z"/>
      <rect class="cls-4" x="186.92" y="162.06" width="9.98" height="3.98"/>
    </g>
  </g>
</svg>