<?xml version="1.0" encoding="UTF-8"?>
<svg id="Calque_2" data-name="Calque 2" xmlns="http://www.w3.org/2000/svg" viewBox="0 0 263.69 252.44">
  <defs>
    <style>
      .cls-1 {
        fill: #99d2e7;
      }

      .cls-2 {
        fill: #ceebf0;
      }

      .cls-3 {
        fill: #eafafc;
      }

      .cls-4 {
        fill: #dbf6fa;
      }

      .cls-5 {
        fill: #d5f1f6;
      }

      .cls-6 {
        fill: #dff7fb;
      }

      .cls-7 {
        fill: #d3f3f9;
      }

      .cls-8 {
        fill: #eefbfc;
      }

      .cls-9 {
        fill: #effafb;
      }

      .cls-10 {
        fill: #aed6e2;
      }
    </style>
  </defs>
  <g id="Calque_1-2" data-name="Calque 1">
    <g>
      <path class="cls-1" d="M182.78,13.65c7.31,1.68,19.52,8.93,25.46,12.57,3.19,3.9-.98,9.96,10.53,5.45-1.19,4.48-7.77,2.18-5.98,7.99,3.18-3.47,9.09,4.53,11.98,7.99,51.07,64.5,8.49,167.93-70,186l-2-8c7.3-1.28,19.72-3.67,24-9.98-44.58,11.3-92.45,6.16-130.71-20.31-8.5-6.49-15.91-20.42-24.3-27.7-.68,5.15,4.33,13.73,7.01,17.99-4.77,3.6,1.12,10.71-.02,16-4.3-.47-2.89-7.23-5.98-8-6.06,4.37-5.18-2.81-6.21-6.44-4.46-9.11-9.22-27.41-11.62-38.74-13.35-52,.23-79.39,41.84-110.82C92.09,9.26,129.86,5.05,182.78,13.65ZM206.78,43.63c-8.15-10.49-27.55-19.07-40.39-22.58-16.7-4.56-32.5.93-49.61-3.38,1.85,10.14,14.12,5.12,22.98,6s24.04,2.4,31.68,5.95c7.07,3.29,2.92.72,9.81,2.34,6.47,1.51,17.26,12.52,25.52,11.67ZM226.77,115.64c4.68-55.45-46.3-91.23-97.98-85.97,43.98,10.82,83.04,34.75,93.98,81.07.89,3.18-2.17,5.92,4,4.89ZM108.77,37.66c-36.97-2.16-64.51,39.94-67.74,73.23-1.54,15.81,4.04,29.7,1.75,44.74l5.99.02c-10.54-49.61,13.91-97.64,60-118ZM118.25,42.12c-84.03,21.66-90.5,148.59,2.12,162.95,107.2,22.57,98.6-179.78-2.12-162.95ZM8.77,123.66c.82-12.86,5.55-25.55,13.49-35.53l10.5-32.48C12.94,70.46,1.63,95.88,4.78,120.69c.35,2.75,1.38,6.16,3.99,2.97ZM166.78,203.63c61.61-15.47,69.89-95.89,27.04-136.03-3.74-3.84-12.84-12.33-17.04-10.96,39.5,41.12,35.93,111.79-10.01,146.99ZM38.14,115.27c.67-.89.21-18.01,1.1-22.16,1.71-7.95,8.79-15.29,9.52-23.46-19.08,12.06-23.37,55.32-10,71.99-.37-5.78.28-13.08-.72-18.62-.82-3.16-7.22-7.01.1-7.75ZM56.77,191.64c-7.32-11.38-25.83-38.09-27.61-51.55-.94-4.6,3.04-12.72-2.36-14.42-4.63,15.77,11.14,64.13,29.97,65.98Z"/>
      <path class="cls-10" d="M196.78,19.65c10.58-.04,20.25,7.6,28,14-1.45-1.7-5.06,8.26,2,5.98l-2-5.98c96.45,84.64-3.15,230.38-116.87,218.05-1.23-.03-.98-3.89-2.4-4.16-25.79,7.3-83.15-24.6-82.73-53.89,3.09.77,1.68,7.53,5.98,8,1.14-5.29-4.75-12.4.02-16,2.94,4.68,22.33,28.88,26,25.98l-3.99-6.99c2.64-3.37,6.15,3.38,9.97,3.04l-3.97,3.95c11.3-1.46,19.28,7.53,28,11.01,18.17,7.25,48.71,6.39,67.99,3.01l2,8c-16.11,5.32-28.37,8.58-46.2,3.12-3.8-1.16-3.09-4.54-8-5.84-35.16-4.2-44.18-6.1-69.78-33.27,89.26,130.87,306.53-31.24,195.97-154.97l-1.98,4.97c-2.89-3.46-8.8-11.46-11.98-7.99-1.8-5.82,4.79-3.51,5.98-7.99-11.51,4.51-7.35-1.55-10.53-5.45-.42-.51-9.59-5.57-11.46-6.57Z"/>
      <path class="cls-2" d="M182.78,13.65c-53.08-8.58-90.58-4.42-136,24C71.22-4.06,143.4-9.64,182.78,13.65Z"/>
      <path class="cls-8" d="M224.78,47.65l1.98-4.97c110.58,123.8-106.77,285.81-195.97,154.97,25.61,27.19,34.68,29.08,69.78,33.27,4.91,1.31,4.2,4.68,8,5.85,17.83,5.46,30.09,2.2,46.2-3.12,78.48-18.05,121.07-121.52,70-186Z"/>
      <path class="cls-9" d="M226.77,115.64c-6.17,1.03-3.11-1.71-4-4.9-10.92-46.31-50.03-70.28-93.98-81.07,51.68-5.26,102.66,30.52,97.98,85.97Z"/>
      <path class="cls-6" d="M28.78,185.65c-2.68-4.26-7.69-12.84-7.01-17.99,8.39,7.28,15.79,21.22,24.3,27.7,38.29,26.47,86.11,31.61,130.71,20.31-18.01,16.49-69.98,14.76-91.99,6.98-8.72-3.48-16.69-12.47-28-11.02l3.97-3.95c-3.82.35-7.33-6.41-9.97-3.04l3.99,6.99c-3.67,2.9-23.06-21.3-26-25.98Z"/>
      <path class="cls-5" d="M108.77,37.66c-46.1,20.38-70.53,68.37-60,118l-5.99-.02c2.28-15.05-3.29-28.94-1.75-44.74,3.23-33.29,30.77-75.39,67.74-73.23Z"/>
      <path class="cls-3" d="M8.77,123.66c-2.61,3.19-3.64-.22-3.99-2.97-3.15-24.8,8.16-50.23,27.98-65.04l-10.5,32.48c-7.94,9.98-12.67,22.67-13.49,35.53Z"/>
      <path class="cls-4" d="M206.78,43.63c-8.26.85-19.06-10.16-25.52-11.67-6.89-1.61-2.74.95-9.81-2.34-7.64-3.55-22.84-5.08-31.68-5.95s-21.12,4.14-22.98-6c17.11,4.31,32.91-1.17,49.61,3.38,12.84,3.5,32.24,12.09,40.39,22.58Z"/>
      <path class="cls-5" d="M38.14,115.27c-7.31.74-.91,4.58-.1,7.75,1,5.54.35,12.84.72,18.62-13.35-16.69-9.11-59.88,10-71.99-.73,8.17-7.81,15.51-9.52,23.46-.89,4.15-.44,21.27-1.1,22.16Z"/>
      <path class="cls-7" d="M56.77,191.64c-18.79-1.83-34.6-50.15-29.97-65.98,5.4,1.71,1.42,9.83,2.36,14.42,1.7,13.32,20.38,40.34,27.61,51.55Z"/>
      <path class="cls-1" d="M224.78,33.65l2,5.98c-7.06,2.28-3.45-7.68-2-5.98Z"/>
    </g>
  </g>
</svg>