<?xml version="1.0" encoding="UTF-8"?>
<svg id="Calque_2" data-name="Calque 2" xmlns="http://www.w3.org/2000/svg" viewBox="0 0 214.49 326.54">
  <defs>
    <style>
      .cls-1 {
        fill: #7aba79;
      }

      .cls-2 {
        fill: #83bd7f;
      }

      .cls-3 {
        fill: #77b675;
      }

      .cls-4 {
        fill: #b3d6af;
      }

      .cls-5 {
        fill: #c1dfbd;
      }

      .cls-6 {
        fill: #a8d1a5;
      }

      .cls-7 {
        fill: #98ca95;
      }

      .cls-8 {
        fill: #dcf2d9;
      }

      .cls-9 {
        fill: #8cc189;
      }

      .cls-10 {
        fill: #81be80;
      }

      .cls-11 {
        fill: #e5f5e2;
      }

      .cls-12 {
        fill: #a6d0a2;
      }

      .cls-13 {
        fill: #82bd80;
      }
    </style>
  </defs>
  <g id="Calque_1-2" data-name="Calque 1">
    <g>
      <path class="cls-13" d="M126.28,82.05c7.7,4.8,45.66-8.68,47.99-6.01.98,1.13-2.52,10.45,4.01,12.01-.31.51-1.41,1.5-2,2l-6.99-5.99c-3.46,12.71-8.79,3.46-11.59,11.13-10.08-.75-.43,5.61-6.42,8.82-5.8-7.83-10.67,2.31-16.5,5.53s-12.41,2.23-13.97,2.97c-3.38,1.61-8.16,9.4-4.55,13.54-10.42-6.36-10.7.88-14.47,2.57-8.26,3.7-25.2,4.4-15.51,15.41l-17.99.04,6.01,6.96-6.01,3c12.43.04,26.21,1.09,37.85-3.07,3.72-.23,8.73,7.97,10.14-2.91,6.65-2.14,10.92-2.05,17.79-1.07l1.21,7.03,3.13-7.91c5.11,1.46,15.64-1.27,9.87,7.95-27.75,6.23-44.36,10.11-73.11,11.08-1.29.04-2.74,1.98-3.89,2.02-3.15.1-12.81-9.81-15.01-13.09,18.49-23.84,59.3-43.66,85.39-59.61,18.85-12.33-21.37,1.88-24.89,3.09-4.12,1.54-9.33.83-12.5,4.52-20.26-1.06-62.95,19.12-86,24l4.03-10.02,13.96,2.01-7.99-4.01c1.41-3.59,4.94-5.92,8-7.98-.64,7.43,2.08,2.86,5.01,2.01,29.61-8.49,54.17-17.8,84.99-26.01Z"/>
      <path class="cls-3" d="M24.28,106.05c4.17-7.68,59.55-38.51,71.05-45.95,16.09-11.79,51.68-27.62,60.95-44.03-25.2,4.23-50.52,9.38-75.26,15.72-11.64.79-79.11,31.49-76.73,14.28,29.29-9.26,57.5-23.6,88.59-24.41,8.84-6.93,23.25-7.86,32.4-8.17,2-.07,4.83-7.17,11.8-5.53,1.34.31,1.11,3.4,1.53,3.69,2.34,1.61,4.83-2.36,7.26-3.01,5.75-1.54,28.1-8.52,31.23-8.64C196.53,21.09,38.84,96.21,28.28,114.03l7.99,4.01-13.96-2.01-4.03,10.02c-3.02.93-8.35,3.3-10,0,2.37-3.85-7.78-4.51-3.98-8,.76-.7,3.65,1.68,5.09,1.43,2.22-.39,2.11-4.25,3.31-4.97,7.09-1.94,12.11,2.28,11.59-8.46Z"/>
      <path class="cls-9" d="M200.28,194.05l2,4c-.24.61.27,1.53,0,2-8.74.75-21.99,4.54-24.03,13.98h-1.95s-1.14-4.09-1.14-4.09l-10.91,3.09.02,9.02c-2.1.07-15-.19-15.96-2.99.28-5.99,16.97-14.43,9.94-21-2.26-2.11-12.21,11-15,11.98l-.98-5.97c-5.65,1.65-24.28,1.28-17.99,11.98-4.64,1.45-30.79,8.82-32,10-8.36,6.13,1.34-6.96-4.96-3.97-4.84,3.11-16.88,5.56-17.14,11.87-2.36,1.34-5.45-3.24-6.89-3.27-2.91-.06-13.93,10.69-17.96,11.42-3.6.65-4.37-2.34-3.02-4.05.46-.58,5.85,1.73,3.97-4-5.9,2.71-12.98,2.09-7.99-6.01,1.37-.94,1.66-3.76,2-4,10.29-7.22,9.03,1.51,13.95-.85,7.14-3.42,3.95-12.27,7.06-13.15,2.43,3.36,2.05,6.92,6.98,3.99l.03,9.99c7.33,1.19,2.03-3.91,2-7.98,17.61,1.76,21.03-3.76,37.62-9.57,3.51-.87,6.99,1.26,9.88.25s2.95-5.48,5.75-6.37c15.45-.37,16.92-3.35,28.15-9.91,8.68-3.71,35.9,1.2,39.71-8.52,10.67-.22,6.85,10.7,8.87,12.1Z"/>
      <path class="cls-4" d="M124.28,216.05c-6.29-10.7,12.35-10.33,17.99-11.98l.98,5.97c2.8-.98,12.74-14.09,15-11.98,9.59,11.53-30.11,22.98,4.02,23.99l-13.04,9.98-2.71-.32c-2.82-10.64-3.68.63-7.43,4.15-5.48,3.24-74.67,40.67-28.83,24.19l-3,8.02c-2.54-11.35-12.28,4.67-8.98,7.94.29.29,7.57,2.03,7.98,2.04-4.08-1.45-3.68,3.77-5.39,4.05-5.03.83-15.29-2.26-19.49-2.11-1.11.04-.88,6.31-6.11,4.05l-11.11-16.83c7.58-4.53,11.36-12.02,17.98-18.27,10.68-8.43,27.94-22.14,42.08-18.92.5-.64-.72-4.2.4-5.49,1.62-1.87,17.67-3.99,17.65-12.46-.73-.57-15.44,3.18-18,3.98Z"/>
      <path class="cls-7" d="M204.28,248.05c-11.47,6.33-21.49,10.69-31.9,19.06-5.76,4.69-8.45,12.88-15.81,9.29-4.5,8.75-3.03,8.83-13.25,13.69-4.7,4.61-.68,13.69-3.03,19.96,5.45-.54,4.19-7.28,4.5-7.66.9-1.09,4.17-1.23,5.48-2.34-.96,7.42,12.3,8.21,13.66,10.4,1.03,1.67-.38,5.11.78,7.13,1.02,1.78,9.19,2.5,4.55,8.48-3.98,1.65-6.87-1.47-8.99-2.01,12.01,2.58-.3-11.66-4.1-12.88-3.42-1.09-17.36-2.36-11.9,4.88-2.25-1.43-5.59,1.26-9.83-5.34-5.43-8.45,1.27-13.98,5.15-19.44,2.23-3.14-1.96-7.01,8.68-5.24.73-.63-2.86-4.4-1.91-5.74,1.56-2.21,19.6-12.35,23.92-12.26-1.26-14.74-5.57-4.22-11.03-4.69-4.69-.41-2.34-7.57-8.25,4.31-15.66.85-38.22,14.93-52.71,8.36-3.3-3.27,6.44-19.29,8.98-7.94l3-8.02c24.03-4.35,73.11-24.16,94-12Z"/>
      <path class="cls-6" d="M140.28,182.05c-14.42,8.66-25.87,18.01-43.99,14.01l.96,3.96,5.02,1c-2.99,5.43-31.52,8.65-17.98,15.03-4.2.69-9.58-.51-13.99.01.04,4.06,5.34,9.16-2,7.98l-.03-9.99c-4.92,2.92-4.55-.63-6.98-3.99-3.11.87.08,9.73-7.06,13.15-4.92,2.35-3.65-6.37-13.95.85-17.25,1.6,37.86-29.25,40.12-29.01,3.23-1.08,7.24,1.63,7.83,1.02-1.28-9.01,9.74-9.77,16.05-14.01-.38.39,2.59,7.35-2,9.98,5.96,3.5,15.93-7.55,16.96-7.51,3.74.15,8.57,8.65,13.07-6.46l7.96,3.99Z"/>
      <path class="cls-10" d="M204.28,248.05c1.97,2.07,4.76,15.73,1.98,18l-5.95-3.99c.52,2.59-7.44,12.96-8.55,13.38-3.18,1.19-6.84-.07-9.55,1.62-7.17,4.47-2.83,1.45-7.43,3.4-5.21,2.62-22.91,20.1-29.98,21.94-.31.38.95,7.12-4.5,7.66,2.34-6.27-1.67-15.35,3.03-19.96,10.3-4.91,8.7-4.89,13.24-13.69,7.35,3.59,10.05-4.61,15.81-9.29,10.4-8.37,20.44-12.74,31.9-19.06Z"/>
      <path class="cls-12" d="M124.28,146.05c17.28-4.1,37.83-9.45,55.16-15.9,6.03-.77,15.75,2.38,19.71,1.95,1.46-.16.92-4.35,2.09-4.07,3.38.83,14.99,14.17,13.04,16.01-6.06-1.68-5.96,3.47-9.36,5.57-6.74,4.17-15.89,7.19-22.64,10.44-2.27-14.56,9-4.36,10.04-14l5.94,4,.12-5.98,7.89-.02-2.02-11.99-6.99,5.99-2.01-6.01c-4.23-.83-3.88,5.74-6.34,6.18-3.2.57-6.89-2.02-9.87-1.98-7.66.09-12.74.69-8.76,7.84,6.56-2.93,11.07-6.38,15.97,1-2.16,4.32-11.56.53-11.98,1-1.81,2.05,5.64,12.43,7.99,13.99-16.09,7.74-26.28,12.55-42,22-1.98-15.9,4.92-9.56,12.49-12.51,7.4-4.67,11.78-6.41,19.51-7.51,8.44-7.81-20.44-.44-22,.02-.73-7.03,7.2-2.47,13.11-5.9,1.67-.97,6.48-6.55,4.88-8.09-6.64,3.11-12.92,4.4-19.99,5.99,5.77-9.22-4.76-6.5-9.87-7.95l-3.13,7.91-1.21-7.03-9.79-.93Z"/>
      <path class="cls-5" d="M176.28,90.05c-27.48,23.61-67.54,34.69-92,61.98,10.59-.17,21.66-2.01,32-3.98-1.42,10.88-6.42,2.68-10.14,2.91-11.65,4.16-25.41,3.11-37.85,3.07l6.01-3-6.01-6.96,17.99-.04c-9.69-11.01,7.25-11.71,15.51-15.41,3.77-1.69,4.05-8.94,14.47-2.57-3.6-4.14,1.17-11.93,4.55-13.54,1.56-.74,8.09.27,13.97-2.97s10.69-13.36,16.5-5.53c6-3.21-3.66-9.58,6.43-8.82,2.8-7.68,8.11,1.59,11.59-11.13l6.99,5.99Z"/>
      <path class="cls-11" d="M148.28,154.05c7.07-1.59,13.35-2.88,19.99-5.99,1.6,1.54-3.2,7.12-4.88,8.09-5.91,3.43-13.84-1.13-13.11,5.9-2.26,6.86-22.83,3.61-30,14-4.41,3.14-11.62-.45-10,6-1.62.27-5.63-.38-6,0,31.46-26.9-19.96-9.63-34.98-12.04-6.5-3.67-18.21-5.75-13.02-15.96,2.19,3.28,11.86,13.19,15.01,13.09,1.15-.04,2.6-1.97,3.89-2.02,28.75-.96,45.35-4.85,73.11-11.08Z"/>
      <path class="cls-8" d="M114.28,110.05c.67-8.86-3.37-7.65-10-8,3.17-3.69,8.38-2.98,12.5-4.52,6.74-2.51,6.39-2.44,13.48-4.32,39.95-12.42-5.93,10.86-15.98,16.84Z"/>
      <path class="cls-5" d="M178.28,88.05c-6.53-1.56-3.02-10.88-4.01-12.01-2.33-2.68-40.29,10.81-47.99,6.01,8.5-2.27,42.47-11.61,48.79-9.61,4.63,1.47,6.03,10.99,3.21,15.61Z"/>
      <path class="cls-6" d="M38.28,228.05c-5,8.09,2.08,8.72,7.99,6.01,1.88,5.73-3.51,3.42-3.97,4-1.34,1.71-.57,4.7,3.02,4.05,4.03-.73,15.05-11.48,17.96-11.42,1.44.03,4.54,4.61,6.89,3.27.27-6.32,12.29-8.76,17.14-11.88,6.3-2.99-3.39,10.1,4.96,3.97.97,6.96-3.45,3.3-7.08,2.25-.98-.09-.83,2.95-2.46,3.58-10.71,4.19-22.35,4.88-30,7.53-2.58.89-1.46,4.39-5.39,4.81-13.3,1.42-8.86-6.44-17.04-13.17,1.58-3.86,7.14-2.44,7.96-3Z"/>
      <path class="cls-10" d="M144.28,316.05c-5.46-7.24,8.48-5.97,11.9-4.88,3.8,1.21,16.11,15.45,4.1,12.88-5.04-1.73-17.17-1.51-16-8Z"/>
      <path class="cls-4" d="M202.28,200.05c-5.86,10.35-6.69,5.1-12.6,6-1.69.26-16.73,14.72-25.4,16l-.02-9.02,10.91-3.09,1.14,4.09h1.95c2.04-9.44,15.28-13.24,24.03-13.98Z"/>
      <path class="cls-13" d="M24.28,106.05c.5,10.77-4.5,6.51-11.59,8.46-1.2.73-1.09,4.59-3.3,4.97-1.44.25-4.33-2.13-5.09-1.43-3.79,3.48,6.35,4.14,3.98,8-2.46-.61-4.98-2.52-8-2.02-3.03-2.97,19.96-17.51,24-17.98Z"/>
      <path class="cls-8" d="M112.28,112.05l-8,4c3.89-2.54,6.79-3.23,8-4Z"/>
      <path class="cls-2" d="M150.28,162.05c1.56-.46,30.44-7.83,22-.02-7.74,1.1-12.14,2.87-19.51,7.52-7.58,2.94-14.48-3.4-12.49,12.5l-7.96-3.99c-4.51,15.12-9.34,6.62-13.07,6.46-1.04-.04-11,11.01-16.96,7.51,4.59-2.63,1.62-9.59,2-9.98,2.54.02,11.86-.2,14.13-1.06,3.74-13.21,20.07-12.99,29.97-16.09,1.16-.37,1.56-2.75,1.89-2.85ZM128.27,178.06c-2.07-2.05-8.02,3.97-5.98,5.98s8.02-3.97,5.98-5.98Z"/>
      <path class="cls-1" d="M182.28,160.05c-2.34-1.56-9.8-11.95-7.99-13.99.41-.47,9.81,3.32,11.98-1-4.91-7.37-9.42-3.93-15.97-1-3.98-7.15,1.1-7.75,8.76-7.84,2.98-.03,6.67,2.56,9.87,1.98,2.46-.44,2.1-7.01,6.34-6.18l2.01,6.01,6.99-5.99,2.02,11.99-7.89.02-.12,5.98-5.94-4c-1.05,9.64-12.31-.56-10.04,14Z"/>
      <path class="cls-6" d="M110.28,182.05c-1.62-6.45,5.59-2.86,10-6-.47,6.7-3.67,4.97-10,6Z"/>
      <path class="cls-6" d="M128.27,178.06c2.04,2.01-3.9,8.03-5.98,5.98s3.9-8.03,5.98-5.98Z"/>
    </g>
  </g>
</svg>