<?xml version="1.0" encoding="UTF-8"?>
<svg id="Calque_2" data-name="Calque 2" xmlns="http://www.w3.org/2000/svg" viewBox="0 0 333.91 232.13">
  <defs>
    <style>
      .cls-1 {
        fill: #bde2ec;
      }

      .cls-2 {
        fill: #badfe8;
      }

      .cls-3 {
        fill: #bbdde8;
      }

      .cls-4 {
        fill: #f0fbfb;
      }

      .cls-5 {
        fill: #96cbdf;
      }

      .cls-6 {
        fill: #aad4e3;
      }
    </style>
  </defs>
  <g id="Calque_1-2" data-name="Calque 1">
    <g>
      <path class="cls-5" d="M71.75,56.11C84.15-4.88,167.22-13.86,211.75,18.11c4.45,2.82,16.65,12.87,19.35,16.77,1.22,1.76.41,4.97.66,5.24.8.85,5.27-2.81,7.98-1.16,6.47,8.88,21.6,27.94,34,23.16-3.11,10.07-.4,9.33,8,9.99,6.4,9.55,37.5,20.91,39.66,24.4,1.71,2.76-1.81,8.24,6.33,10.61l-3.99,1.98c6.95,1.84,15.36,24.63,6.01,25.04l3.98,4.98c-7.44,2.69-.06,15-2.04,23.66-.32,1.38-3.17,1.35-3.35,1.73-1.62,3.54-2.58,11.9-3.63,15.44-4.78,16.07-28.49,37.93-41,45.04-3.84,2.18-9.87.26-13.11,5.01l-2.66-.16-1.18-3.72c-2.05,4.34-9.9,6.32-14.07,5.61-1.26-.21-.78-3.47-2.21-3.72-14.3,4.13-23.44-4.38-35.73-5.63-6-.01-14.28,6.83-20.84,8.52-3.48.9-10.85-.43-15.14,1.24-4.33-6.25,4.91-3.21,9.51-4.5,2.31-.65,21.54-6.86,19.47-9.5-8.48.97-12.99-7.11-16.69-9.31-7.89-4.17-17.11-8.59-25.3-12.72-7.8-4.04-14.77-5.07-19.97-11.98,1.22,6.26-6.01,1.31-12.82,2.1-18.34,2.1-41.09,14.59-60.23,17.88-5.62.96,1.75-6.66-3.94-3.97-4.8,2.28-7.14,6.13-15.06,4.02.02,1.04,2.06,1.82,2.03,1.96-1.27,2.87-8.93,9.91-12,4,5.93-11.51-1.93-2.65-6-4,1.85-6.92-6.03-9.48-12-10-5.95-5.15-6.41-6.2-10.76-11.14-2.14-2.44-9.5-7.64-10.2-8.91-9.65-22.32-3.73-51.6,8.95-71.95,9.08,6.17,4.3-2.47,7.01-5.96,2.31-2.97,8.42-3.15,7.01-10.04l3.98,6c-17.01,21.17-38.24,60.24-12,82,.55,7.12,8.12,7.88,12,10,49.82,27.19,78.79-22.94,124.55-5.55,6.51,2.48,18.7,12.32,24.15,11.63,22.01-19.25,55.95-16.3,84.04-18.35,2.76-.88,6.79-13.8,8.23-17.76,4.9-13.55,15.17-44.62,5.04-55.96,1.13-4.87,4.58-7.19-2-8.99,8.45-4.11-1.86-15.05-6.58-18.49-1.91-1.39-4.93-.17-5.42-.53-17.29-12.62-38.49-39.53-58-46,1.51-6.06-7.42-4.47-12.47-6.53-3.42-1.39-4.48-3.9-9.53-5.47-34.14-10.65-86.77-5.59-102,32-4.77,11.78,2.97,5.77,4,14-1.26.05-2.84.19-4,0-.22-.04-2.61-3.31-3.99-2-.47.45.41,3.14-.01,4-3.86,7.85-3.66,10.87-6,18l-3.98,2c-.35-8.81.08-18.89,3.98-26ZM229.75,216.08c20.12,4.89,39.44,8.26,57.82-3.15,39.44-25.89,59.16-109.15,1.22-124.9-3.09-.19-3.54-.23-3.07,3.07,5.87,19.54,18.31,24.57,18.25,50.08-.16,3.61-3.65,2.61-4.09,4.22,3.15,28.48-20.36,28.51-36.63,38.66-3.83,3.06-7.69,11.04-11.72,14.83-1.78,1.67-22.63,16.09-21.79,17.19ZM271.76,172.1c26.13-5.78,29.96-40.77,14.98-59.98-1.77,20.91-6.79,40.7-14.98,59.98ZM257.74,182.12c-7.62-1.02-15.4.09-22.86.04-13.42-.09-5.94.72-10.49,1.91-5,1.31-12.69-.29-18.41,1.25-3.22.87-19.16,7.89-18.23,11.76,18.85,11.74,31.7,23.05,52.94,4.98,2.25-1.71,19.4-17.96,17.04-19.94Z"/>
      <path class="cls-3" d="M177.75,202.11c-14.51,3.11-29.14,13.97-42.25,18.75-5.41,1.98-23.9,7.08-28.81,7.35-5.17.29-46.63-6.17-51.72-8-2.36-.85-.45-4.65-1.53-5.69-.73-.7-4.54-.33-7.69-2.41,2.81,2.25,9.64-4.39,10-6,34.49,22.16,78.18,11.87,110-10,4,2.07,8.03,3.81,12,6Z"/>
      <path class="cls-1" d="M211.75,18.11c7.32.72,25.36,3.73,30.79,7.83,2.01,1.52.45,5.05,2.39,6.35,19.78,2.06,26.49,24.92,36.82,39.81-8.41-.65-11.11.09-8-9.99-12.4,4.78-27.54-14.28-34-23.16-2.71-1.65-7.19,2-7.98,1.16-.26-.27.55-3.48-.66-5.24-2.69-3.9-14.89-13.95-19.34-16.77Z"/>
      <path class="cls-6" d="M71.75,56.11c-2.44,5.9-2.7,5.93-4,14,.66-6.21-1.51-4.14-5.37-2.38-12.48,5.69-22.12,15.79-30.63,26.38l-3.98-6c1.41,6.89-4.71,7.08-7.01,10.04-2.71,3.49,2.07,12.13-7.01,5.96,12.93-19.83,32.46-47.13,58-48Z"/>
      <path class="cls-3" d="M25.75,196.11c5.97.52,13.85,3.08,12,10-4.45-1.11-4.69-6.09-6.43-7.39-.58-.44-1.42.98-5.57-2.61Z"/>
      <path class="cls-3" d="M39.75,206.11c3.48-.33,9.33-6.22,4,4-1.5-1.22-3.39-1.81-4-4Z"/>
      <path class="cls-2" d="M183.75,14.11c5.05,1.57,6.11,4.08,9.53,5.47,5.05,2.05,13.99.46,12.47,6.53-14.96-4.96-32.52.82-47.08,5.92-4.43,1.55-9.13,8.44-8.95.14l-3.95-.05c1.72,10.28-11.8,7.31-12,16,37.95-6.84,82.77,5.19,118.55,20.43,1.38.65,16.41,14.99,11.43,3.57.48.35,3.51-.86,5.42.53,4.72,3.43,15.03,14.38,6.58,18.49,6.58,1.79,3.13,4.12,2,8.99-2.68-3-12.81-8.89-16.99-11.99-7.31-5.43-9.28-8.13-19.62-12.4-35.79-14.86-79.48-27.58-117.38-20.59-1.96,1.19-19.64,26.59-22.84,31.16-2.65,3.78-2.12,12.42-9.16,11.82-2.06-7.39,21.02-39.12,17.98-41.98-8.71-1.81-15.95,3.7-23.99,3.99-1.03-8.23-8.77-2.22-4-14-1.03,6.5,3.02,3.6,6.76,3.63,10.25.08,11.23-3.39,12.6-3.69,4.79-1.06,16.56,1.84,23.38-.27,12.08-14.9,33.91-23.33,52.96-27.07,3.53-.81,7.48,1.05,6.3-4.59Z"/>
      <path class="cls-6" d="M67.75,76.11l.02,6,3.98-2c-10.54,35.32-57.17,71.91-40,106-3.88-2.12-11.45-2.88-12-10-.02-.25,1.94-1.69,1.91-4.67-.08-10.25,1.93-7.63,1.91-8.17-.08-2.34-2.89-5.41-1.86-9.85.32-1.35,3.31-1.4,3.4-1.73,2.16-7.67.2-4.92,5.3-13.63.64-1.09-.74-3.65-.49-3.81,3.09-1.94,8.68,3.8,3.81-6.97,13.34-14.94,26.49-31.83,34-51.18Z"/>
      <path class="cls-4" d="M271.76,172.1c8.19-19.28,13.21-39.07,14.98-59.98,14.98,19.21,11.15,54.21-14.98,59.98Z"/>
      <path class="cls-2" d="M81.75,60.11l-4,2c.42-.86-.46-3.54.01-4,1.38-1.31,3.77,1.96,3.99,2Z"/>
    </g>
  </g>
</svg>