<?xml version="1.0" encoding="UTF-8"?>
<svg id="Calque_2" data-name="Calque 2" xmlns="http://www.w3.org/2000/svg" viewBox="0 0 340.28 209.98">
  <defs>
    <style>
      .cls-1 {
        fill: #3b3d38;
      }

      .cls-2 {
        fill: #545550;
      }

      .cls-3 {
        fill: #6e6e6a;
      }

      .cls-4 {
        fill: #3d3e38;
      }

      .cls-5 {
        fill: #2a2b26;
      }

      .cls-6 {
        fill: #41423d;
      }
    </style>
  </defs>
  <g id="Calque_1-2" data-name="Calque 1">
    <g>
      <path class="cls-1" d="M264.6,3.98c10.84,3.71,12.12,16.94,22,20,26.2,37.65,3.1,91.27-18.62,126.37-5.7,9.42-19.35,10.33-7.16,22.42,13.08,12.97,37.06,23.53,55.32,24.68,3.25.2,21.14-2.18,22.19-1.33,7.57,6.12-9.11,11.2-15.01,11.7-7.9.66-14.24-4.59-15.71,2.17-6.68-6.97-16.7-6.37-25.06-8.72-3.47-.83-14.81-5.25-9.96-9.2-12.23-1.91-18.73-13.78-30.97-16.11.07,6.23-9.75,11.52-15.2,14.85-17.96,11-33.2,14.66-53.85,8.15-11.28-3.56-6.55-7.24-8.03-8.95-11.05,4.89-13.08-12.46-25.95-10.02.54-1.34-.55-5.4.02-6,.64-.67,10.03,3.98,12.1,4.9,2.54,1.13,2.45,6.18,5.88-.9,8.34,8.84,29.44,18.65,41.78,17.01,7.52-1,36.04-16.64,39.19-23.04,4.03-8.17-1.29-7.05-2.89-9.48-8.03-12.21-10.99-19.88-16.7-32.98-1.42-3.27,2.62-5.4-5.38-8.53l3.99-1.98c-13.47-26.11-14.15-66.1,1.23-91.53,1.52-3.42,1.97-9.38,4.94-13.78,8.06-11.78,29.8-18.42,41.83-9.71ZM244.08,8.48c-41.28,25.2-26.45,104.66-4.32,139.34,9.79,15.34,10.58,11.13,19.67-2.01,23.13-33.45,41.09-75.89,22.17-115.82-6.45-13.61-21.49-25.68-37.51-21.51Z"/>
      <path class="cls-5" d="M138.6,179.98c-19.67,27.66-60.22,27.1-84.71,5.7-3.04-2.37-4.85-8.39-8.18-7.65-12.92,11.97-25.44,29.27-45.11,27.93-4.17-3.47,14.3-10.21,15.76-11.22,3.97-2.75,25.44-20.95,25.67-23.74C-12.94,84.75,64.7,26.14,75.07,97.02c8.73,3.44,1.25,20.41.52,26.03-.56,16.33-11.47,31.45-20.77,44.35,4.54,15.14,29.35,27.31,44.68,26.65,26.61-1.22,31.42-23.9,49.1-38.06h3.99c.71,9.55-4.83,13.42,4.01,22-3.43,7.08-3.34,2.03-5.88.9-2.07-.92-11.46-5.57-12.1-4.9-.57.6.52,4.66-.02,6ZM50.57,161.98c43.57-58.74-8.18-134.96-20.13-52.99.44,10.22,7.77,52.23,20.13,52.99Z"/>
      <path class="cls-6" d="M130.6,29.98c5.92-4.81,5.33-5.82,14.57-7.37,26.91-1.91,27.09,27.8,35.54,46.25-1.96,2.06-5.11-.21-4.12,4.1l4-1-.66,35.13c-6.32,6.56-7.15,24.1-12.45,34.72l-14.87,18.17c.14-1.31-.02-2.68,0-4h-3.99c17.73-28.04,29.95-72.68,17.41-104.41-4.74-11.99-14.12-28.88-29.41-19.59l-6-2Z"/>
      <path class="cls-2" d="M116.6,51.98c-.04,2.83,1.71,10.52,1.74,13.12.01,1.12-3.75.71-3.84,1.99-.16,2.37,3.22,7.35,2.11,10.9l5.99-6.01c-1.97,28.33,5.81,64.63,22,88-2.92,4.19-5.85,5.44-8,8-20.2-24.92-34.31-86.93-20-116ZM120.58,93.97l-.97-13.98c-10.71,4.68-3.05,6.3-1.7,8.63s-.72,5.92,2.67,5.35Z"/>
      <path class="cls-4" d="M136.6,31.98c-8.84,5.37-13.31,30.06-14,40l-5.99,6.01c1.12-3.55-2.27-8.53-2.11-10.9.09-1.28,3.85-.87,3.84-1.99-3.17-16.99-3.01-25.26,12.26-35.12l6,2Z"/>
      <path class="cls-3" d="M264.6,3.98c8.6,2.32,22.31,9.59,22,20-9.88-3.06-11.16-16.29-22-20Z"/>
      <path class="cls-4" d="M120.58,93.97c-3.4.57-1.33-3.04-2.67-5.35s-9.01-3.94,1.7-8.63l.97,13.98Z"/>
    </g>
  </g>
</svg>