<?xml version="1.0" encoding="UTF-8"?>
<svg id="Calque_2" data-name="Calque 2" xmlns="http://www.w3.org/2000/svg" viewBox="0 0 245.93 200.53">
  <defs>
    <style>
      .cls-1 {
        fill: #90624d;
      }

      .cls-2 {
        fill: #9c7f6f;
      }
    </style>
  </defs>
  <g id="Calque_1-2" data-name="Calque 1">
    <g>
      <path class="cls-1" d="M6.15,189c4.8-.4,8.99.95,13.93-1.07,1.82-.75,17.32-12.63,17.82-14.32,1.88-6.32-3.2-7.73-5.25-12.1-8.1-17.24-11.52-31.94-5.97-50.97,25.12-52.86,75.38-2.68,35.48,58.45,27.03,9.72,50.49-24.66,61.64-43.51,1.24-5.24-3.27-22.6-3.62-29.49-1.36-26.18,6.59-78.33,30.13-93.73,10.02-6.56,22.84,2.36,25.36,12.24,3.53,13.84-6.35,49.28-11.46,63.56-3.69,10.3-20.91,40.12-19.71,47.44,1.09,6.68,10.4,16.5,16.25,19.93,28.33,19.75,57.07-18.04,74.73-28.05,2.61-.56,10.84,5.52,10.46,8.15-.74,5.17-14.52,19.47-19.37,23.44-32.56,27.09-65.83,21.87-95.45-6.06l-2.72.34c-2.1,8.58-9.02,12.22-14.23,17.76l-2.03-3.98h-1.96c4.56,7.92-3.73,4.36-2.01,11.98-51.3,42.28-39.35-6.61-74,22-8.93-6.32-4.86,2.83-6.01,4.03-.43.44-11.11-4.6-9.99,3.97-1.26.05-2.8.17-4,0-.29-.04-1.75-5.32-4,0-1.62-.63-2.54-1.12-4-2v-8ZM136.15,72c-.98,9.17.71,19.66,0,29,17.96-23.07,24.98-55.03,25.99-83.99-13.01,3.56-24.45,41.45-25.99,54.99ZM52.12,158.99c30.48-57.65-7.39-79.42-14.02-30.89-.05,4.53,7.46,35.82,14.02,30.89Z"/>
      <path class="cls-2" d="M6.15,189v8c-2.92-1.77-6.93.29-6.01-6.99.25-1.96,4.05-.85,6.01-1.01Z"/>
      <path class="cls-2" d="M34.15,191c-5.02,3.04-7.49,7.64-16,8-1.13-8.58,9.56-3.53,9.99-3.97,1.15-1.19-2.92-10.34,6.01-4.03Z"/>
      <path class="cls-2" d="M114.15,161c-1.87,1.99-2.11,4.47-6,8-1.72-7.63,6.58-4.06,2.01-11.99h1.96s2.03,3.99,2.03,3.99Z"/>
      <path class="cls-2" d="M14.15,199c-2.41,3.25-2.97.4-4,0,2.25-5.32,3.71-.04,4,0Z"/>
    </g>
  </g>
</svg>