<?xml version="1.0" encoding="UTF-8"?>
<svg id="Calque_2" data-name="Calque 2" xmlns="http://www.w3.org/2000/svg" viewBox="0 0 146.32 158.04">
  <defs>
    <style>
      .cls-1 {
        fill: #edce6e;
      }

      .cls-2 {
        fill: #f2bb4a;
      }
    </style>
  </defs>
  <g id="Calque_1-2" data-name="Calque 1">
    <g>
      <path class="cls-1" d="M71.54.05c13.47-2.78,60.62,112.38,68.96,128.41,19.37,40.69-13.7,27.71-39.28,27.28-27.73-.44-66.23,3.55-92.17.17-7.28-.95-9.28-3.77-9.03-11,.43-12.19,22.85-49.31,29.13-63.09C35.45,68,59.44,3.26,71.54.05ZM4.23,149.73c3.31,3.82,88.27,2.06,100.99,2.01,5.87-.02,31,2.54,34.06-1.78,3.39-4.78-4.1-22.12-6.79-27.49-10.64-21.24-23.83-42.27-34.76-63.24-4.67-8.96-15.42-51.05-22.83-53.29-2.77-.84-5.24.54-6.82,2.83-4.48,11.59-11.95,21.58-17.35,32.64-7.36,15.08-12.17,31.72-19.12,46.88-3.91,8.52-31.81,56.32-27.38,61.44Z"/>
      <path class="cls-2" d="M4.23,149.73c-4.43-5.11,23.47-52.92,27.38-61.44,6.95-15.17,11.76-31.8,19.12-46.88,5.4-11.06,12.87-21.05,17.35-32.64,1.58-2.28,4.05-3.66,6.82-2.83,7.4,2.24,18.16,44.33,22.83,53.29,10.93,20.97,24.12,42,34.76,63.24,2.69,5.37,10.18,22.7,6.79,27.49-3.06,4.32-28.19,1.75-34.06,1.78-12.72.05-97.68,1.82-100.99-2.01ZM100.13,121.84c-1.44-1.46-13.53,2.12-13.98,5.97h14s-.02-5.97-.02-5.97Z"/>
      <path class="cls-1" d="M100.13,121.84l.02,5.98h-14c.45-3.86,12.54-7.44,13.98-5.98Z"/>
    </g>
  </g>
</svg>