<?xml version="1.0" encoding="UTF-8"?>
<svg id="Calque_2" data-name="Calque 2" xmlns="http://www.w3.org/2000/svg" viewBox="0 0 156.01 217.28">
  <defs>
    <style>
      .cls-1 {
        fill: #edce6e;
      }

      .cls-2 {
        fill: #5373a0;
      }

      .cls-3 {
        fill: #a3cae0;
      }

      .cls-4 {
        fill: #958094;
      }

      .cls-5 {
        fill: #f2bb4a;
      }

      .cls-6 {
        fill: #90624d;
      }

      .cls-7 {
        fill: #909d9d;
      }

      .cls-8 {
        fill: #3b7f6b;
      }

      .cls-9 {
        fill: #9c7f6f;
      }
    </style>
  </defs>
  <g id="Calque_1-2" data-name="Calque 1">
    <g>
      <path class="cls-8" d="M37.66,67.09c9.57-4.19,27.46-7.4,38.01-8.01,2.7-10.95-4.91-6.77-7.12-9.84-8.74-12.07,21.32-14.42,21.2-3.17-.07,6.56-11.81,2.12-8.11,13,8.79-1.28,31.11,5.91,38.01,8.01.3.18-.76,5.31,4,4,6.59,7.5,7.59,4.47,12,16C32.18-5.31-62.17,181.63,74.9,204.85c65.07,1.53,91.61-65.96,60.76-117.76,16.65,10.22,20.24,42.45,17.83,60.83-2.73,18.59-15.82,32.68-25.28,44.14-.27,3.5,17.43,25.45.62,24.99-6.29-.18-8.69-4.14-9.17-9.96,1.59.86,9.38,4.65,9.99,3.99l-4.02-15.98-7.97,9.99c-11.66-5.59-6.42-1.85-15.19-.2-16.92,3.18-25.94,5.17-43.27,1.66-4.16-.84-10.59-5.77-14.27-5.05-6.58,1.29-8.97,15.7-18.26,15.78-17.12.14,2.36-20.43.73-26.77-35.69-31.92-34.14-98.84,10.27-123.42ZM31.01,210.44c2.96-2.45,10.57-13.85,3.62-15.34s-17.52,26.85-3.62,15.34Z"/>
      <path class="cls-8" d="M127.66,33.09c-.32,0-3.41,1.54-6,2-2.64-29.89-40.95-31.21-63.73-24.73-15.28,4.34-16.7,11.11-22.27,24.73-1.2-.24-2.71.16-4,0l-2-2c5.75-43.64,93.4-44.61,98,0Z"/>
      <path class="cls-9" d="M135.66,35.09c.56.35,1.59,8.06,10,6,7.3,12.29,12.04,14.81,9.8,30.82-2.4,17.1-8.52,9.17-19.83,4.21-2.08-.91-6.7-5.16-7.97-1.03-4.2-4.04-2.11-2.78-8-8-4.29-3.31-22.6-14.42-21.84-18.72,2.46-9.74,22.5-12.26,29.84-15.28.41,0,7.65,1.78,8,2ZM103.67,51.05c10.69,1.86,50.73,41.43,47.86,13.26-1.37-13.44-17.83-26.69-30.69-25.16-3.48.41-20.47,7.09-17.17,11.9Z"/>
      <path class="cls-9" d="M35.66,35.09c6.78,1.33,22.34,4.89,23.86,13.26,1.14,6.3-19.78,12.05-21.86,18.74-7.41,4.14-25.53,17.07-33.77,13.77-1.36-.95-4.21-15.11-3.85-18.24,1.08-9.61,7.36-11.5,9.63-15.53.32.88,1.1,1.84,2,2v2c-7.71,2.54-9.1,26.08-1.3,25.74,5.66-.24,4.93-5.53,5.3-5.74,3.87-2.26,10.48-4.79,16-8,2.32-1.35,3.61-3.78,4-4,.51-.29,1.49.28,2,0,9.02-4.97,17.62-1.36,16.01-16-8.34.57-15.52-5.38-24.01-4l2-4c1.29.16,2.8-.24,4,0Z"/>
      <path class="cls-6" d="M29.66,33.09l2,2-2,4c-3.52.57-13.98,6.52-16,10-1.69.3-3.44-.18-4-2,2.03-3.62,1.52-13.5,2.01-14.01,1.59-1.67,14.05,4.62,17.99.01Z"/>
      <path class="cls-2" d="M117.66,205.09l7.97-9.99,4.02,15.98c-1.85.24-10.4-3.61-11.99-5.99Z"/>
      <path class="cls-7" d="M135.66,87.09c30.86,51.79,4.28,119.32-60.76,117.76C-62.19,181.6,32.22-5.31,135.66,87.09ZM47.66,187.09c20.98,19.13,55.42,7.19,75.5-6.5,1.57-1.94.83-6.22,3.06-8.96,1.76-2.16,8.67-3.92,9.28-4.84.74-1.12-1.7-4.49-1.24-6.38,1.47-6.07,5.73-12.35,5.42-19.31l3.96,3.98c1.75-112.76-165.26-89.69-121.73,18.76,5.48,10.76,14.12,20.2,25.75,23.25Z"/>
      <path class="cls-2" d="M31.01,210.44c-13.9,11.51-3.55-16.86,3.62-15.34s-.66,12.89-3.62,15.34Z"/>
      <path class="cls-7" d="M119.66,67.09c4.01,3.09,3.44,3.51,4,4-4.76,1.31-3.7-3.82-4-4Z"/>
      <path class="cls-1" d="M103.67,51.05c-3.3-4.81,13.69-11.49,17.17-11.9,12.86-1.52,29.31,11.72,30.69,25.16,2.88,28.16-37.17-11.4-47.86-13.26Z"/>
      <path class="cls-5" d="M13.66,49.09c14.82-2.72,1.52-10.29,28-1.98,2.25,2.36-7.77,6.78-4,11.98-.51.28-1.49-.29-2,0-4.62,6.01-15.04,8.94-20,12-10.45-.08-1.71-13.97-4-22,.6.1,1.38.03,2,0Z"/>
      <path class="cls-1" d="M29.66,39.09c8.49-1.38,15.67,4.57,24.01,4,1.61,14.64-6.99,11.03-16.01,16-3.77-5.2,6.25-9.62,4-11.98-26.52-8.31-13.19-.72-28,1.98,2.02-3.48,12.48-9.43,16-10Z"/>
      <path class="cls-1" d="M15.66,71.09c-.37.22.36,5.5-5.3,5.74-7.8.33-6.4-23.2,1.3-25.74,2.28,7.38-6.59,19.62,4,20Z"/>
      <path class="cls-1" d="M31.66,63.09l4-4c-.39.22-1.68,2.65-4,4Z"/>
      <path class="cls-2" d="M45.66,187.09c-10.93-5.94-18.23-11.78-23.75-23.25-43.53-108.5,123.51-131.47,121.73-18.76l-3.96-3.98c.31,6.97-3.96,13.24-5.42,19.31-.46,1.89,1.98,5.26,1.24,6.38-.61.92-7.52,2.68-9.28,4.84-2.23,2.74-1.5,7.02-3.06,8.96-20.08,13.69-54.52,25.64-75.5,6.5,49.9,22.94,102.37-18.03,86.63-71.63-39.82-99.3-175.3-2.7-88.63,71.63Z"/>
      <path class="cls-8" d="M83.66,91.09c.97.62,4.1-1.12,4.02,1l-8.03,1.01,3.21,44.09c-.87,4.97-5.82,3.61-9.26,6.8-4.24,3.94-6.81,14.22-13.25,16.79-2.59,1.04-5.74,1.15-4.66-2.65,1.61-5.67,12.21-14.09,14.82-19.19,7.97-14.52-2.48-38.07,9.15-51.85,1.3,1.25,2.49,3.04,4,4Z"/>
      <path class="cls-2" d="M33.36,142.79l-7.7.28,5.98-4.99c-14-.48-6.28-20.95,2.16-10.15,3.48,4.44,1.66,10.13-.45,14.86ZM31.65,133.07l-3.98-3.98v3.99s3.98,0,3.98,0Z"/>
      <path class="cls-4" d="M129.55,125.21c.5.49,2.34,12.5,1.27,13.98l-11.15,1.89c-2.54-7.02,8.29-2.34,8.01-4.99-1.34-.15-9.71-9.65-8.01-10.99,2.35.41,8.95-.8,9.88.11Z"/>
      <path class="cls-2" d="M81.64,171.1c4.42,3.8-5.1,3.42-3.98,5.96,6.3.4,6.57,4.61,6,10.03-20.8,5.07-8.58-21.63-2.02-15.98ZM79.63,185.08v-3.98h-1.96v3.98h1.96Z"/>
      <path class="cls-4" d="M73.66,81.09v12c-4.39,8.29-7.57-12.59-2.95-14,2.46-.75,2.77,1.97,2.95,2Z"/>
      <path class="cls-7" d="M83.66,91.09c-1.51-.96-2.7-2.75-4-4,1.01-2.04,2.7-3.16,1.99-5.99-2.89,1.44-4.07.28-5.99,0,7.28-10.74,12.95.72,8,10Z"/>
      <path class="cls-3" d="M75.66,81.09c1.91.29,3.09,1.45,5.99,0,.79,4.89-4.49,8.09-5.99,11.99h-2v-12c.63.14,1.35-.1,2,0Z"/>
      <path class="cls-7" d="M107.64,87.1c2.56,2.75-3.54,10.6-5.98,7.98-2.56-2.75,3.54-10.6,5.98-7.98Z"/>
      <path class="cls-7" d="M37.65,113.08h-5.98s0-5.98,0-5.98c3.78-.64,6.63,2.34,5.98,5.98Z"/>
      <path class="cls-7" d="M123.64,105.1v5.98s-5.98,0-5.98,0c-.65-3.64,2.2-6.62,5.98-5.98Z"/>
      <path class="cls-4" d="M53.64,95.08c-2.01,2.04-8.03-3.9-5.98-5.98s8.03,3.9,5.98,5.98Z"/>
      <path class="cls-4" d="M55.64,173.1c2.05,2.07-3.97,8.02-5.98,5.98s3.97-8.02,5.98-5.98Z"/>
      <path class="cls-8" d="M123.64,157.1v3.98c-2.95.65-4.16-.88-5.98-3l5.98-.98Z"/>
      <path class="cls-4" d="M105.64,173.1c2.18,2.18-1.8,6.16-3.98,3.98s1.8-6.16,3.98-3.98Z"/>
      <path class="cls-4" d="M37.64,157.1c2.18,2.18-1.8,6.16-3.98,3.98s1.8-6.16,3.98-3.98Z"/>
      <polygon class="cls-3" points="31.65 133.07 27.67 133.08 27.68 129.09 31.65 133.07"/>
      <rect class="cls-3" x="77.68" y="181.1" width="1.96" height="3.98"/>
      <path class="cls-8" d="M145.66,41.09c-8.41,2.06-9.44-5.65-10-6,3.7-8.73,15.22-1.26,10,6Z"/>
    </g>
  </g>
</svg>