<?xml version="1.0" encoding="UTF-8"?>
<svg id="Calque_2" data-name="Calque 2" xmlns="http://www.w3.org/2000/svg" viewBox="0 0 271.93 229.01">
  <defs>
    <style>
      .cls-1 {
        fill: #edce6e;
      }

      .cls-2 {
        fill: #f5872c;
      }

      .cls-3 {
        fill: #f2bb4a;
      }

      .cls-4 {
        fill: #90624d;
      }

      .cls-5 {
        fill: #939649;
      }

      .cls-6 {
        fill: #da5b3e;
      }

      .cls-7 {
        fill: #9c7f6f;
      }
    </style>
  </defs>
  <g id="Calque_1-2" data-name="Calque 1">
    <g>
      <path class="cls-5" d="M9.71,80.85c2.16,4.12,2.85,7.07,8,8-10.82,18.52-9.16,44.97,19.13,40.12,8.06-1.04,5.98-5.23,10.98-9.01s12.27-7.94,17.93-10.07c9.22-3.47,38.96-7.67,44.01-11.99,3.87-3.31-.06-10.17,3.96-13.04.44,2.78.46,10.12,2,12-20.98,17.89-61.96,8.18-71.55,39.45-6.14,20.04.43,26.4,3,44.09,2.86,11.01-2.06,51.32,16.54,42.46.73-.44,1.44-1.32,2-2,7.69-9.33.44-7.52.01-9.32-3.06-29.78,4.08-20.2,18.49-43.17,2.31-5.64-.26-13.3,5.48-15.5l-1.99,21.99c6.2-2.14,14,3.51,18.01,4.01-2.78,3.44-.06,6.74,0,8,.23,4.64-.16,9.35,0,14h-2c-7.73-13.8,7.17-22.63-17.99-23.99l1.99,31.99h-2c-.6-1.3-1.51-2.19-2-4l1.96-.99-3.96-3.01c-.44-2.84-.36-9.05,0-12,.04-.31,3.76-4.38,1.99-5.99-2.77-2.51-7.85,1.1-9.99,3.99-16.02,20.38,19.35,37.75-5.12,41.82-30.11,3.66-22.34-23.56-25.09-42.61-2.07-14.33-8.03-27.63-6.66-43.34-1.97-2.78-22.48-.34-31.55-14.45-11.19-17.39-2.13-30.98,4.42-47.42ZM6.71,118.85v2c1.3-.67,1.3-1.33,0-2ZM8.69,122.89l-.94.94,8.98,8.98.94-.94-8.98-8.98ZM39.7,132.86l-19.97,1.97c3.95.65,20.83,6.53,19.97-1.97Z"/>
      <path class="cls-6" d="M217.71,150.85c.9,11.8-2.56,32.74,4.21,42.79,1.93,2.87,6.66,3.79,7.59,6.52,4.96,14.53-27.55,18.63-32.94-5.17-2.52-11.14,4.2-22.64-12.86-20.15-.13,3.99.14,8.02,0,12.01l-4-4c1.3-13,3.42-7.68,9.89-13.06s16.85-12.23,18.11-20.94c3.07-1.75,3.99,1.65,10,2ZM211.7,158.86c-14.63,5.14-14.14,13.55-11.73,26.74,2.01,10.99,4.48,22.55,17.72,21.22-2.05-8.9,3.94-3.52,6.01-7.95-13.9.25-9.93-37.51-12-40.02Z"/>
      <path class="cls-4" d="M9.71,80.85c4.35-10.9,6.69-26.44,21.99-28.01,5.19,16.53,7.85,33.27-13.99,36.01-5.15-.93-5.84-3.88-8-8Z"/>
      <path class="cls-5" d="M147.71,176.85c17.47-10.51,12.06,24.48,15.68,35.23,1.11,3.31,11,11.9,14.36,9.83,3.37-2.21,6.89-10.34,9.96-13.07,18.04,13.83-11.21,25.6-23.91,12.91-14.4-11.82,1.29-47.31-16.09-44.91Z"/>
      <path class="cls-7" d="M85.71,208.85h2c3.94,6.52,10.82,7.45,17.99,7.99.46-5.47-1.21-10.68-1.99-15.99h2c30.11,19.99-18.26,31.33-20,8Z"/>
      <path class="cls-7" d="M109.71,178.85c7.49,1.74,25.63-3.33,30,2-9.99,4.87-27.76-2.94-34,6-.06-1.26-2.78-4.56,0-8,1.3.16,2.69-.12,4,0Z"/>
      <path class="cls-4" d="M183.71,186.85c-.35,9.8-1.25,13.55,4,22-.45.77-1.74,1.4-2,2-8.45-3.32-6.82-19.75-6-28l4,4Z"/>
      <path class="cls-7" d="M73.71,186.85c4.36-6.6,15.09-6.55,8,2l-8-2Z"/>
      <path class="cls-7" d="M155.71,180.85c-3.99.14-8.02-.2-12,0l2-4c3.84.38,8.75-1.06,10,4Z"/>
      <path class="cls-5" d="M141.71,176.85c1.2-.16,2.75-.06,4,0l-2,4c-1.32.07-2.68-.11-4,0-.61-.53-1.47-1.94-2-2,1.12-1,2.49-1.8,4-2Z"/>
      <path class="cls-7" d="M83.71,204.85c-.35-1.3-1.82-2.84-2-4l3.96,3.01-1.96.99Z"/>
      <path class="cls-3" d="M115.71,96.85c8.34-1.76,1.69,12.99,7.09,17.91,2.49,3.19,6.83,2.72,8.44,4.7,2.88,3.53,6.05,10.46,8.72,14.19,7.71,10.8,15.87,6.37,21.29,9.68,3.29,2.01,4.89,13.08,16.02,8.2,3.27-1.43,1.3-5.1,4.43-4.67,1.45,2.11,4.41,15.14,8.02,7.99,6.23-1.81,5.85.14,8,0,4.82-.31,6.3-3.9,10-6-1.26,8.71-11.35,15.31-18.11,20.94s-8.59.06-9.89,13.06c-.82,8.25-2.45,24.68,6,28-1.07,2.47-5.93,9.82-7.96,11.07-3.36,2.07-13.24-6.53-14.36-9.83-3.62-10.75,1.79-45.74-15.68-35.23-1.93.03-4.1-.2-6,0-10.8-6.04-25.06,1.37-36,2-4.01-.5-11.81-6.15-18.01-4.01l1.99-21.99c-5.73,2.2-3.17,9.86-5.48,15.5-14.47,23.08-21.52,13.29-18.49,43.18.43,1.81,7.68-.01-.01,9.32l-2,2c-18.6,8.88-13.68-31.46-16.54-42.46-2.58-17.69-9.15-24.05-3-44.09,9.59-31.27,50.56-21.56,71.55-39.45Z"/>
      <path class="cls-1" d="M39.7,132.86c.86,8.5-16.02,2.62-19.97,1.97l19.97-1.97Z"/>
      <path class="cls-1" d="M6.71,118.85c1.3.67,1.3,1.33,0,2v-2Z"/>
      <rect class="cls-1" x="12.05" y="121.5" width="1.33" height="12.7" transform="translate(-86.68 46.44) rotate(-45)"/>
      <path class="cls-6" d="M63.71,222.85l2-2c-.56.68-1.27,1.56-2,2Z"/>
      <path class="cls-3" d="M211.7,158.86c2.07,2.51-1.9,40.27,12,40.02-2.07,4.42-8.06-.95-6.01,7.95-13.23,1.33-15.71-10.23-17.72-21.22-2.41-13.19-2.9-21.6,11.73-26.74Z"/>
      <path class="cls-3" d="M103.71,200.85c.77,5.31,2.44,10.52,1.99,15.99-7.17-.54-14.04-1.48-17.99-7.99l-1.99-31.99c25.15,1.36,10.26,10.19,17.99,23.99Z"/>
      <path class="cls-1" d="M141.71,176.85c-1.51.2-2.88,1-4,2-8.82-.99-19.07.84-28,0,9.12-3.2,22.97-6.68,32-2Z"/>
      <g>
        <path class="cls-4" d="M217.71,4.85v6c-8.75-3.86-10.34-6.42-18,0,.14-7.85-10.18-8.31-4,0-.36,5.15-5.32,9.98-4.01,16.01-9.07,2.51.48-20.42-6.97-18.02-5.03,1.62-1.03,15.89-1.03,20-6.06,1.4-2.95-3.83-6.02-6.9-12.02-12.01-24.59-11.46-31.97,4.91-5.66-1.16-5.64.77-8.03,5.04-.29,1.28,3.92.79,4.03.96-.37,1.41-4.47,6.47,2,6-1.23,2.9-5.44,2.17-8,2-.31-.02-2.32-2.79-4.85-2-5.52,1.74-1.16,5.61-1.15,6,.03,1.47-.72,3.21-2,4-2.84,1.74-2.76-3.1-4,4-.93,5.35-6.66,20.79-1.9,23.95,1.29.86,10.43-2.95,13.88.07.61,3.58-3.41,1.15-5.52,2.41-1.31.78-1.43,4.13-2.47,5.56h-7.99c-.9,2.62,1.94,3.77,1.99,4,2.36,10.56-1.42,30.6,15.03,24.05l-1.02,5.94,7.98-1.98c-1.77,5.96-2.55,10.04.04,15.97,5.03-.97.13-11.34,11.96-9.98l-1.98,13.98c12.88-5.85,4.77,6.22,15.99,4.01,2.76,1.03,1.58,5.53,2.02,6,4.97,5.2,4.34-8.38,1.98-12,2.88,4.84,6.54,3.63,8.91,6.02,2.89,2.93,4.45,10.28,7.09,13.98-3.68,7.12-6.55-5.86-8.03-7.99-3.13-.43-1.16,3.24-4.43,4.67-11.13,4.88-12.72-6.19-16.02-8.2-21.12-4.59-16.95-3.28-30-23.87-13.58-5.34-9.92-9.29-11.51-21.27-.63-2.36-3.82-1.1-4.02-1.34-12.22-39.81,14.61-80.28,53.08-91.97,16.94,6.07,23.14-8.5,43.97-4,4.06.76,4.64,3.9,4.95,3.98Z"/>
        <path class="cls-4" d="M237.71,14.85c17.05.8,14.35,8.12,18.5,18.5,4.92,12.3,17.47,34.4,15.51,48.34-.42,3.01-3.5,5.21-3.93,8.25-.68,4.78,1.2,17.9-2.64,20.51-1.29.88-4.61-.06-5.18.55-.71.77.5,13.42-5.37,19.72-6.43,6.91-12.23,1.77-12.81,2.16-.7.47-2.69,11.66-8.18,14.86-3.23,1.88-11.99,3.32-15.91,3.1-6.01-.35-6.93-3.75-10-2-3.7,2.1-5.18,5.69-10,6,7.27-4.41,5.87-14.63,6.01-22.01h5.99c.89.9-1.75,16.07,6,14l-1.98-19.98,4.01,7.99c9.45-13.19,6.23.13,13.98,0-.06,2.19-.9,6.84.99,7.99,3.37-2.34,3.27-6.26,2.99-9.99-.53-.84-3.03,1.98-3.98,2-.8-18.4,8.45-7.63,8.03-15.98,5.73-.18-3.42,8.09,7.97,5.98l.02,6c3.69-.34,3.03-4.02,3.98-6,6.38-10.3,1.4-13.25,2-24,2.63-.66,4.14-5.8,6-6,.65-.07,3.44,2.87,3.98,2-.13-4.45-.54-11.26-5.98-10-.07-1.33.03-2.67-.02-3.99l8.03-.02c1.29-13.66-13.53-16.03-16.01-27.97l9.98-.99c-3.79-4.84-7.42-7.97-13.99-7.04-.89-7.99,8.65.32,6-9.98l-11.97,3.99c-3.33-3.14,11.56-8.78,9.65-16.8-2.99-9.47-15.7,1.53-17.67-7.2,1.73-.88,4.08-2.09,6-2ZM225.7,138.86c-3.78-2.97-7.06,6.93-5.98,7.98,2.41,2.36,7.91-3.98,5.98-7.98Z"/>
        <path class="cls-7" d="M237.71,14.85c-1.92-.09-4.27,1.12-6,2-5.95-3.67-7.66-3.98-14-6v-6c6.76,1.66,18.1-1.28,20,10Z"/>
        <path class="cls-6" d="M217.71,10.85c6.34,2.02,8.05,2.33,14,6,.54.33.86,3.18,3.29,3.71,3.02.65,12.69-3.56,14.37,3.49,1.92,8.02-12.97,13.66-9.65,16.8l11.97-3.99c2.65,10.3-6.89,1.99-6,9.98,6.58-.93,10.2,2.2,13.99,7.04l-9.98.99c2.48,11.95,17.3,14.32,16.01,27.97l-8.03.02c-.5,4.13,1.07,7.96,2.02,11.99-1.86.2-3.37,5.34-6,6l-8.02-6.98c6.35,10.19,13.84,18.86,6.02,30.98-2.8-.43-7.39.99-9.64-.28-1.51-1.78,1.47-6.36-2.33-5.7.48,8.34-8.81-2.47-8.03,15.98.95-.02,3.45-2.83,3.98-2,.28,3.73.38,7.64-2.99,9.99-1.89-1.15-1.05-5.8-.99-7.99-7.75.13-4.53-13.19-13.98,0l-4.01-7.99,1.98,19.98c-7.74,2.07-5.11-13.11-6-14.01h-5.99c-.14,7.39,1.26,17.61-6.01,22.02-2.15.14-1.77-1.81-8,0-2.64-3.7-4.2-11.06-7.09-13.98-3.19-2.68-10.24-2.28-8.91-10.01h-3.98s-.01,9.99-.01,9.99c-11.11,2.27-3.15-9.85-15.99-4.01l1.98-13.98c-11.87-1.35-6.91,8.97-11.96,9.98-2.58-5.93-1.81-10.01-.04-15.97l-7.98,1.98,1.02-5.94c-16.45,6.55-12.67-13.49-15.03-24.05,6.16.58,5.95-6.38,8.47-9.56,2.11-1.26,6.12,1.17,5.52-2.41-3.45-3.02-12.59.78-13.88-.07-4.77-3.16.97-18.61,1.9-23.95,3.61.71,4.63-.41,4-4,1.28-.79,2.03-2.53,2-4,2.92-.03,5.13-1.13,6-4,2.56.17,6.77.9,8-2,8.53.19,1.79-5.12-2,0-3.99-1.6.42-5.36,0-6,6.64,1.4,2.94-3.65,4-6,7.38-16.37,19.95-16.91,31.97-4.91,3.07,3.06-.05,8.3,6.02,6.9,0-4.11-3.99-18.38,1.03-20,7.44-2.39-2.1,20.53,6.97,18.02-1.3-6.03,3.65-10.86,4.01-16.01,12.22.34,3.97-9.3,22,0ZM213.71,28.85c-.63-.47,1.56-4.82-1.97-3.98l-6.02,11.97,7.99-7.99c.86,21.4-19.75,11.44-34.14,14.86-8.42,2-11.51,10.47-16.99,11.23-7.08.97-17.77-11.37-22.02,1.84-4.53,14.09,11.39,12.19,13.17,14.09.44.48-1.84,5.72-1.57,8.48.38,3.93,4.07,19.03,5.8,22.26.41.77,9.71,12.16,10.34,12.68,37.26,17.81,83.96-3.64,65-50.02-2.45-6.99-15.3-16.92-1.58-15.42,3.64-3.52-4.08-4.37-4.01-4.91.36-2.79,4.17-5.15,3.07-11.17-1.52-8.29-14.09-1.68-17.06-3.92ZM171.7,42.84c.62-2.76-1.08-5.32-3.97-5.99v5.99s3.97,0,3.97,0ZM187.7,36.87h-5.98v1.96h5.98v-1.96ZM197.7,130.87c-6.42-5.66-9.03,10.74-1.98,5,1.52-1.24,2.99-4.11,1.98-5Z"/>
        <path class="cls-2" d="M169.71,140.85v-9.99s3.99,0,3.99,0c.33,1.18-.38,3.35,0,3.99,2.36,3.62,3,17.2-1.98,12-.44-.46.73-4.97-2.02-6Z"/>
        <path class="cls-3" d="M145.71,26.85c-1.06,2.35,2.64,7.4-4,6-.11-.17-4.32.32-4.03-.96,2.39-4.27,2.37-6.2,8.03-5.04Z"/>
        <path class="cls-1" d="M135.71,40.85c-.87,2.87-3.08,3.97-6,4-4.51-4.73,1.87-8.58,6-4Z"/>
        <path class="cls-7" d="M127.71,84.85c-1.72,2.37-2.1,4.22-6,4-.05-.23-2.9-1.38-1.99-3.99h7.99Z"/>
        <path class="cls-3" d="M199.71,10.85c-1,.33-2.76-.22-4,0-6.18-8.32,4.15-7.84,4,0Z"/>
        <path class="cls-3" d="M127.71,48.85c.63,3.59-.39,4.71-4,4,1.24-7.1,1.16-2.26,4-4Z"/>
        <path class="cls-3" d="M141.71,38.85c3.79-5.12,10.53.19,2,0-.69-.02-1.58.17-2,0Z"/>
        <path class="cls-1" d="M257.71,86.85c5.44-1.27,5.85,5.55,5.98,10-.54.87-3.33-2.07-3.98-2-.35-2.59-1.87-5.52-2-8Z"/>
        <path class="cls-6" d="M225.7,138.86c1.93,4-3.57,10.34-5.98,7.98-1.08-1.05,2.2-10.95,5.98-7.98Z"/>
        <path class="cls-2" d="M253.71,106.85l-8.02-12.98,8.02,6.98c.25,1.9-.37,4.27,0,6Z"/>
        <path class="cls-7" d="M251.71,124.85c-.95,1.98-.29,5.66-3.98,6l-.02-6c1.33,0,2.67,0,4,0Z"/>
        <path class="cls-3" d="M213.71,28.85c2.98,2.23,15.54-4.37,17.06,3.92,1.1,6.01-2.71,8.37-3.07,11.17-.07.54,7.65,1.39,4.01,4.91-1.08,1.04-7.27-2.37-5.98,2.97,27.93,36.5,2.94,77.84-42.03,67.04,8.2-4.49,20.07-5.02,28.6-8.49,3-1.22,2.88-3.14,3.4-3.51.79-.55,1.34-2.43,4-4,.75-.44,3.58.51,4,0,.75-.93-2.06-12.14-3.08-13.91-2.66-4.61-5.22-3.16-8.91-4.09-8.04-2.02-11.75-.71-20,2,.22-1.55-7.51-29.55-9-30.04-.91-.3-5.01-.64-4.99,1.02,6.63,8.29,6.41,19.39,9.99,29.01-.78,8.79-19.73,9.45-12,30-2.37-.97-4.9-.49-7.42-2.57-.63-.52-9.93-11.9-10.34-12.68-1.73-3.23-5.42-18.33-5.8-22.26-.27-2.76,2.02-8,1.57-8.48-1.78-1.9-17.71,0-13.17-14.09,4.25-13.21,14.94-.86,22.02-1.84,5.49-.75,8.57-9.22,16.99-11.23,14.39-3.43,34.99,6.54,34.14-14.86ZM217.7,72.84c1.29-1.3-.06-11.09-4.96-9.98-7.67,1.73.39,14.55,4.96,9.98ZM171.72,82.84c8.21.18,8.21-10.16,0-9.98v9.98Z"/>
        <path class="cls-1" d="M211.71,84.85c3.69.93,6.25-.53,8.91,4.09,1.02,1.77,3.83,12.98,3.08,13.91-.41.52-3.25-.44-4,0l-12,2.02,8,1.98c-4.58,7.94-24.06,6.43-32,12-3.81-.67-4.02-.37-8-2-7.71-20.59,11.2-21.17,12-30,.66-.42,2.88.37,4,0-.5,3.56-8.6,4.94,1.97,9.07,2.49.97,5.4.95,8.04.94.47.48-1.35,9.34-2.01,9.99s-9.23,2.44-10.77,2.15c-2.28-.43.11-5.02-3.21-4.14-.34,9.01,14.05,11.71,13.98,1.99.45-.45,3.99-.11,5.15-1.92,1.36-2.13-1.31-5.13-.18-7.99s7.78-6.47,7.03-12.08Z"/>
        <path class="cls-3" d="M197.7,130.87c1.01.89-.46,3.76-1.98,5-7.05,5.74-4.44-10.66,1.98-5Z"/>
        <path class="cls-2" d="M213.71,28.85l-7.99,7.99,6.02-11.97c3.54-.84,1.34,3.51,1.97,3.98Z"/>
        <path class="cls-3" d="M171.7,42.84h-3.98s0-5.99,0-5.99c2.89.67,4.59,3.23,3.97,5.99Z"/>
        <rect class="cls-3" x="181.72" y="36.87" width="5.98" height="1.96"/>
        <path class="cls-4" d="M211.71,84.85c.75,5.62-5.86,9.13-7.03,12.08s1.54,5.86.18,7.99c-1.16,1.81-4.7,1.47-5.15,1.92.07,9.71-14.32,7.02-13.98-1.99,3.32-.89.93,3.71,3.21,4.14,1.54.29,10.13-1.53,10.77-2.15s2.49-9.51,2.01-9.99c-2.64,0-5.55.04-8.04-.94-10.57-4.13-2.48-5.51-1.97-9.07,8.25-2.71,11.96-4.02,20-2Z"/>
        <path class="cls-6" d="M187.71,86.85c-3.58-9.62-3.36-20.72-9.99-29.01-.03-1.66,4.08-1.32,4.99-1.02,1.49.49,9.22,28.48,9,30.04-1.12.37-3.34-.42-4,0Z"/>
        <path class="cls-4" d="M217.7,72.84c-4.57,4.57-12.63-8.25-4.96-9.98,4.9-1.11,6.25,8.68,4.96,9.98Z"/>
        <path class="cls-4" d="M171.72,82.84v-9.98c8.21-.18,8.21,10.16,0,9.98Z"/>
        <path class="cls-4" d="M219.71,102.85c-2.66,1.57-3.21,3.45-4,4l-8-1.98,12-2.02Z"/>
      </g>
    </g>
  </g>
</svg>