<?xml version="1.0" encoding="UTF-8"?>
<svg id="Calque_2" data-name="Calque 2" xmlns="http://www.w3.org/2000/svg" viewBox="0 0 278.08 214.83">
  <defs>
    <style>
      .cls-1 {
        fill: #f7e7ae;
      }

      .cls-2 {
        fill: #958094;
      }

      .cls-3 {
        fill: #90624d;
      }

      .cls-4 {
        fill: #909d9d;
      }

      .cls-5 {
        fill: #3b7f6b;
      }

      .cls-6 {
        fill: #9c7f6f;
      }
    </style>
  </defs>
  <g id="Calque_1-2" data-name="Calque 1">
    <g>
      <path class="cls-2" d="M36.11,68.44l10.96-4.01c4.1,1.68,2.38,9.16,3.13,9.91,2.3,2.33,14.45-2.14,16.79-1.6,10.55,17.1,25.19-.61,41.12,5.7,1.83,29.97-24.6,69.64-58.21,61.12-4.96-1.47-3.49-4.93-3.79-5.12,12.1,5.53,21.65-13.21,6.02-2-2.25-16.59,7.72-7.71,5.98-15.99-5.92.86-9.48-.48-13.98-4.01l3.97,16.01-5.95-1.03c1.97,1.04,3.21,6.68,3.96,7.02-29.23-7.23-13.92-45.25-10-66ZM40.08,82.44c-3.56-4.08-7.06,5.15-.08,11.2,4.81,4.17,14.59,2.28,12.09-5.19-13.59,6.88-10.01-3.73-12-6ZM76.07,92.46c-9.86.05-.53,9.89,3.98,11.16,6.68,1.88,6.72-4.35,12.04-5.2.37-3.88-4.23-1.5-6.41-1.35-5.04.33-8.27,4.13-9.61-4.61Z"/>
      <path class="cls-2" d="M76.11,22.44v2c-8.26.18-16.94-2.86-16.02,8.01-.64.66-8.58-4.25-14.81.16s.61,10.64-3.17,13.82c-1.13.95-4.83-1.27-6.09,5.07-.9,4.53.99,4.32,4.05,6.25l.04,2.68c-.46.24-3.91,5.66-6,8-.9,1-1.04,3.83-2.59,5.35-3.16,3.1-20.11,10.32-23.5,7.8-11.28-10,13.08-17.6,16.56-24.66,2.45-1.02,7-.04,7.48-.52,1.11-1.11,2.97-25.66,10.05-28.97,5.02-2.35,10.3.06,14.6-.96,2.1-.5,9.77-16.35,19.41-4.04Z"/>
      <path class="cls-6" d="M266.11,72.44c17.72,17.11,13.99,26.02.43,36.32-.27.85,1.97,6.8,1.68,10.6-1.04,13.93-7.11,12.13-12.89,19.3-6.15,7.62-4.37,14.94-17.22,15.78-3.32.22-3.55-6.66-4,4-16.69-4.22-11.55,16.35-12,28h-4c-.54-5.19.4-10.77,0-16.01-8.96-2.02-10.61,4.41-11.99,12.01h-2l-3.98,1.99c-1.83-6.36,4.73-6.11,5.98-11.97-4.57-.29-9.6.39-14-.02-11.78-8.02-2.55-8.23-15.25,1.75-25.15,11.5-36.1-16.02-38.75.25-.1-.64-3.2-5.7-4-6,10.25-12.43,10.35-3.37,15.16-.24,7.64,4.96,18.44,5.41,26.34.71,3.34-1.99,4.62-6.44,5.78-6.63,4.35-.73,9.81,4.81,14.17,5.73,14.22,2.99,26.49-4.4,26.56-19.56,3.49-1.08,3.57,1.81,3.99,1.99l-1.02,3.96c1.26-1.71,3.29-1.43,5.02-1.96,12.69-3.67,21.08-10.23,20.13-23.88.68-.69,5.86.79,8.93-2.05,1.97-1.82,4.92-18.76,4.94-22.07,1.4-.75,1.59-3.64,2-4,.35-.31,3.43,1.02,4.04-1.3,2.39-9.09-1.05-21.06-12.04-20.72-1.54-4.18,3.36-4.75,4-5.98,1.17.26,3.31-.39,4,0Z"/>
      <path class="cls-3" d="M110.11,74.44c-1.06,10.62,10.67,14.88,10,26-1.59-1.32-5.77-1.7-6-2-.81-1.02,2.09-5.52-3.99-3.99,3.03,18.15-18.9,40.71-34.01,47.99-12.17.76-20.02,4.65-31.99-1.01-5.24-2.1-18.13-9.92-12.01-16.99,5.24,9.51,9.31,6.95,14,10,.3.19-1.17,3.66,3.79,5.12,33.2,9.28,65.61-35.65,56.21-65.12,1.33,0,2.67,0,4,0Z"/>
      <path class="cls-3" d="M134.11,168.44c.8.3,3.9,5.36,4,6,.66,4.3-4.68,37.14-7.99,39.15-9.93,6.05-13.37-11.63-13.98-18.18-.74-13.72-1.61-17.34-4.04-30.97l22,4ZM134.09,172.45l-13.88,2.09c1.22,12.57-6.62,27.9,11.88,25.9l2-27.99Z"/>
      <path class="cls-6" d="M100.11,154.44c1.5-1.4,6.59-5.2,7.98-4,.04,5.65,3.87,10.55,4.02,16-1.72.35-4.74-.51-6,0-3.41,1.37-4.25,19.84-4,24.01-16.99,8.12-13.23-29-10.06-31.12,3.58-1.87,9.61,1.28,8.06-4.89Z"/>
      <path class="cls-5" d="M22.11,60.44c-29.96,15.95-16.29,31.08,9.41,13.35,1.55-1.52,1.69-4.35,2.59-5.35h2c-2.66,16.81-11.31,35.01-6,52-3,4.67-6.1-10.38-6.15-11.03-.36-5.64,5.42-27.22,4.13-28.97-33.55,18.06-38.88-18.09-5.98-20Z"/>
      <path class="cls-2" d="M218.11,22.44c8.11-6.08,24.16,1.35,27.12,9.91,1.04,3.01.31,8.8,1.16,9.82.42.51,9.05,2.04,12.45,4.56,6.31,4.68,13.29,18.44,7.28,25.71-.69-.39-2.83.26-4,0,2.47-4.76,1.76-7.07,0-12-5.4-15.12-19.13-11.17-22.01-14.05,3.93-14.92-8.29-21.89-21.99-21.95v-2Z"/>
      <path class="cls-5" d="M100.11,154.44c1.54,6.19-4.48,3.02-8.06,4.89-3.17,2.12-6.93,39.23,10.06,31.12-.25-4.17.59-22.64,4-24.01,1.08,13.18-.87,25.29-4.07,37.93-3.57.44-9.46-.34-11.98-2.88-2.91-3.87-2.74-35.96-3.95-45.05l14-2Z"/>
      <path class="cls-5" d="M238.11,154.44c.09,6.62-1.79,47.73-4.21,49.78-.53.45-13.32.72-13.8.23-.63-.65-1.66-14.81-1.99-18.01h4c-.08,1.99.02,4.01-.01,6h10.02c-.21-11.42,1.51-22.58,1.99-34,.45-10.66.68-3.78,4-4Z"/>
      <path class="cls-4" d="M218.11,22.44v2c-.2-.02-1.02,2.49-3.83,1.14-11.11-5.32-8.7-19.86-30.76-14.72-5.47,1.27-8.17,7.15-12.38,7.62-5.27.59-2.14-4.61-5.03-8.05.8-.31,1.83-2.01,2-2,1.35.08,3.23,2.2,6.49,1.63,17.03-11.2,34.23-5.14,43.51,12.37Z"/>
      <path class="cls-4" d="M132.11,10.44c.49.13,1.23,1.6,2,2-.68,1.43,1.28,5.95-1.03,6.03-12.82-1.37-24.41-19.35-38.97,7.97-.53-.16-1.3.07-2,0-.96-2.62-3.81-1.9-6-2,6.88-2.12,8.43-8.26,12.96-12.04,11.26-9.38,20.44-5.29,33.04-1.96Z"/>
      <path class="cls-2" d="M168.11,8.44c-.17-.01-1.2,1.69-2,2-5.53-6.58-29.21-3.88-32,2-.77-.4-1.51-1.87-2-2,6.59-12.27,28.83-14.72,36-2Z"/>
      <path class="cls-5" d="M194.11,172.44v14.01c5.38-.48,11.46,2.43,10-4.01h2c-1.73,9.48,3.35,21.41-13.74,15.71l-.26-25.71c.56.17,1.31-.11,2,0Z"/>
      <path class="cls-6" d="M76.11,142.44c-.28,7.02,10.9,9.44,10,16-8.3-.9-14.29-7.55-14-16,1.21-.28,3.06.36,4,0Z"/>
      <path class="cls-6" d="M86.11,24.44c2.19.1,5.04-.62,6,2-6.61-.67-9.2-1.28-8.01,6-6.94,1.2-4.81-5.89-5.99-8,2.65-.03,5.35-.12,8,0Z"/>
      <path class="cls-6" d="M78.11,24.44c-.67,0-1.34-.03-2,0v-2c.53.68,1.55,1.19,2,2Z"/>
      <path class="cls-6" d="M40.11,60.44c.54-.28,11.54-2.43,11.97-2.01.21.21-.07,3.94,1.16,5.77,8.8,13.01,16.28-.33,18.84,2.23.8.8-1.34,8.01,7.52,9.68,10.96,2.07,8.77-9.37,13.45-7.64,4.04,1.49,2.43,6.01,13.05,5.96.39,1.27,1.89,2.93,2,4-15.9-6.31-30.58,11.4-41.12-5.7-2.34-.54-14.49,3.94-16.79,1.61-.75-.76.97-8.23-3.13-9.91-1.39.39-11.67,4.73-12.96,4.01,2.09-2.34,5.54-7.76,6-8Z"/>
      <path class="cls-5" d="M46.11,134.44c-.75-.34-1.99-5.98-3.96-7.02l5.95,1.03-3.97-16.01c4.5,3.53,8.05,4.87,13.98,4.01,1.75,8.24-8.25-.56-5.98,15.99,15.63-11.21,6.08,7.53-6.02,2Z"/>
      <path class="cls-5" d="M76.07,92.46c1.34,8.73,4.57,4.94,9.61,4.61,2.18-.14,6.78-2.53,6.41,1.35-5.31.85-5.36,7.07-12.04,5.2-4.51-1.27-13.84-11.11-3.98-11.16Z"/>
      <path class="cls-5" d="M40.08,82.44c1.99,2.28-1.59,12.88,12,6,2.51,7.48-7.27,9.37-12.09,5.19-6.98-6.05-3.48-15.28.08-11.2Z"/>
      <path class="cls-1" d="M42.11,46.44c-2.88,11.89,10.78,2.59,11.99,4.01l.03,9.99c7.66-11.72,9.51-3.26,17.07-2.09,10.8,1.67,23.91-.49,34.9,2.1-1.34-10.48,1.33-8.08,10.01-8.01-.65,7.15-3.24,10.03,4,14-4.77,2.7-9.31,1.09-10,8-12.32.82-11.91-2.49-17.05-5.97-4.68-1.72-2.49,9.72-13.45,7.65-8.86-1.67-6.72-8.89-7.52-9.68-2.56-2.56-10.04,10.78-18.84-2.23-1.24-1.83-.95-5.56-1.16-5.77-.43-.43-11.43,1.73-11.97,2.01l-.04-2.68c-3.05-1.93-4.95-1.72-4.05-6.25,1.26-6.34,4.96-4.12,6.09-5.07Z"/>
      <path class="cls-1" d="M262.11,60.44c5.85,14.97-5.97,11.36-4,17.98,10.99-.35,14.43,11.63,12.04,20.72-.61,2.33-3.69,1-4.04,1.3,1.57-2.88-2.03-6.19-3.99-3.99s1.99,7.58,1.99,7.99c-.02,3.31-2.97,20.25-4.94,22.07-3.07,2.85-8.25,1.37-8.93,2.05.97,13.62-7.47,20.24-20.13,23.88-.97-1.6-2.68-1.45-4-2-.42-.18-.49-3.07-3.99-1.99-.07,15.16-12.34,22.55-26.56,19.56-4.36-.92-9.82-6.46-14.17-5.73-1.16.19-2.45,4.65-5.78,6.63-7.9,4.7-18.71,4.25-26.34-.71-4.82-3.13-4.92-12.19-15.16.24l-22-4c-1.55-4.55-3.68-9.11-4.02-14-1.39-1.2-6.48,2.6-7.98,4l-14,2c-1.36-4.84-10.21-7.86-10-14,12.27-4.7,30.41-25.58,34-38,2.17,1.39,5.97,11.11,6.48,11.53,1.64,1.33,5.12.1,5.52.48,2.3,2.12-4.91,6.98-5.72,9.28-2.45,7.04,3.4,3.33,6.73,6.64,5.39,5.35-.33,13.87,15.98,14.26,7.47.18,17.97-6.2,12.99,5.8,1.49,1.19,27.28-1.06,30.65-2.36,3.58-1.38,3.74-6.59,6.66-7.45,3.37-1,8.82,3.86,12.78.88l1.84-10.11c8.99-3.04,29.89-5.52,35.97-12.07.97-1.05,8.04-12.96,8.19-13.97.68-4.44-2.1-8.87-1.6-11.67.78-4.35,11.74-10.27,5.79-21.8l9.74-13.44ZM220.1,144.45h-5.98v3.98h5.98v-3.98Z"/>
      <path class="cls-2" d="M234.11,158.44c-.48,11.41-2.2,22.58-1.99,34.01h-10.02c1.55-11.87-6.79-38.44,12.01-34.01Z"/>
      <path class="cls-4" d="M194.11,172.44c3.66.56,8.17-.42,12,.02-1.25,5.86-7.81,5.61-5.98,11.97l3.98-1.99c1.46,6.44-4.62,3.53-10.01,4.01v-14.01Z"/>
      <path class="cls-2" d="M230.11,152.44c-1.73.53-3.76.24-5.02,1.96l1.02-3.96c1.32.55,3.03.4,4,2Z"/>
      <path class="cls-6" d="M124.11,74.44l-1.49,1.44c15.57,12.33,29.49,41.87-2.51,24.56.67-11.12-11.06-15.38-10-26,.69-6.91,5.23-5.3,10-8h2c.4,2.8.3,5.52,2,8Z"/>
      <path class="cls-1" d="M110.11,100.44c.39-1.69-.27-4.09.01-5.99,6.08-1.53,3.18,2.96,3.99,3.99l-4,2Z"/>
      <path class="cls-3" d="M264.11,104.44c-7.31-10.76,4.01-10.9,2-4-.41.36-.61,3.25-2,4Z"/>
      <path class="cls-2" d="M134.09,172.45l-2,27.99c-18.5,2-10.66-13.33-11.88-25.9l13.88-2.09Z"/>
      <path class="cls-2" d="M96.11,24.44c9.82-1,8.55,10.34,14.03,12.98,3.39,1.64,7.99.11,11.02,2.96,5.04,4.7,3.14,14.45-3.01,17.06,6.64,2.54,4.72,6.12,3.97,9h-2c-7.24-3.97-4.65-6.85-4-14,.15-1.69,4.53-3.68.16-9.17-4.35-5.47-9.86.25-12.25-1.63-2.65-2.08-1.38-12.57-9.91-15.2.46-.76,1.72-1.39,2-2Z"/>
      <rect class="cls-2" x="214.12" y="144.45" width="5.98" height="3.98"/>
      <path class="cls-3" d="M122.11,102.44c32.65,12.15,12.94-15.36.51-26.56l1.49-1.44c13.05,2.31,31.08,35.41,11.04,35.77-8.1.14-9.28-4.95-13.04-7.77Z"/>
      <path class="cls-2" d="M176.09,52.44c-1.9-4.58-9.29-6.1-10.18-7.24-4.93-6.32-.3-10.99-15.76-3.74,7.22-16.03,26.71-2.8,25.94,10.98Z"/>
      <path class="cls-6" d="M186.09,128.45c2.71,9.61-10.83,18.01-17.97,10.96-.79-5.32,5.95-1.98,10.03-3.94s2.01-8.54,7.94-7.02Z"/>
      <path class="cls-2" d="M236.08,104.45c8.84,8.53-7.08,28.01-13.97,14.01,6.39-.1,10.68,2.29,11.31-5.28.07-.84-3.05-14.25,2.66-8.73Z"/>
      <path class="cls-2" d="M228.08,68.43c-6.32-3.77-1.5-14.73-13.97-14.01,7.53-10.53,20.16,3.89,13.97,14.01Z"/>
      <path class="cls-4" d="M196.12,100.43c-1.02-5.6,6.78-7.03,7.55-11.24.47-2.58-3.37-6.9-.57-8.74,7.72,7.41,4.67,20.33-6.98,19.98Z"/>
      <path class="cls-4" d="M158.1,134.44c-2.7,11.18,9.11,1.44,8,9.99-7.16.24-11.88,1.41-12.05-6.96-.08-3.99.32-3.21,4.05-3.03Z"/>
      <polygon class="cls-1" points="120.11 58.44 118.14 57.44 120.11 56.44 120.11 58.44"/>
    </g>
  </g>
</svg>