<?xml version="1.0" encoding="UTF-8"?>
<svg id="Calque_2" data-name="Calque 2" xmlns="http://www.w3.org/2000/svg" viewBox="0 0 348.85 266.27">
  <defs>
    <style>
      .cls-1 {
        fill: #da5b3e;
      }
    </style>
  </defs>
  <g id="Calque_1-2" data-name="Calque 1">
    <path class="cls-1" d="M323.99,266.27c-21.8-.8-46.56-18.23-50.22-39.77-1.31-1.15-14.74.2-18.75-.26-26.62-2.6-50.98-20.03-57.3-45.7-25.76.36-55.22-7.28-70.6-30.4-3.08-4.53-6.6-17.4-9.09-18.91-3.78-2.28-18.12-.62-24.52-1.48-26.94-3.62-44.31-25.82-49.77-51.24C30.14,77.21-.48,76.15,0,58.28c1.57-1.69,34.02,12.8,42.12,7.11,3.16-20.14,2.8-37.94,18.87-53.11,60.37-41.51,88.24,33.34,12.1,60.1-14.32,5.72-22.79-.1-11.48,21.26,11.43,21.58,33.92,26.5,56.09,22.34-3.47-31.31,34.05-83.34,67.33-65.76,26.53,14.02,9.45,43.83-8.4,57.71-13.13,10.21-28.01,14.2-42.48,21.51,3.69,14.56,15.36,27.77,29.74,31.92,5.47,1.58,28.26,5.36,31.2,1.04,19.55-124.64,142.57-55.28,38.24,6.24-7.94,3.73-23.72,3.76-20.51,13.71,6.44,19.99,37.53,32.39,57.16,27.94-1.4-24.17,16.95-60.91,41.47-67.54,11.35-3.07,26.7-4.13,33.35,7.7,18.32,32.55-30.27,65.65-56.9,72.93,5.39,24.72,29.54,20.92,40.07,34.9l-4,8ZM81.42,12.7c-6.9,1.58-19.74,14.91-22.41,21.59-2.16,5.42-4.98,19.75-4.91,25.18.11,8.95,12.8,2.86,17.25,1.15,28.72-7.49,64.51-55.08,10.07-47.92ZM132.01,114.26c3.68,3.68,33.37-15.02,38.01-18.97,8.12-6.9,25.82-30.73,8.53-34.58-25.42-5.66-47.71,31.04-46.54,53.55ZM212,160.28c16.15,1.25,47.02-26.15,47.96-41.15.62-9.96-6.35-11.97-14.82-10.75-20.12,2.9-33.52,33.6-33.14,51.9ZM318.9,189.16c50.24-62.05-38.11-33.25-32.89,19.11,12.36-3.85,23.69-10.14,32.89-19.11Z"/>
  </g>
</svg>