<?xml version="1.0" encoding="UTF-8"?>
<svg id="Calque_2" data-name="Calque 2" xmlns="http://www.w3.org/2000/svg" viewBox="0 0 396.18 132.79">
  <defs>
    <style>
      .cls-1 {
        fill: #5373a0;
      }

      .cls-2 {
        fill: #366d9c;
      }
    </style>
  </defs>
  <g id="Calque_1-2" data-name="Calque 1">
    <g>
      <path class="cls-2" d="M238.24,45.91c.94-.94,3.18,1.85,1,2-.69.05-1.45-1.55-1-2Z"/>
      <path class="cls-2" d="M230.24,67.91c-41.97,121.4-40.93,46.77-80.28-16.72-1.65-2.37-2.28-3.99-5.69-3.27-6.83,13.49-30.93,83.58-43.05,84.05L53.27,49.92,18.37,125.02C13.05,131.15.46,127.96.02,118.91c-.37-7.72,3.78-7.84,5.71-12.51C11.83,91.6,40.97,14.15,51.25,9.92c1.4,5.49,5.98,4.13,9.11,7.43,4.88,5.15,20.04,34.33,24.67,42.78,1.65,3.01,14.93,33.49,17.19,31.78,56.2-122.54,33.05-97.1,93.99-6C212.64,58.93,219.88,23.97,240.41.04c.45-.25,9.1,3.89,9.4,4.31,1.43,2.04,5.49,18.71,7.66,23.33,2.82,5.99,7.59,12.28,10.25,17.75,3.16,6.48,12.76,34.57,19.5,34.51,7.08-5.4,15.04-35.33,23.43-42.61,7-13.79,10.63-39.53,31.36-37.17,11.01,23.99,21.65,48.24,32.79,72.19,4.13,8.88,25.79,44.04,20.56,51.64-2.47,3.59-14.93,5.25-18.63,1.4l-41.52-83.46-46.93,87.05c-11.77,7.48-15.69-16.84-18.05-23.07-1.42-8.8,9.46-.9,11.7-2.19.38-.22,3.07-6.44,4.3-7.79-6.49-2.78-5.06,5.41-8.99,4.01-1.38-.49-.92-7.21-4.97-4.02-1.07.84-.37,8.79-6.04,3.98-.35-.92.26-2.76,0-4-6.16-5.24-8.85-16.28-12-24,11.32-1.03,1.31-11.25-6-12-1.78-4.09-2.4-8.38-6-12,.63-1.82-.4-5.67-.02-8-3.34-.15-3.49,5.64-3.98,6-3.25,2.38-20.69,4.59-4,12-.25.55.24,1.44,0,2l-6.01.02c2.22,3.61,2.71,4.45-1.97,4.01v1.95s3.98,2.03,3.98,2.03ZM248.22,33.9c-4.25-4.5-4.12,7.65-3.87,8.69.49,2.03,5.63,2.75,6.91,5.27-.93-2.41-2.55-13.44-3.04-13.96ZM258.23,51.92h-3.98v5.98h3.98v-5.98ZM224.24,59.93h-3.99s0,3.98,0,3.98l3.98-3.98ZM217.24,63.91v2c1.3-.67,1.3-1.33,0-2ZM272.23,85.92c-4.17-.55-4.53-.19-3.98,3.98l5.01,1.97-1.03-5.95Z"/>
      <path class="cls-1" d="M242.24,47.91c-.21.61-7.51,8.91-8,10-16.69-7.41.75-9.62,4-12-.45.45.31,2.05,1,2,2.18-.15-.06-2.94-1-2,.49-.36.64-6.15,3.98-6-.38,2.33.65,6.18.02,8Z"/>
      <path class="cls-1" d="M248.24,59.91c7.31.75,17.32,10.97,6,12-1.66-3.68-4.12-7.69-6-12Z"/>
      <path class="cls-1" d="M234.24,59.91c-1.24,2.86-2.93,5.52-4,8l-3.98-2.03v-1.95c4.68.44,4.19-.4,1.97-4.01l6.01-.02Z"/>
      <path class="cls-1" d="M266.24,99.91c5.67,4.81,4.97-3.14,6.04-3.98,4.05-3.2,3.58,3.53,4.97,4.02,3.93,1.4,2.5-6.79,8.99-4.01-1.24,1.35-3.92,7.56-4.3,7.79-2.24,1.29-13.11-6.61-11.7,2.19-.42-1.11-2.94-3.24-4-6Z"/>
      <path class="cls-1" d="M266.24,95.91c-.72-.62-1.34-1.33-2-2,.91.28,1.81,1.08,2,2Z"/>
      <path class="cls-1" d="M248.22,33.9c.49.52,2.11,11.56,3.04,13.96-1.28-2.52-6.42-3.24-6.91-5.27-.25-1.05-.38-13.19,3.87-8.69Z"/>
      <rect class="cls-1" x="254.25" y="51.92" width="3.98" height="5.98"/>
      <path class="cls-1" d="M272.23,85.92l1.03,5.95-5.01-1.97c-.55-4.17-.19-4.53,3.98-3.98Z"/>
      <polygon class="cls-1" points="224.24 59.93 220.26 63.91 220.25 59.92 224.24 59.93"/>
      <path class="cls-1" d="M217.24,63.91c1.3.67,1.3,1.33,0,2v-2Z"/>
    </g>
  </g>
</svg>