<?xml version="1.0" encoding="UTF-8"?>
<svg id="Calque_2" data-name="Calque 2" xmlns="http://www.w3.org/2000/svg" viewBox="0 0 270.1 133.77">
  <defs>
    <style>
      .cls-1 {
        fill: #a3cae0;
      }

      .cls-2 {
        fill: #59b5dd;
      }
    </style>
  </defs>
  <g id="Calque_1-2" data-name="Calque 1">
    <g>
      <path class="cls-2" d="M120.56,116.32c-21.02,8.16-46,3.17-56.17-17.92C-.19,133.97-18.24,43.22,19.58,6.34c2.3-2.12,15.42-11.15,15.06-2.97-.27,6.21-10.66,14.33-14.42,21.61C2.28,59.67,9.82,109.73,57.71,88.33c-6.14-16.29,4.7-67.9,27.37-63.71,20.39,3.76,16.43,27.4,10.28,41.51-3.16,7.25-17.95,21.12-18.6,23.59-4.05,15.45,42.62,23.07,47.48,5.14,1.29-4.76-1.73-16.37-.77-22.62,2.2-14.17,17.78-44.55,34.95-30.8,11.25,9.01,5.12,26.75-.17,37.58-7.24,14.83-25.48,21.15-6.16,30.74,18.57,11.33,44.08-3.21,57.5-15.45,2.4-4.85-1.26-14.07-1.08-20.92.48-17.79,7.1-56.41,30.86-54.99,19.77,1.18,8.68,43.75,3.58,55.32-3.62,8.21-16.15,18.57-14.04,27.07,5,20.13,30.15,16.82,37.67,22.49,10.01,7.54-4.01,10.46-9.8,10.5-20.59.13-27.78-13.06-41.53-25.16-20.6,11.38-46.03,30.64-68.71,11.7-2.58-3.31-7.67-8.46-12-8,.2-3.4.72-4.64-2.98-4.01l-1.02,4.01c-3.93.35-8.55-.98-10,4ZM232.56,34.32c-5.56,11.31-11.05,29.77-9.98,44,10.45-10.22,21.96-36.63,12.99-50.04-8.87-2.6-2.82,4.8-3.01,6.04ZM86.55,38.32c-15.8.94-16.05,27.77-15.97,39.99,11.38-10.54,18.35-24.07,15.97-39.99ZM150.55,52.33c-10.06-10.66-22.72,55.83-11.02,32.04,2.68-4.56,13.98-29.23,11.02-32.04Z"/>
      <path class="cls-1" d="M130.56,112.32l1.02-4.01c3.7-.63,3.18.61,2.98,4.01-1.11-.2-2.74-.04-4,0Z"/>
      <path class="cls-1" d="M128.56,112.32c-2.14,2.32-5.22,2.92-8,4,1.29-4.42,4.47-3.56,8-4Z"/>
      <path class="cls-1" d="M146.56,120.32c-3.71-2.27-8.26-3.21-10-8,3.08,1.01,8.08,5.1,10,8Z"/>
      <path class="cls-1" d="M232.56,34.32c.19-1.24-5.86-8.64,3.01-6.04.85.25,2.87,5.08,2.99,6.04h-6Z"/>
    </g>
  </g>
</svg>