<?xml version="1.0" encoding="UTF-8"?>
<svg id="Calque_2" data-name="Calque 2" xmlns="http://www.w3.org/2000/svg" viewBox="0 0 99.6 128.36">
  <defs>
    <style>
      .cls-1 {
        fill: #5373a0;
      }
    </style>
  </defs>
  <g id="Calque_1-2" data-name="Calque 1">
    <g>
      <path class="cls-1" d="M79.28,123.33c-12,8.83-20.65,6.34-15-10.02,6-17.36,15.31-16,13.84-39.66C75.73,16.94,29.64,34.73,22.35,9.24c-.91-16.3,27.82-6.98,36.68-2.48,37.78,19.15,58.4,88.5,20.24,116.58Z"/>
      <path class="cls-1" d="M47.76,89.79c-6.47,7.16-29.46,11.72-37.98,6.73C1.74,91.81-2.36,70.77,1.42,62.44c2.24-4.93,18.82-16.94,24.25-17.51,2.38-.25,18.24,6.94,20.61,8.57,8.54,5.86,8.03,29.02,1.47,36.29Z"/>
    </g>
  </g>
</svg>