<?xml version="1.0" encoding="UTF-8"?>
<svg id="Calque_2" data-name="Calque 2" xmlns="http://www.w3.org/2000/svg" viewBox="0 0 211.28 101.83">
  <defs>
    <style>
      .cls-1 {
        fill: #edce6e;
      }

      .cls-2 {
        fill: #f2bb4a;
      }
    </style>
  </defs>
  <g id="Calque_1-2" data-name="Calque 1">
    <g>
      <path class="cls-1" d="M105.95.4c39.39-3.24,73.7,13.25,93.25,47.57,5.43,9.53,18.44,40.06,8.35,48.03-1.88,1.49-23.48,3.63-28.11,3.89-44.41,2.52-105.81,2.62-150.18.01-31.07-1.83-34.81-4.06-23.25-35.45C22.36,20.05,61.7,4.05,105.95.4ZM174.35,25.82c-.64-.77-5.78,2.4-8.57,1.7-5.91-1.48-21.33-15.57-27.61-18.51-12.28-4.53-67.4-6.27-74.15,8.34-.86.51-3.64-2.24-6.73.21-2.07,1.64-3.06,6.26-4.93,7.38-2.41,1.44-6.46-2.29-12.7,1.11-11.74,4.55-50,64.64-26.39,67.86,48.35,4.19,103.09-4.42,152.19-2.19,8.09-.63,32.12,8.56,31.07-5.65,1.37-1.31,7.06.47,7.85-.25,1.57-1.42-1.85-20.65-3.03-23.99-1.1-3.12-10.86-19.47-12.85-21.25-7.66-5.72-14.27,5.54-14.14-14.76Z"/>
      <path class="cls-2" d="M174.35,25.82c-.12,20.32,6.51,9.03,14.14,14.76,1.99,1.78,11.75,18.14,12.85,21.25,1.18,3.34,4.6,22.57,3.03,23.99-.79.71-6.49-1.07-7.85.25,1.09,14.22-23.04,5.01-31.07,5.65-49.08-2.23-103.88,6.39-152.19,2.19-23.72-3.18,14.81-63.4,26.39-67.86,6.24-3.41,10.29.33,12.7-1.11,1.87-1.12,2.86-5.74,4.93-7.38,3.09-2.45,5.88.3,6.73-.21,6.65-14.62,61.94-12.85,74.15-8.34,6.27,2.94,21.7,17.03,27.61,18.52,2.8.7,7.93-2.47,8.57-1.7ZM160.35,47.8c4.93-4.95-14.51-16.49-15.98-8.96-.55,4.99,14.49,10.46,15.98,8.96ZM94.35,39.82c-4.25-1.8-26.89.99-19.99,7.98,1.02,1.03,7.75-.5,10-.99s11.72-2.66,9.99-6.98ZM166.35,63.8c7.54-8.13-25.51-13.48-29.98-11.98-.96,5.2.96,3.52,3.98,4.91,7.24,3.31,12.06,2.01,18.54,3.55,1.87.44,5.79,5.32,7.45,3.53Z"/>
      <path class="cls-1" d="M166.35,63.8c-1.67,1.8-5.59-3.08-7.45-3.53-6.49-1.54-11.31-.23-18.54-3.55-3.02-1.38-4.94.29-3.98-4.91,4.46-1.5,37.52,3.85,29.98,11.98Z"/>
      <path class="cls-1" d="M94.35,39.82c1.73,4.33-7.8,6.5-9.99,6.98s-8.98,2.02-10,.99c-6.9-6.99,15.74-9.78,19.99-7.98Z"/>
      <path class="cls-1" d="M160.35,47.8c-1.49,1.5-16.52-3.97-15.98-8.96,1.47-7.53,20.91,4.01,15.98,8.96Z"/>
    </g>
  </g>
</svg>