<?xml version="1.0" encoding="UTF-8"?>
<svg id="Calque_2" data-name="Calque 2" xmlns="http://www.w3.org/2000/svg" viewBox="0 0 272.27 254.34">
  <defs>
    <style>
      .cls-1 {
        fill: #edce6e;
      }

      .cls-2 {
        fill: #f2bb4a;
      }
    </style>
  </defs>
  <g id="Calque_1-2" data-name="Calque 1">
    <g>
      <path class="cls-1" d="M154.23,207.82c-1.11-6.36,3.2-3.54,6.98-3.94,28.94-3.19,55.81-7.61,73.99-32.1,11.31-40.25-57.63-74.39-88.73-50.73-19.73,12.78-11.35,26.82-16.76,45.24-.94,3.2-6.84,10.08-5.46,11.52,8.05,8.45,13.04-34.53,13.88-37.09,3.05-9.33,6.13-6.7,8.11-8.9,3.24-3.59,2.95-9.22,12.11-11.21,3.06-.66,3.68,1.21,3.89,1.21-2.17,3.58-14.5,8.28-16,10-13.1,19.26,2.09,44.91-26,54,2.47-8.83-7.4-6.76-12.12-5.11-8.55,2.99-15.31,14.86-19.27,17.23-5.69,3.4-15.91-1.25-14.61,5.85,18.74,6.02,24.64,15.33,46.51,11.55,12.64-2.19,10.53-7.6,27.48-7.52-28.79,17.71-49.13,14.1-78.53-.47-29.7-14.37-2.13-44.2,18.53-51.53-8.31,8.13-19.93,17.81-24.09,30.9-3.24,10.2-3.91,12.49,8.08,13.09,2.36-5.11-3.93-3.35-4.13-5.2-.6-5.47,6.26-19.92,11.03-22.94,12.91-4.31,5.26,1.07,14-9.95,54.29-36.73,9.46-102.44-5.23-66.18-1.54.99-5.11-.45-7.17.72-4.59,2.62-11.6,21.23-14.45,22.61-4.5,2.17-18.51,2.12-24.03.96-.3,11.32,13.83,2.37,15.92,4.07.67.55-.31,3.45.07,3.92-26.02-2.89-33.32,22.48-26.46,43.46,3.45,10.54,16.76,16.2,21.46,28.54C75.51,249.77,2.57,266.99.04,244.85c-1.34-22.46,30.61,7.91,40.06-22.15,4.2-25.69-11.11-26.36-19.54-44.21-9.92-21-1.22-58.83,24.84-62.5,5.44-.77,14.89,1.26,18.85-1.15,1.11-.68,10.25-17.74,14.04-21.96,46.58-44.51,60.49,44.6,21.99,69.99-7.39,6.47-27.15,13.8-26.15,25.93,1.18,14.35,24.05-7.2,29.49-10.59,5.14-3.21,14.32-4.82,17.56-8.44,10.66-11.88-2.04-37.94,22.37-53.63,37.07-30.04,133.11,29.19,83.34,69.34-21.56,17.2-45.85,21.73-72.66,22.34Z"/>
      <path class="cls-2" d="M146.23,131.82c-1.98,2.19-5.06-.43-8.11,8.9-.84,2.56-5.82,45.54-13.88,37.09-1.38-1.44,4.52-8.32,5.46-11.52,5.41-18.42-2.97-32.45,16.76-45.24,31.09-23.66,100.03,10.48,88.73,50.73-18.2,24.5-45.04,28.91-73.99,32.1-3.77.4-8.09-2.43-6.97,3.94-16.97-1.63-21.13,4.52-33.48,7.52-21.87,3.78-27.78-5.53-46.51-11.55-1.3-7.1,8.92-2.45,14.61-5.85,3.96-2.37,10.71-14.24,19.27-17.23,4.72-1.65,14.59-3.72,12.12,5.11-8.35.45-20.78,3.7-25.76,11.29-3.96,6.59.52,10.78,7.18,12.28,16.05,3.62,35.05-7.81,51.53-11.71,3.41-.81,8.23,2.9,7.05-3.86,1.88-.29,4.11.28,6,0,7.39,2.99,27.52-1.02,34.44-4.06,3.31-1.45,4.62-8.92,15.16-6.36,9.46-15.56,20.81-13.76,10-34.18-8.54-16.14-27.23-25.24-44.3-29.7-2.92-.76-12.87-5-11.3,2.29-2.45-.27-5.46-.07-8,0-.2,0-.83-1.87-3.89-1.21-9.17,1.99-8.87,7.62-12.11,11.21Z"/>
      <path class="cls-2" d="M58.23,127.82c-.38-.47.6-3.37-.07-3.92-2.08-1.7-16.22,7.25-15.92-4.07,5.52,1.15,19.52,1.21,24.03-.96,2.85-1.37,9.86-19.99,14.45-22.61,2.06-1.17,5.63.27,7.17-.72,14.7-36.27,59.5,29.48,5.22,66.18-8.75,11.01-1.04,5.64-14,9.95-4.77,3.02-11.63,17.47-11.02,22.94.2,1.85,6.49.09,4.13,5.2-11.98-.6-11.32-2.89-8.08-13.09,6.24-17.34,20.8-26.73,32.09-38.9.46-.4,3.6-.61,6.1-2.82,19.14-16.93,14.24-63.78-10.01-48.08-5.69,3.6-5.03,8.13-8.09,12.91-3.66-2.14-7.02,8.3-7.66,11.52-.79,3.97,1.67,6.09,1.66,6.48-.14,5.02-.26,9.19-2,14l-7.99,2c-.38-5.22-1.56-14.66-8.01-14-.66-.71-1.53-1.42-2-2Z"/>
      <path class="cls-1" d="M96.23,147.82c8.03-12.92,16.34-21.53,13.54-38.51-3.09-18.76-13.26-9.92-23.54-3.49,1.84-3.97,1.39-5.87,6.09-8.91,26.8-18.05,29.63,42.94,3.91,50.91Z"/>
      <path class="cls-1" d="M60.23,129.82c6.46-.66,7.63,8.78,8.01,14l7.99-2c-.7,1.95-1.95,3.74-2.09,5.91-6.07,4.08-14.91-12.17-13.91-17.91Z"/>
      <path class="cls-1" d="M84.23,109.82c-2.01,4.98-2.23,13.1-6,18,.01-.39-2.45-2.51-1.66-6.48.64-3.22,4-13.66,7.66-11.52Z"/>
      <path class="cls-1" d="M170.23,121.82c-1.57-7.29,8.38-3.06,11.3-2.29,17.07,4.46,35.76,13.56,44.3,29.7,10.81,20.42-.54,18.62-10,34.18-10.54-2.56-11.85,4.9-15.16,6.36-6.93,3.04-27.05,7.06-34.44,4.06,20.35-3.74,77.45-18.78,52.88-47.87-10.48-14.81-31.43-22.2-48.88-24.13Z"/>
      <path class="cls-1" d="M116.23,185.82c-1.36,8.24-20.79,7.76-17.99,16.98,3.63,11.93,34.45-5.14,41.11-6.85,8.24-2.11,13.91-1.04,20.87-2.13,1.18,6.76-3.63,3.06-7.05,3.86-16.48,3.9-35.48,15.33-51.53,11.71-6.67-1.5-11.15-5.69-7.18-12.28,4.5-7.48,14.38-8.66,21.76-11.29Z"/>
      <g>
        <path class="cls-2" d="M230.23,15.82c-5.8-5.41-12.82-3.15-17.99-9.01,12.89-5.06,31.61,5.07,36.89,17.11,2.16,5.62.32,10.73,1.62,16.37,2.88,12.53,18.23,23.98,15.53,40.42-.86,5.23-14.41,21.21-19.48,22.74-6.7,1.17-24.16-1.89-30.57-5.64-2.03-12.84-19.23-6.86-28.82-8.18-14.96-2.06-25.14-6-43.18-5.82-9.17-7.93-25.92-2.17-26.07-18.96-.1-12.01,22.13-31.71,32.61-35.49,4.13-1.49,12.55-1.28,13.19-1.84,1.04-11.83,9.7-9.77,18.62-12.36,8.07-3.17,13.85-9.54,23.63-7.35l-11.99,11.99c-6.51.22-23.37,2.2-24,10-13.53,3.08-51.47,20.07-40.11,39.13,4.91,8.14,20.37,3.92,28.9,5.08,21.1,3.53,33.17,13.52,55.18,3.79,1.25.93,1.82,13.79,8.03,12,.53,9.21,19.86,9.48,26.13,5.13,14.91-10.07,6.46-38.59-.49-51.87-1.48-2.83-.85-6.31-5.64-5.25-1.03-5.63.29-15.66-8-16-1.03-1.7-2.76-4.85-4-6Z"/>
        <path class="cls-1" d="M144.23,83.82c-.15,0-1.06,1.47-2.56,1.37-23.95-1.54-37.02-15.89-20.49-37.42C136.77,27.47,197.36-2.58,222.69.18c7.81.85,24.64,13.03,28.38,19.8,3.76,6.8,2.81,14.9,5.58,22.42,3.81,10.37,15.62,19.76,15.62,32.42,0,13.29-15.01,34.2-28.94,34.72-3.23.12-23.82-3.13-23.1-9.72,5.9,1.51,21.47,5.19,26.57,3.64s18.62-17.52,19.48-22.74c2.7-16.44-12.64-27.89-15.53-40.42-1.3-5.65.54-10.76-1.62-16.37-5.28-12.05-24-22.16-36.89-17.11,5.17,5.86,12.19,3.6,17.99,9.01-13.64-2.88-23.17,1.17-36,4l11.99-11.99c-9.78-2.2-15.56,4.18-23.63,7.35-8.97,2.61-17.55.5-18.62,12.36-.64.55-9.06.34-13.19,1.83-10.48,3.78-32.71,23.48-32.61,35.49.15,16.79,16.9,11.03,26.07,18.96Z"/>
        <path class="cls-1" d="M216.23,97.82c-17.61-4.86-41.99-8.09-61.03-10.06-3.78-.39-8.09,2.41-6.97-3.94,17.91.75,24.47,3.81,39.18,5.82,9.59,1.32,26.79-4.66,28.82,8.18Z"/>
        <path class="cls-1" d="M168.23,29.82c1.11,4.98-2.62,4.07-5.29,5.61-32.72,15.6-49.97,38.79,2.12,34.56,21.18,2.76,52.21,26.18,43.17-18.17,6.75-2.24,7.69,18.22,6.01,21.99,7.79.98,6.31-13.61,5.51-18.51-1.27-7.73-9.19-20.79-18.2-19.56-.48.07-7.12,6.67-5.31,8.07,2.37.17,6.91-1.19,6,4.01-40.94-6.05,29.07-39.91,21.9,24.9-.78,7.08-5.59,6.77-1.9,17.1-6.2,1.79-6.77-11.07-8.03-12-22.05,9.73-34.07-.26-55.18-3.79-8.53-1.17-23.99,3.06-28.9-5.08-11.48-19.03,25.34-34.14,38.11-39.13Z"/>
        <path class="cls-1" d="M242.23,37.82c4.8-1.05,4.16,2.42,5.64,5.25,6.95,13.29,15.4,41.8.49,51.87-6.55,4.42-21.95,3.54-26.13-3.13,45.82,10.11,28.33-29.22,20-54Z"/>
        <path class="cls-1" d="M190.23,19.82c-4.16,6.89-13.23,7.49-20,10-.27-6.87,14.65-8.66,20-10Z"/>
        <path class="cls-1" d="M242.23,35.82c-4.96-2.28-5.56-9.97-8-14,7.94.17,6.41,8.82,8,14Z"/>
        <path class="cls-2" d="M202.23,47.82c.94-5.21-3.7-3.84-6-4.01-1.81-1.4,4.83-8,5.31-8.07,9.01-1.23,16.93,11.83,18.2,19.56.81,4.9,2.28,19.49-5.51,18.51,1.68-3.71.75-24.24-6-21.99.75-5.36-3.03-3.92-6-4Z"/>
      </g>
    </g>
  </g>
</svg>