<?xml version="1.0" encoding="UTF-8"?>
<svg id="Calque_2" data-name="Calque 2" xmlns="http://www.w3.org/2000/svg" viewBox="0 0 227.14 216.68">
  <defs>
    <style>
      .cls-1 {
        fill: #5373a0;
      }

      .cls-2 {
        fill: #a3cae0;
      }

      .cls-3 {
        fill: #958094;
      }

      .cls-4 {
        fill: #90624d;
      }

      .cls-5 {
        fill: #909d9d;
      }

      .cls-6 {
        fill: #3b7f6b;
      }

      .cls-7 {
        fill: #9c7f6f;
      }
    </style>
  </defs>
  <g id="Calque_1-2" data-name="Calque 1">
    <g>
      <path class="cls-4" d="M63.1,60.64l-4.09-48.95c2.35-18.19,18.78-12.13,16.11,4.95,38.74-23.59,93.38-21.36,131.02,1.97,5.77,1.73.12-9.6,6.95-13.03,3.62-1.82,7.7-1.32,10.2,1.88,3.78,4.85,1.48,51.73,1.73,62.26.46,18.9,3.22,38.29,1.64,57.47-2.84,13.01-10.19,1.42-15.32,8.68-10.17,26.33-31.07,48.4-32.07,77.44-1.88,2.96-8.55,3.8-11.98,3.17l-2.19-13.83-145.97-8.01c2.35,13.2-6.61,26.62-16.02,11,4.07-15.49-15.77-75.3,12-69.01-.17,1.34.13,4.2,2,4-.4,3.89.26,8.08-.01,12.01,3.22-.29,6.93.43,10.01-.01-.96,6.22-14,1.12-8.97,8.03,44.91-17.36,101.92-11.42,144.95,7.96,3.79-3.52-3.13-4.08-4.26-4.65-32.68-16.59-96.3-19.74-131.72-11.35,7.5-1.08,24.46-8,31-8h48c17.39,1.67,40,10.45,56.98,16,.21-7.96,5.24-22.02,13.18-12.15,2.63,3.28,1.6,7.79,4.82,8.13,13.96-42.27,37.47-29.24,36.03-61.98.3-5.96.61-14.24,0-20-.71-6.72-.79-4.3-4-8-2.55-2.94-2.76-5.17-8-4,.58-2.26,1.07-24.53-.32-25.68-12.92-3.32-44.47-17.19-56.4-8.5-1.12.81-7.39,21.15-11.26,16.18,1.81-15.52-2.38-18.73-16.93-20.07-13.95-1.28-37.2-3.96-43.02,11.13-.87,2.25-5.39,14.86,1.94,12.95-.11,2.66.08,5.34,0,8-4.93-.34-4.22-1.89-6-8-7.45-10.82,6.85-37.59-7.99-41.99-.9,2.68,2.21,53.67-2.01,53.99ZM173.09,8.66C152.05,2.82,130.14.07,109.08,7.64c19.38.23,38.65-2.94,58.02,2.02,2.11.22,6.4,2.9,5.98-.99Z"/>
      <path class="cls-5" d="M73.1,48.64c1.46,10.5,6.37,7.88,14,8v2c-5.66,5.02-30.56,7.23-34,12,.39-.45.14-2.96,2-4.93,2.42-2.24,10.09-3.73,10-9.07,6,.75,8.76-1.88,8-8Z"/>
      <path class="cls-5" d="M49.1,84.64c-1.22.23-2.72-.15-4,0,3.36-5.67.91-5.78,8-14-.57.78-2.42,11.59-4,14Z"/>
      <path class="cls-3" d="M79.1,48.64c-7.34,1.92-2.81-10.7-1.94-12.95,5.83-15.09,29.07-12.42,43.02-11.13,14.56,1.34,18.74,4.55,16.93,20.07,3.87,4.97,10.15-15.36,11.26-16.18,11.94-8.69,43.49,5.19,56.4,8.5,1.39,1.16.9,23.42.32,25.68-.43,1.7-10.27,10.87-8,13.97l11.01,6.02,4.99-15.99c3.21,3.7,3.29,1.28,4,8-6.36,4.15-7.73,20.67,0,20-.62,12.29.87,14.27-8,24,6.57-23.92,2.99-31.95-19.48-41.52-16.42-7-43.25-15.95-60.52-18.48-.29-8.62,9.06-17.8,2.23-26.84-1.75-2.39-26.62-3.46-31.21-3.11-15.82,1.21-20.35,3.59-21.03,19.96ZM194.98,72.52l7.68-28.94c-6.3-8.93-45.79-15.05-52.62-9-1.97,2.02-8.47,20.04-6.82,21.95,7.89.23,47.94,19.37,51.76,15.99Z"/>
      <path class="cls-7" d="M73.1,48.64c.76,6.12-2,8.75-8,8V6.65c14.85,4.4.55,31.16,8,41.99Z"/>
      <path class="cls-7" d="M173.09,8.66c.42,3.89-3.87,1.21-5.98.99-19.37-4.96-38.64-1.79-58.02-2.01,21.05-7.57,42.97-4.82,64.01,1.02Z"/>
      <path class="cls-3" d="M99.1,54.64v4c-3.85.43-8.09-.3-12,0v-2c4.08-.29,7.93-1.82,12-2Z"/>
      <g>
        <path class="cls-1" d="M85.1,80.64v2c-6.79.71-30.73,3.41-35.12,5.88-9.18,5.17-31.75,41.24-32.88,52.12-9.31-11.03,22.19-44.42,28-56,15.42-1.33,25.2-3.04,40-4Z"/>
        <path class="cls-5" d="M157.1,94.64c9.99,8.02,28.23,1.58,38,10,0,0,4,22,4,22-7.73,7.25-14.67,19.54-18.03,29.99-3.22-.34-2.18-4.85-4.82-8.13-7.93-9.87-12.97,4.19-13.18,12.15-16.92-5.54-39.64-14.34-56.98-16,0,0-48,0-48,0-11,.85-28.84,10.07-41.01,8.01-4.09-18.12,19.79-53.87,32.89-64.13,18.97-5,47.25-8.49,67.87-7.64,14.87,1.52,25.31,9.4,39.25,13.76ZM78.1,90.64v2c1.3-.67,1.3-1.33,0-2ZM97.1,90.66c-7.62-2.39-10.85,8.04-5.03,5.96,1.17-.42,4.59-4.25,5.03-5.96ZM73.08,108.64c.49-.54,3.74-11.83,4.01-14-4.8-.56-10.66,21.33-4.01,14ZM139.1,106.64c-1.34-8.07-8.82-5.52-15.99-5.99-1.28,6.45,12.19,5.23,15.99,5.99.3,1.83-1.09,5.47.99,5.99,5.69-5.74,4.35-4.93-.99-5.99ZM68.1,110.64v2c1.3-.67,1.3-1.33,0-2ZM121.11,138.63c7.69-3.89,18.57-14.84,17.97-23.99-5.46,7.79-17.37,14.23-17.97,23.99Z"/>
        <path class="cls-7" d="M27.1,152.64c35.42-8.39,99.04-5.24,131.72,11.35,1.12.57,8.05,1.13,4.26,4.65-43.04-19.39-100.02-25.32-144.95-7.96-5.04-6.91,8.01-1.82,8.97-8.03Z"/>
        <path class="cls-6" d="M203.1,122.64c-1.37,1.36-2.55,2.64-4,4l-4-22c4.83,5.71,8,9.5,8,18Z"/>
        <path class="cls-6" d="M157.1,92.64v2c-28.47-12.14-40.2-17.59-72-12v-2c14.55-8.09,38.77-4.67,54.01.99,5.93,2.59,12.4,9.58,17.99,11.01Z"/>
        <path class="cls-1" d="M193.1,102.64c-10.88-4.6-26.42-1.09-36-8v-2c14.53,3.7,22.2-1.7,36,10Z"/>
        <path class="cls-1" d="M121.11,138.63c.59-9.76,12.51-16.2,17.97-23.99.61,9.13-10.29,20.12-17.97,23.99Z"/>
        <path class="cls-2" d="M139.1,106.64c-3.8-.76-17.27.46-15.99-5.99,7.17.47,14.65-2.08,15.99,5.99Z"/>
        <path class="cls-2" d="M97.1,90.66c-.44,1.71-3.86,5.54-5.03,5.96-5.82,2.08-2.6-8.35,5.03-5.96Z"/>
        <path class="cls-1" d="M73.08,108.64c-6.66,7.33-.79-14.56,4.01-14-.27,2.16-3.52,13.46-4.01,14Z"/>
        <path class="cls-1" d="M139.1,106.64c5.34,1.06,6.68.25.99,5.99-2.08-.52-.69-4.16-.99-5.99Z"/>
        <path class="cls-1" d="M68.1,110.64c1.3.67,1.3,1.33,0,2v-2Z"/>
        <path class="cls-1" d="M78.1,90.64c1.3.67,1.3,1.33,0,2v-2Z"/>
      </g>
      <path class="cls-6" d="M129.1,54.64c-.38.78.26,2.81,0,4-13.31-1.94-17-1.45-30,0v-4c9.94-.45,20.05.32,30,0Z"/>
    </g>
  </g>
</svg>