<?xml version="1.0" encoding="UTF-8"?>
<svg id="Calque_2" data-name="Calque 2" xmlns="http://www.w3.org/2000/svg" viewBox="0 0 166.43 279.22">
  <defs>
    <style>
      .cls-1 {
        fill: #5373a0;
      }

      .cls-2 {
        fill: #366d9c;
      }
    </style>
  </defs>
  <g id="Calque_1-2" data-name="Calque 1">
    <g>
      <path class="cls-2" d="M28.5,147.13c1.36,8.08,7.14,5.28,8,6,1.05.88-1.12,20.32,1.56,27.44,2.31,6.13,18.29,23.75,25.25,22.72,14.38-26.54,50.54-57.31,82.2-54.16,24.55,2.44,26.12,25.44,11.79,41.81-21.7,24.78-55.28,29.1-86.6,28.41-11.27,42.06,29.84,55.71,63.17,40.16,9.47-4.42,13.42-13.91,26.61-10.37-7.46,38.1-120,52.33-102.19-32.71-.73-2.55-12.06-7.62-15.57-10.6-14.53-12.34-22.24-31.9-18.23-50.7l2-2c.52-2.3,1.37-3.99,2-6ZM78.51,207.12c24.09-1.22,47.36-1.59,65.08-19.9,5.42-5.59,16.14-21.9,3.51-25.68-19.07-5.71-65.47,24.33-68.59,45.58Z"/>
      <path class="cls-1" d="M12.5,83.13c4.15-17.46-4.39-12.99-9.69-25.32C-9.32,30.75,20.14-1,46.54.02c9.35,6.78-9.5,10.28-14.72,13.42C14.77,23.69,3.28,45.05,19.76,60.95c13.07-5.75,18.51-19.51,33.29-24.28,75.91-14.87,31.26,66.75-28.53,42.44,1.69,4.17-3.8,9.13-4.02,10.01l-.02-3.99h-1.96s-1.01,3.98-1.01,3.98l-5.01-5.99ZM60.5,45.13c3.35-12.45-25.14,8.12-22,14-1.32,1.17-7.34,8.51-5.99,9.99,37.17,13.06,73.72-33.3,27.99-23.99Z"/>
      <path class="cls-2" d="M36.5,127.13c67.45-87.66,137.28,6.3,27.01,21.98-11.28-.09-16.86-9.2-25.01,2.02-2.16-4.12-2.85-7.07-8-8,.06-.55.13-1.48,0-2l5.99-2.99c-6.7-3.62-6.01-8.78-7.99-13.01,1.99-.41,4.96,1.99,6,2l1,1.97,1-1.97ZM101.89,124.51c20.62-28.53-14.67-24.12-30.36-13.35-2.84,1.79-26.15,21.27-23.03,23.95,14.36,3.58,42.58-.2,53.38-10.6Z"/>
      <path class="cls-2" d="M12.5,83.13l5.01,5.99,1.01-3.98h1.96c.03,2.43-.08,5.49.02,7.99-5.48-1.43-4.26,4.85-6.03,8.97l6.03,1.03c1.11,8.31,4.64,12.37,6,20-1.53-.3-4.6.83-5.69-.26-.84-.84-3.08-12.51-4.35-13.74-5.46-5.31-.23,7.61-5.97,3.99-3.71-14.22-.95-17.61,2-30Z"/>
      <path class="cls-1" d="M10.5,113.13c5.74,3.62.5-9.3,5.97-3.99,1.26,1.23,3.5,12.89,4.35,13.74,1.09,1.09,4.15-.04,5.69.26,5.07,2.87,1.59,11.04,9.99,15.01l-5.99,2.99c-1.42-5.56-16.45-14.4-20-28Z"/>
      <path class="cls-1" d="M30.5,143.13c5.15.93,5.84,3.88,8,8-.55.76-1.33,1.36-2,2-.86-.72-6.64,2.08-8-6,.48-1.55,1.98-3.78,2-4Z"/>
      <path class="cls-1" d="M20.5,93.13c-.09,1.2-.07,9.48,0,10l-6.03-1.03c1.77-4.12.55-10.41,6.03-8.97Z"/>
      <path class="cls-1" d="M34.5,127.13c.67,0,1.59.16,2,0l-1,1.97-1-1.97Z"/>
      <path class="cls-1" d="M24.5,155.13c.36-1.67,1.97-1.86,2-2l-2,2Z"/>
      <path class="cls-2" d="M38.5,59.13c-1.33-6.33,11.95-14.95,16.34-16.67,3.72-1.46,6.53-3.29,5.66,2.67-1.43.52-20.46,12.64-22,14Z"/>
    </g>
  </g>
</svg>