<?xml version="1.0" encoding="UTF-8"?>
<svg id="Calque_2" data-name="Calque 2" xmlns="http://www.w3.org/2000/svg" viewBox="0 0 179.77 243.58">
  <defs>
    <style>
      .cls-1 {
        fill: #edce6e;
      }

      .cls-2 {
        fill: #5373a0;
      }

      .cls-3 {
        fill: #90624d;
      }

      .cls-4 {
        fill: #909d9d;
      }

      .cls-5 {
        fill: #3b7f6b;
      }

      .cls-6 {
        fill: #366d9c;
      }

      .cls-7 {
        fill: #9c7f6f;
      }
    </style>
  </defs>
  <g id="Calque_1-2" data-name="Calque 1">
    <g>
      <path class="cls-3" d="M143.29,59.75c4.08,20.59-1.76,35.14-17.99,47.97,17.81,1.22,64.01,33.78,48.87,53.92-7.66,10.19-27.85-1.02-28.87.11v11.99c65.98-19.99,26.54,102.99-29.11,47.94-5.69-.75-15.82,3.59-22.13,3.85-3.4.14-13.17-3.31-14.74-1.77-3.67,45.32-85.76,4.78-52.08-40.51,2.91-4.06,10.5-4.13,8.03-13.51-45.03,39.32-50.37-20.6,4.02-57.06-11.82-14.47-17.75-19.49-20-38.94,19.57-2.3,21.49,16.21,44,8-9.92,41.6,64.75,35.61,48-6,25.49,5.03,18.17-21.45,32-16ZM86.77,126.24c-28.73,4.89-33.6,64.13-1.95,74.99,39.21,13.46,53.3-33.2,34.14-62.14-8.35-12.6-17.34-15.38-32.19-12.85ZM153.28,179.76c-12.36-2.12-2.49,8.66,0,5.98v-5.98ZM165.28,187.74c.62-2.76-1.08-5.32-3.97-5.99v5.99s3.97,0,3.97,0ZM43.28,189.76c-2.18-2.18-6.16,1.8-3.98,3.98s6.16-1.8,3.98-3.98ZM59.28,191.76h-5.98v3.98h5.98v-3.98ZM154.76,194.01c-14.17,2.04-20.63,35.37-1.58,28.69,14.56-5.1,14.97-30.62,1.58-28.69ZM33.28,197.76h-3.98v5.98h3.98v-5.98ZM44.7,204.14c-11.38,3.45-4.13,23.31,6.49,26.73,23.31,7.5,14.24-33.01-6.49-26.73Z"/>
      <path class="cls-3" d="M19.29,61.75c.38-16.7-3.29-6.21-10.91-14.1C-1.79,37.14,5.08,15.3,18.71,12.18c16.54-3.79,20.68,7.62,25.55,7.61,3.08,0,9.97-6.83,16.15-7.92,5.64-.99,19.85-2.18,25.85-2.27,6.64-.1,16.8,3.55,21.69,1.87,3.16-1.09,4-6.31,7.43-8.62,7.46-5.02,20.62-2.97,26.98,2.83,7.99,7.29,9.45,28.71-1.07,30.07-.55,2.36-2.07,6.11-2,8-3.1,1.49-3.4,1.04-6,0l1.95-.98c-1.75-2.09-2.57-4.76-3.95-7.02,3.24-.28,6.85.41,10,0,15.25-22.2-19.05-45.36-25.96-24.95-1.88,10.45,5.01,1.4,9.03.92,11.99-1.43,17.57,18.35,6.92,18.03,1.65-11.88,3.6-20.07-11.96-11.88,1.78,4.2,7.52,11.75,11.96,11.88-.27,1.91.17,4.05,0,6-4.75-7.79-13.2-15.89-23.08-16.19-3.69-.11-2.65,5.07-8.37,5.83-7.85,2.05-48.13-.84-48.55,10.36-1.7-.2-3.36.16-4,2-6.41.34-16.56,8.81-18,14-1.8.33-4.07-.26-6-.01v8.01c-.79.18-2.43,2.12-4,2ZM33.28,27.76c-11.58-6.87-20.12,7.26-12.05,13.1,5.82,4.21,11.59-8.76,12.05-13.1Z"/>
      <path class="cls-5" d="M129.29,41.75c-23.17-13.47-59.89-10.86-83.4,1.6-21.05,11.91-10.13,39.98,13.46,33.44,11.38-3.15,13.11-13.83,29.93-13.05,11.72.55,20.86,9.93,33.5,4.49,9.87-4.25,9.57-17.87,6.5-26.49,3.88,1.55,5.73,4.32,10,2,.13,3.43,3.33,11.41,4,16-9.84-5.09-9.76,11.46-18.04,14.96-16.2,6.22-24.97-7.65-42.87-4.86-6.38,1.21-13.24,9.77-19.09,11.9-22.51,8.21-24.43-10.3-44-8-.74-6.43-.12-6.58,0-12,1.56.12,3.2-1.82,4-2,9.08.8,5.41-.7,6-8,5.13-.93,10.37-10.08,16-14,1.69.22,3.2-.26,4-2,18.39-3.34,70.58-18.96,80,6Z"/>
      <path class="cls-1" d="M86.77,126.24c14.85-2.53,23.84.25,32.19,12.85,19.17,28.94,5.07,75.6-34.14,62.14-31.65-10.86-26.78-70.1,1.95-74.99Z"/>
      <path class="cls-1" d="M111.29,75.75c16.75,41.61-57.92,47.6-48,6,5.85-2.13,12.71-10.7,19.09-11.9,13.35-2.53,18.91,4.58,28.91,5.9ZM91.55,84.07c22.9-10.88-14.32-15.45-13.42-4.18.57,7.07,12.48,2.26,8.92,12.6-2.54,7.35-9.79-1.46-11.74,3.24,8.93,6.84,10.57,1.22,15.34.67,6.35-.73,11.94,3.99,14.65-6.63-2.18-1.85-14.73,12.83-13.74-5.7Z"/>
      <path class="cls-1" d="M44.7,204.14c20.73-6.28,29.8,34.23,6.49,26.73-10.61-3.42-17.87-23.28-6.49-26.73Z"/>
      <path class="cls-1" d="M154.76,194.01c13.39-1.93,12.98,23.59-1.58,28.69-19.05,6.67-12.59-26.65,1.58-28.69Z"/>
      <path class="cls-1" d="M153.28,179.76v5.98c-2.49,2.68-12.36-8.1,0-5.98Z"/>
      <rect class="cls-1" x="53.3" y="191.76" width="5.98" height="3.98"/>
      <rect class="cls-1" x="29.3" y="197.76" width="3.98" height="5.98"/>
      <path class="cls-1" d="M165.28,187.74h-3.98s0-5.99,0-5.99c2.89.67,4.59,3.23,3.97,5.99Z"/>
      <path class="cls-1" d="M43.28,189.76c2.18,2.18-1.8,6.16-3.98,3.98s1.8-6.16,3.98-3.98Z"/>
      <path class="cls-7" d="M51.29,35.75c.26-11.14,40.81-8.34,48.55-10.36,5.72-.76,4.68-5.94,8.37-5.83,13.32.57,21.47,12.78,27.03,23.21l-1.95.98c-1.07-.43-2.56-1.36-4-2-8.52-23.87-60.51-10.71-78-6ZM110.29,23.75v2c1.3-.67,1.3-1.33,0-2Z"/>
      <path class="cls-7" d="M131.29,29.75c10.65.32,5.07-19.45-6.92-18.03-4.03.48-10.92,9.53-9.03-.92,6.92-20.42,41.2,2.77,25.96,24.95-3.15.41-6.76-.28-10,0,.17-1.95-.27-4.09,0-6Z"/>
      <path class="cls-1" d="M33.28,27.76c-.46,4.33-6.24,17.31-12.05,13.1-8.07-5.84.47-19.97,12.05-13.1Z"/>
      <path class="cls-1" d="M131.29,29.75c-4.45-.14-10.19-7.68-11.96-11.88,15.57-8.19,13.61,0,11.96,11.88Z"/>
      <path class="cls-7" d="M45.29,37.75c-5.63,3.92-10.87,13.07-16,14-.59,7.32,3.08,8.79-6,8v-8.01c1.93-.25,4.2.34,6,.01,1.06-5.13,10.48-11.62,16-14Z"/>
      <path class="cls-7" d="M47.29,37.75c.37-.87,1.09-1.73,2-2-.47.77-1.16,1.69-2,2Z"/>
      <path class="cls-2" d="M115.29,35.75c.24,2.63,1.14,12.77,2,14-1.33,0-6.58,0-8.01,0v4c-8.04,2.45-6.76-1.72-10.53-1.62-.75.02-1.11,1.56-1.46,1.62-7.54,1.31-9.16,1.63-8,10-16.82-.78-18.55,9.89-29.93,13.05-23.6,6.54-34.52-21.54-13.46-33.44,18.31-10.35,49.55-13.41,69.4-7.6ZM69.28,53.76c-2.89-3.45-5.61,7.3-11.12,8.07-6.43.9-7.6-3.75-12.86-4.07v9.98c5.25-2.34,10.39.7,15.42-1.42,3.18-1.34,10.63-10.09,8.56-12.56Z"/>
      <path class="cls-4" d="M129.29,41.75c3.07,8.62,3.37,22.24-6.5,26.49-12.64,5.44-21.78-3.94-33.5-4.49-1.16-8.37.46-8.69,8-10,1.12,8.19,22.54,5.45,23.93,3.91.27-.3.4-5.39.08-6.59-.58-2.1-3.88-1.15-4.01-1.32-.86-1.23-1.76-11.37-2-14,6.38,1.87,8.7,3.64,14,6Z"/>
      <path class="cls-3" d="M91.55,84.07c-.99,18.53,11.56,3.85,13.74,5.7-2.71,10.62-8.3,5.9-14.65,6.63-4.76.55-6.4,6.16-15.34-.67,1.94-4.7,9.2,4.11,11.74-3.24,3.57-10.34-8.35-5.53-8.92-12.6-.9-11.26,36.32-6.7,13.42,4.18Z"/>
      <path class="cls-3" d="M110.29,23.75c1.3.67,1.3,1.33,0,2v-2Z"/>
      <path class="cls-6" d="M69.28,53.76c2.07,2.47-5.39,11.22-8.56,12.56-5.03,2.12-10.16-.92-15.42,1.42v-9.98c5.26.32,6.43,4.97,12.86,4.07,5.51-.77,8.22-11.52,11.12-8.07Z"/>
      <path class="cls-6" d="M117.29,49.75c5.81-1.11,4.12,4.68,3.93,7.91-1.39,1.54-22.81,4.28-23.93-3.91,3.7-5.04,3.4,3.36,12,0,2.71-.83,4.8-.65,6-4h2Z"/>
      <path class="cls-4" d="M115.29,49.75c-1.2,3.35-3.29,3.17-6,4v-4s6,0,6,0Z"/>
    </g>
  </g>
</svg>