<?xml version="1.0" encoding="UTF-8"?>
<svg id="Calque_2" data-name="Calque 2" xmlns="http://www.w3.org/2000/svg" viewBox="0 0 231.12 314.68">
  <defs>
    <style>
      .cls-1 {
        fill: #edce6e;
      }

      .cls-2 {
        fill: #939649;
      }

      .cls-3 {
        fill: #909d9d;
      }
    </style>
  </defs>
  <g id="Calque_1-2" data-name="Calque 1">
    <g>
      <path class="cls-2" d="M173.04,177.94c5.17-1.6,17.36-.52,17.49,6.53.4,21.82-19.7,35.3-37.61,42.78,2.86,22.14,19.15,62.78-2.06,79.51-22.13,17.45-57.06,4.77-55.34-25.33,5.9-52.64,70.66-107.81-.42-146.55-19.65-5.16-81.95,17.34-93.03-2.96-10.24-18.76,20.01-72.47,39.06-78.89,13.68-4.61,15.71-2.28,18.6,9.22,3.45,13.74.33,21.58,11.28,32.73,13.68,13.93,41.86,22.4,61.13,22.99,15.81.48,64.5-14.81,64.95,10.91.4,23.02-12.16,22.86-22.03,37.06-2.67-1.52-6.23,1.77-4,4-1.87-1.65-8.48,4.53-4.98-7.96-6.4,3.98-5.38,11.68-7.02,15.96-.3.78-5.13,1.91-4.02,4.98,1.68,3.34,3.77-.96,4.02-.98,10.45-.73,9.14-2.49,14-4ZM169.03,145.95c-.29-.29-2.73.11-3.98,0l-1.03,5.95c1.9-1.94,8.39-2.56,5.01-5.95Z"/>
      <path class="cls-2" d="M134.5,4.47c7.43,9.13-9.97,34.89-2.24,51.26,13.92,29.47,36.87,1.43,51.88.29,11.17-.85,17.2,7.87,14.84,18.51-56.84,65.93-153.7,8.81-93.02-66.68,6.85-6.82,21.6-11.91,28.54-3.39Z"/>
      <path class="cls-2" d="M39.04,215.94c-12.05-40.15,50.72-65.88,56.19-25.02.74,22.65-24.67,47.46-46.19,37.02l2.01-7.99c-4.67.45-8.59-.9-12.01-4.01Z"/>
      <path class="cls-2" d="M228.46,218.5c11.96,23.02-19.3,56.35-34.85,69.15-28.54,4.19,3.51-74.78,20.51-75.78,3.12-.35,12.59,4.49,14.34,6.63Z"/>
      <path class="cls-3" d="M159.04,177.94c1.64-4.28.62-11.98,7.02-15.96-3.5,12.49,3.11,6.31,4.98,7.96-2.23-2.23,1.33-5.52,4-4-.23.33.2,8.2-4,4,.31.27.19,6.46,2,8-4.86,1.51-3.55,3.27-14,4v-4Z"/>
      <path class="cls-3" d="M39.04,215.94c3.42,3.11,7.35,4.47,12.01,4.01l-2.01,7.99c-7.29-3.54-7.4-3.43-10-12Z"/>
      <path class="cls-1" d="M159.04,181.94c-.25.02-2.34,4.32-4.02.98-1.11-3.07,3.72-4.2,4.02-4.98v4Z"/>
      <path class="cls-1" d="M169.03,145.95c3.38,3.38-3.11,4.01-5.01,5.95l1.03-5.95c1.25.11,3.69-.29,3.98,0Z"/>
    </g>
  </g>
</svg>