<?xml version="1.0" encoding="UTF-8"?>
<svg id="Calque_2" data-name="Calque 2" xmlns="http://www.w3.org/2000/svg" viewBox="0 0 224.68 116.35">
  <defs>
    <style>
      .cls-1 {
        fill: #a3cae0;
      }

      .cls-2 {
        fill: #59b5dd;
      }
    </style>
  </defs>
  <g id="Calque_1-2" data-name="Calque 1">
    <g>
      <path class="cls-2" d="M189.07,86.62C127.71,157.24-8.87,91.46.45,0l222.15,2.87c8.21,25.22-8.9,72.67-33.53,83.75ZM190.46,15.98c-3.8-7.88-14.98.48-21.99-1.97l2.01,8,19.97-6.04ZM84.46,20.02h-7.99v5.98h7.99v-5.98ZM98.45,22.03h-9.98v1.96h9.98v-1.96ZM106.45,22.02c-2.18-2.18-6.16,1.8-3.98,3.98s6.16-1.8,3.98-3.98ZM122.45,88.02c-5.53-.02-14.27-1.92-13.98,5.98,5.53.02,14.27,1.92,13.98-5.98Z"/>
      <path class="cls-1" d="M190.46,15.98l-19.97,6.04-2.01-8c7.01,2.44,18.18-5.92,21.99,1.97Z"/>
      <path class="cls-1" d="M122.45,88.02c.29,7.9-8.45,5.99-13.98,5.98-.29-7.9,8.45-5.99,13.98-5.98Z"/>
      <rect class="cls-1" x="76.47" y="20.02" width="7.99" height="5.98"/>
      <rect class="cls-1" x="88.47" y="22.03" width="9.98" height="1.96"/>
      <path class="cls-1" d="M106.45,22.02c2.18,2.18-1.8,6.16-3.98,3.98s1.8-6.16,3.98-3.98Z"/>
    </g>
  </g>
</svg>