<?xml version="1.0" encoding="UTF-8"?>
<svg id="Calque_2" data-name="Calque 2" xmlns="http://www.w3.org/2000/svg" viewBox="0 0 304.76 195.93">
  <defs>
    <style>
      .cls-1 {
        fill: #5373a0;
      }

      .cls-2 {
        fill: #a3cae0;
      }

      .cls-3 {
        fill: #958094;
      }

      .cls-4 {
        fill: #909d9d;
      }

      .cls-5 {
        fill: #3b7f6b;
      }
    </style>
  </defs>
  <g id="Calque_1-2" data-name="Calque 1">
    <g>
      <path class="cls-4" d="M136.3,17.51c-.17,3.61-.08,4.41,4,4,.67.3.83,1.43,2,0,14.3.23,27.93,14.08,41.16,15.82,21.22,3.02,33.42-10.67,56.84-4.82,8.89,2.22,15.66,8.97,23.99,9,15.18,26.38,21.07,51.7,9.98,80.98-1.78,16.47,1,35.24,1.82,51.78-27.15,21.4-2.95-10.57-33.78-2.77-2.7-3.09,2.42-26.35,1.95-30.91-.4-3.93-6.39-8.98-3.95-15.08l5.97,1.99,1.99-19.99c-3.91-.68-.86,4.67-2.09,5.87-1.07,1.03-6.18-.82-7.66.33-2.93,2.27-.89,20.02-3.2,23.83-2.27,3.76-23.69,10.86-29.03,11.97-13.89,2.88-22.2.78-36,0-1.39-1.29,9.91-23.36-1.85-15.86-3.79,2.42-7.6,44.43-.16,49.87-.16.68.22,1.49,0,2l-17.91,3.93-4.06-9.06c-2.81-2.98-6.93,3.95-7.99,3.14.24-3.86-3.54-5.15-5.76-6.38-1.17-2,7.6-36.04-6.37-42.53-3.39-1.58-7.1-.7-11.03-2.97-1.21-.7-17.44-16.91-17.96-18.08-2.59-5.79,8.35-6.28,7.06-12.03-9.85-2.14-11.59,10.33-14.58,13.4-6.36,6.52-45.25,17-51.4,4.62,4.12,2.33,16.55-9.65,13.99-12.01-6.31-1.42-7.96,5.84-11.3,7.6-1.83.96-19.53,6.7-20.46,6.17-2.97-4.41-11.47-26.76-8.23-29.77,2.81-2.62,24.18,1.7,18-14-2.47-6.27-6.24-6.02-8-12,5.1,5.5,9.91,1.9,12,2,3.25.16,5.76,2.59,10.06,1.24s4.77-5.25,7.43-7.27c15.19-11.56,10.74-13.23,20.47-25,4.67-5.65,21.92-15.23,28.79-12.84,3.43,1.19,2.42,11.97,11.86,9.61,3.51-.88,16.41-19.19,8.41-15.72l-11.01,11.98c-.51-8.28,7.05-16.65,15.08-17.92,6.48-1.02,4.99.86,4.9,5.92-2.21,7.35-14.41,11.42-10.98,18.02,10.78-4.42,14.13-15.91,12.98-26.02,1.79,1.5,2.63,5.49,4,8ZM88.29,73.5c1.67-1.66-.62-11.97-5.98-9.98-4.91,6.08,2.42,13.51,5.98,9.98ZM87.74,81.92c-16.21,3.63-8.97,22.57,6.47,12.47,11.02-7.21,6.6-15.4-6.47-12.47ZM30.29,99.52c-4.57-4.57-12.63,8.25-4.96,9.98,4.9,1.11,6.25-8.68,4.96-9.98Z"/>
      <path class="cls-1" d="M264.3,41.51c15.16,14.23,16.79,24.75,27.16,41.84,3.07,5.06,11.25,12.36,12.43,15.57,5.02,13.54-13.61,1.31-15.6-3.4-1.14-2.72-1.04-8.7-2.02-11.99h-1.96c1.37,24.94-6.89,43.11-6.1,69.07.21,7.87,5.91,20.47-.79,27.04-6.23,6.11-27.94,8.26-35.14,2.85-2.63-1.98-3.74-6.85-5.34-7.14-6.67-1.2-20.39,5.01-28.5-2.06,1.28-4.58.86-11.9,1.85-15.79,7.03-1.93,7.36,5.41,10.07,6.99,2.48,1.44,6.64.36,7.7,1.35,1.93,1.79-3.83,8.61,11.27,3.8,2.95-4.89-.98-7.05-1.05-8.14-.23-3.97.32-8.05,0-12-.27-3.31,1.77-6.71-2.98-6.01-2.59.38-21.64,8.3-23.02,10.01-2,.05-4.01-.08-6,0v-4c5.34-1.11,26.76-8.21,29.03-11.97,2.3-3.81.27-21.56,3.2-23.83,1.48-1.15,6.59.71,7.66-.33,1.23-1.19-1.82-6.54,2.09-5.87l-1.99,19.99-5.97-1.99c-2.45,6.1,3.54,11.15,3.95,15.08.47,4.56-4.65,27.83-1.95,30.91,30.86-7.79,6.61,24.18,33.78,2.77-.82-16.54-3.6-35.31-1.81-51.78,11.09-29.26,5.18-54.65-9.98-80.98ZM244.29,117.52c-2.18-2.18-6.16,1.8-3.98,3.98s6.16-1.8,3.98-3.98ZM250.29,181.5c.62-2.76-1.08-5.32-3.97-5.99v5.99s3.97,0,3.97,0ZM254.32,183.51l3.97-3.03-3-4.96-.97,7.99Z"/>
      <path class="cls-1" d="M168.3,185.51c-4.31,10.01-14.46,11.25-25.05,10.04-14.41-1.64-14.7-11.53-16.31-12.1-4.95-1.75-22.52-1.09-24.36-2.22-6.88-4.23,4.83-37.13,3.78-44.64-.38-2.73-11.39-19.05-14.06-20.2-25.82,10.1-29.06,19.55-59.33,7.52-5.03-.37-7.17,6.7-14.53.47-12.31-10.43-9.94-25.03-12.34-37.67C3.14,71.08-1.23,61.71.33,44.53c.5-5.49,2.89-21.33,9.82-16.89,1.6,1.02,9.61,31.12,12.15,35.87l-5.63-5.27-10.34-22.72c-3.28,8.86-1.24,40.97,3.01,47.94,5.74,9.41,15.9-1.96,20.97-5.95,6.18,15.71-15.19,11.39-18,14-3.24,3.01,5.26,25.35,8.23,29.77.92.54,18.63-5.21,20.46-6.17,3.34-1.76,4.99-9.02,11.3-7.6,2.56,2.36-9.87,14.34-13.99,12.01,6.16,12.39,45.04,1.91,51.4-4.62,2.99-3.07,4.74-15.54,14.58-13.4,1.29,5.74-9.65,6.23-7.06,12.03.52,1.16,16.75,17.38,17.96,18.08,3.93,2.27,7.64,1.4,11.03,2.97,13.97,6.49,5.2,40.53,6.37,42.53,2.13,1.14,6.05,2.63,5.76,6.38,1.05.81,5.18-6.11,7.99-3.14,0,0,4.06,9.06,4.06,9.06l17.91-3.93ZM112.41,177.41c.37.39,9.93,1.75,10.67,1.62,6.49-1.13,6.3-29.44,4.85-34.16s-10.36-7-14.58-9.42l-7.07,31.02c10.5-.24,4.04,8.77,6.14,10.93ZM136.28,187.5c.66-2.93-.84-4.18-3-5.95l1.04,5.95h1.96ZM146.28,191.51c.54-3.73.02-6.93-3.96-8l-2.02,5.98,5.98,2.02Z"/>
      <path class="cls-1" d="M78.3,1.51c6.02-7.57,13.47,15.67,10,19.98,6.25-2.45,15.29-.73,20.6-1.94,1.54-.35,11.69-19.84,23.4-10.04-.03,2.67.05,5.33,0,8h-2c.09-5.06,1.58-6.94-4.9-5.92-8.03,1.27-15.6,9.64-15.08,17.92l11.01-11.98c8-3.48-4.91,14.84-8.41,15.72-9.44,2.36-8.43-8.43-11.86-9.61-6.87-2.38-24.12,7.2-28.79,12.84-9.73,11.77-5.29,13.43-20.47,25-6.17,8.17-7.32,8.97-17.49,6.04,0-4-.01-8,0-12,7.27-1.46,2.76,8.23,8.98,8.13,9.07-.15,7.78-3.36,3.02-8.13v-2c17.19,3.15,15.01-15.35,29.12-26.05.95-1.9-5.09-16.65-3.16-24.73-.27-2.43,2.88-.75,4.04-1.21-.66,6.98.45,25.89,10.03,20.95,1.26-10.13-3.56-13.47-8.03-20.95Z"/>
      <path class="cls-2" d="M30.3,77.51c-5.06,4-15.22,15.36-20.97,5.95-4.25-6.97-6.29-39.08-3.01-47.94l10.34,22.72,5.63,5.27c-.21,7.04,5.6,7.39,8,14Z"/>
      <path class="cls-3" d="M146.3,19.51c18.76,3.27,35.01,13.6,52.8,11.78,7.68-.79,16.84-5.67,24.29-5.85,7.78.16,40.37,6.39,40.91,16.07-8.34-.03-15.1-6.79-23.99-9-23.42-5.85-35.63,7.85-56.84,4.82-12.57-1.79-25.75-14.11-39.16-15.82l2-2Z"/>
      <path class="cls-3" d="M212.3,153.51c1.38-1.71,20.43-9.62,23.02-10.01,4.75-.7,2.71,2.7,2.98,6.01-3.27,2.01-3.21,10.11,0,12,.06,1.09,3.99,3.24,1.05,8.14-15.1,4.81-9.34-2.01-11.27-3.8-1.07-.99-5.23.09-7.7-1.35-2.71-1.58-3.04-8.92-10.07-6.99.22-.87,1.44-3.3,2-4Z"/>
      <path class="cls-3" d="M168.3,183.51c-7.44-5.44-3.63-47.45.16-49.87,11.75-7.5.46,14.57,1.85,15.86,13.79.79,22.1,2.89,36,0v4c-12.53.47-25.17,4.84-37.99,0-.91,11.58,2.71,18.79-.01,29.99Z"/>
      <path class="cls-4" d="M78.3,1.51c4.47,7.48,9.29,10.82,8.03,20.95-9.58,4.94-10.69-13.98-10.03-20.95.44-.18,1.3.04,2,0Z"/>
      <path class="cls-2" d="M46.3,55.51c4.75,4.77,6.04,7.99-3.02,8.13-6.22.1-1.71-9.59-8.98-8.13,0-.66-.04-1.34,0-2,1.34-1.33,2.75-2.59,4-4,.2-.24-.28-2.32,1.96-2-.28,4.79,3.88,5.84,6.04,8Z"/>
      <path class="cls-5" d="M146.3,19.51l-2,2c-1.14-.04-2.83.03-4,0-4.08.41-4.17-.41-4-4,4.02-1.76,7.75,1.61,10,2Z"/>
      <path class="cls-2" d="M288.3,95.51l-4,2c.41-4.59-.32-9.38.02-13.99h1.96c.98,3.29.88,9.27,2.02,11.99Z"/>
      <path class="cls-3" d="M87.74,81.92c13.07-2.93,17.49,5.26,6.47,12.47-15.43,10.1-22.67-8.84-6.47-12.47Z"/>
      <path class="cls-5" d="M132.3,17.51c-.12,6.77-5.83,15.21-12.98,18.02-3.43-6.6,8.77-10.67,10.98-18.02h2Z"/>
      <path class="cls-5" d="M30.29,99.52c1.29,1.3-.06,11.09-4.96,9.98-7.67-1.73.39-14.55,4.96-9.98Z"/>
      <path class="cls-5" d="M88.29,73.5c-3.55,3.54-10.88-3.9-5.98-9.98,5.35-2,7.65,8.31,5.98,9.98Z"/>
      <path class="cls-3" d="M140.3,21.51h2c-1.17,1.43-1.33.3-2,0Z"/>
      <path class="cls-2" d="M238.3,161.51c-3.21-1.89-3.27-9.99,0-12,.32,3.95-.23,8.03,0,12Z"/>
      <polygon class="cls-4" points="254.32 183.51 255.29 175.52 258.29 180.48 254.32 183.51"/>
      <path class="cls-4" d="M250.29,181.5h-3.98s0-5.99,0-5.99c2.89.67,4.59,3.23,3.97,5.99Z"/>
      <path class="cls-4" d="M244.29,117.52c2.18,2.18-1.8,6.16-3.98,3.98s1.8-6.16,3.98-3.98Z"/>
      <path class="cls-3" d="M112.41,177.41c-2.1-2.17,4.36-11.17-6.14-10.93l7.07-31.02c4.22,2.42,13.17,4.85,14.58,9.42s1.64,33.03-4.85,34.16c-.73.13-10.29-1.23-10.67-1.62Z"/>
      <path class="cls-4" d="M146.28,191.51l-5.98-2.02,2.02-5.98c3.98,1.07,4.49,4.27,3.96,8Z"/>
      <path class="cls-4" d="M136.28,187.5h-1.96l-1.04-5.95c2.16,1.77,3.66,3.02,3,5.95Z"/>
      <path class="cls-3" d="M46.3,53.51v2c-2.15-2.16-6.31-3.21-6.04-8-2.24-.32-1.76,1.76-1.96,2-1.36,1.28-2.62,2.72-4,4,1.22-18.5,7.53-13.89,12,0Z"/>
    </g>
  </g>
</svg>