<?xml version="1.0" encoding="UTF-8"?>
<svg id="Calque_2" data-name="Calque 2" xmlns="http://www.w3.org/2000/svg" viewBox="0 0 146.45 157.2">
  <defs>
    <style>
      .cls-1 {
        fill: #da5b3e;
      }

      .cls-2 {
        fill: #9c7f6f;
      }
    </style>
  </defs>
  <g id="Calque_1-2" data-name="Calque 1">
    <g>
      <path class="cls-1" d="M97.43,95c.84-9.17-1.76-14.47-11.5-15.58-12.14-1.39-10.15,17.88-20.6,10.7s4.15-27.52,18.82-27c2.5.09,17.31,7.31,19.24,8.92,10.09,8.4,11.52,28.29,3.09,39.01-25.69,32.65-76.97,5.37-72.83-34.83,4.7-45.62,73.83-57.6,99.45-21.9,52.67,73.39-64.07,143.79-116.5,74.5C-31.47,65.29,33.33-20.77,102.9,4.53c6.48,2.35,24.66,14.86,15.5,22.46C61.08-13.03-4.36,45.31,19.98,108.62c1.06,2.46,17.98,22.72,21.58,25.26,28.08,19.8,73.75,5.58,85.87-26.87,6.24,1.31,3.81-5.45,4-10,.21-4.99.4-11.1,0-16l2.01-1.06c-1.58-2.2-2.6-3.89-4.01-6.94l1.96-1.02-1.96-.98c-14.57-26.18-58.98-31.7-75.66-4.66-21.82,35.35,35.52,61.27,43.66,30.66l1.97-.98-1.97-1.02Z"/>
      <path class="cls-2" d="M131.43,97c-.19,4.55,2.24,11.31-4,10,1.04-2.79-.44-7.87,4-10Z"/>
      <path class="cls-2" d="M131.43,81c-.11-1.3.2-2.76,0-4l2.01,2.94-2.01,1.06Z"/>
      <path class="cls-2" d="M129.43,73c-.25-.58.27-1.51,0-2l1.96.98-1.96,1.02Z"/>
      <path class="cls-2" d="M97.43,97c.15-.56-.06-1.31,0-2l1.97,1.02-1.97.98Z"/>
    </g>
  </g>
</svg>