<?xml version="1.0" encoding="UTF-8"?>
<svg id="Calque_2" data-name="Calque 2" xmlns="http://www.w3.org/2000/svg" viewBox="0 0 374.15 98.35">
  <defs>
    <style>
      .cls-1 {
        fill: #edce6e;
      }

      .cls-2 {
        fill: #939649;
      }

      .cls-3 {
        fill: #909d9d;
      }

      .cls-4 {
        fill: #3b7f6b;
      }
    </style>
  </defs>
  <g id="Calque_1-2" data-name="Calque 1">
    <g>
      <path class="cls-2" d="M147.69,70.27c-3.97,4.65-12.6-.68-17.99-.02,1.61-5.49,17.5.08,15.98-7.97-7.94,3.13-24.03.56-27.1,9.88-1.2,3.64.21,15.55-5.83,14.09-.57-.14-8.94-6.82-9.09-7.39-1.01-3.71,2.32-24.61-2.96-24.55l-3.96,9.92C58.69,56.21,17.36,48.58,4.67,6.31c28.1,19.39,39.2,30.09,75.02,23.97l-.96,8.02,14.98-2.04c-5.56-12.46,13.39-7.48,20.5-8.49,40.6-7.96,88.59-4.61,128.46-7.54,7.17-1.4,6.01-9.13,12.08-10.07,10.72-1.66,11.9,7.48,14.09,8.03l10.85-3.93c-.06,3.71.76,8.75,6.01,7.99,2.42-9.06-3.55-7.51-3.95-8.02-1.16-1.47-.34-5.3,2.93-3.95,4.27,1.75,4.83,9.81,9.02,12.99,5.17,3.92,29.46,8.07,36.99,9,5.62.7,12.41-1.03,17.67.02,2.04.41.03,4.87,6.34,3.97,2.79-.4-6.08-11.79,5.99-8.11,1.8.55.34,4.32,1.43,5.56,22.24,11.86-1.83,9.8-12.41,12.54-4.04.65-5.72-1.37-10,2-2.57-.4-1.92,2.19-1.99,3.99l2.97.02,1.02-4.01h6c2.37,11.49,3.56.34,4,0,.94-.73,9.5.51,12,.02-9.25,12.76-29.86,10.88-44.03,14.02.25.93,1.99,1.65,2.03,1.96.48,2.56-2.41,1.95-4,2-7.35-3.32-19.03-2.47-27.09-2.1-6.36,1.31-42.04-.03-38.91,8.09-5.75,3.13-8.34-6.32-10,6-.51,3.77-1.49,12.38-6.96,12.22-12.78-.38-9.15-15.68-16.42-17.83-5.95-1.77-13.7,1.5-19.75-2.16-1.63,6.24-12.45,3.87-18.87,3.77-.01-12.83-5.25-10.24-16-9.98l4,9.98c-7.46.03-1.1-6.68-8.98-8.01-4.77-.88-13.06-1.43-11.02,4.01ZM261.68,20.26c.64-3.78-2.34-6.63-5.98-5.98v5.98s5.98,0,5.98,0ZM171.68,24.29h-5.98v1.96h5.98v-1.96ZM187.7,30.26c2.88.6,11.97.03,11.95-2.99-.03-4.37-14.54-3.37-11.95,2.99ZM159.68,26.28c-2.59-2.27-10.39,2.85-7.97,5.99.37.48,11.59-2.82,7.97-5.99ZM174.69,26.27v2c1.3-.67,1.3-1.33,0-2ZM227.68,32.26c4.02-3.69-8.77-8.11-11.98-5.98-2.39,4.84,11.47,6.45,11.98,5.98ZM139.69,36.25c-1.96-5.49-8.69-5.39-11.99-.97l11.99.97ZM187.68,32.28h-7.98v3.98h7.98v-3.98ZM273.67,42.26v-3.98h-1.96v3.98h1.96ZM293.69,48.27v5.99c4.29.57,4.43.15,4-3.99,2.61.27,5.36-.15,8,0l1.02,4.01c3.7.63,3.18-.61,2.98-4.01h25.99c1.43-7.96-7.14-2.07-11.06-2.3.48-2.47-38.08-1.62-39.93-1.7-1.27,0-6.28-2.97-8.02-3.96l-.94.94c4.59,7.52,11.42,4.04,17.96,5.02Z"/>
      <path class="cls-4" d="M241.69,78.27c-.61,6.95,12.49,3.84,9.87,12.75-11.74,13.75-33.85,3.19-31.87-12.75,0,0-66,0-66,0,0,3.47,4.16,1.17,5.17,5.87,3.12,14.54-22.99,6.03-24.28,4.23-1.73-2.43-.42-8.95-3.08-12.92-4.7-7.04-11.62-1.92-9.93,5.53.45,1.99,5.82,2.48,7.24,5.27,5.28,10.37-10.77,11.71-17.79,12.1-2.36-5.64-8.18-4.73-10.98-9.45-8.23-30.05,11.91-15.89-38.92-29.07-11.42-3.8-34.09-13.48-42.42-21.58C13.75,33.42-5.84,5.66,1.71.27c3.34-2.39,19.02,11.85,24.06,8.79,2.79,13,5.15,3.66,10.71,5.31,2.69.8,2.56,5.88,4.37,5.99s5.1-2.6,7.56-2.29c2.01.26,2.28,5.72,4.31,6.21,2.86.7,10.86-10.76,13.01,1.97,10.83-11.75,11.79-2.61,18.97,0,1.53.55,1.18-5.01,4.17-5.93,4.09-1.25,9.35,4.86,13.57,4.11,2-.36,1.24-5.79,6.23-6.33,6.95-.74,14.31,10.84,13.05-1.81,4.61-1.16,10.69,3.15,14.72,1.82,2.78-.92,2.63-5.71,4.49-6.03,5.72-.99,16.51,11.54,14.76-1.83,3.85-1.14,16.13,6.02,17.03,5.92,1.76-.19,2.09-5.44,4.35-6.01,6.42-1.62,12.55,4.39,15.32,3.82,2.48-.51,4.34-5.11,6.56-5.54,3.5-.67,8.35,7.99,12.81,4.89,1.35-.94,1.23-5.06,3.03-5.21,3.06-.25,8.48,5.18,12.32,5.73,2.71.39,5.21-1.25,7.52-1.16,3.23.13,6.98,2.2,9.68,1.72s4.27-15.16,18.86-8.64c2.93,1.31,6.05,6.04,7.78,6.35,3.67.66,10.06-13.63,20.77-.9,2.16,2.57,3.14,7.47,4.45,8.54,3.16,2.59,40.57,8.68,46.52,8.68,7.96,0,12.76-5.82,17.64-5.67,12.92.39,15.98,10.29,12.45,21.61-5,16.06-36.67,20.61-51.1,19.89-.04-.31-1.78-1.03-2.03-1.96,14.17-3.14,34.78-1.26,44.03-14.02-2.5.49-11.06-.75-12-.02l-2-2c10.43-2.82,34.78-.51,12.41-12.54-1.09-1.24.37-5.01-1.43-5.56-12.08-3.68-3.21,7.71-5.99,8.11-6.3.9-4.29-3.56-6.34-3.97-5.26-1.05-12.04.68-17.67-.02-7.54-.94-31.82-5.08-36.99-9-4.19-3.18-4.75-11.24-9.02-12.99-3.28-1.34-4.09,2.49-2.93,3.95.4.51,6.37-1.04,3.95,8.02-5.25.76-6.07-4.28-6.01-7.99l-10.85,3.93c-2.18-.56-3.36-9.7-14.09-8.03-6.07.94-4.91,8.67-12.08,10.07-39.94,2.94-87.78-.42-128.46,7.55-7.1,1-26.06-3.97-20.5,8.48l-14.98,2.04.96-8.02C43.88,36.41,32.7,25.65,4.67,6.31c12.69,42.27,54.02,49.9,92.06,57.92l3.96-9.92c5.29-.06,1.96,20.83,2.96,24.55.15.57,8.52,7.25,9.09,7.39,6.03,1.46,4.63-10.45,5.83-14.09,3.07-9.32,19.16-6.74,27.1-9.88,1.53,8.05-14.37,2.49-15.98,7.97,5.36-.66,14.04,4.67,17.99.02,3.93.2,10.59,3.83,16,2,2.85,4.06,11.26,1.5,16,2,6.41.09,17.23,2.47,18.87-3.77,6.05,3.65,13.8.39,19.75,2.16,7.27,2.16,3.64,17.46,16.42,17.83,5.47.16,6.45-8.45,6.96-12.22ZM85.68,30.29h-3.98v1.96h3.98v-1.96ZM147.52,76.56c-1.21-1.27-9.07.17-11.83-.28l.02,7.98h8.01s.96-3.98.96-3.98l9.01,5.98c1.8-6.37-4.22-2.66-5.64-4.35-1.02-1.22.13-4.67-.52-5.35ZM246.69,88.27v2c1.3-.67,1.3-1.33,0-2Z"/>
      <path class="cls-4" d="M317.69,66.27c-6.6.82-42.48,2.42-44.01,4.01-4.14,4.33,5.01,7.38,6.13,8.79,7.74,9.68-11.93,14.89-21.19,7.26-4.88-4.02-3.43-9.77-6.94-14.06-3.14-8.13,32.58-6.79,38.91-8.1,8.06-.37,19.74-1.22,27.09,2.1Z"/>
      <path class="cls-4" d="M293.69,48.27c-6.54-.98-13.37,2.5-17.96-5.02l.94-.94c1.74.98,6.76,3.96,8.02,3.96,2.17.11,39.93-.84,39.93,1.7,3.92.23,12.5-5.66,11.06,2.29h-25.99c-1.75-2-3.8.02-4,.01-2.64-.15-5.39.27-8,0-.41-.04-2.13-1.72-4-2Z"/>
      <path class="cls-1" d="M167.69,74.27l-4-9.98c10.75-.26,15.99-2.85,16,9.98-3.73-.06-8.64.56-12,0Z"/>
      <path class="cls-1" d="M163.69,72.27c-5.41,1.83-12.07-1.8-16-2-2.04-5.44,6.25-4.89,11.02-4.01,5.92,1.09,3.65,4.02,4.98,6.01Z"/>
      <path class="cls-4" d="M187.7,30.26c-2.59-6.36,11.92-7.36,11.95-2.99.02,3.02-9.07,3.59-11.95,2.99Z"/>
      <path class="cls-4" d="M227.68,32.26c-.51.47-14.37-1.14-11.98-5.98,3.21-2.13,16,2.29,11.98,5.98Z"/>
      <path class="cls-4" d="M139.69,36.25l-11.99-.97c3.3-4.42,10.03-4.52,11.99.97Z"/>
      <path class="cls-4" d="M261.68,20.26h-5.98s0-5.98,0-5.98c3.64-.65,6.62,2.2,5.98,5.98Z"/>
      <rect class="cls-4" x="179.7" y="32.28" width="7.98" height="3.98"/>
      <path class="cls-4" d="M159.68,26.28c3.62,3.17-7.6,6.47-7.97,5.99-2.42-3.14,5.38-8.26,7.97-5.99Z"/>
      <path class="cls-3" d="M297.69,50.27c.43,4.13.29,4.56-3.99,3.99v-5.99c1.86.28,3.58,1.96,3.99,2Z"/>
      <path class="cls-3" d="M351.69,48.27c-.44.34-1.63,11.49-4,0v-2c.61-.14,1.34.1,2,0l2,2Z"/>
      <path class="cls-3" d="M309.69,50.27c.2,3.4.72,4.64-2.98,4.01l-1.02-4.01c.2.01,2.25-2.01,4,0Z"/>
      <path class="cls-4" d="M347.69,46.27v2h-8c3.77-3.23,4.88-1.27,8-2Z"/>
      <path class="cls-1" d="M341.69,48.27l-1.02,4.01-2.97-.02c.07-1.84-.58-4.37,1.99-3.99h2Z"/>
      <rect class="cls-4" x="165.7" y="24.29" width="5.98" height="1.96"/>
      <rect class="cls-4" x="271.71" y="38.28" width="1.96" height="3.98"/>
      <path class="cls-4" d="M174.69,26.27c1.3.67,1.3,1.33,0,2v-2Z"/>
      <rect class="cls-2" x="81.7" y="30.29" width="3.98" height="1.96"/>
      <path class="cls-2" d="M147.52,76.56c.65.68-.49,4.13.52,5.35,1.42,1.69,7.44-2.03,5.64,4.35l-9.01-5.98-.96,3.98h-8.01s-.02-7.97-.02-7.97c2.77.46,10.62-.98,11.83.28Z"/>
      <path class="cls-2" d="M246.69,88.27c1.3.67,1.3,1.33,0,2v-2Z"/>
    </g>
  </g>
</svg>