<?xml version="1.0" encoding="UTF-8"?>
<svg id="Calque_2" data-name="Calque 2" xmlns="http://www.w3.org/2000/svg" viewBox="0 0 375.87 96.77">
  <defs>
    <style>
      .cls-1 {
        fill: #f7e7ae;
      }

      .cls-2 {
        fill: #939649;
      }

      .cls-3 {
        fill: #909d9d;
      }

      .cls-4 {
        fill: #3b7f6b;
      }
    </style>
  </defs>
  <g id="Calque_1-2" data-name="Calque 1">
    <g>
      <path class="cls-2" d="M87.82,10.65c11.32-9.49,13.62,5.81,14.99,5.95,4.6.48,6.37-12.2,17.98-10,7.24,1.38,6.38,10.05,7.03,10.05h64c-5.6,7.55,3.49,7.89,4.02,4.51.6-3.83-1.86-4.74,2.82-4.39,28.94,2.13,59.34,8.63,88.38,11.69,10.35-5.83,13.02,4.31,13.87,4.32,3.99.07,7.5-5.29,10.27-5.75,3.58-.59,6.32,4.85,12.69,2.83,3.52-1.11,5.58-5.09,8.03-6.14,4.41-1.89,9.83-1.05,15.03-2.97,3.77-1.39,21.11-13.92,22.88-12.1-2.49,19.7-25.76,31.44-37.99,41.99-10.02,8.65-33.13,10.7-46,14l-10.11-4.97c-6.63-2.04-.42,15.59-2.28,21.59-1.75,5.65-12.88,9.18-15.35,5.1-2.19-3.6,2.34-23.71-10.25-23.71.83,3.07,1.13,7.16,1.99,9.99-13.28.31-4.06,16.15-18.66,11.97-1.54-.44-1.33-3.35-1.67-3.53-2.05-1.12-5.08,5.6-7.66-4.44,1.95-9.66-32.83-.44-39-1.99-6.99-.21-15.16-3.75-23-2.02l1.01-13.98c-8.59,6.43-7.76,30.07-20.05,32-.45.07-1.87-6.24-6.96-4.03,5.94-5.98,9.56-14.47,2.99-21.97l-2.02,6.02c-28.95-13.27-108.55.55-122.95-24.03,10.66,3.82,21.23,3.74,31.98,4l2.98,1.99,1.02-1.99c12.06-.74,44.9-.24,51.99-9.98-30.14,9.24-63.03,6.45-94,1.97-2.57-11.55,10.29-.27,8.02-11.99,6.67-1.74,2.97,5.05,4,6,3.62,3.35,4-3.27,4.92-3.6,8.64-1.79,57.25-8.4,60.12-12.35,2.06-2.84-.48-5.5,4.95-10.05-4.15,4.19,3.82,12.15,7.99,7.99,3.26-3.25-4.8-11.21-7.99-7.99ZM119.81,12.66c-7.21-6.43-8.35,13.06-.98,4,1.05-1.29,1.5-3.53.98-4ZM207.81,22.66c-1.97-1.74-11.88.71-9.98,5.98,3.32-.23,13.97-2.46,9.98-5.98ZM233.82,28.64c-1.13-14.27-16.96,1.32-13.98,4,3.29,2.96,9.17-7.71,13.98-4ZM182.15,30.99c2.06-1.86,5.67,2.09,7.63.68-9.21-13.4-17.07,4.28-8.98,3,1.93-.7.41-2.84,1.35-3.68ZM291.81,34.66c-2.18-2.18-6.16,1.8-3.98,3.98s6.16-1.8,3.98-3.98Z"/>
      <path class="cls-4" d="M221.82,74.65c-17.98,5.71-46.59-1.9-62.65,1.92-1.7.41-5.01,12.1-10.07,15.27-1.56.97-11.18,4.96-12.22,4.93s-.94-4.15-2.16-4.21c-2.46-.11-8.76,5.11-10.74-1.12-3.15-9.91,8.96-9.68,9.79-10.87,1.26-1.82-.17-6.83-3.15-7.74-13.15-4.32-3.08,16.75-29.82,16.02-17.07-8.57,3.4-9.3,1.02-20.19-26.94-3.09-71.09,1.02-93-16.08s-.57-41.74,19.87-24.05c15.43-5.24,34.68-3.79,49.74-9.84,3.32-1.33,7.74-31.02,26.41-6.05,13.92-22.92,24.46.03,26.17,0,10.72-4.01,8.26.21,17.39-.25,2.94-.82,5.08-6.34,8.18-5.63,2.31.53,4.02,5.75,8.2,5.87,4.68.13,8.39-6.04,12.09-6.03,3.9.01,5.55,5.12,8.23,5.67,3.26.68,7.99-3.72,11.79-3.5,3.18.19,5.35,4.18,9.77,3.95,3.53-.18,7.13-4.35,9.89-3.79,2.21.45,3.97,4.61,6.72,5.43,4.99,1.47,9.18-2.14,13.1-1.33,2.8.58,5.66,5.04,8.78,5.31,2.81.24,6.28-4.96,11.39-3.83,1.89.42,1.87,4.23,3.22,5.15,6.04,4.05,10.45-3.65,13.03-3.02,2.05.5,2.35,5.92,4.19,6.19,4.05.57,6.91-4.2,9.84-4.17s5.03,3.85,7.99,3.97c3.39.14,6.54-4.02,10.02-3.9s8.07,6.48,12.65,3.55c3.41-8.48,2.95-4.29,10.84-4.04,2.94-.54,6.4-4.7,10.97-5.19,2.91-.31,7.23,2.15,8.24,1.42s.98-5.14,3.42-5.6c1.7-.32,4.05,1.75,5.69,1.77,1.13.01,12.22-13.73,19.18-9.97,1.42,22.38-23.36,45.36-43.99,50,12.22-10.55,35.5-22.29,37.99-41.99-1.77-1.82-19.1,10.71-22.88,12.1-5.2,1.92-10.63,1.08-15.03,2.97-2.45,1.05-4.51,5.02-8.03,6.14-6.38,2.02-9.12-3.42-12.69-2.83-2.76.45-6.28,5.82-10.27,5.75-.86-.01-3.52-10.15-13.87-4.32-29.04-3.06-59.44-9.56-88.38-11.69-4.68-.35-2.23.56-2.82,4.39-.52,3.37-9.62,3.04-4.02-4.51h-64c-.66,0,.2-8.67-7.03-10.05-11.61-2.21-13.37,10.47-17.98,10-1.37-.14-3.67-15.44-14.99-5.95,3.19-3.22,11.25,4.74,7.99,7.99-4.17,4.16-12.14-3.8-7.99-7.99-5.44,4.56-2.9,7.22-4.95,10.05-2.87,3.95-51.48,10.56-60.12,12.35-.92.33-1.29,6.95-4.92,3.6-1.03-.95,2.67-7.75-4-6,2.27,11.72-10.59.44-8.02,11.99,30.97,4.47,63.86,7.26,94-1.97-9.49,12.38-72.88,12.04-87.97,5.98,14.34,24.56,94.01,10.77,122.95,24.03l2.02-6.02c6.57,7.5,2.95,15.99-2.99,21.97,5.08-2.2,6.51,4.11,6.96,4.03,12.29-1.94,11.46-25.58,20.05-32l-1.01,13.98c7.84-1.73,16.01,1.81,23,2.02,8.7,1.24,33.51-6.2,39-.01ZM103.84,78.69c-1.49,1.99,7.08,7.32,12.14,1.12,7.14-8.74-7.27-10.85-8.16-9.18-.56,2.98,2.21,9.14-3.98,8.05Z"/>
      <path class="cls-4" d="M285.82,64.65c-15.24,3.91-4.06,9.88-9.47,21.53-6.34,13.66-36,12.14-29.54.48,5.58-6.17,10.48-6.93,3.01-14-.86-2.83-1.16-6.92-1.99-9.99,12.58,0,8.06,20.11,10.25,23.71,2.48,4.08,13.6.55,15.35-5.1,1.86-6-4.35-23.63,2.28-21.59l10.11,4.97Z"/>
      <path class="cls-4" d="M243.82,74.65c1.49,14.61-4.33,15.22-17.19,16.04-6.75.43-6.11-1.65-10.92-5.14l6.11-8.9c2.59,10.04,5.62,3.32,7.66,4.44.34.19.13,3.1,1.67,3.53,11.91,3.36,7.67-5.38,12.66-9.97Z"/>
      <path class="cls-4" d="M233.82,28.64c-4.82-3.71-10.69,6.96-13.98,4-2.98-2.68,12.85-18.27,13.98-4Z"/>
      <path class="cls-4" d="M182.15,30.99c-.94.84.58,2.98-1.35,3.68-8.1,1.28-.22-16.39,8.98-2.99-1.96,1.4-5.56-2.54-7.63-.68Z"/>
      <path class="cls-4" d="M207.81,22.66c3.99,3.52-6.66,5.75-9.98,5.98-1.9-5.27,8-7.72,9.98-5.98Z"/>
      <path class="cls-4" d="M119.81,12.66c.52.47.07,2.71-.98,4-7.37,9.06-6.23-10.42.98-4Z"/>
      <path class="cls-3" d="M47.82,50.65l-1.02,1.99-2.98-1.99c.74.02,3.11,0,4,0Z"/>
      <path class="cls-1" d="M291.81,34.66c2.18,2.18-1.8,6.16-3.98,3.98s1.8-6.16,3.98-3.98Z"/>
      <path class="cls-2" d="M103.84,78.69c6.21,1.09,3.42-5.09,3.98-8.05.89-1.67,15.3.44,8.16,9.18-5.07,6.2-13.64.87-12.14-1.12Z"/>
    </g>
  </g>
</svg>