<?xml version="1.0" encoding="UTF-8"?>
<svg id="Calque_2" data-name="Calque 2" xmlns="http://www.w3.org/2000/svg" viewBox="0 0 260.97 202.47">
  <defs>
    <style>
      .cls-1 {
        fill: #f2bb4a;
      }

      .cls-2 {
        fill: #939649;
      }

      .cls-3 {
        fill: #9c7f6f;
      }
    </style>
  </defs>
  <g id="Calque_1-2" data-name="Calque 1">
    <g>
      <path class="cls-2" d="M174.41,190.41c.78-8.47,9.76-25,9.1-28.17-1.54-7.41-22.36-14.22-19.11-27.82,8.49-4.64,28.97,2.13,34.04-.99,3.02-2.45,16.93-35.98,24.4-26.51,2.93,5.69,6.26,27.84,7.98,29.09,4.37,3.18,37.51,2.35,28.65,16.44-1.92,3.06-21.73,10.91-22.71,15.12.79,6.84,2.82,14.1,3.65,20.83-1.44,1.12-2.59,2.98-4,4-8.36-27.82-6.8-28.71,15.12-41.8,1.8-1.07,3.97,1.04,2.88-4.19l-26.08-4.93-7.93-29.09c-4.61-1.11-3.28.87-4.57,2.53-5.23,6.73-8.27,15.62-13.39,22.51l-30.03,2.99,17.69,21.26c-1.85,5.37-8.57,25.25-15.7,28.72Z"/>
      <path class="cls-3" d="M236.41,192.41c1.41-1.02,2.56-2.88,4-4,.57,4.66,2.96,10.31-1.1,14.07-10.22-.72-24.51-19.37-32.02-20.08-6.29-.6-19.1,9.94-31.86,10.08-6.49.07-1.03-1.95-1.02-2.06,2.19-1.43,4.69-3.8,6-6,12.85,5.24,18.24-13.43,32.75-5.74,6.36,3.37,16.78,18.4,23.25,13.74Z"/>
      <path class="cls-1" d="M180.41,184.41c1.59-2.67,9.93-21.51,9.7-22.72l-17.69-21.26,30.03-2.99c5.12-6.89,8.15-15.78,13.39-22.51,1.29-1.66-.03-3.64,4.57-2.53l7.93,29.09,26.08,4.93c1.09,5.23-1.08,3.11-2.88,4.19-21.91,13.09-23.48,13.98-15.12,41.8-6.47,4.66-16.89-10.37-23.25-13.74-14.51-7.69-19.9,10.98-32.75,5.74Z"/>
      <g>
        <path class="cls-2" d="M98.46,45.33c12.78,1.46,47.47-7.43,55.56,1.49,2.08,13.48-30.32,36.26-31.47,42.12-1.28,6.51,22.73,44.65,16.75,52.82-7.32,10.01-47.75-19.9-57.87-21.77-8.84,6.31-40.94,40.23-51.43,32.82-9.25-13.16,11.2-45.82,7.9-55.79C-15.14,62.73-13.73,61.22,49.86,53.39c18.42-59.68,18.58-78.62,48.6-8.05ZM74.11,7.68c-8.67-3.89-13.04,42.09-18.42,49.53l-43.56,8.48c.22,2.44-.72,5.37.47,7.56,2.57,4.71,29.61,16.27,31.24,21.85-.09,17.96-8.74,34.72-7.68,52.57l44.97-35.29c6.37,2.08,48.71,27.84,51,25.28,2.66-15.4-18.16-37.27-16.12-50.97.32-2.15,23.41-26.08,27.14-31.01,1.51-2,3.9-2.51,2.98-6-61.83,2.61-42.35,17.26-72.02-42Z"/>
        <path class="cls-1" d="M74.11,7.68c29.71,59.43,10.29,44.55,72.02,42,.92,3.49-1.47,4-2.98,6-3.73,4.93-26.83,28.86-27.14,31.01-2.03,13.7,18.79,35.57,16.12,50.97-2.29,2.56-44.62-23.2-51-25.28l-44.97,35.29c-1.06-17.86,7.59-34.61,7.68-52.57-1.63-5.58-28.67-17.14-31.24-21.85-1.19-2.18-.25-5.12-.47-7.56l43.56-8.48c5.35-7.39,9.8-53.51,18.42-49.53Z"/>
      </g>
    </g>
  </g>
</svg>