<?xml version="1.0" encoding="UTF-8"?>
<svg id="Calque_2" data-name="Calque 2" xmlns="http://www.w3.org/2000/svg" viewBox="0 0 206.79 200.89">
  <defs>
    <style>
      .cls-1 {
        fill: #a3cae0;
      }

      .cls-2 {
        fill: #59b5dd;
      }
    </style>
  </defs>
  <g id="Calque_1-2" data-name="Calque 1">
    <g>
      <path class="cls-2" d="M162.79,16.02c124.51,107.23-44.54,264.14-145.1,138.07C-47.25,60.91,81.51-39.79,162.79,16.02ZM93.26,29.65c-101.94,24.29-44.53,186.9,51.07,129.07C210.84,117.44,172.34,14.29,93.26,29.65ZM15.7,123.09v-39c0-2.98,5.37-14.68,6-18.98-5.23-5.58-11.57,22.85-11.84,25.14-1.07,9.19.2,20.69,1.9,29.83.61,3.29-1.31,3.43,3.93,3.01ZM153.69,167.1c-1.06-1.03-11.46,2.58-7.98,5.98,1.06,1.03,11.46-2.58,7.98-5.98Z"/>
      <path class="cls-1" d="M15.7,123.09c-5.24.42-3.32.28-3.93-3.01-1.7-9.14-2.97-20.64-1.9-29.83.27-2.29,6.61-30.71,11.84-25.14-.63,4.3-6,16-6,18.98v39Z"/>
      <path class="cls-1" d="M153.69,167.1c3.48,3.4-6.92,7.02-7.98,5.98-3.48-3.4,6.92-7.02,7.98-5.98Z"/>
    </g>
  </g>
</svg>