<?xml version="1.0" encoding="UTF-8"?>
<svg id="Calque_2" data-name="Calque 2" xmlns="http://www.w3.org/2000/svg" viewBox="0 0 327.68 212.53">
  <defs>
    <style>
      .cls-1 {
        fill: #5373a0;
      }

      .cls-2 {
        fill: #a3cae0;
      }

      .cls-3 {
        fill: #909d9d;
      }
    </style>
  </defs>
  <g id="Calque_1-2" data-name="Calque 1">
    <g>
      <path class="cls-1" d="M305.85,94.07c2.43,6.99,7.44,29.2,9.06,31.93,3.47,5.81,14.39,2.93,12.56,16.63-1.61,12.11-21.68,8-29.72,10.35-6.55,1.92-22.25,15.25-30.55,19.45-26.42,13.34-73.12,24.94-102.6,27.4-9.12.76-28.53-2.24-33.53-1.29-3.45.66-10.5,12.02-18.34,13.45-19.32,3.52-11.73-11.06-15.31-17.51-22.74-14.31-50.75-31.29-66.5-58.57-1.73-2.92-.59-6.89-1.08-7.83h2c2.73,5.24,10.81,11.9,14,16s5.26,10.28,9.92,15.08c8.43,8.7,41.39,27.72,44.25,31.76,3.16,4.46.37,12.97,7.27,14.88,9.6,2.66,13.98-9.48,21.99-11.3,40.56-2.49,82.28-6.15,120.58-22.42,24.76-8.2,35.52-22.46,62.11-26.89,26.23-4.96-3.01-14.15-3.78-15.43-.58-9.63-4.12-27.68-6.33-35.68h4Z"/>
      <path class="cls-1" d="M207.85,12.07v4c-52.41-3.27-104.68,7.52-151.34,31.66-11.21,5.8-13.22,11.34-26.66,14.34v-4C90.26,16.65,136.35,7.94,207.85,12.07Z"/>
      <path class="cls-3" d="M29.85,58.07v4c-23.51,2.52-34.89,7.57-11.06,24.06,4.22,7.15,7.68,31.64,13.06,41.94h-2c-10.45-5.47-10.65-31.65-15.89-38.61C11.4,85.31.02,81.42,0,71.06c-.03-15.33,21.57-11.34,29.85-12.99Z"/>
      <path class="cls-3" d="M207.85,12.07c6.02.05,14.85.66,20.19-.87,6.71-1.93,6.39-14.64,21.98-10.3,12.83,3.57,2.91,24.18,9.83,29.17l-2,2c-1.05-1.03-5.01-1.17-5.63-2.3-1.86-3.38-.18-22.26-5.47-23.68-6.29-1.7-13.87,10.25-18.31,11.58-8.17,2.44-14.92-1.24-20.6-1.6v-4Z"/>
      <path class="cls-1" d="M297.85,76.07h-4c-8.02-16.31-23.19-31.42-36-44l2-2c18.02,3.21,30.28,30.77,38,46Z"/>
      <path class="cls-3" d="M297.85,76.07c3.65,7.52,4.77,8.7,8,18h-4c-.32-.96-7.04-16.04-8-18h4Z"/>
      <path class="cls-2" d="M53.85,142.07c.3.2-.67.9,4,4,13.54,9.01,24.29,20.07,40,28,1.08.55.77,3.39,6,4,13.64,1.59,11.79-6.14,22-8.02l-3.99-7.97c42.2,9.36,86.34,5.51,123.15-18.1,7.4,8.66,10.08-.72,19.61.21l11.23,15.88c-20.53,10.87-24.83,12.93-48.33,13.05-9.01,8.73-29.49,6.32-42.64,7.4-11.19.92-19.49,1.92-31.02-.44l11.99,11.99c-11.19,1.37-27.67.4-36.58,2.42-8.01,1.82-12.39,13.95-21.99,11.3-6.9-1.91-4.11-10.42-7.27-14.88-2.86-4.04-35.81-23.06-44.25-31.76-4.65-4.8-6.75-11.01-9.92-15.08-2.05-5.73,4.69-4.2,8-2Z"/>
      <path class="cls-1" d="M49.85,104.07c-3.99-2.64-8.37-4.61-11.98-8l6,19.98c3.65-1.03,6.3-8.8,5.97-11.99,5.51,3.64,5.4,3.91,10,8-16.51.94-7.11,17.26-1.97,25.98l3.58-17.01-1.61-8.98c12.69,11.27,18.76,20.36,28,34v2c-4.26.01-4.31-4.48-6.21.76-4.61,12.71,7.29,15,16.21,21.24.25,1.18-.17,2.72,0,4-15.71-7.93-26.46-18.99-40-28,.75-3.45-.67-4.41-4-4-1.66-8.92-43.96-72.55-11.31-47.7,2.77,2.33,6.93,5.99,7.31,9.7ZM75.82,152.06c-.21-3.65,4.14-7.43,3.62-10.64-.38-2.33-11.27-15.29-12.59-15.31-6.92-.13-2.3,27.43,8.97,25.95Z"/>
      <path class="cls-3" d="M143.85,78.07c19.46,3.15,42.83,9.8,55.96,25.02-10.24-2.34-19.15-9.5-28.58-13.4-6.35-2.62-21.45-8.77-27.38-9.62v-2Z"/>
      <path class="cls-3" d="M103.85,178.07c-5.23-.61-4.92-3.45-6-4,1.37-10.43-10.48-17.56-10-28,6.42,9.48,16.47,19.04,16,32Z"/>
      <path class="cls-2" d="M143.85,78.07v2c-7.29-1.05-16.43.78-24-.02,4.91-8.23,17.67-2.88,24-1.98Z"/>
      <path class="cls-3" d="M273.86,144.05l6.93-7.97,7.02-3.04c-3.32,5.48-6.77,10.78-13.95,11Z"/>
      <path class="cls-2" d="M75.82,152.06c-11.27,1.47-15.9-26.08-8.97-25.95,1.32.02,12.21,12.99,12.59,15.31.52,3.21-3.82,6.99-3.62,10.64Z"/>
      <path class="cls-2" d="M59.85,112.07l1.61,8.98-3.58,17.01c-5.14-8.73-14.54-25.05,1.97-25.98Z"/>
      <path class="cls-2" d="M87.85,148.07c1.04,8.08,8.4,14.3,10,22-8.92-6.25-20.82-8.53-16.21-21.24,1.9-5.24,1.95-.74,6.21-.76Z"/>
      <path class="cls-2" d="M49.85,104.07c.33,3.19-2.32,10.95-5.97,11.99l-6-19.98c3.61,3.39,7.99,5.36,11.98,8Z"/>
    </g>
  </g>
</svg>