<?xml version="1.0" encoding="UTF-8"?>
<svg id="Calque_2" data-name="Calque 2" xmlns="http://www.w3.org/2000/svg" viewBox="0 0 131.54 127.91">
  <defs>
    <style>
      .cls-1 {
        fill: #59b5dd;
      }

      .cls-2 {
        fill: #909d9d;
      }

      .cls-3 {
        fill: #366d9c;
      }
    </style>
  </defs>
  <g id="Calque_1-2" data-name="Calque 1">
    <g>
      <path class="cls-3" d="M22.01,5.98c9.63,3.34,37.13,32.15,41.03,32.12,4.98-.03,9.57-12.75,12.93-16.6,4.04-4.63,20.5-20.19,25.42-21.15,7.92-1.55,2.78,2.46,5.03,5.1,1.58,1.85,16.96,6.94,18.73,10.49.66,12.28-34.13,38.47-35.01,43.31s41.08,30.58,41.39,35.72c-.45,9.23-19.24,14.51-19.74,24.79-13.55,3.13-35.87-33.66-49.75-35.76-4.08,9.86-30.21,41.51-36.96,43.89-7.93.62-5.55-6.91-11.15-8.92l4.07-8.97c-3.87-1.16-5.61,4.38-8.73,3.84-2.28-.39-8.55-7.29-7.06-10.45l35.91-40.34C31.18,48.68-.77,38.7.01,21.98c17.96-.07,4.95-23.3,22-16ZM102,11.99c-2.18-2.18-6.16,1.8-3.98,3.98s6.16-1.8,3.98-3.98Z"/>
      <path class="cls-2" d="M12.01,9.98C10.56,16.17,8,22.25.01,21.98c.44-9.36,5.8-7.52,12-12Z"/>
      <path class="cls-1" d="M102,11.99c2.18,2.18-1.8,6.16-3.98,3.98s1.8-6.16,3.98-3.98Z"/>
    </g>
  </g>
</svg>