<?xml version="1.0" encoding="UTF-8"?>
<svg id="Calque_2" data-name="Calque 2" xmlns="http://www.w3.org/2000/svg" viewBox="0 0 114.12 118.36">
  <defs>
    <style>
      .cls-1 {
        fill: #f5872c;
      }

      .cls-2 {
        fill: #f2bb4a;
      }
    </style>
  </defs>
  <g id="Calque_1-2" data-name="Calque 1">
    <g>
      <path class="cls-1" d="M56.29.09c-.2,3.4-.72,4.64,2.98,4.01L60.29.09c1.31.08,2.72-.17,4,0-2.13,6.89,7.91,1.54,5.98,6.97-2.13,5.96-13.24-4.06-11.98,5.03-2.65-.06-5.37.2-8,0-.94-.07-4.8-5.9-4,2-1.26.21-3.11-.34-4,0l-4,2C1.08,45.27,9.53,113.73,67.11,101.92c12.77-1.82,19.29-11.31,27.17-19.82.23-.25,2.55.62,3.54-.37,4.14-4.17,1.81-26.9,2.47-33.62,2.6-3.22,7.16,6.08,7.45,7.5,3.15,15.27-.99,27.16-7.46,40.49.17,3.41-.41,4.14-4,4h-4s0,4,0,4c-4.34,3.61-17.02,3.66-16,10-1.51.45-4.17-.31-6,0l-2,2c-3.6.93-12.31-2.72-15.99-2.01v4.01c-1.99-.03-4.04.16-6.01,0v-3.99s-4,1.99-4,1.99c-1.26-.21-2.8.24-4,0v-4s-6,0-6,0c-6.34.25-6.43-10.15-14-8C-7.57,80.84-3.29,48.66,14.29,22.09c5.43-6.64,6.15-8.19,14-12,4.77-2.31,21-5.44,21.89-6.15.58-.45.04-2.73.11-3.85,1.91-.23,4.04.05,6,0Z"/>
      <path class="cls-2" d="M100.29,96.09c6.47-13.33,10.61-25.23,7.46-40.49-.29-1.42-4.85-10.72-7.45-7.5-1.53,6.55,4.19,36.05-6.01,33.99,2.53-7.27,2.73-28.32-2.45-33.56-14.16-6.6-20.04-8.78-35.55-2.44.09-9.89,16.13-4.26,15.99-13.99-11.73-.46-17.72-.7-27.99,5.99-.81,1.06-6.3,24.25-.97,25.98l6.84-16.68c.9-2.14,3.11-.95,4.13-1.3-15.5,32.73,17.52,29.71,12,18.02-.78-.87-10.59,1.58-7.69-8.64,2.7-9.51,20.28-6.02,24.18,3.12,13.48,31.61-41.85,40.19-48.03,10.04-1.48-8.47-2.12-29.92,9.54-30.54.38-.39.07-3.62,1.84-5.07,34.46-30.29,95.45,27.38,54.16,63.07Z"/>
      <path class="cls-1" d="M44.29,38.09c10.3-6.7,16.26-6.44,27.99-5.99.14,9.73-15.9,4.1-15.99,13.99-1.75.42-4.98-1.07-6.13,1.3,0,0-6.84,16.68-6.84,16.68-5.33-1.73.16-24.92.97-25.98Z"/>
      <path class="cls-2" d="M64.29.09c8.2.02,13.81,3.91,12.01,11.99-.63.64-15.1.07-18.01,0-1.26-9.09,9.85.93,11.98-5.03,1.93-5.43-8.11-.08-5.98-6.97Z"/>
      <path class="cls-2" d="M50.29.09c-.07,1.12.47,3.4-.11,3.85-.9.7-17.13,3.83-21.89,6.15C28.22,2.95,44.1.84,50.29.09Z"/>
      <path class="cls-2" d="M64.29,116.09c-2.13,3.28-8.26,2.05-12,2v-4.01c1.05-.92,11.07,2.02,12,2.01Z"/>
      <path class="cls-2" d="M18.29,104.09c6.77-1.42,7.39,5.02,12,8-5.63-.92-9.16-3.51-12-8Z"/>
      <path class="cls-2" d="M32.29,112.09h6.01s0,4,0,4c-1.63-.33-5.38.52-6.01,0-.5-.42.46-3.22,0-4Z"/>
      <path class="cls-2" d="M88.29,106.09c1.53,4.36-7.97,6.8-12,8-1.35-5.13,7.72-5.85,12-8Z"/>
      <path class="cls-2" d="M60.29.09l-1.02,4.01c-3.7.63-3.18-.61-2.98-4.01,1.32-.03,2.69-.08,4,0Z"/>
      <path class="cls-2" d="M96.29,100.09c-.78.67,1.85.87-4,4v-4s4,0,4,0Z"/>
      <path class="cls-2" d="M42.29,116.09l3.99-1.99v3.99c-3.5-.28-3.77-1.96-3.99-2Z"/>
      <path class="cls-2" d="M50.29,12.09c-.58,2.05-2.35,1.72-4,2-.8-7.9,3.06-2.07,4-2Z"/>
      <path class="cls-2" d="M42.29,14.09c-.28.11-3.59,1.76-4,2l4-2Z"/>
      <path class="cls-2" d="M12.29,26.09c.54-.8.52-2.19,2-4l-2,4Z"/>
      <path class="cls-2" d="M68.29,116.09l2-2c-.14.02-.44,1.88-2,2Z"/>
    </g>
  </g>
</svg>