<?xml version="1.0" encoding="UTF-8"?>
<svg id="Calque_2" data-name="Calque 2" xmlns="http://www.w3.org/2000/svg" viewBox="0 0 182.91 226.31">
  <defs>
    <style>
      .cls-1 {
        fill: #5373a0;
      }

      .cls-2 {
        fill: #3b7f6b;
      }
    </style>
  </defs>
  <g id="Calque_1-2" data-name="Calque 1">
    <g>
      <path class="cls-2" d="M152.23,138.68c34.01-2.28,42.67,42.58,11.05,55.05-40.61,9.37-44.71-50.42-11.05-55.05Z"/>
      <g>
        <path class="cls-2" d="M50.69,196.16c-1.08-3.02-2.59-9.99-3.93-11.07C10.69,178.35-8.51,138.64,3.65,104.12c2.75-8.63,20.71-30.31,28-36,5.28-4.13,28.88-13.93,30.05-15.95,1.99-3.4,2.17-15.67,5.48-22.52C75.21,13.01,99.48-.77,117.71.03c9.54.42,22.52,4.46,18.96,16.12-26.56-13.24-60.12,6.72-60,36.02,21.89-2.71,53.35,17.25,49.89,40.86-1.52,10.41-6.86,14.32-16.78,15.22-26.74,2.42-37.63-13.56-46.26-36.14-43.22,12.16-65.71,79.96-12.88,96.06,2.36-15.39,31.31-40.44,44.92-25.9,9.8,10.48.99,31.28-8.73,39.06-8.22,6.58-17.38,2.84-24.16,4.84h-4c-.12,3.12,0,6.58,0,10-2.09-.56-5.58.39-8,0ZM112.69,92.14c-2.56-15.53-19.15-24.53-33.99-23.97-.8,16.18,18.37,30.71,33.99,23.97ZM86.68,150.17c-2.41-2.6-28.34,15.69-21.98,21.98,5.24,5.18,27.38-11.46,21.98-21.98Z"/>
        <path class="cls-2" d="M66.69,208.16c5.29.84,27.03,7.95,29.04,11.97,4.57,9.12-16.11,5.77-20.67,4.66-10.7-2.6-10.93-5.5-16.37-12.63-1.51-5.1,3.32-4.75,8-4Z"/>
        <path class="cls-1" d="M58.69,196.16c3.44.92,7.33,8.37,8,12-4.68-.75-9.51-1.1-8,4-6.25-8.19-4.76-6.98-8-16,2.42.39,5.91-.56,8,0Z"/>
        <path class="cls-1" d="M62.69,186.16c-.27.08-3.88,3.74-4,4v-4s4,0,4,0Z"/>
      </g>
    </g>
  </g>
</svg>