<?xml version="1.0" encoding="UTF-8"?>
<svg id="Calque_2" data-name="Calque 2" xmlns="http://www.w3.org/2000/svg" viewBox="0 0 202.92 192.8">
  <defs>
    <style>
      .cls-1 {
        fill: #3b7f6b;
      }
    </style>
  </defs>
  <g id="Calque_1-2" data-name="Calque 1">
    <path class="cls-1" d="M143.49,2.86c3.75,3.75,2.67,12.8.19,17.24-6.61,1.66-40.47,6-43.16,8.85-11.32,11.98,9.84,36.48-4.5,55.94-7.37,10-23.07,1.42-31.14,9.4-3.19,3.15-7.45,13.62-11.28,18.72-6.4,8.51-13.66,15.43-20.39,23.38-1.16,1.38-2.09.93-1.23,3.97,6.16,1.77,36.84,15.08,39.99,12.02-1.33-21.37,1.46-38.72,24.36-44.64,5.68-1.47,24.18-1.58,26.74-5.24,5.02-7.19-9.08-27.4-.11-38.12,11.42-13.65,23.88,31.6,20.59,42.6-.77,2.56-11.42,12.82-14.08,13.9-8.28,3.37-29.44,2.03-35.7,10.32-1.9,2.52-1.05,5.69-2,7.58s-3.42,1.71-3.73,3.01c-4.13,17.59,1.89,26.46,19.75,26.38,5.89-20.13,32.14-58.89,54.17-34.78,3.63,3.97,12.81,23.41,19.66,11.63,4.43-7.62-2.3-18.06,13.33-16.66,16.41,1.47,3.77,40.28-4.86,43.13-8.39,2.77-25.79-4.17-32.2-10.03-7.02-6.41-14.75-28.03-26.29-10.46-4.04,6.14-17.3,39.38-19.94,41.04-14.74,5.06-48.91-17.15-65.05-23.3-5.97-2.86-41.86-20.41-43.57-22.43-9.98-11.83,7.11-17.46,14.96-24.91,34.07-31.44,14.54-24.15,28.9-43.09,9.2-7.55,42.57,7.4,34.16-20.04-5.42-13.78-22.29-23.77-9.98-37.8,15.07-8.25,54.4-27.78,72.41-17.62Z"/>
  </g>
</svg>