<?xml version="1.0" encoding="UTF-8"?>
<svg id="Calque_2" data-name="Calque 2" xmlns="http://www.w3.org/2000/svg" viewBox="0 0 301.57 227.47">
  <defs>
    <style>
      .cls-1 {
        fill: #5373a0;
      }

      .cls-2 {
        fill: #a3cae0;
      }

      .cls-3 {
        fill: #909d9d;
      }
    </style>
  </defs>
  <g id="Calque_1-2" data-name="Calque 1">
    <g>
      <path class="cls-1" d="M121.78,67.44c5.84-8.37-4.75-.86-5.99-1.99-.26-.24-1.95-6.24-1.83-6.8.96-4.52,67.67-25,71.8-21.2l-2.01,7.97c21.24-6-22.25,64.02-23.94,73.04,10.55.5,32.35-12.62,40.62-12.48,7.96.14,4,6.06,5.77,8.98,1.45,2.39,9.33,1.43,3.01,9.96-19.33,5.07-45.12,19.24-64.63,20.57-11.01.75-9.01-7.9-14.63-14.58,8.73-23.78,22.59-44.89,33.81-67.45-4.39-3.22-31.46,8.83-38,9.98l4-7.98c-1.36.9-7.63,1.8-8,1.98ZM177.77,41.45c-2.18-2.18-6.16,1.8-3.98,3.98s6.16-1.8,3.98-3.98Z"/>
      <path class="cls-1" d="M281.55,1.65c7.8,9.27-21.39,55.78-25.73,66.81l38.65-9.16c9.2,10.99,10.89,14.5-3.6,20.23-17.39,5.85-48.63,19.04-65.02,9.82l29.92-67.9c-13.18.69-52.18,21.46-41.49-7.53,4.74-4.78,61.9-18.65,67.28-12.27Z"/>
      <path class="cls-2" d="M121.78,67.44c.37-.18,6.64-1.08,8-1.98l-4,7.98c-.52.09-1.49.12-2,0-3.03-4.11-3.78-1.47-5.96-2.98,1.03-1.55,2.37-2.23,3.96-3.02Z"/>
      <path class="cls-1" d="M123.78,73.44c-.64-.15-1.37-1.45-2-2,.76.55,1.38,1.3,2,2Z"/>
      <path class="cls-3" d="M177.77,41.45c2.18,2.18-1.8,6.16-3.98,3.98s1.8-6.16,3.98-3.98Z"/>
      <g>
        <path class="cls-1" d="M23.78,205.44c1.75-30.53,31.58-56.7,42.02-84.98-11.38-1.06-48.85,21.06-56.71,18.79-2.99-.86-9.67-15.91-9.05-18.6,15.49-10.78,75.84-33.22,91.73-31.2l-1.97,9.99c9.51-8.4,8.61,2.39,7.07,10.1-5.26,26.3-31.33,55.74-39.08,81.89,16.23-5.51,31.13-14.35,47.99-17.99,1.18,11.09,4.59-.12,4.96-.02,7.42,2.11,7.56,5.67,11.04,10.02.26.32,1.75-.32,2,0,10.1,13.37-28.39,18.53-36.56,22.44-18.72,7.44-36.59,17.55-56.41,21.59-4.54-8.54-7.37-10.85-7.03-22.03ZM27.79,113.42c3.67.49,5.85.11,7.95-3l-7.95,1.04v1.96ZM35.77,193.45c-2.18-2.18-6.16,1.8-3.98,3.98s6.16-1.8,3.98-3.98ZM30.78,201.44v2c1.3-.67,1.3-1.33,0-2ZM26.78,203.44v2c1.3-.67,1.3-1.33,0-2Z"/>
        <path class="cls-3" d="M121.78,183.44c-3.49-4.35-3.63-7.91-11.04-10.02-.36-.1-3.77,11.11-4.96.02,9.96-2.15,17.92-5.07,16,10Z"/>
        <path class="cls-3" d="M23.78,207.44v-2c-.03.66-.02,1.34,0,2Z"/>
        <path class="cls-3" d="M35.77,193.45c2.18,2.18-1.8,6.16-3.98,3.98s1.8-6.16,3.98-3.98Z"/>
        <path class="cls-3" d="M27.79,113.42v-1.96s7.95-1.04,7.95-1.04c-2.1,3.11-4.28,3.49-7.95,3Z"/>
        <path class="cls-3" d="M30.78,201.44c1.3.67,1.3,1.33,0,2v-2Z"/>
        <path class="cls-3" d="M26.78,203.44c1.3.67,1.3,1.33,0,2v-2Z"/>
      </g>
    </g>
  </g>
</svg>