<?xml version="1.0" encoding="UTF-8"?>
<svg id="Calque_2" data-name="Calque 2" xmlns="http://www.w3.org/2000/svg" viewBox="0 0 244.67 247.43">
  <defs>
    <style>
      .cls-1 {
        fill: #90624d;
      }

      .cls-2 {
        fill: #909d9d;
      }

      .cls-3 {
        fill: #9c7f6f;
      }
    </style>
  </defs>
  <g id="Calque_1-2" data-name="Calque 1">
    <g>
      <path class="cls-1" d="M226.82,172.97C77.53,388.8-132.76,73.93,112.64,2.13c82.67-14.75,143.57,49.07,130.18,130.84-11.16-2.02.83,7.43-9.99,8.04l5.99,3.96c-.33,1.13.34,2.94,0,4-4.81.42-5.94-2.48-8.06,2.99s-10.96,18.69-3.94,21.01ZM152.81,18.99h-3.98v1.96h3.98v-1.96ZM164.81,23c-.86-.68-8.91-2.5-9.97-2.01v1.96c1.65.53,13.4,2.76,9.97.05ZM104.81,22.98c-.6-.52-11.98,3.07-11.98,5.97,1.51.4,16.57-1.99,11.98-5.97ZM189.8,29.02c-.85,3.59,7.76,6.75,10.98,6.98l-10.98-6.98ZM182.5,41.38c-.61-.38-3.1,1.3-4.23.85-33.38-13.38-64.07-14.82-96.79,2.41C32.13,70.62.28,143,45.77,187.03c50.58,48.96,110.05,5.38,102.84-56.84-6.05-52.23-81.34-45.87-79.84-6.32.56,14.83,13.11,29.47,28.51,21.07,3.76-2.05,5.6-13.25,14.66-6.07,1.26,32.61-36.15,35.95-53.14,11.13-17.09-24.97-4.1-60.13,23.28-70.76,96.91-27.18,115.35,92.57,42.74,137.72,38.72-.49,75.56-37.27,89.79-71.19,16.11-36.97-2.77-80.35-32.11-104.39ZM212.81,46.96c1.31-3.68-6.1-9.79-7.98-7.98-1.31,3.68,6.1,9.79,7.98,7.98ZM30.81,192.96c2.2-2.17-7.76-12.17-9.98-9.98s7.76,12.17,9.98,9.98ZM36.81,192.98c-2.18-2.18-6.16,1.8-3.98,3.98s6.16-1.8,3.98-3.98Z"/>
      <path class="cls-3" d="M238.82,148.97c-3.06,9.37-7.2,15.74-12,24-7.02-2.31,1.89-15.72,3.94-21.01s3.25-2.57,8.06-2.99Z"/>
      <path class="cls-3" d="M242.82,132.97c-.8,4.89-2.88,8.13-4,12l-5.99-3.96c10.81-.61-1.17-10.06,9.99-8.04Z"/>
      <path class="cls-3" d="M30.81,192.96c-2.22,2.19-12.18-7.81-9.98-9.98s12.18,7.81,9.98,9.98Z"/>
      <path class="cls-2" d="M212.81,46.96c-1.88,1.81-9.29-4.3-7.98-7.98,1.88-1.81,9.29,4.3,7.98,7.98Z"/>
      <path class="cls-3" d="M104.81,22.98c4.59,3.99-10.46,6.38-11.98,5.97,0-2.91,11.38-6.49,11.98-5.97Z"/>
      <path class="cls-3" d="M36.81,192.98c2.18,2.18-1.8,6.16-3.98,3.98s1.8-6.16,3.98-3.98Z"/>
      <path class="cls-3" d="M164.81,23c3.42,2.71-8.32.48-9.97-.05v-1.96c1.06-.5,9.12,1.33,9.97,2.01Z"/>
      <rect class="cls-3" x="148.83" y="18.99" width="3.98" height="1.96"/>
      <path class="cls-2" d="M189.8,29.02l10.98,6.98c-3.22-.23-11.83-3.39-10.98-6.98Z"/>
    </g>
  </g>
</svg>